<?xml version="1.0" encoding="UTF-8" standalone="no"?>
<!DOCTYPE svg PUBLIC "-//W3C//DTD SVG 1.1//EN"
 "http://www.w3.org/Graphics/SVG/1.1/DTD/svg11.dtd">
<!-- Generated by graphviz version 6.0.1 (20220911.1526)
 -->
<!-- Title: G Pages: 1 -->
<svg width="1436pt" height="1242pt"
 viewBox="0.00 0.00 1436.00 1241.50" xmlns="http://www.w3.org/2000/svg" xmlns:xlink="http://www.w3.org/1999/xlink">
<g id="graph0" class="graph" transform="scale(1 1) rotate(0) translate(4 1237.5)">
<title>G</title>
<polygon fill="white" stroke="none" points="-4,4 -4,-1237.5 1432,-1237.5 1432,4 -4,4"/>
<!-- Carton -->
<g id="node1" class="node">
<title>Carton</title>
<polygon fill="none" stroke="black" points="588,-782.5 588,-943.5 761,-943.5 761,-782.5 588,-782.5"/>
<text text-anchor="middle" x="674.5" y="-928.3" font-family="Times,serif" font-size="14.00">Carton</text>
<polyline fill="none" stroke="black" points="588,-920.5 761,-920.5"/>
<text text-anchor="middle" x="674.5" y="-905.3" font-family="Times,serif" font-size="14.00">deductConsumableInventory</text>
<polyline fill="none" stroke="black" points="588,-897.5 761,-897.5"/>
<text text-anchor="middle" x="674.5" y="-882.3" font-family="Times,serif" font-size="14.00">cartonizationRule</text>
<polyline fill="none" stroke="black" points="588,-874.5 761,-874.5"/>
<text text-anchor="middle" x="674.5" y="-859.3" font-family="Times,serif" font-size="14.00">installConsumables</text>
<polyline fill="none" stroke="black" points="588,-851.5 761,-851.5"/>
<text text-anchor="middle" x="674.5" y="-836.3" font-family="Times,serif" font-size="14.00">transferFrom</text>
<polyline fill="none" stroke="black" points="588,-828.5 761,-828.5"/>
<text text-anchor="middle" x="674.5" y="-813.3" font-family="Times,serif" font-size="14.00">fulfill</text>
<polyline fill="none" stroke="black" points="588,-805.5 761,-805.5"/>
<text text-anchor="middle" x="674.5" y="-790.3" font-family="Times,serif" font-size="14.00">bindOrder</text>
</g>
<!-- CartonBag -->
<g id="node2" class="node">
<title>CartonBag</title>
<polygon fill="none" stroke="black" points="325,-851 325,-943 498,-943 498,-851 325,-851"/>
<text text-anchor="middle" x="411.5" y="-927.8" font-family="Times,serif" font-size="14.00">CartonBag</text>
<polyline fill="none" stroke="black" points="325,-920 498,-920"/>
<text text-anchor="middle" x="411.5" y="-904.8" font-family="Times,serif" font-size="14.00">deductConsumableInventory</text>
<polyline fill="none" stroke="black" points="325,-897 498,-897"/>
<text text-anchor="middle" x="411.5" y="-881.8" font-family="Times,serif" font-size="14.00">fulfill</text>
<polyline fill="none" stroke="black" points="325,-874 498,-874"/>
<text text-anchor="middle" x="411.5" y="-858.8" font-family="Times,serif" font-size="14.00">putOnPallet</text>
</g>
<!-- CartonBag&#45;&gt;Carton -->
<g id="edge1" class="edge">
<title>CartonBag:deductConsumableInventory&#45;&gt;Carton:deductConsumableInventory</title>
<path fill="none" stroke="black" stroke-dasharray="5,2" d="M498,-909C498,-909 554.04,-909 577.68,-909"/>
<polygon fill="black" stroke="black" points="578,-912.5 588,-909 578,-905.5 578,-912.5"/>
</g>
<!-- CartonBag&#45;&gt;Carton -->
<g id="edge2" class="edge">
<title>CartonBag:fulfill&#45;&gt;Carton:fulfill</title>
<path fill="none" stroke="black" stroke-dasharray="5,2" d="M498,-885C498,-885 570,-835 570,-835 570,-835 575.7,-829.3 580.68,-824.32"/>
<polygon fill="black" stroke="black" points="583.4,-826.55 588,-817 578.45,-821.6 583.4,-826.55"/>
</g>
<!-- Consumable -->
<g id="node3" class="node">
<title>Consumable</title>
<polygon fill="none" stroke="black" points="369,-1122 369,-1168 454,-1168 454,-1122 369,-1122"/>
<text text-anchor="middle" x="411.5" y="-1152.8" font-family="Times,serif" font-size="14.00">Consumable</text>
<polyline fill="none" stroke="black" points="369,-1145 454,-1145"/>
<text text-anchor="middle" x="411.5" y="-1129.8" font-family="Times,serif" font-size="14.00">isInventory</text>
</g>
<!-- Container -->
<g id="node4" class="node">
<title>Container</title>
<polygon fill="none" stroke="black" points="1153,-146.5 1153,-215.5 1287,-215.5 1287,-146.5 1153,-146.5"/>
<text text-anchor="middle" x="1220" y="-200.3" font-family="Times,serif" font-size="14.00">Container</text>
<polyline fill="none" stroke="black" points="1153,-192.5 1287,-192.5"/>
<text text-anchor="middle" x="1220" y="-177.3" font-family="Times,serif" font-size="14.00">skuNoSet</text>
<polyline fill="none" stroke="black" points="1153,-169.5 1287,-169.5"/>
<text text-anchor="middle" x="1220" y="-154.3" font-family="Times,serif" font-size="14.00">getContainerItemBag</text>
</g>
<!-- ContainerItem -->
<g id="node6" class="node">
<title>ContainerItem</title>
<polygon fill="none" stroke="black" points="1324,-13.5 1324,-128.5 1428,-128.5 1428,-13.5 1324,-13.5"/>
<text text-anchor="middle" x="1376" y="-113.3" font-family="Times,serif" font-size="14.00">ContainerItem</text>
<polyline fill="none" stroke="black" points="1324,-105.5 1428,-105.5"/>
<text text-anchor="middle" x="1376" y="-90.3" font-family="Times,serif" font-size="14.00">getExpectedQty</text>
<polyline fill="none" stroke="black" points="1324,-82.5 1428,-82.5"/>
<text text-anchor="middle" x="1376" y="-67.3" font-family="Times,serif" font-size="14.00">getPendingQty</text>
<polyline fill="none" stroke="black" points="1324,-59.5 1428,-59.5"/>
<text text-anchor="middle" x="1376" y="-44.3" font-family="Times,serif" font-size="14.00">diffQty</text>
<polyline fill="none" stroke="black" points="1324,-36.5 1428,-36.5"/>
<text text-anchor="middle" x="1376" y="-21.3" font-family="Times,serif" font-size="14.00">getSku</text>
</g>
<!-- Container&#45;&gt;ContainerItem -->
<g id="edge33" class="edge">
<title>Container:skuNoSet&#45;&gt;ContainerItem:getSku</title>
<path fill="none" stroke="black" stroke-dasharray="5,2" d="M1287,-181C1287,-181 1306,-108 1306,-108 1306,-108 1317.1,-56.83 1321.86,-34.85"/>
<polygon fill="black" stroke="black" points="1325.3,-35.51 1324,-25 1318.46,-34.03 1325.3,-35.51"/>
</g>
<!-- Sku -->
<g id="node14" class="node">
<title>Sku</title>
<polygon fill="none" stroke="black" points="1349,-170 1349,-216 1403,-216 1403,-170 1349,-170"/>
<text text-anchor="middle" x="1376" y="-200.8" font-family="Times,serif" font-size="14.00">Sku</text>
<polyline fill="none" stroke="black" points="1349,-193 1403,-193"/>
<text text-anchor="middle" x="1376" y="-177.8" font-family="Times,serif" font-size="14.00">value</text>
</g>
<!-- Container&#45;&gt;Sku -->
<g id="edge32" class="edge">
<title>Container:skuNoSet&#45;&gt;Sku:value</title>
<path fill="none" stroke="black" stroke-dasharray="5,2" d="M1287,-181C1287,-181 1320.6,-181 1337.93,-181"/>
<polygon fill="black" stroke="black" points="1338,-184.5 1348,-181 1338,-177.5 1338,-184.5"/>
</g>
<!-- ContainerBag -->
<g id="node5" class="node">
<title>ContainerBag</title>
<polygon fill="none" stroke="black" points="1010.5,-62 1010.5,-200 1115.5,-200 1115.5,-62 1010.5,-62"/>
<text text-anchor="middle" x="1063" y="-184.8" font-family="Times,serif" font-size="14.00">ContainerBag</text>
<polyline fill="none" stroke="black" points="1010.5,-177 1115.5,-177"/>
<text text-anchor="middle" x="1063" y="-161.8" font-family="Times,serif" font-size="14.00">orderNoSet</text>
<polyline fill="none" stroke="black" points="1010.5,-154 1115.5,-154"/>
<text text-anchor="middle" x="1063" y="-138.8" font-family="Times,serif" font-size="14.00">confirmQty</text>
<polyline fill="none" stroke="black" points="1010.5,-131 1115.5,-131"/>
<text text-anchor="middle" x="1063" y="-115.8" font-family="Times,serif" font-size="14.00">totalQty</text>
<polyline fill="none" stroke="black" points="1010.5,-108 1115.5,-108"/>
<text text-anchor="middle" x="1063" y="-92.8" font-family="Times,serif" font-size="14.00">totalPendingQty</text>
<polyline fill="none" stroke="black" points="1010.5,-85 1115.5,-85"/>
<text text-anchor="middle" x="1063" y="-69.8" font-family="Times,serif" font-size="14.00">totalSku</text>
</g>
<!-- ContainerBag&#45;&gt;Container -->
<g id="edge26" class="edge">
<title>ContainerBag:totalPendingQty&#45;&gt;Container:getContainerItemBag</title>
<path fill="none" stroke="black" stroke-dasharray="5,2" d="M1116,-96C1116,-96 1137.69,-132.34 1147.86,-149.38"/>
<polygon fill="black" stroke="black" points="1144.87,-151.21 1153,-158 1150.88,-147.62 1144.87,-151.21"/>
</g>
<!-- ContainerBag&#45;&gt;Container -->
<g id="edge28" class="edge">
<title>ContainerBag:totalQty&#45;&gt;Container:getContainerItemBag</title>
<path fill="none" stroke="black" stroke-dasharray="5,2" d="M1116,-119C1116,-119 1135.11,-139.15 1145.87,-150.48"/>
<polygon fill="black" stroke="black" points="1143.58,-153.15 1153,-158 1148.66,-148.34 1143.58,-153.15"/>
</g>
<!-- ContainerItemBag -->
<g id="node7" class="node">
<title>ContainerItemBag</title>
<polygon fill="none" stroke="black" points="1161.5,-35 1161.5,-127 1278.5,-127 1278.5,-35 1161.5,-35"/>
<text text-anchor="middle" x="1220" y="-111.8" font-family="Times,serif" font-size="14.00">ContainerItemBag</text>
<polyline fill="none" stroke="black" points="1161.5,-104 1278.5,-104"/>
<text text-anchor="middle" x="1220" y="-88.8" font-family="Times,serif" font-size="14.00">totalQty</text>
<polyline fill="none" stroke="black" points="1161.5,-81 1278.5,-81"/>
<text text-anchor="middle" x="1220" y="-65.8" font-family="Times,serif" font-size="14.00">totalPendingQty</text>
<polyline fill="none" stroke="black" points="1161.5,-58 1278.5,-58"/>
<text text-anchor="middle" x="1220" y="-42.8" font-family="Times,serif" font-size="14.00">totalSku</text>
</g>
<!-- ContainerBag&#45;&gt;ContainerItemBag -->
<g id="edge25" class="edge">
<title>ContainerBag:totalPendingQty&#45;&gt;ContainerItemBag:totalPendingQty</title>
<path fill="none" stroke="black" stroke-dasharray="5,2" d="M1116,-96C1116,-96 1138.24,-82.35 1151.1,-74.46"/>
<polygon fill="black" stroke="black" points="1153.31,-77.21 1160,-69 1149.65,-71.25 1153.31,-77.21"/>
</g>
<!-- ContainerBag&#45;&gt;ContainerItemBag -->
<g id="edge27" class="edge">
<title>ContainerBag:totalQty&#45;&gt;ContainerItemBag:totalQty</title>
<path fill="none" stroke="black" stroke-dasharray="5,2" d="M1116,-119C1116,-119 1138.24,-105.86 1151.1,-98.26"/>
<polygon fill="black" stroke="black" points="1153.17,-101.1 1160,-93 1149.61,-95.07 1153.17,-101.1"/>
</g>
<!-- ContainerBag&#45;&gt;ContainerItemBag -->
<g id="edge29" class="edge">
<title>ContainerBag:totalSku&#45;&gt;ContainerItemBag:totalSku</title>
<path fill="none" stroke="black" stroke-dasharray="5,2" d="M1116,-73C1116,-73 1138.24,-59.35 1151.1,-51.46"/>
<polygon fill="black" stroke="black" points="1153.31,-54.21 1160,-46 1149.65,-48.25 1153.31,-54.21"/>
</g>
<!-- ContainerItemBag&#45;&gt;ContainerItem -->
<g id="edge30" class="edge">
<title>ContainerItemBag:totalPendingQty&#45;&gt;ContainerItem:getPendingQty</title>
<path fill="none" stroke="black" stroke-dasharray="5,2" d="M1280,-69C1280,-69 1300.8,-69.95 1313.79,-70.54"/>
<polygon fill="black" stroke="black" points="1313.85,-74.04 1324,-71 1314.17,-67.05 1313.85,-74.04"/>
</g>
<!-- ContainerItemBag&#45;&gt;ContainerItem -->
<g id="edge31" class="edge">
<title>ContainerItemBag:totalQty&#45;&gt;ContainerItem:getExpectedQty</title>
<path fill="none" stroke="black" stroke-dasharray="5,2" d="M1280,-93C1280,-93 1300.8,-93.47 1313.79,-93.77"/>
<polygon fill="black" stroke="black" points="1313.92,-97.27 1324,-94 1314.08,-90.27 1313.92,-97.27"/>
</g>
<!-- Order -->
<g id="node8" class="node">
<title>Order</title>
<polygon fill="none" stroke="black" points="603,-510.5 603,-671.5 746,-671.5 746,-510.5 603,-510.5"/>
<text text-anchor="middle" x="674.5" y="-656.3" font-family="Times,serif" font-size="14.00">Order</text>
<polyline fill="none" stroke="black" points="603,-648.5 746,-648.5"/>
<text text-anchor="middle" x="674.5" y="-633.3" font-family="Times,serif" font-size="14.00">getOrderNo</text>
<polyline fill="none" stroke="black" points="603,-625.5 746,-625.5"/>
<text text-anchor="middle" x="674.5" y="-610.3" font-family="Times,serif" font-size="14.00">recommendPackQty</text>
<polyline fill="none" stroke="black" points="603,-602.5 746,-602.5"/>
<text text-anchor="middle" x="674.5" y="-587.3" font-family="Times,serif" font-size="14.00">checkedBy</text>
<polyline fill="none" stroke="black" points="603,-579.5 746,-579.5"/>
<text text-anchor="middle" x="674.5" y="-564.3" font-family="Times,serif" font-size="14.00">ship</text>
<polyline fill="none" stroke="black" points="603,-556.5 746,-556.5"/>
<text text-anchor="middle" x="674.5" y="-541.3" font-family="Times,serif" font-size="14.00">totalExpectedQty</text>
<polyline fill="none" stroke="black" points="603,-533.5 746,-533.5"/>
<text text-anchor="middle" x="674.5" y="-518.3" font-family="Times,serif" font-size="14.00">recommendedPlatform</text>
</g>
<!-- OrderCartons -->
<g id="node10" class="node">
<title>OrderCartons</title>
<polygon fill="none" stroke="black" points="852,-462 852,-508 972,-508 972,-462 852,-462"/>
<text text-anchor="middle" x="912" y="-492.8" font-family="Times,serif" font-size="14.00">OrderCartons</text>
<polyline fill="none" stroke="black" points="852,-485 972,-485"/>
<text text-anchor="middle" x="912" y="-469.8" font-family="Times,serif" font-size="14.00">totalCartonizedQty</text>
</g>
<!-- Order&#45;&gt;OrderCartons -->
<g id="edge40" class="edge">
<title>Order:recommendPackQty&#45;&gt;OrderCartons:totalCartonizedQty</title>
<path fill="none" stroke="black" stroke-dasharray="5,2" d="M747.5,-614C747.5,-614 822.55,-511.75 844.84,-481.4"/>
<polygon fill="black" stroke="black" points="847.9,-483.13 851,-473 842.26,-478.99 847.9,-483.13"/>
</g>
<!-- OrderLineBag -->
<g id="node12" class="node">
<title>OrderLineBag</title>
<polygon fill="none" stroke="black" points="856.5,-533.5 856.5,-602.5 967.5,-602.5 967.5,-533.5 856.5,-533.5"/>
<text text-anchor="middle" x="912" y="-587.3" font-family="Times,serif" font-size="14.00">OrderLineBag</text>
<polyline fill="none" stroke="black" points="856.5,-579.5 967.5,-579.5"/>
<text text-anchor="middle" x="912" y="-564.3" font-family="Times,serif" font-size="14.00">orderLineNos</text>
<polyline fill="none" stroke="black" points="856.5,-556.5 967.5,-556.5"/>
<text text-anchor="middle" x="912" y="-541.3" font-family="Times,serif" font-size="14.00">totalExpectedQty</text>
</g>
<!-- Order&#45;&gt;OrderLineBag -->
<g id="edge41" class="edge">
<title>Order:totalExpectedQty&#45;&gt;OrderLineBag:totalExpectedQty</title>
<path fill="none" stroke="black" stroke-dasharray="5,2" d="M747.5,-545C747.5,-545 817.79,-545 844.69,-545"/>
<polygon fill="black" stroke="black" points="845,-548.5 855,-545 845,-541.5 845,-548.5"/>
</g>
<!-- OrderBag -->
<g id="node9" class="node">
<title>OrderBag</title>
<polygon fill="none" stroke="black" points="346,-551 346,-643 477,-643 477,-551 346,-551"/>
<text text-anchor="middle" x="411.5" y="-627.8" font-family="Times,serif" font-size="14.00">OrderBag</text>
<polyline fill="none" stroke="black" points="346,-620 477,-620"/>
<text text-anchor="middle" x="411.5" y="-604.8" font-family="Times,serif" font-size="14.00">canceledBag</text>
<polyline fill="none" stroke="black" points="346,-597 477,-597"/>
<text text-anchor="middle" x="411.5" y="-581.8" font-family="Times,serif" font-size="14.00">consumableCostFirst</text>
<polyline fill="none" stroke="black" points="346,-574 477,-574"/>
<text text-anchor="middle" x="411.5" y="-558.8" font-family="Times,serif" font-size="14.00">orderNos</text>
</g>
<!-- OrderBag&#45;&gt;Order -->
<g id="edge34" class="edge">
<title>OrderBag:orderNos&#45;&gt;Order:getOrderNo</title>
<path fill="none" stroke="black" stroke-dasharray="5,2" d="M478.5,-562C478.5,-562 564.45,-614.41 592.65,-631.61"/>
<polygon fill="black" stroke="black" points="591.14,-634.78 601.5,-637 594.78,-628.81 591.14,-634.78"/>
</g>
<!-- OrderLine -->
<g id="node11" class="node">
<title>OrderLine</title>
<polygon fill="none" stroke="black" points="1010,-533.5 1010,-602.5 1116,-602.5 1116,-533.5 1010,-533.5"/>
<text text-anchor="middle" x="1063" y="-587.3" font-family="Times,serif" font-size="14.00">OrderLine</text>
<polyline fill="none" stroke="black" points="1010,-579.5 1116,-579.5"/>
<text text-anchor="middle" x="1063" y="-564.3" font-family="Times,serif" font-size="14.00">getOrderLineNo</text>
<polyline fill="none" stroke="black" points="1010,-556.5 1116,-556.5"/>
<text text-anchor="middle" x="1063" y="-541.3" font-family="Times,serif" font-size="14.00">expectedQty</text>
</g>
<!-- OrderLineBag&#45;&gt;OrderLine -->
<g id="edge35" class="edge">
<title>OrderLineBag:orderLineNos&#45;&gt;OrderLine:getOrderLineNo</title>
<path fill="none" stroke="black" stroke-dasharray="5,2" d="M969,-568C969,-568 987.51,-568 999.65,-568"/>
<polygon fill="black" stroke="black" points="1000,-571.5 1010,-568 1000,-564.5 1000,-571.5"/>
</g>
<!-- OrderLineBag&#45;&gt;OrderLine -->
<g id="edge36" class="edge">
<title>OrderLineBag:totalExpectedQty&#45;&gt;OrderLine:expectedQty</title>
<path fill="none" stroke="black" stroke-dasharray="5,2" d="M969,-545C969,-545 987.51,-545 999.65,-545"/>
<polygon fill="black" stroke="black" points="1000,-548.5 1010,-545 1000,-541.5 1000,-548.5"/>
</g>
<!-- ShipManifest -->
<g id="node13" class="node">
<title>ShipManifest</title>
<polygon fill="none" stroke="black" points="629.5,-319.5 629.5,-388.5 719.5,-388.5 719.5,-319.5 629.5,-319.5"/>
<text text-anchor="middle" x="674.5" y="-373.3" font-family="Times,serif" font-size="14.00">ShipManifest</text>
<polyline fill="none" stroke="black" points="629.5,-365.5 719.5,-365.5"/>
<text text-anchor="middle" x="674.5" y="-350.3" font-family="Times,serif" font-size="14.00">ship</text>
<polyline fill="none" stroke="black" points="629.5,-342.5 719.5,-342.5"/>
<text text-anchor="middle" x="674.5" y="-327.3" font-family="Times,serif" font-size="14.00">loadForOrder</text>
</g>
<!-- Task -->
<g id="node15" class="node">
<title>Task</title>
<polygon fill="none" stroke="black" points="615,-9.5 615,-262.5 734,-262.5 734,-9.5 615,-9.5"/>
<text text-anchor="middle" x="674.5" y="-247.3" font-family="Times,serif" font-size="14.00">Task</text>
<polyline fill="none" stroke="black" points="615,-239.5 734,-239.5"/>
<text text-anchor="middle" x="674.5" y="-224.3" font-family="Times,serif" font-size="14.00">claimedWith</text>
<polyline fill="none" stroke="black" points="615,-216.5 734,-216.5"/>
<text text-anchor="middle" x="674.5" y="-201.3" font-family="Times,serif" font-size="14.00">orderNoSet</text>
<polyline fill="none" stroke="black" points="615,-193.5 734,-193.5"/>
<text text-anchor="middle" x="674.5" y="-178.3" font-family="Times,serif" font-size="14.00">containerBag</text>
<polyline fill="none" stroke="black" points="615,-170.5 734,-170.5"/>
<text text-anchor="middle" x="674.5" y="-155.3" font-family="Times,serif" font-size="14.00">confirmQty</text>
<polyline fill="none" stroke="black" points="615,-147.5 734,-147.5"/>
<text text-anchor="middle" x="674.5" y="-132.3" font-family="Times,serif" font-size="14.00">totalQty</text>
<polyline fill="none" stroke="black" points="615,-124.5 734,-124.5"/>
<text text-anchor="middle" x="674.5" y="-109.3" font-family="Times,serif" font-size="14.00">isEmpty</text>
<polyline fill="none" stroke="black" points="615,-101.5 734,-101.5"/>
<text text-anchor="middle" x="674.5" y="-86.3" font-family="Times,serif" font-size="14.00">totalPendingQty</text>
<polyline fill="none" stroke="black" points="615,-78.5 734,-78.5"/>
<text text-anchor="middle" x="674.5" y="-63.3" font-family="Times,serif" font-size="14.00">plan</text>
<polyline fill="none" stroke="black" points="615,-55.5 734,-55.5"/>
<text text-anchor="middle" x="674.5" y="-40.3" font-family="Times,serif" font-size="14.00">removeOrderLines</text>
<polyline fill="none" stroke="black" points="615,-32.5 734,-32.5"/>
<text text-anchor="middle" x="674.5" y="-17.3" font-family="Times,serif" font-size="14.00">totalSku</text>
</g>
<!-- Task&#45;&gt;ContainerBag -->
<g id="edge51" class="edge">
<title>Task:orderNoSet&#45;&gt;ContainerBag:orderNoSet</title>
<path fill="none" stroke="black" stroke-dasharray="5,2" d="M735.5,-205C735.5,-205 973,-203 973,-203 973,-203 992.11,-183.89 1002.87,-173.13"/>
<polygon fill="black" stroke="black" points="1005.4,-175.55 1010,-166 1000.45,-170.6 1005.4,-175.55"/>
</g>
<!-- Task&#45;&gt;ContainerBag -->
<g id="edge52" class="edge">
<title>Task:totalPendingQty&#45;&gt;ContainerBag:totalPendingQty</title>
<path fill="none" stroke="black" stroke-dasharray="5,2" d="M735.5,-90C735.5,-90 950.38,-94.7 999.9,-95.78"/>
<polygon fill="black" stroke="black" points="999.93,-99.28 1010,-96 1000.08,-92.28 999.93,-99.28"/>
</g>
<!-- Task&#45;&gt;ContainerBag -->
<g id="edge53" class="edge">
<title>Task:totalQty&#45;&gt;ContainerBag:totalQty</title>
<path fill="none" stroke="black" stroke-dasharray="5,2" d="M735.5,-136C735.5,-136 950.38,-122.69 999.9,-119.63"/>
<polygon fill="black" stroke="black" points="1000.24,-123.11 1010,-119 999.8,-116.12 1000.24,-123.11"/>
</g>
<!-- Task&#45;&gt;ContainerBag -->
<g id="edge54" class="edge">
<title>Task:totalSku&#45;&gt;ContainerBag:totalSku</title>
<path fill="none" stroke="black" stroke-dasharray="5,2" d="M735.5,-21C735.5,-21 950.38,-61.71 999.9,-71.09"/>
<polygon fill="black" stroke="black" points="999.52,-74.58 1010,-73 1000.83,-67.7 999.52,-74.58"/>
</g>
<!-- TaskOfSkuPending -->
<g id="node19" class="node">
<title>TaskOfSkuPending</title>
<polygon fill="none" stroke="black" points="851,-148 851,-194 973,-194 973,-148 851,-148"/>
<text text-anchor="middle" x="912" y="-178.8" font-family="Times,serif" font-size="14.00">TaskOfSkuPending</text>
<polyline fill="none" stroke="black" points="851,-171 973,-171"/>
<text text-anchor="middle" x="912" y="-155.8" font-family="Times,serif" font-size="14.00">confirmQty</text>
</g>
<!-- Task&#45;&gt;TaskOfSkuPending -->
<g id="edge50" class="edge">
<title>Task:confirmQty&#45;&gt;TaskOfSkuPending:confirmQty</title>
<path fill="none" stroke="black" stroke-dasharray="5,2" d="M735.5,-159C735.5,-159 812.48,-159 840.75,-159"/>
<polygon fill="black" stroke="black" points="841,-162.5 851,-159 841,-155.5 841,-162.5"/>
</g>
<!-- TaskBag -->
<g id="node16" class="node">
<title>TaskBag</title>
<polygon fill="none" stroke="black" points="357.5,-210.5 357.5,-325.5 465.5,-325.5 465.5,-210.5 357.5,-210.5"/>
<text text-anchor="middle" x="411.5" y="-310.3" font-family="Times,serif" font-size="14.00">TaskBag</text>
<polyline fill="none" stroke="black" points="357.5,-302.5 465.5,-302.5"/>
<text text-anchor="middle" x="411.5" y="-287.3" font-family="Times,serif" font-size="14.00">totalQty</text>
<polyline fill="none" stroke="black" points="357.5,-279.5 465.5,-279.5"/>
<text text-anchor="middle" x="411.5" y="-264.3" font-family="Times,serif" font-size="14.00">totalCheckedQty</text>
<polyline fill="none" stroke="black" points="357.5,-256.5 465.5,-256.5"/>
<text text-anchor="middle" x="411.5" y="-241.3" font-family="Times,serif" font-size="14.00">totalPendingQty</text>
<polyline fill="none" stroke="black" points="357.5,-233.5 465.5,-233.5"/>
<text text-anchor="middle" x="411.5" y="-218.3" font-family="Times,serif" font-size="14.00">platforms</text>
</g>
<!-- TaskBag&#45;&gt;ContainerBag -->
<g id="edge45" class="edge">
<title>TaskBag:totalPendingQty&#45;&gt;ContainerBag:totalPendingQty</title>
<path fill="none" stroke="black" stroke-dasharray="5,2" d="M466.5,-245C466.5,-245 498,-205 498,-205 498,-205 588,0 588,0 588,0 761,0 761,0 761,0 973,-39 973,-39 973,-39 992,-66 992,-66 992,-66 999.39,-78.31 1004.7,-87.16"/>
<polygon fill="black" stroke="black" points="1001.85,-89.23 1010,-96 1007.86,-85.62 1001.85,-89.23"/>
</g>
<!-- TaskBag&#45;&gt;ContainerBag -->
<g id="edge47" class="edge">
<title>TaskBag:totalQty&#45;&gt;ContainerBag:totalQty</title>
<path fill="none" stroke="black" stroke-dasharray="5,2" d="M466.5,-291C466.5,-291 761,-272 761,-272 761,-272 973,-218 973,-218 973,-218 992,-199 992,-199 992,-199 1002.99,-150.17 1007.79,-128.81"/>
<polygon fill="black" stroke="black" points="1011.22,-129.52 1010,-119 1004.39,-127.99 1011.22,-129.52"/>
</g>
<!-- TaskBag&#45;&gt;Task -->
<g id="edge46" class="edge">
<title>TaskBag:totalPendingQty&#45;&gt;Task:containerBag</title>
<path fill="none" stroke="black" stroke-dasharray="5,2" d="M466.5,-245C466.5,-245 516,-223 516,-223 516,-223 579.75,-196.19 604.15,-185.93"/>
<polygon fill="black" stroke="black" points="605.64,-189.1 613.5,-182 602.93,-182.65 605.64,-189.1"/>
</g>
<!-- TaskBag&#45;&gt;Task -->
<g id="edge48" class="edge">
<title>TaskBag:totalQty&#45;&gt;Task:containerBag</title>
<path fill="none" stroke="black" stroke-dasharray="5,2" d="M466.5,-291C466.5,-291 570,-223 570,-223 570,-223 593.46,-200.89 605.92,-189.14"/>
<polygon fill="black" stroke="black" points="608.62,-191.41 613.5,-182 603.82,-186.31 608.62,-191.41"/>
</g>
<!-- TaskCartons -->
<g id="node17" class="node">
<title>TaskCartons</title>
<polygon fill="none" stroke="black" points="369,-1187 369,-1233 454,-1233 454,-1187 369,-1187"/>
<text text-anchor="middle" x="411.5" y="-1217.8" font-family="Times,serif" font-size="14.00">TaskCartons</text>
<polyline fill="none" stroke="black" points="369,-1210 454,-1210"/>
<text text-anchor="middle" x="411.5" y="-1194.8" font-family="Times,serif" font-size="14.00">contains</text>
</g>
<!-- TaskOfOrderPending -->
<g id="node18" class="node">
<title>TaskOfOrderPending</title>
<polygon fill="none" stroke="black" points="345,-962 345,-1008 478,-1008 478,-962 345,-962"/>
<text text-anchor="middle" x="411.5" y="-992.8" font-family="Times,serif" font-size="14.00">TaskOfOrderPending</text>
<polyline fill="none" stroke="black" points="345,-985 478,-985"/>
<text text-anchor="middle" x="411.5" y="-969.8" font-family="Times,serif" font-size="14.00">confirmQty</text>
</g>
<!-- TaskOfSkuPending&#45;&gt;ContainerBag -->
<g id="edge49" class="edge">
<title>TaskOfSkuPending:confirmQty&#45;&gt;ContainerBag:confirmQty</title>
<path fill="none" stroke="black" stroke-dasharray="5,2" d="M973,-159C973,-159 989.7,-151.78 1000.66,-147.04"/>
<polygon fill="black" stroke="black" points="1002.21,-150.18 1010,-143 999.43,-143.76 1002.21,-150.18"/>
</g>
<!-- CheckingAppService -->
<g id="node20" class="node">
<title>CheckingAppService</title>
<polygon fill="none" stroke="black" points="4.5,-646 4.5,-682 136.5,-682 136.5,-646 4.5,-646"/>
<text text-anchor="middle" x="70.5" y="-660.3" font-family="Times,serif" font-size="14.00">CheckingAppService</text>
</g>
<!-- CheckingAppService&#45;&gt;Carton -->
<g id="edge8" class="edge">
<title>CheckingAppService&#45;&gt;Carton:cartonizationRule</title>
<path fill="none" stroke="black" stroke-dasharray="5,2" d="M75.54,-682.26C92.75,-759.94 159,-1059 159,-1059 159,-1059 325,-1060 325,-1060 325,-1060 498,-1060 498,-1060 498,-1060 570,-1059 570,-1059 570,-1059 583.11,-932.97 586.95,-896.05"/>
<polygon fill="black" stroke="black" points="590.45,-896.31 588,-886 583.48,-895.58 590.45,-896.31"/>
<text text-anchor="middle" x="411.5" y="-1063" font-family="Times,serif" font-size="10.00">checkBySku</text>
</g>
<!-- CheckingAppService&#45;&gt;Carton -->
<g id="edge9" class="edge">
<title>CheckingAppService&#45;&gt;Carton:bindOrder</title>
<path fill="none" stroke="black" stroke-dasharray="5,2" d="M136.92,-675.96C149.58,-678.28 159,-680 159,-680 159,-680 498,-741 498,-741 498,-741 570,-760 570,-760 570,-760 577.94,-774.99 583.27,-785.07"/>
<polygon fill="black" stroke="black" points="580.23,-786.8 588,-794 586.41,-783.52 580.23,-786.8"/>
<text text-anchor="middle" x="411.5" y="-744" font-family="Times,serif" font-size="10.00">checkBySku</text>
</g>
<!-- CheckingAppService&#45;&gt;Carton -->
<g id="edge10" class="edge">
<title>CheckingAppService&#45;&gt;Carton:transferFrom</title>
<path fill="none" stroke="black" stroke-dasharray="5,2" d="M84.22,-682.03C108.49,-716.42 159,-788 159,-788 159,-788 570,-835 570,-835 570,-835 573.96,-836.1 578.16,-837.27"/>
<polygon fill="black" stroke="black" points="577.43,-840.7 588,-840 579.3,-833.95 577.43,-840.7"/>
<text text-anchor="middle" x="411.5" y="-830" font-family="Times,serif" font-size="10.00">checkBySku</text>
</g>
<!-- CheckingAppService&#45;&gt;Carton -->
<g id="edge13" class="edge">
<title>CheckingAppService&#45;&gt;Carton:installConsumables</title>
<path fill="none" stroke="black" stroke-dasharray="5,2" d="M76.58,-682.24C95.26,-749.25 159,-978 159,-978 159,-978 325,-1017 325,-1017 325,-1017 498,-1017 498,-1017 498,-1017 570,-923 570,-923 570,-923 580.02,-889.6 585.11,-872.64"/>
<polygon fill="black" stroke="black" points="588.48,-873.58 588,-863 581.77,-871.57 588.48,-873.58"/>
<text text-anchor="middle" x="411.5" y="-1020" font-family="Times,serif" font-size="10.00">fulfillCarton</text>
</g>
<!-- CheckingAppService&#45;&gt;Carton -->
<g id="edge14" class="edge">
<title>CheckingAppService&#45;&gt;Carton:fulfill</title>
<path fill="none" stroke="black" stroke-dasharray="5,2" d="M107.34,-682.02C131.51,-694.17 159,-708 159,-708 159,-708 325,-752 325,-752 325,-752 498,-793 498,-793 498,-793 554.59,-808.09 578.02,-814.34"/>
<polygon fill="black" stroke="black" points="577.44,-817.81 588,-817 579.24,-811.04 577.44,-817.81"/>
<text text-anchor="middle" x="411.5" y="-796" font-family="Times,serif" font-size="10.00">fulfillCarton</text>
</g>
<!-- CheckingAppService&#45;&gt;CartonBag -->
<g id="edge4" class="edge">
<title>CheckingAppService&#45;&gt;CartonBag:fulfill</title>
<path fill="none" stroke="black" stroke-dasharray="5,2" d="M79.42,-682.01C100.96,-731 159,-863 159,-863 159,-863 278.27,-878.81 314.62,-883.62"/>
<polygon fill="black" stroke="black" points="314.63,-887.16 325,-885 315.55,-880.22 314.63,-887.16"/>
<text text-anchor="middle" x="233" y="-886" font-family="Times,serif" font-size="10.00">checkByOrder</text>
</g>
<!-- CheckingAppService&#45;&gt;CartonBag -->
<g id="edge5" class="edge">
<title>CheckingAppService&#45;&gt;CartonBag:putOnPallet</title>
<path fill="none" stroke="black" stroke-dasharray="5,2" d="M81.2,-682.29C103.98,-725.25 159,-829 159,-829 159,-829 307,-850 307,-850 307,-850 311.79,-853.19 316.42,-856.28"/>
<polygon fill="black" stroke="black" points="314.74,-859.37 325,-862 318.62,-853.54 314.74,-859.37"/>
<text text-anchor="middle" x="233" y="-853" font-family="Times,serif" font-size="10.00">checkByOrder</text>
</g>
<!-- CheckingAppService&#45;&gt;CartonBag -->
<g id="edge7" class="edge">
<title>CheckingAppService&#45;&gt;CartonBag:deductConsumableInventory</title>
<path fill="none" stroke="black" stroke-dasharray="5,2" d="M78.37,-682.28C98.99,-737.21 159,-897 159,-897 159,-897 278.27,-905.62 314.62,-908.25"/>
<polygon fill="black" stroke="black" points="314.77,-911.77 325,-909 315.28,-904.79 314.77,-911.77"/>
<text text-anchor="middle" x="233" y="-911" font-family="Times,serif" font-size="10.00">checkByOrder</text>
</g>
<!-- CheckingAppService&#45;&gt;Order -->
<g id="edge6" class="edge">
<title>CheckingAppService&#45;&gt;Order:checkedBy</title>
<path fill="none" stroke="black" stroke-dasharray="5,2" d="M99.19,-645.96C124.82,-629.27 159,-607 159,-607 159,-607 325,-530 325,-530 325,-530 498,-530 498,-530 498,-530 567.65,-571.05 592.68,-585.8"/>
<polygon fill="black" stroke="black" points="591.11,-588.94 601.5,-591 594.66,-582.91 591.11,-588.94"/>
<text text-anchor="middle" x="411.5" y="-533" font-family="Times,serif" font-size="10.00">checkByOrder</text>
</g>
<!-- CheckingAppService&#45;&gt;Order -->
<g id="edge12" class="edge">
<title>CheckingAppService&#45;&gt;Order:recommendPackQty</title>
<path fill="none" stroke="black" stroke-dasharray="5,2" d="M136.92,-665.5C149.58,-665.78 159,-666 159,-666 159,-666 307,-666 307,-666 307,-666 498,-652 498,-652 498,-652 566.33,-626.91 591.95,-617.51"/>
<polygon fill="black" stroke="black" points="593.32,-620.73 601.5,-614 590.91,-614.16 593.32,-620.73"/>
<text text-anchor="middle" x="411.5" y="-668" font-family="Times,serif" font-size="10.00">claimTask</text>
</g>
<!-- CheckingAppService&#45;&gt;Order -->
<g id="edge15" class="edge">
<title>CheckingAppService&#45;&gt;Order:recommendedPlatform</title>
<path fill="none" stroke="black" stroke-dasharray="5,2" d="M83.3,-645.79C107.18,-608.94 159,-529 159,-529 159,-529 325,-515 325,-515 325,-515 498,-515 498,-515 498,-515 565.02,-519.53 591.2,-521.3"/>
<polygon fill="black" stroke="black" points="591.29,-524.82 601.5,-522 591.76,-517.83 591.29,-524.82"/>
<text text-anchor="middle" x="411.5" y="-518" font-family="Times,serif" font-size="10.00">recommendPlatformByOrder</text>
</g>
<!-- CheckingAppService&#45;&gt;OrderBag -->
<g id="edge11" class="edge">
<title>CheckingAppService&#45;&gt;OrderBag:canceledBag</title>
<path fill="none" stroke="black" stroke-dasharray="5,2" d="M105.83,-645.95C130.34,-633.06 159,-618 159,-618 159,-618 295.37,-611.38 334.26,-609.5"/>
<polygon fill="black" stroke="black" points="334.68,-612.98 344.5,-609 334.34,-605.99 334.68,-612.98"/>
<text text-anchor="middle" x="233" y="-621" font-family="Times,serif" font-size="10.00">claimTask</text>
</g>
<!-- CheckingAppService&#45;&gt;OrderBag -->
<g id="edge19" class="edge">
<title>CheckingAppService&#45;&gt;OrderBag:canceledBag</title>
<path fill="none" stroke="black" stroke-dasharray="5,2" d="M136.79,-654.3C206.48,-643.94 307,-629 307,-629 307,-629 324.32,-619.76 335.42,-613.84"/>
<polygon fill="black" stroke="black" points="337.32,-616.79 344.5,-609 334.03,-610.62 337.32,-616.79"/>
<text text-anchor="middle" x="233" y="-654" font-family="Times,serif" font-size="10.00">submitTask</text>
</g>
<!-- CheckingAppService&#45;&gt;Task -->
<g id="edge20" class="edge">
<title>CheckingAppService&#45;&gt;Task:removeOrderLines</title>
<path fill="none" stroke="black" stroke-dasharray="5,2" d="M81.16,-645.92C100.26,-610.2 141,-534 141,-534 141,-534 159,-53 159,-53 159,-53 325,-34 325,-34 325,-34 498,-34 498,-34 498,-34 574.98,-40.67 603.25,-43.11"/>
<polygon fill="black" stroke="black" points="603.24,-46.62 613.5,-44 603.84,-39.65 603.24,-46.62"/>
<text text-anchor="middle" x="411.5" y="-37" font-family="Times,serif" font-size="10.00">submitTask</text>
</g>
<!-- CheckingAppService&#45;&gt;Task -->
<g id="edge21" class="edge">
<title>CheckingAppService&#45;&gt;Task:isEmpty</title>
<path fill="none" stroke="black" stroke-dasharray="5,2" d="M81.16,-645.92C100.26,-610.2 141,-534 141,-534 141,-534 159,-245 159,-245 159,-245 325,-190 325,-190 325,-190 552.84,-129.19 603.57,-115.65"/>
<polygon fill="black" stroke="black" points="604.74,-118.96 613.5,-113 602.94,-112.2 604.74,-118.96"/>
<text text-anchor="middle" x="411.5" y="-193" font-family="Times,serif" font-size="10.00">submitTask</text>
</g>
<!-- CheckingAppService&#45;&gt;Task -->
<g id="edge22" class="edge">
<title>CheckingAppService&#45;&gt;Task:plan</title>
<path fill="none" stroke="black" stroke-dasharray="5,2" d="M81.16,-645.92C100.26,-610.2 141,-534 141,-534 141,-534 159,-193 159,-193 159,-193 325,-129 325,-129 325,-129 552.84,-80.04 603.57,-69.13"/>
<polygon fill="black" stroke="black" points="604.46,-72.52 613.5,-67 602.99,-65.68 604.46,-72.52"/>
<text text-anchor="middle" x="411.5" y="-132" font-family="Times,serif" font-size="10.00">submitTask</text>
</g>
<!-- CheckingAppService&#45;&gt;TaskBag -->
<g id="edge16" class="edge">
<title>CheckingAppService&#45;&gt;TaskBag:platforms</title>
<path fill="none" stroke="black" stroke-dasharray="5,2" d="M81.16,-645.92C100.26,-610.2 141,-534 141,-534 141,-534 159,-321 159,-321 159,-321 308.86,-245.88 347.5,-226.51"/>
<polygon fill="black" stroke="black" points="349.13,-229.61 356.5,-222 345.99,-223.35 349.13,-229.61"/>
<text text-anchor="middle" x="233" y="-324" font-family="Times,serif" font-size="10.00">recommendPlatformByOrder</text>
</g>
<!-- CheckingAppService&#45;&gt;TaskBag -->
<g id="edge17" class="edge">
<title>CheckingAppService&#45;&gt;TaskBag:totalCheckedQty</title>
<path fill="none" stroke="black" stroke-dasharray="5,2" d="M81.16,-645.92C100.26,-610.2 141,-534 141,-534 141,-534 159,-449 159,-449 159,-449 307,-369 307,-369 307,-369 339.68,-302.32 351.93,-277.32"/>
<polygon fill="black" stroke="black" points="355.24,-278.52 356.5,-268 348.96,-275.44 355.24,-278.52"/>
<text text-anchor="middle" x="233" y="-452" font-family="Times,serif" font-size="10.00">recommendPlatformByTaskBacklog</text>
</g>
<!-- CheckingAppService&#45;&gt;TaskBag -->
<g id="edge18" class="edge">
<title>CheckingAppService&#45;&gt;TaskBag:totalPendingQty</title>
<path fill="none" stroke="black" stroke-dasharray="5,2" d="M81.16,-645.92C100.26,-610.2 141,-534 141,-534 141,-534 159,-354 159,-354 159,-354 307,-332 307,-332 307,-332 338.74,-276.21 351.39,-253.98"/>
<polygon fill="black" stroke="black" points="354.6,-255.42 356.5,-245 348.51,-251.96 354.6,-255.42"/>
<text text-anchor="middle" x="233" y="-357" font-family="Times,serif" font-size="10.00">recommendPlatformByTaskBacklog</text>
</g>
<!-- CheckingAppService&#45;&gt;TaskOfOrderPending -->
<g id="edge3" class="edge">
<title>CheckingAppService&#45;&gt;TaskOfOrderPending:confirmQty</title>
<path fill="none" stroke="black" stroke-dasharray="5,2" d="M77.65,-682.21C97.57,-741.17 159,-923 159,-923 159,-923 295.88,-960.09 333.84,-970.38"/>
<polygon fill="black" stroke="black" points="332.93,-973.76 343.5,-973 334.76,-967.01 332.93,-973.76"/>
<text text-anchor="middle" x="233" y="-966" font-family="Times,serif" font-size="10.00">checkByOrder</text>
</g>
<!-- ConsumableBag -->
<g id="node21" class="node">
<title>ConsumableBag</title>
<polygon fill="none" stroke="black" points="17,-1115 17,-1151 124,-1151 124,-1115 17,-1115"/>
<text text-anchor="middle" x="70.5" y="-1129.3" font-family="Times,serif" font-size="14.00">ConsumableBag</text>
</g>
<!-- ConsumableBag&#45;&gt;Consumable -->
<g id="edge23" class="edge">
<title>ConsumableBag:inventoryControlBag&#45;&gt;Consumable:isInventory</title>
<path fill="none" stroke="black" stroke-dasharray="5,2" d="M124.28,-1133C196.83,-1133 321.14,-1133 357.34,-1133"/>
<polygon fill="black" stroke="black" points="357.5,-1136.5 367.5,-1133 357.5,-1129.5 357.5,-1136.5"/>
</g>
<!-- ConsumableExtPolicy -->
<g id="node22" class="node">
<title>ConsumableExtPolicy</title>
<polygon fill="none" stroke="black" points="1.5,-489 1.5,-525 139.5,-525 139.5,-489 1.5,-489"/>
<text text-anchor="middle" x="70.5" y="-503.3" font-family="Times,serif" font-size="14.00">ConsumableExtPolicy</text>
</g>
<!-- ConsumableExtPolicy&#45;&gt;OrderBag -->
<g id="edge24" class="edge">
<title>ConsumableExtPolicy&#45;&gt;OrderBag:consumableCostFirst</title>
<path fill="none" stroke="black" stroke-dasharray="5,2" d="M134.82,-525.09C202.23,-544.35 303.46,-573.28 334.86,-582.25"/>
<polygon fill="black" stroke="black" points="333.92,-585.62 344.5,-585 335.85,-578.89 333.92,-585.62"/>
<text text-anchor="middle" x="233" y="-577" font-family="Times,serif" font-size="10.00">extensionCode</text>
</g>
<!-- OrderNotCartonizedYet -->
<g id="node23" class="node">
<title>OrderNotCartonizedYet</title>
<polygon fill="none" stroke="black" points="601.5,-455 601.5,-491 747.5,-491 747.5,-455 601.5,-455"/>
<text text-anchor="middle" x="674.5" y="-469.3" font-family="Times,serif" font-size="14.00">OrderNotCartonizedYet</text>
</g>
<!-- OrderNotCartonizedYet&#45;&gt;OrderCartons -->
<g id="edge37" class="edge">
<title>OrderNotCartonizedYet&#45;&gt;OrderCartons:totalCartonizedQty</title>
<path fill="none" stroke="black" stroke-dasharray="5,2" d="M747.64,-473C783.38,-473 822.68,-473 840.81,-473"/>
<polygon fill="black" stroke="black" points="841,-476.5 851,-473 841,-469.5 841,-476.5"/>
<text text-anchor="middle" x="806" y="-476" font-family="Times,serif" font-size="10.00">isSatisfiedBy</text>
</g>
<!-- OrderNotFullyCartonized -->
<g id="node24" class="node">
<title>OrderNotFullyCartonized</title>
<polygon fill="none" stroke="black" points="333.5,-401 333.5,-437 489.5,-437 489.5,-401 333.5,-401"/>
<text text-anchor="middle" x="411.5" y="-415.3" font-family="Times,serif" font-size="14.00">OrderNotFullyCartonized</text>
</g>
<!-- OrderNotFullyCartonized&#45;&gt;Order -->
<g id="edge38" class="edge">
<title>OrderNotFullyCartonized&#45;&gt;Order:totalExpectedQty</title>
<path fill="none" stroke="black" stroke-dasharray="5,2" d="M467.14,-437.04C512.63,-452.06 570,-471 570,-471 570,-471 589.03,-515.72 597.51,-535.63"/>
<polygon fill="black" stroke="black" points="594.36,-537.17 601.5,-545 600.8,-534.43 594.36,-537.17"/>
<text text-anchor="middle" x="543" y="-474" font-family="Times,serif" font-size="10.00">isSatisfiedBy</text>
</g>
<!-- OrderNotFullyCartonized&#45;&gt;OrderCartons -->
<g id="edge39" class="edge">
<title>OrderNotFullyCartonized&#45;&gt;OrderCartons:totalCartonizedQty</title>
<path fill="none" stroke="black" stroke-dasharray="5,2" d="M489.61,-417.51C504.72,-417.22 516,-417 516,-417 516,-417 570,-417 570,-417 570,-417 761,-434 761,-434 761,-434 818.71,-459.01 841.71,-468.97"/>
<polygon fill="black" stroke="black" points="840.43,-472.24 851,-473 843.22,-465.81 840.43,-472.24"/>
<text text-anchor="middle" x="674.5" y="-437" font-family="Times,serif" font-size="10.00">isSatisfiedBy</text>
</g>
<!-- ShippingAppService -->
<g id="node25" class="node">
<title>ShippingAppService</title>
<polygon fill="none" stroke="black" points="347,-346 347,-382 476,-382 476,-346 347,-346"/>
<text text-anchor="middle" x="411.5" y="-360.3" font-family="Times,serif" font-size="14.00">ShippingAppService</text>
</g>
<!-- ShippingAppService&#45;&gt;Order -->
<g id="edge44" class="edge">
<title>ShippingAppService&#45;&gt;Order:ship</title>
<path fill="none" stroke="black" stroke-dasharray="5,2" d="M469.53,-382.01C485.21,-386.96 498,-391 498,-391 498,-391 570,-440 570,-440 570,-440 591.6,-527.78 599.03,-557.96"/>
<polygon fill="black" stroke="black" points="595.71,-559.13 601.5,-568 602.51,-557.45 595.71,-559.13"/>
<text text-anchor="middle" x="543" y="-443" font-family="Times,serif" font-size="10.00">shipOrder</text>
</g>
<!-- ShippingAppService&#45;&gt;ShipManifest -->
<g id="edge42" class="edge">
<title>ShippingAppService&#45;&gt;ShipManifest:loadForOrder</title>
<path fill="none" stroke="black" stroke-dasharray="5,2" d="M470.9,-345.94C494.38,-338.68 516,-332 516,-332 516,-332 590.27,-331.34 618.12,-331.09"/>
<polygon fill="black" stroke="black" points="618.53,-334.59 628.5,-331 618.47,-327.59 618.53,-334.59"/>
<text text-anchor="middle" x="543" y="-335" font-family="Times,serif" font-size="10.00">shipOrder</text>
</g>
<!-- ShippingAppService&#45;&gt;ShipManifest -->
<g id="edge43" class="edge">
<title>ShippingAppService&#45;&gt;ShipManifest:ship</title>
<path fill="none" stroke="black" stroke-dasharray="5,2" d="M476.14,-361.05C526.91,-358.7 593.52,-355.62 618.48,-354.46"/>
<polygon fill="black" stroke="black" points="618.67,-357.96 628.5,-354 618.35,-350.97 618.67,-357.96"/>
<text text-anchor="middle" x="543" y="-362" font-family="Times,serif" font-size="10.00">shipOrder</text>
</g>
<!-- UniqueCodeConstraint -->
<g id="node26" class="node">
<title>UniqueCodeConstraint</title>
<polygon fill="none" stroke="black" points="0,-1180 0,-1216 141,-1216 141,-1180 0,-1180"/>
<text text-anchor="middle" x="70.5" y="-1194.3" font-family="Times,serif" font-size="14.00">UniqueCodeConstraint</text>
</g>
<!-- UniqueCodeConstraint&#45;&gt;TaskCartons -->
<g id="edge55" class="edge">
<title>UniqueCodeConstraint&#45;&gt;TaskCartons:contains</title>
<path fill="none" stroke="black" stroke-dasharray="5,2" d="M141.27,-1198C214.43,-1198 323.36,-1198 357.14,-1198"/>
<polygon fill="black" stroke="black" points="357.5,-1201.5 367.5,-1198 357.5,-1194.5 357.5,-1201.5"/>
<text text-anchor="middle" x="233" y="-1201" font-family="Times,serif" font-size="10.00">isSatisfiedBy</text>
</g>
</g>
</svg>
