<?xml version="1.0" encoding="UTF-8" standalone="no"?>
<!DOCTYPE svg PUBLIC "-//W3C//DTD SVG 1.1//EN"
 "http://www.w3.org/Graphics/SVG/1.1/DTD/svg11.dtd">
<!-- Generated by graphviz version 6.0.1 (20220911.1526)
 -->
<!-- Title: G Pages: 1 -->
<svg width="715pt" height="237pt"
 viewBox="0.00 0.00 715.00 237.00" xmlns="http://www.w3.org/2000/svg" xmlns:xlink="http://www.w3.org/1999/xlink">
<g id="graph0" class="graph" transform="scale(1 1) rotate(0) translate(4 233)">
<title>G</title>
<polygon fill="white" stroke="none" points="-4,4 -4,-233 711,-233 711,4 -4,4"/>
<!-- ddd.plus.showcase.wms.application.service -->
<g id="node1" class="node">
<title>ddd.plus.showcase.wms.application.service</title>
<polygon fill="none" stroke="black" points="0,-55.5 0,-91.5 254,-91.5 254,-55.5 0,-55.5"/>
<text text-anchor="middle" x="127" y="-69.8" font-family="Times,serif" font-size="14.00">ddd.plus.showcase.wms.application.service</text>
</g>
<!-- ddd.plus.showcase.wms.domain.carton -->
<g id="node2" class="node">
<title>ddd.plus.showcase.wms.domain.carton</title>
<polygon fill="none" stroke="black" points="290,-110.5 290,-146.5 521,-146.5 521,-110.5 290,-110.5"/>
<text text-anchor="middle" x="405.5" y="-124.8" font-family="Times,serif" font-size="14.00">ddd.plus.showcase.wms.domain.carton</text>
</g>
<!-- ddd.plus.showcase.wms.application.service&#45;&gt;ddd.plus.showcase.wms.domain.carton -->
<g id="edge1" class="edge">
<title>ddd.plus.showcase.wms.application.service&#45;&gt;ddd.plus.showcase.wms.domain.carton</title>
<path fill="none" stroke="black" stroke-dasharray="5,2" d="M218.54,-91.51C245.75,-96.92 275.77,-102.89 303.61,-108.43"/>
<polygon fill="black" stroke="black" points="303.27,-111.93 313.76,-110.45 304.64,-105.07 303.27,-111.93"/>
</g>
<!-- ddd.plus.showcase.wms.domain.order -->
<g id="node3" class="node">
<title>ddd.plus.showcase.wms.domain.order</title>
<polygon fill="none" stroke="black" points="292.5,-165.5 292.5,-201.5 518.5,-201.5 518.5,-165.5 292.5,-165.5"/>
<text text-anchor="middle" x="405.5" y="-179.8" font-family="Times,serif" font-size="14.00">ddd.plus.showcase.wms.domain.order</text>
</g>
<!-- ddd.plus.showcase.wms.application.service&#45;&gt;ddd.plus.showcase.wms.domain.order -->
<g id="edge2" class="edge">
<title>ddd.plus.showcase.wms.application.service&#45;&gt;ddd.plus.showcase.wms.domain.order</title>
<path fill="none" stroke="black" stroke-dasharray="5,2" d="M169.26,-91.51C206,-107.55 254,-128.5 254,-128.5 254,-128.5 290,-156.5 290,-156.5 290,-156.5 301.97,-159.32 318.16,-163.14"/>
<polygon fill="black" stroke="black" points="317.59,-166.6 328.13,-165.49 319.2,-159.79 317.59,-166.6"/>
</g>
<!-- ddd.plus.showcase.wms.domain.ship -->
<g id="node4" class="node">
<title>ddd.plus.showcase.wms.domain.ship</title>
<polygon fill="none" stroke="black" points="295.5,-55.5 295.5,-91.5 515.5,-91.5 515.5,-55.5 295.5,-55.5"/>
<text text-anchor="middle" x="405.5" y="-69.8" font-family="Times,serif" font-size="14.00">ddd.plus.showcase.wms.domain.ship</text>
</g>
<!-- ddd.plus.showcase.wms.application.service&#45;&gt;ddd.plus.showcase.wms.domain.ship -->
<g id="edge3" class="edge">
<title>ddd.plus.showcase.wms.application.service&#45;&gt;ddd.plus.showcase.wms.domain.ship</title>
<path fill="none" stroke="black" stroke-dasharray="5,2" d="M254.11,-73.5C264.47,-73.5 274.93,-73.5 285.24,-73.5"/>
<polygon fill="black" stroke="black" points="285.49,-77 295.49,-73.5 285.49,-70 285.49,-77"/>
</g>
<!-- ddd.plus.showcase.wms.domain.task -->
<g id="node5" class="node">
<title>ddd.plus.showcase.wms.domain.task</title>
<polygon fill="none" stroke="black" points="296,-0.5 296,-36.5 515,-36.5 515,-0.5 296,-0.5"/>
<text text-anchor="middle" x="405.5" y="-14.8" font-family="Times,serif" font-size="14.00">ddd.plus.showcase.wms.domain.task</text>
</g>
<!-- ddd.plus.showcase.wms.application.service&#45;&gt;ddd.plus.showcase.wms.domain.task -->
<g id="edge4" class="edge">
<title>ddd.plus.showcase.wms.application.service&#45;&gt;ddd.plus.showcase.wms.domain.task</title>
<path fill="none" stroke="black" stroke-dasharray="5,2" d="M218.54,-55.49C245.75,-50.08 275.77,-44.11 303.61,-38.57"/>
<polygon fill="black" stroke="black" points="304.64,-41.93 313.76,-36.55 303.27,-35.07 304.64,-41.93"/>
</g>
<!-- java.math -->
<g id="node7" class="node">
<title>java.math</title>
<polygon fill="none" stroke="black" points="596.5,-110.5 596.5,-146.5 667.5,-146.5 667.5,-110.5 596.5,-110.5"/>
<text text-anchor="middle" x="632" y="-124.8" font-family="Times,serif" font-size="14.00">java.math</text>
</g>
<!-- ddd.plus.showcase.wms.domain.order&#45;&gt;java.math -->
<g id="edge6" class="edge">
<title>ddd.plus.showcase.wms.domain.order&#45;&gt;java.math</title>
<path fill="none" stroke="black" stroke-dasharray="5,2" d="M482.87,-165.49C503.88,-160.54 521,-156.5 521,-156.5 521,-156.5 556.21,-147.54 586.78,-139.76"/>
<polygon fill="black" stroke="black" points="587.67,-143.14 596.5,-137.28 585.94,-136.36 587.67,-143.14"/>
</g>
<!-- ddd.plus.showcase.wms.domain.task&#45;&gt;java.math -->
<g id="edge9" class="edge">
<title>ddd.plus.showcase.wms.domain.task&#45;&gt;java.math</title>
<path fill="none" stroke="black" stroke-dasharray="5,2" d="M480.31,-36.55C502.46,-41.97 521,-46.5 521,-46.5 521,-46.5 565.81,-79.91 598.23,-104.07"/>
<polygon fill="black" stroke="black" points="596.48,-107.13 606.59,-110.3 600.66,-101.52 596.48,-107.13"/>
</g>
<!-- io.github.dddplus.model -->
<g id="node9" class="node">
<title>io.github.dddplus.model</title>
<polygon fill="none" stroke="black" points="557,-0.5 557,-36.5 707,-36.5 707,-0.5 557,-0.5"/>
<text text-anchor="middle" x="632" y="-14.8" font-family="Times,serif" font-size="14.00">io.github.dddplus.model</text>
</g>
<!-- ddd.plus.showcase.wms.domain.task&#45;&gt;io.github.dddplus.model -->
<g id="edge8" class="edge">
<title>ddd.plus.showcase.wms.domain.task&#45;&gt;io.github.dddplus.model</title>
<path fill="none" stroke="black" stroke-dasharray="5,2" d="M515.13,-18.5C525.71,-18.5 536.33,-18.5 546.62,-18.5"/>
<polygon fill="black" stroke="black" points="546.78,-22 556.78,-18.5 546.78,-15 546.78,-22"/>
</g>
<!-- ddd.plus.showcase.wms.domain.carton.ext -->
<g id="node6" class="node">
<title>ddd.plus.showcase.wms.domain.carton.ext</title>
<polygon fill="none" stroke="black" points="1.5,-192.5 1.5,-228.5 252.5,-228.5 252.5,-192.5 1.5,-192.5"/>
<text text-anchor="middle" x="127" y="-206.8" font-family="Times,serif" font-size="14.00">ddd.plus.showcase.wms.domain.carton.ext</text>
</g>
<!-- ddd.plus.showcase.wms.domain.carton.ext&#45;&gt;ddd.plus.showcase.wms.domain.order -->
<g id="edge5" class="edge">
<title>ddd.plus.showcase.wms.domain.carton.ext&#45;&gt;ddd.plus.showcase.wms.domain.order</title>
<path fill="none" stroke="black" stroke-dasharray="5,2" d="M252.9,-198.3C262.67,-197.35 272.54,-196.39 282.29,-195.43"/>
<polygon fill="black" stroke="black" points="282.79,-198.9 292.41,-194.45 282.11,-191.93 282.79,-198.9"/>
</g>
<!-- ddd.plus.showcase.wms.domain.order.spec -->
<g id="node8" class="node">
<title>ddd.plus.showcase.wms.domain.order.spec</title>
<polygon fill="none" stroke="black" points="0.5,-137.5 0.5,-173.5 253.5,-173.5 253.5,-137.5 0.5,-137.5"/>
<text text-anchor="middle" x="127" y="-151.8" font-family="Times,serif" font-size="14.00">ddd.plus.showcase.wms.domain.order.spec</text>
</g>
<!-- ddd.plus.showcase.wms.domain.order.spec&#45;&gt;ddd.plus.showcase.wms.domain.order -->
<g id="edge7" class="edge">
<title>ddd.plus.showcase.wms.domain.order.spec&#45;&gt;ddd.plus.showcase.wms.domain.order</title>
<path fill="none" stroke="black" stroke-dasharray="5,2" d="M253.71,-168.23C263.14,-169.18 272.65,-170.15 282.05,-171.1"/>
<polygon fill="black" stroke="black" points="281.91,-174.6 292.22,-172.13 282.62,-167.64 281.91,-174.6"/>
</g>
<!-- ddd.plus.showcase.wms.domain.task.spec -->
<g id="node10" class="node">
<title>ddd.plus.showcase.wms.domain.task.spec</title>
<polygon fill="none" stroke="black" points="3.5,-0.5 3.5,-36.5 250.5,-36.5 250.5,-0.5 3.5,-0.5"/>
<text text-anchor="middle" x="127" y="-14.8" font-family="Times,serif" font-size="14.00">ddd.plus.showcase.wms.domain.task.spec</text>
</g>
<!-- ddd.plus.showcase.wms.domain.task.spec&#45;&gt;ddd.plus.showcase.wms.domain.task -->
<g id="edge10" class="edge">
<title>ddd.plus.showcase.wms.domain.task.spec&#45;&gt;ddd.plus.showcase.wms.domain.task</title>
<path fill="none" stroke="black" stroke-dasharray="5,2" d="M250.89,-18.5C262.49,-18.5 274.24,-18.5 285.8,-18.5"/>
<polygon fill="black" stroke="black" points="285.9,-22 295.9,-18.5 285.9,-15 285.9,-22"/>
</g>
</g>
</svg>
