<?xml version="1.0" encoding="UTF-8" standalone="no"?>
<!DOCTYPE svg PUBLIC "-//W3C//DTD SVG 1.1//EN"
 "http://www.w3.org/Graphics/SVG/1.1/DTD/svg11.dtd">
<!-- Generated by graphviz version 2.38.0 (20140413.2041)
 -->
<!-- Title: G Pages: 1 -->
<svg width="1200pt" height="1011pt"
 viewBox="0.00 0.00 1200.48 1010.50" xmlns="http://www.w3.org/2000/svg" xmlns:xlink="http://www.w3.org/1999/xlink">
<g id="graph0" class="graph" transform="scale(1 1) rotate(0) translate(4 1006.5)">
<title>G</title>
<polygon fill="white" stroke="none" points="-4,4 -4,-1006.5 1196.48,-1006.5 1196.48,4 -4,4"/>
<!-- Carton -->
<g id="node1" class="node"><title>Carton</title>
<polygon fill="none" stroke="black" points="394.835,-77 394.835,-231 572.573,-231 572.573,-77 394.835,-77"/>
<text text-anchor="middle" x="483.704" y="-215.8" font-family="Times,serif" font-size="14.00">Carton</text>
<polyline fill="none" stroke="black" points="394.835,-209 572.573,-209 "/>
<text text-anchor="middle" x="483.704" y="-193.8" font-family="Times,serif" font-size="14.00">deductConsumableInventory</text>
<polyline fill="none" stroke="black" points="394.835,-187 572.573,-187 "/>
<text text-anchor="middle" x="483.704" y="-171.8" font-family="Times,serif" font-size="14.00">cartonizationRule</text>
<polyline fill="none" stroke="black" points="394.835,-165 572.573,-165 "/>
<text text-anchor="middle" x="483.704" y="-149.8" font-family="Times,serif" font-size="14.00">installConsumables</text>
<polyline fill="none" stroke="black" points="394.835,-143 572.573,-143 "/>
<text text-anchor="middle" x="483.704" y="-127.8" font-family="Times,serif" font-size="14.00">transferFrom</text>
<polyline fill="none" stroke="black" points="394.835,-121 572.573,-121 "/>
<text text-anchor="middle" x="483.704" y="-105.8" font-family="Times,serif" font-size="14.00">fulfill</text>
<polyline fill="none" stroke="black" points="394.835,-99 572.573,-99 "/>
<text text-anchor="middle" x="483.704" y="-83.8" font-family="Times,serif" font-size="14.00">bindOrder</text>
</g>
<!-- CartonBag -->
<g id="node2" class="node"><title>CartonBag</title>
<polygon fill="none" stroke="black" points="181.097,-221 181.097,-309 358.835,-309 358.835,-221 181.097,-221"/>
<text text-anchor="middle" x="269.966" y="-293.8" font-family="Times,serif" font-size="14.00">CartonBag</text>
<polyline fill="none" stroke="black" points="181.097,-287 358.835,-287 "/>
<text text-anchor="middle" x="269.966" y="-271.8" font-family="Times,serif" font-size="14.00">deductConsumableInventory</text>
<polyline fill="none" stroke="black" points="181.097,-265 358.835,-265 "/>
<text text-anchor="middle" x="269.966" y="-249.8" font-family="Times,serif" font-size="14.00">fulfill</text>
<polyline fill="none" stroke="black" points="181.097,-243 358.835,-243 "/>
<text text-anchor="middle" x="269.966" y="-227.8" font-family="Times,serif" font-size="14.00">putOnPallet</text>
</g>
<!-- CartonBag&#45;&gt;Carton -->
<g id="edge1" class="edge"><title>CartonBag:deductConsumableInventory&#45;&gt;Carton:deductConsumableInventory</title>
<path fill="none" stroke="black" stroke-dasharray="5,2" d="M358.835,-276C358.835,-276 381.028,-227.915 390.564,-207.254"/>
<polygon fill="black" stroke="black" points="393.822,-208.546 394.835,-198 387.466,-205.613 393.822,-208.546"/>
</g>
<!-- CartonBag&#45;&gt;Carton -->
<g id="edge2" class="edge"><title>CartonBag:fulfill&#45;&gt;Carton:fulfill</title>
<path fill="none" stroke="black" stroke-dasharray="5,2" d="M358.835,-254C358.835,-254 384.227,-152.431 392.361,-119.898"/>
<polygon fill="black" stroke="black" points="395.805,-120.55 394.835,-110 389.014,-118.853 395.805,-120.55"/>
</g>
<!-- Consumable -->
<g id="node3" class="node"><title>Consumable</title>
<polygon fill="none" stroke="black" points="226.969,-895 226.969,-939 312.962,-939 312.962,-895 226.969,-895"/>
<text text-anchor="middle" x="269.966" y="-923.8" font-family="Times,serif" font-size="14.00">Consumable</text>
<polyline fill="none" stroke="black" points="226.969,-917 312.962,-917 "/>
<text text-anchor="middle" x="269.966" y="-901.8" font-family="Times,serif" font-size="14.00">isInventory</text>
</g>
<!-- Container -->
<g id="node4" class="node"><title>Container</title>
<polygon fill="none" stroke="black" points="913.775,-298 913.775,-364 1050.29,-364 1050.29,-298 913.775,-298"/>
<text text-anchor="middle" x="982.034" y="-348.8" font-family="Times,serif" font-size="14.00">Container</text>
<polyline fill="none" stroke="black" points="913.775,-342 1050.29,-342 "/>
<text text-anchor="middle" x="982.034" y="-326.8" font-family="Times,serif" font-size="14.00">skuNoSet</text>
<polyline fill="none" stroke="black" points="913.775,-320 1050.29,-320 "/>
<text text-anchor="middle" x="982.034" y="-304.8" font-family="Times,serif" font-size="14.00">getContainerItemBag</text>
</g>
<!-- ContainerItem -->
<g id="node6" class="node"><title>ContainerItem</title>
<polygon fill="none" stroke="black" points="1086.29,-361 1086.29,-471 1192.48,-471 1192.48,-361 1086.29,-361"/>
<text text-anchor="middle" x="1139.39" y="-455.8" font-family="Times,serif" font-size="14.00">ContainerItem</text>
<polyline fill="none" stroke="black" points="1086.29,-449 1192.48,-449 "/>
<text text-anchor="middle" x="1139.39" y="-433.8" font-family="Times,serif" font-size="14.00">getExpectedQty</text>
<polyline fill="none" stroke="black" points="1086.29,-427 1192.48,-427 "/>
<text text-anchor="middle" x="1139.39" y="-411.8" font-family="Times,serif" font-size="14.00">getPendingQty</text>
<polyline fill="none" stroke="black" points="1086.29,-405 1192.48,-405 "/>
<text text-anchor="middle" x="1139.39" y="-389.8" font-family="Times,serif" font-size="14.00">diffQty</text>
<polyline fill="none" stroke="black" points="1086.29,-383 1192.48,-383 "/>
<text text-anchor="middle" x="1139.39" y="-367.8" font-family="Times,serif" font-size="14.00">getSku</text>
</g>
<!-- Container&#45;&gt;ContainerItem -->
<g id="edge31" class="edge"><title>Container:skuNoSet&#45;&gt;ContainerItem:getSku</title>
<path fill="none" stroke="black" stroke-dasharray="5,2" d="M1050.29,-331C1050.29,-331 1069.3,-352.644 1079.69,-364.48"/>
<polygon fill="black" stroke="black" points="1077.06,-366.795 1086.29,-372 1082.32,-362.176 1077.06,-366.795"/>
</g>
<!-- Sku -->
<g id="node13" class="node"><title>Sku</title>
<polygon fill="none" stroke="black" points="1112.39,-298 1112.39,-342 1166.39,-342 1166.39,-298 1112.39,-298"/>
<text text-anchor="middle" x="1139.39" y="-326.8" font-family="Times,serif" font-size="14.00">Sku</text>
<polyline fill="none" stroke="black" points="1112.39,-320 1166.39,-320 "/>
<text text-anchor="middle" x="1139.39" y="-304.8" font-family="Times,serif" font-size="14.00">value</text>
</g>
<!-- Container&#45;&gt;Sku -->
<g id="edge30" class="edge"><title>Container:skuNoSet&#45;&gt;Sku:value</title>
<path fill="none" stroke="black" stroke-dasharray="5,2" d="M1050.29,-331C1050.29,-331 1084.66,-318.625 1101.84,-312.438"/>
<polygon fill="black" stroke="black" points="1103.16,-315.681 1111.39,-309 1100.79,-309.095 1103.16,-315.681"/>
</g>
<!-- ContainerBag -->
<g id="node5" class="node"><title>ContainerBag</title>
<polygon fill="none" stroke="black" points="769.63,-383 769.63,-515 877.403,-515 877.403,-383 769.63,-383"/>
<text text-anchor="middle" x="823.517" y="-499.8" font-family="Times,serif" font-size="14.00">ContainerBag</text>
<polyline fill="none" stroke="black" points="769.63,-493 877.403,-493 "/>
<text text-anchor="middle" x="823.517" y="-477.8" font-family="Times,serif" font-size="14.00">orderNoSet</text>
<polyline fill="none" stroke="black" points="769.63,-471 877.403,-471 "/>
<text text-anchor="middle" x="823.517" y="-455.8" font-family="Times,serif" font-size="14.00">confirmQty</text>
<polyline fill="none" stroke="black" points="769.63,-449 877.403,-449 "/>
<text text-anchor="middle" x="823.517" y="-433.8" font-family="Times,serif" font-size="14.00">totalQty</text>
<polyline fill="none" stroke="black" points="769.63,-427 877.403,-427 "/>
<text text-anchor="middle" x="823.517" y="-411.8" font-family="Times,serif" font-size="14.00">totalPendingQty</text>
<polyline fill="none" stroke="black" points="769.63,-405 877.403,-405 "/>
<text text-anchor="middle" x="823.517" y="-389.8" font-family="Times,serif" font-size="14.00">totalSku</text>
</g>
<!-- ContainerBag&#45;&gt;Container -->
<g id="edge25" class="edge"><title>ContainerBag:totalPendingQty&#45;&gt;Container:getContainerItemBag</title>
<path fill="none" stroke="black" stroke-dasharray="5,2" d="M877.775,-416C877.775,-416 901.77,-344.682 910.581,-318.496"/>
<polygon fill="black" stroke="black" points="913.904,-319.594 913.775,-309 907.269,-317.362 913.904,-319.594"/>
</g>
<!-- ContainerItemBag -->
<g id="node7" class="node"><title>ContainerItemBag</title>
<polygon fill="none" stroke="black" points="922.327,-383 922.327,-471 1041.74,-471 1041.74,-383 922.327,-383"/>
<text text-anchor="middle" x="982.034" y="-455.8" font-family="Times,serif" font-size="14.00">ContainerItemBag</text>
<polyline fill="none" stroke="black" points="922.327,-449 1041.74,-449 "/>
<text text-anchor="middle" x="982.034" y="-433.8" font-family="Times,serif" font-size="14.00">totalQty</text>
<polyline fill="none" stroke="black" points="922.327,-427 1041.74,-427 "/>
<text text-anchor="middle" x="982.034" y="-411.8" font-family="Times,serif" font-size="14.00">totalPendingQty</text>
<polyline fill="none" stroke="black" points="922.327,-405 1041.74,-405 "/>
<text text-anchor="middle" x="982.034" y="-389.8" font-family="Times,serif" font-size="14.00">totalSku</text>
</g>
<!-- ContainerBag&#45;&gt;ContainerItemBag -->
<g id="edge24" class="edge"><title>ContainerBag:totalPendingQty&#45;&gt;ContainerItemBag:totalPendingQty</title>
<path fill="none" stroke="black" stroke-dasharray="5,2" d="M877.775,-416C877.775,-416 898.222,-416 911.001,-416"/>
<polygon fill="black" stroke="black" points="911.034,-419.5 921.034,-416 911.034,-412.5 911.034,-419.5"/>
</g>
<!-- ContainerBag&#45;&gt;ContainerItemBag -->
<g id="edge26" class="edge"><title>ContainerBag:totalQty&#45;&gt;ContainerItemBag:totalQty</title>
<path fill="none" stroke="black" stroke-dasharray="5,2" d="M877.775,-438C877.775,-438 898.222,-438 911.001,-438"/>
<polygon fill="black" stroke="black" points="911.034,-441.5 921.034,-438 911.034,-434.5 911.034,-441.5"/>
</g>
<!-- ContainerBag&#45;&gt;ContainerItemBag -->
<g id="edge27" class="edge"><title>ContainerBag:totalSku&#45;&gt;ContainerItemBag:totalSku</title>
<path fill="none" stroke="black" stroke-dasharray="5,2" d="M877.775,-394C877.775,-394 898.222,-394 911.001,-394"/>
<polygon fill="black" stroke="black" points="911.034,-397.5 921.034,-394 911.034,-390.5 911.034,-397.5"/>
</g>
<!-- ContainerItemBag&#45;&gt;ContainerItem -->
<g id="edge28" class="edge"><title>ContainerItemBag:totalPendingQty&#45;&gt;ContainerItem:getPendingQty</title>
<path fill="none" stroke="black" stroke-dasharray="5,2" d="M1043.03,-416C1043.03,-416 1063.48,-416 1076.26,-416"/>
<polygon fill="black" stroke="black" points="1076.29,-419.5 1086.29,-416 1076.29,-412.5 1076.29,-419.5"/>
</g>
<!-- ContainerItemBag&#45;&gt;ContainerItem -->
<g id="edge29" class="edge"><title>ContainerItemBag:totalQty&#45;&gt;ContainerItem:getExpectedQty</title>
<path fill="none" stroke="black" stroke-dasharray="5,2" d="M1043.03,-438C1043.03,-438 1063.48,-438 1076.26,-438"/>
<polygon fill="black" stroke="black" points="1076.29,-441.5 1086.29,-438 1076.29,-434.5 1076.29,-441.5"/>
</g>
<!-- Order -->
<g id="node8" class="node"><title>Order</title>
<polygon fill="none" stroke="black" points="411.559,-691 411.559,-823 555.849,-823 555.849,-691 411.559,-691"/>
<text text-anchor="middle" x="483.704" y="-807.8" font-family="Times,serif" font-size="14.00">Order</text>
<polyline fill="none" stroke="black" points="411.559,-801 555.849,-801 "/>
<text text-anchor="middle" x="483.704" y="-785.8" font-family="Times,serif" font-size="14.00">getOrderNo</text>
<polyline fill="none" stroke="black" points="411.559,-779 555.849,-779 "/>
<text text-anchor="middle" x="483.704" y="-763.8" font-family="Times,serif" font-size="14.00">recommendPackQty</text>
<polyline fill="none" stroke="black" points="411.559,-757 555.849,-757 "/>
<text text-anchor="middle" x="483.704" y="-741.8" font-family="Times,serif" font-size="14.00">checkedBy</text>
<polyline fill="none" stroke="black" points="411.559,-735 555.849,-735 "/>
<text text-anchor="middle" x="483.704" y="-719.8" font-family="Times,serif" font-size="14.00">totalExpectedQty</text>
<polyline fill="none" stroke="black" points="411.559,-713 555.849,-713 "/>
<text text-anchor="middle" x="483.704" y="-697.8" font-family="Times,serif" font-size="14.00">recommendedPlatform</text>
</g>
<!-- OrderCartons -->
<g id="node10" class="node"><title>OrderCartons</title>
<polygon fill="none" stroke="black" points="609.264,-777 609.264,-821 732.567,-821 732.567,-777 609.264,-777"/>
<text text-anchor="middle" x="670.916" y="-805.8" font-family="Times,serif" font-size="14.00">OrderCartons</text>
<polyline fill="none" stroke="black" points="609.264,-799 732.567,-799 "/>
<text text-anchor="middle" x="670.916" y="-783.8" font-family="Times,serif" font-size="14.00">totalCartonizedQty</text>
</g>
<!-- Order&#45;&gt;OrderCartons -->
<g id="edge38" class="edge"><title>Order:recommendPackQty&#45;&gt;OrderCartons:totalCartonizedQty</title>
<path fill="none" stroke="black" stroke-dasharray="5,2" d="M556.704,-768C556.704,-768 584.085,-778.558 599.06,-784.332"/>
<polygon fill="black" stroke="black" points="597.984,-787.668 608.573,-788 600.502,-781.137 597.984,-787.668"/>
</g>
<!-- OrderLineBag -->
<g id="node12" class="node"><title>OrderLineBag</title>
<polygon fill="none" stroke="black" points="613.933,-692 613.933,-758 727.898,-758 727.898,-692 613.933,-692"/>
<text text-anchor="middle" x="670.916" y="-742.8" font-family="Times,serif" font-size="14.00">OrderLineBag</text>
<polyline fill="none" stroke="black" points="613.933,-736 727.898,-736 "/>
<text text-anchor="middle" x="670.916" y="-720.8" font-family="Times,serif" font-size="14.00">orderLineNos</text>
<polyline fill="none" stroke="black" points="613.933,-714 727.898,-714 "/>
<text text-anchor="middle" x="670.916" y="-698.8" font-family="Times,serif" font-size="14.00">totalExpectedQty</text>
</g>
<!-- Order&#45;&gt;OrderLineBag -->
<g id="edge39" class="edge"><title>Order:totalExpectedQty&#45;&gt;OrderLineBag:totalExpectedQty</title>
<path fill="none" stroke="black" stroke-dasharray="5,2" d="M556.704,-724C556.704,-724 587.343,-712.554 603.38,-706.562"/>
<polygon fill="black" stroke="black" points="604.773,-709.778 612.916,-703 602.323,-703.221 604.773,-709.778"/>
</g>
<!-- OrderBag -->
<g id="node9" class="node"><title>OrderBag</title>
<polygon fill="none" stroke="black" points="202.855,-788 202.855,-876 337.076,-876 337.076,-788 202.855,-788"/>
<text text-anchor="middle" x="269.966" y="-860.8" font-family="Times,serif" font-size="14.00">OrderBag</text>
<polyline fill="none" stroke="black" points="202.855,-854 337.076,-854 "/>
<text text-anchor="middle" x="269.966" y="-838.8" font-family="Times,serif" font-size="14.00">canceledBag</text>
<polyline fill="none" stroke="black" points="202.855,-832 337.076,-832 "/>
<text text-anchor="middle" x="269.966" y="-816.8" font-family="Times,serif" font-size="14.00">consumableCostFirst</text>
<polyline fill="none" stroke="black" points="202.855,-810 337.076,-810 "/>
<text text-anchor="middle" x="269.966" y="-794.8" font-family="Times,serif" font-size="14.00">orderNos</text>
</g>
<!-- OrderBag&#45;&gt;Order -->
<g id="edge32" class="edge"><title>OrderBag:orderNos&#45;&gt;Order:getOrderNo</title>
<path fill="none" stroke="black" stroke-dasharray="5,2" d="M337.966,-799C337.966,-799 380.604,-793.724 400.59,-791.251"/>
<polygon fill="black" stroke="black" points="401.21,-794.702 410.704,-790 400.35,-787.755 401.21,-794.702"/>
</g>
<!-- OrderLine -->
<g id="node11" class="node"><title>OrderLine</title>
<polygon fill="none" stroke="black" points="769.258,-692 769.258,-758 877.775,-758 877.775,-692 769.258,-692"/>
<text text-anchor="middle" x="823.517" y="-742.8" font-family="Times,serif" font-size="14.00">OrderLine</text>
<polyline fill="none" stroke="black" points="769.258,-736 877.775,-736 "/>
<text text-anchor="middle" x="823.517" y="-720.8" font-family="Times,serif" font-size="14.00">getOrderLineNo</text>
<polyline fill="none" stroke="black" points="769.258,-714 877.775,-714 "/>
<text text-anchor="middle" x="823.517" y="-698.8" font-family="Times,serif" font-size="14.00">expectedQty</text>
</g>
<!-- OrderLineBag&#45;&gt;OrderLine -->
<g id="edge33" class="edge"><title>OrderLineBag:orderLineNos&#45;&gt;OrderLine:getOrderLineNo</title>
<path fill="none" stroke="black" stroke-dasharray="5,2" d="M728.916,-725C728.916,-725 747.127,-725 759.078,-725"/>
<polygon fill="black" stroke="black" points="759.258,-728.5 769.258,-725 759.258,-721.5 759.258,-728.5"/>
</g>
<!-- OrderLineBag&#45;&gt;OrderLine -->
<g id="edge34" class="edge"><title>OrderLineBag:totalExpectedQty&#45;&gt;OrderLine:expectedQty</title>
<path fill="none" stroke="black" stroke-dasharray="5,2" d="M728.916,-703C728.916,-703 747.127,-703 759.078,-703"/>
<polygon fill="black" stroke="black" points="759.258,-706.5 769.258,-703 759.258,-699.5 759.258,-706.5"/>
</g>
<!-- Task -->
<g id="node14" class="node"><title>Task</title>
<polygon fill="none" stroke="black" points="422.838,-391 422.838,-633 544.57,-633 544.57,-391 422.838,-391"/>
<text text-anchor="middle" x="483.704" y="-617.8" font-family="Times,serif" font-size="14.00">Task</text>
<polyline fill="none" stroke="black" points="422.838,-611 544.57,-611 "/>
<text text-anchor="middle" x="483.704" y="-595.8" font-family="Times,serif" font-size="14.00">claimedWith</text>
<polyline fill="none" stroke="black" points="422.838,-589 544.57,-589 "/>
<text text-anchor="middle" x="483.704" y="-573.8" font-family="Times,serif" font-size="14.00">orderNoSet</text>
<polyline fill="none" stroke="black" points="422.838,-567 544.57,-567 "/>
<text text-anchor="middle" x="483.704" y="-551.8" font-family="Times,serif" font-size="14.00">containerBag</text>
<polyline fill="none" stroke="black" points="422.838,-545 544.57,-545 "/>
<text text-anchor="middle" x="483.704" y="-529.8" font-family="Times,serif" font-size="14.00">confirmQty</text>
<polyline fill="none" stroke="black" points="422.838,-523 544.57,-523 "/>
<text text-anchor="middle" x="483.704" y="-507.8" font-family="Times,serif" font-size="14.00">totalQty</text>
<polyline fill="none" stroke="black" points="422.838,-501 544.57,-501 "/>
<text text-anchor="middle" x="483.704" y="-485.8" font-family="Times,serif" font-size="14.00">isEmpty</text>
<polyline fill="none" stroke="black" points="422.838,-479 544.57,-479 "/>
<text text-anchor="middle" x="483.704" y="-463.8" font-family="Times,serif" font-size="14.00">totalPendingQty</text>
<polyline fill="none" stroke="black" points="422.838,-457 544.57,-457 "/>
<text text-anchor="middle" x="483.704" y="-441.8" font-family="Times,serif" font-size="14.00">plan</text>
<polyline fill="none" stroke="black" points="422.838,-435 544.57,-435 "/>
<text text-anchor="middle" x="483.704" y="-419.8" font-family="Times,serif" font-size="14.00">removeOrderLines</text>
<polyline fill="none" stroke="black" points="422.838,-413 544.57,-413 "/>
<text text-anchor="middle" x="483.704" y="-397.8" font-family="Times,serif" font-size="14.00">totalSku</text>
</g>
<!-- Task&#45;&gt;ContainerBag -->
<g id="edge45" class="edge"><title>Task:orderNoSet&#45;&gt;ContainerBag:orderNoSet</title>
<path fill="none" stroke="black" stroke-dasharray="5,2" d="M545.704,-578C545.704,-578 733.258,-558 733.258,-558 733.258,-558 755.23,-511.613 764.844,-491.319"/>
<polygon fill="black" stroke="black" points="768.14,-492.536 769.258,-482 761.814,-489.539 768.14,-492.536"/>
</g>
<!-- Task&#45;&gt;ContainerBag -->
<g id="edge46" class="edge"><title>Task:totalPendingQty&#45;&gt;ContainerBag:totalPendingQty</title>
<path fill="none" stroke="black" stroke-dasharray="5,2" d="M545.704,-468C545.704,-468 716.099,-428.365 759.364,-418.301"/>
<polygon fill="black" stroke="black" points="760.311,-421.675 769.258,-416 758.725,-414.857 760.311,-421.675"/>
</g>
<!-- Task&#45;&gt;ContainerBag -->
<g id="edge47" class="edge"><title>Task:totalQty&#45;&gt;ContainerBag:totalQty</title>
<path fill="none" stroke="black" stroke-dasharray="5,2" d="M545.704,-512C545.704,-512 733.258,-452 733.258,-452 733.258,-452 749.133,-445.826 759.799,-441.678"/>
<polygon fill="black" stroke="black" points="761.206,-444.887 769.258,-438 758.669,-438.363 761.206,-444.887"/>
</g>
<!-- Task&#45;&gt;ContainerBag -->
<g id="edge48" class="edge"><title>Task:totalSku&#45;&gt;ContainerBag:totalSku</title>
<path fill="none" stroke="black" stroke-dasharray="5,2" d="M545.704,-402C545.704,-402 715.338,-395.93 759.071,-394.365"/>
<polygon fill="black" stroke="black" points="759.389,-397.855 769.258,-394 759.139,-390.86 759.389,-397.855"/>
</g>
<!-- TaskOfSkuPending -->
<g id="node18" class="node"><title>TaskOfSkuPending</title>
<polygon fill="none" stroke="black" points="608.573,-505 608.573,-549 733.258,-549 733.258,-505 608.573,-505"/>
<text text-anchor="middle" x="670.916" y="-533.8" font-family="Times,serif" font-size="14.00">TaskOfSkuPending</text>
<polyline fill="none" stroke="black" points="608.573,-527 733.258,-527 "/>
<text text-anchor="middle" x="670.916" y="-511.8" font-family="Times,serif" font-size="14.00">confirmQty</text>
</g>
<!-- Task&#45;&gt;TaskOfSkuPending -->
<g id="edge44" class="edge"><title>Task:confirmQty&#45;&gt;TaskOfSkuPending:confirmQty</title>
<path fill="none" stroke="black" stroke-dasharray="5,2" d="M545.704,-534C545.704,-534 581.068,-523.875 598.75,-518.812"/>
<polygon fill="black" stroke="black" points="599.923,-522.117 608.573,-516 597.996,-515.388 599.923,-522.117"/>
</g>
<!-- TaskBag -->
<g id="node15" class="node"><title>TaskBag</title>
<polygon fill="none" stroke="black" points="214.535,-328 214.535,-438 325.397,-438 325.397,-328 214.535,-328"/>
<text text-anchor="middle" x="269.966" y="-422.8" font-family="Times,serif" font-size="14.00">TaskBag</text>
<polyline fill="none" stroke="black" points="214.535,-416 325.397,-416 "/>
<text text-anchor="middle" x="269.966" y="-400.8" font-family="Times,serif" font-size="14.00">totalQty</text>
<polyline fill="none" stroke="black" points="214.535,-394 325.397,-394 "/>
<text text-anchor="middle" x="269.966" y="-378.8" font-family="Times,serif" font-size="14.00">totalCheckedQty</text>
<polyline fill="none" stroke="black" points="214.535,-372 325.397,-372 "/>
<text text-anchor="middle" x="269.966" y="-356.8" font-family="Times,serif" font-size="14.00">totalPendingQty</text>
<polyline fill="none" stroke="black" points="214.535,-350 325.397,-350 "/>
<text text-anchor="middle" x="269.966" y="-334.8" font-family="Times,serif" font-size="14.00">platforms</text>
</g>
<!-- TaskBag&#45;&gt;ContainerBag -->
<g id="edge40" class="edge"><title>TaskBag:totalPendingQty&#45;&gt;ContainerBag:totalPendingQty</title>
<path fill="none" stroke="black" stroke-dasharray="5,2" d="M325.966,-361C325.966,-361 394.835,-348 394.835,-348 394.835,-348 572.573,-348 572.573,-348 572.573,-348 733.258,-392 733.258,-392 733.258,-392 750.273,-403.344 760.908,-410.434"/>
<polygon fill="black" stroke="black" points="758.996,-413.365 769.258,-416 762.879,-407.541 758.996,-413.365"/>
</g>
<!-- TaskBag&#45;&gt;ContainerBag -->
<g id="edge42" class="edge"><title>TaskBag:totalQty&#45;&gt;ContainerBag:totalQty</title>
<path fill="none" stroke="black" stroke-dasharray="5,2" d="M325.966,-405C325.966,-405 394.835,-381 394.835,-381 394.835,-381 572.573,-381 572.573,-381 572.573,-381 719.817,-423.672 759.504,-435.173"/>
<polygon fill="black" stroke="black" points="758.679,-438.578 769.258,-438 760.627,-431.855 758.679,-438.578"/>
</g>
<!-- TaskBag&#45;&gt;Task -->
<g id="edge41" class="edge"><title>TaskBag:totalPendingQty&#45;&gt;Task:containerBag</title>
<path fill="none" stroke="black" stroke-dasharray="5,2" d="M325.966,-361C325.966,-361 398.287,-508.304 417.215,-546.856"/>
<polygon fill="black" stroke="black" points="414.155,-548.566 421.704,-556 420.439,-545.481 414.155,-548.566"/>
</g>
<!-- TaskCartons -->
<g id="node16" class="node"><title>TaskCartons</title>
<polygon fill="none" stroke="black" points="227.072,-958 227.072,-1002 312.86,-1002 312.86,-958 227.072,-958"/>
<text text-anchor="middle" x="269.966" y="-986.8" font-family="Times,serif" font-size="14.00">TaskCartons</text>
<polyline fill="none" stroke="black" points="227.072,-980 312.86,-980 "/>
<text text-anchor="middle" x="269.966" y="-964.8" font-family="Times,serif" font-size="14.00">contains</text>
</g>
<!-- TaskOfOrderPending -->
<g id="node17" class="node"><title>TaskOfOrderPending</title>
<polygon fill="none" stroke="black" points="202.192,-81 202.192,-125 337.739,-125 337.739,-81 202.192,-81"/>
<text text-anchor="middle" x="269.966" y="-109.8" font-family="Times,serif" font-size="14.00">TaskOfOrderPending</text>
<polyline fill="none" stroke="black" points="202.192,-103 337.739,-103 "/>
<text text-anchor="middle" x="269.966" y="-87.8" font-family="Times,serif" font-size="14.00">confirmQty</text>
</g>
<!-- TaskOfSkuPending&#45;&gt;ContainerBag -->
<g id="edge43" class="edge"><title>TaskOfSkuPending:confirmQty&#45;&gt;ContainerBag:confirmQty</title>
<path fill="none" stroke="black" stroke-dasharray="5,2" d="M733.258,-516C733.258,-516 753.508,-484.5 763.633,-468.75"/>
<polygon fill="black" stroke="black" points="766.794,-470.304 769.258,-460 760.906,-466.519 766.794,-470.304"/>
</g>
<!-- CheckingAppService -->
<g id="node19" class="node"><title>CheckingAppService</title>
<polygon fill="none" stroke="black" points="4.67578,-321 4.67578,-357 140.421,-357 140.421,-321 4.67578,-321"/>
<text text-anchor="middle" x="72.5483" y="-334.8" font-family="Times,serif" font-size="14.00">CheckingAppService</text>
</g>
<!-- CheckingAppService&#45;&gt;Carton -->
<g id="edge8" class="edge"><title>CheckingAppService&#45;&gt;Carton:cartonizationRule</title>
<path fill="none" stroke="black" stroke-dasharray="5,2" d="M88.7293,-320.932C118.375,-285.649 181.097,-211 181.097,-211 181.097,-211 342.556,-184.561 384.813,-177.641"/>
<polygon fill="black" stroke="black" points="385.532,-181.07 394.835,-176 384.401,-174.162 385.532,-181.07"/>
</g>
<!-- CheckingAppService&#45;&gt;Carton -->
<g id="edge9" class="edge"><title>CheckingAppService&#45;&gt;Carton:bindOrder</title>
<path fill="none" stroke="black" stroke-dasharray="5,2" d="M79.3306,-320.774C101.669,-250.36 181.097,-0 181.097,-0 181.097,-0 358.835,-0 358.835,-0 358.835,-0 381.695,-55.8809 390.982,-78.5825"/>
<polygon fill="black" stroke="black" points="387.809,-80.0698 394.835,-88 394.288,-77.4193 387.809,-80.0698"/>
</g>
<!-- CheckingAppService&#45;&gt;Carton -->
<g id="edge10" class="edge"><title>CheckingAppService&#45;&gt;Carton:transferFrom</title>
<path fill="none" stroke="black" stroke-dasharray="5,2" d="M80.7719,-321C104.886,-260.911 181.097,-71 181.097,-71 181.097,-71 358.835,-71 358.835,-71 358.835,-71 379.723,-106.393 389.677,-123.26"/>
<polygon fill="black" stroke="black" points="386.738,-125.167 394.835,-132 392.767,-121.609 386.738,-125.167"/>
</g>
<!-- CheckingAppService&#45;&gt;Carton -->
<g id="edge13" class="edge"><title>CheckingAppService&#45;&gt;Carton:installConsumables</title>
<path fill="none" stroke="black" stroke-dasharray="5,2" d="M85.6764,-320.844C113.803,-278.739 181.097,-178 181.097,-178 181.097,-178 342.556,-159.87 384.813,-155.125"/>
<polygon fill="black" stroke="black" points="385.288,-158.594 394.835,-154 384.507,-151.638 385.288,-158.594"/>
</g>
<!-- CheckingAppService&#45;&gt;Carton -->
<g id="edge14" class="edge"><title>CheckingAppService&#45;&gt;Carton:fulfill</title>
<path fill="none" stroke="black" stroke-dasharray="5,2" d="M80.7719,-320.731C104.886,-259.745 181.097,-67 181.097,-67 181.097,-67 358.835,-67 358.835,-67 358.835,-67 377.839,-89.6994 388.232,-102.113"/>
<polygon fill="black" stroke="black" points="385.732,-104.579 394.835,-110 391.099,-100.086 385.732,-104.579"/>
</g>
<!-- CheckingAppService&#45;&gt;CartonBag -->
<g id="edge4" class="edge"><title>CheckingAppService&#45;&gt;CartonBag:fulfill</title>
<path fill="none" stroke="black" stroke-dasharray="5,2" d="M96.3566,-320.974C120.281,-302.066 156.609,-273.353 172.803,-260.555"/>
<polygon fill="black" stroke="black" points="175.421,-262.947 181.097,-254 171.081,-257.455 175.421,-262.947"/>
</g>
<!-- CheckingAppService&#45;&gt;CartonBag -->
<g id="edge5" class="edge"><title>CheckingAppService&#45;&gt;CartonBag:putOnPallet</title>
<path fill="none" stroke="black" stroke-dasharray="5,2" d="M91.7924,-320.849C115.764,-296.999 156.787,-256.186 173.588,-239.471"/>
<polygon fill="black" stroke="black" points="176.476,-241.534 181.097,-232 171.539,-236.572 176.476,-241.534"/>
</g>
<!-- CheckingAppService&#45;&gt;CartonBag -->
<g id="edge7" class="edge"><title>CheckingAppService&#45;&gt;CartonBag:deductConsumableInventory</title>
<path fill="none" stroke="black" stroke-dasharray="5,2" d="M104.367,-320.947C127.458,-307.421 157.5,-289.823 172.203,-281.21"/>
<polygon fill="black" stroke="black" points="174.237,-284.075 181.097,-276 170.699,-278.035 174.237,-284.075"/>
</g>
<!-- CheckingAppService&#45;&gt;Order -->
<g id="edge6" class="edge"><title>CheckingAppService&#45;&gt;Order:checkedBy</title>
<path fill="none" stroke="black" stroke-dasharray="5,2" d="M79.0295,-357.245C100.946,-430.199 181.097,-697 181.097,-697 181.097,-697 356.89,-734.516 400.838,-743.895"/>
<polygon fill="black" stroke="black" points="400.194,-747.336 410.704,-746 401.655,-740.49 400.194,-747.336"/>
</g>
<!-- CheckingAppService&#45;&gt;Order -->
<g id="edge12" class="edge"><title>CheckingAppService&#45;&gt;Order:recommendPackQty</title>
<path fill="none" stroke="black" stroke-dasharray="5,2" d="M78.5199,-357.075C99.6714,-433.972 181.097,-730 181.097,-730 181.097,-730 356.89,-759.094 400.838,-766.367"/>
<polygon fill="black" stroke="black" points="400.267,-769.82 410.704,-768 401.41,-762.914 400.267,-769.82"/>
</g>
<!-- CheckingAppService&#45;&gt;Order -->
<g id="edge15" class="edge"><title>CheckingAppService&#45;&gt;Order:recommendedPlatform</title>
<path fill="none" stroke="black" stroke-dasharray="5,2" d="M79.6388,-357.348C102.39,-425.888 181.097,-663 181.097,-663 181.097,-663 356.89,-692.859 400.838,-700.324"/>
<polygon fill="black" stroke="black" points="400.259,-703.776 410.704,-702 401.431,-696.875 400.259,-703.776"/>
</g>
<!-- CheckingAppService&#45;&gt;OrderBag -->
<g id="edge11" class="edge"><title>CheckingAppService&#45;&gt;OrderBag:canceledBag</title>
<path fill="none" stroke="black" stroke-dasharray="5,2" d="M78.0326,-357.096C98.387,-439.234 181.097,-773 181.097,-773 181.097,-773 193.33,-814.033 199.064,-833.267"/>
<polygon fill="black" stroke="black" points="195.755,-834.417 201.966,-843 202.463,-832.417 195.755,-834.417"/>
</g>
<!-- CheckingAppService&#45;&gt;Task -->
<g id="edge19" class="edge"><title>CheckingAppService&#45;&gt;Task:removeOrderLines</title>
<path fill="none" stroke="black" stroke-dasharray="5,2" d="M91.7924,-357.321C122.476,-388.134 181.097,-447 181.097,-447 181.097,-447 358.835,-447 358.835,-447 358.835,-447 394.568,-433.927 412.156,-427.493"/>
<polygon fill="black" stroke="black" points="413.515,-430.723 421.704,-424 411.11,-424.149 413.515,-430.723"/>
</g>
<!-- CheckingAppService&#45;&gt;Task -->
<g id="edge20" class="edge"><title>CheckingAppService&#45;&gt;Task:isEmpty</title>
<path fill="none" stroke="black" stroke-dasharray="5,2" d="M84.4525,-357.25C111.794,-403.011 181.097,-519 181.097,-519 181.097,-519 358.835,-519 358.835,-519 358.835,-519 394.939,-502.346 412.428,-494.279"/>
<polygon fill="black" stroke="black" points="414.09,-497.367 421.704,-490 411.158,-491.01 414.09,-497.367"/>
</g>
<!-- CheckingAppService&#45;&gt;Task -->
<g id="edge21" class="edge"><title>CheckingAppService&#45;&gt;Task:plan</title>
<path fill="none" stroke="black" stroke-dasharray="5,2" d="M89.4175,-357.002C119.334,-390.938 181.097,-461 181.097,-461 181.097,-461 358.835,-461 358.835,-461 358.835,-461 394.199,-452.562 411.881,-448.344"/>
<polygon fill="black" stroke="black" points="412.789,-451.725 421.704,-446 411.165,-444.916 412.789,-451.725"/>
</g>
<!-- CheckingAppService&#45;&gt;TaskBag -->
<g id="edge16" class="edge"><title>CheckingAppService&#45;&gt;TaskBag:platforms</title>
<path fill="none" stroke="black" stroke-dasharray="5,2" d="M140.467,-339C165.049,-339 190.169,-339 203.74,-339"/>
<polygon fill="black" stroke="black" points="203.966,-342.5 213.966,-339 203.966,-335.5 203.966,-342.5"/>
</g>
<!-- CheckingAppService&#45;&gt;TaskBag -->
<g id="edge17" class="edge"><title>CheckingAppService&#45;&gt;TaskBag:totalCheckedQty</title>
<path fill="none" stroke="black" stroke-dasharray="5,2" d="M131.067,-357.023C158.787,-365.71 189.238,-375.251 204.35,-379.987"/>
<polygon fill="black" stroke="black" points="203.377,-383.35 213.966,-383 205.47,-376.67 203.377,-383.35"/>
</g>
<!-- CheckingAppService&#45;&gt;TaskBag -->
<g id="edge18" class="edge"><title>CheckingAppService&#45;&gt;TaskBag:totalPendingQty</title>
<path fill="none" stroke="black" stroke-dasharray="5,2" d="M140.467,-349.485C165.049,-353.336 190.169,-357.272 203.74,-359.398"/>
<polygon fill="black" stroke="black" points="203.545,-362.91 213.966,-361 204.628,-355.994 203.545,-362.91"/>
</g>
<!-- CheckingAppService&#45;&gt;TaskOfOrderPending -->
<g id="edge3" class="edge"><title>CheckingAppService&#45;&gt;TaskOfOrderPending:confirmQty</title>
<path fill="none" stroke="black" stroke-dasharray="5,2" d="M82.9177,-320.838C108.32,-271.595 177.84,-136.83 196.374,-100.901"/>
<polygon fill="black" stroke="black" points="199.492,-102.492 200.966,-92 193.271,-99.2826 199.492,-102.492"/>
</g>
<!-- ConsumableBag -->
<g id="node20" class="node"><title>ConsumableBag</title>
<polygon fill="none" stroke="black" points="18.2759,-888 18.2759,-924 126.821,-924 126.821,-888 18.2759,-888"/>
<text text-anchor="middle" x="72.5483" y="-901.8" font-family="Times,serif" font-size="14.00">ConsumableBag</text>
</g>
<!-- ConsumableBag&#45;&gt;Consumable -->
<g id="edge22" class="edge"><title>ConsumableBag:inventoryControlBag&#45;&gt;Consumable:isInventory</title>
<path fill="none" stroke="black" stroke-dasharray="5,2" d="M127.07,-906C159.625,-906 198.015,-906 215.879,-906"/>
<polygon fill="black" stroke="black" points="215.966,-909.5 225.966,-906 215.966,-902.5 215.966,-909.5"/>
</g>
<!-- ConsumableExtPolicy -->
<g id="node21" class="node"><title>ConsumableExtPolicy</title>
<polygon fill="none" stroke="black" points="1.94141,-803 1.94141,-839 143.155,-839 143.155,-803 1.94141,-803"/>
<text text-anchor="middle" x="72.5483" y="-816.8" font-family="Times,serif" font-size="14.00">ConsumableExtPolicy</text>
</g>
<!-- ConsumableExtPolicy&#45;&gt;OrderBag -->
<g id="edge23" class="edge"><title>ConsumableExtPolicy&#45;&gt;OrderBag:consumableCostFirst</title>
<path fill="none" stroke="black" stroke-dasharray="5,2" d="M143.394,-821C162.454,-821 180.846,-821 191.783,-821"/>
<polygon fill="black" stroke="black" points="191.966,-824.5 201.966,-821 191.966,-817.5 191.966,-824.5"/>
</g>
<!-- OrderNotCartonizedYet -->
<g id="node22" class="node"><title>OrderNotCartonizedYet</title>
<polygon fill="none" stroke="black" points="408.76,-842 408.76,-878 558.648,-878 558.648,-842 408.76,-842"/>
<text text-anchor="middle" x="483.704" y="-855.8" font-family="Times,serif" font-size="14.00">OrderNotCartonizedYet</text>
</g>
<!-- OrderNotCartonizedYet&#45;&gt;OrderCartons -->
<g id="edge35" class="edge"><title>OrderNotCartonizedYet&#45;&gt;OrderCartons:totalCartonizedQty</title>
<path fill="none" stroke="black" stroke-dasharray="5,2" d="M541.346,-841.951C558.349,-836.533 572.573,-832 572.573,-832 572.573,-832 591.577,-808.773 601.97,-796.07"/>
<polygon fill="black" stroke="black" points="604.95,-797.956 608.573,-788 599.532,-793.523 604.95,-797.956"/>
</g>
<!-- OrderNotFullyCartonized -->
<g id="node23" class="node"><title>OrderNotFullyCartonized</title>
<polygon fill="none" stroke="black" points="189.648,-618 189.648,-654 350.283,-654 350.283,-618 189.648,-618"/>
<text text-anchor="middle" x="269.966" y="-631.8" font-family="Times,serif" font-size="14.00">OrderNotFullyCartonized</text>
</g>
<!-- OrderNotFullyCartonized&#45;&gt;Order -->
<g id="edge36" class="edge"><title>OrderNotFullyCartonized&#45;&gt;Order:totalExpectedQty</title>
<path fill="none" stroke="black" stroke-dasharray="5,2" d="M319.014,-654.045C339.528,-661.749 358.835,-669 358.835,-669 358.835,-669 389.24,-701.24 403.492,-716.352"/>
<polygon fill="black" stroke="black" points="401.297,-719.126 410.704,-724 406.389,-714.324 401.297,-719.126"/>
</g>
<!-- OrderNotFullyCartonized&#45;&gt;OrderCartons -->
<g id="edge37" class="edge"><title>OrderNotFullyCartonized&#45;&gt;OrderCartons:totalCartonizedQty</title>
<path fill="none" stroke="black" stroke-dasharray="5,2" d="M350.604,-647.882C439.962,-661.214 572.573,-681 572.573,-681 572.573,-681 596.568,-752.318 605.378,-778.504"/>
<polygon fill="black" stroke="black" points="602.067,-779.638 608.573,-788 608.702,-777.406 602.067,-779.638"/>
</g>
<!-- UniqueCodeConstraint -->
<g id="node24" class="node"><title>UniqueCodeConstraint</title>
<polygon fill="none" stroke="black" points="0,-951 0,-987 145.097,-987 145.097,-951 0,-951"/>
<text text-anchor="middle" x="72.5483" y="-964.8" font-family="Times,serif" font-size="14.00">UniqueCodeConstraint</text>
</g>
<!-- UniqueCodeConstraint&#45;&gt;TaskCartons -->
<g id="edge49" class="edge"><title>UniqueCodeConstraint&#45;&gt;TaskCartons:contains</title>
<path fill="none" stroke="black" stroke-dasharray="5,2" d="M145.294,-969C172.781,-969 201.046,-969 215.717,-969"/>
<polygon fill="black" stroke="black" points="215.966,-972.5 225.966,-969 215.966,-965.5 215.966,-972.5"/>
</g>
</g>
</svg>
