<svg width="554px" height="1718px"
 viewBox="0.00 0.00 553.55 1718.00" xmlns="http://www.w3.org/2000/svg" xmlns:xlink="http://www.w3.org/1999/xlink">
<g id="graph0" class="graph" transform="scale(1.0 1.0) rotate(0.0) translate(4.0 1714.0)">
<title>CallGraph</title>
<polygon fill="white" stroke="none" points="-4,4 -4,-1714 549.55,-1714 549.55,4 -4,4"/>
<!-- CheckingAppService -->
<g id="node1" class="node">
<title>CheckingAppService</title>
<ellipse fill="none" stroke="black" stroke-dasharray="5,2" cx="101.39" cy="-558" rx="85.59" ry="18"/>
<text text-anchor="middle" x="101.39" y="-554.3" font-family="Times,serif" font-size="14.00">CheckingAppService</text>
</g>
<!-- Carton.fulfill -->
<g id="node11" class="node">
<title>Carton.fulfill</title>
<ellipse fill="none" stroke="black" cx="392.17" cy="-72" rx="56.59" ry="18"/>
<text text-anchor="middle" x="392.17" y="-68.3" font-family="Times,serif" font-size="14.00">Carton.fulfill</text>
</g>
<!-- CheckingAppService&#45;&gt;Carton.fulfill -->
<g id="edge1" class="edge">
<title>CheckingAppService&#45;&gt;Carton.fulfill</title>
<path fill="none" stroke="black" d="M105.2,-539.9C117.58,-462.53 169.71,-160.65 238.78,-99 262.46,-77.86 296.74,-70.49 326.8,-68.67"/>
<polygon fill="black" stroke="black" points="326.96,-72.16 336.8,-68.25 326.67,-65.17 326.96,-72.16"/>
</g>
<!-- Carton.installConsumables -->
<g id="node12" class="node">
<title>Carton.installConsumables</title>
<ellipse fill="none" stroke="black" cx="392.17" cy="-1044" rx="106.68" ry="18"/>
<text text-anchor="middle" x="392.17" y="-1040.3" font-family="Times,serif" font-size="14.00">Carton.installConsumables</text>
</g>
<!-- CheckingAppService&#45;&gt;Carton.installConsumables -->
<g id="edge2" class="edge">
<title>CheckingAppService&#45;&gt;Carton.installConsumables</title>
<path fill="none" stroke="black" d="M105.2,-576.1C117.58,-653.47 169.71,-955.35 238.78,-1017 249.69,-1026.74 262.86,-1033.56 276.82,-1038.26"/>
<polygon fill="black" stroke="black" points="276.01,-1041.67 286.59,-1041.18 278.02,-1034.96 276.01,-1041.67"/>
</g>
<!-- CartonBag.deductConsumableInventory -->
<g id="node13" class="node">
<title>CartonBag.deductConsumableInventory</title>
<ellipse fill="none" stroke="black" cx="392.17" cy="-990" rx="153.27" ry="18"/>
<text text-anchor="middle" x="392.17" y="-986.3" font-family="Times,serif" font-size="14.00">CartonBag.deductConsumableInventory</text>
</g>
<!-- CheckingAppService&#45;&gt;CartonBag.deductConsumableInventory -->
<g id="edge3" class="edge">
<title>CheckingAppService&#45;&gt;CartonBag.deductConsumableInventory</title>
<path fill="none" stroke="black" d="M102.43,-576.02C103.6,-640 116.76,-857.98 238.78,-963 244.19,-967.65 250.11,-971.63 256.38,-975.02"/>
<polygon fill="black" stroke="black" points="255.28,-978.38 265.81,-979.58 258.33,-972.08 255.28,-978.38"/>
</g>
<!-- Order.checkedBy -->
<g id="node14" class="node">
<title>Order.checkedBy</title>
<ellipse fill="none" stroke="black" cx="392.17" cy="-936" rx="72.29" ry="18"/>
<text text-anchor="middle" x="392.17" y="-932.3" font-family="Times,serif" font-size="14.00">Order.checkedBy</text>
</g>
<!-- CheckingAppService&#45;&gt;Order.checkedBy -->
<g id="edge4" class="edge">
<title>CheckingAppService&#45;&gt;Order.checkedBy</title>
<path fill="none" stroke="black" d="M103.47,-576.07C108,-634.58 130.68,-820.19 238.78,-909 258.67,-925.34 285.01,-933.23 310.18,-936.71"/>
<polygon fill="black" stroke="black" points="309.79,-940.19 320.13,-937.87 310.6,-933.23 309.79,-940.19"/>
</g>
<!-- CartonBag.putOnPallet -->
<g id="node15" class="node">
<title>CartonBag.putOnPallet</title>
<ellipse fill="none" stroke="black" cx="392.17" cy="-882" rx="92.88" ry="18"/>
<text text-anchor="middle" x="392.17" y="-878.3" font-family="Times,serif" font-size="14.00">CartonBag.putOnPallet</text>
</g>
<!-- CheckingAppService&#45;&gt;CartonBag.putOnPallet -->
<g id="edge5" class="edge">
<title>CheckingAppService&#45;&gt;CartonBag.putOnPallet</title>
<path fill="none" stroke="black" d="M104.89,-576.27C113.12,-628.96 144.49,-782.15 238.78,-855 253.47,-866.35 271.33,-873.54 289.58,-877.99"/>
<polygon fill="black" stroke="black" points="288.92,-881.43 299.44,-880.13 290.41,-874.59 288.92,-881.43"/>
</g>
<!-- CartonBag.fulfill -->
<g id="node16" class="node">
<title>CartonBag.fulfill</title>
<ellipse fill="none" stroke="black" cx="392.17" cy="-828" rx="70.69" ry="18"/>
<text text-anchor="middle" x="392.17" y="-824.3" font-family="Times,serif" font-size="14.00">CartonBag.fulfill</text>
</g>
<!-- CheckingAppService&#45;&gt;CartonBag.fulfill -->
<g id="edge6" class="edge">
<title>CheckingAppService&#45;&gt;CartonBag.fulfill</title>
<path fill="none" stroke="black" d="M106.84,-576.25C119.1,-622.3 157.91,-743.59 238.78,-801 259.58,-815.76 285.9,-823.29 310.8,-826.92"/>
<polygon fill="black" stroke="black" points="310.63,-830.42 320.99,-828.2 311.5,-823.48 310.63,-830.42"/>
</g>
<!-- TaskOfOrderPending.confirmQty -->
<g id="node17" class="node">
<title>TaskOfOrderPending.confirmQty</title>
<ellipse fill="none" stroke="black" cx="392.17" cy="-774" rx="129.98" ry="18"/>
<text text-anchor="middle" x="392.17" y="-770.3" font-family="Times,serif" font-size="14.00">TaskOfOrderPending.confirmQty</text>
</g>
<!-- CheckingAppService&#45;&gt;TaskOfOrderPending.confirmQty -->
<g id="edge7" class="edge">
<title>CheckingAppService&#45;&gt;TaskOfOrderPending.confirmQty</title>
<path fill="none" stroke="black" d="M109.77,-576.15C126.44,-614.64 170.92,-704.41 238.78,-747 248.46,-753.08 259.13,-757.88 270.2,-761.66"/>
<polygon fill="black" stroke="black" points="269.42,-765.09 280.01,-764.73 271.51,-758.41 269.42,-765.09"/>
</g>
<!-- Carton.transferFrom -->
<g id="node18" class="node">
<title>Carton.transferFrom</title>
<ellipse fill="none" stroke="black" cx="392.17" cy="-720" rx="83.39" ry="18"/>
<text text-anchor="middle" x="392.17" y="-716.3" font-family="Times,serif" font-size="14.00">Carton.transferFrom</text>
</g>
<!-- CheckingAppService&#45;&gt;Carton.transferFrom -->
<g id="edge8" class="edge">
<title>CheckingAppService&#45;&gt;Carton.transferFrom</title>
<path fill="none" stroke="black" d="M114.72,-575.89C136.18,-605.52 183.46,-664.35 238.78,-693 258.04,-702.97 280.3,-709.34 301.76,-713.39"/>
<polygon fill="black" stroke="black" points="301.43,-716.88 311.88,-715.14 302.63,-709.98 301.43,-716.88"/>
</g>
<!-- Carton.bindOrder -->
<g id="node19" class="node">
<title>Carton.bindOrder</title>
<ellipse fill="none" stroke="black" cx="392.17" cy="-666" rx="73.39" ry="18"/>
<text text-anchor="middle" x="392.17" y="-662.3" font-family="Times,serif" font-size="14.00">Carton.bindOrder</text>
</g>
<!-- CheckingAppService&#45;&gt;Carton.bindOrder -->
<g id="edge9" class="edge">
<title>CheckingAppService&#45;&gt;Carton.bindOrder</title>
<path fill="none" stroke="black" d="M125.69,-575.43C151.84,-594.1 196.18,-623.18 238.78,-639 262.47,-647.8 289.32,-653.78 313.81,-657.82"/>
<polygon fill="black" stroke="black" points="313.36,-661.29 323.78,-659.38 314.44,-654.37 313.36,-661.29"/>
</g>
<!-- Carton.cartonizationRule -->
<g id="node20" class="node">
<title>Carton.cartonizationRule</title>
<ellipse fill="none" stroke="black" cx="392.17" cy="-612" rx="99.38" ry="18"/>
<text text-anchor="middle" x="392.17" y="-608.3" font-family="Times,serif" font-size="14.00">Carton.cartonizationRule</text>
</g>
<!-- CheckingAppService&#45;&gt;Carton.cartonizationRule -->
<g id="edge10" class="edge">
<title>CheckingAppService&#45;&gt;Carton.cartonizationRule</title>
<path fill="none" stroke="black" d="M163.79,-570.43C187.23,-575.1 214.23,-580.39 238.78,-585 261.67,-589.29 286.53,-593.77 309.4,-597.82"/>
<polygon fill="black" stroke="black" points="308.95,-601.3 319.41,-599.59 310.17,-594.41 308.95,-601.3"/>
</g>
<!-- Order.recommendPackQty -->
<g id="node21" class="node">
<title>Order.recommendPackQty</title>
<ellipse fill="none" stroke="black" cx="392.17" cy="-558" rx="105.88" ry="18"/>
<text text-anchor="middle" x="392.17" y="-554.3" font-family="Times,serif" font-size="14.00">Order.recommendPackQty</text>
</g>
<!-- CheckingAppService&#45;&gt;Order.recommendPackQty -->
<g id="edge11" class="edge">
<title>CheckingAppService&#45;&gt;Order.recommendPackQty</title>
<path fill="none" stroke="black" d="M187.47,-558C215.15,-558 246.35,-558 275.86,-558"/>
<polygon fill="black" stroke="black" points="276.22,-561.5 286.22,-558 276.22,-554.5 276.22,-561.5"/>
</g>
<!-- TaskBag.platforms -->
<g id="node22" class="node">
<title>TaskBag.platforms</title>
<ellipse fill="none" stroke="black" cx="392.17" cy="-504" rx="78.79" ry="18"/>
<text text-anchor="middle" x="392.17" y="-500.3" font-family="Times,serif" font-size="14.00">TaskBag.platforms</text>
</g>
<!-- CheckingAppService&#45;&gt;TaskBag.platforms -->
<g id="edge12" class="edge">
<title>CheckingAppService&#45;&gt;TaskBag.platforms</title>
<path fill="none" stroke="black" d="M163.79,-545.57C187.23,-540.9 214.23,-535.61 238.78,-531 264.89,-526.1 293.57,-520.96 318.93,-516.49"/>
<polygon fill="black" stroke="black" points="319.59,-519.93 328.84,-514.75 318.38,-513.04 319.59,-519.93"/>
</g>
<!-- Order.recommendedPlatform -->
<g id="node23" class="node">
<title>Order.recommendedPlatform</title>
<ellipse fill="none" stroke="black" cx="392.17" cy="-450" rx="115.08" ry="18"/>
<text text-anchor="middle" x="392.17" y="-446.3" font-family="Times,serif" font-size="14.00">Order.recommendedPlatform</text>
</g>
<!-- CheckingAppService&#45;&gt;Order.recommendedPlatform -->
<g id="edge13" class="edge">
<title>CheckingAppService&#45;&gt;Order.recommendedPlatform</title>
<path fill="none" stroke="black" d="M125.69,-540.57C151.84,-521.9 196.18,-492.82 238.78,-477 254.78,-471.06 272.23,-466.4 289.41,-462.76"/>
<polygon fill="black" stroke="black" points="290.38,-466.13 299.49,-460.73 289,-459.27 290.38,-466.13"/>
</g>
<!-- TaskBag.totalPendingQty -->
<g id="node24" class="node">
<title>TaskBag.totalPendingQty</title>
<ellipse fill="none" stroke="black" cx="392.17" cy="-396" rx="102.08" ry="18"/>
<text text-anchor="middle" x="392.17" y="-392.3" font-family="Times,serif" font-size="14.00">TaskBag.totalPendingQty</text>
</g>
<!-- CheckingAppService&#45;&gt;TaskBag.totalPendingQty -->
<g id="edge14" class="edge">
<title>CheckingAppService&#45;&gt;TaskBag.totalPendingQty</title>
<path fill="none" stroke="black" d="M114.72,-540.11C136.18,-510.48 183.46,-451.65 238.78,-423 254.04,-415.1 271.18,-409.46 288.32,-405.45"/>
<polygon fill="black" stroke="black" points="289.36,-408.8 298.39,-403.27 287.88,-401.96 289.36,-408.8"/>
</g>
<!-- TaskBag.totalCheckedQty -->
<g id="node25" class="node">
<title>TaskBag.totalCheckedQty</title>
<ellipse fill="none" stroke="black" cx="392.17" cy="-342" rx="103.98" ry="18"/>
<text text-anchor="middle" x="392.17" y="-338.3" font-family="Times,serif" font-size="14.00">TaskBag.totalCheckedQty</text>
</g>
<!-- CheckingAppService&#45;&gt;TaskBag.totalCheckedQty -->
<g id="edge15" class="edge">
<title>CheckingAppService&#45;&gt;TaskBag.totalCheckedQty</title>
<path fill="none" stroke="black" d="M109.77,-539.85C126.44,-501.36 170.92,-411.59 238.78,-369 252.35,-360.48 267.87,-354.47 283.68,-350.25"/>
<polygon fill="black" stroke="black" points="284.67,-353.62 293.56,-347.86 283.01,-346.81 284.67,-353.62"/>
</g>
<!-- Task.plan -->
<g id="node26" class="node">
<title>Task.plan</title>
<ellipse fill="none" stroke="black" cx="392.17" cy="-288" rx="45.49" ry="18"/>
<text text-anchor="middle" x="392.17" y="-284.3" font-family="Times,serif" font-size="14.00">Task.plan</text>
</g>
<!-- CheckingAppService&#45;&gt;Task.plan -->
<g id="edge16" class="edge">
<title>CheckingAppService&#45;&gt;Task.plan</title>
<path fill="none" stroke="black" d="M106.84,-539.75C119.1,-493.7 157.91,-372.41 238.78,-315 266.93,-295.02 305.21,-288.29 336.35,-286.55"/>
<polygon fill="black" stroke="black" points="336.77,-290.04 346.62,-286.14 336.49,-283.04 336.77,-290.04"/>
</g>
<!-- Task.isEmpty -->
<g id="node27" class="node">
<title>Task.isEmpty</title>
<ellipse fill="none" stroke="black" cx="392.17" cy="-234" rx="59.59" ry="18"/>
<text text-anchor="middle" x="392.17" y="-230.3" font-family="Times,serif" font-size="14.00">Task.isEmpty</text>
</g>
<!-- CheckingAppService&#45;&gt;Task.isEmpty -->
<g id="edge17" class="edge">
<title>CheckingAppService&#45;&gt;Task.isEmpty</title>
<path fill="none" stroke="black" d="M104.89,-539.73C113.12,-487.04 144.49,-333.85 238.78,-261 262.26,-242.86 293.84,-235.34 322.17,-232.66"/>
<polygon fill="black" stroke="black" points="322.73,-236.13 332.43,-231.89 322.2,-229.15 322.73,-236.13"/>
</g>
<!-- Task.removeOrderLines -->
<g id="node28" class="node">
<title>Task.removeOrderLines</title>
<ellipse fill="none" stroke="black" cx="392.17" cy="-180" rx="96.68" ry="18"/>
<text text-anchor="middle" x="392.17" y="-176.3" font-family="Times,serif" font-size="14.00">Task.removeOrderLines</text>
</g>
<!-- CheckingAppService&#45;&gt;Task.removeOrderLines -->
<g id="edge18" class="edge">
<title>CheckingAppService&#45;&gt;Task.removeOrderLines</title>
<path fill="none" stroke="black" d="M103.47,-539.93C108,-481.42 130.68,-295.81 238.78,-207 252.23,-195.95 268.63,-188.76 285.63,-184.19"/>
<polygon fill="black" stroke="black" points="286.77,-187.52 295.69,-181.79 285.15,-180.71 286.77,-187.52"/>
</g>
<!-- OrderBag.canceledBag -->
<g id="node29" class="node">
<title>OrderBag.canceledBag</title>
<ellipse fill="none" stroke="black" cx="392.17" cy="-126" rx="92.88" ry="18"/>
<text text-anchor="middle" x="392.17" y="-122.3" font-family="Times,serif" font-size="14.00">OrderBag.canceledBag</text>
</g>
<!-- CheckingAppService&#45;&gt;OrderBag.canceledBag -->
<g id="edge19" class="edge">
<title>CheckingAppService&#45;&gt;OrderBag.canceledBag</title>
<path fill="none" stroke="black" d="M102.43,-539.98C103.6,-476 116.76,-258.02 238.78,-153 253.02,-140.74 270.85,-133.17 289.25,-128.63"/>
<polygon fill="black" stroke="black" points="290.18,-132.01 299.21,-126.47 288.7,-125.17 290.18,-132.01"/>
</g>
<!-- Order -->
<g id="node2" class="node">
<title>Order</title>
<ellipse fill="none" stroke="black" stroke-dasharray="5,2" cx="101.39" cy="-1206" rx="31.4" ry="18"/>
<text text-anchor="middle" x="101.39" y="-1202.3" font-family="Times,serif" font-size="14.00">Order</text>
</g>
<!-- OrderLineBag.totalExpectedQty -->
<g id="node30" class="node">
<title>OrderLineBag.totalExpectedQty</title>
<ellipse fill="none" stroke="black" cx="392.17" cy="-1206" rx="125.38" ry="18"/>
<text text-anchor="middle" x="392.17" y="-1202.3" font-family="Times,serif" font-size="14.00">OrderLineBag.totalExpectedQty</text>
</g>
<!-- Order&#45;&gt;OrderLineBag.totalExpectedQty -->
<g id="edge20" class="edge">
<title>Order&#45;&gt;OrderLineBag.totalExpectedQty</title>
<path fill="none" stroke="black" d="M132.75,-1206C162.56,-1206 210.19,-1206 256.48,-1206"/>
<polygon fill="black" stroke="black" points="256.64,-1209.5 266.64,-1206 256.64,-1202.5 256.64,-1209.5"/>
</g>
<!-- OrderCartons.totalCartonizedQty -->
<g id="node31" class="node">
<title>OrderCartons.totalCartonizedQty</title>
<ellipse fill="none" stroke="black" cx="392.17" cy="-1152" rx="128.08" ry="18"/>
<text text-anchor="middle" x="392.17" y="-1148.3" font-family="Times,serif" font-size="14.00">OrderCartons.totalCartonizedQty</text>
</g>
<!-- Order&#45;&gt;OrderCartons.totalCartonizedQty -->
<g id="edge21" class="edge">
<title>Order&#45;&gt;OrderCartons.totalCartonizedQty</title>
<path fill="none" stroke="black" d="M131.1,-1200.14C158.67,-1194.56 201.53,-1185.99 238.78,-1179 258.87,-1175.23 280.47,-1171.32 300.91,-1167.68"/>
<polygon fill="black" stroke="black" points="301.61,-1171.11 310.84,-1165.92 300.38,-1164.22 301.61,-1171.11"/>
</g>
<!-- OrderNotFullyCartonized -->
<g id="node3" class="node">
<title>OrderNotFullyCartonized</title>
<ellipse fill="none" stroke="black" stroke-dasharray="5,2" cx="101.39" cy="-1098" rx="101.28" ry="18"/>
<text text-anchor="middle" x="101.39" y="-1094.3" font-family="Times,serif" font-size="14.00">OrderNotFullyCartonized</text>
</g>
<!-- OrderNotFullyCartonized&#45;&gt;OrderCartons.totalCartonizedQty -->
<g id="edge22" class="edge">
<title>OrderNotFullyCartonized&#45;&gt;OrderCartons.totalCartonizedQty</title>
<path fill="none" stroke="black" d="M168.94,-1111.45C191.13,-1115.86 216.01,-1120.73 238.78,-1125 258.87,-1128.77 280.47,-1132.68 300.91,-1136.32"/>
<polygon fill="black" stroke="black" points="300.38,-1139.78 310.84,-1138.08 301.61,-1132.89 300.38,-1139.78"/>
</g>
<!-- Order.totalExpectedQty -->
<g id="node32" class="node">
<title>Order.totalExpectedQty</title>
<ellipse fill="none" stroke="black" cx="392.17" cy="-1098" rx="94.78" ry="18"/>
<text text-anchor="middle" x="392.17" y="-1094.3" font-family="Times,serif" font-size="14.00">Order.totalExpectedQty</text>
</g>
<!-- OrderNotFullyCartonized&#45;&gt;Order.totalExpectedQty -->
<g id="edge23" class="edge">
<title>OrderNotFullyCartonized&#45;&gt;Order.totalExpectedQty</title>
<path fill="none" stroke="black" d="M202.99,-1098C230.24,-1098 259.79,-1098 287.23,-1098"/>
<polygon fill="black" stroke="black" points="287.23,-1101.5 297.23,-1098 287.23,-1094.5 287.23,-1101.5"/>
</g>
<!-- OrderNotCartonizedYet -->
<g id="node4" class="node">
<title>OrderNotCartonizedYet</title>
<ellipse fill="none" stroke="black" stroke-dasharray="5,2" cx="101.39" cy="-1152" rx="94.78" ry="18"/>
<text text-anchor="middle" x="101.39" y="-1148.3" font-family="Times,serif" font-size="14.00">OrderNotCartonizedYet</text>
</g>
<!-- OrderNotCartonizedYet&#45;&gt;OrderCartons.totalCartonizedQty -->
<g id="edge24" class="edge">
<title>OrderNotCartonizedYet&#45;&gt;OrderCartons.totalCartonizedQty</title>
<path fill="none" stroke="black" d="M196.55,-1152C214.91,-1152 234.51,-1152 253.93,-1152"/>
<polygon fill="black" stroke="black" points="254.07,-1155.5 264.07,-1152 254.07,-1148.5 254.07,-1155.5"/>
</g>
<!-- ConsumableExtPolicy -->
<g id="node5" class="node">
<title>ConsumableExtPolicy</title>
<ellipse fill="none" stroke="black" stroke-dasharray="5,2" cx="101.39" cy="-1260" rx="89.88" ry="18"/>
<text text-anchor="middle" x="101.39" y="-1256.3" font-family="Times,serif" font-size="14.00">ConsumableExtPolicy</text>
</g>
<!-- OrderBag.consumableCostFirst -->
<g id="node33" class="node">
<title>OrderBag.consumableCostFirst</title>
<ellipse fill="none" stroke="black" cx="392.17" cy="-1260" rx="122.38" ry="18"/>
<text text-anchor="middle" x="392.17" y="-1256.3" font-family="Times,serif" font-size="14.00">OrderBag.consumableCostFirst</text>
</g>
<!-- ConsumableExtPolicy&#45;&gt;OrderBag.consumableCostFirst -->
<g id="edge25" class="edge">
<title>ConsumableExtPolicy&#45;&gt;OrderBag.consumableCostFirst</title>
<path fill="none" stroke="black" d="M191.39,-1260C212.97,-1260 236.5,-1260 259.59,-1260"/>
<polygon fill="black" stroke="black" points="259.8,-1263.5 269.8,-1260 259.8,-1256.5 259.8,-1263.5"/>
</g>
<!-- CartonBag -->
<g id="node6" class="node">
<title>CartonBag</title>
<ellipse fill="none" stroke="black" stroke-dasharray="5,2" cx="101.39" cy="-45" rx="48.99" ry="18"/>
<text text-anchor="middle" x="101.39" y="-41.3" font-family="Times,serif" font-size="14.00">CartonBag</text>
</g>
<!-- CartonBag&#45;&gt;Carton.fulfill -->
<g id="edge27" class="edge">
<title>CartonBag&#45;&gt;Carton.fulfill</title>
<path fill="none" stroke="black" d="M148.79,-49.34C197.24,-53.87 273.57,-61.01 327.61,-66.06"/>
<polygon fill="black" stroke="black" points="327.49,-69.56 337.77,-67.01 328.14,-62.59 327.49,-69.56"/>
</g>
<!-- Carton.deductConsumableInventory -->
<g id="node34" class="node">
<title>Carton.deductConsumableInventory</title>
<ellipse fill="none" stroke="black" cx="392.17" cy="-18" rx="139.18" ry="18"/>
<text text-anchor="middle" x="392.17" y="-14.3" font-family="Times,serif" font-size="14.00">Carton.deductConsumableInventory</text>
</g>
<!-- CartonBag&#45;&gt;Carton.deductConsumableInventory -->
<g id="edge26" class="edge">
<title>CartonBag&#45;&gt;Carton.deductConsumableInventory</title>
<path fill="none" stroke="black" d="M148.79,-40.66C181.26,-37.63 226.25,-33.42 268.67,-29.45"/>
<polygon fill="black" stroke="black" points="269.18,-32.92 278.81,-28.51 268.53,-25.95 269.18,-32.92"/>
</g>
<!-- TaskOfSkuPending -->
<g id="node7" class="node">
<title>TaskOfSkuPending</title>
<ellipse fill="none" stroke="black" stroke-dasharray="5,2" cx="101.39" cy="-1314" rx="79.09" ry="18"/>
<text text-anchor="middle" x="101.39" y="-1310.3" font-family="Times,serif" font-size="14.00">TaskOfSkuPending</text>
</g>
<!-- ContainerBag.confirmQty -->
<g id="node35" class="node">
<title>ContainerBag.confirmQty</title>
<ellipse fill="none" stroke="black" cx="392.17" cy="-1314" rx="102.88" ry="18"/>
<text text-anchor="middle" x="392.17" y="-1310.3" font-family="Times,serif" font-size="14.00">ContainerBag.confirmQty</text>
</g>
<!-- TaskOfSkuPending&#45;&gt;ContainerBag.confirmQty -->
<g id="edge28" class="edge">
<title>TaskOfSkuPending&#45;&gt;ContainerBag.confirmQty</title>
<path fill="none" stroke="black" d="M180.92,-1314C211.19,-1314 246.38,-1314 279.21,-1314"/>
<polygon fill="black" stroke="black" points="279.31,-1317.5 289.31,-1314 279.31,-1310.5 279.31,-1317.5"/>
</g>
<!-- UniqueCodeConstraint -->
<g id="node8" class="node">
<title>UniqueCodeConstraint</title>
<ellipse fill="none" stroke="black" stroke-dasharray="5,2" cx="101.39" cy="-1368" rx="91.78" ry="18"/>
<text text-anchor="middle" x="101.39" y="-1364.3" font-family="Times,serif" font-size="14.00">UniqueCodeConstraint</text>
</g>
<!-- TaskCartons.contains -->
<g id="node36" class="node">
<title>TaskCartons.contains</title>
<ellipse fill="none" stroke="black" cx="392.17" cy="-1368" rx="87.18" ry="18"/>
<text text-anchor="middle" x="392.17" y="-1364.3" font-family="Times,serif" font-size="14.00">TaskCartons.contains</text>
</g>
<!-- UniqueCodeConstraint&#45;&gt;TaskCartons.contains -->
<g id="edge29" class="edge">
<title>UniqueCodeConstraint&#45;&gt;TaskCartons.contains</title>
<path fill="none" stroke="black" d="M193.37,-1368C225.58,-1368 261.92,-1368 294.58,-1368"/>
<polygon fill="black" stroke="black" points="294.59,-1371.5 304.59,-1368 294.59,-1364.5 294.59,-1371.5"/>
</g>
<!-- Task -->
<g id="node9" class="node">
<title>Task</title>
<ellipse fill="none" stroke="black" stroke-dasharray="5,2" cx="101.39" cy="-1530" rx="27.9" ry="18"/>
<text text-anchor="middle" x="101.39" y="-1526.3" font-family="Times,serif" font-size="14.00">Task</text>
</g>
<!-- ContainerBag.orderNoSet -->
<g id="node37" class="node">
<title>ContainerBag.orderNoSet</title>
<ellipse fill="none" stroke="black" cx="392.17" cy="-1638" rx="102.88" ry="18"/>
<text text-anchor="middle" x="392.17" y="-1634.3" font-family="Times,serif" font-size="14.00">ContainerBag.orderNoSet</text>
</g>
<!-- Task&#45;&gt;ContainerBag.orderNoSet -->
<g id="edge30" class="edge">
<title>Task&#45;&gt;ContainerBag.orderNoSet</title>
<path fill="none" stroke="black" d="M120.29,-1543.53C145.38,-1561.8 193.09,-1594.03 238.78,-1611 256.58,-1617.61 276.17,-1622.63 295.2,-1626.43"/>
<polygon fill="black" stroke="black" points="294.61,-1629.88 305.09,-1628.31 295.92,-1623.01 294.61,-1629.88"/>
</g>
<!-- ContainerBag.totalPendingQty -->
<g id="node38" class="node">
<title>ContainerBag.totalPendingQty</title>
<ellipse fill="none" stroke="black" cx="392.17" cy="-1584" rx="119.68" ry="18"/>
<text text-anchor="middle" x="392.17" y="-1580.3" font-family="Times,serif" font-size="14.00">ContainerBag.totalPendingQty</text>
</g>
<!-- Task&#45;&gt;ContainerBag.totalPendingQty -->
<g id="edge31" class="edge">
<title>Task&#45;&gt;ContainerBag.totalPendingQty</title>
<path fill="none" stroke="black" d="M128.25,-1535.28C155.66,-1540.84 200.23,-1549.77 238.78,-1557 259.53,-1560.89 281.89,-1564.94 302.93,-1568.68"/>
<polygon fill="black" stroke="black" points="302.35,-1572.13 312.81,-1570.43 303.57,-1565.23 302.35,-1572.13"/>
</g>
<!-- ContainerBag.totalQty -->
<g id="node39" class="node">
<title>ContainerBag.totalQty</title>
<ellipse fill="none" stroke="black" cx="392.17" cy="-1530" rx="90.98" ry="18"/>
<text text-anchor="middle" x="392.17" y="-1526.3" font-family="Times,serif" font-size="14.00">ContainerBag.totalQty</text>
</g>
<!-- Task&#45;&gt;ContainerBag.totalQty -->
<g id="edge32" class="edge">
<title>Task&#45;&gt;ContainerBag.totalQty</title>
<path fill="none" stroke="black" d="M129.56,-1530C166.25,-1530 233.63,-1530 290.82,-1530"/>
<polygon fill="black" stroke="black" points="291,-1533.5 301,-1530 291,-1526.5 291,-1533.5"/>
</g>
<!-- ContainerBag.totalSku -->
<g id="node40" class="node">
<title>ContainerBag.totalSku</title>
<ellipse fill="none" stroke="black" cx="392.17" cy="-1476" rx="90.98" ry="18"/>
<text text-anchor="middle" x="392.17" y="-1472.3" font-family="Times,serif" font-size="14.00">ContainerBag.totalSku</text>
</g>
<!-- Task&#45;&gt;ContainerBag.totalSku -->
<g id="edge33" class="edge">
<title>Task&#45;&gt;ContainerBag.totalSku</title>
<path fill="none" stroke="black" d="M128.25,-1524.72C155.66,-1519.16 200.23,-1510.23 238.78,-1503 262.81,-1498.49 289.01,-1493.78 312.81,-1489.57"/>
<polygon fill="black" stroke="black" points="313.6,-1492.99 322.84,-1487.8 312.39,-1486.09 313.6,-1492.99"/>
</g>
<!-- TaskOfSkuPending.confirmQty -->
<g id="node41" class="node">
<title>TaskOfSkuPending.confirmQty</title>
<ellipse fill="none" stroke="black" cx="392.17" cy="-1422" rx="122.68" ry="18"/>
<text text-anchor="middle" x="392.17" y="-1418.3" font-family="Times,serif" font-size="14.00">TaskOfSkuPending.confirmQty</text>
</g>
<!-- Task&#45;&gt;TaskOfSkuPending.confirmQty -->
<g id="edge34" class="edge">
<title>Task&#45;&gt;TaskOfSkuPending.confirmQty</title>
<path fill="none" stroke="black" d="M120.29,-1516.47C145.38,-1498.2 193.09,-1465.97 238.78,-1449 253.8,-1443.42 270.09,-1438.98 286.24,-1435.44"/>
<polygon fill="black" stroke="black" points="287.19,-1438.82 296.27,-1433.36 285.77,-1431.97 287.19,-1438.82"/>
</g>
<!-- ContainerBag -->
<g id="node10" class="node">
<title>ContainerBag</title>
<ellipse fill="none" stroke="black" stroke-dasharray="5,2" cx="101.39" cy="-1692" rx="59.59" ry="18"/>
<text text-anchor="middle" x="101.39" y="-1688.3" font-family="Times,serif" font-size="14.00">ContainerBag</text>
</g>
<!-- ContainerItemBag.totalSku -->
<g id="node42" class="node">
<title>ContainerItemBag.totalSku</title>
<ellipse fill="none" stroke="black" cx="392.17" cy="-1692" rx="107.78" ry="18"/>
<text text-anchor="middle" x="392.17" y="-1688.3" font-family="Times,serif" font-size="14.00">ContainerItemBag.totalSku</text>
</g>
<!-- ContainerBag&#45;&gt;ContainerItemBag.totalSku -->
<g id="edge35" class="edge">
<title>ContainerBag&#45;&gt;ContainerItemBag.totalSku</title>
<path fill="none" stroke="black" d="M161.53,-1692C193.94,-1692 235.29,-1692 273.94,-1692"/>
<polygon fill="black" stroke="black" points="274.23,-1695.5 284.23,-1692 274.23,-1688.5 274.23,-1695.5"/>
</g>
</g>
</svg>
