<?xml version="1.0" encoding="UTF-8" standalone="no"?>
<!DOCTYPE svg PUBLIC "-//W3C//DTD SVG 1.1//EN"
 "http://www.w3.org/Graphics/SVG/1.1/DTD/svg11.dtd">
<!-- Generated by graphviz version 6.0.1 (20220911.1526)
 -->
<!-- Title: G Pages: 1 -->
<svg width="876pt" height="960pt"
 viewBox="0.00 0.00 876.00 960.00" xmlns="http://www.w3.org/2000/svg" xmlns:xlink="http://www.w3.org/1999/xlink">
<g id="graph0" class="graph" transform="scale(1 1) rotate(0) translate(4 956)">
<title>G</title>
<polygon fill="white" stroke="none" points="-4,4 -4,-956 872,-956 872,4 -4,4"/>
<!-- Carton -->
<g id="node1" class="node">
<title>Carton</title>
<polygon fill="none" stroke="black" points="401,-359 401,-520 574,-520 574,-359 401,-359"/>
<text text-anchor="middle" x="487.5" y="-504.8" font-family="Times,serif" font-size="14.00">Carton</text>
<polyline fill="none" stroke="black" points="401,-497 574,-497"/>
<text text-anchor="middle" x="487.5" y="-481.8" font-family="Times,serif" font-size="14.00">deductConsumableInventory</text>
<polyline fill="none" stroke="black" points="401,-474 574,-474"/>
<text text-anchor="middle" x="487.5" y="-458.8" font-family="Times,serif" font-size="14.00">cartonizationRule</text>
<polyline fill="none" stroke="black" points="401,-451 574,-451"/>
<text text-anchor="middle" x="487.5" y="-435.8" font-family="Times,serif" font-size="14.00">installConsumables</text>
<polyline fill="none" stroke="black" points="401,-428 574,-428"/>
<text text-anchor="middle" x="487.5" y="-412.8" font-family="Times,serif" font-size="14.00">transferFrom</text>
<polyline fill="none" stroke="black" points="401,-405 574,-405"/>
<text text-anchor="middle" x="487.5" y="-389.8" font-family="Times,serif" font-size="14.00">fulfill</text>
<polyline fill="none" stroke="black" points="401,-382 574,-382"/>
<text text-anchor="middle" x="487.5" y="-366.8" font-family="Times,serif" font-size="14.00">bindOrder</text>
</g>
<!-- CartonBag -->
<g id="node2" class="node">
<title>CartonBag</title>
<polygon fill="none" stroke="black" points="192,-683.5 192,-775.5 365,-775.5 365,-683.5 192,-683.5"/>
<text text-anchor="middle" x="278.5" y="-760.3" font-family="Times,serif" font-size="14.00">CartonBag</text>
<polyline fill="none" stroke="black" points="192,-752.5 365,-752.5"/>
<text text-anchor="middle" x="278.5" y="-737.3" font-family="Times,serif" font-size="14.00">deductConsumableInventory</text>
<polyline fill="none" stroke="black" points="192,-729.5 365,-729.5"/>
<text text-anchor="middle" x="278.5" y="-714.3" font-family="Times,serif" font-size="14.00">fulfill</text>
<polyline fill="none" stroke="black" points="192,-706.5 365,-706.5"/>
<text text-anchor="middle" x="278.5" y="-691.3" font-family="Times,serif" font-size="14.00">putOnPallet</text>
</g>
<!-- CartonBag&#45;&gt;Carton -->
<g id="edge1" class="edge">
<title>CartonBag&#45;&gt;Carton:deductConsumableInventory</title>
<path fill="none" stroke="black" stroke-dasharray="5,2" d="M344.3,-683.27C356.23,-674.76 365,-668.5 365,-668.5 365,-668.5 391.59,-533.35 399.06,-495.34"/>
<polygon fill="black" stroke="black" points="402.5,-495.99 401,-485.5 395.64,-494.64 402.5,-495.99"/>
</g>
<!-- CartonBag&#45;&gt;Carton -->
<g id="edge2" class="edge">
<title>CartonBag&#45;&gt;Carton:fulfill</title>
<path fill="none" stroke="black" stroke-dasharray="5,2" d="M344.3,-683.27C356.23,-674.76 365,-668.5 365,-668.5 365,-668.5 393.18,-453.23 399.68,-403.61"/>
<polygon fill="black" stroke="black" points="403.17,-403.87 401,-393.5 396.23,-402.96 403.17,-403.87"/>
</g>
<!-- ContainerBag -->
<g id="node3" class="node">
<title>ContainerBag</title>
<polygon fill="none" stroke="black" points="610,-783.5 610,-921.5 715,-921.5 715,-783.5 610,-783.5"/>
<text text-anchor="middle" x="662.5" y="-906.3" font-family="Times,serif" font-size="14.00">ContainerBag</text>
<polyline fill="none" stroke="black" points="610,-898.5 715,-898.5"/>
<text text-anchor="middle" x="662.5" y="-883.3" font-family="Times,serif" font-size="14.00">orderNoSet</text>
<polyline fill="none" stroke="black" points="610,-875.5 715,-875.5"/>
<text text-anchor="middle" x="662.5" y="-860.3" font-family="Times,serif" font-size="14.00">confirmQty</text>
<polyline fill="none" stroke="black" points="610,-852.5 715,-852.5"/>
<text text-anchor="middle" x="662.5" y="-837.3" font-family="Times,serif" font-size="14.00">totalQty</text>
<polyline fill="none" stroke="black" points="610,-829.5 715,-829.5"/>
<text text-anchor="middle" x="662.5" y="-814.3" font-family="Times,serif" font-size="14.00">totalPendingQty</text>
<polyline fill="none" stroke="black" points="610,-806.5 715,-806.5"/>
<text text-anchor="middle" x="662.5" y="-791.3" font-family="Times,serif" font-size="14.00">totalSku</text>
</g>
<!-- ContainerItemBag -->
<g id="node4" class="node">
<title>ContainerItemBag</title>
<polygon fill="none" stroke="black" points="751,-841.5 751,-887.5 868,-887.5 868,-841.5 751,-841.5"/>
<text text-anchor="middle" x="809.5" y="-872.3" font-family="Times,serif" font-size="14.00">ContainerItemBag</text>
<polyline fill="none" stroke="black" points="751,-864.5 868,-864.5"/>
<text text-anchor="middle" x="809.5" y="-849.3" font-family="Times,serif" font-size="14.00">totalSku</text>
</g>
<!-- ContainerBag&#45;&gt;ContainerItemBag -->
<g id="edge23" class="edge">
<title>ContainerBag&#45;&gt;ContainerItemBag:totalSku</title>
<path fill="none" stroke="black" stroke-dasharray="5,2" d="M715.16,-852.5C724.93,-852.5 734.15,-852.5 740.79,-852.5"/>
<polygon fill="black" stroke="black" points="741,-856 751,-852.5 741,-849 741,-856"/>
</g>
<!-- Order -->
<g id="node5" class="node">
<title>Order</title>
<polygon fill="none" stroke="black" points="207,-182 207,-297 350,-297 350,-182 207,-182"/>
<text text-anchor="middle" x="278.5" y="-281.8" font-family="Times,serif" font-size="14.00">Order</text>
<polyline fill="none" stroke="black" points="207,-274 350,-274"/>
<text text-anchor="middle" x="278.5" y="-258.8" font-family="Times,serif" font-size="14.00">recommendPackQty</text>
<polyline fill="none" stroke="black" points="207,-251 350,-251"/>
<text text-anchor="middle" x="278.5" y="-235.8" font-family="Times,serif" font-size="14.00">checkedBy</text>
<polyline fill="none" stroke="black" points="207,-228 350,-228"/>
<text text-anchor="middle" x="278.5" y="-212.8" font-family="Times,serif" font-size="14.00">totalExpectedQty</text>
<polyline fill="none" stroke="black" points="207,-205 350,-205"/>
<text text-anchor="middle" x="278.5" y="-189.8" font-family="Times,serif" font-size="14.00">recommendedPlatform</text>
</g>
<!-- OrderCartons -->
<g id="node7" class="node">
<title>OrderCartons</title>
<polygon fill="none" stroke="black" points="427.5,-54.5 427.5,-100.5 547.5,-100.5 547.5,-54.5 427.5,-54.5"/>
<text text-anchor="middle" x="487.5" y="-85.3" font-family="Times,serif" font-size="14.00">OrderCartons</text>
<polyline fill="none" stroke="black" points="427.5,-77.5 547.5,-77.5"/>
<text text-anchor="middle" x="487.5" y="-62.3" font-family="Times,serif" font-size="14.00">totalCartonizedQty</text>
</g>
<!-- Order&#45;&gt;OrderCartons -->
<g id="edge27" class="edge">
<title>Order&#45;&gt;OrderCartons:totalCartonizedQty</title>
<path fill="none" stroke="black" stroke-dasharray="5,2" d="M350.11,-184.17C358.97,-177.23 365,-172.5 365,-172.5 365,-172.5 406.78,-99.81 421.47,-74.26"/>
<polygon fill="black" stroke="black" points="424.55,-75.91 426.5,-65.5 418.48,-72.43 424.55,-75.91"/>
</g>
<!-- OrderLineBag -->
<g id="node8" class="node">
<title>OrderLineBag</title>
<polygon fill="none" stroke="black" points="432,-228.5 432,-274.5 543,-274.5 543,-228.5 432,-228.5"/>
<text text-anchor="middle" x="487.5" y="-259.3" font-family="Times,serif" font-size="14.00">OrderLineBag</text>
<polyline fill="none" stroke="black" points="432,-251.5 543,-251.5"/>
<text text-anchor="middle" x="487.5" y="-236.3" font-family="Times,serif" font-size="14.00">totalExpectedQty</text>
</g>
<!-- Order&#45;&gt;OrderLineBag -->
<g id="edge28" class="edge">
<title>Order&#45;&gt;OrderLineBag:totalExpectedQty</title>
<path fill="none" stroke="black" stroke-dasharray="5,2" d="M350.14,-239.5C377.46,-239.5 405.64,-239.5 420.28,-239.5"/>
<polygon fill="black" stroke="black" points="420.5,-243 430.5,-239.5 420.5,-236 420.5,-243"/>
</g>
<!-- OrderBag -->
<g id="node6" class="node">
<title>OrderBag</title>
<polygon fill="none" stroke="black" points="213,-94 213,-163 344,-163 344,-94 213,-94"/>
<text text-anchor="middle" x="278.5" y="-147.8" font-family="Times,serif" font-size="14.00">OrderBag</text>
<polyline fill="none" stroke="black" points="213,-140 344,-140"/>
<text text-anchor="middle" x="278.5" y="-124.8" font-family="Times,serif" font-size="14.00">canceledBag</text>
<polyline fill="none" stroke="black" points="213,-117 344,-117"/>
<text text-anchor="middle" x="278.5" y="-101.8" font-family="Times,serif" font-size="14.00">consumableCostFirst</text>
</g>
<!-- Task -->
<g id="node9" class="node">
<title>Task</title>
<polygon fill="none" stroke="black" points="219,-794.5 219,-886.5 338,-886.5 338,-794.5 219,-794.5"/>
<text text-anchor="middle" x="278.5" y="-871.3" font-family="Times,serif" font-size="14.00">Task</text>
<polyline fill="none" stroke="black" points="219,-863.5 338,-863.5"/>
<text text-anchor="middle" x="278.5" y="-848.3" font-family="Times,serif" font-size="14.00">isEmpty</text>
<polyline fill="none" stroke="black" points="219,-840.5 338,-840.5"/>
<text text-anchor="middle" x="278.5" y="-825.3" font-family="Times,serif" font-size="14.00">removeOrderLines</text>
<polyline fill="none" stroke="black" points="219,-817.5 338,-817.5"/>
<text text-anchor="middle" x="278.5" y="-802.3" font-family="Times,serif" font-size="14.00">plan</text>
</g>
<!-- Task&#45;&gt;ContainerBag -->
<g id="edge31" class="edge">
<title>Task&#45;&gt;ContainerBag:orderNoSet</title>
<path fill="none" stroke="black" stroke-dasharray="5,2" d="M338.42,-878.4C353.23,-887.93 365,-895.5 365,-895.5 365,-895.5 401,-924.5 401,-924.5 401,-924.5 574,-924.5 574,-924.5 574,-924.5 592.2,-905.8 602.71,-894.99"/>
<polygon fill="black" stroke="black" points="605.53,-897.11 610,-887.5 600.52,-892.23 605.53,-897.11"/>
</g>
<!-- Task&#45;&gt;ContainerBag -->
<g id="edge32" class="edge">
<title>Task&#45;&gt;ContainerBag:totalPendingQty</title>
<path fill="none" stroke="black" stroke-dasharray="5,2" d="M338.11,-833.75C369.18,-830.17 401,-826.5 401,-826.5 401,-826.5 558.17,-819.73 599.92,-817.93"/>
<polygon fill="black" stroke="black" points="600.16,-821.43 610,-817.5 599.86,-814.43 600.16,-821.43"/>
</g>
<!-- Task&#45;&gt;ContainerBag -->
<g id="edge33" class="edge">
<title>Task&#45;&gt;ContainerBag:totalQty</title>
<path fill="none" stroke="black" stroke-dasharray="5,2" d="M338.21,-840.5C419.64,-840.5 561.24,-840.5 599.97,-840.5"/>
<polygon fill="black" stroke="black" points="600,-844 610,-840.5 600,-837 600,-844"/>
</g>
<!-- Task&#45;&gt;ContainerBag -->
<g id="edge34" class="edge">
<title>Task&#45;&gt;ContainerBag:totalSku</title>
<path fill="none" stroke="black" stroke-dasharray="5,2" d="M338.11,-828.44C369.18,-822.05 401,-815.5 401,-815.5 401,-815.5 558.17,-799.71 599.92,-795.51"/>
<polygon fill="black" stroke="black" points="600.4,-798.98 610,-794.5 599.7,-792.02 600.4,-798.98"/>
</g>
<!-- TaskOfSkuPending -->
<g id="node13" class="node">
<title>TaskOfSkuPending</title>
<polygon fill="none" stroke="black" points="426.5,-869.5 426.5,-915.5 548.5,-915.5 548.5,-869.5 426.5,-869.5"/>
<text text-anchor="middle" x="487.5" y="-900.3" font-family="Times,serif" font-size="14.00">TaskOfSkuPending</text>
<polyline fill="none" stroke="black" points="426.5,-892.5 548.5,-892.5"/>
<text text-anchor="middle" x="487.5" y="-877.3" font-family="Times,serif" font-size="14.00">confirmQty</text>
</g>
<!-- Task&#45;&gt;TaskOfSkuPending -->
<g id="edge30" class="edge">
<title>Task&#45;&gt;TaskOfSkuPending:confirmQty</title>
<path fill="none" stroke="black" stroke-dasharray="5,2" d="M338.04,-856.54C367.4,-864.58 400,-873.51 415.82,-877.85"/>
<polygon fill="black" stroke="black" points="414.93,-881.23 425.5,-880.5 416.78,-874.48 414.93,-881.23"/>
</g>
<!-- TaskBag -->
<g id="node10" class="node">
<title>TaskBag</title>
<polygon fill="none" stroke="black" points="224.5,-533.5 224.5,-625.5 332.5,-625.5 332.5,-533.5 224.5,-533.5"/>
<text text-anchor="middle" x="278.5" y="-610.3" font-family="Times,serif" font-size="14.00">TaskBag</text>
<polyline fill="none" stroke="black" points="224.5,-602.5 332.5,-602.5"/>
<text text-anchor="middle" x="278.5" y="-587.3" font-family="Times,serif" font-size="14.00">totalCheckedQty</text>
<polyline fill="none" stroke="black" points="224.5,-579.5 332.5,-579.5"/>
<text text-anchor="middle" x="278.5" y="-564.3" font-family="Times,serif" font-size="14.00">totalPendingQty</text>
<polyline fill="none" stroke="black" points="224.5,-556.5 332.5,-556.5"/>
<text text-anchor="middle" x="278.5" y="-541.3" font-family="Times,serif" font-size="14.00">platforms</text>
</g>
<!-- TaskCartons -->
<g id="node11" class="node">
<title>TaskCartons</title>
<polygon fill="none" stroke="black" points="236,-905.5 236,-951.5 321,-951.5 321,-905.5 236,-905.5"/>
<text text-anchor="middle" x="278.5" y="-936.3" font-family="Times,serif" font-size="14.00">TaskCartons</text>
<polyline fill="none" stroke="black" points="236,-928.5 321,-928.5"/>
<text text-anchor="middle" x="278.5" y="-913.3" font-family="Times,serif" font-size="14.00">contains</text>
</g>
<!-- TaskOfOrderPending -->
<g id="node12" class="node">
<title>TaskOfOrderPending</title>
<polygon fill="none" stroke="black" points="212,-468.5 212,-514.5 345,-514.5 345,-468.5 212,-468.5"/>
<text text-anchor="middle" x="278.5" y="-499.3" font-family="Times,serif" font-size="14.00">TaskOfOrderPending</text>
<polyline fill="none" stroke="black" points="212,-491.5 345,-491.5"/>
<text text-anchor="middle" x="278.5" y="-476.3" font-family="Times,serif" font-size="14.00">confirmQty</text>
</g>
<!-- TaskOfSkuPending&#45;&gt;ContainerBag -->
<g id="edge29" class="edge">
<title>TaskOfSkuPending&#45;&gt;ContainerBag:confirmQty</title>
<path fill="none" stroke="black" stroke-dasharray="5,2" d="M548.54,-878.66C568.39,-874.09 588.34,-869.49 599.91,-866.82"/>
<polygon fill="black" stroke="black" points="601.04,-870.16 610,-864.5 599.47,-863.34 601.04,-870.16"/>
</g>
<!-- CheckingAppService -->
<g id="node14" class="node">
<title>CheckingAppService</title>
<polygon fill="none" stroke="black" points="12,-526.5 12,-562.5 144,-562.5 144,-526.5 12,-526.5"/>
<text text-anchor="middle" x="78" y="-540.8" font-family="Times,serif" font-size="14.00">CheckingAppService</text>
</g>
<!-- CheckingAppService&#45;&gt;Carton -->
<g id="edge8" class="edge">
<title>CheckingAppService&#45;&gt;Carton:cartonizationRule</title>
<path fill="none" stroke="black" stroke-dasharray="5,2" d="M101.87,-562.71C134.89,-589.01 192,-634.5 192,-634.5 192,-634.5 365,-634.5 365,-634.5 365,-634.5 391.23,-509.2 398.91,-472.49"/>
<polygon fill="black" stroke="black" points="402.38,-473 401,-462.5 395.53,-471.57 402.38,-473"/>
</g>
<!-- CheckingAppService&#45;&gt;Carton -->
<g id="edge9" class="edge">
<title>CheckingAppService&#45;&gt;Carton:bindOrder</title>
<path fill="none" stroke="black" stroke-dasharray="5,2" d="M89.63,-526.15C117.76,-477.61 192,-349.5 192,-349.5 192,-349.5 365,-349.5 365,-349.5 365,-349.5 381.63,-359.2 392.29,-365.42"/>
<polygon fill="black" stroke="black" points="390.6,-368.48 401,-370.5 394.13,-362.44 390.6,-368.48"/>
</g>
<!-- CheckingAppService&#45;&gt;Carton -->
<g id="edge10" class="edge">
<title>CheckingAppService&#45;&gt;Carton:transferFrom</title>
<path fill="none" stroke="black" stroke-dasharray="5,2" d="M96.16,-526.43C127.77,-493.14 192,-425.5 192,-425.5 192,-425.5 349.17,-418.73 390.92,-416.93"/>
<polygon fill="black" stroke="black" points="391.16,-420.43 401,-416.5 390.86,-413.43 391.16,-420.43"/>
</g>
<!-- CheckingAppService&#45;&gt;Carton -->
<g id="edge13" class="edge">
<title>CheckingAppService&#45;&gt;Carton:installConsumables</title>
<path fill="none" stroke="black" stroke-dasharray="5,2" d="M102.69,-526.47C135.82,-501.25 192,-458.5 192,-458.5 192,-458.5 349.17,-444.21 390.92,-440.42"/>
<polygon fill="black" stroke="black" points="391.36,-443.89 401,-439.5 390.72,-436.92 391.36,-443.89"/>
</g>
<!-- CheckingAppService&#45;&gt;Carton -->
<g id="edge14" class="edge">
<title>CheckingAppService&#45;&gt;Carton:fulfill</title>
<path fill="none" stroke="black" stroke-dasharray="5,2" d="M94.71,-526.42C125.76,-490.7 192,-414.5 192,-414.5 192,-414.5 349.17,-398.71 390.92,-394.51"/>
<polygon fill="black" stroke="black" points="391.4,-397.98 401,-393.5 390.7,-391.02 391.4,-397.98"/>
</g>
<!-- CheckingAppService&#45;&gt;CartonBag -->
<g id="edge4" class="edge">
<title>CheckingAppService&#45;&gt;CartonBag:fulfill</title>
<path fill="none" stroke="black" stroke-dasharray="5,2" d="M90.88,-562.69C115.02,-599.64 168.99,-682.28 186.44,-708.99"/>
<polygon fill="black" stroke="black" points="183.6,-711.04 192,-717.5 189.46,-707.21 183.6,-711.04"/>
</g>
<!-- CheckingAppService&#45;&gt;CartonBag -->
<g id="edge5" class="edge">
<title>CheckingAppService&#45;&gt;CartonBag:putOnPallet</title>
<path fill="none" stroke="black" stroke-dasharray="5,2" d="M92.63,-562.59C117.28,-595.32 168.36,-663.12 185.92,-686.42"/>
<polygon fill="black" stroke="black" points="183.19,-688.62 192,-694.5 188.78,-684.41 183.19,-688.62"/>
</g>
<!-- CheckingAppService&#45;&gt;CartonBag -->
<g id="edge7" class="edge">
<title>CheckingAppService&#45;&gt;CartonBag:deductConsumableInventory</title>
<path fill="none" stroke="black" stroke-dasharray="5,2" d="M89.43,-562.68C113.03,-603.83 169.83,-702.84 187,-732.78"/>
<polygon fill="black" stroke="black" points="183.99,-734.57 192,-741.5 190.06,-731.08 183.99,-734.57"/>
</g>
<!-- CheckingAppService&#45;&gt;Order -->
<g id="edge6" class="edge">
<title>CheckingAppService&#45;&gt;Order:checkedBy</title>
<path fill="none" stroke="black" stroke-dasharray="5,2" d="M86.53,-526.33C110.42,-468.75 183.9,-291.57 201.62,-248.84"/>
<polygon fill="black" stroke="black" points="204.9,-250.08 205.5,-239.5 198.44,-247.4 204.9,-250.08"/>
</g>
<!-- CheckingAppService&#45;&gt;Order -->
<g id="edge12" class="edge">
<title>CheckingAppService&#45;&gt;Order:recommendPackQty</title>
<path fill="none" stroke="black" stroke-dasharray="5,2" d="M87.11,-526.43C111.43,-472.21 183.21,-312.18 201.32,-271.82"/>
<polygon fill="black" stroke="black" points="204.6,-273.06 205.5,-262.5 198.21,-270.19 204.6,-273.06"/>
</g>
<!-- CheckingAppService&#45;&gt;Order -->
<g id="edge15" class="edge">
<title>CheckingAppService&#45;&gt;Order:recommendedPlatform</title>
<path fill="none" stroke="black" stroke-dasharray="5,2" d="M85.62,-526.12C108.65,-462.22 184.77,-251.02 202.01,-203.19"/>
<polygon fill="black" stroke="black" points="205.4,-204.09 205.5,-193.5 198.82,-201.72 205.4,-204.09"/>
</g>
<!-- CheckingAppService&#45;&gt;OrderBag -->
<g id="edge11" class="edge">
<title>CheckingAppService&#45;&gt;OrderBag:canceledBag</title>
<path fill="none" stroke="black" stroke-dasharray="5,2" d="M84.53,-526.31C107.21,-451.62 192,-172.5 192,-172.5 192,-172.5 201.64,-150.75 207.36,-137.83"/>
<polygon fill="black" stroke="black" points="210.65,-139.06 211.5,-128.5 204.25,-136.22 210.65,-139.06"/>
</g>
<!-- CheckingAppService&#45;&gt;Task -->
<g id="edge19" class="edge">
<title>CheckingAppService&#45;&gt;Task:removeOrderLines</title>
<path fill="none" stroke="black" stroke-dasharray="5,2" d="M87.49,-562.54C113.77,-618.35 192,-784.5 192,-784.5 192,-784.5 204.89,-806.74 212.34,-819.6"/>
<polygon fill="black" stroke="black" points="209.46,-821.6 217.5,-828.5 215.51,-818.09 209.46,-821.6"/>
</g>
<!-- CheckingAppService&#45;&gt;Task -->
<g id="edge20" class="edge">
<title>CheckingAppService&#45;&gt;Task:isEmpty</title>
<path fill="none" stroke="black" stroke-dasharray="5,2" d="M87.25,-562.84C113.45,-621.12 194.21,-800.71 213.39,-843.35"/>
<polygon fill="black" stroke="black" points="210.21,-844.82 217.5,-852.5 216.59,-841.94 210.21,-844.82"/>
</g>
<!-- CheckingAppService&#45;&gt;Task -->
<g id="edge21" class="edge">
<title>CheckingAppService&#45;&gt;Task:plan</title>
<path fill="none" stroke="black" stroke-dasharray="5,2" d="M87.49,-562.54C113.77,-618.35 192,-784.5 192,-784.5 192,-784.5 202.21,-792.91 209.71,-799.09"/>
<polygon fill="black" stroke="black" points="207.56,-801.84 217.5,-805.5 212.01,-796.44 207.56,-801.84"/>
</g>
<!-- CheckingAppService&#45;&gt;TaskBag -->
<g id="edge16" class="edge">
<title>CheckingAppService&#45;&gt;TaskBag:platforms</title>
<path fill="none" stroke="black" stroke-dasharray="5,2" d="M144.06,-544.5C170.73,-544.5 198.72,-544.5 213.3,-544.5"/>
<polygon fill="black" stroke="black" points="213.5,-548 223.5,-544.5 213.5,-541 213.5,-548"/>
</g>
<!-- CheckingAppService&#45;&gt;TaskBag -->
<g id="edge17" class="edge">
<title>CheckingAppService&#45;&gt;TaskBag:totalCheckedQty</title>
<path fill="none" stroke="black" stroke-dasharray="5,2" d="M134.45,-562.54C164.06,-572.17 197.65,-583.09 213.81,-588.35"/>
<polygon fill="black" stroke="black" points="212.91,-591.74 223.5,-591.5 215.07,-585.08 212.91,-591.74"/>
</g>
<!-- CheckingAppService&#45;&gt;TaskBag -->
<g id="edge18" class="edge">
<title>CheckingAppService&#45;&gt;TaskBag:totalPendingQty</title>
<path fill="none" stroke="black" stroke-dasharray="5,2" d="M144.06,-554.86C170.73,-559.1 198.72,-563.56 213.3,-565.88"/>
<polygon fill="black" stroke="black" points="213.07,-569.38 223.5,-567.5 214.17,-562.47 213.07,-569.38"/>
</g>
<!-- CheckingAppService&#45;&gt;TaskOfOrderPending -->
<g id="edge3" class="edge">
<title>CheckingAppService&#45;&gt;TaskOfOrderPending:confirmQty</title>
<path fill="none" stroke="black" stroke-dasharray="5,2" d="M115.63,-526.39C144.96,-511.89 183.99,-492.6 201.42,-483.99"/>
<polygon fill="black" stroke="black" points="203.09,-487.07 210.5,-479.5 199.98,-480.79 203.09,-487.07"/>
</g>
<!-- ConsumableExtPolicy -->
<g id="node15" class="node">
<title>ConsumableExtPolicy</title>
<polygon fill="none" stroke="black" points="9,-87.5 9,-123.5 147,-123.5 147,-87.5 9,-87.5"/>
<text text-anchor="middle" x="78" y="-101.8" font-family="Times,serif" font-size="14.00">ConsumableExtPolicy</text>
</g>
<!-- ConsumableExtPolicy&#45;&gt;OrderBag -->
<g id="edge22" class="edge">
<title>ConsumableExtPolicy&#45;&gt;OrderBag:consumableCostFirst</title>
<path fill="none" stroke="black" stroke-dasharray="5,2" d="M147.19,-105.5C168.5,-105.5 189.53,-105.5 201.48,-105.5"/>
<polygon fill="black" stroke="black" points="201.5,-109 211.5,-105.5 201.5,-102 201.5,-109"/>
</g>
<!-- OrderNotCartonizedYet -->
<g id="node16" class="node">
<title>OrderNotCartonizedYet</title>
<polygon fill="none" stroke="black" points="205.5,-0.5 205.5,-36.5 351.5,-36.5 351.5,-0.5 205.5,-0.5"/>
<text text-anchor="middle" x="278.5" y="-14.8" font-family="Times,serif" font-size="14.00">OrderNotCartonizedYet</text>
</g>
<!-- OrderNotCartonizedYet&#45;&gt;OrderCartons -->
<g id="edge24" class="edge">
<title>OrderNotCartonizedYet&#45;&gt;OrderCartons:totalCartonizedQty</title>
<path fill="none" stroke="black" stroke-dasharray="5,2" d="M335.91,-36.54C366.2,-46.22 400.57,-57.21 416.9,-62.43"/>
<polygon fill="black" stroke="black" points="415.91,-65.79 426.5,-65.5 418.04,-59.12 415.91,-65.79"/>
</g>
<!-- OrderNotFullyCartonized -->
<g id="node17" class="node">
<title>OrderNotFullyCartonized</title>
<polygon fill="none" stroke="black" points="0,-170.5 0,-206.5 156,-206.5 156,-170.5 0,-170.5"/>
<text text-anchor="middle" x="78" y="-184.8" font-family="Times,serif" font-size="14.00">OrderNotFullyCartonized</text>
</g>
<!-- OrderNotFullyCartonized&#45;&gt;Order -->
<g id="edge25" class="edge">
<title>OrderNotFullyCartonized&#45;&gt;Order:totalExpectedQty</title>
<path fill="none" stroke="black" stroke-dasharray="5,2" d="M156.23,-205.59C171.87,-209.06 186.31,-212.25 195.45,-214.28"/>
<polygon fill="black" stroke="black" points="194.98,-217.76 205.5,-216.5 196.49,-210.92 194.98,-217.76"/>
</g>
<!-- OrderNotFullyCartonized&#45;&gt;OrderCartons -->
<g id="edge26" class="edge">
<title>OrderNotFullyCartonized&#45;&gt;OrderCartons:totalCartonizedQty</title>
<path fill="none" stroke="black" stroke-dasharray="5,2" d="M103.79,-170.47C126.3,-154.1 156,-132.5 156,-132.5 156,-132.5 192,-84.5 192,-84.5 192,-84.5 371.54,-69.95 416.42,-66.32"/>
<polygon fill="black" stroke="black" points="416.82,-69.8 426.5,-65.5 416.25,-62.82 416.82,-69.8"/>
</g>
<!-- UniqueCodeConstraint -->
<g id="node18" class="node">
<title>UniqueCodeConstraint</title>
<polygon fill="none" stroke="black" points="7.5,-898.5 7.5,-934.5 148.5,-934.5 148.5,-898.5 7.5,-898.5"/>
<text text-anchor="middle" x="78" y="-912.8" font-family="Times,serif" font-size="14.00">UniqueCodeConstraint</text>
</g>
<!-- UniqueCodeConstraint&#45;&gt;TaskCartons -->
<g id="edge35" class="edge">
<title>UniqueCodeConstraint&#45;&gt;TaskCartons:contains</title>
<path fill="none" stroke="black" stroke-dasharray="5,2" d="M148.56,-916.5C178,-916.5 209.02,-916.5 224.49,-916.5"/>
<polygon fill="black" stroke="black" points="224.5,-920 234.5,-916.5 224.5,-913 224.5,-920"/>
</g>
</g>
</svg>
