<?xml version="1.0" encoding="UTF-8" standalone="no"?>
<!DOCTYPE svg PUBLIC "-//W3C//DTD SVG 1.1//EN"
 "http://www.w3.org/Graphics/SVG/1.1/DTD/svg11.dtd">
<!-- Generated by graphviz version 6.0.1 (20220911.1526)
 -->
<!-- Title: G Pages: 1 -->
<svg width="1177pt" height="1099pt"
 viewBox="0.00 0.00 1177.00 1098.50" xmlns="http://www.w3.org/2000/svg" xmlns:xlink="http://www.w3.org/1999/xlink">
<g id="graph0" class="graph" transform="scale(1 1) rotate(0) translate(4 1094.5)">
<title>G</title>
<polygon fill="white" stroke="none" points="-4,4 -4,-1094.5 1173,-1094.5 1173,4 -4,4"/>
<!-- Carton -->
<g id="node1" class="node">
<title>Carton</title>
<polygon fill="none" stroke="black" points="386,-405.5 386,-566.5 559,-566.5 559,-405.5 386,-405.5"/>
<text text-anchor="middle" x="472.5" y="-551.3" font-family="Times,serif" font-size="14.00">Carton</text>
<polyline fill="none" stroke="black" points="386,-543.5 559,-543.5"/>
<text text-anchor="middle" x="472.5" y="-528.3" font-family="Times,serif" font-size="14.00">deductConsumableInventory</text>
<polyline fill="none" stroke="black" points="386,-520.5 559,-520.5"/>
<text text-anchor="middle" x="472.5" y="-505.3" font-family="Times,serif" font-size="14.00">cartonizationRule</text>
<polyline fill="none" stroke="black" points="386,-497.5 559,-497.5"/>
<text text-anchor="middle" x="472.5" y="-482.3" font-family="Times,serif" font-size="14.00">installConsumables</text>
<polyline fill="none" stroke="black" points="386,-474.5 559,-474.5"/>
<text text-anchor="middle" x="472.5" y="-459.3" font-family="Times,serif" font-size="14.00">transferFrom</text>
<polyline fill="none" stroke="black" points="386,-451.5 559,-451.5"/>
<text text-anchor="middle" x="472.5" y="-436.3" font-family="Times,serif" font-size="14.00">fulfill</text>
<polyline fill="none" stroke="black" points="386,-428.5 559,-428.5"/>
<text text-anchor="middle" x="472.5" y="-413.3" font-family="Times,serif" font-size="14.00">bindOrder</text>
</g>
<!-- CartonBag -->
<g id="node2" class="node">
<title>CartonBag</title>
<polygon fill="none" stroke="black" points="177,-553 177,-645 350,-645 350,-553 177,-553"/>
<text text-anchor="middle" x="263.5" y="-629.8" font-family="Times,serif" font-size="14.00">CartonBag</text>
<polyline fill="none" stroke="black" points="177,-622 350,-622"/>
<text text-anchor="middle" x="263.5" y="-606.8" font-family="Times,serif" font-size="14.00">deductConsumableInventory</text>
<polyline fill="none" stroke="black" points="177,-599 350,-599"/>
<text text-anchor="middle" x="263.5" y="-583.8" font-family="Times,serif" font-size="14.00">fulfill</text>
<polyline fill="none" stroke="black" points="177,-576 350,-576"/>
<text text-anchor="middle" x="263.5" y="-560.8" font-family="Times,serif" font-size="14.00">putOnPallet</text>
</g>
<!-- CartonBag&#45;&gt;Carton -->
<g id="edge1" class="edge">
<title>CartonBag:deductConsumableInventory&#45;&gt;Carton:deductConsumableInventory</title>
<path fill="none" stroke="black" stroke-dasharray="5,2" d="M350,-611C350,-611 372.19,-562.3 381.73,-541.37"/>
<polygon fill="black" stroke="black" points="385.04,-542.55 386,-532 378.67,-539.65 385.04,-542.55"/>
</g>
<!-- CartonBag&#45;&gt;Carton -->
<g id="edge2" class="edge">
<title>CartonBag:fulfill&#45;&gt;Carton:fulfill</title>
<path fill="none" stroke="black" stroke-dasharray="5,2" d="M350,-587C350,-587 375.39,-483.32 383.53,-450.1"/>
<polygon fill="black" stroke="black" points="387.02,-450.55 386,-440 380.22,-448.88 387.02,-450.55"/>
</g>
<!-- Consumable -->
<g id="node3" class="node">
<title>Consumable</title>
<polygon fill="none" stroke="black" points="221,-979 221,-1025 306,-1025 306,-979 221,-979"/>
<text text-anchor="middle" x="263.5" y="-1009.8" font-family="Times,serif" font-size="14.00">Consumable</text>
<polyline fill="none" stroke="black" points="221,-1002 306,-1002"/>
<text text-anchor="middle" x="263.5" y="-986.8" font-family="Times,serif" font-size="14.00">isInventory</text>
</g>
<!-- Container -->
<g id="node4" class="node">
<title>Container</title>
<polygon fill="none" stroke="black" points="895,-632.5 895,-701.5 1029,-701.5 1029,-632.5 895,-632.5"/>
<text text-anchor="middle" x="962" y="-686.3" font-family="Times,serif" font-size="14.00">Container</text>
<polyline fill="none" stroke="black" points="895,-678.5 1029,-678.5"/>
<text text-anchor="middle" x="962" y="-663.3" font-family="Times,serif" font-size="14.00">skuNoSet</text>
<polyline fill="none" stroke="black" points="895,-655.5 1029,-655.5"/>
<text text-anchor="middle" x="962" y="-640.3" font-family="Times,serif" font-size="14.00">getContainerItemBag</text>
</g>
<!-- ContainerItem -->
<g id="node6" class="node">
<title>ContainerItem</title>
<polygon fill="none" stroke="black" points="1065,-698.5 1065,-813.5 1169,-813.5 1169,-698.5 1065,-698.5"/>
<text text-anchor="middle" x="1117" y="-798.3" font-family="Times,serif" font-size="14.00">ContainerItem</text>
<polyline fill="none" stroke="black" points="1065,-790.5 1169,-790.5"/>
<text text-anchor="middle" x="1117" y="-775.3" font-family="Times,serif" font-size="14.00">getExpectedQty</text>
<polyline fill="none" stroke="black" points="1065,-767.5 1169,-767.5"/>
<text text-anchor="middle" x="1117" y="-752.3" font-family="Times,serif" font-size="14.00">getPendingQty</text>
<polyline fill="none" stroke="black" points="1065,-744.5 1169,-744.5"/>
<text text-anchor="middle" x="1117" y="-729.3" font-family="Times,serif" font-size="14.00">diffQty</text>
<polyline fill="none" stroke="black" points="1065,-721.5 1169,-721.5"/>
<text text-anchor="middle" x="1117" y="-706.3" font-family="Times,serif" font-size="14.00">getSku</text>
</g>
<!-- Container&#45;&gt;ContainerItem -->
<g id="edge31" class="edge">
<title>Container:skuNoSet&#45;&gt;ContainerItem:getSku</title>
<path fill="none" stroke="black" stroke-dasharray="5,2" d="M1029,-667C1029,-667 1048,-689.7 1058.4,-702.11"/>
<polygon fill="black" stroke="black" points="1055.9,-704.58 1065,-710 1061.26,-700.09 1055.9,-704.58"/>
</g>
<!-- Sku -->
<g id="node14" class="node">
<title>Sku</title>
<polygon fill="none" stroke="black" points="1090,-633 1090,-679 1144,-679 1144,-633 1090,-633"/>
<text text-anchor="middle" x="1117" y="-663.8" font-family="Times,serif" font-size="14.00">Sku</text>
<polyline fill="none" stroke="black" points="1090,-656 1144,-656"/>
<text text-anchor="middle" x="1117" y="-640.8" font-family="Times,serif" font-size="14.00">value</text>
</g>
<!-- Container&#45;&gt;Sku -->
<g id="edge30" class="edge">
<title>Container:skuNoSet&#45;&gt;Sku:value</title>
<path fill="none" stroke="black" stroke-dasharray="5,2" d="M1029,-667C1029,-667 1062.75,-654.06 1079.62,-647.59"/>
<polygon fill="black" stroke="black" points="1080.92,-650.85 1089,-644 1078.41,-644.31 1080.92,-650.85"/>
</g>
<!-- ContainerBag -->
<g id="node5" class="node">
<title>ContainerBag</title>
<polygon fill="none" stroke="black" points="753.5,-721 753.5,-859 858.5,-859 858.5,-721 753.5,-721"/>
<text text-anchor="middle" x="806" y="-843.8" font-family="Times,serif" font-size="14.00">ContainerBag</text>
<polyline fill="none" stroke="black" points="753.5,-836 858.5,-836"/>
<text text-anchor="middle" x="806" y="-820.8" font-family="Times,serif" font-size="14.00">orderNoSet</text>
<polyline fill="none" stroke="black" points="753.5,-813 858.5,-813"/>
<text text-anchor="middle" x="806" y="-797.8" font-family="Times,serif" font-size="14.00">confirmQty</text>
<polyline fill="none" stroke="black" points="753.5,-790 858.5,-790"/>
<text text-anchor="middle" x="806" y="-774.8" font-family="Times,serif" font-size="14.00">totalQty</text>
<polyline fill="none" stroke="black" points="753.5,-767 858.5,-767"/>
<text text-anchor="middle" x="806" y="-751.8" font-family="Times,serif" font-size="14.00">totalPendingQty</text>
<polyline fill="none" stroke="black" points="753.5,-744 858.5,-744"/>
<text text-anchor="middle" x="806" y="-728.8" font-family="Times,serif" font-size="14.00">totalSku</text>
</g>
<!-- ContainerBag&#45;&gt;Container -->
<g id="edge25" class="edge">
<title>ContainerBag:totalPendingQty&#45;&gt;Container:getContainerItemBag</title>
<path fill="none" stroke="black" stroke-dasharray="5,2" d="M859,-755C859,-755 882.99,-681.02 891.81,-653.85"/>
<polygon fill="black" stroke="black" points="895.24,-654.59 895,-644 888.59,-652.43 895.24,-654.59"/>
</g>
<!-- ContainerItemBag -->
<g id="node7" class="node">
<title>ContainerItemBag</title>
<polygon fill="none" stroke="black" points="903.5,-721 903.5,-813 1020.5,-813 1020.5,-721 903.5,-721"/>
<text text-anchor="middle" x="962" y="-797.8" font-family="Times,serif" font-size="14.00">ContainerItemBag</text>
<polyline fill="none" stroke="black" points="903.5,-790 1020.5,-790"/>
<text text-anchor="middle" x="962" y="-774.8" font-family="Times,serif" font-size="14.00">totalQty</text>
<polyline fill="none" stroke="black" points="903.5,-767 1020.5,-767"/>
<text text-anchor="middle" x="962" y="-751.8" font-family="Times,serif" font-size="14.00">totalPendingQty</text>
<polyline fill="none" stroke="black" points="903.5,-744 1020.5,-744"/>
<text text-anchor="middle" x="962" y="-728.8" font-family="Times,serif" font-size="14.00">totalSku</text>
</g>
<!-- ContainerBag&#45;&gt;ContainerItemBag -->
<g id="edge24" class="edge">
<title>ContainerBag:totalPendingQty&#45;&gt;ContainerItemBag:totalPendingQty</title>
<path fill="none" stroke="black" stroke-dasharray="5,2" d="M859,-755C859,-755 878.86,-755 891.59,-755"/>
<polygon fill="black" stroke="black" points="892,-758.5 902,-755 892,-751.5 892,-758.5"/>
</g>
<!-- ContainerBag&#45;&gt;ContainerItemBag -->
<g id="edge26" class="edge">
<title>ContainerBag:totalQty&#45;&gt;ContainerItemBag:totalQty</title>
<path fill="none" stroke="black" stroke-dasharray="5,2" d="M859,-778C859,-778 878.86,-778.46 891.59,-778.76"/>
<polygon fill="black" stroke="black" points="891.92,-782.27 902,-779 892.08,-775.27 891.92,-782.27"/>
</g>
<!-- ContainerBag&#45;&gt;ContainerItemBag -->
<g id="edge27" class="edge">
<title>ContainerBag:totalSku&#45;&gt;ContainerItemBag:totalSku</title>
<path fill="none" stroke="black" stroke-dasharray="5,2" d="M859,-732C859,-732 878.86,-732 891.59,-732"/>
<polygon fill="black" stroke="black" points="892,-735.5 902,-732 892,-728.5 892,-735.5"/>
</g>
<!-- ContainerItemBag&#45;&gt;ContainerItem -->
<g id="edge28" class="edge">
<title>ContainerItemBag:totalPendingQty&#45;&gt;ContainerItem:getPendingQty</title>
<path fill="none" stroke="black" stroke-dasharray="5,2" d="M1022,-755C1022,-755 1041.86,-755.46 1054.59,-755.76"/>
<polygon fill="black" stroke="black" points="1054.92,-759.27 1065,-756 1055.08,-752.27 1054.92,-759.27"/>
</g>
<!-- ContainerItemBag&#45;&gt;ContainerItem -->
<g id="edge29" class="edge">
<title>ContainerItemBag:totalQty&#45;&gt;ContainerItem:getExpectedQty</title>
<path fill="none" stroke="black" stroke-dasharray="5,2" d="M1022,-779C1022,-779 1041.86,-779 1054.59,-779"/>
<polygon fill="black" stroke="black" points="1055,-782.5 1065,-779 1055,-775.5 1055,-782.5"/>
</g>
<!-- Order -->
<g id="node8" class="node">
<title>Order</title>
<polygon fill="none" stroke="black" points="401,-88.5 401,-249.5 544,-249.5 544,-88.5 401,-88.5"/>
<text text-anchor="middle" x="472.5" y="-234.3" font-family="Times,serif" font-size="14.00">Order</text>
<polyline fill="none" stroke="black" points="401,-226.5 544,-226.5"/>
<text text-anchor="middle" x="472.5" y="-211.3" font-family="Times,serif" font-size="14.00">getOrderNo</text>
<polyline fill="none" stroke="black" points="401,-203.5 544,-203.5"/>
<text text-anchor="middle" x="472.5" y="-188.3" font-family="Times,serif" font-size="14.00">recommendPackQty</text>
<polyline fill="none" stroke="black" points="401,-180.5 544,-180.5"/>
<text text-anchor="middle" x="472.5" y="-165.3" font-family="Times,serif" font-size="14.00">checkedBy</text>
<polyline fill="none" stroke="black" points="401,-157.5 544,-157.5"/>
<text text-anchor="middle" x="472.5" y="-142.3" font-family="Times,serif" font-size="14.00">ship</text>
<polyline fill="none" stroke="black" points="401,-134.5 544,-134.5"/>
<text text-anchor="middle" x="472.5" y="-119.3" font-family="Times,serif" font-size="14.00">totalExpectedQty</text>
<polyline fill="none" stroke="black" points="401,-111.5 544,-111.5"/>
<text text-anchor="middle" x="472.5" y="-96.3" font-family="Times,serif" font-size="14.00">recommendedPlatform</text>
</g>
<!-- OrderCartons -->
<g id="node10" class="node">
<title>OrderCartons</title>
<polygon fill="none" stroke="black" points="596,-276 596,-322 716,-322 716,-276 596,-276"/>
<text text-anchor="middle" x="656" y="-306.8" font-family="Times,serif" font-size="14.00">OrderCartons</text>
<polyline fill="none" stroke="black" points="596,-299 716,-299"/>
<text text-anchor="middle" x="656" y="-283.8" font-family="Times,serif" font-size="14.00">totalCartonizedQty</text>
</g>
<!-- Order&#45;&gt;OrderCartons -->
<g id="edge38" class="edge">
<title>Order:recommendPackQty&#45;&gt;OrderCartons:totalCartonizedQty</title>
<path fill="none" stroke="black" stroke-dasharray="5,2" d="M545.5,-192C545.5,-192 577.86,-254.11 590.25,-277.89"/>
<polygon fill="black" stroke="black" points="587.28,-279.75 595,-287 593.48,-276.51 587.28,-279.75"/>
</g>
<!-- OrderLineBag -->
<g id="node12" class="node">
<title>OrderLineBag</title>
<polygon fill="none" stroke="black" points="600.5,-111.5 600.5,-180.5 711.5,-180.5 711.5,-111.5 600.5,-111.5"/>
<text text-anchor="middle" x="656" y="-165.3" font-family="Times,serif" font-size="14.00">OrderLineBag</text>
<polyline fill="none" stroke="black" points="600.5,-157.5 711.5,-157.5"/>
<text text-anchor="middle" x="656" y="-142.3" font-family="Times,serif" font-size="14.00">orderLineNos</text>
<polyline fill="none" stroke="black" points="600.5,-134.5 711.5,-134.5"/>
<text text-anchor="middle" x="656" y="-119.3" font-family="Times,serif" font-size="14.00">totalExpectedQty</text>
</g>
<!-- Order&#45;&gt;OrderLineBag -->
<g id="edge39" class="edge">
<title>Order:totalExpectedQty&#45;&gt;OrderLineBag:totalExpectedQty</title>
<path fill="none" stroke="black" stroke-dasharray="5,2" d="M545.5,-123C545.5,-123 573.14,-123 588.68,-123"/>
<polygon fill="black" stroke="black" points="589,-126.5 599,-123 589,-119.5 589,-126.5"/>
</g>
<!-- OrderBag -->
<g id="node9" class="node">
<title>OrderBag</title>
<polygon fill="none" stroke="black" points="198,-120 198,-212 329,-212 329,-120 198,-120"/>
<text text-anchor="middle" x="263.5" y="-196.8" font-family="Times,serif" font-size="14.00">OrderBag</text>
<polyline fill="none" stroke="black" points="198,-189 329,-189"/>
<text text-anchor="middle" x="263.5" y="-173.8" font-family="Times,serif" font-size="14.00">canceledBag</text>
<polyline fill="none" stroke="black" points="198,-166 329,-166"/>
<text text-anchor="middle" x="263.5" y="-150.8" font-family="Times,serif" font-size="14.00">consumableCostFirst</text>
<polyline fill="none" stroke="black" points="198,-143 329,-143"/>
<text text-anchor="middle" x="263.5" y="-127.8" font-family="Times,serif" font-size="14.00">orderNos</text>
</g>
<!-- OrderBag&#45;&gt;Order -->
<g id="edge32" class="edge">
<title>OrderBag:orderNos&#45;&gt;Order:getOrderNo</title>
<path fill="none" stroke="black" stroke-dasharray="5,2" d="M330.5,-131C330.5,-131 376.05,-186.45 393.13,-207.25"/>
<polygon fill="black" stroke="black" points="390.45,-209.49 399.5,-215 395.86,-205.05 390.45,-209.49"/>
</g>
<!-- OrderLine -->
<g id="node11" class="node">
<title>OrderLine</title>
<polygon fill="none" stroke="black" points="753,-111.5 753,-180.5 859,-180.5 859,-111.5 753,-111.5"/>
<text text-anchor="middle" x="806" y="-165.3" font-family="Times,serif" font-size="14.00">OrderLine</text>
<polyline fill="none" stroke="black" points="753,-157.5 859,-157.5"/>
<text text-anchor="middle" x="806" y="-142.3" font-family="Times,serif" font-size="14.00">getOrderLineNo</text>
<polyline fill="none" stroke="black" points="753,-134.5 859,-134.5"/>
<text text-anchor="middle" x="806" y="-119.3" font-family="Times,serif" font-size="14.00">expectedQty</text>
</g>
<!-- OrderLineBag&#45;&gt;OrderLine -->
<g id="edge33" class="edge">
<title>OrderLineBag:orderLineNos&#45;&gt;OrderLine:getOrderLineNo</title>
<path fill="none" stroke="black" stroke-dasharray="5,2" d="M713,-146C713,-146 731.06,-146 742.91,-146"/>
<polygon fill="black" stroke="black" points="743,-149.5 753,-146 743,-142.5 743,-149.5"/>
</g>
<!-- OrderLineBag&#45;&gt;OrderLine -->
<g id="edge34" class="edge">
<title>OrderLineBag:totalExpectedQty&#45;&gt;OrderLine:expectedQty</title>
<path fill="none" stroke="black" stroke-dasharray="5,2" d="M713,-123C713,-123 731.06,-123 742.91,-123"/>
<polygon fill="black" stroke="black" points="743,-126.5 753,-123 743,-119.5 743,-126.5"/>
</g>
<!-- ShipManifest -->
<g id="node13" class="node">
<title>ShipManifest</title>
<polygon fill="none" stroke="black" points="427.5,-0.5 427.5,-69.5 517.5,-69.5 517.5,-0.5 427.5,-0.5"/>
<text text-anchor="middle" x="472.5" y="-54.3" font-family="Times,serif" font-size="14.00">ShipManifest</text>
<polyline fill="none" stroke="black" points="427.5,-46.5 517.5,-46.5"/>
<text text-anchor="middle" x="472.5" y="-31.3" font-family="Times,serif" font-size="14.00">ship</text>
<polyline fill="none" stroke="black" points="427.5,-23.5 517.5,-23.5"/>
<text text-anchor="middle" x="472.5" y="-8.3" font-family="Times,serif" font-size="14.00">loadForOrder</text>
</g>
<!-- Task -->
<g id="node15" class="node">
<title>Task</title>
<polygon fill="none" stroke="black" points="413,-773.5 413,-1026.5 532,-1026.5 532,-773.5 413,-773.5"/>
<text text-anchor="middle" x="472.5" y="-1011.3" font-family="Times,serif" font-size="14.00">Task</text>
<polyline fill="none" stroke="black" points="413,-1003.5 532,-1003.5"/>
<text text-anchor="middle" x="472.5" y="-988.3" font-family="Times,serif" font-size="14.00">claimedWith</text>
<polyline fill="none" stroke="black" points="413,-980.5 532,-980.5"/>
<text text-anchor="middle" x="472.5" y="-965.3" font-family="Times,serif" font-size="14.00">orderNoSet</text>
<polyline fill="none" stroke="black" points="413,-957.5 532,-957.5"/>
<text text-anchor="middle" x="472.5" y="-942.3" font-family="Times,serif" font-size="14.00">containerBag</text>
<polyline fill="none" stroke="black" points="413,-934.5 532,-934.5"/>
<text text-anchor="middle" x="472.5" y="-919.3" font-family="Times,serif" font-size="14.00">confirmQty</text>
<polyline fill="none" stroke="black" points="413,-911.5 532,-911.5"/>
<text text-anchor="middle" x="472.5" y="-896.3" font-family="Times,serif" font-size="14.00">totalQty</text>
<polyline fill="none" stroke="black" points="413,-888.5 532,-888.5"/>
<text text-anchor="middle" x="472.5" y="-873.3" font-family="Times,serif" font-size="14.00">isEmpty</text>
<polyline fill="none" stroke="black" points="413,-865.5 532,-865.5"/>
<text text-anchor="middle" x="472.5" y="-850.3" font-family="Times,serif" font-size="14.00">totalPendingQty</text>
<polyline fill="none" stroke="black" points="413,-842.5 532,-842.5"/>
<text text-anchor="middle" x="472.5" y="-827.3" font-family="Times,serif" font-size="14.00">plan</text>
<polyline fill="none" stroke="black" points="413,-819.5 532,-819.5"/>
<text text-anchor="middle" x="472.5" y="-804.3" font-family="Times,serif" font-size="14.00">removeOrderLines</text>
<polyline fill="none" stroke="black" points="413,-796.5 532,-796.5"/>
<text text-anchor="middle" x="472.5" y="-781.3" font-family="Times,serif" font-size="14.00">totalSku</text>
</g>
<!-- Task&#45;&gt;ContainerBag -->
<g id="edge48" class="edge">
<title>Task:orderNoSet&#45;&gt;ContainerBag:orderNoSet</title>
<path fill="none" stroke="black" stroke-dasharray="5,2" d="M533.5,-969C533.5,-969 717,-939 717,-939 717,-939 741.22,-862.29 749.93,-834.72"/>
<polygon fill="black" stroke="black" points="753.33,-835.59 753,-825 746.65,-833.48 753.33,-835.59"/>
</g>
<!-- Task&#45;&gt;ContainerBag -->
<g id="edge49" class="edge">
<title>Task:totalPendingQty&#45;&gt;ContainerBag:totalPendingQty</title>
<path fill="none" stroke="black" stroke-dasharray="5,2" d="M533.5,-854C533.5,-854 702.31,-777.86 743.85,-759.13"/>
<polygon fill="black" stroke="black" points="745.32,-762.3 753,-755 742.45,-755.92 745.32,-762.3"/>
</g>
<!-- Task&#45;&gt;ContainerBag -->
<g id="edge50" class="edge">
<title>Task:totalQty&#45;&gt;ContainerBag:totalQty</title>
<path fill="none" stroke="black" stroke-dasharray="5,2" d="M533.5,-900C533.5,-900 703.06,-805.76 744.12,-782.93"/>
<polygon fill="black" stroke="black" points="745.96,-785.92 753,-778 742.56,-779.8 745.96,-785.92"/>
</g>
<!-- Task&#45;&gt;ContainerBag -->
<g id="edge51" class="edge">
<title>Task:totalSku&#45;&gt;ContainerBag:totalSku</title>
<path fill="none" stroke="black" stroke-dasharray="5,2" d="M533.5,-785C533.5,-785 595,-768 595,-768 595,-768 708.53,-742.13 743.12,-734.25"/>
<polygon fill="black" stroke="black" points="744.03,-737.63 753,-732 742.47,-730.81 744.03,-737.63"/>
</g>
<!-- TaskOfSkuPending -->
<g id="node19" class="node">
<title>TaskOfSkuPending</title>
<polygon fill="none" stroke="black" points="595,-884 595,-930 717,-930 717,-884 595,-884"/>
<text text-anchor="middle" x="656" y="-914.8" font-family="Times,serif" font-size="14.00">TaskOfSkuPending</text>
<polyline fill="none" stroke="black" points="595,-907 717,-907"/>
<text text-anchor="middle" x="656" y="-891.8" font-family="Times,serif" font-size="14.00">confirmQty</text>
</g>
<!-- Task&#45;&gt;TaskOfSkuPending -->
<g id="edge47" class="edge">
<title>Task:confirmQty&#45;&gt;TaskOfSkuPending:confirmQty</title>
<path fill="none" stroke="black" stroke-dasharray="5,2" d="M533.5,-923C533.5,-923 568.46,-907.09 585.66,-899.25"/>
<polygon fill="black" stroke="black" points="587.35,-902.33 595,-895 584.45,-895.96 587.35,-902.33"/>
</g>
<!-- TaskBag -->
<g id="node16" class="node">
<title>TaskBag</title>
<polygon fill="none" stroke="black" points="209.5,-664.5 209.5,-779.5 317.5,-779.5 317.5,-664.5 209.5,-664.5"/>
<text text-anchor="middle" x="263.5" y="-764.3" font-family="Times,serif" font-size="14.00">TaskBag</text>
<polyline fill="none" stroke="black" points="209.5,-756.5 317.5,-756.5"/>
<text text-anchor="middle" x="263.5" y="-741.3" font-family="Times,serif" font-size="14.00">totalQty</text>
<polyline fill="none" stroke="black" points="209.5,-733.5 317.5,-733.5"/>
<text text-anchor="middle" x="263.5" y="-718.3" font-family="Times,serif" font-size="14.00">totalCheckedQty</text>
<polyline fill="none" stroke="black" points="209.5,-710.5 317.5,-710.5"/>
<text text-anchor="middle" x="263.5" y="-695.3" font-family="Times,serif" font-size="14.00">totalPendingQty</text>
<polyline fill="none" stroke="black" points="209.5,-687.5 317.5,-687.5"/>
<text text-anchor="middle" x="263.5" y="-672.3" font-family="Times,serif" font-size="14.00">platforms</text>
</g>
<!-- TaskBag&#45;&gt;ContainerBag -->
<g id="edge43" class="edge">
<title>TaskBag:totalPendingQty&#45;&gt;ContainerBag:totalPendingQty</title>
<path fill="none" stroke="black" stroke-dasharray="5,2" d="M318.5,-699C318.5,-699 676.89,-745.19 742.69,-753.67"/>
<polygon fill="black" stroke="black" points="742.63,-757.19 753,-755 743.53,-750.25 742.63,-757.19"/>
</g>
<!-- TaskBag&#45;&gt;ContainerBag -->
<g id="edge45" class="edge">
<title>TaskBag:totalQty&#45;&gt;ContainerBag:totalQty</title>
<path fill="none" stroke="black" stroke-dasharray="5,2" d="M318.5,-745C318.5,-745 676.89,-772.22 742.69,-777.22"/>
<polygon fill="black" stroke="black" points="742.76,-780.73 753,-778 743.29,-773.75 742.76,-780.73"/>
</g>
<!-- TaskBag&#45;&gt;Task -->
<g id="edge44" class="edge">
<title>TaskBag:totalPendingQty&#45;&gt;Task:containerBag</title>
<path fill="none" stroke="black" stroke-dasharray="5,2" d="M318.5,-699C318.5,-699 390.98,-891.5 407.97,-936.62"/>
<polygon fill="black" stroke="black" points="404.7,-937.87 411.5,-946 411.25,-935.41 404.7,-937.87"/>
</g>
<!-- TaskCartons -->
<g id="node17" class="node">
<title>TaskCartons</title>
<polygon fill="none" stroke="black" points="221,-1044 221,-1090 306,-1090 306,-1044 221,-1044"/>
<text text-anchor="middle" x="263.5" y="-1074.8" font-family="Times,serif" font-size="14.00">TaskCartons</text>
<polyline fill="none" stroke="black" points="221,-1067 306,-1067"/>
<text text-anchor="middle" x="263.5" y="-1051.8" font-family="Times,serif" font-size="14.00">contains</text>
</g>
<!-- TaskOfOrderPending -->
<g id="node18" class="node">
<title>TaskOfOrderPending</title>
<polygon fill="none" stroke="black" points="197,-837 197,-883 330,-883 330,-837 197,-837"/>
<text text-anchor="middle" x="263.5" y="-867.8" font-family="Times,serif" font-size="14.00">TaskOfOrderPending</text>
<polyline fill="none" stroke="black" points="197,-860 330,-860"/>
<text text-anchor="middle" x="263.5" y="-844.8" font-family="Times,serif" font-size="14.00">confirmQty</text>
</g>
<!-- TaskOfSkuPending&#45;&gt;ContainerBag -->
<g id="edge46" class="edge">
<title>TaskOfSkuPending:confirmQty&#45;&gt;ContainerBag:confirmQty</title>
<path fill="none" stroke="black" stroke-dasharray="5,2" d="M717,-895C717,-895 740.09,-835.36 749.28,-811.6"/>
<polygon fill="black" stroke="black" points="752.65,-812.59 753,-802 746.13,-810.06 752.65,-812.59"/>
</g>
<!-- CheckingAppService -->
<g id="node20" class="node">
<title>CheckingAppService</title>
<polygon fill="none" stroke="black" points="4.5,-546 4.5,-582 136.5,-582 136.5,-546 4.5,-546"/>
<text text-anchor="middle" x="70.5" y="-560.3" font-family="Times,serif" font-size="14.00">CheckingAppService</text>
</g>
<!-- CheckingAppService&#45;&gt;Carton -->
<g id="edge8" class="edge">
<title>CheckingAppService&#45;&gt;Carton:cartonizationRule</title>
<path fill="none" stroke="black" stroke-dasharray="5,2" d="M136.51,-551.06C158.22,-546.74 177,-543 177,-543 177,-543 334.17,-517.43 375.92,-510.64"/>
<polygon fill="black" stroke="black" points="376.69,-514.06 386,-509 375.57,-507.15 376.69,-514.06"/>
</g>
<!-- CheckingAppService&#45;&gt;Carton -->
<g id="edge9" class="edge">
<title>CheckingAppService&#45;&gt;Carton:bindOrder</title>
<path fill="none" stroke="black" stroke-dasharray="5,2" d="M82.99,-545.7C110.33,-502.16 177,-396 177,-396 177,-396 350,-396 350,-396 350,-396 366.63,-405.7 377.29,-411.92"/>
<polygon fill="black" stroke="black" points="375.6,-414.98 386,-417 379.13,-408.94 375.6,-414.98"/>
</g>
<!-- CheckingAppService&#45;&gt;Carton -->
<g id="edge10" class="edge">
<title>CheckingAppService&#45;&gt;Carton:transferFrom</title>
<path fill="none" stroke="black" stroke-dasharray="5,2" d="M92.34,-545.82C123.09,-519.01 177,-472 177,-472 177,-472 334.17,-465.23 375.92,-463.43"/>
<polygon fill="black" stroke="black" points="376.16,-466.93 386,-463 375.86,-459.93 376.16,-466.93"/>
</g>
<!-- CheckingAppService&#45;&gt;Carton -->
<g id="edge13" class="edge">
<title>CheckingAppService&#45;&gt;Carton:installConsumables</title>
<path fill="none" stroke="black" stroke-dasharray="5,2" d="M108.1,-545.96C138.57,-530.94 177,-512 177,-512 177,-512 334.17,-492.45 375.92,-487.25"/>
<polygon fill="black" stroke="black" points="376.51,-490.71 386,-486 375.64,-483.76 376.51,-490.71"/>
</g>
<!-- CheckingAppService&#45;&gt;Carton -->
<g id="edge14" class="edge">
<title>CheckingAppService&#45;&gt;Carton:fulfill</title>
<path fill="none" stroke="black" stroke-dasharray="5,2" d="M90.36,-545.59C120.71,-515.96 177,-461 177,-461 177,-461 334.17,-445.21 375.92,-441.01"/>
<polygon fill="black" stroke="black" points="376.4,-444.48 386,-440 375.7,-437.52 376.4,-444.48"/>
</g>
<!-- CheckingAppService&#45;&gt;CartonBag -->
<g id="edge4" class="edge">
<title>CheckingAppService&#45;&gt;CartonBag:fulfill</title>
<path fill="none" stroke="black" stroke-dasharray="5,2" d="M136.51,-578.17C148.56,-580.8 159.7,-583.23 167.23,-584.87"/>
<polygon fill="black" stroke="black" points="166.48,-588.29 177,-587 167.98,-581.45 166.48,-588.29"/>
</g>
<!-- CheckingAppService&#45;&gt;CartonBag -->
<g id="edge5" class="edge">
<title>CheckingAppService&#45;&gt;CartonBag:putOnPallet</title>
<path fill="none" stroke="black" stroke-dasharray="5,2" d="M136.51,-564C148.39,-564 159.38,-564 166.91,-564"/>
<polygon fill="black" stroke="black" points="167,-567.5 177,-564 167,-560.5 167,-567.5"/>
</g>
<!-- CheckingAppService&#45;&gt;CartonBag -->
<g id="edge7" class="edge">
<title>CheckingAppService&#45;&gt;CartonBag:deductConsumableInventory</title>
<path fill="none" stroke="black" stroke-dasharray="5,2" d="M111.99,-582.04C132.21,-591.05 154.98,-601.19 167.49,-606.76"/>
<polygon fill="black" stroke="black" points="166.44,-610.13 177,-611 169.29,-603.73 166.44,-610.13"/>
</g>
<!-- CheckingAppService&#45;&gt;Order -->
<g id="edge6" class="edge">
<title>CheckingAppService&#45;&gt;Order:checkedBy</title>
<path fill="none" stroke="black" stroke-dasharray="5,2" d="M79.43,-545.66C103.96,-488.92 177,-320 177,-320 177,-320 350,-276 350,-276 350,-276 383.31,-204 395.28,-178.12"/>
<polygon fill="black" stroke="black" points="398.48,-179.55 399.5,-169 392.12,-176.61 398.48,-179.55"/>
</g>
<!-- CheckingAppService&#45;&gt;Order -->
<g id="edge12" class="edge">
<title>CheckingAppService&#45;&gt;Order:recommendPackQty</title>
<path fill="none" stroke="black" stroke-dasharray="5,2" d="M82.59,-545.92C109.68,-501.76 177,-392 177,-392 177,-392 350,-312 350,-312 350,-312 383.95,-229.71 395.62,-201.42"/>
<polygon fill="black" stroke="black" points="398.92,-202.58 399.5,-192 392.45,-199.91 398.92,-202.58"/>
</g>
<!-- CheckingAppService&#45;&gt;Order -->
<g id="edge15" class="edge">
<title>CheckingAppService&#45;&gt;Order:recommendedPlatform</title>
<path fill="none" stroke="black" stroke-dasharray="5,2" d="M75.7,-545.92C95.32,-461.48 177,-110 177,-110 177,-110 345.83,-102.41 389.36,-100.46"/>
<polygon fill="black" stroke="black" points="389.67,-103.95 399.5,-100 389.35,-96.95 389.67,-103.95"/>
</g>
<!-- CheckingAppService&#45;&gt;OrderBag -->
<g id="edge11" class="edge">
<title>CheckingAppService&#45;&gt;OrderBag:canceledBag</title>
<path fill="none" stroke="black" stroke-dasharray="5,2" d="M77.17,-545.56C99.09,-474.31 177,-221 177,-221 177,-221 186.64,-199.74 192.36,-187.12"/>
<polygon fill="black" stroke="black" points="195.56,-188.55 196.5,-178 189.18,-185.66 195.56,-188.55"/>
</g>
<!-- CheckingAppService&#45;&gt;Task -->
<g id="edge19" class="edge">
<title>CheckingAppService&#45;&gt;Task:removeOrderLines</title>
<path fill="none" stroke="black" stroke-dasharray="5,2" d="M79.96,-582.03C104.99,-635.42 177,-789 177,-789 177,-789 356.54,-803.55 401.42,-807.18"/>
<polygon fill="black" stroke="black" points="401.25,-810.68 411.5,-808 401.82,-803.7 401.25,-810.68"/>
</g>
<!-- CheckingAppService&#45;&gt;Task -->
<g id="edge20" class="edge">
<title>CheckingAppService&#45;&gt;Task:isEmpty</title>
<path fill="none" stroke="black" stroke-dasharray="5,2" d="M76.88,-582.45C98.38,-656.22 177,-926 177,-926 177,-926 350,-926 350,-926 350,-926 386.79,-896.69 403.46,-883.41"/>
<polygon fill="black" stroke="black" points="405.86,-885.97 411.5,-877 401.5,-880.49 405.86,-885.97"/>
</g>
<!-- CheckingAppService&#45;&gt;Task -->
<g id="edge21" class="edge">
<title>CheckingAppService&#45;&gt;Task:plan</title>
<path fill="none" stroke="black" stroke-dasharray="5,2" d="M77.32,-582.1C99.44,-650.86 177,-892 177,-892 177,-892 350,-892 350,-892 350,-892 387.54,-854.77 403.96,-838.48"/>
<polygon fill="black" stroke="black" points="406.86,-840.53 411.5,-831 401.94,-835.56 406.86,-840.53"/>
</g>
<!-- CheckingAppService&#45;&gt;TaskBag -->
<g id="edge16" class="edge">
<title>CheckingAppService&#45;&gt;TaskBag:platforms</title>
<path fill="none" stroke="black" stroke-dasharray="5,2" d="M92.85,-582.21C123.68,-608.51 177,-654 177,-654 177,-654 190.89,-663.7 200.22,-670.22"/>
<polygon fill="black" stroke="black" points="198.3,-673.14 208.5,-676 202.31,-667.4 198.3,-673.14"/>
</g>
<!-- CheckingAppService&#45;&gt;TaskBag -->
<g id="edge17" class="edge">
<title>CheckingAppService&#45;&gt;TaskBag:totalCheckedQty</title>
<path fill="none" stroke="black" stroke-dasharray="5,2" d="M87.22,-582.12C117.16,-616.66 181.24,-690.56 201.92,-714.41"/>
<polygon fill="black" stroke="black" points="199.3,-716.74 208.5,-722 204.59,-712.15 199.3,-716.74"/>
</g>
<!-- CheckingAppService&#45;&gt;TaskBag -->
<g id="edge18" class="edge">
<title>CheckingAppService&#45;&gt;TaskBag:totalPendingQty</title>
<path fill="none" stroke="black" stroke-dasharray="5,2" d="M89.98,-582.21C120.65,-612.43 180.76,-671.66 201.37,-691.97"/>
<polygon fill="black" stroke="black" points="198.92,-694.47 208.5,-699 203.83,-689.49 198.92,-694.47"/>
</g>
<!-- CheckingAppService&#45;&gt;TaskOfOrderPending -->
<g id="edge3" class="edge">
<title>CheckingAppService&#45;&gt;TaskOfOrderPending:confirmQty</title>
<path fill="none" stroke="black" stroke-dasharray="5,2" d="M78.92,-582.14C102.93,-640.87 177,-822 177,-822 177,-822 184.23,-832.16 189.65,-839.77"/>
<polygon fill="black" stroke="black" points="186.85,-841.88 195.5,-848 192.55,-837.82 186.85,-841.88"/>
</g>
<!-- ConsumableBag -->
<g id="node21" class="node">
<title>ConsumableBag</title>
<polygon fill="none" stroke="black" points="17,-972 17,-1008 124,-1008 124,-972 17,-972"/>
<text text-anchor="middle" x="70.5" y="-986.3" font-family="Times,serif" font-size="14.00">ConsumableBag</text>
</g>
<!-- ConsumableBag&#45;&gt;Consumable -->
<g id="edge22" class="edge">
<title>ConsumableBag:inventoryControlBag&#45;&gt;Consumable:isInventory</title>
<path fill="none" stroke="black" stroke-dasharray="5,2" d="M124.29,-990C155.47,-990 191.9,-990 209.27,-990"/>
<polygon fill="black" stroke="black" points="209.5,-993.5 219.5,-990 209.5,-986.5 209.5,-993.5"/>
</g>
<!-- ConsumableExtPolicy -->
<g id="node22" class="node">
<title>ConsumableExtPolicy</title>
<polygon fill="none" stroke="black" points="1.5,-136 1.5,-172 139.5,-172 139.5,-136 1.5,-136"/>
<text text-anchor="middle" x="70.5" y="-150.3" font-family="Times,serif" font-size="14.00">ConsumableExtPolicy</text>
</g>
<!-- ConsumableExtPolicy&#45;&gt;OrderBag -->
<g id="edge23" class="edge">
<title>ConsumableExtPolicy&#45;&gt;OrderBag:consumableCostFirst</title>
<path fill="none" stroke="black" stroke-dasharray="5,2" d="M139.85,-154C158.09,-154 175.66,-154 186.27,-154"/>
<polygon fill="black" stroke="black" points="186.5,-157.5 196.5,-154 186.5,-150.5 186.5,-157.5"/>
</g>
<!-- OrderNotCartonizedYet -->
<g id="node23" class="node">
<title>OrderNotCartonizedYet</title>
<polygon fill="none" stroke="black" points="399.5,-269 399.5,-305 545.5,-305 545.5,-269 399.5,-269"/>
<text text-anchor="middle" x="472.5" y="-283.3" font-family="Times,serif" font-size="14.00">OrderNotCartonizedYet</text>
</g>
<!-- OrderNotCartonizedYet&#45;&gt;OrderCartons -->
<g id="edge35" class="edge">
<title>OrderNotCartonizedYet&#45;&gt;OrderCartons:totalCartonizedQty</title>
<path fill="none" stroke="black" stroke-dasharray="5,2" d="M545.58,-287C561.12,-287 575.62,-287 584.85,-287"/>
<polygon fill="black" stroke="black" points="585,-290.5 595,-287 585,-283.5 585,-290.5"/>
</g>
<!-- OrderNotFullyCartonized -->
<g id="node24" class="node">
<title>OrderNotFullyCartonized</title>
<polygon fill="none" stroke="black" points="185.5,-231 185.5,-267 341.5,-267 341.5,-231 185.5,-231"/>
<text text-anchor="middle" x="263.5" y="-245.3" font-family="Times,serif" font-size="14.00">OrderNotFullyCartonized</text>
</g>
<!-- OrderNotFullyCartonized&#45;&gt;Order -->
<g id="edge36" class="edge">
<title>OrderNotFullyCartonized&#45;&gt;Order:totalExpectedQty</title>
<path fill="none" stroke="black" stroke-dasharray="5,2" d="M319.62,-230.95C336.16,-225.53 350,-221 350,-221 350,-221 382.68,-156.3 394.93,-132.04"/>
<polygon fill="black" stroke="black" points="398.12,-133.5 399.5,-123 391.87,-130.35 398.12,-133.5"/>
</g>
<!-- OrderNotFullyCartonized&#45;&gt;OrderCartons -->
<g id="edge37" class="edge">
<title>OrderNotFullyCartonized&#45;&gt;OrderCartons:totalCartonizedQty</title>
<path fill="none" stroke="black" stroke-dasharray="5,2" d="M298.34,-267.11C334.3,-286.34 386,-314 386,-314 386,-314 559,-314 559,-314 559,-314 576.02,-301.24 586.65,-293.26"/>
<polygon fill="black" stroke="black" points="589.1,-295.8 595,-287 584.9,-290.2 589.1,-295.8"/>
</g>
<!-- ShippingAppService -->
<g id="node25" class="node">
<title>ShippingAppService</title>
<polygon fill="none" stroke="black" points="199,-17 199,-53 328,-53 328,-17 199,-17"/>
<text text-anchor="middle" x="263.5" y="-31.3" font-family="Times,serif" font-size="14.00">ShippingAppService</text>
</g>
<!-- ShippingAppService&#45;&gt;Order -->
<g id="edge42" class="edge">
<title>ShippingAppService&#45;&gt;Order:ship</title>
<path fill="none" stroke="black" stroke-dasharray="5,2" d="M301.26,-53.06C324.43,-64.44 350,-77 350,-77 350,-77 380.52,-119.54 393.63,-137.81"/>
<polygon fill="black" stroke="black" points="390.83,-139.91 399.5,-146 396.51,-135.83 390.83,-139.91"/>
</g>
<!-- ShippingAppService&#45;&gt;ShipManifest -->
<g id="edge40" class="edge">
<title>ShippingAppService&#45;&gt;ShipManifest:loadForOrder</title>
<path fill="none" stroke="black" stroke-dasharray="5,2" d="M328.06,-25.98C361.39,-21.24 398.86,-15.92 416.41,-13.43"/>
<polygon fill="black" stroke="black" points="417.09,-16.87 426.5,-12 416.11,-9.94 417.09,-16.87"/>
</g>
<!-- ShippingAppService&#45;&gt;ShipManifest -->
<g id="edge41" class="edge">
<title>ShippingAppService&#45;&gt;ShipManifest:ship</title>
<path fill="none" stroke="black" stroke-dasharray="5,2" d="M328.06,-35C361.39,-35 398.86,-35 416.41,-35"/>
<polygon fill="black" stroke="black" points="416.5,-38.5 426.5,-35 416.5,-31.5 416.5,-38.5"/>
</g>
<!-- UniqueCodeConstraint -->
<g id="node26" class="node">
<title>UniqueCodeConstraint</title>
<polygon fill="none" stroke="black" points="0,-1037 0,-1073 141,-1073 141,-1037 0,-1037"/>
<text text-anchor="middle" x="70.5" y="-1051.3" font-family="Times,serif" font-size="14.00">UniqueCodeConstraint</text>
</g>
<!-- UniqueCodeConstraint&#45;&gt;TaskCartons -->
<g id="edge52" class="edge">
<title>UniqueCodeConstraint&#45;&gt;TaskCartons:contains</title>
<path fill="none" stroke="black" stroke-dasharray="5,2" d="M141.17,-1055C167.56,-1055 194.69,-1055 209.06,-1055"/>
<polygon fill="black" stroke="black" points="209.5,-1058.5 219.5,-1055 209.5,-1051.5 209.5,-1058.5"/>
</g>
</g>
</svg>
