<?xml version="1.0" encoding="UTF-8" standalone="no"?>
<!DOCTYPE svg PUBLIC "-//W3C//DTD SVG 1.1//EN"
 "http://www.w3.org/Graphics/SVG/1.1/DTD/svg11.dtd">
<!-- Generated by graphviz version 2.38.0 (20140413.2041)
 -->
<!-- Title: G Pages: 1 -->
<svg width="895pt" height="966pt"
 viewBox="0.00 0.00 895.30 966.00" xmlns="http://www.w3.org/2000/svg" xmlns:xlink="http://www.w3.org/1999/xlink">
<g id="graph0" class="graph" transform="scale(1 1) rotate(0) translate(4 962)">
<title>G</title>
<polygon fill="white" stroke="none" points="-4,4 -4,-962 891.298,-962 891.298,4 -4,4"/>
<text text-anchor="middle" x="443.649" y="-942.8" font-family="Times,serif" font-size="14.00">Call Graph</text>
<!-- Order -->
<g id="node1" class="node"><title>Order</title>
<polygon fill="none" stroke="black" points="213.359,-668.5 213.359,-778.5 357.649,-778.5 357.649,-668.5 213.359,-668.5"/>
<text text-anchor="middle" x="285.504" y="-763.3" font-family="Times,serif" font-size="14.00">Order</text>
<polyline fill="none" stroke="black" points="213.359,-756.5 357.649,-756.5 "/>
<text text-anchor="middle" x="285.504" y="-741.3" font-family="Times,serif" font-size="14.00">recommendPackQty</text>
<polyline fill="none" stroke="black" points="213.359,-734.5 357.649,-734.5 "/>
<text text-anchor="middle" x="285.504" y="-719.3" font-family="Times,serif" font-size="14.00">checkedBy</text>
<polyline fill="none" stroke="black" points="213.359,-712.5 357.649,-712.5 "/>
<text text-anchor="middle" x="285.504" y="-697.3" font-family="Times,serif" font-size="14.00">totalExpectedQty</text>
<polyline fill="none" stroke="black" points="213.359,-690.5 357.649,-690.5 "/>
<text text-anchor="middle" x="285.504" y="-675.3" font-family="Times,serif" font-size="14.00">recommendedPlatform</text>
</g>
<!-- OrderCartons -->
<g id="node4" class="node"><title>OrderCartons</title>
<polygon fill="none" stroke="black" points="437.59,-804.5 437.59,-848.5 560.894,-848.5 560.894,-804.5 437.59,-804.5"/>
<text text-anchor="middle" x="499.242" y="-833.3" font-family="Times,serif" font-size="14.00">OrderCartons</text>
<polyline fill="none" stroke="black" points="437.59,-826.5 560.894,-826.5 "/>
<text text-anchor="middle" x="499.242" y="-811.3" font-family="Times,serif" font-size="14.00">totalCartonizedQty</text>
</g>
<!-- Order&#45;&gt;OrderCartons -->
<g id="edge24" class="edge"><title>Order&#45;&gt;OrderCartons:totalCartonizedQty</title>
<path fill="none" stroke="black" d="M357.749,-771.925C384.228,-789.24 411.492,-806.097 426.645,-812.643"/>
<polygon fill="black" stroke="black" points="425.659,-816.001 436.242,-815.5 427.657,-809.292 425.659,-816.001"/>
</g>
<!-- OrderLineBag -->
<g id="node5" class="node"><title>OrderLineBag</title>
<polygon fill="none" stroke="black" points="442.259,-712.5 442.259,-756.5 556.225,-756.5 556.225,-712.5 442.259,-712.5"/>
<text text-anchor="middle" x="499.242" y="-741.3" font-family="Times,serif" font-size="14.00">OrderLineBag</text>
<polyline fill="none" stroke="black" points="442.259,-734.5 556.225,-734.5 "/>
<text text-anchor="middle" x="499.242" y="-719.3" font-family="Times,serif" font-size="14.00">totalExpectedQty</text>
</g>
<!-- Order&#45;&gt;OrderLineBag -->
<g id="edge25" class="edge"><title>Order&#45;&gt;OrderLineBag:totalExpectedQty</title>
<path fill="none" stroke="black" d="M357.762,-723.5C380.827,-723.5 406.771,-723.5 431.229,-723.5"/>
<polygon fill="black" stroke="black" points="431.242,-727 441.242,-723.5 431.242,-720 431.242,-727"/>
</g>
<!-- TaskOfOrderPending -->
<g id="node2" class="node"><title>TaskOfOrderPending</title>
<polygon fill="none" stroke="black" points="217.73,-605.5 217.73,-649.5 353.277,-649.5 353.277,-605.5 217.73,-605.5"/>
<text text-anchor="middle" x="285.504" y="-634.3" font-family="Times,serif" font-size="14.00">TaskOfOrderPending</text>
<polyline fill="none" stroke="black" points="217.73,-627.5 353.277,-627.5 "/>
<text text-anchor="middle" x="285.504" y="-612.3" font-family="Times,serif" font-size="14.00">confirmQty</text>
</g>
<!-- Task -->
<g id="node3" class="node"><title>Task</title>
<polygon fill="none" stroke="black" points="224.638,-498.5 224.638,-586.5 346.37,-586.5 346.37,-498.5 224.638,-498.5"/>
<text text-anchor="middle" x="285.504" y="-571.3" font-family="Times,serif" font-size="14.00">Task</text>
<polyline fill="none" stroke="black" points="224.638,-564.5 346.37,-564.5 "/>
<text text-anchor="middle" x="285.504" y="-549.3" font-family="Times,serif" font-size="14.00">isEmpty</text>
<polyline fill="none" stroke="black" points="224.638,-542.5 346.37,-542.5 "/>
<text text-anchor="middle" x="285.504" y="-527.3" font-family="Times,serif" font-size="14.00">removeOrderLines</text>
<polyline fill="none" stroke="black" points="224.638,-520.5 346.37,-520.5 "/>
<text text-anchor="middle" x="285.504" y="-505.3" font-family="Times,serif" font-size="14.00">plan</text>
</g>
<!-- TaskOfSkuPending -->
<g id="node6" class="node"><title>TaskOfSkuPending</title>
<polygon fill="none" stroke="black" points="436.9,-573.5 436.9,-617.5 561.584,-617.5 561.584,-573.5 436.9,-573.5"/>
<text text-anchor="middle" x="499.242" y="-602.3" font-family="Times,serif" font-size="14.00">TaskOfSkuPending</text>
<polyline fill="none" stroke="black" points="436.9,-595.5 561.584,-595.5 "/>
<text text-anchor="middle" x="499.242" y="-580.3" font-family="Times,serif" font-size="14.00">confirmQty</text>
</g>
<!-- Task&#45;&gt;TaskOfSkuPending -->
<g id="edge31" class="edge"><title>Task&#45;&gt;TaskOfSkuPending:confirmQty</title>
<path fill="none" stroke="black" d="M346.634,-567.417C370.512,-575.436 398.724,-582.666 425.892,-584.201"/>
<polygon fill="black" stroke="black" points="426.145,-587.709 436.242,-584.5 426.348,-580.712 426.145,-587.709"/>
</g>
<!-- ContainerBag -->
<g id="node12" class="node"><title>ContainerBag</title>
<polygon fill="none" stroke="black" points="624.111,-489.5 624.111,-621.5 731.884,-621.5 731.884,-489.5 624.111,-489.5"/>
<text text-anchor="middle" x="677.998" y="-606.3" font-family="Times,serif" font-size="14.00">ContainerBag</text>
<polyline fill="none" stroke="black" points="624.111,-599.5 731.884,-599.5 "/>
<text text-anchor="middle" x="677.998" y="-584.3" font-family="Times,serif" font-size="14.00">orderNoSet</text>
<polyline fill="none" stroke="black" points="624.111,-577.5 731.884,-577.5 "/>
<text text-anchor="middle" x="677.998" y="-562.3" font-family="Times,serif" font-size="14.00">confirmQty</text>
<polyline fill="none" stroke="black" points="624.111,-555.5 731.884,-555.5 "/>
<text text-anchor="middle" x="677.998" y="-540.3" font-family="Times,serif" font-size="14.00">totalQty</text>
<polyline fill="none" stroke="black" points="624.111,-533.5 731.884,-533.5 "/>
<text text-anchor="middle" x="677.998" y="-518.3" font-family="Times,serif" font-size="14.00">totalPendingQty</text>
<polyline fill="none" stroke="black" points="624.111,-511.5 731.884,-511.5 "/>
<text text-anchor="middle" x="677.998" y="-496.3" font-family="Times,serif" font-size="14.00">totalSku</text>
</g>
<!-- Task&#45;&gt;ContainerBag -->
<g id="edge32" class="edge"><title>Task&#45;&gt;ContainerBag:totalSku</title>
<path fill="none" stroke="black" d="M346.511,-512.898C366.35,-504.585 388.86,-496.678 410.373,-492.5 487.919,-477.44 509.588,-483.88 588.111,-492.5 600.458,-493.855 605.353,-497.751 614.133,-499.558"/>
<polygon fill="black" stroke="black" points="613.827,-503.045 624.111,-500.5 614.485,-496.076 613.827,-503.045"/>
</g>
<!-- Task&#45;&gt;ContainerBag -->
<g id="edge33" class="edge"><title>Task&#45;&gt;ContainerBag:totalQty</title>
<path fill="none" stroke="black" d="M346.574,-543.07C411.777,-543.641 519.297,-544.443 614.097,-544.497"/>
<polygon fill="black" stroke="black" points="614.11,-547.997 624.111,-544.5 614.112,-540.997 614.11,-547.997"/>
</g>
<!-- Task&#45;&gt;ContainerBag -->
<g id="edge34" class="edge"><title>Task&#45;&gt;ContainerBag:totalPendingQty</title>
<path fill="none" stroke="black" d="M346.511,-536.796C411.66,-531.086 519.131,-523.07 614.08,-522.529"/>
<polygon fill="black" stroke="black" points="614.122,-526.029 624.111,-522.5 614.101,-519.029 614.122,-526.029"/>
</g>
<!-- Task&#45;&gt;ContainerBag -->
<g id="edge35" class="edge"><title>Task&#45;&gt;ContainerBag:orderNoSet</title>
<path fill="none" stroke="black" d="M346.464,-576.811C355.976,-582.78 365.572,-589.125 374.373,-595.5 391.474,-607.885 390.578,-619.152 410.373,-626.5 484.43,-653.992 515.545,-657.713 588.111,-626.5 605.642,-618.959 602.981,-598.219 614.301,-591.009"/>
<polygon fill="black" stroke="black" points="615.291,-594.369 624.111,-588.5 613.556,-587.587 615.291,-594.369"/>
</g>
<!-- TaskOfSkuPending&#45;&gt;ContainerBag -->
<g id="edge36" class="edge"><title>TaskOfSkuPending&#45;&gt;ContainerBag:confirmQty</title>
<path fill="none" stroke="black" d="M561.648,-575.28C578.135,-571.174 596.276,-567.797 613.848,-566.8"/>
<polygon fill="black" stroke="black" points="614.218,-570.291 624.111,-566.5 614.013,-563.294 614.218,-570.291"/>
</g>
<!-- CartonBag -->
<g id="node7" class="node"><title>CartonBag</title>
<polygon fill="none" stroke="black" points="196.635,-276.5 196.635,-364.5 374.373,-364.5 374.373,-276.5 196.635,-276.5"/>
<text text-anchor="middle" x="285.504" y="-349.3" font-family="Times,serif" font-size="14.00">CartonBag</text>
<polyline fill="none" stroke="black" points="196.635,-342.5 374.373,-342.5 "/>
<text text-anchor="middle" x="285.504" y="-327.3" font-family="Times,serif" font-size="14.00">deductConsumableInventory</text>
<polyline fill="none" stroke="black" points="196.635,-320.5 374.373,-320.5 "/>
<text text-anchor="middle" x="285.504" y="-305.3" font-family="Times,serif" font-size="14.00">fulfill</text>
<polyline fill="none" stroke="black" points="196.635,-298.5 374.373,-298.5 "/>
<text text-anchor="middle" x="285.504" y="-283.3" font-family="Times,serif" font-size="14.00">putOnPallet</text>
</g>
<!-- Carton -->
<g id="node13" class="node"><title>Carton</title>
<polygon fill="none" stroke="black" points="410.373,-285.5 410.373,-439.5 588.111,-439.5 588.111,-285.5 410.373,-285.5"/>
<text text-anchor="middle" x="499.242" y="-424.3" font-family="Times,serif" font-size="14.00">Carton</text>
<polyline fill="none" stroke="black" points="410.373,-417.5 588.111,-417.5 "/>
<text text-anchor="middle" x="499.242" y="-402.3" font-family="Times,serif" font-size="14.00">deductConsumableInventory</text>
<polyline fill="none" stroke="black" points="410.373,-395.5 588.111,-395.5 "/>
<text text-anchor="middle" x="499.242" y="-380.3" font-family="Times,serif" font-size="14.00">cartonizationRule</text>
<polyline fill="none" stroke="black" points="410.373,-373.5 588.111,-373.5 "/>
<text text-anchor="middle" x="499.242" y="-358.3" font-family="Times,serif" font-size="14.00">installConsumables</text>
<polyline fill="none" stroke="black" points="410.373,-351.5 588.111,-351.5 "/>
<text text-anchor="middle" x="499.242" y="-336.3" font-family="Times,serif" font-size="14.00">transferFrom</text>
<polyline fill="none" stroke="black" points="410.373,-329.5 588.111,-329.5 "/>
<text text-anchor="middle" x="499.242" y="-314.3" font-family="Times,serif" font-size="14.00">fulfill</text>
<polyline fill="none" stroke="black" points="410.373,-307.5 588.111,-307.5 "/>
<text text-anchor="middle" x="499.242" y="-292.3" font-family="Times,serif" font-size="14.00">bindOrder</text>
</g>
<!-- CartonBag&#45;&gt;Carton -->
<g id="edge21" class="edge"><title>CartonBag&#45;&gt;Carton:fulfill</title>
<path fill="none" stroke="black" d="M374.47,-318.729C383.046,-318.63 391.704,-318.556 400.167,-318.521"/>
<polygon fill="black" stroke="black" points="400.38,-322.021 410.373,-318.5 400.366,-315.021 400.38,-322.021"/>
</g>
<!-- CartonBag&#45;&gt;Carton -->
<g id="edge22" class="edge"><title>CartonBag&#45;&gt;Carton:deductConsumableInventory</title>
<path fill="none" stroke="black" d="M352.968,-364.591C360.229,-369.567 367.481,-374.607 374.373,-379.5 387.368,-388.727 389.812,-400.394 400.39,-404.753"/>
<polygon fill="black" stroke="black" points="399.919,-408.223 410.373,-406.5 401.126,-401.328 399.919,-408.223"/>
</g>
<!-- OrderBag -->
<g id="node8" class="node"><title>OrderBag</title>
<polygon fill="none" stroke="black" points="218.394,-7.5 218.394,-73.5 352.614,-73.5 352.614,-7.5 218.394,-7.5"/>
<text text-anchor="middle" x="285.504" y="-58.3" font-family="Times,serif" font-size="14.00">OrderBag</text>
<polyline fill="none" stroke="black" points="218.394,-51.5 352.614,-51.5 "/>
<text text-anchor="middle" x="285.504" y="-36.3" font-family="Times,serif" font-size="14.00">canceledBag</text>
<polyline fill="none" stroke="black" points="218.394,-29.5 352.614,-29.5 "/>
<text text-anchor="middle" x="285.504" y="-14.3" font-family="Times,serif" font-size="14.00">consumableCostFirst</text>
</g>
<!-- TaskCartons -->
<g id="node9" class="node"><title>TaskCartons</title>
<polygon fill="none" stroke="black" points="242.61,-891.5 242.61,-935.5 328.398,-935.5 328.398,-891.5 242.61,-891.5"/>
<text text-anchor="middle" x="285.504" y="-920.3" font-family="Times,serif" font-size="14.00">TaskCartons</text>
<polyline fill="none" stroke="black" points="242.61,-913.5 328.398,-913.5 "/>
<text text-anchor="middle" x="285.504" y="-898.3" font-family="Times,serif" font-size="14.00">contains</text>
</g>
<!-- ContainerItemBag -->
<g id="node10" class="node"><title>ContainerItemBag</title>
<polygon fill="none" stroke="black" points="767.884,-544.5 767.884,-588.5 887.298,-588.5 887.298,-544.5 767.884,-544.5"/>
<text text-anchor="middle" x="827.591" y="-573.3" font-family="Times,serif" font-size="14.00">ContainerItemBag</text>
<polyline fill="none" stroke="black" points="767.884,-566.5 887.298,-566.5 "/>
<text text-anchor="middle" x="827.591" y="-551.3" font-family="Times,serif" font-size="14.00">totalSku</text>
</g>
<!-- TaskBag -->
<g id="node11" class="node"><title>TaskBag</title>
<polygon fill="none" stroke="black" points="230.073,-92.5 230.073,-180.5 340.935,-180.5 340.935,-92.5 230.073,-92.5"/>
<text text-anchor="middle" x="285.504" y="-165.3" font-family="Times,serif" font-size="14.00">TaskBag</text>
<polyline fill="none" stroke="black" points="230.073,-158.5 340.935,-158.5 "/>
<text text-anchor="middle" x="285.504" y="-143.3" font-family="Times,serif" font-size="14.00">totalCheckedQty</text>
<polyline fill="none" stroke="black" points="230.073,-136.5 340.935,-136.5 "/>
<text text-anchor="middle" x="285.504" y="-121.3" font-family="Times,serif" font-size="14.00">totalPendingQty</text>
<polyline fill="none" stroke="black" points="230.073,-114.5 340.935,-114.5 "/>
<text text-anchor="middle" x="285.504" y="-99.3" font-family="Times,serif" font-size="14.00">platforms</text>
</g>
<!-- ContainerBag&#45;&gt;ContainerItemBag -->
<g id="edge29" class="edge"><title>ContainerBag&#45;&gt;ContainerItemBag:totalSku</title>
<path fill="none" stroke="black" d="M732.11,-555.5C740.484,-555.5 749.183,-555.5 757.671,-555.5"/>
<polygon fill="black" stroke="black" points="757.884,-559 767.884,-555.5 757.884,-552 757.884,-559"/>
</g>
<!-- CheckingAppService -->
<g id="node14" class="node"><title>CheckingAppService</title>
<polygon fill="none" stroke="black" points="12.4448,-344.5 12.4448,-380.5 148.19,-380.5 148.19,-344.5 12.4448,-344.5"/>
<text text-anchor="middle" x="80.3174" y="-358.3" font-family="Times,serif" font-size="14.00">CheckingAppService</text>
</g>
<!-- CheckingAppService&#45;&gt;Order -->
<g id="edge7" class="edge"><title>CheckingAppService&#45;&gt;Order:recommendedPlatform</title>
<path fill="none" stroke="black" d="M84.7488,-380.913C97.1802,-445.001 142.307,-655.598 202.342,-677.631"/>
<polygon fill="black" stroke="black" points="202.036,-681.134 212.504,-679.5 203.302,-674.249 202.036,-681.134"/>
</g>
<!-- CheckingAppService&#45;&gt;Order -->
<g id="edge10" class="edge"><title>CheckingAppService&#45;&gt;Order:recommendPackQty</title>
<path fill="none" stroke="black" d="M83.484,-380.715C92.6045,-453.41 130.747,-719.994 202.2,-743.798"/>
<polygon fill="black" stroke="black" points="202.067,-747.323 212.504,-745.5 203.208,-740.417 202.067,-747.323"/>
</g>
<!-- CheckingAppService&#45;&gt;Order -->
<g id="edge17" class="edge"><title>CheckingAppService&#45;&gt;Order:checkedBy</title>
<path fill="none" stroke="black" d="M83.8713,-380.898C94.0859,-451.015 134.746,-698.707 202.336,-721.774"/>
<polygon fill="black" stroke="black" points="202.059,-725.277 212.504,-723.5 203.231,-718.376 202.059,-725.277"/>
</g>
<!-- CheckingAppService&#45;&gt;TaskOfOrderPending -->
<g id="edge14" class="edge"><title>CheckingAppService&#45;&gt;TaskOfOrderPending:confirmQty</title>
<path fill="none" stroke="black" d="M82.4074,-380.767C86.8129,-437.13 108.162,-605.184 206.429,-615.957"/>
<polygon fill="black" stroke="black" points="206.33,-619.457 216.504,-616.5 206.707,-612.467 206.33,-619.457"/>
</g>
<!-- CheckingAppService&#45;&gt;Task -->
<g id="edge2" class="edge"><title>CheckingAppService&#45;&gt;Task:removeOrderLines</title>
<path fill="none" stroke="black" d="M86.8518,-380.586C100.782,-422.225 141.403,-521.987 213.17,-530.866"/>
<polygon fill="black" stroke="black" points="213.308,-534.381 223.504,-531.5 213.737,-527.394 213.308,-534.381"/>
</g>
<!-- CheckingAppService&#45;&gt;Task -->
<g id="edge3" class="edge"><title>CheckingAppService&#45;&gt;Task:isEmpty</title>
<path fill="none" stroke="black" d="M85.5457,-380.814C97.2791,-426.659 134.685,-543.386 213.203,-552.884"/>
<polygon fill="black" stroke="black" points="213.313,-556.396 223.504,-553.5 213.731,-549.409 213.313,-556.396"/>
</g>
<!-- CheckingAppService&#45;&gt;Task -->
<g id="edge4" class="edge"><title>CheckingAppService&#45;&gt;Task:plan</title>
<path fill="none" stroke="black" d="M88.5582,-380.525C104.818,-417.862 147.989,-500.858 213.275,-508.875"/>
<polygon fill="black" stroke="black" points="213.309,-512.383 223.504,-509.5 213.736,-505.396 213.309,-512.383"/>
</g>
<!-- CheckingAppService&#45;&gt;CartonBag -->
<g id="edge15" class="edge"><title>CheckingAppService&#45;&gt;CartonBag:fulfill</title>
<path fill="none" stroke="black" d="M105.055,-344.26C125.229,-330.427 155.754,-313.256 186.616,-310.034"/>
<polygon fill="black" stroke="black" points="186.835,-313.527 196.635,-309.5 186.463,-306.537 186.835,-313.527"/>
</g>
<!-- CheckingAppService&#45;&gt;CartonBag -->
<g id="edge16" class="edge"><title>CheckingAppService&#45;&gt;CartonBag:putOnPallet</title>
<path fill="none" stroke="black" d="M96.4419,-344.345C115.075,-323.969 148.911,-293.101 186.481,-288.173"/>
<polygon fill="black" stroke="black" points="186.888,-291.654 196.635,-287.5 186.425,-284.67 186.888,-291.654"/>
</g>
<!-- CheckingAppService&#45;&gt;CartonBag -->
<g id="edge18" class="edge"><title>CheckingAppService&#45;&gt;CartonBag:deductConsumableInventory</title>
<path fill="none" stroke="black" d="M126.583,-344.467C144.6,-338.606 165.931,-333.242 186.574,-331.849"/>
<polygon fill="black" stroke="black" points="186.762,-335.345 196.635,-331.5 186.519,-328.349 186.762,-335.345"/>
</g>
<!-- CheckingAppService&#45;&gt;OrderBag -->
<g id="edge1" class="edge"><title>CheckingAppService&#45;&gt;OrderBag:canceledBag</title>
<path fill="none" stroke="black" d="M80.7654,-344.33C79.3201,-276.658 82.2949,-44.8664 207.47,-40.3808"/>
<polygon fill="black" stroke="black" points="207.463,-43.8809 217.504,-40.5 207.546,-36.8814 207.463,-43.8809"/>
</g>
<!-- CheckingAppService&#45;&gt;OrderBag -->
<g id="edge9" class="edge"><title>CheckingAppService&#45;&gt;OrderBag:canceledBag</title>
<path fill="none" stroke="black" d="M80.6432,-344.468C79.6407,-279.282 86.3204,-60.4871 207.059,-41.6096"/>
<polygon fill="black" stroke="black" points="207.555,-45.0765 217.121,-40.5228 206.803,-38.117 207.555,-45.0765"/>
</g>
<!-- CheckingAppService&#45;&gt;TaskBag -->
<g id="edge5" class="edge"><title>CheckingAppService&#45;&gt;TaskBag:totalCheckedQty</title>
<path fill="none" stroke="black" d="M84.7303,-344.169C95.1828,-294.055 131.541,-157.834 219.404,-148.055"/>
<polygon fill="black" stroke="black" points="219.711,-151.544 229.504,-147.5 219.327,-144.555 219.711,-151.544"/>
</g>
<!-- CheckingAppService&#45;&gt;TaskBag -->
<g id="edge6" class="edge"><title>CheckingAppService&#45;&gt;TaskBag:totalPendingQty</title>
<path fill="none" stroke="black" d="M83.767,-344.297C92.0694,-290.643 124.153,-136.225 219.459,-126.03"/>
<polygon fill="black" stroke="black" points="219.702,-129.522 229.504,-125.5 219.333,-122.532 219.702,-129.522"/>
</g>
<!-- CheckingAppService&#45;&gt;TaskBag -->
<g id="edge8" class="edge"><title>CheckingAppService&#45;&gt;TaskBag:platforms</title>
<path fill="none" stroke="black" d="M82.9769,-344.288C89.2383,-287.176 116.596,-114.745 219.325,-104.023"/>
<polygon fill="black" stroke="black" points="219.697,-107.509 229.504,-103.5 219.337,-100.518 219.697,-107.509"/>
</g>
<!-- CheckingAppService&#45;&gt;Carton -->
<g id="edge11" class="edge"><title>CheckingAppService&#45;&gt;Carton:cartonizationRule</title>
<path fill="none" stroke="black" d="M98.847,-380.672C119.856,-401.011 157.194,-432.782 196.635,-445.5 271.818,-469.743 305.774,-484.67 374.373,-445.5 398.08,-431.963 384.069,-396.031 400.459,-386.726"/>
<polygon fill="black" stroke="black" points="401.383,-390.106 410.373,-384.5 399.849,-383.276 401.383,-390.106"/>
</g>
<!-- CheckingAppService&#45;&gt;Carton -->
<g id="edge12" class="edge"><title>CheckingAppService&#45;&gt;Carton:bindOrder</title>
<path fill="none" stroke="black" d="M90.7585,-344.437C107.462,-314.699 145.358,-256.44 196.635,-233.5 268.742,-201.241 306.05,-193.85 374.373,-233.5 398.561,-247.537 383.619,-284.605 400.254,-294.204"/>
<polygon fill="black" stroke="black" points="399.846,-297.701 410.373,-296.5 401.395,-290.874 399.846,-297.701"/>
</g>
<!-- CheckingAppService&#45;&gt;Carton -->
<g id="edge13" class="edge"><title>CheckingAppService&#45;&gt;Carton:transferFrom</title>
<path fill="none" stroke="black" d="M148.316,-369.977C164.14,-371.442 180.966,-372.754 196.635,-373.5 275.54,-377.255 300.752,-402.137 374.373,-373.5 390.651,-367.168 389.988,-349.658 400.417,-343.06"/>
<polygon fill="black" stroke="black" points="401.56,-346.38 410.373,-340.5 399.816,-339.601 401.56,-346.38"/>
</g>
<!-- CheckingAppService&#45;&gt;Carton -->
<g id="edge19" class="edge"><title>CheckingAppService&#45;&gt;Carton:installConsumables</title>
<path fill="none" stroke="black" d="M134.659,-380.543C153.948,-386.201 176.048,-391.697 196.635,-394.5 274.907,-405.159 300.535,-422.573 374.373,-394.5 390.475,-388.378 390.112,-371.388 400.51,-364.985"/>
<polygon fill="black" stroke="black" points="401.531,-368.337 410.373,-362.5 399.821,-361.549 401.531,-368.337"/>
</g>
<!-- CheckingAppService&#45;&gt;Carton -->
<g id="edge20" class="edge"><title>CheckingAppService&#45;&gt;Carton:fulfill</title>
<path fill="none" stroke="black" d="M95.771,-344.407C115.619,-321.175 153.767,-282.008 196.635,-266.5 270.918,-239.627 304.401,-229.838 374.373,-266.5 395.576,-277.609 386.39,-307.506 400.553,-316.137"/>
<polygon fill="black" stroke="black" points="399.832,-319.563 410.373,-318.5 401.469,-312.758 399.832,-319.563"/>
</g>
<!-- ConsumableExtPolicy -->
<g id="node15" class="node"><title>ConsumableExtPolicy</title>
<polygon fill="none" stroke="black" points="9.71045,-0.5 9.71045,-36.5 150.924,-36.5 150.924,-0.5 9.71045,-0.5"/>
<text text-anchor="middle" x="80.3174" y="-14.3" font-family="Times,serif" font-size="14.00">ConsumableExtPolicy</text>
</g>
<!-- ConsumableExtPolicy&#45;&gt;OrderBag -->
<g id="edge23" class="edge"><title>ConsumableExtPolicy&#45;&gt;OrderBag:consumableCostFirst</title>
<path fill="none" stroke="black" d="M150.949,-18.5C169.05,-18.5 188.741,-18.5 207.497,-18.5"/>
<polygon fill="black" stroke="black" points="207.504,-22.0001 217.504,-18.5 207.504,-15.0001 207.504,-22.0001"/>
</g>
<!-- OrderNotCartonizedYet -->
<g id="node16" class="node"><title>OrderNotCartonizedYet</title>
<polygon fill="none" stroke="black" points="210.56,-797.5 210.56,-833.5 360.448,-833.5 360.448,-797.5 210.56,-797.5"/>
<text text-anchor="middle" x="285.504" y="-811.3" font-family="Times,serif" font-size="14.00">OrderNotCartonizedYet</text>
</g>
<!-- OrderNotCartonizedYet&#45;&gt;OrderCartons -->
<g id="edge26" class="edge"><title>OrderNotCartonizedYet&#45;&gt;OrderCartons:totalCartonizedQty</title>
<path fill="none" stroke="black" d="M360.763,-815.5C381.55,-815.5 404.39,-815.5 426.052,-815.5"/>
<polygon fill="black" stroke="black" points="426.242,-819 436.242,-815.5 426.242,-812 426.242,-819"/>
</g>
<!-- OrderNotFullyCartonized -->
<g id="node17" class="node"><title>OrderNotFullyCartonized</title>
<polygon fill="none" stroke="black" points="0,-756.5 0,-792.5 160.635,-792.5 160.635,-756.5 0,-756.5"/>
<text text-anchor="middle" x="80.3174" y="-770.3" font-family="Times,serif" font-size="14.00">OrderNotFullyCartonized</text>
</g>
<!-- OrderNotFullyCartonized&#45;&gt;Order -->
<g id="edge27" class="edge"><title>OrderNotFullyCartonized&#45;&gt;Order:totalExpectedQty</title>
<path fill="none" stroke="black" d="M99.5259,-756.455C121.586,-736.442 160.984,-706.384 202.489,-702.032"/>
<polygon fill="black" stroke="black" points="202.704,-705.526 212.504,-701.5 202.332,-698.536 202.704,-705.526"/>
</g>
<!-- OrderNotFullyCartonized&#45;&gt;OrderCartons -->
<g id="edge28" class="edge"><title>OrderNotFullyCartonized&#45;&gt;OrderCartons:totalCartonizedQty</title>
<path fill="none" stroke="black" d="M103.502,-792.516C125.584,-809.196 161.208,-832.833 196.635,-842.5 272.843,-863.296 297.044,-858.638 374.373,-842.5 400.071,-837.137 405.196,-820.487 426.175,-816.409"/>
<polygon fill="black" stroke="black" points="426.597,-819.885 436.242,-815.5 425.968,-812.913 426.597,-819.885"/>
</g>
<!-- UniqueCodeConstraint -->
<g id="node18" class="node"><title>UniqueCodeConstraint</title>
<polygon fill="none" stroke="black" points="7.76904,-884.5 7.76904,-920.5 152.866,-920.5 152.866,-884.5 7.76904,-884.5"/>
<text text-anchor="middle" x="80.3174" y="-898.3" font-family="Times,serif" font-size="14.00">UniqueCodeConstraint</text>
</g>
<!-- UniqueCodeConstraint&#45;&gt;TaskCartons -->
<g id="edge30" class="edge"><title>UniqueCodeConstraint&#45;&gt;TaskCartons:contains</title>
<path fill="none" stroke="black" d="M153.084,-902.5C177.483,-902.5 205.172,-902.5 231.226,-902.5"/>
<polygon fill="black" stroke="black" points="231.504,-906 241.504,-902.5 231.504,-899 231.504,-906"/>
</g>
</g>
</svg>
