<?xml version="1.0" encoding="UTF-8" standalone="no"?>
<!DOCTYPE svg PUBLIC "-//W3C//DTD SVG 1.1//EN"
 "http://www.w3.org/Graphics/SVG/1.1/DTD/svg11.dtd">
<!-- Generated by graphviz version 6.0.1 (20220911.1526)
 -->
<!-- Title: G Pages: 1 -->
<svg width="1177pt" height="994pt"
 viewBox="0.00 0.00 1177.00 993.50" xmlns="http://www.w3.org/2000/svg" xmlns:xlink="http://www.w3.org/1999/xlink">
<g id="graph0" class="graph" transform="scale(1 1) rotate(0) translate(4 989.5)">
<title>G</title>
<polygon fill="white" stroke="none" points="-4,4 -4,-989.5 1173,-989.5 1173,4 -4,4"/>
<!-- Carton -->
<g id="node1" class="node">
<title>Carton</title>
<polygon fill="none" stroke="black" points="386,-65.5 386,-226.5 559,-226.5 559,-65.5 386,-65.5"/>
<text text-anchor="middle" x="472.5" y="-211.3" font-family="Times,serif" font-size="14.00">Carton</text>
<polyline fill="none" stroke="black" points="386,-203.5 559,-203.5"/>
<text text-anchor="middle" x="472.5" y="-188.3" font-family="Times,serif" font-size="14.00">deductConsumableInventory</text>
<polyline fill="none" stroke="black" points="386,-180.5 559,-180.5"/>
<text text-anchor="middle" x="472.5" y="-165.3" font-family="Times,serif" font-size="14.00">cartonizationRule</text>
<polyline fill="none" stroke="black" points="386,-157.5 559,-157.5"/>
<text text-anchor="middle" x="472.5" y="-142.3" font-family="Times,serif" font-size="14.00">installConsumables</text>
<polyline fill="none" stroke="black" points="386,-134.5 559,-134.5"/>
<text text-anchor="middle" x="472.5" y="-119.3" font-family="Times,serif" font-size="14.00">transferFrom</text>
<polyline fill="none" stroke="black" points="386,-111.5 559,-111.5"/>
<text text-anchor="middle" x="472.5" y="-96.3" font-family="Times,serif" font-size="14.00">fulfill</text>
<polyline fill="none" stroke="black" points="386,-88.5 559,-88.5"/>
<text text-anchor="middle" x="472.5" y="-73.3" font-family="Times,serif" font-size="14.00">bindOrder</text>
</g>
<!-- CartonBag -->
<g id="node2" class="node">
<title>CartonBag</title>
<polygon fill="none" stroke="black" points="177,-146 177,-238 350,-238 350,-146 177,-146"/>
<text text-anchor="middle" x="263.5" y="-222.8" font-family="Times,serif" font-size="14.00">CartonBag</text>
<polyline fill="none" stroke="black" points="177,-215 350,-215"/>
<text text-anchor="middle" x="263.5" y="-199.8" font-family="Times,serif" font-size="14.00">deductConsumableInventory</text>
<polyline fill="none" stroke="black" points="177,-192 350,-192"/>
<text text-anchor="middle" x="263.5" y="-176.8" font-family="Times,serif" font-size="14.00">fulfill</text>
<polyline fill="none" stroke="black" points="177,-169 350,-169"/>
<text text-anchor="middle" x="263.5" y="-153.8" font-family="Times,serif" font-size="14.00">putOnPallet</text>
</g>
<!-- CartonBag&#45;&gt;Carton -->
<g id="edge1" class="edge">
<title>CartonBag&#45;&gt;Carton:deductConsumableInventory</title>
<path fill="none" stroke="black" stroke-dasharray="5,2" d="M350.2,-192C360.41,-192 369.48,-192 375.94,-192"/>
<polygon fill="black" stroke="black" points="376,-195.5 386,-192 376,-188.5 376,-195.5"/>
</g>
<!-- CartonBag&#45;&gt;Carton -->
<g id="edge2" class="edge">
<title>CartonBag&#45;&gt;Carton:fulfill</title>
<path fill="none" stroke="black" stroke-dasharray="5,2" d="M335.11,-145.75C343.97,-139.95 350,-136 350,-136 350,-136 368.2,-117.8 378.71,-107.29"/>
<polygon fill="black" stroke="black" points="381.4,-109.55 386,-100 376.45,-104.6 381.4,-109.55"/>
</g>
<!-- Consumable -->
<g id="node3" class="node">
<title>Consumable</title>
<polygon fill="none" stroke="black" points="221,-874 221,-920 306,-920 306,-874 221,-874"/>
<text text-anchor="middle" x="263.5" y="-904.8" font-family="Times,serif" font-size="14.00">Consumable</text>
<polyline fill="none" stroke="black" points="221,-897 306,-897"/>
<text text-anchor="middle" x="263.5" y="-881.8" font-family="Times,serif" font-size="14.00">isInventory</text>
</g>
<!-- Container -->
<g id="node4" class="node">
<title>Container</title>
<polygon fill="none" stroke="black" points="895,-332 895,-378 1029,-378 1029,-332 895,-332"/>
<text text-anchor="middle" x="962" y="-362.8" font-family="Times,serif" font-size="14.00">Container</text>
<polyline fill="none" stroke="black" points="895,-355 1029,-355"/>
<text text-anchor="middle" x="962" y="-339.8" font-family="Times,serif" font-size="14.00">getContainerItemBag</text>
</g>
<!-- ContainerItem -->
<g id="node6" class="node">
<title>ContainerItem</title>
<polygon fill="none" stroke="black" points="1065,-374.5 1065,-489.5 1169,-489.5 1169,-374.5 1065,-374.5"/>
<text text-anchor="middle" x="1117" y="-474.3" font-family="Times,serif" font-size="14.00">ContainerItem</text>
<polyline fill="none" stroke="black" points="1065,-466.5 1169,-466.5"/>
<text text-anchor="middle" x="1117" y="-451.3" font-family="Times,serif" font-size="14.00">getExpectedQty</text>
<polyline fill="none" stroke="black" points="1065,-443.5 1169,-443.5"/>
<text text-anchor="middle" x="1117" y="-428.3" font-family="Times,serif" font-size="14.00">getPendingQty</text>
<polyline fill="none" stroke="black" points="1065,-420.5 1169,-420.5"/>
<text text-anchor="middle" x="1117" y="-405.3" font-family="Times,serif" font-size="14.00">diffQty</text>
<polyline fill="none" stroke="black" points="1065,-397.5 1169,-397.5"/>
<text text-anchor="middle" x="1117" y="-382.3" font-family="Times,serif" font-size="14.00">getSku</text>
</g>
<!-- Container&#45;&gt;ContainerItem -->
<g id="edge31" class="edge">
<title>Container&#45;&gt;ContainerItem:getSku</title>
<path fill="none" stroke="black" stroke-dasharray="5,2" d="M1029.04,-375.07C1039.3,-378.19 1048.67,-381.04 1055.28,-383.04"/>
<polygon fill="black" stroke="black" points="1054.41,-386.44 1065,-386 1056.45,-379.74 1054.41,-386.44"/>
</g>
<!-- Sku -->
<g id="node13" class="node">
<title>Sku</title>
<polygon fill="none" stroke="black" points="1090,-309 1090,-355 1144,-355 1144,-309 1090,-309"/>
<text text-anchor="middle" x="1117" y="-339.8" font-family="Times,serif" font-size="14.00">Sku</text>
<polyline fill="none" stroke="black" points="1090,-332 1144,-332"/>
<text text-anchor="middle" x="1117" y="-316.8" font-family="Times,serif" font-size="14.00">value</text>
</g>
<!-- Container&#45;&gt;Sku -->
<g id="edge30" class="edge">
<title>Container&#45;&gt;Sku:value</title>
<path fill="none" stroke="black" stroke-dasharray="5,2" d="M1029.32,-336.58C1049,-331.11 1068.25,-325.76 1079.36,-322.68"/>
<polygon fill="black" stroke="black" points="1080.3,-326.05 1089,-320 1078.43,-319.3 1080.3,-326.05"/>
</g>
<!-- ContainerBag -->
<g id="node5" class="node">
<title>ContainerBag</title>
<polygon fill="none" stroke="black" points="753.5,-350 753.5,-488 858.5,-488 858.5,-350 753.5,-350"/>
<text text-anchor="middle" x="806" y="-472.8" font-family="Times,serif" font-size="14.00">ContainerBag</text>
<polyline fill="none" stroke="black" points="753.5,-465 858.5,-465"/>
<text text-anchor="middle" x="806" y="-449.8" font-family="Times,serif" font-size="14.00">orderNoSet</text>
<polyline fill="none" stroke="black" points="753.5,-442 858.5,-442"/>
<text text-anchor="middle" x="806" y="-426.8" font-family="Times,serif" font-size="14.00">confirmQty</text>
<polyline fill="none" stroke="black" points="753.5,-419 858.5,-419"/>
<text text-anchor="middle" x="806" y="-403.8" font-family="Times,serif" font-size="14.00">totalQty</text>
<polyline fill="none" stroke="black" points="753.5,-396 858.5,-396"/>
<text text-anchor="middle" x="806" y="-380.8" font-family="Times,serif" font-size="14.00">totalPendingQty</text>
<polyline fill="none" stroke="black" points="753.5,-373 858.5,-373"/>
<text text-anchor="middle" x="806" y="-357.8" font-family="Times,serif" font-size="14.00">totalSku</text>
</g>
<!-- ContainerBag&#45;&gt;Container -->
<g id="edge25" class="edge">
<title>ContainerBag&#45;&gt;Container:getContainerItemBag</title>
<path fill="none" stroke="black" stroke-dasharray="5,2" d="M858.7,-374.35C869.92,-364.66 880.46,-355.56 887.26,-349.69"/>
<polygon fill="black" stroke="black" points="889.72,-352.19 895,-343 885.14,-346.89 889.72,-352.19"/>
</g>
<!-- ContainerItemBag -->
<g id="node7" class="node">
<title>ContainerItemBag</title>
<polygon fill="none" stroke="black" points="903.5,-397 903.5,-489 1020.5,-489 1020.5,-397 903.5,-397"/>
<text text-anchor="middle" x="962" y="-473.8" font-family="Times,serif" font-size="14.00">ContainerItemBag</text>
<polyline fill="none" stroke="black" points="903.5,-466 1020.5,-466"/>
<text text-anchor="middle" x="962" y="-450.8" font-family="Times,serif" font-size="14.00">totalQty</text>
<polyline fill="none" stroke="black" points="903.5,-443 1020.5,-443"/>
<text text-anchor="middle" x="962" y="-427.8" font-family="Times,serif" font-size="14.00">totalPendingQty</text>
<polyline fill="none" stroke="black" points="903.5,-420 1020.5,-420"/>
<text text-anchor="middle" x="962" y="-404.8" font-family="Times,serif" font-size="14.00">totalSku</text>
</g>
<!-- ContainerBag&#45;&gt;ContainerItemBag -->
<g id="edge24" class="edge">
<title>ContainerBag&#45;&gt;ContainerItemBag:totalPendingQty</title>
<path fill="none" stroke="black" stroke-dasharray="5,2" d="M858.67,-425.53C871.38,-427.13 883.68,-428.69 891.91,-429.73"/>
<polygon fill="black" stroke="black" points="891.64,-433.22 902,-431 892.52,-426.27 891.64,-433.22"/>
</g>
<!-- ContainerBag&#45;&gt;ContainerItemBag -->
<g id="edge26" class="edge">
<title>ContainerBag&#45;&gt;ContainerItemBag:totalQty</title>
<path fill="none" stroke="black" stroke-dasharray="5,2" d="M858.67,-438.58C871.73,-443.53 884.36,-448.31 892.58,-451.43"/>
<polygon fill="black" stroke="black" points="891.41,-454.73 902,-455 893.89,-448.18 891.41,-454.73"/>
</g>
<!-- ContainerBag&#45;&gt;ContainerItemBag -->
<g id="edge27" class="edge">
<title>ContainerBag&#45;&gt;ContainerItemBag:totalSku</title>
<path fill="none" stroke="black" stroke-dasharray="5,2" d="M858.67,-413.02C871.38,-411.55 883.68,-410.12 891.91,-409.17"/>
<polygon fill="black" stroke="black" points="892.47,-412.63 902,-408 891.66,-405.67 892.47,-412.63"/>
</g>
<!-- ContainerItemBag&#45;&gt;ContainerItem -->
<g id="edge28" class="edge">
<title>ContainerItemBag&#45;&gt;ContainerItem:getPendingQty</title>
<path fill="none" stroke="black" stroke-dasharray="5,2" d="M1020.56,-436.79C1033.75,-435.37 1046.35,-434.01 1054.74,-433.11"/>
<polygon fill="black" stroke="black" points="1055.43,-436.55 1065,-432 1054.68,-429.59 1055.43,-436.55"/>
</g>
<!-- ContainerItemBag&#45;&gt;ContainerItem -->
<g id="edge29" class="edge">
<title>ContainerItemBag&#45;&gt;ContainerItem:getExpectedQty</title>
<path fill="none" stroke="black" stroke-dasharray="5,2" d="M1020.56,-449.77C1033.75,-451.32 1046.35,-452.81 1054.74,-453.79"/>
<polygon fill="black" stroke="black" points="1054.66,-457.31 1065,-455 1055.48,-450.36 1054.66,-457.31"/>
</g>
<!-- Order -->
<g id="node8" class="node">
<title>Order</title>
<polygon fill="none" stroke="black" points="401,-732 401,-870 544,-870 544,-732 401,-732"/>
<text text-anchor="middle" x="472.5" y="-854.8" font-family="Times,serif" font-size="14.00">Order</text>
<polyline fill="none" stroke="black" points="401,-847 544,-847"/>
<text text-anchor="middle" x="472.5" y="-831.8" font-family="Times,serif" font-size="14.00">getOrderNo</text>
<polyline fill="none" stroke="black" points="401,-824 544,-824"/>
<text text-anchor="middle" x="472.5" y="-808.8" font-family="Times,serif" font-size="14.00">recommendPackQty</text>
<polyline fill="none" stroke="black" points="401,-801 544,-801"/>
<text text-anchor="middle" x="472.5" y="-785.8" font-family="Times,serif" font-size="14.00">checkedBy</text>
<polyline fill="none" stroke="black" points="401,-778 544,-778"/>
<text text-anchor="middle" x="472.5" y="-762.8" font-family="Times,serif" font-size="14.00">totalExpectedQty</text>
<polyline fill="none" stroke="black" points="401,-755 544,-755"/>
<text text-anchor="middle" x="472.5" y="-739.8" font-family="Times,serif" font-size="14.00">recommendedPlatform</text>
</g>
<!-- OrderCartons -->
<g id="node10" class="node">
<title>OrderCartons</title>
<polygon fill="none" stroke="black" points="596,-684 596,-730 716,-730 716,-684 596,-684"/>
<text text-anchor="middle" x="656" y="-714.8" font-family="Times,serif" font-size="14.00">OrderCartons</text>
<polyline fill="none" stroke="black" points="596,-707 716,-707"/>
<text text-anchor="middle" x="656" y="-691.8" font-family="Times,serif" font-size="14.00">totalCartonizedQty</text>
</g>
<!-- Order&#45;&gt;OrderCartons -->
<g id="edge38" class="edge">
<title>Order&#45;&gt;OrderCartons:totalCartonizedQty</title>
<path fill="none" stroke="black" stroke-dasharray="5,2" d="M544.18,-739.34C561.72,-724.04 578.12,-709.72 587.33,-701.69"/>
<polygon fill="black" stroke="black" points="589.77,-704.21 595,-695 585.16,-698.94 589.77,-704.21"/>
</g>
<!-- OrderLineBag -->
<g id="node12" class="node">
<title>OrderLineBag</title>
<polygon fill="none" stroke="black" points="600.5,-790 600.5,-836 711.5,-836 711.5,-790 600.5,-790"/>
<text text-anchor="middle" x="656" y="-820.8" font-family="Times,serif" font-size="14.00">OrderLineBag</text>
<polyline fill="none" stroke="black" points="600.5,-813 711.5,-813"/>
<text text-anchor="middle" x="656" y="-797.8" font-family="Times,serif" font-size="14.00">totalExpectedQty</text>
</g>
<!-- Order&#45;&gt;OrderLineBag -->
<g id="edge39" class="edge">
<title>Order&#45;&gt;OrderLineBag:totalExpectedQty</title>
<path fill="none" stroke="black" stroke-dasharray="5,2" d="M544.32,-801C561.89,-801 578.6,-801 588.82,-801"/>
<polygon fill="black" stroke="black" points="589,-804.5 599,-801 589,-797.5 589,-804.5"/>
</g>
<!-- OrderBag -->
<g id="node9" class="node">
<title>OrderBag</title>
<polygon fill="none" stroke="black" points="198,-785.5 198,-854.5 329,-854.5 329,-785.5 198,-785.5"/>
<text text-anchor="middle" x="263.5" y="-839.3" font-family="Times,serif" font-size="14.00">OrderBag</text>
<polyline fill="none" stroke="black" points="198,-831.5 329,-831.5"/>
<text text-anchor="middle" x="263.5" y="-816.3" font-family="Times,serif" font-size="14.00">canceledBag</text>
<polyline fill="none" stroke="black" points="198,-808.5 329,-808.5"/>
<text text-anchor="middle" x="263.5" y="-793.3" font-family="Times,serif" font-size="14.00">consumableCostFirst</text>
</g>
<!-- OrderBag&#45;&gt;Order -->
<g id="edge32" class="edge">
<title>OrderBag&#45;&gt;Order:getOrderNo</title>
<path fill="none" stroke="black" stroke-dasharray="5,2" d="M329.23,-827.67C352.51,-830.43 376.23,-833.24 389.29,-834.79"/>
<polygon fill="black" stroke="black" points="389.16,-838.3 399.5,-836 389.98,-831.35 389.16,-838.3"/>
</g>
<!-- OrderLine -->
<g id="node11" class="node">
<title>OrderLine</title>
<polygon fill="none" stroke="black" points="753,-789.5 753,-858.5 859,-858.5 859,-789.5 753,-789.5"/>
<text text-anchor="middle" x="806" y="-843.3" font-family="Times,serif" font-size="14.00">OrderLine</text>
<polyline fill="none" stroke="black" points="753,-835.5 859,-835.5"/>
<text text-anchor="middle" x="806" y="-820.3" font-family="Times,serif" font-size="14.00">getOrderLineNo</text>
<polyline fill="none" stroke="black" points="753,-812.5 859,-812.5"/>
<text text-anchor="middle" x="806" y="-797.3" font-family="Times,serif" font-size="14.00">expectedQty</text>
</g>
<!-- OrderLineBag&#45;&gt;OrderLine -->
<g id="edge33" class="edge">
<title>OrderLineBag&#45;&gt;OrderLine:getOrderLineNo</title>
<path fill="none" stroke="black" stroke-dasharray="5,2" d="M711.73,-819.27C723.69,-820.64 735.08,-821.95 742.85,-822.84"/>
<polygon fill="black" stroke="black" points="742.67,-826.34 753,-824 743.46,-819.38 742.67,-826.34"/>
</g>
<!-- OrderLineBag&#45;&gt;OrderLine -->
<g id="edge34" class="edge">
<title>OrderLineBag&#45;&gt;OrderLine:expectedQty</title>
<path fill="none" stroke="black" stroke-dasharray="5,2" d="M711.73,-806.16C723.69,-804.66 735.08,-803.24 742.85,-802.27"/>
<polygon fill="black" stroke="black" points="743.51,-805.71 753,-801 742.64,-798.77 743.51,-805.71"/>
</g>
<!-- Task -->
<g id="node14" class="node">
<title>Task</title>
<polygon fill="none" stroke="black" points="413,-389 413,-619 532,-619 532,-389 413,-389"/>
<text text-anchor="middle" x="472.5" y="-603.8" font-family="Times,serif" font-size="14.00">Task</text>
<polyline fill="none" stroke="black" points="413,-596 532,-596"/>
<text text-anchor="middle" x="472.5" y="-580.8" font-family="Times,serif" font-size="14.00">claimedWith</text>
<polyline fill="none" stroke="black" points="413,-573 532,-573"/>
<text text-anchor="middle" x="472.5" y="-557.8" font-family="Times,serif" font-size="14.00">orderNoSet</text>
<polyline fill="none" stroke="black" points="413,-550 532,-550"/>
<text text-anchor="middle" x="472.5" y="-534.8" font-family="Times,serif" font-size="14.00">containerBag</text>
<polyline fill="none" stroke="black" points="413,-527 532,-527"/>
<text text-anchor="middle" x="472.5" y="-511.8" font-family="Times,serif" font-size="14.00">totalQty</text>
<polyline fill="none" stroke="black" points="413,-504 532,-504"/>
<text text-anchor="middle" x="472.5" y="-488.8" font-family="Times,serif" font-size="14.00">isEmpty</text>
<polyline fill="none" stroke="black" points="413,-481 532,-481"/>
<text text-anchor="middle" x="472.5" y="-465.8" font-family="Times,serif" font-size="14.00">totalPendingQty</text>
<polyline fill="none" stroke="black" points="413,-458 532,-458"/>
<text text-anchor="middle" x="472.5" y="-442.8" font-family="Times,serif" font-size="14.00">plan</text>
<polyline fill="none" stroke="black" points="413,-435 532,-435"/>
<text text-anchor="middle" x="472.5" y="-419.8" font-family="Times,serif" font-size="14.00">removeOrderLines</text>
<polyline fill="none" stroke="black" points="413,-412 532,-412"/>
<text text-anchor="middle" x="472.5" y="-396.8" font-family="Times,serif" font-size="14.00">totalSku</text>
</g>
<!-- Task&#45;&gt;ContainerBag -->
<g id="edge45" class="edge">
<title>Task&#45;&gt;ContainerBag:orderNoSet</title>
<path fill="none" stroke="black" stroke-dasharray="5,2" d="M532.11,-516.06C563.18,-522.45 595,-529 595,-529 595,-529 717,-529 717,-529 717,-529 738.97,-483.22 748.59,-463.2"/>
<polygon fill="black" stroke="black" points="751.83,-464.53 753,-454 745.52,-461.5 751.83,-464.53"/>
</g>
<!-- Task&#45;&gt;ContainerBag -->
<g id="edge46" class="edge">
<title>Task&#45;&gt;ContainerBag:totalPendingQty</title>
<path fill="none" stroke="black" stroke-dasharray="5,2" d="M532.11,-468.78C563.18,-450.12 595,-431 595,-431 595,-431 708.53,-397.23 743.12,-386.94"/>
<polygon fill="black" stroke="black" points="744.41,-390.21 753,-384 742.42,-383.5 744.41,-390.21"/>
</g>
<!-- Task&#45;&gt;ContainerBag -->
<g id="edge47" class="edge">
<title>Task&#45;&gt;ContainerBag:totalQty</title>
<path fill="none" stroke="black" stroke-dasharray="5,2" d="M532.13,-484.01C604.19,-459.45 717,-421 717,-421 717,-421 732.88,-414.83 743.54,-410.68"/>
<polygon fill="black" stroke="black" points="744.95,-413.89 753,-407 742.41,-407.36 744.95,-413.89"/>
</g>
<!-- Task&#45;&gt;ContainerBag -->
<g id="edge48" class="edge">
<title>Task&#45;&gt;ContainerBag:totalSku</title>
<path fill="none" stroke="black" stroke-dasharray="5,2" d="M532.11,-449.97C563.18,-421.33 595,-392 595,-392 595,-392 708.53,-369.73 743.12,-362.94"/>
<polygon fill="black" stroke="black" points="743.86,-366.36 753,-361 742.51,-359.49 743.86,-366.36"/>
</g>
<!-- TaskOfSkuPending -->
<g id="node18" class="node">
<title>TaskOfSkuPending</title>
<polygon fill="none" stroke="black" points="595,-474 595,-520 717,-520 717,-474 595,-474"/>
<text text-anchor="middle" x="656" y="-504.8" font-family="Times,serif" font-size="14.00">TaskOfSkuPending</text>
<polyline fill="none" stroke="black" points="595,-497 717,-497"/>
<text text-anchor="middle" x="656" y="-481.8" font-family="Times,serif" font-size="14.00">confirmQty</text>
</g>
<!-- Task&#45;&gt;TaskOfSkuPending -->
<g id="edge44" class="edge">
<title>Task&#45;&gt;TaskOfSkuPending:confirmQty</title>
<path fill="none" stroke="black" stroke-dasharray="5,2" d="M532.11,-494.83C552.5,-491.65 573.21,-488.41 585.04,-486.56"/>
<polygon fill="black" stroke="black" points="585.66,-490 595,-485 584.58,-483.09 585.66,-490"/>
</g>
<!-- TaskBag -->
<g id="node15" class="node">
<title>TaskBag</title>
<polygon fill="none" stroke="black" points="209.5,-334 209.5,-426 317.5,-426 317.5,-334 209.5,-334"/>
<text text-anchor="middle" x="263.5" y="-410.8" font-family="Times,serif" font-size="14.00">TaskBag</text>
<polyline fill="none" stroke="black" points="209.5,-403 317.5,-403"/>
<text text-anchor="middle" x="263.5" y="-387.8" font-family="Times,serif" font-size="14.00">totalCheckedQty</text>
<polyline fill="none" stroke="black" points="209.5,-380 317.5,-380"/>
<text text-anchor="middle" x="263.5" y="-364.8" font-family="Times,serif" font-size="14.00">totalPendingQty</text>
<polyline fill="none" stroke="black" points="209.5,-357 317.5,-357"/>
<text text-anchor="middle" x="263.5" y="-341.8" font-family="Times,serif" font-size="14.00">platforms</text>
</g>
<!-- TaskBag&#45;&gt;ContainerBag -->
<g id="edge40" class="edge">
<title>TaskBag&#45;&gt;ContainerBag:totalPendingQty</title>
<path fill="none" stroke="black" stroke-dasharray="5,2" d="M317.79,-365.09C350.44,-355.95 386,-346 386,-346 386,-346 559,-346 559,-346 559,-346 717,-365 717,-365 717,-365 733.25,-373.58 743.92,-379.21"/>
<polygon fill="black" stroke="black" points="742.52,-382.43 753,-384 745.79,-376.24 742.52,-382.43"/>
</g>
<!-- TaskBag&#45;&gt;ContainerBag -->
<g id="edge42" class="edge">
<title>TaskBag&#45;&gt;ContainerBag:totalQty</title>
<path fill="none" stroke="black" stroke-dasharray="5,2" d="M317.79,-379.56C350.44,-379.29 386,-379 386,-379 386,-379 559,-379 559,-379 559,-379 702.93,-399.77 742.84,-405.53"/>
<polygon fill="black" stroke="black" points="742.6,-409.04 753,-407 743.6,-402.11 742.6,-409.04"/>
</g>
<!-- TaskBag&#45;&gt;Task -->
<g id="edge41" class="edge">
<title>TaskBag&#45;&gt;Task:containerBag</title>
<path fill="none" stroke="black" stroke-dasharray="5,2" d="M317.68,-417.94C335.06,-430.34 350,-441 350,-441 350,-441 390.99,-506.32 406.04,-530.3"/>
<polygon fill="black" stroke="black" points="403.22,-532.39 411.5,-539 409.15,-528.67 403.22,-532.39"/>
</g>
<!-- TaskCartons -->
<g id="node16" class="node">
<title>TaskCartons</title>
<polygon fill="none" stroke="black" points="221,-939 221,-985 306,-985 306,-939 221,-939"/>
<text text-anchor="middle" x="263.5" y="-969.8" font-family="Times,serif" font-size="14.00">TaskCartons</text>
<polyline fill="none" stroke="black" points="221,-962 306,-962"/>
<text text-anchor="middle" x="263.5" y="-946.8" font-family="Times,serif" font-size="14.00">contains</text>
</g>
<!-- TaskOfOrderPending -->
<g id="node17" class="node">
<title>TaskOfOrderPending</title>
<polygon fill="none" stroke="black" points="197,-81 197,-127 330,-127 330,-81 197,-81"/>
<text text-anchor="middle" x="263.5" y="-111.8" font-family="Times,serif" font-size="14.00">TaskOfOrderPending</text>
<polyline fill="none" stroke="black" points="197,-104 330,-104"/>
<text text-anchor="middle" x="263.5" y="-88.8" font-family="Times,serif" font-size="14.00">confirmQty</text>
</g>
<!-- TaskOfSkuPending&#45;&gt;ContainerBag -->
<g id="edge43" class="edge">
<title>TaskOfSkuPending&#45;&gt;ContainerBag:confirmQty</title>
<path fill="none" stroke="black" stroke-dasharray="5,2" d="M693.63,-473.8C706.12,-465.89 717,-459 717,-459 717,-459 734.4,-445.46 745.01,-437.21"/>
<polygon fill="black" stroke="black" points="747.26,-439.9 753,-431 742.96,-434.38 747.26,-439.9"/>
</g>
<!-- CheckingAppService -->
<g id="node19" class="node">
<title>CheckingAppService</title>
<polygon fill="none" stroke="black" points="4.5,-327 4.5,-363 136.5,-363 136.5,-327 4.5,-327"/>
<text text-anchor="middle" x="70.5" y="-341.3" font-family="Times,serif" font-size="14.00">CheckingAppService</text>
</g>
<!-- CheckingAppService&#45;&gt;Carton -->
<g id="edge8" class="edge">
<title>CheckingAppService&#45;&gt;Carton:cartonizationRule</title>
<path fill="none" stroke="black" stroke-dasharray="5,2" d="M136.8,-329.99C219.11,-311.08 350,-281 350,-281 350,-281 374.22,-205.63 382.93,-178.55"/>
<polygon fill="black" stroke="black" points="386.27,-179.59 386,-169 379.61,-177.45 386.27,-179.59"/>
</g>
<!-- CheckingAppService&#45;&gt;Carton -->
<g id="edge9" class="edge">
<title>CheckingAppService&#45;&gt;Carton:bindOrder</title>
<path fill="none" stroke="black" stroke-dasharray="5,2" d="M77.02,-326.94C98.73,-255.95 177,0 177,0 177,0 350,0 350,0 350,0 372.19,-47.47 381.73,-67.86"/>
<polygon fill="black" stroke="black" points="378.59,-69.42 386,-77 384.94,-66.46 378.59,-69.42"/>
</g>
<!-- CheckingAppService&#45;&gt;Carton -->
<g id="edge10" class="edge">
<title>CheckingAppService&#45;&gt;Carton:transferFrom</title>
<path fill="none" stroke="black" stroke-dasharray="5,2" d="M78.59,-326.6C102.24,-265.16 177,-71 177,-71 177,-71 350,-71 350,-71 350,-71 369.83,-99.64 380.06,-114.41"/>
<polygon fill="black" stroke="black" points="377.43,-116.77 386,-123 383.19,-112.79 377.43,-116.77"/>
</g>
<!-- CheckingAppService&#45;&gt;Carton -->
<g id="edge13" class="edge">
<title>CheckingAppService&#45;&gt;Carton:installConsumables</title>
<path fill="none" stroke="black" stroke-dasharray="5,2" d="M101.45,-326.83C132.64,-307.91 177,-281 177,-281 177,-281 350,-247 350,-247 350,-247 373.54,-180.96 382.55,-155.68"/>
<polygon fill="black" stroke="black" points="385.94,-156.59 386,-146 379.35,-154.24 385.94,-156.59"/>
</g>
<!-- CheckingAppService&#45;&gt;Carton -->
<g id="edge14" class="edge">
<title>CheckingAppService&#45;&gt;Carton:fulfill</title>
<path fill="none" stroke="black" stroke-dasharray="5,2" d="M78.42,-326.76C101.89,-264.91 177,-67 177,-67 177,-67 350,-67 350,-67 350,-67 367.8,-83.31 378.37,-93"/>
<polygon fill="black" stroke="black" points="376.26,-95.82 386,-100 380.99,-90.66 376.26,-95.82"/>
</g>
<!-- CheckingAppService&#45;&gt;CartonBag -->
<g id="edge4" class="edge">
<title>CheckingAppService&#45;&gt;CartonBag:fulfill</title>
<path fill="none" stroke="black" stroke-dasharray="5,2" d="M83.19,-326.71C105.83,-291.3 154.88,-214.6 171.42,-188.72"/>
<polygon fill="black" stroke="black" points="174.56,-190.31 177,-180 168.66,-186.54 174.56,-190.31"/>
</g>
<!-- CheckingAppService&#45;&gt;CartonBag -->
<g id="edge5" class="edge">
<title>CheckingAppService&#45;&gt;CartonBag:putOnPallet</title>
<path fill="none" stroke="black" stroke-dasharray="5,2" d="M81.62,-326.97C103.69,-287.64 155.51,-195.29 171.92,-166.05"/>
<polygon fill="black" stroke="black" points="175.16,-167.43 177,-157 169.05,-164.01 175.16,-167.43"/>
</g>
<!-- CheckingAppService&#45;&gt;CartonBag -->
<g id="edge7" class="edge">
<title>CheckingAppService&#45;&gt;CartonBag:deductConsumableInventory</title>
<path fill="none" stroke="black" stroke-dasharray="5,2" d="M85.08,-326.86C108.23,-295.91 154.44,-234.15 170.96,-212.07"/>
<polygon fill="black" stroke="black" points="173.81,-214.1 177,-204 168.21,-209.91 173.81,-214.1"/>
</g>
<!-- CheckingAppService&#45;&gt;Order -->
<g id="edge6" class="edge">
<title>CheckingAppService&#45;&gt;Order:checkedBy</title>
<path fill="none" stroke="black" stroke-dasharray="5,2" d="M77.02,-363.17C98.73,-434.57 177,-692 177,-692 177,-692 350,-742 350,-742 350,-742 378.43,-768.99 392.2,-782.06"/>
<polygon fill="black" stroke="black" points="389.84,-784.65 399.5,-789 394.66,-779.58 389.84,-784.65"/>
</g>
<!-- CheckingAppService&#45;&gt;Order -->
<g id="edge12" class="edge">
<title>CheckingAppService&#45;&gt;Order:recommendPackQty</title>
<path fill="none" stroke="black" stroke-dasharray="5,2" d="M76.45,-363.1C97.3,-439.41 177,-731 177,-731 177,-731 350,-776 350,-776 350,-776 377.27,-796.38 391.33,-806.89"/>
<polygon fill="black" stroke="black" points="389.39,-809.82 399.5,-813 393.59,-804.21 389.39,-809.82"/>
</g>
<!-- CheckingAppService&#45;&gt;Order -->
<g id="edge15" class="edge">
<title>CheckingAppService&#45;&gt;Order:recommendedPlatform</title>
<path fill="none" stroke="black" stroke-dasharray="5,2" d="M82.39,-363.17C109.35,-408.14 177,-521 177,-521 177,-521 350,-637 350,-637 350,-637 386,-722 386,-722 386,-722 390.27,-728.64 394.01,-734.46"/>
<polygon fill="black" stroke="black" points="391.15,-736.48 399.5,-743 397.04,-732.7 391.15,-736.48"/>
</g>
<!-- CheckingAppService&#45;&gt;OrderBag -->
<g id="edge11" class="edge">
<title>CheckingAppService&#45;&gt;OrderBag:canceledBag</title>
<path fill="none" stroke="black" stroke-dasharray="5,2" d="M76.03,-363.26C96.23,-444.61 177,-770 177,-770 177,-770 187.07,-795.83 192.74,-810.36"/>
<polygon fill="black" stroke="black" points="189.61,-811.96 196.5,-820 196.13,-809.41 189.61,-811.96"/>
</g>
<!-- CheckingAppService&#45;&gt;Task -->
<g id="edge19" class="edge">
<title>CheckingAppService&#45;&gt;Task:removeOrderLines</title>
<path fill="none" stroke="black" stroke-dasharray="5,2" d="M92.85,-363.21C123.68,-389.51 177,-435 177,-435 177,-435 350,-435 350,-435 350,-435 384.23,-428.32 401.62,-424.93"/>
<polygon fill="black" stroke="black" points="402.36,-428.35 411.5,-423 401.01,-421.48 402.36,-428.35"/>
</g>
<!-- CheckingAppService&#45;&gt;Task -->
<g id="edge20" class="edge">
<title>CheckingAppService&#45;&gt;Task:isEmpty</title>
<path fill="none" stroke="black" stroke-dasharray="5,2" d="M83.4,-363.27C110.99,-405.64 177,-507 177,-507 177,-507 350,-507 350,-507 350,-507 384.23,-498.65 401.62,-494.41"/>
<polygon fill="black" stroke="black" points="402.61,-497.77 411.5,-492 400.96,-490.97 402.61,-497.77"/>
</g>
<!-- CheckingAppService&#45;&gt;Task -->
<g id="edge21" class="edge">
<title>CheckingAppService&#45;&gt;Task:plan</title>
<path fill="none" stroke="black" stroke-dasharray="5,2" d="M89.88,-363.12C120.1,-392.91 177,-449 177,-449 177,-449 350,-449 350,-449 350,-449 383.88,-447.35 401.34,-446.5"/>
<polygon fill="black" stroke="black" points="401.68,-449.98 411.5,-446 401.34,-442.99 401.68,-449.98"/>
</g>
<!-- CheckingAppService&#45;&gt;TaskBag -->
<g id="edge16" class="edge">
<title>CheckingAppService&#45;&gt;TaskBag:platforms</title>
<path fill="none" stroke="black" stroke-dasharray="5,2" d="M136.79,-345C160.5,-345 184.72,-345 198.06,-345"/>
<polygon fill="black" stroke="black" points="198.5,-348.5 208.5,-345 198.5,-341.5 198.5,-348.5"/>
</g>
<!-- CheckingAppService&#45;&gt;TaskBag -->
<g id="edge17" class="edge">
<title>CheckingAppService&#45;&gt;TaskBag:totalCheckedQty</title>
<path fill="none" stroke="black" stroke-dasharray="5,2" d="M124.08,-363.04C151.84,-372.56 183.31,-383.36 198.81,-388.68"/>
<polygon fill="black" stroke="black" points="197.91,-392.07 208.5,-392 200.18,-385.44 197.91,-392.07"/>
</g>
<!-- CheckingAppService&#45;&gt;TaskBag -->
<g id="edge18" class="edge">
<title>CheckingAppService&#45;&gt;TaskBag:totalPendingQty</title>
<path fill="none" stroke="black" stroke-dasharray="5,2" d="M136.79,-355.96C160.77,-359.99 185.28,-364.1 198.52,-366.33"/>
<polygon fill="black" stroke="black" points="198.06,-369.8 208.5,-368 199.22,-362.89 198.06,-369.8"/>
</g>
<!-- CheckingAppService&#45;&gt;TaskOfOrderPending -->
<g id="edge3" class="edge">
<title>CheckingAppService&#45;&gt;TaskOfOrderPending:confirmQty</title>
<path fill="none" stroke="black" stroke-dasharray="5,2" d="M80.42,-326.8C104.96,-276.73 172.89,-138.12 191.01,-101.16"/>
<polygon fill="black" stroke="black" points="194.24,-102.52 195.5,-92 187.96,-99.44 194.24,-102.52"/>
</g>
<!-- ConsumableBag -->
<g id="node20" class="node">
<title>ConsumableBag</title>
<polygon fill="none" stroke="black" points="17,-867 17,-903 124,-903 124,-867 17,-867"/>
<text text-anchor="middle" x="70.5" y="-881.3" font-family="Times,serif" font-size="14.00">ConsumableBag</text>
</g>
<!-- ConsumableBag&#45;&gt;Consumable -->
<g id="edge22" class="edge">
<title>ConsumableBag&#45;&gt;Consumable:isInventory</title>
<path fill="none" stroke="black" stroke-dasharray="5,2" d="M124.1,-885C155.34,-885 192.14,-885 209.49,-885"/>
<polygon fill="black" stroke="black" points="209.5,-888.5 219.5,-885 209.5,-881.5 209.5,-888.5"/>
</g>
<!-- ConsumableExtPolicy -->
<g id="node21" class="node">
<title>ConsumableExtPolicy</title>
<polygon fill="none" stroke="black" points="1.5,-779 1.5,-815 139.5,-815 139.5,-779 1.5,-779"/>
<text text-anchor="middle" x="70.5" y="-793.3" font-family="Times,serif" font-size="14.00">ConsumableExtPolicy</text>
</g>
<!-- ConsumableExtPolicy&#45;&gt;OrderBag -->
<g id="edge23" class="edge">
<title>ConsumableExtPolicy&#45;&gt;OrderBag:consumableCostFirst</title>
<path fill="none" stroke="black" stroke-dasharray="5,2" d="M139.85,-797C158.09,-797 175.66,-797 186.27,-797"/>
<polygon fill="black" stroke="black" points="186.5,-800.5 196.5,-797 186.5,-793.5 186.5,-800.5"/>
</g>
<!-- OrderNotCartonizedYet -->
<g id="node22" class="node">
<title>OrderNotCartonizedYet</title>
<polygon fill="none" stroke="black" points="399.5,-677 399.5,-713 545.5,-713 545.5,-677 399.5,-677"/>
<text text-anchor="middle" x="472.5" y="-691.3" font-family="Times,serif" font-size="14.00">OrderNotCartonizedYet</text>
</g>
<!-- OrderNotCartonizedYet&#45;&gt;OrderCartons -->
<g id="edge35" class="edge">
<title>OrderNotCartonizedYet&#45;&gt;OrderCartons:totalCartonizedQty</title>
<path fill="none" stroke="black" stroke-dasharray="5,2" d="M545.58,-695C561.12,-695 575.62,-695 584.85,-695"/>
<polygon fill="black" stroke="black" points="585,-698.5 595,-695 585,-691.5 585,-698.5"/>
</g>
<!-- OrderNotFullyCartonized -->
<g id="node23" class="node">
<title>OrderNotFullyCartonized</title>
<polygon fill="none" stroke="black" points="185.5,-647 185.5,-683 341.5,-683 341.5,-647 185.5,-647"/>
<text text-anchor="middle" x="263.5" y="-661.3" font-family="Times,serif" font-size="14.00">OrderNotFullyCartonized</text>
</g>
<!-- OrderNotFullyCartonized&#45;&gt;Order -->
<g id="edge36" class="edge">
<title>OrderNotFullyCartonized&#45;&gt;Order:totalExpectedQty</title>
<path fill="none" stroke="black" stroke-dasharray="5,2" d="M306.25,-683.07C327.95,-692.46 350,-702 350,-702 350,-702 379.91,-740.67 393.23,-757.89"/>
<polygon fill="black" stroke="black" points="390.61,-760.23 399.5,-766 396.15,-755.95 390.61,-760.23"/>
</g>
<!-- OrderNotFullyCartonized&#45;&gt;OrderCartons -->
<g id="edge37" class="edge">
<title>OrderNotFullyCartonized&#45;&gt;OrderCartons:totalCartonizedQty</title>
<path fill="none" stroke="black" stroke-dasharray="5,2" d="M341.88,-665.53C429.13,-666.12 559,-667 559,-667 559,-667 576.4,-680.54 587.01,-688.79"/>
<polygon fill="black" stroke="black" points="584.96,-691.62 595,-695 589.26,-686.1 584.96,-691.62"/>
</g>
<!-- UniqueCodeConstraint -->
<g id="node24" class="node">
<title>UniqueCodeConstraint</title>
<polygon fill="none" stroke="black" points="0,-932 0,-968 141,-968 141,-932 0,-932"/>
<text text-anchor="middle" x="70.5" y="-946.3" font-family="Times,serif" font-size="14.00">UniqueCodeConstraint</text>
</g>
<!-- UniqueCodeConstraint&#45;&gt;TaskCartons -->
<g id="edge49" class="edge">
<title>UniqueCodeConstraint&#45;&gt;TaskCartons:contains</title>
<path fill="none" stroke="black" stroke-dasharray="5,2" d="M141.17,-950C167.56,-950 194.69,-950 209.06,-950"/>
<polygon fill="black" stroke="black" points="209.5,-953.5 219.5,-950 209.5,-946.5 209.5,-953.5"/>
</g>
</g>
</svg>
