<?xml version="1.0" encoding="UTF-8" standalone="no"?>
<!DOCTYPE svg PUBLIC "-//W3C//DTD SVG 1.1//EN"
 "http://www.w3.org/Graphics/SVG/1.1/DTD/svg11.dtd">
<!-- Generated by graphviz version 6.0.1 (20220911.1526)
 -->
<!-- Title: G Pages: 1 -->
<svg width="711pt" height="1792pt"
 viewBox="0.00 0.00 710.55 1792.00" xmlns="http://www.w3.org/2000/svg" xmlns:xlink="http://www.w3.org/1999/xlink">
<g id="graph0" class="graph" transform="scale(1 1) rotate(0) translate(4 1788)">
<title>G</title>
<polygon fill="white" stroke="none" points="-4,4 -4,-1788 706.55,-1788 706.55,4 -4,4"/>
<text text-anchor="middle" x="351.28" y="-1768.8" font-family="Times,serif" font-size="14.00">Call Graph</text>
<!-- CheckingAppService -->
<g id="node1" class="node">
<title>CheckingAppService</title>
<ellipse fill="none" stroke="black" cx="101.39" cy="-589" rx="85.59" ry="18"/>
<text text-anchor="middle" x="101.39" y="-585.3" font-family="Times,serif" font-size="14.00">CheckingAppService</text>
</g>
<!-- OrderBag.canceledBag -->
<g id="node2" class="node">
<title>OrderBag.canceledBag</title>
<ellipse fill="none" stroke="black" cx="549.17" cy="-1051" rx="92.88" ry="18"/>
<text text-anchor="middle" x="549.17" y="-1047.3" font-family="Times,serif" font-size="14.00">OrderBag.canceledBag</text>
</g>
<!-- CheckingAppService&#45;&gt;OrderBag.canceledBag -->
<g id="edge1" class="edge">
<title>CheckingAppService&#45;&gt;OrderBag.canceledBag</title>
<path fill="none" stroke="black" d="M104.46,-607.11C113.52,-683.13 152.42,-975.14 220.78,-1031 294.17,-1090.96 410.5,-1081.41 482.92,-1067.39"/>
<polygon fill="black" stroke="black" points="483.73,-1070.8 492.84,-1065.39 482.35,-1063.94 483.73,-1070.8"/>
<text text-anchor="middle" x="299.28" y="-1080.8" font-family="Times,serif" font-size="14.00">canceledBag</text>
</g>
<!-- CheckingAppService&#45;&gt;OrderBag.canceledBag -->
<g id="edge9" class="edge">
<title>CheckingAppService&#45;&gt;OrderBag.canceledBag</title>
<path fill="none" stroke="black" d="M105.04,-607.15C115.9,-678.83 159.31,-940.9 220.78,-993 247.59,-1015.72 344.13,-1001.88 377.78,-1012 386.35,-1014.58 387.32,-1018.11 395.78,-1021 417.34,-1028.36 441.27,-1034.13 463.66,-1038.56"/>
<polygon fill="black" stroke="black" points="463,-1042 473.48,-1040.44 464.32,-1035.12 463,-1042"/>
<text text-anchor="middle" x="299.28" y="-1015.8" font-family="Times,serif" font-size="14.00">canceledBag</text>
</g>
<!-- Task.removeOrderLines -->
<g id="node3" class="node">
<title>Task.removeOrderLines</title>
<ellipse fill="none" stroke="black" cx="549.17" cy="-994" rx="96.68" ry="18"/>
<text text-anchor="middle" x="549.17" y="-990.3" font-family="Times,serif" font-size="14.00">Task.removeOrderLines</text>
</g>
<!-- CheckingAppService&#45;&gt;Task.removeOrderLines -->
<g id="edge2" class="edge">
<title>CheckingAppService&#45;&gt;Task.removeOrderLines</title>
<path fill="none" stroke="black" d="M101.99,-607.14C101.75,-667.63 109.88,-863.8 220.78,-955 229.74,-962.37 358.61,-976.04 451.95,-985.08"/>
<polygon fill="black" stroke="black" points="451.71,-988.57 462,-986.05 452.38,-981.61 451.71,-988.57"/>
<text text-anchor="middle" x="299.28" y="-979.8" font-family="Times,serif" font-size="14.00">removeOrderLines</text>
</g>
<!-- Task.isEmpty -->
<g id="node4" class="node">
<title>Task.isEmpty</title>
<ellipse fill="none" stroke="black" cx="549.17" cy="-940" rx="59.59" ry="18"/>
<text text-anchor="middle" x="549.17" y="-936.3" font-family="Times,serif" font-size="14.00">Task.isEmpty</text>
</g>
<!-- CheckingAppService&#45;&gt;Task.isEmpty -->
<g id="edge3" class="edge">
<title>CheckingAppService&#45;&gt;Task.isEmpty</title>
<path fill="none" stroke="black" d="M102.98,-607.05C105.85,-662.13 122.62,-828.91 220.78,-905 259.76,-935.21 394.93,-940.6 478.91,-940.9"/>
<polygon fill="black" stroke="black" points="479.14,-944.4 489.14,-940.91 479.15,-937.4 479.14,-944.4"/>
<text text-anchor="middle" x="299.28" y="-940.8" font-family="Times,serif" font-size="14.00">isEmpty</text>
</g>
<!-- Task.plan -->
<g id="node5" class="node">
<title>Task.plan</title>
<ellipse fill="none" stroke="black" cx="549.17" cy="-886" rx="45.49" ry="18"/>
<text text-anchor="middle" x="549.17" y="-882.3" font-family="Times,serif" font-size="14.00">Task.plan</text>
</g>
<!-- CheckingAppService&#45;&gt;Task.plan -->
<g id="edge4" class="edge">
<title>CheckingAppService&#45;&gt;Task.plan</title>
<path fill="none" stroke="black" d="M104.21,-607.31C110.25,-657.27 134.45,-796.27 220.78,-858 263.22,-888.35 412.17,-889.62 493.75,-887.88"/>
<polygon fill="black" stroke="black" points="493.92,-891.37 503.83,-887.64 493.75,-884.38 493.92,-891.37"/>
<text text-anchor="middle" x="299.28" y="-889.8" font-family="Times,serif" font-size="14.00">plan</text>
</g>
<!-- TaskBag.totalCheckedQty -->
<g id="node6" class="node">
<title>TaskBag.totalCheckedQty</title>
<ellipse fill="none" stroke="black" cx="549.17" cy="-832" rx="103.98" ry="18"/>
<text text-anchor="middle" x="549.17" y="-828.3" font-family="Times,serif" font-size="14.00">TaskBag.totalCheckedQty</text>
</g>
<!-- CheckingAppService&#45;&gt;TaskBag.totalCheckedQty -->
<g id="edge5" class="edge">
<title>CheckingAppService&#45;&gt;TaskBag.totalCheckedQty</title>
<path fill="none" stroke="black" d="M107.04,-607.14C118.53,-647.98 152.46,-747.02 220.78,-792 288.36,-836.49 381.08,-844.05 450.6,-841.9"/>
<polygon fill="black" stroke="black" points="450.82,-845.39 460.68,-841.51 450.55,-838.4 450.82,-845.39"/>
<text text-anchor="middle" x="299.28" y="-842.8" font-family="Times,serif" font-size="14.00">totalCheckedQty</text>
</g>
<!-- TaskBag.totalPendingQty -->
<g id="node7" class="node">
<title>TaskBag.totalPendingQty</title>
<ellipse fill="none" stroke="black" cx="549.17" cy="-778" rx="102.08" ry="18"/>
<text text-anchor="middle" x="549.17" y="-774.3" font-family="Times,serif" font-size="14.00">TaskBag.totalPendingQty</text>
</g>
<!-- CheckingAppService&#45;&gt;TaskBag.totalPendingQty -->
<g id="edge6" class="edge">
<title>CheckingAppService&#45;&gt;TaskBag.totalPendingQty</title>
<path fill="none" stroke="black" d="M112.36,-607.26C129.92,-637.49 169.42,-697.41 220.78,-726 286.67,-762.67 370.87,-775.42 437.38,-779.14"/>
<polygon fill="black" stroke="black" points="437.32,-782.64 447.48,-779.64 437.67,-775.65 437.32,-782.64"/>
<text text-anchor="middle" x="299.28" y="-776.8" font-family="Times,serif" font-size="14.00">totalPendingQty</text>
</g>
<!-- Order.recommendedPlatform -->
<g id="node8" class="node">
<title>Order.recommendedPlatform</title>
<ellipse fill="none" stroke="black" cx="549.17" cy="-724" rx="115.08" ry="18"/>
<text text-anchor="middle" x="549.17" y="-720.3" font-family="Times,serif" font-size="14.00">Order.recommendedPlatform</text>
</g>
<!-- CheckingAppService&#45;&gt;Order.recommendedPlatform -->
<g id="edge7" class="edge">
<title>CheckingAppService&#45;&gt;Order.recommendedPlatform</title>
<path fill="none" stroke="black" d="M122.68,-606.47C145.13,-624.8 183.13,-653.01 220.78,-668 288.03,-694.78 368.05,-708.76 432.15,-716.06"/>
<polygon fill="black" stroke="black" points="431.97,-719.56 442.29,-717.17 432.73,-712.6 431.97,-719.56"/>
<text text-anchor="middle" x="299.28" y="-710.8" font-family="Times,serif" font-size="14.00">recommendedPlatform</text>
</g>
<!-- TaskBag.platforms -->
<g id="node9" class="node">
<title>TaskBag.platforms</title>
<ellipse fill="none" stroke="black" cx="549.17" cy="-670" rx="78.79" ry="18"/>
<text text-anchor="middle" x="549.17" y="-666.3" font-family="Times,serif" font-size="14.00">TaskBag.platforms</text>
</g>
<!-- CheckingAppService&#45;&gt;TaskBag.platforms -->
<g id="edge8" class="edge">
<title>CheckingAppService&#45;&gt;TaskBag.platforms</title>
<path fill="none" stroke="black" d="M149.26,-604.06C170.86,-610.59 196.94,-617.89 220.78,-623 303.96,-640.83 400.5,-653.76 467.09,-661.49"/>
<polygon fill="black" stroke="black" points="466.77,-664.98 477.1,-662.64 467.57,-658.03 466.77,-664.98"/>
<text text-anchor="middle" x="299.28" y="-652.8" font-family="Times,serif" font-size="14.00">platforms</text>
</g>
<!-- Order.recommendPackQty -->
<g id="node10" class="node">
<title>Order.recommendPackQty</title>
<ellipse fill="none" stroke="black" cx="549.17" cy="-616" rx="105.88" ry="18"/>
<text text-anchor="middle" x="549.17" y="-612.3" font-family="Times,serif" font-size="14.00">Order.recommendPackQty</text>
</g>
<!-- CheckingAppService&#45;&gt;Order.recommendPackQty -->
<g id="edge10" class="edge">
<title>CheckingAppService&#45;&gt;Order.recommendPackQty</title>
<path fill="none" stroke="black" d="M183.89,-593.94C255.31,-598.26 359.7,-604.58 438.44,-609.35"/>
<polygon fill="black" stroke="black" points="438.69,-612.88 448.89,-609.99 439.12,-605.89 438.69,-612.88"/>
<text text-anchor="middle" x="299.28" y="-607.8" font-family="Times,serif" font-size="14.00">recommendPackQty</text>
</g>
<!-- Carton.cartonizationRule -->
<g id="node11" class="node">
<title>Carton.cartonizationRule</title>
<ellipse fill="none" stroke="black" cx="549.17" cy="-562" rx="99.38" ry="18"/>
<text text-anchor="middle" x="549.17" y="-558.3" font-family="Times,serif" font-size="14.00">Carton.cartonizationRule</text>
</g>
<!-- CheckingAppService&#45;&gt;Carton.cartonizationRule -->
<g id="edge11" class="edge">
<title>CheckingAppService&#45;&gt;Carton.cartonizationRule</title>
<path fill="none" stroke="black" d="M177.81,-580.73C192.07,-579.34 206.87,-578.02 220.78,-577 294.17,-571.6 376.96,-567.83 440.93,-565.42"/>
<polygon fill="black" stroke="black" points="441.17,-568.91 451.03,-565.04 440.91,-561.92 441.17,-568.91"/>
<text text-anchor="middle" x="299.28" y="-580.8" font-family="Times,serif" font-size="14.00">cartonizationRule</text>
</g>
<!-- Carton.bindOrder -->
<g id="node12" class="node">
<title>Carton.bindOrder</title>
<ellipse fill="none" stroke="black" cx="549.17" cy="-508" rx="73.39" ry="18"/>
<text text-anchor="middle" x="549.17" y="-504.3" font-family="Times,serif" font-size="14.00">Carton.bindOrder</text>
</g>
<!-- CheckingAppService&#45;&gt;Carton.bindOrder -->
<g id="edge12" class="edge">
<title>CheckingAppService&#45;&gt;Carton.bindOrder</title>
<path fill="none" stroke="black" d="M142.63,-573.15C165.27,-564.81 194.24,-555.08 220.78,-549 304.03,-529.93 401.36,-519.16 468.13,-513.5"/>
<polygon fill="black" stroke="black" points="468.49,-516.98 478.16,-512.67 467.91,-510.01 468.49,-516.98"/>
<text text-anchor="middle" x="299.28" y="-552.8" font-family="Times,serif" font-size="14.00">bindOrder</text>
</g>
<!-- Carton.transferFrom -->
<g id="node13" class="node">
<title>Carton.transferFrom</title>
<ellipse fill="none" stroke="black" cx="549.17" cy="-454" rx="83.39" ry="18"/>
<text text-anchor="middle" x="549.17" y="-450.3" font-family="Times,serif" font-size="14.00">Carton.transferFrom</text>
</g>
<!-- CheckingAppService&#45;&gt;Carton.transferFrom -->
<g id="edge13" class="edge">
<title>CheckingAppService&#45;&gt;Carton.transferFrom</title>
<path fill="none" stroke="black" d="M120.79,-571.46C142.73,-551.64 181.42,-520.05 220.78,-504 296.37,-473.19 388.8,-461.17 456.15,-456.58"/>
<polygon fill="black" stroke="black" points="456.56,-460.06 466.32,-455.93 456.11,-453.08 456.56,-460.06"/>
<text text-anchor="middle" x="299.28" y="-507.8" font-family="Times,serif" font-size="14.00">transferFrom</text>
</g>
<!-- TaskOfOrderPending.confirmQty -->
<g id="node14" class="node">
<title>TaskOfOrderPending.confirmQty</title>
<ellipse fill="none" stroke="black" cx="549.17" cy="-400" rx="129.98" ry="18"/>
<text text-anchor="middle" x="549.17" y="-396.3" font-family="Times,serif" font-size="14.00">TaskOfOrderPending.confirmQty</text>
</g>
<!-- CheckingAppService&#45;&gt;TaskOfOrderPending.confirmQty -->
<g id="edge14" class="edge">
<title>CheckingAppService&#45;&gt;TaskOfOrderPending.confirmQty</title>
<path fill="none" stroke="black" d="M111.55,-570.85C128.41,-539.49 167.6,-475.71 220.78,-446 278.1,-413.98 349.55,-401.39 411.07,-397.26"/>
<polygon fill="black" stroke="black" points="411.48,-400.74 421.25,-396.65 411.06,-393.76 411.48,-400.74"/>
<text text-anchor="middle" x="299.28" y="-449.8" font-family="Times,serif" font-size="14.00">confirmQty</text>
</g>
<!-- CartonBag.fulfill -->
<g id="node15" class="node">
<title>CartonBag.fulfill</title>
<ellipse fill="none" stroke="black" cx="549.17" cy="-346" rx="70.69" ry="18"/>
<text text-anchor="middle" x="549.17" y="-342.3" font-family="Times,serif" font-size="14.00">CartonBag.fulfill</text>
</g>
<!-- CheckingAppService&#45;&gt;CartonBag.fulfill -->
<g id="edge15" class="edge">
<title>CheckingAppService&#45;&gt;CartonBag.fulfill</title>
<path fill="none" stroke="black" d="M106.8,-570.76C117.9,-529.22 151.19,-427.63 220.78,-382 297.35,-331.79 406.22,-330.31 477.02,-336.24"/>
<polygon fill="black" stroke="black" points="476.91,-339.74 487.19,-337.16 477.54,-332.77 476.91,-339.74"/>
<text text-anchor="middle" x="299.28" y="-385.8" font-family="Times,serif" font-size="14.00">fulfill</text>
</g>
<!-- CartonBag.putOnPallet -->
<g id="node16" class="node">
<title>CartonBag.putOnPallet</title>
<ellipse fill="none" stroke="black" cx="549.17" cy="-292" rx="92.88" ry="18"/>
<text text-anchor="middle" x="549.17" y="-288.3" font-family="Times,serif" font-size="14.00">CartonBag.putOnPallet</text>
</g>
<!-- CheckingAppService&#45;&gt;CartonBag.putOnPallet -->
<g id="edge16" class="edge">
<title>CheckingAppService&#45;&gt;CartonBag.putOnPallet</title>
<path fill="none" stroke="black" d="M104.07,-570.81C109.78,-520.52 133.28,-379.24 220.78,-317 294.72,-264.41 403.28,-267.55 474.82,-277.45"/>
<polygon fill="black" stroke="black" points="474.7,-280.97 485.1,-278.96 475.71,-274.05 474.7,-280.97"/>
<text text-anchor="middle" x="299.28" y="-320.8" font-family="Times,serif" font-size="14.00">putOnPallet</text>
</g>
<!-- Order.checkedBy -->
<g id="node17" class="node">
<title>Order.checkedBy</title>
<ellipse fill="none" stroke="black" cx="549.17" cy="-238" rx="72.29" ry="18"/>
<text text-anchor="middle" x="549.17" y="-234.3" font-family="Times,serif" font-size="14.00">Order.checkedBy</text>
</g>
<!-- CheckingAppService&#45;&gt;Order.checkedBy -->
<g id="edge17" class="edge">
<title>CheckingAppService&#45;&gt;Order.checkedBy</title>
<path fill="none" stroke="black" d="M102.36,-570.87C103.36,-513.12 115.15,-332.64 220.78,-254 298.66,-196.02 418.14,-208.22 489.19,-222.8"/>
<polygon fill="black" stroke="black" points="488.8,-226.3 499.31,-224.96 490.26,-219.45 488.8,-226.3"/>
<text text-anchor="middle" x="299.28" y="-257.8" font-family="Times,serif" font-size="14.00">checkedBy</text>
</g>
<!-- CartonBag.deductConsumableInventory -->
<g id="node18" class="node">
<title>CartonBag.deductConsumableInventory</title>
<ellipse fill="none" stroke="black" cx="549.17" cy="-184" rx="153.27" ry="18"/>
<text text-anchor="middle" x="549.17" y="-180.3" font-family="Times,serif" font-size="14.00">CartonBag.deductConsumableInventory</text>
</g>
<!-- CheckingAppService&#45;&gt;CartonBag.deductConsumableInventory -->
<g id="edge18" class="edge">
<title>CheckingAppService&#45;&gt;CartonBag.deductConsumableInventory</title>
<path fill="none" stroke="black" d="M104.96,-570.99C115.48,-499.89 157.79,-240.16 220.78,-192 251.37,-168.62 341.2,-167.74 419.05,-172.09"/>
<polygon fill="black" stroke="black" points="419.26,-175.61 429.45,-172.71 419.68,-168.62 419.26,-175.61"/>
<text text-anchor="middle" x="299.28" y="-195.8" font-family="Times,serif" font-size="14.00">deductConsumableInventory</text>
</g>
<!-- Carton.installConsumables -->
<g id="node19" class="node">
<title>Carton.installConsumables</title>
<ellipse fill="none" stroke="black" cx="549.17" cy="-130" rx="106.68" ry="18"/>
<text text-anchor="middle" x="549.17" y="-126.3" font-family="Times,serif" font-size="14.00">Carton.installConsumables</text>
</g>
<!-- CheckingAppService&#45;&gt;Carton.installConsumables -->
<g id="edge19" class="edge">
<title>CheckingAppService&#45;&gt;Carton.installConsumables</title>
<path fill="none" stroke="black" d="M104.53,-570.85C113.83,-495.32 153.31,-207.31 220.78,-152 253.08,-125.52 355.79,-122.16 437.65,-124.12"/>
<polygon fill="black" stroke="black" points="437.69,-127.62 447.78,-124.39 437.88,-120.62 437.69,-127.62"/>
<text text-anchor="middle" x="299.28" y="-155.8" font-family="Times,serif" font-size="14.00">installConsumables</text>
</g>
<!-- Carton.fulfill -->
<g id="node20" class="node">
<title>Carton.fulfill</title>
<ellipse fill="none" stroke="black" cx="549.17" cy="-75" rx="56.59" ry="18"/>
<text text-anchor="middle" x="549.17" y="-71.3" font-family="Times,serif" font-size="14.00">Carton.fulfill</text>
</g>
<!-- CheckingAppService&#45;&gt;Carton.fulfill -->
<g id="edge20" class="edge">
<title>CheckingAppService&#45;&gt;Carton.fulfill</title>
<path fill="none" stroke="black" d="M104.07,-570.94C111.92,-490.88 147.68,-169.14 220.78,-106 258.68,-73.27 398.38,-70.84 482.56,-72.55"/>
<polygon fill="black" stroke="black" points="482.72,-76.06 492.79,-72.79 482.88,-69.06 482.72,-76.06"/>
<text text-anchor="middle" x="299.28" y="-109.8" font-family="Times,serif" font-size="14.00">fulfill</text>
</g>
<!-- Order -->
<g id="node21" class="node">
<title>Order</title>
<ellipse fill="none" stroke="black" cx="101.39" cy="-1246" rx="31.4" ry="18"/>
<text text-anchor="middle" x="101.39" y="-1242.3" font-family="Times,serif" font-size="14.00">Order</text>
</g>
<!-- OrderCartons.totalCartonizedQty -->
<g id="node22" class="node">
<title>OrderCartons.totalCartonizedQty</title>
<ellipse fill="none" stroke="black" cx="549.17" cy="-1181" rx="128.08" ry="18"/>
<text text-anchor="middle" x="549.17" y="-1177.3" font-family="Times,serif" font-size="14.00">OrderCartons.totalCartonizedQty</text>
</g>
<!-- Order&#45;&gt;OrderCartons.totalCartonizedQty -->
<g id="edge21" class="edge">
<title>Order&#45;&gt;OrderCartons.totalCartonizedQty</title>
<path fill="none" stroke="black" d="M131.98,-1241.68C195.59,-1232.41 347.8,-1210.22 449.43,-1195.4"/>
<polygon fill="black" stroke="black" points="450.02,-1198.85 459.41,-1193.94 449.01,-1191.92 450.02,-1198.85"/>
<text text-anchor="middle" x="299.28" y="-1231.8" font-family="Times,serif" font-size="14.00">totalCartonizedQty</text>
</g>
<!-- OrderLineBag.totalExpectedQty -->
<g id="node23" class="node">
<title>OrderLineBag.totalExpectedQty</title>
<ellipse fill="none" stroke="black" cx="549.17" cy="-1257" rx="125.38" ry="18"/>
<text text-anchor="middle" x="549.17" y="-1253.3" font-family="Times,serif" font-size="14.00">OrderLineBag.totalExpectedQty</text>
</g>
<!-- Order&#45;&gt;OrderLineBag.totalExpectedQty -->
<g id="edge22" class="edge">
<title>Order&#45;&gt;OrderLineBag.totalExpectedQty</title>
<path fill="none" stroke="black" d="M132.68,-1246.75C189.8,-1248.16 316.55,-1251.28 415.13,-1253.72"/>
<polygon fill="black" stroke="black" points="415.1,-1257.22 425.19,-1253.97 415.28,-1250.22 415.1,-1257.22"/>
<text text-anchor="middle" x="299.28" y="-1255.8" font-family="Times,serif" font-size="14.00">totalExpectedQty</text>
</g>
<!-- OrderNotFullyCartonized -->
<g id="node24" class="node">
<title>OrderNotFullyCartonized</title>
<ellipse fill="none" stroke="black" cx="101.39" cy="-1116" rx="101.28" ry="18"/>
<text text-anchor="middle" x="101.39" y="-1112.3" font-family="Times,serif" font-size="14.00">OrderNotFullyCartonized</text>
</g>
<!-- OrderNotFullyCartonized&#45;&gt;OrderCartons.totalCartonizedQty -->
<g id="edge24" class="edge">
<title>OrderNotFullyCartonized&#45;&gt;OrderCartons.totalCartonizedQty</title>
<path fill="none" stroke="black" d="M180.29,-1127.36C255.09,-1138.27 368.36,-1154.78 449.44,-1166.6"/>
<polygon fill="black" stroke="black" points="449.26,-1170.11 459.66,-1168.09 450.27,-1163.19 449.26,-1170.11"/>
<text text-anchor="middle" x="299.28" y="-1157.8" font-family="Times,serif" font-size="14.00">totalCartonizedQty</text>
</g>
<!-- Order.totalExpectedQty -->
<g id="node25" class="node">
<title>Order.totalExpectedQty</title>
<ellipse fill="none" stroke="black" cx="549.17" cy="-1105" rx="94.78" ry="18"/>
<text text-anchor="middle" x="549.17" y="-1101.3" font-family="Times,serif" font-size="14.00">Order.totalExpectedQty</text>
</g>
<!-- OrderNotFullyCartonized&#45;&gt;Order.totalExpectedQty -->
<g id="edge23" class="edge">
<title>OrderNotFullyCartonized&#45;&gt;Order.totalExpectedQty</title>
<path fill="none" stroke="black" d="M191.55,-1107.69C201.41,-1107 211.3,-1106.41 220.78,-1106 295.57,-1102.73 380.06,-1102.56 444.47,-1103.17"/>
<polygon fill="black" stroke="black" points="444.6,-1106.67 454.63,-1103.27 444.67,-1099.67 444.6,-1106.67"/>
<text text-anchor="middle" x="299.28" y="-1109.8" font-family="Times,serif" font-size="14.00">totalExpectedQty</text>
</g>
<!-- OrderNotCartonizedYet -->
<g id="node26" class="node">
<title>OrderNotCartonizedYet</title>
<ellipse fill="none" stroke="black" cx="101.39" cy="-1181" rx="94.78" ry="18"/>
<text text-anchor="middle" x="101.39" y="-1177.3" font-family="Times,serif" font-size="14.00">OrderNotCartonizedYet</text>
</g>
<!-- OrderNotCartonizedYet&#45;&gt;OrderCartons.totalCartonizedQty -->
<g id="edge25" class="edge">
<title>OrderNotCartonizedYet&#45;&gt;OrderCartons.totalCartonizedQty</title>
<path fill="none" stroke="black" d="M196.38,-1181C258.59,-1181 341.2,-1181 410.74,-1181"/>
<polygon fill="black" stroke="black" points="410.9,-1184.5 420.9,-1181 410.9,-1177.5 410.9,-1184.5"/>
<text text-anchor="middle" x="299.28" y="-1184.8" font-family="Times,serif" font-size="14.00">totalCartonizedQty</text>
</g>
<!-- ConsumableExtPolicy -->
<g id="node27" class="node">
<title>ConsumableExtPolicy</title>
<ellipse fill="none" stroke="black" cx="101.39" cy="-1311" rx="89.88" ry="18"/>
<text text-anchor="middle" x="101.39" y="-1307.3" font-family="Times,serif" font-size="14.00">ConsumableExtPolicy</text>
</g>
<!-- OrderBag.consumableCostFirst -->
<g id="node28" class="node">
<title>OrderBag.consumableCostFirst</title>
<ellipse fill="none" stroke="black" cx="549.17" cy="-1311" rx="122.38" ry="18"/>
<text text-anchor="middle" x="549.17" y="-1307.3" font-family="Times,serif" font-size="14.00">OrderBag.consumableCostFirst</text>
</g>
<!-- ConsumableExtPolicy&#45;&gt;OrderBag.consumableCostFirst -->
<g id="edge26" class="edge">
<title>ConsumableExtPolicy&#45;&gt;OrderBag.consumableCostFirst</title>
<path fill="none" stroke="black" d="M191.26,-1311C255.79,-1311 344.15,-1311 416.81,-1311"/>
<polygon fill="black" stroke="black" points="416.96,-1314.5 426.96,-1311 416.96,-1307.5 416.96,-1314.5"/>
<text text-anchor="middle" x="299.28" y="-1314.8" font-family="Times,serif" font-size="14.00">consumableCostFirst</text>
</g>
<!-- CartonBag -->
<g id="node29" class="node">
<title>CartonBag</title>
<ellipse fill="none" stroke="black" cx="101.39" cy="-37" rx="48.99" ry="18"/>
<text text-anchor="middle" x="101.39" y="-33.3" font-family="Times,serif" font-size="14.00">CartonBag</text>
</g>
<!-- CartonBag&#45;&gt;Carton.fulfill -->
<g id="edge27" class="edge">
<title>CartonBag&#45;&gt;Carton.fulfill</title>
<path fill="none" stroke="black" d="M149.7,-39.96C204.59,-43.51 297.8,-49.87 377.78,-57 413.47,-60.18 453.3,-64.35 485.47,-67.88"/>
<polygon fill="black" stroke="black" points="485.31,-71.38 495.63,-69 486.08,-64.43 485.31,-71.38"/>
<text text-anchor="middle" x="299.28" y="-60.8" font-family="Times,serif" font-size="14.00">fulfill</text>
</g>
<!-- Carton.deductConsumableInventory -->
<g id="node30" class="node">
<title>Carton.deductConsumableInventory</title>
<ellipse fill="none" stroke="black" cx="549.17" cy="-18" rx="139.18" ry="18"/>
<text text-anchor="middle" x="549.17" y="-14.3" font-family="Times,serif" font-size="14.00">Carton.deductConsumableInventory</text>
</g>
<!-- CartonBag&#45;&gt;Carton.deductConsumableInventory -->
<g id="edge28" class="edge">
<title>CartonBag&#45;&gt;Carton.deductConsumableInventory</title>
<path fill="none" stroke="black" d="M145.24,-28.92C167.65,-25.1 195.6,-20.94 220.78,-19 280.39,-14.4 346.28,-13.41 403.24,-13.85"/>
<polygon fill="black" stroke="black" points="403.36,-17.35 413.39,-13.94 403.43,-10.35 403.36,-17.35"/>
<text text-anchor="middle" x="299.28" y="-22.8" font-family="Times,serif" font-size="14.00">deductConsumableInventory</text>
</g>
<!-- TaskOfSkuPending -->
<g id="node31" class="node">
<title>TaskOfSkuPending</title>
<ellipse fill="none" stroke="black" cx="101.39" cy="-1365" rx="79.09" ry="18"/>
<text text-anchor="middle" x="101.39" y="-1361.3" font-family="Times,serif" font-size="14.00">TaskOfSkuPending</text>
</g>
<!-- ContainerBag.confirmQty -->
<g id="node32" class="node">
<title>ContainerBag.confirmQty</title>
<ellipse fill="none" stroke="black" cx="549.17" cy="-1365" rx="102.88" ry="18"/>
<text text-anchor="middle" x="549.17" y="-1361.3" font-family="Times,serif" font-size="14.00">ContainerBag.confirmQty</text>
</g>
<!-- TaskOfSkuPending&#45;&gt;ContainerBag.confirmQty -->
<g id="edge29" class="edge">
<title>TaskOfSkuPending&#45;&gt;ContainerBag.confirmQty</title>
<path fill="none" stroke="black" d="M180.81,-1365C251.6,-1365 356.57,-1365 436.19,-1365"/>
<polygon fill="black" stroke="black" points="436.26,-1368.5 446.26,-1365 436.26,-1361.5 436.26,-1368.5"/>
<text text-anchor="middle" x="299.28" y="-1368.8" font-family="Times,serif" font-size="14.00">confirmQty</text>
</g>
<!-- UniqueCodeConstraint -->
<g id="node33" class="node">
<title>UniqueCodeConstraint</title>
<ellipse fill="none" stroke="black" cx="101.39" cy="-1419" rx="91.78" ry="18"/>
<text text-anchor="middle" x="101.39" y="-1415.3" font-family="Times,serif" font-size="14.00">UniqueCodeConstraint</text>
</g>
<!-- TaskCartons.contains -->
<g id="node34" class="node">
<title>TaskCartons.contains</title>
<ellipse fill="none" stroke="black" cx="549.17" cy="-1419" rx="87.18" ry="18"/>
<text text-anchor="middle" x="549.17" y="-1415.3" font-family="Times,serif" font-size="14.00">TaskCartons.contains</text>
</g>
<!-- UniqueCodeConstraint&#45;&gt;TaskCartons.contains -->
<g id="edge30" class="edge">
<title>UniqueCodeConstraint&#45;&gt;TaskCartons.contains</title>
<path fill="none" stroke="black" d="M193.14,-1419C268.3,-1419 374.83,-1419 451.56,-1419"/>
<polygon fill="black" stroke="black" points="451.71,-1422.5 461.71,-1419 451.71,-1415.5 451.71,-1422.5"/>
<text text-anchor="middle" x="299.28" y="-1422.8" font-family="Times,serif" font-size="14.00">contains</text>
</g>
<!-- Task -->
<g id="node35" class="node">
<title>Task</title>
<ellipse fill="none" stroke="black" cx="101.39" cy="-1581" rx="27.9" ry="18"/>
<text text-anchor="middle" x="101.39" y="-1577.3" font-family="Times,serif" font-size="14.00">Task</text>
</g>
<!-- TaskOfSkuPending.confirmQty -->
<g id="node36" class="node">
<title>TaskOfSkuPending.confirmQty</title>
<ellipse fill="none" stroke="black" cx="549.17" cy="-1689" rx="122.68" ry="18"/>
<text text-anchor="middle" x="549.17" y="-1685.3" font-family="Times,serif" font-size="14.00">TaskOfSkuPending.confirmQty</text>
</g>
<!-- Task&#45;&gt;TaskOfSkuPending.confirmQty -->
<g id="edge31" class="edge">
<title>Task&#45;&gt;TaskOfSkuPending.confirmQty</title>
<path fill="none" stroke="black" d="M123.08,-1592.75C146.18,-1605.35 185.03,-1625.03 220.78,-1636 290.14,-1657.28 370.54,-1670.45 434.31,-1678.34"/>
<polygon fill="black" stroke="black" points="434.05,-1681.84 444.4,-1679.56 434.89,-1674.89 434.05,-1681.84"/>
<text text-anchor="middle" x="299.28" y="-1672.8" font-family="Times,serif" font-size="14.00">confirmQty</text>
</g>
<!-- ContainerBag.totalSku -->
<g id="node37" class="node">
<title>ContainerBag.totalSku</title>
<ellipse fill="none" stroke="black" cx="549.17" cy="-1635" rx="90.98" ry="18"/>
<text text-anchor="middle" x="549.17" y="-1631.3" font-family="Times,serif" font-size="14.00">ContainerBag.totalSku</text>
</g>
<!-- Task&#45;&gt;ContainerBag.totalSku -->
<g id="edge32" class="edge">
<title>Task&#45;&gt;ContainerBag.totalSku</title>
<path fill="none" stroke="black" d="M128.66,-1585.62C152.62,-1589.74 189.01,-1595.75 220.78,-1600 299.97,-1610.58 390.29,-1620.04 455.97,-1626.45"/>
<polygon fill="black" stroke="black" points="456,-1629.97 466.29,-1627.45 456.68,-1623 456,-1629.97"/>
<text text-anchor="middle" x="299.28" y="-1620.8" font-family="Times,serif" font-size="14.00">totalSku</text>
</g>
<!-- ContainerBag.totalQty -->
<g id="node38" class="node">
<title>ContainerBag.totalQty</title>
<ellipse fill="none" stroke="black" cx="549.17" cy="-1581" rx="90.98" ry="18"/>
<text text-anchor="middle" x="549.17" y="-1577.3" font-family="Times,serif" font-size="14.00">ContainerBag.totalQty</text>
</g>
<!-- Task&#45;&gt;ContainerBag.totalQty -->
<g id="edge33" class="edge">
<title>Task&#45;&gt;ContainerBag.totalQty</title>
<path fill="none" stroke="black" d="M129.61,-1581C191.44,-1581 345.11,-1581 448.03,-1581"/>
<polygon fill="black" stroke="black" points="448.14,-1584.5 458.14,-1581 448.14,-1577.5 448.14,-1584.5"/>
<text text-anchor="middle" x="299.28" y="-1584.8" font-family="Times,serif" font-size="14.00">totalQty</text>
</g>
<!-- ContainerBag.totalPendingQty -->
<g id="node39" class="node">
<title>ContainerBag.totalPendingQty</title>
<ellipse fill="none" stroke="black" cx="549.17" cy="-1527" rx="119.68" ry="18"/>
<text text-anchor="middle" x="549.17" y="-1523.3" font-family="Times,serif" font-size="14.00">ContainerBag.totalPendingQty</text>
</g>
<!-- Task&#45;&gt;ContainerBag.totalPendingQty -->
<g id="edge34" class="edge">
<title>Task&#45;&gt;ContainerBag.totalPendingQty</title>
<path fill="none" stroke="black" d="M128.66,-1576.38C152.62,-1572.26 189.01,-1566.25 220.78,-1562 292.58,-1552.41 373.52,-1543.74 436.95,-1537.42"/>
<polygon fill="black" stroke="black" points="437.37,-1540.9 446.98,-1536.43 436.68,-1533.93 437.37,-1540.9"/>
<text text-anchor="middle" x="299.28" y="-1565.8" font-family="Times,serif" font-size="14.00">totalPendingQty</text>
</g>
<!-- ContainerBag.orderNoSet -->
<g id="node40" class="node">
<title>ContainerBag.orderNoSet</title>
<ellipse fill="none" stroke="black" cx="549.17" cy="-1473" rx="102.88" ry="18"/>
<text text-anchor="middle" x="549.17" y="-1469.3" font-family="Times,serif" font-size="14.00">ContainerBag.orderNoSet</text>
</g>
<!-- Task&#45;&gt;ContainerBag.orderNoSet -->
<g id="edge35" class="edge">
<title>Task&#45;&gt;ContainerBag.orderNoSet</title>
<path fill="none" stroke="black" d="M122.63,-1569.23C145.65,-1556.38 184.72,-1536.14 220.78,-1525 294.24,-1502.3 380.2,-1489.13 445.59,-1481.73"/>
<polygon fill="black" stroke="black" points="446.35,-1485.17 455.91,-1480.59 445.59,-1478.21 446.35,-1485.17"/>
<text text-anchor="middle" x="299.28" y="-1528.8" font-family="Times,serif" font-size="14.00">orderNoSet</text>
</g>
<!-- ContainerBag -->
<g id="node41" class="node">
<title>ContainerBag</title>
<ellipse fill="none" stroke="black" cx="101.39" cy="-1743" rx="59.59" ry="18"/>
<text text-anchor="middle" x="101.39" y="-1739.3" font-family="Times,serif" font-size="14.00">ContainerBag</text>
</g>
<!-- ContainerItemBag.totalSku -->
<g id="node42" class="node">
<title>ContainerItemBag.totalSku</title>
<ellipse fill="none" stroke="black" cx="549.17" cy="-1743" rx="107.78" ry="18"/>
<text text-anchor="middle" x="549.17" y="-1739.3" font-family="Times,serif" font-size="14.00">ContainerItemBag.totalSku</text>
</g>
<!-- ContainerBag&#45;&gt;ContainerItemBag.totalSku -->
<g id="edge36" class="edge">
<title>ContainerBag&#45;&gt;ContainerItemBag.totalSku</title>
<path fill="none" stroke="black" d="M161.59,-1743C230.05,-1743 344.42,-1743 431.05,-1743"/>
<polygon fill="black" stroke="black" points="431.2,-1746.5 441.2,-1743 431.2,-1739.5 431.2,-1746.5"/>
<text text-anchor="middle" x="299.28" y="-1746.8" font-family="Times,serif" font-size="14.00">totalSku</text>
</g>
</g>
</svg>
