<?xml version="1.0" encoding="UTF-8" standalone="no"?><svg xmlns="http://www.w3.org/2000/svg" xmlns:xlink="http://www.w3.org/1999/xlink" contentScriptType="application/ecmascript" contentStyleType="text/css" height="749px" preserveAspectRatio="none" style="width:1218px;height:749px;" version="1.1" viewBox="0 0 1218 749" width="1218px" zoomAndPan="magnify"><defs><filter height="300%" id="fhf1ei0" width="300%" x="-1" y="-1"><feGaussianBlur result="blurOut" stdDeviation="2.0"/><feColorMatrix in="blurOut" result="blurOut2" type="matrix" values="0 0 0 0 0 0 0 0 0 0 0 0 0 0 0 0 0 0 .4 0"/><feOffset dx="4.0" dy="4.0" in="blurOut2" result="blurOut3"/><feBlend in="SourceGraphic" in2="blurOut3" mode="normal"/></filter></defs><g><text fill="#000000" font-family="sans-serif" font-size="18" lengthAdjust="spacingAndGlyphs" textLength="144" x="550.5" y="17.4023">技术实现细节指引</text><!--cluster 逆向业务模型--><polygon fill="#FFFFFF" filter="url(#fhf1ei0)" points="22,99.1992,112,99.1992,119,121.6875,1211,121.6875,1211,713.1992,22,713.1992,22,99.1992" style="stroke: #000000; stroke-width: 2.0;"/><line style="stroke: #000000; stroke-width: 2.0;" x1="22" x2="119" y1="121.6875" y2="121.6875"/><text fill="#000000" font-family="sans-serif" font-size="14" font-weight="bold" lengthAdjust="spacingAndGlyphs" textLength="84" x="26" y="114.7344">逆向业务模型</text><!--cluster Aggregate：技术实现--><polygon fill="#FFFFFF" filter="url(#fhf1ei0)" points="46,142.1992,195,142.1992,202,164.6875,1187,164.6875,1187,689.1992,46,689.1992,46,142.1992" style="stroke: #000000; stroke-width: 2.0;"/><line style="stroke: #000000; stroke-width: 2.0;" x1="46" x2="202" y1="164.6875" y2="164.6875"/><text fill="#000000" font-family="sans-serif" font-size="14" font-weight="bold" lengthAdjust="spacingAndGlyphs" textLength="143" x="50" y="157.7344">Aggregate：技术实现</text><text fill="#000000" font-family="sans-serif" font-size="14" font-style="italic" lengthAdjust="spacingAndGlyphs" textLength="215" x="513" y="180.2227">«ddd.plus.showcase.wms.infra»</text><!--class CartonOrderDb--><rect fill="#FEFECE" filter="url(#fhf1ei0)" height="99.8203" style="stroke: #A80036; stroke-width: 1.5;" width="324" x="68.5" y="566.1992"/><ellipse cx="181.75" cy="582.1992" fill="#ADD1B2" rx="11" ry="11" style="stroke: #A80036; stroke-width: 1.0;"/><path d="M184.2231,588.3423 Q183.6421,588.6411 183.0029,588.7905 Q182.3638,588.9399 181.6582,588.9399 Q179.1514,588.9399 177.8315,587.2881 Q176.5117,585.6362 176.5117,582.5151 Q176.5117,579.3857 177.8315,577.7339 Q179.1514,576.082 181.6582,576.082 Q182.3638,576.082 183.0112,576.2314 Q183.6587,576.3809 184.2231,576.6797 L184.2231,579.4023 Q183.5923,578.8213 182.9988,578.5515 Q182.4053,578.2817 181.7744,578.2817 Q180.4297,578.2817 179.7449,579.3484 Q179.0601,580.415 179.0601,582.5151 Q179.0601,584.6069 179.7449,585.6736 Q180.4297,586.7402 181.7744,586.7402 Q182.4053,586.7402 182.9988,586.4705 Q183.5923,586.2007 184.2231,585.6196 Z "/><text fill="#000000" font-family="sans-serif" font-size="12" lengthAdjust="spacingAndGlyphs" textLength="89" x="202.25" y="586.7344">CartonOrderDb</text><line style="stroke: #A80036; stroke-width: 1.5;" x1="69.5" x2="391.5" y1="598.1992" y2="598.1992"/><text fill="#000000" font-family="sans-serif" font-size="11" lengthAdjust="spacingAndGlyphs" textLength="37" x="74.5" y="629.7891">Carton</text><line style="stroke: #A80036; stroke-width: 1.5;" x1="69.5" x2="204" y1="612.6768" y2="612.6768"/><text fill="#000000" font-family="sans-serif" font-size="11" lengthAdjust="spacingAndGlyphs" textLength="53" x="204" y="616.334">Structural</text><line style="stroke: #A80036; stroke-width: 1.5;" x1="257" x2="391.5" y1="612.6768" y2="612.6768"/><text fill="#000000" font-family="sans-serif" font-size="11" lengthAdjust="spacingAndGlyphs" textLength="312" x="74.5" y="659.6992">get() 如何实现BelongTo关联关系，并且通过缓存支持多次调用.</text><line style="stroke: #A80036; stroke-width: 1.5;" x1="69.5" x2="219.5" y1="642.5869" y2="642.5869"/><text fill="#000000" font-family="sans-serif" font-size="11" lengthAdjust="spacingAndGlyphs" textLength="22" x="219.5" y="646.2441">行为</text><line style="stroke: #A80036; stroke-width: 1.5;" x1="241.5" x2="391.5" y1="642.5869" y2="642.5869"/><!--class OrderCartonsDb--><rect fill="#FEFECE" filter="url(#fhf1ei0)" height="99.8203" style="stroke: #A80036; stroke-width: 1.5;" width="337" x="62" y="431.1992"/><ellipse cx="178.75" cy="447.1992" fill="#ADD1B2" rx="11" ry="11" style="stroke: #A80036; stroke-width: 1.0;"/><path d="M181.2231,453.3423 Q180.6421,453.6411 180.0029,453.7905 Q179.3638,453.9399 178.6582,453.9399 Q176.1514,453.9399 174.8315,452.2881 Q173.5117,450.6362 173.5117,447.5151 Q173.5117,444.3857 174.8315,442.7339 Q176.1514,441.082 178.6582,441.082 Q179.3638,441.082 180.0112,441.2314 Q180.6587,441.3809 181.2231,441.6797 L181.2231,444.4023 Q180.5923,443.8213 179.9988,443.5515 Q179.4053,443.2817 178.7744,443.2817 Q177.4297,443.2817 176.7449,444.3484 Q176.0601,445.415 176.0601,447.5151 Q176.0601,449.6069 176.7449,450.6736 Q177.4297,451.7402 178.7744,451.7402 Q179.4053,451.7402 179.9988,451.4705 Q180.5923,451.2007 181.2231,450.6196 Z "/><text fill="#000000" font-family="sans-serif" font-size="12" lengthAdjust="spacingAndGlyphs" textLength="95" x="199.25" y="451.7344">OrderCartonsDb</text><line style="stroke: #A80036; stroke-width: 1.5;" x1="63" x2="398" y1="463.1992" y2="463.1992"/><text fill="#000000" font-family="sans-serif" font-size="11" lengthAdjust="spacingAndGlyphs" textLength="56" x="68" y="494.7891">Dao Order</text><line style="stroke: #A80036; stroke-width: 1.5;" x1="63" x2="204" y1="477.6768" y2="477.6768"/><text fill="#000000" font-family="sans-serif" font-size="11" lengthAdjust="spacingAndGlyphs" textLength="53" x="204" y="481.334">Structural</text><line style="stroke: #A80036; stroke-width: 1.5;" x1="257" x2="398" y1="477.6768" y2="477.6768"/><text fill="#000000" font-family="sans-serif" font-size="11" lengthAdjust="spacingAndGlyphs" textLength="325" x="68" y="524.6992">totalCartonizedQty() 订单通过关联对象访问另外一个聚合内对象.</text><line style="stroke: #A80036; stroke-width: 1.5;" x1="63" x2="219.5" y1="507.5869" y2="507.5869"/><text fill="#000000" font-family="sans-serif" font-size="11" lengthAdjust="spacingAndGlyphs" textLength="22" x="219.5" y="511.2441">行为</text><line style="stroke: #A80036; stroke-width: 1.5;" x1="241.5" x2="398" y1="507.5869" y2="507.5869"/><!--class TaskCartonsDb--><rect fill="#FEFECE" filter="url(#fhf1ei0)" height="99.8203" style="stroke: #A80036; stroke-width: 1.5;" width="193" x="134" y="296.1992"/><ellipse cx="181.75" cy="312.1992" fill="#ADD1B2" rx="11" ry="11" style="stroke: #A80036; stroke-width: 1.0;"/><path d="M184.2231,318.3423 Q183.6421,318.6411 183.0029,318.7905 Q182.3638,318.9399 181.6582,318.9399 Q179.1514,318.9399 177.8315,317.2881 Q176.5117,315.6362 176.5117,312.5151 Q176.5117,309.3857 177.8315,307.7339 Q179.1514,306.082 181.6582,306.082 Q182.3638,306.082 183.0112,306.2314 Q183.6587,306.3809 184.2231,306.6797 L184.2231,309.4023 Q183.5923,308.8213 182.9988,308.5515 Q182.4053,308.2817 181.7744,308.2817 Q180.4297,308.2817 179.7449,309.3484 Q179.0601,310.415 179.0601,312.5151 Q179.0601,314.6069 179.7449,315.6736 Q180.4297,316.7402 181.7744,316.7402 Q182.4053,316.7402 182.9988,316.4705 Q183.5923,316.2007 184.2231,315.6196 Z "/><text fill="#000000" font-family="sans-serif" font-size="12" lengthAdjust="spacingAndGlyphs" textLength="89" x="202.25" y="316.7344">TaskCartonsDb</text><line style="stroke: #A80036; stroke-width: 1.5;" x1="135" x2="326" y1="328.1992" y2="328.1992"/><text fill="#000000" font-family="sans-serif" font-size="11" lengthAdjust="spacingAndGlyphs" textLength="49" x="140" y="359.7891">Dao Task</text><line style="stroke: #A80036; stroke-width: 1.5;" x1="135" x2="204" y1="342.6768" y2="342.6768"/><text fill="#000000" font-family="sans-serif" font-size="11" lengthAdjust="spacingAndGlyphs" textLength="53" x="204" y="346.334">Structural</text><line style="stroke: #A80036; stroke-width: 1.5;" x1="257" x2="326" y1="342.6768" y2="342.6768"/><text fill="#000000" font-family="sans-serif" font-size="11" lengthAdjust="spacingAndGlyphs" textLength="181" x="140" y="389.6992">contains() 另外一个关联对象的实现.</text><line style="stroke: #A80036; stroke-width: 1.5;" x1="135" x2="219.5" y1="372.5869" y2="372.5869"/><text fill="#000000" font-family="sans-serif" font-size="11" lengthAdjust="spacingAndGlyphs" textLength="22" x="219.5" y="376.2441">行为</text><line style="stroke: #A80036; stroke-width: 1.5;" x1="241.5" x2="326" y1="372.5869" y2="372.5869"/><!--class TaskOrdersDb--><rect fill="#FEFECE" filter="url(#fhf1ei0)" height="112.7754" style="stroke: #A80036; stroke-width: 1.5;" width="287" x="536" y="559.6992"/><ellipse cx="632.75" cy="575.6992" fill="#ADD1B2" rx="11" ry="11" style="stroke: #A80036; stroke-width: 1.0;"/><path d="M635.2231,581.8423 Q634.6421,582.1411 634.0029,582.2905 Q633.3638,582.4399 632.6582,582.4399 Q630.1514,582.4399 628.8315,580.7881 Q627.5117,579.1362 627.5117,576.0151 Q627.5117,572.8857 628.8315,571.2339 Q630.1514,569.582 632.6582,569.582 Q633.3638,569.582 634.0112,569.7314 Q634.6587,569.8809 635.2231,570.1797 L635.2231,572.9023 Q634.5923,572.3213 633.9988,572.0515 Q633.4053,571.7817 632.7744,571.7817 Q631.4297,571.7817 630.7449,572.8484 Q630.0601,573.915 630.0601,576.0151 Q630.0601,578.1069 630.7449,579.1736 Q631.4297,580.2402 632.7744,580.2402 Q633.4053,580.2402 633.9988,579.9705 Q634.5923,579.7007 635.2231,579.1196 Z "/><text fill="#000000" font-family="sans-serif" font-size="12" lengthAdjust="spacingAndGlyphs" textLength="85" x="653.25" y="580.2344">TaskOrdersDb</text><line style="stroke: #A80036; stroke-width: 1.5;" x1="537" x2="822" y1="591.6992" y2="591.6992"/><text fill="#000000" font-family="sans-serif" font-size="11" lengthAdjust="spacingAndGlyphs" textLength="49" x="542" y="623.2891">Dao Task</text><line style="stroke: #A80036; stroke-width: 1.5;" x1="537" x2="653" y1="606.1768" y2="606.1768"/><text fill="#000000" font-family="sans-serif" font-size="11" lengthAdjust="spacingAndGlyphs" textLength="53" x="653" y="609.834">Structural</text><line style="stroke: #A80036; stroke-width: 1.5;" x1="706" x2="822" y1="606.1768" y2="606.1768"/><text fill="#000000" font-family="sans-serif" font-size="11" lengthAdjust="spacingAndGlyphs" textLength="274" x="542" y="653.1992">pendingOrder() 关联对象实现业务校验，避免逻辑泄露</text><text fill="#000000" font-family="sans-serif" font-size="11" lengthAdjust="spacingAndGlyphs" textLength="275" x="542" y="666.1543">pendingOrders() 如何实现关联对象，注入dao和entity</text><line style="stroke: #A80036; stroke-width: 1.5;" x1="537" x2="668.5" y1="636.0869" y2="636.0869"/><text fill="#000000" font-family="sans-serif" font-size="11" lengthAdjust="spacingAndGlyphs" textLength="22" x="668.5" y="639.7441">行为</text><line style="stroke: #A80036; stroke-width: 1.5;" x1="690.5" x2="822" y1="636.0869" y2="636.0869"/><!--class TaskPo--><rect fill="#FEFECE" filter="url(#fhf1ei0)" height="99.8203" style="stroke: #A80036; stroke-width: 1.5;" width="331" x="514" y="424.1992"/><ellipse cx="654.25" cy="440.1992" fill="#ADD1B2" rx="11" ry="11" style="stroke: #A80036; stroke-width: 1.0;"/><path d="M656.7231,446.3423 Q656.1421,446.6411 655.5029,446.7905 Q654.8638,446.9399 654.1582,446.9399 Q651.6514,446.9399 650.3315,445.2881 Q649.0117,443.6362 649.0117,440.5151 Q649.0117,437.3857 650.3315,435.7339 Q651.6514,434.082 654.1582,434.082 Q654.8638,434.082 655.5112,434.2314 Q656.1587,434.3809 656.7231,434.6797 L656.7231,437.4023 Q656.0923,436.8213 655.4988,436.5515 Q654.9053,436.2817 654.2744,436.2817 Q652.9297,436.2817 652.2449,437.3484 Q651.5601,438.415 651.5601,440.5151 Q651.5601,442.6069 652.2449,443.6736 Q652.9297,444.7402 654.2744,444.7402 Q654.9053,444.7402 655.4988,444.4705 Q656.0923,444.2007 656.7231,443.6196 Z "/><text fill="#000000" font-family="sans-serif" font-size="12" lengthAdjust="spacingAndGlyphs" textLength="42" x="674.75" y="444.7344">TaskPo</text><line style="stroke: #A80036; stroke-width: 1.5;" x1="515" x2="844" y1="456.1992" y2="456.1992"/><text fill="#000000" font-family="sans-serif" font-size="11" lengthAdjust="spacingAndGlyphs" textLength="201" x="520" y="487.7891">TaskMode/(use MyBatis TypeHandler)</text><line style="stroke: #A80036; stroke-width: 1.5;" x1="515" x2="653" y1="470.6768" y2="470.6768"/><text fill="#000000" font-family="sans-serif" font-size="11" lengthAdjust="spacingAndGlyphs" textLength="53" x="653" y="474.334">Structural</text><line style="stroke: #A80036; stroke-width: 1.5;" x1="706" x2="844" y1="470.6768" y2="470.6768"/><text fill="#000000" font-family="sans-serif" font-size="11" lengthAdjust="spacingAndGlyphs" textLength="319" x="520" y="517.6992">shouldHaveNoLogic() po对象不能有任何setter getter外的逻辑</text><line style="stroke: #A80036; stroke-width: 1.5;" x1="515" x2="668.5" y1="500.5869" y2="500.5869"/><text fill="#000000" font-family="sans-serif" font-size="11" lengthAdjust="spacingAndGlyphs" textLength="22" x="668.5" y="504.2441">行为</text><line style="stroke: #A80036; stroke-width: 1.5;" x1="690.5" x2="844" y1="500.5869" y2="500.5869"/><!--class TaskRepository--><rect fill="#FEFECE" filter="url(#fhf1ei0)" height="194.5059" style="stroke: #A80036; stroke-width: 1.5;" width="441" x="459" y="193.6992"/><ellipse cx="630.75" cy="209.6992" fill="#ADD1B2" rx="11" ry="11" style="stroke: #A80036; stroke-width: 1.0;"/><path d="M633.2231,215.8423 Q632.6421,216.1411 632.0029,216.2905 Q631.3638,216.4399 630.6582,216.4399 Q628.1514,216.4399 626.8315,214.7881 Q625.5117,213.1362 625.5117,210.0151 Q625.5117,206.8857 626.8315,205.2339 Q628.1514,203.582 630.6582,203.582 Q631.3638,203.582 632.0112,203.7314 Q632.6587,203.8809 633.2231,204.1797 L633.2231,206.9023 Q632.5923,206.3213 631.9988,206.0515 Q631.4053,205.7817 630.7744,205.7817 Q629.4297,205.7817 628.7449,206.8484 Q628.0601,207.915 628.0601,210.0151 Q628.0601,212.1069 628.7449,213.1736 Q629.4297,214.2402 630.7744,214.2402 Q631.4053,214.2402 631.9988,213.9705 Q632.5923,213.7007 633.2231,213.1196 Z "/><text fill="#000000" font-family="sans-serif" font-size="12" lengthAdjust="spacingAndGlyphs" textLength="89" x="651.25" y="214.2344">TaskRepository</text><line style="stroke: #A80036; stroke-width: 1.5;" x1="460" x2="899" y1="225.6992" y2="225.6992"/><text fill="#000000" font-family="sans-serif" font-size="11" lengthAdjust="spacingAndGlyphs" textLength="206" x="465" y="257.2891">_self/如何克服Java访问权限控制粒度问题</text><line style="stroke: #A80036; stroke-width: 1.5;" x1="460" x2="653" y1="240.1768" y2="240.1768"/><text fill="#000000" font-family="sans-serif" font-size="11" lengthAdjust="spacingAndGlyphs" textLength="53" x="653" y="243.834">Structural</text><line style="stroke: #A80036; stroke-width: 1.5;" x1="706" x2="899" y1="240.1768" y2="240.1768"/><text fill="#000000" font-family="sans-serif" font-size="11" lengthAdjust="spacingAndGlyphs" textLength="241" x="465" y="287.1992">injectAssociations() 实例化关联对象并注入实体</text><text fill="#000000" font-family="sans-serif" font-size="11" lengthAdjust="spacingAndGlyphs" textLength="418" x="465" y="300.1543">mustGet() 如何把数据库里的数据转换为充血模型的IDomainModel，并注入关联对象</text><text fill="#000000" font-family="sans-serif" font-size="11" lengthAdjust="spacingAndGlyphs" textLength="188" x="465" y="313.1094">mustGet() 如何从数据库加载场景对象</text><text fill="#000000" font-family="sans-serif" font-size="11" lengthAdjust="spacingAndGlyphs" textLength="338" x="465" y="326.0645">save(TaskOfSkuPending) 如何把充血模型落库，dirty hint，乐观锁</text><text fill="#000000" font-family="sans-serif" font-size="11" lengthAdjust="spacingAndGlyphs" textLength="268" x="465" y="339.0195">save(TaskOfContainerPending) 如何使用mapstruct</text><text fill="#000000" font-family="sans-serif" font-size="11" lengthAdjust="spacingAndGlyphs" textLength="145" x="465" y="351.9746">save(TaskOfOrderPending)</text><line style="stroke: #A80036; stroke-width: 1.5;" x1="460" x2="668.5" y1="270.0869" y2="270.0869"/><text fill="#000000" font-family="sans-serif" font-size="11" lengthAdjust="spacingAndGlyphs" textLength="22" x="668.5" y="273.7441">行为</text><line style="stroke: #A80036; stroke-width: 1.5;" x1="690.5" x2="899" y1="270.0869" y2="270.0869"/><text fill="#000000" font-family="sans-serif" font-size="11" lengthAdjust="spacingAndGlyphs" textLength="344" x="465" y="381.8848">toPo(TaskOfSkuPending) 如何落库时处理查询和报表使用的冗余字段</text><text fill="#808000" font-family="sans-serif" font-size="11" lengthAdjust="spacingAndGlyphs" textLength="79" x="812" y="381.8848">TaskConverter</text><line style="stroke: #A80036; stroke-width: 1.5;" x1="460" x2="668.5" y1="364.7725" y2="364.7725"/><text fill="#000000" font-family="sans-serif" font-size="11" lengthAdjust="spacingAndGlyphs" textLength="22" x="668.5" y="368.4297">流程</text><line style="stroke: #A80036; stroke-width: 1.5;" x1="690.5" x2="899" y1="364.7725" y2="364.7725"/><!--class CartonRepository--><rect fill="#FEFECE" filter="url(#fhf1ei0)" height="82.8652" style="stroke: #A80036; stroke-width: 1.5;" width="211" x="960" y="574.6992"/><ellipse cx="1011.75" cy="590.6992" fill="#9197DB" rx="11" ry="11" style="stroke: #A80036; stroke-width: 1.0;"/><path d="M1010.1533,592.0713 L1010.1533,595.7402 L1011.7803,595.7402 Q1012.9507,595.7402 1013.4197,595.3418 Q1013.8887,594.9434 1013.8887,593.9556 Q1013.8887,592.9512 1013.3989,592.5112 Q1012.9092,592.0713 1011.7803,592.0713 Z M1010.1533,587.2402 L1010.1533,590.1206 L1011.7803,590.1206 Q1012.71,590.1206 1013.1042,589.7886 Q1013.4985,589.4565 1013.4985,588.6929 Q1013.4985,587.9292 1013.0959,587.5847 Q1012.6934,587.2402 1011.7803,587.2402 Z M1007.7876,585.2896 L1011.7803,585.2896 Q1013.8472,585.2896 1014.8889,586.074 Q1015.9307,586.8584 1015.9307,588.4189 Q1015.9307,589.6143 1015.3164,590.2866 Q1014.7021,590.959 1013.5151,591.0669 Q1014.9346,591.208 1015.6526,592.0215 Q1016.3706,592.835 1016.3706,594.2959 Q1016.3706,596.0889 1015.2915,596.894 Q1014.2124,597.6992 1011.7803,597.6992 L1007.7876,597.6992 Z "/><text fill="#000000" font-family="sans-serif" font-size="12" lengthAdjust="spacingAndGlyphs" textLength="99" x="1032.25" y="595.2344">CartonRepository</text><line style="stroke: #A80036; stroke-width: 1.5;" x1="961" x2="1170" y1="606.6992" y2="606.6992"/><text fill="#000000" font-family="sans-serif" font-size="11" lengthAdjust="spacingAndGlyphs" textLength="199" x="966" y="638.2891">save() 可合并的hint如何合并数据库请求</text><text fill="#000000" font-family="sans-serif" font-size="11" lengthAdjust="spacingAndGlyphs" textLength="149" x="966" y="651.2441">save() Bag of root如何持久化</text><line style="stroke: #A80036; stroke-width: 1.5;" x1="961" x2="1054.5" y1="621.1768" y2="621.1768"/><text fill="#000000" font-family="sans-serif" font-size="11" lengthAdjust="spacingAndGlyphs" textLength="22" x="1054.5" y="624.834">行为</text><line style="stroke: #A80036; stroke-width: 1.5;" x1="1076.5" x2="1170" y1="621.1768" y2="621.1768"/><polygon fill="#FFFFFF" filter="url(#fhf1ei0)" points="157,29.6992,261,29.6992,268,52.1875,304,52.1875,304,82.6758,157,82.6758,157,29.6992" style="stroke: #000000; stroke-width: 2.0;"/><line style="stroke: #000000; stroke-width: 2.0;" x1="157" x2="268" y1="52.1875" y2="52.1875"/><text fill="#000000" font-family="sans-serif" font-size="14" font-weight="bold" lengthAdjust="spacingAndGlyphs" textLength="98" x="161" y="45.2344">跨聚合复杂流程</text><text fill="#000000" font-family="sans-serif" font-size="14" font-style="italic" lengthAdjust="spacingAndGlyphs" textLength="125" x="172" y="67.7227">«Orphan Services»</text><text fill="#888888" font-family="sans-serif" font-size="10" lengthAdjust="spacingAndGlyphs" textLength="108" x="568.5" y="748.8672">generated by DDDplus</text></g></svg>