<?xml version="1.0" encoding="UTF-8" standalone="no"?><svg xmlns="http://www.w3.org/2000/svg" xmlns:xlink="http://www.w3.org/1999/xlink" contentScriptType="application/ecmascript" contentStyleType="text/css" height="723px" preserveAspectRatio="none" style="width:970px;height:723px;" version="1.1" viewBox="0 0 970 723" width="970px" zoomAndPan="magnify"><defs><filter height="300%" id="f3s6phu" width="300%" x="-1" y="-1"><feGaussianBlur result="blurOut" stdDeviation="2.0"/><feColorMatrix in="blurOut" result="blurOut2" type="matrix" values="0 0 0 0 0 0 0 0 0 0 0 0 0 0 0 0 0 0 .4 0"/><feOffset dx="4.0" dy="4.0" in="blurOut2" result="blurOut3"/><feBlend in="SourceGraphic" in2="blurOut3" mode="normal"/></filter></defs><g><text fill="#000000" font-family="sans-serif" font-size="18" lengthAdjust="spacingAndGlyphs" textLength="144" x="426.5" y="17.4023">技术实现细节指引</text><!--cluster 业务模型--><polygon fill="#FFFFFF" filter="url(#f3s6phu)" points="22,99.1992,84,99.1992,91,121.6875,963,121.6875,963,687.1992,22,687.1992,22,99.1992" style="stroke: #000000; stroke-width: 2.0;"/><line style="stroke: #000000; stroke-width: 2.0;" x1="22" x2="91" y1="121.6875" y2="121.6875"/><text fill="#000000" font-family="sans-serif" font-size="14" font-weight="bold" lengthAdjust="spacingAndGlyphs" textLength="56" x="26" y="114.7344">业务模型</text><!--cluster Aggregate：技术实现--><polygon fill="#FFFFFF" filter="url(#f3s6phu)" points="46,142.1992,195,142.1992,202,164.6875,939,164.6875,939,663.1992,46,663.1992,46,142.1992" style="stroke: #000000; stroke-width: 2.0;"/><line style="stroke: #000000; stroke-width: 2.0;" x1="46" x2="202" y1="164.6875" y2="164.6875"/><text fill="#000000" font-family="sans-serif" font-size="14" font-weight="bold" lengthAdjust="spacingAndGlyphs" textLength="143" x="50" y="157.7344">Aggregate：技术实现</text><text fill="#000000" font-family="sans-serif" font-size="14" font-style="italic" lengthAdjust="spacingAndGlyphs" textLength="215" x="389" y="180.2227">«ddd.plus.showcase.wms.infra»</text><!--class CartonOrderDb--><rect fill="#FEFECE" filter="url(#f3s6phu)" height="99.8203" style="stroke: #A80036; stroke-width: 1.5;" width="324" x="64" y="540.1992"/><ellipse cx="177.25" cy="556.1992" fill="#ADD1B2" rx="11" ry="11" style="stroke: #A80036; stroke-width: 1.0;"/><path d="M179.7231,562.3423 Q179.1421,562.6411 178.5029,562.7905 Q177.8638,562.9399 177.1582,562.9399 Q174.6514,562.9399 173.3315,561.2881 Q172.0117,559.6362 172.0117,556.5151 Q172.0117,553.3857 173.3315,551.7339 Q174.6514,550.082 177.1582,550.082 Q177.8638,550.082 178.5112,550.2314 Q179.1587,550.3809 179.7231,550.6797 L179.7231,553.4023 Q179.0923,552.8213 178.4988,552.5515 Q177.9053,552.2817 177.2744,552.2817 Q175.9297,552.2817 175.2449,553.3484 Q174.5601,554.415 174.5601,556.5151 Q174.5601,558.6069 175.2449,559.6736 Q175.9297,560.7402 177.2744,560.7402 Q177.9053,560.7402 178.4988,560.4705 Q179.0923,560.2007 179.7231,559.6196 Z "/><text fill="#000000" font-family="sans-serif" font-size="12" lengthAdjust="spacingAndGlyphs" textLength="89" x="197.75" y="560.7344">CartonOrderDb</text><line style="stroke: #A80036; stroke-width: 1.5;" x1="65" x2="387" y1="572.1992" y2="572.1992"/><text fill="#000000" font-family="sans-serif" font-size="11" lengthAdjust="spacingAndGlyphs" textLength="37" x="70" y="603.7891">Carton</text><line style="stroke: #A80036; stroke-width: 1.5;" x1="65" x2="199.5" y1="586.6768" y2="586.6768"/><text fill="#000000" font-family="sans-serif" font-size="11" lengthAdjust="spacingAndGlyphs" textLength="53" x="199.5" y="590.334">Structural</text><line style="stroke: #A80036; stroke-width: 1.5;" x1="252.5" x2="387" y1="586.6768" y2="586.6768"/><text fill="#000000" font-family="sans-serif" font-size="11" lengthAdjust="spacingAndGlyphs" textLength="312" x="70" y="633.6992">get() 如何实现BelongTo关联关系，并且通过缓存支持多次调用.</text><line style="stroke: #A80036; stroke-width: 1.5;" x1="65" x2="215" y1="616.5869" y2="616.5869"/><text fill="#000000" font-family="sans-serif" font-size="11" lengthAdjust="spacingAndGlyphs" textLength="22" x="215" y="620.2441">行为</text><line style="stroke: #A80036; stroke-width: 1.5;" x1="237" x2="387" y1="616.5869" y2="616.5869"/><!--class OrderContainerItemsDb--><rect fill="#FEFECE" filter="url(#f3s6phu)" height="99.8203" style="stroke: #A80036; stroke-width: 1.5;" width="328" x="62" y="405.1992"/><ellipse cx="153.25" cy="421.1992" fill="#ADD1B2" rx="11" ry="11" style="stroke: #A80036; stroke-width: 1.0;"/><path d="M155.7231,427.3423 Q155.1421,427.6411 154.5029,427.7905 Q153.8638,427.9399 153.1582,427.9399 Q150.6514,427.9399 149.3315,426.2881 Q148.0117,424.6362 148.0117,421.5151 Q148.0117,418.3857 149.3315,416.7339 Q150.6514,415.082 153.1582,415.082 Q153.8638,415.082 154.5112,415.2314 Q155.1587,415.3809 155.7231,415.6797 L155.7231,418.4023 Q155.0923,417.8213 154.4988,417.5515 Q153.9053,417.2817 153.2744,417.2817 Q151.9297,417.2817 151.2449,418.3484 Q150.5601,419.415 150.5601,421.5151 Q150.5601,423.6069 151.2449,424.6736 Q151.9297,425.7402 153.2744,425.7402 Q153.9053,425.7402 154.4988,425.4705 Q155.0923,425.2007 155.7231,424.6196 Z "/><text fill="#000000" font-family="sans-serif" font-size="12" lengthAdjust="spacingAndGlyphs" textLength="137" x="173.75" y="425.7344">OrderContainerItemsDb</text><line style="stroke: #A80036; stroke-width: 1.5;" x1="63" x2="389" y1="437.1992" y2="437.1992"/><text fill="#000000" font-family="sans-serif" font-size="11" lengthAdjust="spacingAndGlyphs" textLength="56" x="68" y="468.7891">Dao Order</text><line style="stroke: #A80036; stroke-width: 1.5;" x1="63" x2="199.5" y1="451.6768" y2="451.6768"/><text fill="#000000" font-family="sans-serif" font-size="11" lengthAdjust="spacingAndGlyphs" textLength="53" x="199.5" y="455.334">Structural</text><line style="stroke: #A80036; stroke-width: 1.5;" x1="252.5" x2="389" y1="451.6768" y2="451.6768"/><text fill="#000000" font-family="sans-serif" font-size="11" lengthAdjust="spacingAndGlyphs" textLength="316" x="68" y="498.6992">containerItemBag() 订单通过关联对象访问另外一个聚合内对象.</text><line style="stroke: #A80036; stroke-width: 1.5;" x1="63" x2="215" y1="481.5869" y2="481.5869"/><text fill="#000000" font-family="sans-serif" font-size="11" lengthAdjust="spacingAndGlyphs" textLength="22" x="215" y="485.2441">行为</text><line style="stroke: #A80036; stroke-width: 1.5;" x1="237" x2="389" y1="481.5869" y2="481.5869"/><!--class TaskCartonItemsDb--><rect fill="#FEFECE" filter="url(#f3s6phu)" height="99.8203" style="stroke: #A80036; stroke-width: 1.5;" width="224" x="114" y="270.1992"/><ellipse cx="164.75" cy="286.1992" fill="#ADD1B2" rx="11" ry="11" style="stroke: #A80036; stroke-width: 1.0;"/><path d="M167.2231,292.3423 Q166.6421,292.6411 166.0029,292.7905 Q165.3638,292.9399 164.6582,292.9399 Q162.1514,292.9399 160.8315,291.2881 Q159.5117,289.6362 159.5117,286.5151 Q159.5117,283.3857 160.8315,281.7339 Q162.1514,280.082 164.6582,280.082 Q165.3638,280.082 166.0112,280.2314 Q166.6587,280.3809 167.2231,280.6797 L167.2231,283.4023 Q166.5923,282.8213 165.9988,282.5515 Q165.4053,282.2817 164.7744,282.2817 Q163.4297,282.2817 162.7449,283.3484 Q162.0601,284.415 162.0601,286.5151 Q162.0601,288.6069 162.7449,289.6736 Q163.4297,290.7402 164.7744,290.7402 Q165.4053,290.7402 165.9988,290.4705 Q166.5923,290.2007 167.2231,289.6196 Z "/><text fill="#000000" font-family="sans-serif" font-size="12" lengthAdjust="spacingAndGlyphs" textLength="114" x="185.25" y="290.7344">TaskCartonItemsDb</text><line style="stroke: #A80036; stroke-width: 1.5;" x1="115" x2="337" y1="302.1992" y2="302.1992"/><text fill="#000000" font-family="sans-serif" font-size="11" lengthAdjust="spacingAndGlyphs" textLength="49" x="120" y="333.7891">Dao Task</text><line style="stroke: #A80036; stroke-width: 1.5;" x1="115" x2="199.5" y1="316.6768" y2="316.6768"/><text fill="#000000" font-family="sans-serif" font-size="11" lengthAdjust="spacingAndGlyphs" textLength="53" x="199.5" y="320.334">Structural</text><line style="stroke: #A80036; stroke-width: 1.5;" x1="252.5" x2="337" y1="316.6768" y2="316.6768"/><text fill="#000000" font-family="sans-serif" font-size="11" lengthAdjust="spacingAndGlyphs" textLength="212" x="120" y="363.6992">cartonItemBag() 另外一个关联对象的实现.</text><line style="stroke: #A80036; stroke-width: 1.5;" x1="115" x2="215" y1="346.5869" y2="346.5869"/><text fill="#000000" font-family="sans-serif" font-size="11" lengthAdjust="spacingAndGlyphs" textLength="22" x="215" y="350.2441">行为</text><line style="stroke: #A80036; stroke-width: 1.5;" x1="237" x2="337" y1="346.5869" y2="346.5869"/><!--class TaskOrdersDb--><rect fill="#FEFECE" filter="url(#f3s6phu)" height="112.7754" style="stroke: #A80036; stroke-width: 1.5;" width="287" x="543" y="533.6992"/><ellipse cx="639.75" cy="549.6992" fill="#ADD1B2" rx="11" ry="11" style="stroke: #A80036; stroke-width: 1.0;"/><path d="M642.2231,555.8423 Q641.6421,556.1411 641.0029,556.2905 Q640.3638,556.4399 639.6582,556.4399 Q637.1514,556.4399 635.8315,554.7881 Q634.5117,553.1362 634.5117,550.0151 Q634.5117,546.8857 635.8315,545.2339 Q637.1514,543.582 639.6582,543.582 Q640.3638,543.582 641.0112,543.7314 Q641.6587,543.8809 642.2231,544.1797 L642.2231,546.9023 Q641.5923,546.3213 640.9988,546.0515 Q640.4053,545.7817 639.7744,545.7817 Q638.4297,545.7817 637.7449,546.8484 Q637.0601,547.915 637.0601,550.0151 Q637.0601,552.1069 637.7449,553.1736 Q638.4297,554.2402 639.7744,554.2402 Q640.4053,554.2402 640.9988,553.9705 Q641.5923,553.7007 642.2231,553.1196 Z "/><text fill="#000000" font-family="sans-serif" font-size="12" lengthAdjust="spacingAndGlyphs" textLength="85" x="660.25" y="554.2344">TaskOrdersDb</text><line style="stroke: #A80036; stroke-width: 1.5;" x1="544" x2="829" y1="565.6992" y2="565.6992"/><text fill="#000000" font-family="sans-serif" font-size="11" lengthAdjust="spacingAndGlyphs" textLength="49" x="549" y="597.2891">Dao Task</text><line style="stroke: #A80036; stroke-width: 1.5;" x1="544" x2="660" y1="580.1768" y2="580.1768"/><text fill="#000000" font-family="sans-serif" font-size="11" lengthAdjust="spacingAndGlyphs" textLength="53" x="660" y="583.834">Structural</text><line style="stroke: #A80036; stroke-width: 1.5;" x1="713" x2="829" y1="580.1768" y2="580.1768"/><text fill="#000000" font-family="sans-serif" font-size="11" lengthAdjust="spacingAndGlyphs" textLength="274" x="549" y="627.1992">pendingOrder() 关联对象实现业务校验，避免逻辑泄露</text><text fill="#000000" font-family="sans-serif" font-size="11" lengthAdjust="spacingAndGlyphs" textLength="275" x="549" y="640.1543">pendingOrders() 如何实现关联对象，注入dao和entity</text><line style="stroke: #A80036; stroke-width: 1.5;" x1="544" x2="675.5" y1="610.0869" y2="610.0869"/><text fill="#000000" font-family="sans-serif" font-size="11" lengthAdjust="spacingAndGlyphs" textLength="22" x="675.5" y="613.7441">行为</text><line style="stroke: #A80036; stroke-width: 1.5;" x1="697.5" x2="829" y1="610.0869" y2="610.0869"/><!--class TaskPo--><rect fill="#FEFECE" filter="url(#f3s6phu)" height="99.8203" style="stroke: #A80036; stroke-width: 1.5;" width="331" x="521" y="398.1992"/><ellipse cx="661.25" cy="414.1992" fill="#ADD1B2" rx="11" ry="11" style="stroke: #A80036; stroke-width: 1.0;"/><path d="M663.7231,420.3423 Q663.1421,420.6411 662.5029,420.7905 Q661.8638,420.9399 661.1582,420.9399 Q658.6514,420.9399 657.3315,419.2881 Q656.0117,417.6362 656.0117,414.5151 Q656.0117,411.3857 657.3315,409.7339 Q658.6514,408.082 661.1582,408.082 Q661.8638,408.082 662.5112,408.2314 Q663.1587,408.3809 663.7231,408.6797 L663.7231,411.4023 Q663.0923,410.8213 662.4988,410.5515 Q661.9053,410.2817 661.2744,410.2817 Q659.9297,410.2817 659.2449,411.3484 Q658.5601,412.415 658.5601,414.5151 Q658.5601,416.6069 659.2449,417.6736 Q659.9297,418.7402 661.2744,418.7402 Q661.9053,418.7402 662.4988,418.4705 Q663.0923,418.2007 663.7231,417.6196 Z "/><text fill="#000000" font-family="sans-serif" font-size="12" lengthAdjust="spacingAndGlyphs" textLength="42" x="681.75" y="418.7344">TaskPo</text><line style="stroke: #A80036; stroke-width: 1.5;" x1="522" x2="851" y1="430.1992" y2="430.1992"/><text fill="#000000" font-family="sans-serif" font-size="11" lengthAdjust="spacingAndGlyphs" textLength="201" x="527" y="461.7891">TaskMode/(use MyBatis TypeHandler)</text><line style="stroke: #A80036; stroke-width: 1.5;" x1="522" x2="660" y1="444.6768" y2="444.6768"/><text fill="#000000" font-family="sans-serif" font-size="11" lengthAdjust="spacingAndGlyphs" textLength="53" x="660" y="448.334">Structural</text><line style="stroke: #A80036; stroke-width: 1.5;" x1="713" x2="851" y1="444.6768" y2="444.6768"/><text fill="#000000" font-family="sans-serif" font-size="11" lengthAdjust="spacingAndGlyphs" textLength="319" x="527" y="491.6992">shouldHaveNoLogic() po对象不能有任何setter getter外的逻辑</text><line style="stroke: #A80036; stroke-width: 1.5;" x1="522" x2="675.5" y1="474.5869" y2="474.5869"/><text fill="#000000" font-family="sans-serif" font-size="11" lengthAdjust="spacingAndGlyphs" textLength="22" x="675.5" y="478.2441">行为</text><line style="stroke: #A80036; stroke-width: 1.5;" x1="697.5" x2="851" y1="474.5869" y2="474.5869"/><!--class TaskRepository--><rect fill="#FEFECE" filter="url(#f3s6phu)" height="168.5957" style="stroke: #A80036; stroke-width: 1.5;" width="473" x="450" y="193.6992"/><ellipse cx="637.75" cy="209.6992" fill="#ADD1B2" rx="11" ry="11" style="stroke: #A80036; stroke-width: 1.0;"/><path d="M640.2231,215.8423 Q639.6421,216.1411 639.0029,216.2905 Q638.3638,216.4399 637.6582,216.4399 Q635.1514,216.4399 633.8315,214.7881 Q632.5117,213.1362 632.5117,210.0151 Q632.5117,206.8857 633.8315,205.2339 Q635.1514,203.582 637.6582,203.582 Q638.3638,203.582 639.0112,203.7314 Q639.6587,203.8809 640.2231,204.1797 L640.2231,206.9023 Q639.5923,206.3213 638.9988,206.0515 Q638.4053,205.7817 637.7744,205.7817 Q636.4297,205.7817 635.7449,206.8484 Q635.0601,207.915 635.0601,210.0151 Q635.0601,212.1069 635.7449,213.1736 Q636.4297,214.2402 637.7744,214.2402 Q638.4053,214.2402 638.9988,213.9705 Q639.5923,213.7007 640.2231,213.1196 Z "/><text fill="#000000" font-family="sans-serif" font-size="12" lengthAdjust="spacingAndGlyphs" textLength="89" x="658.25" y="214.2344">TaskRepository</text><line style="stroke: #A80036; stroke-width: 1.5;" x1="451" x2="922" y1="225.6992" y2="225.6992"/><text fill="#000000" font-family="sans-serif" font-size="11" lengthAdjust="spacingAndGlyphs" textLength="206" x="456" y="257.2891">_self/如何克服Java访问权限控制粒度问题</text><line style="stroke: #A80036; stroke-width: 1.5;" x1="451" x2="660" y1="240.1768" y2="240.1768"/><text fill="#000000" font-family="sans-serif" font-size="11" lengthAdjust="spacingAndGlyphs" textLength="53" x="660" y="243.834">Structural</text><line style="stroke: #A80036; stroke-width: 1.5;" x1="713" x2="922" y1="240.1768" y2="240.1768"/><text fill="#000000" font-family="sans-serif" font-size="11" lengthAdjust="spacingAndGlyphs" textLength="461" x="456" y="287.1992">mustGetPending() 如何把数据库里的数据转换为充血模型的IDomainModel，并注入关联对象</text><text fill="#000000" font-family="sans-serif" font-size="11" lengthAdjust="spacingAndGlyphs" textLength="231" x="456" y="300.1543">mustGetPending() 如何从数据库加载场景对象</text><text fill="#000000" font-family="sans-serif" font-size="11" lengthAdjust="spacingAndGlyphs" textLength="295" x="456" y="313.1094">save(TaskOfSku) 如何把充血模型落库，dirty hint，乐观锁</text><text fill="#000000" font-family="sans-serif" font-size="11" lengthAdjust="spacingAndGlyphs" textLength="225" x="456" y="326.0645">save(TaskOfContainer) 如何使用mapstruct</text><line style="stroke: #A80036; stroke-width: 1.5;" x1="451" x2="675.5" y1="270.0869" y2="270.0869"/><text fill="#000000" font-family="sans-serif" font-size="11" lengthAdjust="spacingAndGlyphs" textLength="22" x="675.5" y="273.7441">行为</text><line style="stroke: #A80036; stroke-width: 1.5;" x1="697.5" x2="922" y1="270.0869" y2="270.0869"/><text fill="#000000" font-family="sans-serif" font-size="11" lengthAdjust="spacingAndGlyphs" textLength="301" x="456" y="355.9746">toPo(TaskOfSku) 如何落库时处理查询和报表使用的冗余字段</text><text fill="#808000" font-family="sans-serif" font-size="11" lengthAdjust="spacingAndGlyphs" textLength="79" x="760" y="355.9746">TaskConverter</text><line style="stroke: #A80036; stroke-width: 1.5;" x1="451" x2="675.5" y1="338.8623" y2="338.8623"/><text fill="#000000" font-family="sans-serif" font-size="11" lengthAdjust="spacingAndGlyphs" textLength="22" x="675.5" y="342.5195">流程</text><line style="stroke: #A80036; stroke-width: 1.5;" x1="697.5" x2="922" y1="338.8623" y2="338.8623"/><polygon fill="#FFFFFF" filter="url(#f3s6phu)" points="152.5,29.6992,256.5,29.6992,263.5,52.1875,299.5,52.1875,299.5,82.6758,152.5,82.6758,152.5,29.6992" style="stroke: #000000; stroke-width: 2.0;"/><line style="stroke: #000000; stroke-width: 2.0;" x1="152.5" x2="263.5" y1="52.1875" y2="52.1875"/><text fill="#000000" font-family="sans-serif" font-size="14" font-weight="bold" lengthAdjust="spacingAndGlyphs" textLength="98" x="156.5" y="45.2344">跨聚合复杂流程</text><text fill="#000000" font-family="sans-serif" font-size="14" font-style="italic" lengthAdjust="spacingAndGlyphs" textLength="125" x="167.5" y="67.7227">«Orphan Services»</text><text fill="#888888" font-family="sans-serif" font-size="10" lengthAdjust="spacingAndGlyphs" textLength="108" x="444.5" y="722.8672">generated by DDDplus</text></g></svg>