<?xml version="1.0" encoding="UTF-8" standalone="no"?><svg xmlns="http://www.w3.org/2000/svg" xmlns:xlink="http://www.w3.org/1999/xlink" contentScriptType="application/ecmascript" contentStyleType="text/css" height="725px" preserveAspectRatio="none" style="width:951px;height:725px;" version="1.1" viewBox="0 0 951 725" width="951px" zoomAndPan="magnify"><defs><filter height="300%" id="fbmibwh" width="300%" x="-1" y="-1"><feGaussianBlur result="blurOut" stdDeviation="2.0"/><feColorMatrix in="blurOut" result="blurOut2" type="matrix" values="0 0 0 0 0 0 0 0 0 0 0 0 0 0 0 0 0 0 .4 0"/><feOffset dx="4.0" dy="4.0" in="blurOut2" result="blurOut3"/><feBlend in="SourceGraphic" in2="blurOut3" mode="normal"/></filter></defs><g><text fill="#000000" font-family="sans-serif" font-size="18" lengthAdjust="spacingAndGlyphs" textLength="144" x="417" y="17.4023">技术实现细节指引</text><!--cluster 业务模型--><polygon fill="#FFFFFF" filter="url(#fbmibwh)" points="22,45.1992,84,45.1992,91,67.6875,575,67.6875,575,440.1992,22,440.1992,22,45.1992" style="stroke: #000000; stroke-width: 2.0;"/><line style="stroke: #000000; stroke-width: 2.0;" x1="22" x2="91" y1="67.6875" y2="67.6875"/><text fill="#000000" font-family="sans-serif" font-size="14" font-weight="bold" lengthAdjust="spacingAndGlyphs" textLength="56" x="26" y="60.7344">业务模型</text><!--cluster Aggregate：技术实现--><polygon fill="#FFFFFF" filter="url(#fbmibwh)" points="46,88.1992,195,88.1992,202,110.6875,551,110.6875,551,416.1992,46,416.1992,46,88.1992" style="stroke: #000000; stroke-width: 2.0;"/><line style="stroke: #000000; stroke-width: 2.0;" x1="46" x2="202" y1="110.6875" y2="110.6875"/><text fill="#000000" font-family="sans-serif" font-size="14" font-weight="bold" lengthAdjust="spacingAndGlyphs" textLength="143" x="50" y="103.7344">Aggregate：技术实现</text><text fill="#000000" font-family="sans-serif" font-size="14" font-style="italic" lengthAdjust="spacingAndGlyphs" textLength="215" x="195" y="126.2227">«ddd.plus.showcase.wms.infra»</text><!--cluster 跨聚合复杂流程--><polygon fill="#FFFFFF" filter="url(#fbmibwh)" points="126,464.1992,230,464.1992,237,486.6875,944,486.6875,944,689.1992,126,689.1992,126,464.1992" style="stroke: #000000; stroke-width: 2.0;"/><line style="stroke: #000000; stroke-width: 2.0;" x1="126" x2="237" y1="486.6875" y2="486.6875"/><text fill="#000000" font-family="sans-serif" font-size="14" font-weight="bold" lengthAdjust="spacingAndGlyphs" textLength="98" x="130" y="479.7344">跨聚合复杂流程</text><text fill="#000000" font-family="sans-serif" font-size="14" font-style="italic" lengthAdjust="spacingAndGlyphs" textLength="125" x="476.5" y="502.2227">«Orphan Services»</text><!--class TaskPo--><rect fill="#FEFECE" filter="url(#fbmibwh)" height="99.8203" style="stroke: #A80036; stroke-width: 1.5;" width="331" x="133" y="139.1992"/><ellipse cx="273.25" cy="155.1992" fill="#ADD1B2" rx="11" ry="11" style="stroke: #A80036; stroke-width: 1.0;"/><path d="M275.7231,161.3423 Q275.1421,161.6411 274.5029,161.7905 Q273.8638,161.9399 273.1582,161.9399 Q270.6514,161.9399 269.3315,160.2881 Q268.0117,158.6362 268.0117,155.5151 Q268.0117,152.3857 269.3315,150.7339 Q270.6514,149.082 273.1582,149.082 Q273.8638,149.082 274.5112,149.2314 Q275.1587,149.3809 275.7231,149.6797 L275.7231,152.4023 Q275.0923,151.8213 274.4988,151.5515 Q273.9053,151.2817 273.2744,151.2817 Q271.9297,151.2817 271.2449,152.3484 Q270.5601,153.415 270.5601,155.5151 Q270.5601,157.6069 271.2449,158.6736 Q271.9297,159.7402 273.2744,159.7402 Q273.9053,159.7402 274.4988,159.4705 Q275.0923,159.2007 275.7231,158.6196 Z "/><text fill="#000000" font-family="sans-serif" font-size="12" lengthAdjust="spacingAndGlyphs" textLength="42" x="293.75" y="159.7344">TaskPo</text><line style="stroke: #A80036; stroke-width: 1.5;" x1="134" x2="463" y1="171.1992" y2="171.1992"/><text fill="#000000" font-family="sans-serif" font-size="11" lengthAdjust="spacingAndGlyphs" textLength="201" x="139" y="202.7891">TaskMode/(use MyBatis TypeHandler)</text><line style="stroke: #A80036; stroke-width: 1.5;" x1="134" x2="272" y1="185.6768" y2="185.6768"/><text fill="#000000" font-family="sans-serif" font-size="11" lengthAdjust="spacingAndGlyphs" textLength="53" x="272" y="189.334">Structural</text><line style="stroke: #A80036; stroke-width: 1.5;" x1="325" x2="463" y1="185.6768" y2="185.6768"/><text fill="#000000" font-family="sans-serif" font-size="11" lengthAdjust="spacingAndGlyphs" textLength="319" x="139" y="232.6992">shouldHaveNoLogic() po对象不能有任何setter getter外的逻辑</text><line style="stroke: #A80036; stroke-width: 1.5;" x1="134" x2="287.5" y1="215.5869" y2="215.5869"/><text fill="#000000" font-family="sans-serif" font-size="11" lengthAdjust="spacingAndGlyphs" textLength="22" x="287.5" y="219.2441">行为</text><line style="stroke: #A80036; stroke-width: 1.5;" x1="309.5" x2="463" y1="215.5869" y2="215.5869"/><!--class TaskRepository--><rect fill="#FEFECE" filter="url(#fbmibwh)" height="125.7305" style="stroke: #A80036; stroke-width: 1.5;" width="473" x="62" y="274.1992"/><ellipse cx="249.75" cy="290.1992" fill="#ADD1B2" rx="11" ry="11" style="stroke: #A80036; stroke-width: 1.0;"/><path d="M252.2231,296.3423 Q251.6421,296.6411 251.0029,296.7905 Q250.3638,296.9399 249.6582,296.9399 Q247.1514,296.9399 245.8315,295.2881 Q244.5117,293.6362 244.5117,290.5151 Q244.5117,287.3857 245.8315,285.7339 Q247.1514,284.082 249.6582,284.082 Q250.3638,284.082 251.0112,284.2314 Q251.6587,284.3809 252.2231,284.6797 L252.2231,287.4023 Q251.5923,286.8213 250.9988,286.5515 Q250.4053,286.2817 249.7744,286.2817 Q248.4297,286.2817 247.7449,287.3484 Q247.0601,288.415 247.0601,290.5151 Q247.0601,292.6069 247.7449,293.6736 Q248.4297,294.7402 249.7744,294.7402 Q250.4053,294.7402 250.9988,294.4705 Q251.5923,294.2007 252.2231,293.6196 Z "/><text fill="#000000" font-family="sans-serif" font-size="12" lengthAdjust="spacingAndGlyphs" textLength="89" x="270.25" y="294.7344">TaskRepository</text><line style="stroke: #A80036; stroke-width: 1.5;" x1="63" x2="534" y1="306.1992" y2="306.1992"/><text fill="#000000" font-family="sans-serif" font-size="11" lengthAdjust="spacingAndGlyphs" textLength="206" x="68" y="337.7891">_self/如何克服Java访问权限控制粒度问题</text><line style="stroke: #A80036; stroke-width: 1.5;" x1="63" x2="272" y1="320.6768" y2="320.6768"/><text fill="#000000" font-family="sans-serif" font-size="11" lengthAdjust="spacingAndGlyphs" textLength="53" x="272" y="324.334">Structural</text><line style="stroke: #A80036; stroke-width: 1.5;" x1="325" x2="534" y1="320.6768" y2="320.6768"/><text fill="#000000" font-family="sans-serif" font-size="11" lengthAdjust="spacingAndGlyphs" textLength="461" x="68" y="367.6992">mustGetPending() 如何把数据库里的数据转换为充血模型的IDomainModel，并注入关联对象</text><text fill="#000000" font-family="sans-serif" font-size="11" lengthAdjust="spacingAndGlyphs" textLength="295" x="68" y="380.6543">save(TaskOfSku) 如何把充血模型落库，dirty hint，乐观锁</text><text fill="#000000" font-family="sans-serif" font-size="11" lengthAdjust="spacingAndGlyphs" textLength="225" x="68" y="393.6094">save(TaskOfContainer) 如何使用mapstruct</text><line style="stroke: #A80036; stroke-width: 1.5;" x1="63" x2="287.5" y1="350.5869" y2="350.5869"/><text fill="#000000" font-family="sans-serif" font-size="11" lengthAdjust="spacingAndGlyphs" textLength="22" x="287.5" y="354.2441">行为</text><line style="stroke: #A80036; stroke-width: 1.5;" x1="309.5" x2="534" y1="350.5869" y2="350.5869"/><!--class TaskCartonItemsDb--><rect fill="#FEFECE" filter="url(#fbmibwh)" height="60.9551" style="stroke: #A80036; stroke-width: 1.5;" width="224" x="186.5" y="611.6992"/><ellipse cx="237.25" cy="627.6992" fill="#ADD1B2" rx="11" ry="11" style="stroke: #A80036; stroke-width: 1.0;"/><path d="M239.7231,633.8423 Q239.1421,634.1411 238.5029,634.2905 Q237.8638,634.4399 237.1582,634.4399 Q234.6514,634.4399 233.3315,632.7881 Q232.0117,631.1362 232.0117,628.0151 Q232.0117,624.8857 233.3315,623.2339 Q234.6514,621.582 237.1582,621.582 Q237.8638,621.582 238.5112,621.7314 Q239.1587,621.8809 239.7231,622.1797 L239.7231,624.9023 Q239.0923,624.3213 238.4988,624.0515 Q237.9053,623.7817 237.2744,623.7817 Q235.9297,623.7817 235.2449,624.8484 Q234.5601,625.915 234.5601,628.0151 Q234.5601,630.1069 235.2449,631.1736 Q235.9297,632.2402 237.2744,632.2402 Q237.9053,632.2402 238.4988,631.9705 Q239.0923,631.7007 239.7231,631.1196 Z "/><text fill="#000000" font-family="sans-serif" font-size="12" lengthAdjust="spacingAndGlyphs" textLength="114" x="257.75" y="632.2344">TaskCartonItemsDb</text><line style="stroke: #A80036; stroke-width: 1.5;" x1="187.5" x2="409.5" y1="643.6992" y2="643.6992"/><line style="stroke: #A80036; stroke-width: 1.5;" x1="187.5" x2="409.5" y1="651.6992" y2="651.6992"/><text fill="#000000" font-family="sans-serif" font-size="11" lengthAdjust="spacingAndGlyphs" textLength="212" x="192.5" y="666.334">cartonItemBag() 另外一个关联对象的实现.</text><!--class TaskConverter--><rect fill="#FEFECE" filter="url(#fbmibwh)" height="60.9551" style="stroke: #A80036; stroke-width: 1.5;" width="313" x="142" y="515.6992"/><ellipse cx="252.25" cy="531.6992" fill="#ADD1B2" rx="11" ry="11" style="stroke: #A80036; stroke-width: 1.0;"/><path d="M254.7231,537.8423 Q254.1421,538.1411 253.5029,538.2905 Q252.8638,538.4399 252.1582,538.4399 Q249.6514,538.4399 248.3315,536.7881 Q247.0117,535.1362 247.0117,532.0151 Q247.0117,528.8857 248.3315,527.2339 Q249.6514,525.582 252.1582,525.582 Q252.8638,525.582 253.5112,525.7314 Q254.1587,525.8809 254.7231,526.1797 L254.7231,528.9023 Q254.0923,528.3213 253.4988,528.0515 Q252.9053,527.7817 252.2744,527.7817 Q250.9297,527.7817 250.2449,528.8484 Q249.5601,529.915 249.5601,532.0151 Q249.5601,534.1069 250.2449,535.1736 Q250.9297,536.2402 252.2744,536.2402 Q252.9053,536.2402 253.4988,535.9705 Q254.0923,535.7007 254.7231,535.1196 Z "/><text fill="#000000" font-family="sans-serif" font-size="12" lengthAdjust="spacingAndGlyphs" textLength="84" x="272.75" y="536.2344">TaskConverter</text><line style="stroke: #A80036; stroke-width: 1.5;" x1="143" x2="454" y1="547.6992" y2="547.6992"/><line style="stroke: #A80036; stroke-width: 1.5;" x1="143" x2="454" y1="555.6992" y2="555.6992"/><text fill="#000000" font-family="sans-serif" font-size="11" lengthAdjust="spacingAndGlyphs" textLength="301" x="148" y="570.334">toPo(TaskOfSku) 如何落库时处理查询和报表使用的冗余字段</text><!--class TaskOrdersDb--><rect fill="#FEFECE" filter="url(#fbmibwh)" height="73.9102" style="stroke: #A80036; stroke-width: 1.5;" width="333" x="595" y="599.1992"/><ellipse cx="714.75" cy="615.1992" fill="#ADD1B2" rx="11" ry="11" style="stroke: #A80036; stroke-width: 1.0;"/><path d="M717.2231,621.3423 Q716.6421,621.6411 716.0029,621.7905 Q715.3638,621.9399 714.6582,621.9399 Q712.1514,621.9399 710.8315,620.2881 Q709.5117,618.6362 709.5117,615.5151 Q709.5117,612.3857 710.8315,610.7339 Q712.1514,609.082 714.6582,609.082 Q715.3638,609.082 716.0112,609.2314 Q716.6587,609.3809 717.2231,609.6797 L717.2231,612.4023 Q716.5923,611.8213 715.9988,611.5515 Q715.4053,611.2817 714.7744,611.2817 Q713.4297,611.2817 712.7449,612.3484 Q712.0601,613.415 712.0601,615.5151 Q712.0601,617.6069 712.7449,618.6736 Q713.4297,619.7402 714.7744,619.7402 Q715.4053,619.7402 715.9988,619.4705 Q716.5923,619.2007 717.2231,618.6196 Z "/><text fill="#000000" font-family="sans-serif" font-size="12" lengthAdjust="spacingAndGlyphs" textLength="85" x="735.25" y="619.7344">TaskOrdersDb</text><line style="stroke: #A80036; stroke-width: 1.5;" x1="596" x2="927" y1="631.1992" y2="631.1992"/><line style="stroke: #A80036; stroke-width: 1.5;" x1="596" x2="927" y1="639.1992" y2="639.1992"/><text fill="#000000" font-family="sans-serif" font-size="11" lengthAdjust="spacingAndGlyphs" textLength="275" x="601" y="653.834">pendingOrders() 如何实现关联对象，注入dao和entity</text><text fill="#000000" font-family="sans-serif" font-size="11" lengthAdjust="spacingAndGlyphs" textLength="321" x="601" y="666.7891">pendingOrder(OrderNo) 关联对象实现业务校验，避免逻辑泄露</text><text fill="#888888" font-family="sans-serif" font-size="10" lengthAdjust="spacingAndGlyphs" textLength="108" x="435" y="724.8672">generated by DDDplus</text></g></svg>