<?xml version="1.0" encoding="UTF-8" standalone="no"?><svg xmlns="http://www.w3.org/2000/svg" xmlns:xlink="http://www.w3.org/1999/xlink" contentScriptType="application/ecmascript" contentStyleType="text/css" height="653px" preserveAspectRatio="none" style="width:970px;height:653px;" version="1.1" viewBox="0 0 970 653" width="970px" zoomAndPan="magnify"><defs><filter height="300%" id="f0z34eg" width="300%" x="-1" y="-1"><feGaussianBlur result="blurOut" stdDeviation="2.0"/><feColorMatrix in="blurOut" result="blurOut2" type="matrix" values="0 0 0 0 0 0 0 0 0 0 0 0 0 0 0 0 0 0 .4 0"/><feOffset dx="4.0" dy="4.0" in="blurOut2" result="blurOut3"/><feBlend in="SourceGraphic" in2="blurOut3" mode="normal"/></filter></defs><g><text fill="#000000" font-family="sans-serif" font-size="18" lengthAdjust="spacingAndGlyphs" textLength="144" x="426.5" y="17.4023">技术实现细节指引</text><!--cluster 业务模型--><polygon fill="#FFFFFF" filter="url(#f0z34eg)" points="22,99.1992,84,99.1992,91,121.6875,963,121.6875,963,617.1992,22,617.1992,22,99.1992" style="stroke: #000000; stroke-width: 2.0;"/><line style="stroke: #000000; stroke-width: 2.0;" x1="22" x2="91" y1="121.6875" y2="121.6875"/><text fill="#000000" font-family="sans-serif" font-size="14" font-weight="bold" lengthAdjust="spacingAndGlyphs" textLength="56" x="26" y="114.7344">业务模型</text><!--cluster Aggregate：技术实现--><polygon fill="#FFFFFF" filter="url(#f0z34eg)" points="46,142.1992,195,142.1992,202,164.6875,939,164.6875,939,593.1992,46,593.1992,46,142.1992" style="stroke: #000000; stroke-width: 2.0;"/><line style="stroke: #000000; stroke-width: 2.0;" x1="46" x2="202" y1="164.6875" y2="164.6875"/><text fill="#000000" font-family="sans-serif" font-size="14" font-weight="bold" lengthAdjust="spacingAndGlyphs" textLength="143" x="50" y="157.7344">Aggregate：技术实现</text><text fill="#000000" font-family="sans-serif" font-size="14" font-style="italic" lengthAdjust="spacingAndGlyphs" textLength="215" x="389" y="180.2227">«ddd.plus.showcase.wms.infra»</text><!--class OrderContainerItemsDb--><rect fill="#FEFECE" filter="url(#f0z34eg)" height="99.8203" style="stroke: #A80036; stroke-width: 1.5;" width="328" x="62" y="477.1992"/><ellipse cx="153.25" cy="493.1992" fill="#ADD1B2" rx="11" ry="11" style="stroke: #A80036; stroke-width: 1.0;"/><path d="M155.7231,499.3423 Q155.1421,499.6411 154.5029,499.7905 Q153.8638,499.9399 153.1582,499.9399 Q150.6514,499.9399 149.3315,498.2881 Q148.0117,496.6362 148.0117,493.5151 Q148.0117,490.3857 149.3315,488.7339 Q150.6514,487.082 153.1582,487.082 Q153.8638,487.082 154.5112,487.2314 Q155.1587,487.3809 155.7231,487.6797 L155.7231,490.4023 Q155.0923,489.8213 154.4988,489.5515 Q153.9053,489.2817 153.2744,489.2817 Q151.9297,489.2817 151.2449,490.3484 Q150.5601,491.415 150.5601,493.5151 Q150.5601,495.6069 151.2449,496.6736 Q151.9297,497.7402 153.2744,497.7402 Q153.9053,497.7402 154.4988,497.4705 Q155.0923,497.2007 155.7231,496.6196 Z "/><text fill="#000000" font-family="sans-serif" font-size="12" lengthAdjust="spacingAndGlyphs" textLength="137" x="173.75" y="497.7344">OrderContainerItemsDb</text><line style="stroke: #A80036; stroke-width: 1.5;" x1="63" x2="389" y1="509.1992" y2="509.1992"/><text fill="#000000" font-family="sans-serif" font-size="11" lengthAdjust="spacingAndGlyphs" textLength="56" x="68" y="540.7891">Dao Order</text><line style="stroke: #A80036; stroke-width: 1.5;" x1="63" x2="199.5" y1="523.6768" y2="523.6768"/><text fill="#000000" font-family="sans-serif" font-size="11" lengthAdjust="spacingAndGlyphs" textLength="53" x="199.5" y="527.334">Structural</text><line style="stroke: #A80036; stroke-width: 1.5;" x1="252.5" x2="389" y1="523.6768" y2="523.6768"/><text fill="#000000" font-family="sans-serif" font-size="11" lengthAdjust="spacingAndGlyphs" textLength="316" x="68" y="570.6992">containerItemBag() 订单通过关联对象访问另外一个聚合内对象.</text><line style="stroke: #A80036; stroke-width: 1.5;" x1="63" x2="215" y1="553.5869" y2="553.5869"/><text fill="#000000" font-family="sans-serif" font-size="11" lengthAdjust="spacingAndGlyphs" textLength="22" x="215" y="557.2441">行为</text><line style="stroke: #A80036; stroke-width: 1.5;" x1="237" x2="389" y1="553.5869" y2="553.5869"/><!--class TaskCartonItemsDb--><rect fill="#FEFECE" filter="url(#f0z34eg)" height="99.8203" style="stroke: #A80036; stroke-width: 1.5;" width="224" x="114" y="342.1992"/><ellipse cx="164.75" cy="358.1992" fill="#ADD1B2" rx="11" ry="11" style="stroke: #A80036; stroke-width: 1.0;"/><path d="M167.2231,364.3423 Q166.6421,364.6411 166.0029,364.7905 Q165.3638,364.9399 164.6582,364.9399 Q162.1514,364.9399 160.8315,363.2881 Q159.5117,361.6362 159.5117,358.5151 Q159.5117,355.3857 160.8315,353.7339 Q162.1514,352.082 164.6582,352.082 Q165.3638,352.082 166.0112,352.2314 Q166.6587,352.3809 167.2231,352.6797 L167.2231,355.4023 Q166.5923,354.8213 165.9988,354.5515 Q165.4053,354.2817 164.7744,354.2817 Q163.4297,354.2817 162.7449,355.3484 Q162.0601,356.415 162.0601,358.5151 Q162.0601,360.6069 162.7449,361.6736 Q163.4297,362.7402 164.7744,362.7402 Q165.4053,362.7402 165.9988,362.4705 Q166.5923,362.2007 167.2231,361.6196 Z "/><text fill="#000000" font-family="sans-serif" font-size="12" lengthAdjust="spacingAndGlyphs" textLength="114" x="185.25" y="362.7344">TaskCartonItemsDb</text><line style="stroke: #A80036; stroke-width: 1.5;" x1="115" x2="337" y1="374.1992" y2="374.1992"/><text fill="#000000" font-family="sans-serif" font-size="11" lengthAdjust="spacingAndGlyphs" textLength="49" x="120" y="405.7891">Dao Task</text><line style="stroke: #A80036; stroke-width: 1.5;" x1="115" x2="199.5" y1="388.6768" y2="388.6768"/><text fill="#000000" font-family="sans-serif" font-size="11" lengthAdjust="spacingAndGlyphs" textLength="53" x="199.5" y="392.334">Structural</text><line style="stroke: #A80036; stroke-width: 1.5;" x1="252.5" x2="337" y1="388.6768" y2="388.6768"/><text fill="#000000" font-family="sans-serif" font-size="11" lengthAdjust="spacingAndGlyphs" textLength="212" x="120" y="435.6992">cartonItemBag() 另外一个关联对象的实现.</text><line style="stroke: #A80036; stroke-width: 1.5;" x1="115" x2="215" y1="418.5869" y2="418.5869"/><text fill="#000000" font-family="sans-serif" font-size="11" lengthAdjust="spacingAndGlyphs" textLength="22" x="215" y="422.2441">行为</text><line style="stroke: #A80036; stroke-width: 1.5;" x1="237" x2="337" y1="418.5869" y2="418.5869"/><!--class TaskOrdersDb--><rect fill="#FEFECE" filter="url(#f0z34eg)" height="112.7754" style="stroke: #A80036; stroke-width: 1.5;" width="287" x="82.5" y="193.6992"/><ellipse cx="179.25" cy="209.6992" fill="#ADD1B2" rx="11" ry="11" style="stroke: #A80036; stroke-width: 1.0;"/><path d="M181.7231,215.8423 Q181.1421,216.1411 180.5029,216.2905 Q179.8638,216.4399 179.1582,216.4399 Q176.6514,216.4399 175.3315,214.7881 Q174.0117,213.1362 174.0117,210.0151 Q174.0117,206.8857 175.3315,205.2339 Q176.6514,203.582 179.1582,203.582 Q179.8638,203.582 180.5112,203.7314 Q181.1587,203.8809 181.7231,204.1797 L181.7231,206.9023 Q181.0923,206.3213 180.4988,206.0515 Q179.9053,205.7817 179.2744,205.7817 Q177.9297,205.7817 177.2449,206.8484 Q176.5601,207.915 176.5601,210.0151 Q176.5601,212.1069 177.2449,213.1736 Q177.9297,214.2402 179.2744,214.2402 Q179.9053,214.2402 180.4988,213.9705 Q181.0923,213.7007 181.7231,213.1196 Z "/><text fill="#000000" font-family="sans-serif" font-size="12" lengthAdjust="spacingAndGlyphs" textLength="85" x="199.75" y="214.2344">TaskOrdersDb</text><line style="stroke: #A80036; stroke-width: 1.5;" x1="83.5" x2="368.5" y1="225.6992" y2="225.6992"/><text fill="#000000" font-family="sans-serif" font-size="11" lengthAdjust="spacingAndGlyphs" textLength="49" x="88.5" y="257.2891">Dao Task</text><line style="stroke: #A80036; stroke-width: 1.5;" x1="83.5" x2="199.5" y1="240.1768" y2="240.1768"/><text fill="#000000" font-family="sans-serif" font-size="11" lengthAdjust="spacingAndGlyphs" textLength="53" x="199.5" y="243.834">Structural</text><line style="stroke: #A80036; stroke-width: 1.5;" x1="252.5" x2="368.5" y1="240.1768" y2="240.1768"/><text fill="#000000" font-family="sans-serif" font-size="11" lengthAdjust="spacingAndGlyphs" textLength="274" x="88.5" y="287.1992">pendingOrder() 关联对象实现业务校验，避免逻辑泄露</text><text fill="#000000" font-family="sans-serif" font-size="11" lengthAdjust="spacingAndGlyphs" textLength="275" x="88.5" y="300.1543">pendingOrders() 如何实现关联对象，注入dao和entity</text><line style="stroke: #A80036; stroke-width: 1.5;" x1="83.5" x2="215" y1="270.0869" y2="270.0869"/><text fill="#000000" font-family="sans-serif" font-size="11" lengthAdjust="spacingAndGlyphs" textLength="22" x="215" y="273.7441">行为</text><line style="stroke: #A80036; stroke-width: 1.5;" x1="237" x2="368.5" y1="270.0869" y2="270.0869"/><!--class TaskPo--><rect fill="#FEFECE" filter="url(#f0z34eg)" height="99.8203" style="stroke: #A80036; stroke-width: 1.5;" width="331" x="521" y="477.1992"/><ellipse cx="661.25" cy="493.1992" fill="#ADD1B2" rx="11" ry="11" style="stroke: #A80036; stroke-width: 1.0;"/><path d="M663.7231,499.3423 Q663.1421,499.6411 662.5029,499.7905 Q661.8638,499.9399 661.1582,499.9399 Q658.6514,499.9399 657.3315,498.2881 Q656.0117,496.6362 656.0117,493.5151 Q656.0117,490.3857 657.3315,488.7339 Q658.6514,487.082 661.1582,487.082 Q661.8638,487.082 662.5112,487.2314 Q663.1587,487.3809 663.7231,487.6797 L663.7231,490.4023 Q663.0923,489.8213 662.4988,489.5515 Q661.9053,489.2817 661.2744,489.2817 Q659.9297,489.2817 659.2449,490.3484 Q658.5601,491.415 658.5601,493.5151 Q658.5601,495.6069 659.2449,496.6736 Q659.9297,497.7402 661.2744,497.7402 Q661.9053,497.7402 662.4988,497.4705 Q663.0923,497.2007 663.7231,496.6196 Z "/><text fill="#000000" font-family="sans-serif" font-size="12" lengthAdjust="spacingAndGlyphs" textLength="42" x="681.75" y="497.7344">TaskPo</text><line style="stroke: #A80036; stroke-width: 1.5;" x1="522" x2="851" y1="509.1992" y2="509.1992"/><text fill="#000000" font-family="sans-serif" font-size="11" lengthAdjust="spacingAndGlyphs" textLength="201" x="527" y="540.7891">TaskMode/(use MyBatis TypeHandler)</text><line style="stroke: #A80036; stroke-width: 1.5;" x1="522" x2="660" y1="523.6768" y2="523.6768"/><text fill="#000000" font-family="sans-serif" font-size="11" lengthAdjust="spacingAndGlyphs" textLength="53" x="660" y="527.334">Structural</text><line style="stroke: #A80036; stroke-width: 1.5;" x1="713" x2="851" y1="523.6768" y2="523.6768"/><text fill="#000000" font-family="sans-serif" font-size="11" lengthAdjust="spacingAndGlyphs" textLength="319" x="527" y="570.6992">shouldHaveNoLogic() po对象不能有任何setter getter外的逻辑</text><line style="stroke: #A80036; stroke-width: 1.5;" x1="522" x2="675.5" y1="553.5869" y2="553.5869"/><text fill="#000000" font-family="sans-serif" font-size="11" lengthAdjust="spacingAndGlyphs" textLength="22" x="675.5" y="557.2441">行为</text><line style="stroke: #A80036; stroke-width: 1.5;" x1="697.5" x2="851" y1="553.5869" y2="553.5869"/><!--class TaskRepository--><rect fill="#FEFECE" filter="url(#f0z34eg)" height="168.5957" style="stroke: #A80036; stroke-width: 1.5;" width="473" x="450" y="272.6992"/><ellipse cx="637.75" cy="288.6992" fill="#ADD1B2" rx="11" ry="11" style="stroke: #A80036; stroke-width: 1.0;"/><path d="M640.2231,294.8423 Q639.6421,295.1411 639.0029,295.2905 Q638.3638,295.4399 637.6582,295.4399 Q635.1514,295.4399 633.8315,293.7881 Q632.5117,292.1362 632.5117,289.0151 Q632.5117,285.8857 633.8315,284.2339 Q635.1514,282.582 637.6582,282.582 Q638.3638,282.582 639.0112,282.7314 Q639.6587,282.8809 640.2231,283.1797 L640.2231,285.9023 Q639.5923,285.3213 638.9988,285.0515 Q638.4053,284.7817 637.7744,284.7817 Q636.4297,284.7817 635.7449,285.8484 Q635.0601,286.915 635.0601,289.0151 Q635.0601,291.1069 635.7449,292.1736 Q636.4297,293.2402 637.7744,293.2402 Q638.4053,293.2402 638.9988,292.9705 Q639.5923,292.7007 640.2231,292.1196 Z "/><text fill="#000000" font-family="sans-serif" font-size="12" lengthAdjust="spacingAndGlyphs" textLength="89" x="658.25" y="293.2344">TaskRepository</text><line style="stroke: #A80036; stroke-width: 1.5;" x1="451" x2="922" y1="304.6992" y2="304.6992"/><text fill="#000000" font-family="sans-serif" font-size="11" lengthAdjust="spacingAndGlyphs" textLength="206" x="456" y="336.2891">_self/如何克服Java访问权限控制粒度问题</text><line style="stroke: #A80036; stroke-width: 1.5;" x1="451" x2="660" y1="319.1768" y2="319.1768"/><text fill="#000000" font-family="sans-serif" font-size="11" lengthAdjust="spacingAndGlyphs" textLength="53" x="660" y="322.834">Structural</text><line style="stroke: #A80036; stroke-width: 1.5;" x1="713" x2="922" y1="319.1768" y2="319.1768"/><text fill="#000000" font-family="sans-serif" font-size="11" lengthAdjust="spacingAndGlyphs" textLength="461" x="456" y="366.1992">mustGetPending() 如何把数据库里的数据转换为充血模型的IDomainModel，并注入关联对象</text><text fill="#000000" font-family="sans-serif" font-size="11" lengthAdjust="spacingAndGlyphs" textLength="231" x="456" y="379.1543">mustGetPending() 如何从数据库加载场景对象</text><text fill="#000000" font-family="sans-serif" font-size="11" lengthAdjust="spacingAndGlyphs" textLength="295" x="456" y="392.1094">save(TaskOfSku) 如何把充血模型落库，dirty hint，乐观锁</text><text fill="#000000" font-family="sans-serif" font-size="11" lengthAdjust="spacingAndGlyphs" textLength="225" x="456" y="405.0645">save(TaskOfContainer) 如何使用mapstruct</text><line style="stroke: #A80036; stroke-width: 1.5;" x1="451" x2="675.5" y1="349.0869" y2="349.0869"/><text fill="#000000" font-family="sans-serif" font-size="11" lengthAdjust="spacingAndGlyphs" textLength="22" x="675.5" y="352.7441">行为</text><line style="stroke: #A80036; stroke-width: 1.5;" x1="697.5" x2="922" y1="349.0869" y2="349.0869"/><text fill="#000000" font-family="sans-serif" font-size="11" lengthAdjust="spacingAndGlyphs" textLength="301" x="456" y="434.9746">toPo(TaskOfSku) 如何落库时处理查询和报表使用的冗余字段</text><text fill="#808000" font-family="sans-serif" font-size="11" lengthAdjust="spacingAndGlyphs" textLength="79" x="760" y="434.9746">TaskConverter</text><line style="stroke: #A80036; stroke-width: 1.5;" x1="451" x2="675.5" y1="417.8623" y2="417.8623"/><text fill="#000000" font-family="sans-serif" font-size="11" lengthAdjust="spacingAndGlyphs" textLength="22" x="675.5" y="421.5195">流程</text><line style="stroke: #A80036; stroke-width: 1.5;" x1="697.5" x2="922" y1="417.8623" y2="417.8623"/><polygon fill="#FFFFFF" filter="url(#f0z34eg)" points="152.5,29.6992,256.5,29.6992,263.5,52.1875,299.5,52.1875,299.5,82.6758,152.5,82.6758,152.5,29.6992" style="stroke: #000000; stroke-width: 2.0;"/><line style="stroke: #000000; stroke-width: 2.0;" x1="152.5" x2="263.5" y1="52.1875" y2="52.1875"/><text fill="#000000" font-family="sans-serif" font-size="14" font-weight="bold" lengthAdjust="spacingAndGlyphs" textLength="98" x="156.5" y="45.2344">跨聚合复杂流程</text><text fill="#000000" font-family="sans-serif" font-size="14" font-style="italic" lengthAdjust="spacingAndGlyphs" textLength="125" x="167.5" y="67.7227">«Orphan Services»</text><text fill="#888888" font-family="sans-serif" font-size="10" lengthAdjust="spacingAndGlyphs" textLength="108" x="444.5" y="652.8672">generated by DDDplus</text></g></svg>