<?xml version="1.0" encoding="UTF-8" standalone="no"?><svg xmlns="http://www.w3.org/2000/svg" xmlns:xlink="http://www.w3.org/1999/xlink" contentScriptType="application/ecmascript" contentStyleType="text/css" height="1127px" preserveAspectRatio="none" style="width:2502px;height:1127px;" version="1.1" viewBox="0 0 2502 1127" width="2502px" zoomAndPan="magnify"><defs><filter height="300%" id="fbpcz0a" width="300%" x="-1" y="-1"><feGaussianBlur result="blurOut" stdDeviation="2.0"/><feColorMatrix in="blurOut" result="blurOut2" type="matrix" values="0 0 0 0 0 0 0 0 0 0 0 0 0 0 0 0 0 0 .4 0"/><feOffset dx="4.0" dy="4.0" in="blurOut2" result="blurOut3"/><feBlend in="SourceGraphic" in2="blurOut3" mode="normal"/></filter></defs><g><text fill="#888888" font-family="sans-serif" font-size="10" lengthAdjust="spacingAndGlyphs" textLength="182" x="2319" y="9.668">公共类：27，标注：14，覆盖率：51.9%</text><text fill="#888888" font-family="sans-serif" font-size="10" lengthAdjust="spacingAndGlyphs" textLength="192" x="2309" y="21.4453">公共方法：43，标注：19，覆盖率：44.2%</text><text fill="#888888" font-family="sans-serif" font-size="10" lengthAdjust="spacingAndGlyphs" textLength="192" x="2309" y="33.2227">字段属性：70，标注：25，覆盖率：35.7%</text><!--cluster Aggregate：客户出库单--><polygon fill="#FFFFFF" filter="url(#fbpcz0a)" points="1485,185.332,1648,185.332,1655,207.8203,2467,207.8203,2467,428.332,1485,428.332,1485,185.332" style="stroke: #000000; stroke-width: 2.0;"/><line style="stroke: #000000; stroke-width: 2.0;" x1="1485" x2="1655" y1="207.8203" y2="207.8203"/><text fill="#000000" font-family="sans-serif" font-size="14" font-weight="bold" lengthAdjust="spacingAndGlyphs" textLength="157" x="1489" y="200.8672">Aggregate：客户出库单</text><text fill="#000000" font-family="sans-serif" font-size="14" font-style="italic" lengthAdjust="spacingAndGlyphs" textLength="277" x="1841.5" y="223.3555">«ddd.plus.showcase.wms.domain.order»</text><!--cluster Aggregate：包裹--><polygon fill="#FFFFFF" filter="url(#fbpcz0a)" points="1833,452.332,1954,452.332,1961,474.8203,2120,474.8203,2120,695.332,1833,695.332,1833,452.332" style="stroke: #000000; stroke-width: 2.0;"/><line style="stroke: #000000; stroke-width: 2.0;" x1="1833" x2="1961" y1="474.8203" y2="474.8203"/><text fill="#000000" font-family="sans-serif" font-size="14" font-weight="bold" lengthAdjust="spacingAndGlyphs" textLength="115" x="1837" y="467.8672">Aggregate：包裹</text><text fill="#000000" font-family="sans-serif" font-size="14" font-style="italic" lengthAdjust="spacingAndGlyphs" textLength="271" x="1845" y="490.3555">«ddd.plus.showcase.wms.domain.pack»</text><!--cluster Aggregate：装箱--><polygon fill="#FFFFFF" filter="url(#fbpcz0a)" points="78,334.332,199,334.332,206,356.8203,615,356.8203,615,695.332,78,695.332,78,334.332" style="stroke: #000000; stroke-width: 2.0;"/><line style="stroke: #000000; stroke-width: 2.0;" x1="78" x2="206" y1="356.8203" y2="356.8203"/><text fill="#000000" font-family="sans-serif" font-size="14" font-weight="bold" lengthAdjust="spacingAndGlyphs" textLength="115" x="82" y="349.8672">Aggregate：装箱</text><text fill="#000000" font-family="sans-serif" font-size="14" font-style="italic" lengthAdjust="spacingAndGlyphs" textLength="283" x="209" y="372.3555">«ddd.plus.showcase.wms.domain.carton»</text><!--cluster Aggregate：通用子域--><polygon fill="#FFFFFF" filter="url(#fbpcz0a)" points="720.5,408.332,869.5,408.332,876.5,430.8203,1035.5,430.8203,1035.5,581.332,720.5,581.332,720.5,408.332" style="stroke: #000000; stroke-width: 2.0;"/><line style="stroke: #000000; stroke-width: 2.0;" x1="720.5" x2="876.5" y1="430.8203" y2="430.8203"/><text fill="#000000" font-family="sans-serif" font-size="14" font-weight="bold" lengthAdjust="spacingAndGlyphs" textLength="143" x="724.5" y="423.8672">Aggregate：通用子域</text><text fill="#000000" font-family="sans-serif" font-size="14" font-style="italic" lengthAdjust="spacingAndGlyphs" textLength="299" x="732.5" y="446.3555">«ddd.plus.showcase.wms.domain.common»</text><!--cluster Aggregate：出库复核任务--><polygon fill="#FFFFFF" filter="url(#fbpcz0a)" points="437,719.332,614,719.332,621,741.8203,2115,741.8203,2115,1090.332,437,1090.332,437,719.332" style="stroke: #000000; stroke-width: 2.0;"/><line style="stroke: #000000; stroke-width: 2.0;" x1="437" x2="621" y1="741.8203" y2="741.8203"/><text fill="#000000" font-family="sans-serif" font-size="14" font-weight="bold" lengthAdjust="spacingAndGlyphs" textLength="171" x="441" y="734.8672">Aggregate：出库复核任务</text><text fill="#000000" font-family="sans-serif" font-size="14" font-style="italic" lengthAdjust="spacingAndGlyphs" textLength="267" x="1146.5" y="757.3555">«ddd.plus.showcase.wms.domain.task»</text><!--cluster 交互--><polygon fill="#FFFFFF" filter="url(#fbpcz0a)" points="22,59.332,56,59.332,63,81.8203,284,81.8203,284,310.332,22,310.332,22,59.332" style="stroke: #000000; stroke-width: 2.0;"/><line style="stroke: #000000; stroke-width: 2.0;" x1="22" x2="63" y1="81.8203" y2="81.8203"/><text fill="#000000" font-family="sans-serif" font-size="14" font-weight="bold" lengthAdjust="spacingAndGlyphs" textLength="28" x="26" y="74.8672">交互</text><text fill="#000000" font-family="sans-serif" font-size="14" font-style="italic" lengthAdjust="spacingAndGlyphs" textLength="72" x="121" y="97.3555">«UseCase»</text><!--class Order--><rect fill="#FEFECE" filter="url(#fbpcz0a)" height="76.1758" style="stroke: #A80036; stroke-width: 1.5;" width="116" x="1525" y="302.332"/><ellipse cx="1540" cy="321.4648" fill="#FF7700" rx="11" ry="11" style="stroke: #A80036; stroke-width: 1.0;"/><path d="M1540.6987,322.1128 Q1541.064,322.1875 1541.3337,322.4573 Q1541.6035,322.7271 1541.9937,323.5073 L1544.2349,327.9648 L1541.5454,327.9648 L1540.0513,324.8354 Q1539.9849,324.7026 1539.877,324.4702 Q1539.2212,323.0674 1538.333,323.0674 L1537.5527,323.0674 L1537.5527,327.9648 L1535.104,327.9648 L1535.104,315.5718 L1538.6401,315.5718 Q1541.0308,315.5718 1542.0725,316.4185 Q1543.1143,317.2651 1543.1143,319.1743 Q1543.1143,320.4526 1542.4917,321.208 Q1541.8691,321.9634 1540.6987,322.1128 Z M1537.5527,317.6304 L1537.5527,321.0088 L1538.7065,321.0088 Q1539.7109,321.0088 1540.1467,320.6145 Q1540.5825,320.2202 1540.5825,319.3154 Q1540.5825,318.4106 1540.1509,318.0205 Q1539.7192,317.6304 1538.7065,317.6304 Z "/><text fill="#000000" font-family="sans-serif" font-size="12" font-style="italic" lengthAdjust="spacingAndGlyphs" textLength="88" x="1552" y="318.9336">«客户的出库单.»</text><text fill="#000000" font-family="sans-serif" font-size="12" lengthAdjust="spacingAndGlyphs" textLength="34" x="1579" y="333.0664">Order</text><line style="stroke: #A80036; stroke-width: 1.5;" x1="1526" x2="1640" y1="340.5977" y2="340.5977"/><text fill="#000000" font-family="sans-serif" font-size="11" lengthAdjust="spacingAndGlyphs" textLength="45" x="1531" y="372.1875">orderNo</text><line style="stroke: #A80036; stroke-width: 1.5;" x1="1526" x2="1571" y1="355.0752" y2="355.0752"/><text fill="#000000" font-family="sans-serif" font-size="11" lengthAdjust="spacingAndGlyphs" textLength="24" x="1571" y="358.7324">DCU</text><line style="stroke: #A80036; stroke-width: 1.5;" x1="1595" x2="1640" y1="355.0752" y2="355.0752"/><!--class OrderLine--><rect fill="#FEFECE" filter="url(#fbpcz0a)" height="135.9961" style="stroke: #A80036; stroke-width: 1.5;" width="177" x="2250.5" y="257.332"/><ellipse cx="2306.25" cy="276.4648" fill="#ADD1B2" rx="11" ry="11" style="stroke: #A80036; stroke-width: 1.0;"/><path d="M2308.7231,282.6079 Q2308.1421,282.9067 2307.5029,283.0562 Q2306.8638,283.2056 2306.1582,283.2056 Q2303.6514,283.2056 2302.3315,281.5537 Q2301.0117,279.9019 2301.0117,276.7808 Q2301.0117,273.6514 2302.3315,271.9995 Q2303.6514,270.3477 2306.1582,270.3477 Q2306.8638,270.3477 2307.5112,270.4971 Q2308.1587,270.6465 2308.7231,270.9453 L2308.7231,273.668 Q2308.0923,273.0869 2307.4988,272.8171 Q2306.9053,272.5474 2306.2744,272.5474 Q2304.9297,272.5474 2304.2449,273.614 Q2303.5601,274.6807 2303.5601,276.7808 Q2303.5601,278.8726 2304.2449,279.9392 Q2304.9297,281.0059 2306.2744,281.0059 Q2306.9053,281.0059 2307.4988,280.7361 Q2308.0923,280.4663 2308.7231,279.8853 Z "/><text fill="#000000" font-family="sans-serif" font-size="12" font-style="italic" lengthAdjust="spacingAndGlyphs" textLength="52" x="2329.25" y="273.9336">«订单行.»</text><text fill="#000000" font-family="sans-serif" font-size="12" lengthAdjust="spacingAndGlyphs" textLength="57" x="2326.75" y="288.0664">OrderLine</text><line style="stroke: #A80036; stroke-width: 1.5;" x1="2251.5" x2="2426.5" y1="295.5977" y2="295.5977"/><text fill="#000000" font-family="sans-serif" font-size="11" lengthAdjust="spacingAndGlyphs" textLength="91" x="2256.5" y="327.1875">OrderLineNo Sku</text><line style="stroke: #A80036; stroke-width: 1.5;" x1="2251.5" x2="2312.5" y1="310.0752" y2="310.0752"/><text fill="#000000" font-family="sans-serif" font-size="11" lengthAdjust="spacingAndGlyphs" textLength="53" x="2312.5" y="313.7324">Structural</text><line style="stroke: #A80036; stroke-width: 1.5;" x1="2365.5" x2="2426.5" y1="310.0752" y2="310.0752"/><text fill="#000000" font-family="sans-serif" font-size="11" lengthAdjust="spacingAndGlyphs" textLength="165" x="2256.5" y="357.0977">qty/要货量 shortageQty/缺货量</text><line style="stroke: #A80036; stroke-width: 1.5;" x1="2251.5" x2="2316" y1="339.9854" y2="339.9854"/><text fill="#000000" font-family="sans-serif" font-size="11" lengthAdjust="spacingAndGlyphs" textLength="46" x="2316" y="343.6426">Quantity</text><line style="stroke: #A80036; stroke-width: 1.5;" x1="2362" x2="2426.5" y1="339.9854" y2="339.9854"/><text fill="#000000" font-family="sans-serif" font-size="11" lengthAdjust="spacingAndGlyphs" textLength="154" x="2256.5" y="387.0078">expectedQty/要货量-缺货量()</text><line style="stroke: #A80036; stroke-width: 1.5;" x1="2251.5" x2="2328" y1="369.8955" y2="369.8955"/><text fill="#000000" font-family="sans-serif" font-size="11" lengthAdjust="spacingAndGlyphs" textLength="22" x="2328" y="373.5527">规则</text><line style="stroke: #A80036; stroke-width: 1.5;" x1="2350" x2="2426.5" y1="369.8955" y2="369.8955"/><!--class OrderLineBag--><rect fill="#FEFECE" filter="url(#fbpcz0a)" height="48" style="stroke: #A80036; stroke-width: 1.5;" width="110" x="1921.5" y="307.332"/><ellipse cx="1936.5" cy="323.332" fill="#9197DB" rx="11" ry="11" style="stroke: #A80036; stroke-width: 1.0;"/><path d="M1934.9033,324.7041 L1934.9033,328.373 L1936.5303,328.373 Q1937.7007,328.373 1938.1697,327.9746 Q1938.6387,327.5762 1938.6387,326.5884 Q1938.6387,325.584 1938.1489,325.144 Q1937.6592,324.7041 1936.5303,324.7041 Z M1934.9033,319.873 L1934.9033,322.7534 L1936.5303,322.7534 Q1937.46,322.7534 1937.8542,322.4214 Q1938.2485,322.0894 1938.2485,321.3257 Q1938.2485,320.562 1937.8459,320.2175 Q1937.4434,319.873 1936.5303,319.873 Z M1932.5376,317.9224 L1936.5303,317.9224 Q1938.5972,317.9224 1939.6389,318.7068 Q1940.6807,319.4912 1940.6807,321.0518 Q1940.6807,322.2471 1940.0664,322.9194 Q1939.4521,323.5918 1938.2651,323.6997 Q1939.6846,323.8408 1940.4026,324.6543 Q1941.1206,325.4678 1941.1206,326.9287 Q1941.1206,328.7217 1940.0415,329.5269 Q1938.9624,330.332 1936.5303,330.332 L1932.5376,330.332 Z "/><text fill="#000000" font-family="sans-serif" font-size="12" lengthAdjust="spacingAndGlyphs" textLength="78" x="1950.5" y="327.8672">OrderLineBag</text><line style="stroke: #A80036; stroke-width: 1.5;" x1="1922.5" x2="2030.5" y1="339.332" y2="339.332"/><line style="stroke: #A80036; stroke-width: 1.5;" x1="1922.5" x2="2030.5" y1="347.332" y2="347.332"/><!--class Pack--><rect fill="#FEFECE" filter="url(#fbpcz0a)" height="135.9961" style="stroke: #A80036; stroke-width: 1.5;" width="139" x="1907.5" y="524.332"/><ellipse cx="1954.75" cy="543.4648" fill="#FF7700" rx="11" ry="11" style="stroke: #A80036; stroke-width: 1.0;"/><path d="M1955.4487,544.1128 Q1955.814,544.1875 1956.0837,544.4573 Q1956.3535,544.7271 1956.7437,545.5073 L1958.9849,549.9648 L1956.2954,549.9648 L1954.8013,546.8354 Q1954.7349,546.7026 1954.627,546.4702 Q1953.9712,545.0674 1953.083,545.0674 L1952.3027,545.0674 L1952.3027,549.9648 L1949.854,549.9648 L1949.854,537.5718 L1953.3901,537.5718 Q1955.7808,537.5718 1956.8225,538.4185 Q1957.8643,539.2651 1957.8643,541.1743 Q1957.8643,542.4526 1957.2417,543.208 Q1956.6191,543.9634 1955.4487,544.1128 Z M1952.3027,539.6304 L1952.3027,543.0088 L1953.4565,543.0088 Q1954.4609,543.0088 1954.8967,542.6145 Q1955.3325,542.2202 1955.3325,541.3154 Q1955.3325,540.4106 1954.9009,540.0205 Q1954.4692,539.6304 1953.4565,539.6304 Z "/><text fill="#000000" font-family="sans-serif" font-size="12" font-style="italic" lengthAdjust="spacingAndGlyphs" textLength="40" x="1973.25" y="540.9336">«包裹.»</text><text fill="#000000" font-family="sans-serif" font-size="12" lengthAdjust="spacingAndGlyphs" textLength="27" x="1979.75" y="555.0664">Pack</text><line style="stroke: #A80036; stroke-width: 1.5;" x1="1908.5" x2="2045.5" y1="562.5977" y2="562.5977"/><text fill="#000000" font-family="sans-serif" font-size="11" lengthAdjust="spacingAndGlyphs" textLength="99" x="1913.5" y="594.1875">orderNo waybillNo</text><line style="stroke: #A80036; stroke-width: 1.5;" x1="1908.5" x2="1950.5" y1="577.0752" y2="577.0752"/><text fill="#000000" font-family="sans-serif" font-size="11" lengthAdjust="spacingAndGlyphs" textLength="53" x="1950.5" y="580.7324">Structural</text><line style="stroke: #A80036; stroke-width: 1.5;" x1="2003.5" x2="2045.5" y1="577.0752" y2="577.0752"/><text fill="#000000" font-family="sans-serif" font-size="11" lengthAdjust="spacingAndGlyphs" textLength="57" x="1913.5" y="624.0977">PackStatus</text><line style="stroke: #A80036; stroke-width: 1.5;" x1="1908.5" x2="1954" y1="606.9854" y2="606.9854"/><text fill="#000000" font-family="sans-serif" font-size="11" lengthAdjust="spacingAndGlyphs" textLength="46" x="1954" y="610.6426">Lifecycle</text><line style="stroke: #A80036; stroke-width: 1.5;" x1="2000" x2="2045.5" y1="606.9854" y2="606.9854"/><text fill="#000000" font-family="sans-serif" font-size="11" lengthAdjust="spacingAndGlyphs" textLength="127" x="1913.5" y="654.0078">totalVolume totalWeight</text><line style="stroke: #A80036; stroke-width: 1.5;" x1="1908.5" x2="1961" y1="636.8955" y2="636.8955"/><text fill="#000000" font-family="sans-serif" font-size="11" lengthAdjust="spacingAndGlyphs" textLength="32" x="1961" y="640.5527">Billing</text><line style="stroke: #A80036; stroke-width: 1.5;" x1="1993" x2="2045.5" y1="636.8955" y2="636.8955"/><!--class CartonItem--><rect fill="#FEFECE" filter="url(#fbpcz0a)" height="48" style="stroke: #A80036; stroke-width: 1.5;" width="95" x="476.5" y="611.332"/><ellipse cx="491.5" cy="627.332" fill="#9197DB" rx="11" ry="11" style="stroke: #A80036; stroke-width: 1.0;"/><path d="M489.9033,628.7041 L489.9033,632.373 L491.5303,632.373 Q492.7007,632.373 493.1697,631.9746 Q493.6387,631.5762 493.6387,630.5884 Q493.6387,629.584 493.1489,629.144 Q492.6592,628.7041 491.5303,628.7041 Z M489.9033,623.873 L489.9033,626.7534 L491.5303,626.7534 Q492.46,626.7534 492.8542,626.4214 Q493.2485,626.0894 493.2485,625.3257 Q493.2485,624.562 492.8459,624.2175 Q492.4434,623.873 491.5303,623.873 Z M487.5376,621.9224 L491.5303,621.9224 Q493.5972,621.9224 494.6389,622.7068 Q495.6807,623.4912 495.6807,625.0518 Q495.6807,626.2471 495.0664,626.9194 Q494.4521,627.5918 493.2651,627.6997 Q494.6846,627.8408 495.4026,628.6543 Q496.1206,629.4678 496.1206,630.9287 Q496.1206,632.7217 495.0415,633.5269 Q493.9624,634.332 491.5303,634.332 L487.5376,634.332 Z "/><text fill="#000000" font-family="sans-serif" font-size="12" lengthAdjust="spacingAndGlyphs" textLength="63" x="505.5" y="631.8672">CartonItem</text><line style="stroke: #A80036; stroke-width: 1.5;" x1="477.5" x2="570.5" y1="643.332" y2="643.332"/><line style="stroke: #A80036; stroke-width: 1.5;" x1="477.5" x2="570.5" y1="651.332" y2="651.332"/><!--class Consumable--><rect fill="#FEFECE" filter="url(#fbpcz0a)" height="48" style="stroke: #A80036; stroke-width: 1.5;" width="103" x="472.5" y="488.332"/><ellipse cx="487.5" cy="504.332" fill="#9197DB" rx="11" ry="11" style="stroke: #A80036; stroke-width: 1.0;"/><path d="M485.9033,505.7041 L485.9033,509.373 L487.5303,509.373 Q488.7007,509.373 489.1697,508.9746 Q489.6387,508.5762 489.6387,507.5884 Q489.6387,506.584 489.1489,506.144 Q488.6592,505.7041 487.5303,505.7041 Z M485.9033,500.873 L485.9033,503.7534 L487.5303,503.7534 Q488.46,503.7534 488.8542,503.4214 Q489.2485,503.0894 489.2485,502.3257 Q489.2485,501.562 488.8459,501.2175 Q488.4434,500.873 487.5303,500.873 Z M483.5376,498.9224 L487.5303,498.9224 Q489.5972,498.9224 490.6389,499.7068 Q491.6807,500.4912 491.6807,502.0518 Q491.6807,503.2471 491.0664,503.9194 Q490.4521,504.5918 489.2651,504.6997 Q490.6846,504.8408 491.4026,505.6543 Q492.1206,506.4678 492.1206,507.9287 Q492.1206,509.7217 491.0415,510.5269 Q489.9624,511.332 487.5303,511.332 L483.5376,511.332 Z "/><text fill="#000000" font-family="sans-serif" font-size="12" lengthAdjust="spacingAndGlyphs" textLength="71" x="501.5" y="508.8672">Consumable</text><line style="stroke: #A80036; stroke-width: 1.5;" x1="473.5" x2="574.5" y1="520.332" y2="520.332"/><line style="stroke: #A80036; stroke-width: 1.5;" x1="473.5" x2="574.5" y1="528.332" y2="528.332"/><!--class Pallet--><rect fill="#FEFECE" filter="url(#fbpcz0a)" height="48" style="stroke: #A80036; stroke-width: 1.5;" width="63" x="492" y="385.332"/><ellipse cx="507" cy="401.332" fill="#9197DB" rx="11" ry="11" style="stroke: #A80036; stroke-width: 1.0;"/><path d="M505.4033,402.7041 L505.4033,406.373 L507.0303,406.373 Q508.2007,406.373 508.6697,405.9746 Q509.1387,405.5762 509.1387,404.5884 Q509.1387,403.584 508.6489,403.144 Q508.1592,402.7041 507.0303,402.7041 Z M505.4033,397.873 L505.4033,400.7534 L507.0303,400.7534 Q507.96,400.7534 508.3542,400.4214 Q508.7485,400.0894 508.7485,399.3257 Q508.7485,398.562 508.3459,398.2175 Q507.9434,397.873 507.0303,397.873 Z M503.0376,395.9224 L507.0303,395.9224 Q509.0972,395.9224 510.1389,396.7068 Q511.1807,397.4912 511.1807,399.0518 Q511.1807,400.2471 510.5664,400.9194 Q509.9521,401.5918 508.7651,401.6997 Q510.1846,401.8408 510.9026,402.6543 Q511.6206,403.4678 511.6206,404.9287 Q511.6206,406.7217 510.5415,407.5269 Q509.4624,408.332 507.0303,408.332 L503.0376,408.332 Z "/><text fill="#000000" font-family="sans-serif" font-size="12" lengthAdjust="spacingAndGlyphs" textLength="31" x="521" y="405.8672">Pallet</text><line style="stroke: #A80036; stroke-width: 1.5;" x1="493" x2="554" y1="417.332" y2="417.332"/><line style="stroke: #A80036; stroke-width: 1.5;" x1="493" x2="554" y1="425.332" y2="425.332"/><!--class Carton--><rect fill="#FEFECE" filter="url(#fbpcz0a)" height="69.9102" style="stroke: #A80036; stroke-width: 1.5;" width="70" x="118" y="589.332"/><ellipse cx="133" cy="605.332" fill="#FF7700" rx="11" ry="11" style="stroke: #A80036; stroke-width: 1.0;"/><path d="M133.6987,605.98 Q134.064,606.0547 134.3337,606.3245 Q134.6035,606.5942 134.9937,607.3745 L137.2349,611.832 L134.5454,611.832 L133.0513,608.7026 Q132.9849,608.5698 132.877,608.3374 Q132.2212,606.9346 131.333,606.9346 L130.5527,606.9346 L130.5527,611.832 L128.104,611.832 L128.104,599.439 L131.6401,599.439 Q134.0308,599.439 135.0725,600.2856 Q136.1143,601.1323 136.1143,603.0415 Q136.1143,604.3198 135.4917,605.0752 Q134.8691,605.8306 133.6987,605.98 Z M130.5527,601.4976 L130.5527,604.876 L131.7065,604.876 Q132.7109,604.876 133.1467,604.4817 Q133.5825,604.0874 133.5825,603.1826 Q133.5825,602.2778 133.1509,601.8877 Q132.7192,601.4976 131.7065,601.4976 Z "/><text fill="#000000" font-family="sans-serif" font-size="12" lengthAdjust="spacingAndGlyphs" textLength="38" x="147" y="609.8672">Carton</text><line style="stroke: #A80036; stroke-width: 1.5;" x1="119" x2="187" y1="621.332" y2="621.332"/><text fill="#000000" font-family="sans-serif" font-size="11" lengthAdjust="spacingAndGlyphs" textLength="40" x="124" y="652.9219">fullize()</text><line style="stroke: #A80036; stroke-width: 1.5;" x1="119" x2="142" y1="635.8096" y2="635.8096"/><text fill="#000000" font-family="sans-serif" font-size="11" lengthAdjust="spacingAndGlyphs" textLength="22" x="142" y="639.4668">行为</text><line style="stroke: #A80036; stroke-width: 1.5;" x1="164" x2="187" y1="635.8096" y2="635.8096"/><!--class Sku--><rect fill="#FEFECE" filter="url(#fbpcz0a)" height="106.0859" style="stroke: #A80036; stroke-width: 1.5;" width="117" x="819.5" y="459.332"/><ellipse cx="845.75" cy="478.4648" fill="#ADD1B2" rx="11" ry="11" style="stroke: #A80036; stroke-width: 1.0;"/><path d="M848.2231,484.6079 Q847.6421,484.9067 847.0029,485.0562 Q846.3638,485.2056 845.6582,485.2056 Q843.1514,485.2056 841.8315,483.5537 Q840.5117,481.9019 840.5117,478.7808 Q840.5117,475.6514 841.8315,473.9995 Q843.1514,472.3477 845.6582,472.3477 Q846.3638,472.3477 847.0112,472.4971 Q847.6587,472.6465 848.2231,472.9453 L848.2231,475.668 Q847.5923,475.0869 846.9988,474.8171 Q846.4053,474.5474 845.7744,474.5474 Q844.4297,474.5474 843.7449,475.614 Q843.0601,476.6807 843.0601,478.7808 Q843.0601,480.8726 843.7449,481.9392 Q844.4297,483.0059 845.7744,483.0059 Q846.4053,483.0059 846.9988,482.7361 Q847.5923,482.4663 848.2231,481.8853 Z "/><text fill="#000000" font-family="sans-serif" font-size="12" font-style="italic" lengthAdjust="spacingAndGlyphs" textLength="64" x="860.25" y="475.9336">«货品编号.»</text><text fill="#000000" font-family="sans-serif" font-size="12" lengthAdjust="spacingAndGlyphs" textLength="20" x="882.25" y="490.0664">Sku</text><line style="stroke: #A80036; stroke-width: 1.5;" x1="820.5" x2="935.5" y1="497.5977" y2="497.5977"/><text fill="#000000" font-family="sans-serif" font-size="11" lengthAdjust="spacingAndGlyphs" textLength="105" x="825.5" y="529.1875">OwnerNo PackCode</text><line style="stroke: #A80036; stroke-width: 1.5;" x1="820.5" x2="851.5" y1="512.0752" y2="512.0752"/><text fill="#000000" font-family="sans-serif" font-size="11" lengthAdjust="spacingAndGlyphs" textLength="53" x="851.5" y="515.7324">Structural</text><line style="stroke: #A80036; stroke-width: 1.5;" x1="904.5" x2="935.5" y1="512.0752" y2="512.0752"/><text fill="#000000" font-family="sans-serif" font-size="11" lengthAdjust="spacingAndGlyphs" textLength="67" x="825.5" y="559.0977">LotNo snList</text><line style="stroke: #A80036; stroke-width: 1.5;" x1="820.5" x2="848.5" y1="541.9854" y2="541.9854"/><text fill="#000000" font-family="sans-serif" font-size="11" lengthAdjust="spacingAndGlyphs" textLength="59" x="848.5" y="545.6426">Contextual</text><line style="stroke: #A80036; stroke-width: 1.5;" x1="907.5" x2="935.5" y1="541.9854" y2="541.9854"/><!--class Container--><rect fill="#FEFECE" filter="url(#fbpcz0a)" height="106.0859" style="stroke: #A80036; stroke-width: 1.5;" width="139" x="1186.5" y="826.332"/><ellipse cx="1222.65" cy="845.4648" fill="#ADD1B2" rx="11" ry="11" style="stroke: #A80036; stroke-width: 1.0;"/><path d="M1225.1231,851.6079 Q1224.5421,851.9067 1223.9029,852.0562 Q1223.2638,852.2056 1222.5582,852.2056 Q1220.0514,852.2056 1218.7315,850.5537 Q1217.4117,848.9019 1217.4117,845.7808 Q1217.4117,842.6514 1218.7315,840.9995 Q1220.0514,839.3477 1222.5582,839.3477 Q1223.2638,839.3477 1223.9112,839.4971 Q1224.5587,839.6465 1225.1231,839.9453 L1225.1231,842.668 Q1224.4923,842.0869 1223.8988,841.8171 Q1223.3053,841.5474 1222.6744,841.5474 Q1221.3297,841.5474 1220.6449,842.614 Q1219.9601,843.6807 1219.9601,845.7808 Q1219.9601,847.8726 1220.6449,848.9392 Q1221.3297,850.0059 1222.6744,850.0059 Q1223.3053,850.0059 1223.8988,849.7361 Q1224.4923,849.4663 1225.1231,848.8853 Z "/><text fill="#000000" font-family="sans-serif" font-size="12" font-style="italic" lengthAdjust="spacingAndGlyphs" textLength="64" x="1239.35" y="842.9336">«拣货容器.»</text><text fill="#000000" font-family="sans-serif" font-size="12" lengthAdjust="spacingAndGlyphs" textLength="55" x="1243.85" y="857.0664">Container</text><line style="stroke: #A80036; stroke-width: 1.5;" x1="1187.5" x2="1324.5" y1="864.5977" y2="864.5977"/><text fill="#000000" font-family="sans-serif" font-size="11" lengthAdjust="spacingAndGlyphs" textLength="23" x="1192.5" y="896.1875">type</text><line style="stroke: #A80036; stroke-width: 1.5;" x1="1187.5" x2="1224.5" y1="879.0752" y2="879.0752"/><text fill="#000000" font-family="sans-serif" font-size="11" lengthAdjust="spacingAndGlyphs" textLength="63" x="1224.5" y="882.7324">Operational</text><line style="stroke: #A80036; stroke-width: 1.5;" x1="1287.5" x2="1324.5" y1="879.0752" y2="879.0752"/><text fill="#000000" font-family="sans-serif" font-size="11" lengthAdjust="spacingAndGlyphs" textLength="127" x="1192.5" y="926.0977">containerNo/扫描枪可扫</text><line style="stroke: #A80036; stroke-width: 1.5;" x1="1187.5" x2="1244" y1="908.9854" y2="908.9854"/><text fill="#000000" font-family="sans-serif" font-size="11" lengthAdjust="spacingAndGlyphs" textLength="24" x="1244" y="912.6426">DCU</text><line style="stroke: #A80036; stroke-width: 1.5;" x1="1268" x2="1324.5" y1="908.9854" y2="908.9854"/><!--class ContainerBag--><rect fill="#FEFECE" filter="url(#fbpcz0a)" height="95.8203" style="stroke: #A80036; stroke-width: 1.5;" width="198" x="779" y="845.332"/><ellipse cx="835.75" cy="861.332" fill="#9197DB" rx="11" ry="11" style="stroke: #A80036; stroke-width: 1.0;"/><path d="M834.1533,862.7041 L834.1533,866.373 L835.7803,866.373 Q836.9507,866.373 837.4197,865.9746 Q837.8887,865.5762 837.8887,864.5884 Q837.8887,863.584 837.3989,863.144 Q836.9092,862.7041 835.7803,862.7041 Z M834.1533,857.873 L834.1533,860.7534 L835.7803,860.7534 Q836.71,860.7534 837.1042,860.4214 Q837.4985,860.0894 837.4985,859.3257 Q837.4985,858.562 837.0959,858.2175 Q836.6934,857.873 835.7803,857.873 Z M831.7876,855.9224 L835.7803,855.9224 Q837.8472,855.9224 838.8889,856.7068 Q839.9307,857.4912 839.9307,859.0518 Q839.9307,860.2471 839.3164,860.9194 Q838.7021,861.5918 837.5151,861.6997 Q838.9346,861.8408 839.6526,862.6543 Q840.3706,863.4678 840.3706,864.9287 Q840.3706,866.7217 839.2915,867.5269 Q838.2124,868.332 835.7803,868.332 L831.7876,868.332 Z "/><text fill="#000000" font-family="sans-serif" font-size="12" lengthAdjust="spacingAndGlyphs" textLength="76" x="856.25" y="865.8672">ContainerBag</text><line style="stroke: #A80036; stroke-width: 1.5;" x1="780" x2="976" y1="877.332" y2="877.332"/><text fill="#000000" font-family="sans-serif" font-size="11" lengthAdjust="spacingAndGlyphs" textLength="186" x="785" y="908.9219">totalSku() 该容器的总商品种类(品数).</text><text fill="#000000" font-family="sans-serif" font-size="11" lengthAdjust="spacingAndGlyphs" textLength="145" x="785" y="921.877">totalQty() 该容器的总要货量.</text><text fill="#000000" font-family="sans-serif" font-size="11" lengthAdjust="spacingAndGlyphs" textLength="94" x="785" y="934.832">pendingItemBag()</text><line style="stroke: #A80036; stroke-width: 1.5;" x1="780" x2="867" y1="891.8096" y2="891.8096"/><text fill="#000000" font-family="sans-serif" font-size="11" lengthAdjust="spacingAndGlyphs" textLength="22" x="867" y="895.4668">规则</text><line style="stroke: #A80036; stroke-width: 1.5;" x1="889" x2="976" y1="891.8096" y2="891.8096"/><!--class ContainerItem--><rect fill="#FEFECE" filter="url(#fbpcz0a)" height="148.9512" style="stroke: #A80036; stroke-width: 1.5;" width="197" x="1878.5" y="791.332"/><ellipse cx="1902.95" cy="810.4648" fill="#ADD1B2" rx="11" ry="11" style="stroke: #A80036; stroke-width: 1.0;"/><path d="M1905.4231,816.6079 Q1904.8421,816.9067 1904.2029,817.0562 Q1903.5638,817.2056 1902.8582,817.2056 Q1900.3514,817.2056 1899.0315,815.5537 Q1897.7117,813.9019 1897.7117,810.7808 Q1897.7117,807.6514 1899.0315,805.9995 Q1900.3514,804.3477 1902.8582,804.3477 Q1903.5638,804.3477 1904.2112,804.4971 Q1904.8587,804.6465 1905.4231,804.9453 L1905.4231,807.668 Q1904.7923,807.0869 1904.1988,806.8171 Q1903.6053,806.5474 1902.9744,806.5474 Q1901.6297,806.5474 1900.9449,807.614 Q1900.2601,808.6807 1900.2601,810.7808 Q1900.2601,812.8726 1900.9449,813.9392 Q1901.6297,815.0059 1902.9744,815.0059 Q1903.6053,815.0059 1904.1988,814.7361 Q1904.7923,814.4663 1905.4231,813.8853 Z "/><text fill="#000000" font-family="sans-serif" font-size="12" font-style="italic" lengthAdjust="spacingAndGlyphs" textLength="148" x="1917.05" y="807.9336">«拣货容器里的商品和数量.»</text><text fill="#000000" font-family="sans-serif" font-size="12" lengthAdjust="spacingAndGlyphs" textLength="80" x="1951.05" y="822.0664">ContainerItem</text><line style="stroke: #A80036; stroke-width: 1.5;" x1="1879.5" x2="2074.5" y1="829.5977" y2="829.5977"/><text fill="#000000" font-family="sans-serif" font-size="11" lengthAdjust="spacingAndGlyphs" textLength="91" x="1884.5" y="861.1875">OrderLineNo Sku</text><line style="stroke: #A80036; stroke-width: 1.5;" x1="1879.5" x2="1950.5" y1="844.0752" y2="844.0752"/><text fill="#000000" font-family="sans-serif" font-size="11" lengthAdjust="spacingAndGlyphs" textLength="53" x="1950.5" y="847.7324">Structural</text><line style="stroke: #A80036; stroke-width: 1.5;" x1="2003.5" x2="2074.5" y1="844.0752" y2="844.0752"/><text fill="#000000" font-family="sans-serif" font-size="11" lengthAdjust="spacingAndGlyphs" textLength="185" x="1884.5" y="891.0977">expectedQty givenQty pendingQty</text><line style="stroke: #A80036; stroke-width: 1.5;" x1="1879.5" x2="1954" y1="873.9854" y2="873.9854"/><text fill="#000000" font-family="sans-serif" font-size="11" lengthAdjust="spacingAndGlyphs" textLength="46" x="1954" y="877.6426">Quantity</text><line style="stroke: #A80036; stroke-width: 1.5;" x1="2000" x2="2074.5" y1="873.9854" y2="873.9854"/><text fill="#000000" font-family="sans-serif" font-size="11" lengthAdjust="spacingAndGlyphs" textLength="172" x="1884.5" y="921.0078">diffQty() 复核作业发现的差异数量.</text><text fill="#000000" font-family="sans-serif" font-size="11" lengthAdjust="spacingAndGlyphs" textLength="35" x="1884.5" y="933.9629">done()</text><line style="stroke: #A80036; stroke-width: 1.5;" x1="1879.5" x2="1966" y1="903.8955" y2="903.8955"/><text fill="#000000" font-family="sans-serif" font-size="11" lengthAdjust="spacingAndGlyphs" textLength="22" x="1966" y="907.5527">规则</text><line style="stroke: #A80036; stroke-width: 1.5;" x1="1988" x2="2074.5" y1="903.8955" y2="903.8955"/><!--class ContainerItemBag--><rect fill="#FEFECE" filter="url(#fbpcz0a)" height="112.7754" style="stroke: #A80036; stroke-width: 1.5;" width="198" x="1484" y="815.332"/><ellipse cx="1528.25" cy="831.332" fill="#9197DB" rx="11" ry="11" style="stroke: #A80036; stroke-width: 1.0;"/><path d="M1526.6533,832.7041 L1526.6533,836.373 L1528.2803,836.373 Q1529.4507,836.373 1529.9197,835.9746 Q1530.3887,835.5762 1530.3887,834.5884 Q1530.3887,833.584 1529.8989,833.144 Q1529.4092,832.7041 1528.2803,832.7041 Z M1526.6533,827.873 L1526.6533,830.7534 L1528.2803,830.7534 Q1529.21,830.7534 1529.6042,830.4214 Q1529.9985,830.0894 1529.9985,829.3257 Q1529.9985,828.562 1529.5959,828.2175 Q1529.1934,827.873 1528.2803,827.873 Z M1524.2876,825.9224 L1528.2803,825.9224 Q1530.3472,825.9224 1531.3889,826.7068 Q1532.4307,827.4912 1532.4307,829.0518 Q1532.4307,830.2471 1531.8164,830.9194 Q1531.2021,831.5918 1530.0151,831.6997 Q1531.4346,831.8408 1532.1526,832.6543 Q1532.8706,833.4678 1532.8706,834.9287 Q1532.8706,836.7217 1531.7915,837.5269 Q1530.7124,838.332 1528.2803,838.332 L1524.2876,838.332 Z "/><text fill="#000000" font-family="sans-serif" font-size="12" lengthAdjust="spacingAndGlyphs" textLength="101" x="1548.75" y="835.8672">ContainerItemBag</text><line style="stroke: #A80036; stroke-width: 1.5;" x1="1485" x2="1681" y1="847.332" y2="847.332"/><text fill="#000000" font-family="sans-serif" font-size="11" lengthAdjust="spacingAndGlyphs" textLength="186" x="1490" y="878.9219">totalSku() 该容器的总商品种类(品数).</text><text fill="#000000" font-family="sans-serif" font-size="11" lengthAdjust="spacingAndGlyphs" textLength="134" x="1490" y="891.877">totalQty() 该容器的总货量.</text><line style="stroke: #A80036; stroke-width: 1.5;" x1="1485" x2="1572" y1="861.8096" y2="861.8096"/><text fill="#000000" font-family="sans-serif" font-size="11" lengthAdjust="spacingAndGlyphs" textLength="22" x="1572" y="865.4668">规则</text><line style="stroke: #A80036; stroke-width: 1.5;" x1="1594" x2="1681" y1="861.8096" y2="861.8096"/><text fill="#000000" font-family="sans-serif" font-size="11" lengthAdjust="spacingAndGlyphs" textLength="157" x="1490" y="921.7871">allocatedQty() Yes, not public</text><line style="stroke: #A80036; stroke-width: 1.5;" x1="1485" x2="1572" y1="904.6748" y2="904.6748"/><text fill="#000000" font-family="sans-serif" font-size="11" lengthAdjust="spacingAndGlyphs" textLength="22" x="1572" y="908.332">行为</text><line style="stroke: #A80036; stroke-width: 1.5;" x1="1594" x2="1681" y1="904.6748" y2="904.6748"/><!--class Task--><rect fill="#FEFECE" filter="url(#fbpcz0a)" height="264.5918" style="stroke: #A80036; stroke-width: 1.5;" width="93" x="477.5" y="790.332"/><ellipse cx="492.95" cy="809.4648" fill="#FF7700" rx="11" ry="11" style="stroke: #A80036; stroke-width: 1.0;"/><path d="M493.6487,810.1128 Q494.014,810.1875 494.2837,810.4573 Q494.5535,810.7271 494.9437,811.5073 L497.1849,815.9648 L494.4954,815.9648 L493.0013,812.8354 Q492.9349,812.7026 492.827,812.4702 Q492.1712,811.0674 491.283,811.0674 L490.5027,811.0674 L490.5027,815.9648 L488.054,815.9648 L488.054,803.5718 L491.5901,803.5718 Q493.9808,803.5718 495.0225,804.4185 Q496.0643,805.2651 496.0643,807.1743 Q496.0643,808.4526 495.4417,809.208 Q494.8191,809.9634 493.6487,810.1128 Z M490.5027,805.6304 L490.5027,809.0088 L491.6565,809.0088 Q492.6609,809.0088 493.0967,808.6145 Q493.5325,808.2202 493.5325,807.3154 Q493.5325,806.4106 493.1009,806.0205 Q492.6692,805.6304 491.6565,805.6304 Z "/><text fill="#000000" font-family="sans-serif" font-size="12" font-style="italic" lengthAdjust="spacingAndGlyphs" textLength="64" x="505.05" y="806.9336">«复核任务.»</text><text fill="#000000" font-family="sans-serif" font-size="12" lengthAdjust="spacingAndGlyphs" textLength="28" x="523.05" y="821.0664">Task</text><line style="stroke: #A80036; stroke-width: 1.5;" x1="478.5" x2="569.5" y1="828.5977" y2="828.5977"/><text fill="#000000" font-family="sans-serif" font-size="11" lengthAdjust="spacingAndGlyphs" textLength="33" x="483.5" y="860.1875">status</text><line style="stroke: #A80036; stroke-width: 1.5;" x1="478.5" x2="501" y1="843.0752" y2="843.0752"/><text fill="#000000" font-family="sans-serif" font-size="11" lengthAdjust="spacingAndGlyphs" textLength="46" x="501" y="846.7324">Lifecycle</text><line style="stroke: #A80036; stroke-width: 1.5;" x1="547" x2="569.5" y1="843.0752" y2="843.0752"/><text fill="#000000" font-family="sans-serif" font-size="11" lengthAdjust="spacingAndGlyphs" textLength="40" x="483.5" y="890.0977">priority</text><line style="stroke: #A80036; stroke-width: 1.5;" x1="478.5" x2="492.5" y1="872.9854" y2="872.9854"/><text fill="#000000" font-family="sans-serif" font-size="11" lengthAdjust="spacingAndGlyphs" textLength="63" x="492.5" y="876.6426">Operational</text><line style="stroke: #A80036; stroke-width: 1.5;" x1="555.5" x2="569.5" y1="872.9854" y2="872.9854"/><text fill="#000000" font-family="sans-serif" font-size="11" lengthAdjust="spacingAndGlyphs" textLength="37" x="483.5" y="920.0078">taskNo</text><line style="stroke: #A80036; stroke-width: 1.5;" x1="478.5" x2="512" y1="902.8955" y2="902.8955"/><text fill="#000000" font-family="sans-serif" font-size="11" lengthAdjust="spacingAndGlyphs" textLength="24" x="512" y="906.5527">DCU</text><line style="stroke: #A80036; stroke-width: 1.5;" x1="536" x2="569.5" y1="902.8955" y2="902.8955"/><text fill="#000000" font-family="sans-serif" font-size="11" lengthAdjust="spacingAndGlyphs" textLength="61" x="483.5" y="949.918">platformNo</text><line style="stroke: #A80036; stroke-width: 1.5;" x1="478.5" x2="501" y1="932.8057" y2="932.8057"/><text fill="#000000" font-family="sans-serif" font-size="11" lengthAdjust="spacingAndGlyphs" textLength="46" x="501" y="936.4629">Location</text><line style="stroke: #A80036; stroke-width: 1.5;" x1="547" x2="569.5" y1="932.8057" y2="932.8057"/><text fill="#000000" font-family="sans-serif" font-size="11" lengthAdjust="spacingAndGlyphs" textLength="51" x="483.5" y="979.8281">totalSku()</text><text fill="#000000" font-family="sans-serif" font-size="11" lengthAdjust="spacingAndGlyphs" textLength="51" x="483.5" y="992.7832">totalQty()</text><text fill="#000000" font-family="sans-serif" font-size="11" lengthAdjust="spacingAndGlyphs" textLength="81" x="483.5" y="1005.7383">pendingItems()</text><line style="stroke: #A80036; stroke-width: 1.5;" x1="478.5" x2="513" y1="962.7158" y2="962.7158"/><text fill="#000000" font-family="sans-serif" font-size="11" lengthAdjust="spacingAndGlyphs" textLength="22" x="513" y="966.373">规则</text><line style="stroke: #A80036; stroke-width: 1.5;" x1="535" x2="569.5" y1="962.7158" y2="962.7158"/><text fill="#000000" font-family="sans-serif" font-size="11" lengthAdjust="spacingAndGlyphs" textLength="32" x="483.5" y="1035.6484">bind()</text><text fill="#000000" font-family="sans-serif" font-size="11" font-style="italic" lengthAdjust="spacingAndGlyphs" textLength="69" x="483.5" y="1048.6035">confirmQty()</text><line style="stroke: #A80036; stroke-width: 1.5;" x1="478.5" x2="513" y1="1018.5361" y2="1018.5361"/><text fill="#000000" font-family="sans-serif" font-size="11" lengthAdjust="spacingAndGlyphs" textLength="22" x="513" y="1022.1934">行为</text><line style="stroke: #A80036; stroke-width: 1.5;" x1="535" x2="569.5" y1="1018.5361" y2="1018.5361"/><polygon fill="#FFFFFF" filter="url(#fbpcz0a)" points="8,712.832,129,712.832,136,735.3203,298,735.3203,298,765.8086,8,765.8086,8,712.832" style="stroke: #000000; stroke-width: 2.0;"/><line style="stroke: #000000; stroke-width: 2.0;" x1="8" x2="136" y1="735.3203" y2="735.3203"/><text fill="#000000" font-family="sans-serif" font-size="14" font-weight="bold" lengthAdjust="spacingAndGlyphs" textLength="115" x="12" y="728.3672">Aggregate：发货</text><text fill="#000000" font-family="sans-serif" font-size="14" font-style="italic" lengthAdjust="spacingAndGlyphs" textLength="268" x="23" y="750.8555">«ddd.plus.showcase.wms.domain.ship»</text><!--class ManualCheckAppService--><rect fill="#FEFECE" filter="url(#fbpcz0a)" height="86.8652" style="stroke: #A80036; stroke-width: 1.5;" width="230" x="38" y="110.832"/><ellipse cx="79.1" cy="126.832" fill="#ADD1B2" rx="11" ry="11" style="stroke: #A80036; stroke-width: 1.0;"/><path d="M81.5731,132.9751 Q80.9921,133.2739 80.3529,133.4233 Q79.7138,133.5728 79.0082,133.5728 Q76.5014,133.5728 75.1815,131.9209 Q73.8617,130.269 73.8617,127.1479 Q73.8617,124.0186 75.1815,122.3667 Q76.5014,120.7148 79.0082,120.7148 Q79.7138,120.7148 80.3612,120.8643 Q81.0087,121.0137 81.5731,121.3125 L81.5731,124.0352 Q80.9423,123.4541 80.3488,123.1843 Q79.7553,122.9146 79.1244,122.9146 Q77.7797,122.9146 77.0949,123.9812 Q76.4101,125.0479 76.4101,127.1479 Q76.4101,129.2397 77.0949,130.3064 Q77.7797,131.373 79.1244,131.373 Q79.7553,131.373 80.3488,131.1033 Q80.9423,130.8335 81.5731,130.2524 Z "/><text fill="#000000" font-family="sans-serif" font-size="12" lengthAdjust="spacingAndGlyphs" textLength="140" x="98.9" y="131.3672">ManualCheckAppService</text><line style="stroke: #A80036; stroke-width: 1.5;" x1="39" x2="267" y1="142.832" y2="142.832"/><line style="stroke: #A80036; stroke-width: 1.5;" x1="39" x2="267" y1="150.832" y2="150.832"/><text fill="#000000" font-family="sans-serif" font-size="11" lengthAdjust="spacingAndGlyphs" textLength="218" x="44" y="165.4668">platformNo recommendPlatform(taskNo)</text><text fill="#000000" font-family="sans-serif" font-size="11" lengthAdjust="spacingAndGlyphs" textLength="127" x="44" y="178.4219">claimTask(containerNo)</text><text fill="#000000" font-family="sans-serif" font-size="11" lengthAdjust="spacingAndGlyphs" textLength="211" x="44" y="191.377">confirmQty(orderNo,qty,skuNo,taskNo)</text><!--class TaskSubmittedConsumer--><rect fill="#FEFECE" filter="url(#fbpcz0a)" height="60.9551" style="stroke: #A80036; stroke-width: 1.5;" width="176" x="65" y="232.832"/><ellipse cx="80" cy="248.832" fill="#ADD1B2" rx="11" ry="11" style="stroke: #A80036; stroke-width: 1.0;"/><path d="M82.4731,254.9751 Q81.8921,255.2739 81.2529,255.4233 Q80.6138,255.5728 79.9082,255.5728 Q77.4014,255.5728 76.0815,253.9209 Q74.7617,252.269 74.7617,249.1479 Q74.7617,246.0186 76.0815,244.3667 Q77.4014,242.7148 79.9082,242.7148 Q80.6138,242.7148 81.2612,242.8643 Q81.9087,243.0137 82.4731,243.3125 L82.4731,246.0352 Q81.8423,245.4541 81.2488,245.1843 Q80.6553,244.9146 80.0244,244.9146 Q78.6797,244.9146 77.9949,245.9812 Q77.3101,247.0479 77.3101,249.1479 Q77.3101,251.2397 77.9949,252.3064 Q78.6797,253.373 80.0244,253.373 Q80.6553,253.373 81.2488,253.1033 Q81.8423,252.8335 82.4731,252.2524 Z "/><text fill="#000000" font-family="sans-serif" font-size="12" lengthAdjust="spacingAndGlyphs" textLength="144" x="94" y="253.3672">TaskSubmittedConsumer</text><line style="stroke: #A80036; stroke-width: 1.5;" x1="66" x2="240" y1="264.832" y2="264.832"/><line style="stroke: #A80036; stroke-width: 1.5;" x1="66" x2="240" y1="272.832" y2="272.832"/><text fill="#000000" font-family="sans-serif" font-size="11" lengthAdjust="spacingAndGlyphs" textLength="119" x="71" y="287.4668">消费接收复核任务(json)</text><path d="M1654.66,338.712 C1731.32,336.942 1852.03,334.172 1921.47,332.572 " fill="none" style="stroke: #A80036; stroke-width: 1.0;"/><polygon fill="#A80036" points="1641.35,339.012,1647.4407,342.8725,1653.3468,338.7352,1647.2561,334.8747,1641.35,339.012" style="stroke: #A80036; stroke-width: 1.0;"/><text fill="#000000" font-family="sans-serif" font-size="13" lengthAdjust="spacingAndGlyphs" textLength="49" x="1741" y="332.9004">HasOne</text><text fill="#000000" font-family="sans-serif" font-size="13" lengthAdjust="spacingAndGlyphs" textLength="8" x="1649.3153" y="353.4156">1</text><text fill="#000000" font-family="sans-serif" font-size="13" lengthAdjust="spacingAndGlyphs" textLength="8" x="1905.5378" y="346.3357">1</text><path d="M1652.2,384.122 C1723.74,430.052 1835.59,501.862 1907.45,548.002 " fill="none" style="stroke: #A80036; stroke-width: 1.0;"/><polygon fill="#A80036" points="1641.07,376.972,1643.9567,383.5801,1651.1667,383.4571,1648.2801,376.849,1641.07,376.972" style="stroke: #A80036; stroke-width: 1.0;"/><text fill="#000000" font-family="sans-serif" font-size="13" lengthAdjust="spacingAndGlyphs" textLength="57" x="1737" y="440.9004">HasMany</text><text fill="#000000" font-family="sans-serif" font-size="13" lengthAdjust="spacingAndGlyphs" textLength="8" x="1644.8978" y="399.2108">1</text><text fill="#000000" font-family="sans-serif" font-size="13" lengthAdjust="spacingAndGlyphs" textLength="10" x="1889.2961" y="556.5593">N</text><path d="M2044.61,330.212 C2102.63,329.252 2186.94,327.852 2250.4,326.792 " fill="none" style="stroke: #A80036; stroke-width: 1.0;"/><polygon fill="#A80036" points="2031.55,330.432,2037.6152,334.3325,2043.5484,330.234,2037.4832,326.3336,2031.55,330.432" style="stroke: #A80036; stroke-width: 1.0;"/><text fill="#000000" font-family="sans-serif" font-size="13" lengthAdjust="spacingAndGlyphs" textLength="57" x="2137.5" y="324.9004">HasMany</text><text fill="#000000" font-family="sans-serif" font-size="13" lengthAdjust="spacingAndGlyphs" textLength="8" x="2039.1841" y="345.0692">1</text><text fill="#000000" font-family="sans-serif" font-size="13" lengthAdjust="spacingAndGlyphs" textLength="10" x="2232.3563" y="340.1439">N</text><path d="M575.86,512.332 C634.27,512.332 731.22,512.332 799.3,512.332 " fill="none" style="stroke: #A80036; stroke-width: 1.0;"/><polygon fill="none" points="799.43,505.332,819.43,512.332,799.43,519.332,799.43,505.332" style="stroke: #A80036; stroke-width: 1.0;"/><text fill="#000000" font-family="sans-serif" font-size="13" lengthAdjust="spacingAndGlyphs" textLength="50" x="632" y="508.9004">Extends</text><path d="M201.43,625.742 C272.4,627.852 405.43,631.822 476.28,633.922 " fill="none" style="stroke: #A80036; stroke-width: 1.0;"/><polygon fill="#A80036" points="188.1,625.352,193.9787,629.5282,200.0947,625.7079,194.216,621.5317,188.1,625.352" style="stroke: #A80036; stroke-width: 1.0;"/><text fill="#000000" font-family="sans-serif" font-size="13" lengthAdjust="spacingAndGlyphs" textLength="57" x="344.5" y="626.9004">HasMany</text><text fill="#000000" font-family="sans-serif" font-size="13" lengthAdjust="spacingAndGlyphs" textLength="8" x="196.0388" y="642.3895">1</text><text fill="#000000" font-family="sans-serif" font-size="13" lengthAdjust="spacingAndGlyphs" textLength="10" x="458.5368" y="647.4077">N</text><path d="M200.75,610.162 C270.22,589.102 400.25,549.692 472.24,527.872 " fill="none" style="stroke: #A80036; stroke-width: 1.0;"/><polygon fill="#A80036" points="188.1,613.992,195.0023,616.0796,199.5841,610.5112,192.6818,608.4236,188.1,613.992" style="stroke: #A80036; stroke-width: 1.0;"/><text fill="#000000" font-family="sans-serif" font-size="13" lengthAdjust="spacingAndGlyphs" textLength="57" x="344.5" y="542.9004">HasMany</text><text fill="#000000" font-family="sans-serif" font-size="13" lengthAdjust="spacingAndGlyphs" textLength="8" x="196.1644" y="626.0159">1</text><text fill="#000000" font-family="sans-serif" font-size="13" lengthAdjust="spacingAndGlyphs" textLength="10" x="454.6129" y="543.5573">N</text><path d="M188.27,602.642 C261.99,556.002 429,450.332 429,450.332 C429,450.332 450.74,440.802 473.25,430.932 " fill="none" style="stroke: #A80036; stroke-width: 1.0;"/><polygon fill="none" points="470.76,424.382,491.88,422.752,476.38,437.202,470.76,424.382" style="stroke: #A80036; stroke-width: 1.0;"/><text fill="#000000" font-family="sans-serif" font-size="13" lengthAdjust="spacingAndGlyphs" textLength="88" x="329" y="456.9004">BelongTo 可能</text><path d="M188.13,641.162 C230.71,662.152 298,695.332 298,695.332 C298,695.332 396.38,794.372 463.18,861.612 " fill="none" style="stroke: #A80036; stroke-width: 1.0;"/><polygon fill="none" points="468.19,856.722,477.32,875.852,458.26,866.592,468.19,856.722" style="stroke: #A80036; stroke-width: 1.0;"/><text fill="#000000" font-family="sans-serif" font-size="13" lengthAdjust="spacingAndGlyphs" textLength="58" x="344" y="723.9004">BelongTo</text><path d="M2043.64,791.262 C2083.93,745.452 2128,695.332 2128,695.332 C2128,695.332 2228.25,519.122 2290.38,409.912 " fill="none" style="stroke: #A80036; stroke-width: 1.0;"/><polygon fill="none" points="2284.41,406.262,2300.38,392.332,2296.57,413.182,2284.41,406.262" style="stroke: #A80036; stroke-width: 1.0;"/><text fill="#000000" font-family="sans-serif" font-size="13" lengthAdjust="spacingAndGlyphs" textLength="58" x="2137" y="582.9004">BelongTo</text><path d="M1695.27,869.632 C1752.93,868.752 1822.73,867.682 1878.36,866.832 " fill="none" style="stroke: #A80036; stroke-width: 1.0;"/><polygon fill="#A80036" points="1682.03,869.832,1688.0908,873.7393,1694.0286,869.6474,1687.9678,865.7402,1682.03,869.832" style="stroke: #A80036; stroke-width: 1.0;"/><text fill="#000000" font-family="sans-serif" font-size="13" lengthAdjust="spacingAndGlyphs" textLength="57" x="1737" y="863.9004">HasMany</text><text fill="#000000" font-family="sans-serif" font-size="13" lengthAdjust="spacingAndGlyphs" textLength="8" x="1689.7693" y="883.3556">1</text><text fill="#000000" font-family="sans-serif" font-size="13" lengthAdjust="spacingAndGlyphs" textLength="10" x="1860.4251" y="880.0649">N</text><path d="M1338.54,877.332 C1382.6,876.252 1437.43,874.892 1483.89,873.752 " fill="none" style="stroke: #A80036; stroke-width: 1.0;"/><polygon fill="#A80036" points="1325.53,877.652,1331.6249,881.5059,1337.5265,877.362,1331.4316,873.5082,1325.53,877.652" style="stroke: #A80036; stroke-width: 1.0;"/><text fill="#000000" font-family="sans-serif" font-size="13" lengthAdjust="spacingAndGlyphs" textLength="49" x="1380" y="870.9004">HasOne</text><text fill="#000000" font-family="sans-serif" font-size="13" lengthAdjust="spacingAndGlyphs" textLength="8" x="1333.5029" y="891.6664">1</text><text fill="#000000" font-family="sans-serif" font-size="13" lengthAdjust="spacingAndGlyphs" textLength="8" x="1467.9956" y="887.0621">1</text><path d="M583.95,917.512 C636.93,913.142 716.08,906.612 778.77,901.432 " fill="none" style="stroke: #A80036; stroke-width: 1.0;"/><polygon fill="#A80036" points="570.73,918.602,577.0392,922.094,582.6892,917.6131,576.38,914.1212,570.73,918.602" style="stroke: #A80036; stroke-width: 1.0;"/><text fill="#000000" font-family="sans-serif" font-size="13" lengthAdjust="spacingAndGlyphs" textLength="49" x="632.5" y="905.9004">HasOne</text><text fill="#000000" font-family="sans-serif" font-size="13" lengthAdjust="spacingAndGlyphs" textLength="8" x="578.4867" y="932.5087">1</text><text fill="#000000" font-family="sans-serif" font-size="13" lengthAdjust="spacingAndGlyphs" textLength="8" x="762.8665" y="915.2135">1</text><path d="M990.75,889.172 C1054.26,886.812 1131.76,883.932 1186.45,881.902 " fill="none" style="stroke: #A80036; stroke-width: 1.0;"/><polygon fill="#A80036" points="977.43,889.672,983.5753,893.445,989.4216,889.2235,983.2763,885.4506,977.43,889.672" style="stroke: #A80036; stroke-width: 1.0;"/><text fill="#000000" font-family="sans-serif" font-size="13" lengthAdjust="spacingAndGlyphs" textLength="57" x="1074" y="879.9004">HasMany</text><text fill="#000000" font-family="sans-serif" font-size="13" lengthAdjust="spacingAndGlyphs" textLength="8" x="985.2356" y="902.917">1</text><text fill="#000000" font-family="sans-serif" font-size="13" lengthAdjust="spacingAndGlyphs" textLength="10" x="1168.2961" y="895.5841">N</text><text fill="#888888" font-family="sans-serif" font-size="10" lengthAdjust="spacingAndGlyphs" textLength="108" x="1196.5" y="1126">generated by DDDplus</text></g></svg>