<?xml version="1.0" encoding="UTF-8" standalone="no"?><svg xmlns="http://www.w3.org/2000/svg" xmlns:xlink="http://www.w3.org/1999/xlink" contentScriptType="application/ecmascript" contentStyleType="text/css" height="837px" preserveAspectRatio="none" style="width:2097px;height:837px;" version="1.1" viewBox="0 0 2097 837" width="2097px" zoomAndPan="magnify"><defs><filter height="300%" id="f96ieh8" width="300%" x="-1" y="-1"><feGaussianBlur result="blurOut" stdDeviation="2.0"/><feColorMatrix in="blurOut" result="blurOut2" type="matrix" values="0 0 0 0 0 0 0 0 0 0 0 0 0 0 0 0 0 0 .4 0"/><feOffset dx="4.0" dy="4.0" in="blurOut2" result="blurOut3"/><feBlend in="SourceGraphic" in2="blurOut3" mode="normal"/></filter></defs><g><text fill="#888888" font-family="sans-serif" font-size="10" lengthAdjust="spacingAndGlyphs" textLength="176" x="1920" y="9.668">公共类：24，标注：9，覆盖率：37.5%</text><text fill="#888888" font-family="sans-serif" font-size="10" lengthAdjust="spacingAndGlyphs" textLength="192" x="1904" y="21.4453">公共方法：40，标注：17，覆盖率：42.5%</text><text fill="#888888" font-family="sans-serif" font-size="10" lengthAdjust="spacingAndGlyphs" textLength="192" x="1904" y="33.2227">字段属性：65，标注：21，覆盖率：32.3%</text><!--cluster Aggregate：客户出库单--><polygon fill="#FFFFFF" filter="url(#f96ieh8)" points="1138.5,174.332,1138.5,173.5959,1148.6875,173.6977,1158.875,174.4816,1169.0625,174.7515,1179.25,173.9862,1189.4375,174.6185,1199.625,174.0405,1209.8125,174.9429,1220,174.8327,1230.1875,174.2315,1240.375,173.8824,1250.5625,173.8839,1260.75,174.13,1270.9375,174.3142,1281.125,173.9774,1291.3125,174.3843,1301.5,174.332,1301.5083,174.3346,1302.9621,178.849,1304.1562,183.2826,1305.8786,187.8806,1306.9413,192.2733,1308.5,196.8203,1308.5,196.0932,1318.54,197.5576,1328.58,197.0142,1338.62,197.4764,1348.66,197.051,1358.7,196.6054,1368.74,196.6084,1378.78,196.1316,1388.82,197.3536,1398.86,196.618,1408.9,197.071,1418.94,196.1688,1428.98,197.2247,1439.02,196.1894,1449.06,196.5338,1459.1,196.8818,1469.14,196.7054,1479.18,197.227,1489.22,197.0681,1499.26,196.28,1509.3,196.7074,1519.34,196.4669,1529.38,197.3749,1539.42,196.1608,1549.46,197.1427,1559.5,196.2688,1569.54,197.4993,1579.58,196.901,1589.62,196.755,1599.66,197.3965,1609.7,196.6964,1619.74,197.1281,1629.78,196.5217,1639.82,197.4173,1649.86,197.1091,1659.9,196.7188,1669.94,197.4429,1679.98,197.1261,1690.02,197.4077,1700.06,196.4379,1710.1,197.1866,1720.14,196.4862,1730.18,196.478,1740.22,196.9746,1750.26,196.9095,1760.3,196.5016,1770.34,197.1393,1780.38,197.1564,1790.42,196.6348,1800.46,197.1853,1810.5,196.72,1820.54,196.7176,1830.58,197.3236,1840.62,196.3614,1850.66,196.1177,1860.7,196.1825,1870.74,196.2451,1880.78,196.9478,1890.82,197.2217,1900.86,197.1752,1910.9,197.4117,1920.94,196.0951,1930.98,197.284,1941.02,197.3051,1951.06,197.2203,1961.1,196.1212,1971.14,197.4813,1981.18,197.1884,1991.22,197.5092,2001.26,197.0697,2011.3,197.5235,2021.34,197.1583,2031.38,197.5192,2041.42,196.4358,2051.46,197.2285,2061.5,196.8203,2061.9625,196.8203,2060.9032,207.0352,2060.8313,217.25,2061.6817,227.4648,2062.1385,237.6797,2061.8576,247.8945,2060.9735,258.1094,2060.811,268.3242,2061.2541,278.5391,2061.1002,288.7539,2060.8588,298.9688,2060.9067,309.1836,2062.2148,319.3984,2061.227,329.6133,2062.2237,339.8281,2061.7028,350.043,2061.011,360.2578,2062.0538,370.4727,2061.5411,380.6875,2061.2583,390.9023,2061.9629,401.1172,2061.5,411.332,2061.5,411.6066,2051.4674,412.0447,2041.4348,411.2161,2031.4022,411.1498,2021.3696,412.0525,2011.337,411.2232,2001.3043,411.6904,1991.2717,411.3205,1981.2391,412.0603,1971.2065,411.3607,1961.1739,412.0147,1951.1413,410.7491,1941.1087,412.0587,1931.0761,411.7484,1921.0435,411.6048,1911.0109,411.1526,1900.9783,411.7931,1890.9457,411.8121,1880.913,411.9095,1870.8804,410.7546,1860.8478,411.6142,1850.8152,411.7569,1840.7826,410.9966,1830.75,412.0381,1820.7174,411.9747,1810.6848,411.8046,1800.6522,411.6501,1790.6196,412.0601,1780.587,411.6896,1770.5543,410.755,1760.5217,411.9765,1750.4891,411.4515,1740.4565,410.6402,1730.4239,411.91,1720.3913,410.9289,1710.3587,410.8911,1700.3261,411.9201,1690.2935,411.5404,1680.2609,412.017,1670.2283,411.581,1660.1957,411.4512,1650.163,411.5416,1640.1304,411.7874,1630.0978,411.5708,1620.0652,410.824,1610.0326,411.7201,1600,410.927,1589.9674,411.1742,1579.9348,411.55,1569.9022,411.7773,1559.8696,411.0625,1549.837,410.6979,1539.8043,411.5491,1529.7717,411.0058,1519.7391,411.5038,1509.7065,411.7539,1499.6739,411.5324,1489.6413,411.9971,1479.6087,411.3062,1469.5761,411.5597,1459.5435,411.484,1449.5109,411.265,1439.4783,411.6082,1429.4457,411.3393,1419.413,410.6882,1409.3804,411.6245,1399.3478,411.733,1389.3152,411.7255,1379.2826,410.6976,1369.25,411.4331,1359.2174,412.0312,1349.1848,410.9307,1339.1522,411.7871,1329.1196,411.3899,1319.087,410.8795,1309.0543,411.3947,1299.0217,410.7954,1288.9891,411.0125,1278.9565,411.6463,1268.9239,410.6444,1258.8913,411.3083,1248.8587,411.1553,1238.8261,411.7791,1228.7935,411.6953,1218.7609,411.4042,1208.7283,411.5146,1198.6957,411.9669,1188.663,411.0066,1178.6304,410.6399,1168.5978,411.4669,1158.5652,411.0879,1148.5326,410.7568,1138.5,411.332,1138.2923,411.332,1137.9892,401.457,1138.0204,391.582,1139.2086,381.707,1138.567,371.832,1137.7951,361.957,1138.8823,352.082,1138.1701,342.207,1139.0789,332.332,1139.2382,322.457,1138.4014,312.582,1138.576,302.707,1138.8154,292.832,1138.3691,282.957,1138.3051,273.082,1138.9023,263.207,1139.1418,253.332,1138.4618,243.457,1139.0162,233.582,1138.6565,223.707,1139.0711,213.832,1139.1672,203.957,1138.8839,194.082,1138.8793,184.207,1138.5,174.332" style="stroke: #000000; stroke-width: 2.0;"/><path d="M1138.5,196.8203 L1138.5,196.2543 L1148.5,197.2605 L1158.5,196.5262 L1168.5,197.5875 L1178.5,196.3419 L1188.5,195.9804 L1198.5,197.6158 L1208.5,197.0914 L1218.5,196.8972 L1228.5,196.7932 L1238.5,196.8554 L1248.5,197.2394 L1258.5,197.3899 L1268.5,197.6017 L1278.5,195.8313 L1288.5,196.7772 L1298.5,197.593 L1308.5,196.8203 " fill="#FFFFFF" style="stroke: #000000; stroke-width: 2.0;"/><text fill="#000000" font-family="sans-serif" font-size="14" font-weight="bold" lengthAdjust="spacingAndGlyphs" textLength="157" x="1142.5" y="189.8672">Aggregate：客户出库单</text><text fill="#000000" font-family="sans-serif" font-size="14" font-style="italic" lengthAdjust="spacingAndGlyphs" textLength="277" x="1465.5" y="212.3555">«ddd.plus.showcase.wms.domain.order»</text><!--cluster Aggregate：跨聚合共用的子域--><polygon fill="#FFFFFF" filter="url(#f96ieh8)" points="14,238.332,14,238.8612,23.7619,238.8335,33.5238,238.4964,43.2857,238.8086,53.0476,238.0899,62.8095,237.7348,72.5714,239.0696,82.3333,238.6268,92.0952,238.8443,101.8571,238.4188,111.619,238.7391,121.381,238.5151,131.1429,238.2918,140.9048,237.9689,150.6667,238.3906,160.4286,239.0333,170.1905,238.9123,179.9524,238.7191,189.7143,238.5643,199.4762,237.9912,209.2381,238.0816,219,238.332,218.8072,238.272,220.3419,242.8116,221.9568,247.3761,223.344,251.8698,224.415,256.2651,226,260.8203,226,261.3483,236.3,260.7524,246.6,260.1898,256.9,261.4697,267.2,260.2217,277.5,261.363,287.8,261.0399,298.1,261.0889,308.4,260.1224,318.7,260.5594,329,260.8203,329.2083,260.8203,329.2717,270.8544,329.7283,280.8885,328.6109,290.9227,329.2266,300.9568,329.2193,310.9909,329.1208,321.025,328.8212,331.0591,329.569,341.0932,328.8258,351.1273,329.3452,361.1615,328.9816,371.1956,328.3908,381.2297,329.4584,391.2638,328.5727,401.2979,329,411.332,329,412.074,319.1563,410.7377,309.3125,410.5833,299.4688,411.7494,289.625,411.2068,279.7813,411.7627,269.9375,410.9493,260.0938,411.7266,250.25,410.7133,240.4063,411.1542,230.5625,411.809,220.7188,410.8877,210.875,411.4231,201.0313,411.4448,191.1875,411.3387,181.3438,411.8498,171.5,410.7112,161.6563,412.0793,151.8125,411.4846,141.9688,411.8847,132.125,410.8119,122.2813,412.0733,112.4375,410.8777,102.5938,410.7516,92.75,410.7625,82.9063,410.6606,73.0625,411.1357,63.2188,411.0596,53.375,411.2743,43.5313,412.079,33.6875,411.8326,23.8438,411.1233,14,411.332,13.4558,411.332,14.7103,401.1556,13.8413,390.9791,14.2,380.8026,13.3071,370.6261,13.8523,360.4497,13.78,350.2732,14.1548,340.0967,13.7987,329.9203,13.9864,319.7438,14.4843,309.5673,13.5404,299.3909,13.5435,289.2144,13.9158,279.0379,14.1542,268.8614,14.6902,258.685,13.7252,248.5085,14,238.332" style="stroke: #000000; stroke-width: 2.0;"/><path d="M14,260.8203 L14,260.4799 L24.0952,259.8527 L34.1905,259.9808 L44.2857,261.3499 L54.381,261.0695 L64.4762,261.3437 L74.5714,261.697 L84.6667,260.3206 L94.7619,261.1452 L104.8571,260.8084 L114.9524,260.9647 L125.0476,261.7048 L135.1429,261.2479 L145.2381,260.7399 L155.3333,260.7173 L165.4286,261.4092 L175.5238,260.0029 L185.619,260.0193 L195.7143,261.7337 L205.8095,261.4004 L215.9048,261.0003 L226,260.8203 " fill="#FFFFFF" style="stroke: #000000; stroke-width: 2.0;"/><text fill="#000000" font-family="sans-serif" font-size="14" font-weight="bold" lengthAdjust="spacingAndGlyphs" textLength="199" x="18" y="253.8672">Aggregate：跨聚合共用的子域</text><text fill="#000000" font-family="sans-serif" font-size="14" font-style="italic" lengthAdjust="spacingAndGlyphs" textLength="299" x="26" y="276.3555">«ddd.plus.showcase.wms.domain.common»</text><!--cluster Aggregate：出库复核任务--><polygon fill="#FFFFFF" filter="url(#f96ieh8)" points="84.5,435.332,84.5,434.7046,94.3333,435.5559,104.1667,434.8102,114,435.6196,123.8333,435.7163,133.6667,435.5061,143.5,435.6204,153.3333,435.043,163.1667,435.3413,173,435.2664,182.8333,434.6916,192.6667,435.169,202.5,435.9889,212.3333,434.7432,222.1667,435.826,232,435.3979,241.8333,434.9947,251.6667,435.0439,261.5,435.332,261.5148,435.3366,263.0022,439.8615,264.4069,444.3606,265.7949,448.8545,267.0892,453.3193,268.5,457.8203,268.5,457.5736,278.4724,458.4788,288.4448,457.8599,298.4172,458.2503,308.3897,458.0679,318.3621,457.1576,328.3345,457.9359,338.3069,458.1094,348.2793,458.1868,358.2517,457.1818,368.2241,457.6158,378.1966,457.4744,388.169,457.4982,398.1414,457.9511,408.1138,458.1104,418.0862,458.1025,428.0586,458.3716,438.031,457.4003,448.0034,457.9312,457.9759,457.7655,467.9483,457.2974,477.9207,457.3601,487.8931,458.5086,497.8655,458.512,507.8379,457.5752,517.8103,458.1618,527.7828,457.2206,537.7552,458.1661,547.7276,458.3455,557.7,457.2177,567.6724,457.4565,577.6448,458.5435,587.6172,457.3856,597.5897,457.4794,607.5621,457.3948,617.5345,458.1997,627.5069,457.3748,637.4793,457.3059,647.4517,457.8049,657.4241,457.0721,667.3966,458.4395,677.369,457.854,687.3414,457.3915,697.3138,457.1168,707.2862,458.2244,717.2586,458.1364,727.231,457.9896,737.2034,457.4933,747.1759,458.003,757.1483,457.3797,767.1207,457.7822,777.0931,457.9978,787.0655,458.4285,797.0379,457.2554,807.0103,457.6571,816.9828,458.3023,826.9552,457.4523,836.9276,457.9484,846.9,457.8418,856.8724,457.1122,866.8448,457.6788,876.8172,458.3767,886.7897,457.5546,896.7621,457.6154,906.7345,458.5094,916.7069,457.1708,926.6793,457.5892,936.6517,458.5611,946.6241,457.8272,956.5966,458.278,966.569,458.5054,976.5414,457.4703,986.5138,458.2103,996.4862,457.7602,1006.4586,457.4342,1016.431,457.8518,1026.4034,458.221,1036.3759,458.5132,1046.3483,457.9173,1056.3207,457.8693,1066.2931,458.2095,1076.2655,457.2459,1086.2379,458.1912,1096.2103,457.6807,1106.1828,457.284,1116.1552,457.126,1126.1276,458.3971,1136.1,457.1519,1146.0724,457.1496,1156.0448,458.5123,1166.0172,457.8428,1175.9897,457.3248,1185.9621,457.3871,1195.9345,457.6694,1205.9069,457.6672,1215.8793,458.4116,1225.8517,457.4488,1235.8241,457.2815,1245.7966,457.5651,1255.769,457.1673,1265.7414,457.6734,1275.7138,457.462,1285.6862,457.6066,1295.6586,457.2929,1305.631,457.4859,1315.6034,458.2839,1325.5759,457.6475,1335.5483,458.0073,1345.5207,458.1282,1355.4931,457.641,1365.4655,457.8653,1375.4379,458.1324,1385.4103,458.2853,1395.3828,457.4871,1405.3552,458.0683,1415.3276,458.4292,1425.3,457.3112,1435.2724,457.6892,1445.2448,457.6224,1455.2172,458.532,1465.1897,457.9307,1475.1621,457.8746,1485.1345,457.1098,1495.1069,457.6325,1505.0793,457.2908,1515.0517,458.2468,1525.0241,457.1854,1534.9966,457.5761,1544.969,457.5621,1554.9414,458.3968,1564.9138,457.5235,1574.8862,457.2468,1584.8586,457.4472,1594.831,458.1362,1604.8034,458.255,1614.7759,458.5324,1624.7483,457.4325,1634.7207,457.3352,1644.6931,457.8797,1654.6655,458.2829,1664.6379,457.4348,1674.6103,458.1587,1684.5828,458.2994,1694.5552,457.4969,1704.5276,457.1302,1714.5,457.8203,1715.1312,457.8203,1714.0406,467.8942,1714.6748,477.9681,1714.4005,488.0419,1715.024,498.1158,1714.7931,508.1897,1713.7532,518.2636,1713.8729,528.3374,1714.0938,538.4113,1715.0648,548.4852,1715.2348,558.5591,1714.4192,568.6329,1714.1395,578.7068,1714.4371,588.7807,1714.9788,598.8545,1714.1509,608.9284,1714.3017,619.0023,1715.2465,629.0762,1715.2427,639.15,1714.0096,649.2239,1713.8891,659.2978,1714.3798,669.3717,1713.8325,679.4455,1714.3905,689.5194,1714.3495,699.5933,1714.3322,709.6672,1714.7256,719.741,1714.4266,729.8149,1714.8611,739.8888,1714.2908,749.9627,1714.7923,760.0365,1714.651,770.1104,1714.0029,780.1843,1714.8683,790.2582,1714.5,800.332,1714.5,800.2312,1704.5,800.6734,1694.5,800.7379,1684.5,800.888,1674.5,800.8585,1664.5,800.1077,1654.5,800.5109,1644.5,800.3204,1634.5,800.9239,1624.5,800.7053,1614.5,800.08,1604.5,800.0441,1594.5,800.2643,1584.5,799.6066,1574.5,799.8813,1564.5,800.1586,1554.5,799.6901,1544.5,799.6492,1534.5,800.5988,1524.5,800.4569,1514.5,800.6936,1504.5,800.4276,1494.5,800.8442,1484.5,801.0271,1474.5,799.763,1464.5,800.6918,1454.5,799.834,1444.5,800.6867,1434.5,800.8257,1424.5,800.2208,1414.5,800.733,1404.5,800.6152,1394.5,800.1205,1384.5,801.0312,1374.5,800.8954,1364.5,799.6172,1354.5,800.2776,1344.5,800.3234,1334.5,799.7553,1324.5,800.0959,1314.5,800.5672,1304.5,800.9405,1294.5,800.587,1284.5,801.0425,1274.5,800.6631,1264.5,799.8198,1254.5,799.7833,1244.5,799.649,1234.5,800.8556,1224.5,799.9433,1214.5,800.1739,1204.5,800.5349,1194.5,799.9396,1184.5,799.6541,1174.5,800.2381,1164.5,801.036,1154.5,800.4988,1144.5,800.3901,1134.5,800.3512,1124.5,801.0422,1114.5,800.0047,1104.5,800.9002,1094.5,800.4371,1084.5,800.487,1074.5,801.0484,1064.5,800.8531,1054.5,800.0942,1044.5,799.7846,1034.5,800.6308,1024.5,800.4158,1014.5,800.8997,1004.5,799.7827,994.5,800.2389,984.5,800.3794,974.5,800.6988,964.5,799.6499,954.5,800.4512,944.5,800.2365,934.5,800.2297,924.5,800.0433,914.5,800.0245,904.5,799.7688,894.5,800.942,884.5,800.4096,874.5,799.8342,864.5,800.1859,854.5,800.3183,844.5,800.8578,834.5,800.657,824.5,800.6683,814.5,800.42,804.5,799.7014,794.5,800.1097,784.5,799.8069,774.5,800.7377,764.5,800.0137,754.5,800.5825,744.5,799.8972,734.5,800.7451,724.5,800.3522,714.5,800.7349,704.5,800.8426,694.5,800.3184,684.5,800.712,674.5,800.5544,664.5,800.0464,654.5,799.9091,644.5,800.7375,634.5,800.1124,624.5,799.6193,614.5,801.0302,604.5,799.7776,594.5,800.9915,584.5,800.0155,574.5,800.2426,564.5,800.0012,554.5,800.8994,544.5,800.3109,534.5,799.9108,524.5,800.4986,514.5,800.7285,504.5,800.7803,494.5,800.5297,484.5,800.0806,474.5,800.7693,464.5,800.1884,454.5,800.9109,444.5,800.3563,434.5,800.4359,424.5,799.8063,414.5,800.9576,404.5,799.6109,394.5,800.2152,384.5,799.5824,374.5,800.15,364.5,801.0287,354.5,800.1101,344.5,799.6483,334.5,799.7083,324.5,799.9061,314.5,800.1068,304.5,800.4124,294.5,799.7021,284.5,800.6781,274.5,800.6574,264.5,800.4045,254.5,800.1244,244.5,800.8372,234.5,800.3399,224.5,800.2617,214.5,799.6561,204.5,800.1584,194.5,799.7234,184.5,800.8126,174.5,800.5058,164.5,800.0575,154.5,800.0402,144.5,800.6005,134.5,800.3186,124.5,800.3997,114.5,800.0441,104.5,800.9079,94.5,799.7177,84.5,800.332,83.812,800.332,85.0781,790.4672,85.0554,780.6023,85.2222,770.7374,85.0254,760.8726,84.3846,751.0077,84.4483,741.1428,84.5863,731.278,84.0239,721.4131,84.0994,711.5482,85.0687,701.6834,84.0512,691.8185,85.2023,681.9537,84.5855,672.0888,84.7683,662.2239,84.5045,652.3591,83.9965,642.4942,84.9284,632.6293,84.4475,622.7645,84.7466,612.8996,84.8777,603.0347,83.885,593.1699,83.8696,583.305,84.8244,573.4401,84.8215,563.5753,84.9492,553.7104,84.5461,543.8455,84.8016,533.9807,84.3052,524.1158,84.4341,514.251,84.306,504.3861,84.3592,494.5212,84.0832,484.6564,84.5694,474.7915,83.8289,464.9266,84.7614,455.0618,83.7627,445.1969,84.5,435.332" style="stroke: #000000; stroke-width: 2.0;"/><path d="M84.5,457.8203 L84.5,457.7193 L94.7222,458.3858 L104.9444,458.247 L115.1667,458.5527 L125.3889,457.1195 L135.6111,458.0354 L145.8333,457.2032 L156.0556,457.7728 L166.2778,458.2797 L176.5,458.6417 L186.7222,457.3027 L196.9444,458.2709 L207.1667,458.0551 L217.3889,457.1179 L227.6111,458.4173 L237.8333,458.4466 L248.0556,458.7372 L258.2778,457.8805 L268.5,457.8203 " fill="#FFFFFF" style="stroke: #000000; stroke-width: 2.0;"/><text fill="#000000" font-family="sans-serif" font-size="14" font-weight="bold" lengthAdjust="spacingAndGlyphs" textLength="171" x="88.5" y="450.8672">Aggregate：出库复核任务</text><text fill="#000000" font-family="sans-serif" font-size="14" font-style="italic" lengthAdjust="spacingAndGlyphs" textLength="267" x="770" y="473.3555">«ddd.plus.showcase.wms.domain.task»</text><!--cluster 交互--><polygon fill="#FFFFFF" filter="url(#f96ieh8)" points="38.5,59.332,38.5,59.5697,45.3,59.5017,52.1,59.2719,58.9,59.2986,65.7,59.2847,72.5,59.332,72.6112,59.3666,74.0209,63.8673,75.3824,68.353,76.8019,72.8567,78.3069,77.3871,79.5,81.8203,79.5,81.6565,89.6818,81.4478,99.8636,81.7265,110.0455,81.813,120.2273,81.6547,130.4091,82.552,140.5909,82.3856,150.7727,81.4788,160.9545,81.9745,171.1364,81.6206,181.3182,81.7641,191.5,81.8862,201.6818,82.4757,211.8636,81.3228,222.0455,81.5559,232.2273,82.355,242.4091,81.6278,252.5909,82.2814,262.7727,82.2458,272.9545,81.0776,283.1364,81.461,293.3182,82.5188,303.5,81.8203,303.5545,81.8203,304.1428,92.0135,302.903,102.2067,304.1363,112.3999,303.1253,122.5931,304.0671,132.7864,302.8613,142.9796,302.8608,153.1728,303.2039,163.366,303.5029,173.5592,303.0355,183.7524,303.2887,193.9456,303.1675,204.1388,303.5,214.332,303.5,214.3613,293.6852,215.0471,283.8704,214.9459,274.0556,214.7271,264.2407,214.1497,254.4259,213.6953,244.6111,214.8264,234.7963,214.8271,224.9815,214.704,215.1667,213.8151,205.3519,213.6755,195.537,214.2518,185.7222,214.8846,175.9074,215.0131,166.0926,214.152,156.2778,214.8498,146.463,214.5868,136.6481,213.8682,126.8333,215.0075,117.0185,214.5703,107.2037,213.8503,97.3889,214.2871,87.5741,214.338,77.7593,214.1422,67.9444,213.6718,58.1296,213.8011,48.3148,215.002,38.5,214.332,38.2853,214.332,38.0272,204.6445,38.4067,194.957,38.1835,185.2695,38.3526,175.582,39.0823,165.8945,39.062,156.207,37.7739,146.5195,38.3014,136.832,37.8215,127.1445,38.3574,117.457,38.4776,107.7695,37.9358,98.082,38.2516,88.3945,38.0946,78.707,38.6955,69.0195,38.5,59.332" style="stroke: #000000; stroke-width: 2.0;"/><path d="M38.5,81.8203 L38.5,81.8741 L46.7,82.0844 L54.9,81.8978 L63.1,81.5879 L71.3,81.5854 L79.5,81.8203 " fill="#FFFFFF" style="stroke: #000000; stroke-width: 2.0;"/><text fill="#000000" font-family="sans-serif" font-size="14" font-weight="bold" lengthAdjust="spacingAndGlyphs" textLength="28" x="42.5" y="74.8672">交互</text><text fill="#000000" font-family="sans-serif" font-size="14" font-style="italic" lengthAdjust="spacingAndGlyphs" textLength="72" x="139" y="97.3555">«UseCase»</text><!--class Order--><polygon fill="#FEFECE" filter="url(#f96ieh8)" points="1178.5,276.332,1178.5,276.1475,1187.9286,276.4948,1197.3571,276.3263,1206.7857,276.3062,1216.2143,276.3847,1225.6429,276.6101,1235.0714,276.0048,1244.5,276.332,1245.0799,276.332,1244.9484,286.3192,1243.7745,296.3064,1244.3004,306.2935,1243.9819,316.2807,1245.0929,326.2679,1243.8012,336.255,1244.5,346.2422,1244.5,346.3355,1235.0714,345.6886,1225.6429,345.7913,1216.2143,346.3667,1206.7857,346.948,1197.3571,346.3973,1187.9286,346.5289,1178.5,346.2422,1179.1096,346.2422,1177.9931,336.255,1178.5688,326.2679,1178.2757,316.2807,1178.0723,306.2935,1178.9924,296.3064,1177.8251,286.3192,1178.5,276.332" style="stroke: #A80036; stroke-width: 1.5;"/><polygon fill="#FF7700" points="1204.1018,295.1726,1202.6338,298.2345,1201.2293,299.5325,1199.2902,301.6146,1196.1561,302.7998,1193.0929,303.8625,1190.9304,303.3516,1187.9703,302.5948,1186.4112,300.3346,1184.5656,298.5614,1182.8394,296.8045,1183.0043,294.5812,1182.1549,292.1166,1183.407,289.0376,1184.2193,286.3481,1185.5969,284.4024,1188.5702,281.7908,1191.2156,281.3692,1194.1765,280.7966,1196.4163,281.0648,1199.4818,283.4212,1202.2707,285.8098,1204.6018,288.6824,1205.1073,291.4367,1204.7262,293.5582" style="stroke: #A80036; stroke-width: 1.0;"/><path d="M1194.1987,292.98 Q1194.564,293.0547 1194.8337,293.3245 Q1195.1035,293.5942 1195.4937,294.3745 L1197.7349,298.832 L1195.0454,298.832 L1193.5513,295.7026 Q1193.4849,295.5698 1193.377,295.3374 Q1192.7212,293.9346 1191.833,293.9346 L1191.0527,293.9346 L1191.0527,298.832 L1188.604,298.832 L1188.604,286.439 L1192.1401,286.439 Q1194.5308,286.439 1195.5725,287.2856 Q1196.6143,288.1323 1196.6143,290.0415 Q1196.6143,291.3198 1195.9917,292.0752 Q1195.3691,292.8306 1194.1987,292.98 Z M1191.0527,288.4976 L1191.0527,291.876 L1192.2065,291.876 Q1193.2109,291.876 1193.6467,291.4817 Q1194.0825,291.0874 1194.0825,290.1826 Q1194.0825,289.2778 1193.6509,288.8877 Q1193.2192,288.4976 1192.2065,288.4976 Z "/><text fill="#000000" font-family="sans-serif" font-size="12" lengthAdjust="spacingAndGlyphs" textLength="34" x="1207.5" y="296.8672">Order</text><path d="M1179.5,308.332 L1179.5,307.3696 L1190.1667,307.4685 L1200.8333,308.1659 L1211.5,307.9101 L1222.1667,308.5656 L1232.8333,307.9501 L1243.5,308.332 " fill="#FEFECE" style="stroke: #A80036; stroke-width: 1.5;"/><text fill="#000000" font-family="sans-serif" font-size="11" lengthAdjust="spacingAndGlyphs" textLength="45" x="1184.5" y="339.9219">orderNo</text><path d="M1179.5,322.8096 L1179.5,322.8208 L1183.5,322.5243 L1187.5,323.1276 L1191.5,323.0384 L1195.5,323.0812 L1199.5,322.8096 " fill="#FEFECE" style="stroke: #A80036; stroke-width: 1.5;"/><text fill="#000000" font-family="sans-serif" font-size="11" lengthAdjust="spacingAndGlyphs" textLength="24" x="1199.5" y="326.4668">DCU</text><path d="M1223.5,322.8096 L1223.5,322.8072 L1227.5,322.9608 L1231.5,322.9857 L1235.5,322.9137 L1239.5,323.0314 L1243.5,322.8096 " fill="#FEFECE" style="stroke: #A80036; stroke-width: 1.5;"/><!--class OrderLine--><polygon fill="#FEFECE" filter="url(#f96ieh8)" points="1845,246.332,1845,246.4936,1854.8333,245.8823,1864.6667,246.3782,1874.5,247.0498,1884.3333,246.4842,1894.1667,246.8258,1904,246.2711,1913.8333,245.7613,1923.6667,246.5343,1933.5,246.5525,1943.3333,247.0221,1953.1667,246.3647,1963,245.8417,1972.8333,246.2813,1982.6667,246.1859,1992.5,246.279,2002.3333,245.6493,2012.1667,246.0373,2022,246.332,2022.3407,246.332,2021.4179,256.3113,2021.3807,266.2906,2021.9388,276.2698,2022.347,286.2491,2021.811,296.2284,2022.2568,306.2076,2022.3134,316.1869,2021.6031,326.1662,2022.0605,336.1454,2022.528,346.1247,2022.17,356.104,2021.7894,366.0832,2022,376.0625,2022,376.2978,2012.1667,376.501,2002.3333,376.0698,1992.5,376.4911,1982.6667,375.7379,1972.8333,375.6669,1963,375.6619,1953.1667,375.662,1943.3333,375.9153,1933.5,375.5333,1923.6667,375.6722,1913.8333,375.9973,1904,376.5727,1894.1667,375.5984,1884.3333,375.3141,1874.5,376.621,1864.6667,376.2976,1854.8333,376.0918,1845,376.0625,1844.6863,376.0625,1844.8898,366.0832,1844.934,356.104,1844.7306,346.1247,1844.4466,336.1454,1845.0918,326.1662,1845.1824,316.1869,1845.4419,306.2076,1845.225,296.2284,1844.371,286.2491,1845.6377,276.2698,1845.2827,266.2906,1844.8655,256.3113,1845,246.332" style="stroke: #A80036; stroke-width: 1.5;"/><polygon fill="#ADD1B2" points="1910.7726,265.2196,1910.282,268.9287,1908.17,269.6974,1906.2349,271.8522,1902.9941,273.5,1900.4591,272.8977,1897.9363,272.4364,1895.7096,271.8384,1893.3693,270.7599,1890.5428,267.9977,1890.4097,264.4169,1890.0167,261.6657,1890.583,258.6328,1891.0906,256.6651,1892.3747,254.4788,1895.2119,253.0654,1897.5756,252.4848,1899.4298,251.6306,1901.7812,251.1014,1905.1603,251.7161,1908.2413,253.6781,1909.6931,255.8681,1910.8364,257.6398,1911.5737,261.1473,1911.959,263.2852" style="stroke: #A80036; stroke-width: 1.0;"/><path d="M1903.2231,268.4751 Q1902.6421,268.7739 1902.0029,268.9233 Q1901.3638,269.0728 1900.6582,269.0728 Q1898.1514,269.0728 1896.8315,267.4209 Q1895.5117,265.769 1895.5117,262.6479 Q1895.5117,259.5186 1896.8315,257.8667 Q1898.1514,256.2148 1900.6582,256.2148 Q1901.3638,256.2148 1902.0112,256.3643 Q1902.6587,256.5137 1903.2231,256.8125 L1903.2231,259.5352 Q1902.5923,258.9541 1901.9988,258.6843 Q1901.4053,258.4146 1900.7744,258.4146 Q1899.4297,258.4146 1898.7449,259.4812 Q1898.0601,260.5479 1898.0601,262.6479 Q1898.0601,264.7397 1898.7449,265.8064 Q1899.4297,266.873 1900.7744,266.873 Q1901.4053,266.873 1901.9988,266.6033 Q1902.5923,266.3335 1903.2231,265.7524 Z "/><text fill="#000000" font-family="sans-serif" font-size="12" lengthAdjust="spacingAndGlyphs" textLength="57" x="1921.25" y="266.8672">OrderLine</text><path d="M1846,278.332 L1846,277.3468 L1855.7222,278.9981 L1865.4444,278.5062 L1875.1667,278.8399 L1884.8889,277.5216 L1894.6111,279.2607 L1904.3333,278.8159 L1914.0556,277.7175 L1923.7778,277.3367 L1933.5,278.9039 L1943.2222,278.9096 L1952.9444,278.7937 L1962.6667,278.8809 L1972.3889,278.1068 L1982.1111,277.3428 L1991.8333,277.8064 L2001.5556,278.7547 L2011.2778,277.9235 L2021,278.332 " fill="#FEFECE" style="stroke: #A80036; stroke-width: 1.5;"/><text fill="#000000" font-family="sans-serif" font-size="11" lengthAdjust="spacingAndGlyphs" textLength="91" x="1851" y="309.9219">OrderLineNo Sku</text><path d="M1846,292.8096 L1846,292.2564 L1856.1667,293.4997 L1866.3333,293.3617 L1876.5,293.485 L1886.6667,292.9304 L1896.8333,292.4864 L1907,292.8096 " fill="#FEFECE" style="stroke: #A80036; stroke-width: 1.5;"/><text fill="#000000" font-family="sans-serif" font-size="11" lengthAdjust="spacingAndGlyphs" textLength="53" x="1907" y="296.4668">Structural</text><path d="M1960,292.8096 L1960,292.9187 L1970.1667,293.193 L1980.3333,293.7221 L1990.5,293.4913 L2000.6667,292.9091 L2010.8333,292.4614 L2021,292.8096 " fill="#FEFECE" style="stroke: #A80036; stroke-width: 1.5;"/><text fill="#000000" font-family="sans-serif" font-size="11" lengthAdjust="spacingAndGlyphs" textLength="165" x="1851" y="339.832">qty/要货量 shortageQty/缺货量</text><path d="M1846,322.7197 L1846,322.4107 L1856.75,322.7905 L1867.5,322.9576 L1878.25,323.1178 L1889,321.838 L1899.75,323.579 L1910.5,322.7197 " fill="#FEFECE" style="stroke: #A80036; stroke-width: 1.5;"/><text fill="#000000" font-family="sans-serif" font-size="11" lengthAdjust="spacingAndGlyphs" textLength="46" x="1910.5" y="326.377">Quantity</text><path d="M1956.5,322.7197 L1956.5,322.9494 L1967.25,322.2103 L1978,322.7915 L1988.75,322.6004 L1999.5,323.2325 L2010.25,323.2881 L2021,322.7197 " fill="#FEFECE" style="stroke: #A80036; stroke-width: 1.5;"/><text fill="#000000" font-family="sans-serif" font-size="11" lengthAdjust="spacingAndGlyphs" textLength="154" x="1851" y="369.7422">expectedQty/要货量-缺货量()</text><path d="M1846,352.6299 L1846,352.8733 L1855.5625,353.2173 L1865.125,353.5168 L1874.6875,352.7851 L1884.25,352.9505 L1893.8125,353.4997 L1903.375,351.8985 L1912.9375,352.2571 L1922.5,352.6299 " fill="#FEFECE" style="stroke: #A80036; stroke-width: 1.5;"/><text fill="#000000" font-family="sans-serif" font-size="11" lengthAdjust="spacingAndGlyphs" textLength="22" x="1922.5" y="356.2871">规则</text><path d="M1944.5,352.6299 L1944.5,352.0592 L1954.0625,353.233 L1963.625,351.6869 L1973.1875,352.2617 L1982.75,352.8695 L1992.3125,352.5284 L2001.875,352.9115 L2011.4375,353.1724 L2021,352.6299 " fill="#FEFECE" style="stroke: #A80036; stroke-width: 1.5;"/><!--class OrderLineBag--><polygon fill="#FEFECE" filter="url(#f96ieh8)" points="1521,287.332,1521,287.5465,1531,287.506,1541,287.9528,1551,286.9208,1561,287.0674,1571,287.9074,1581,287.0262,1591,286.6288,1601,287.453,1611,286.778,1621,286.9016,1631,287.332,1631.4745,287.332,1630.8609,296.932,1631.72,306.532,1631.1105,316.132,1630.8973,325.732,1631,335.332,1631,335.2208,1621,335.208,1611,335.9252,1601,334.7927,1591,334.9529,1581,335.6377,1571,335.0053,1561,334.8002,1551,335.2818,1541,334.7589,1531,335.1302,1521,335.332,1521.4476,335.332,1520.6065,325.732,1521.6636,316.132,1520.8683,306.532,1520.3939,296.932,1521,287.332" style="stroke: #A80036; stroke-width: 1.5;"/><polygon fill="#9197DB" points="1546.5048,306.7531,1545.0568,310.1333,1542.0138,312.4098,1538.7855,314.1017,1535.6708,313.8244,1533.6554,314.2228,1530.8041,312.6172,1528.1396,311.687,1526.5761,308.378,1525.7761,306.1146,1525.5692,304.1554,1525.5709,302.2333,1526.4116,299.3946,1526.8877,296.6609,1529.7425,294.6042,1531.5909,292.6663,1533.7248,292.3832,1537.2382,292.7965,1539.4294,292.6888,1541.1558,294.3891,1543.3267,295.6522,1545.1927,296.7472,1545.9968,299.4624,1546.7323,301.6274,1546.5145,305.2187" style="stroke: #A80036; stroke-width: 1.0;"/><path d="M1534.4033,304.7041 L1534.4033,308.373 L1536.0303,308.373 Q1537.2007,308.373 1537.6697,307.9746 Q1538.1387,307.5762 1538.1387,306.5884 Q1538.1387,305.584 1537.6489,305.144 Q1537.1592,304.7041 1536.0303,304.7041 Z M1534.4033,299.873 L1534.4033,302.7534 L1536.0303,302.7534 Q1536.96,302.7534 1537.3542,302.4214 Q1537.7485,302.0894 1537.7485,301.3257 Q1537.7485,300.562 1537.3459,300.2175 Q1536.9434,299.873 1536.0303,299.873 Z M1532.0376,297.9224 L1536.0303,297.9224 Q1538.0972,297.9224 1539.1389,298.7068 Q1540.1807,299.4912 1540.1807,301.0518 Q1540.1807,302.2471 1539.5664,302.9194 Q1538.9521,303.5918 1537.7651,303.6997 Q1539.1846,303.8408 1539.9026,304.6543 Q1540.6206,305.4678 1540.6206,306.9287 Q1540.6206,308.7217 1539.5415,309.5269 Q1538.4624,310.332 1536.0303,310.332 L1532.0376,310.332 Z "/><text fill="#000000" font-family="sans-serif" font-size="12" lengthAdjust="spacingAndGlyphs" textLength="78" x="1550" y="307.8672">OrderLineBag</text><path d="M1522,319.332 L1522,319.3932 L1531.8182,319.5919 L1541.6364,319.429 L1551.4545,319.5598 L1561.2727,319.4865 L1571.0909,319.3782 L1580.9091,319.4322 L1590.7273,320.3268 L1600.5455,318.3449 L1610.3636,319.48 L1620.1818,318.6291 L1630,319.332 " fill="#FEFECE" style="stroke: #A80036; stroke-width: 1.5;"/><path d="M1522,327.332 L1522,327.3309 L1531.8182,327.3228 L1541.6364,326.4022 L1551.4545,327.8167 L1561.2727,326.8637 L1571.0909,326.3936 L1580.9091,328.2519 L1590.7273,327.0651 L1600.5455,327.222 L1610.3636,327.6898 L1620.1818,327.7032 L1630,327.332 " fill="#FEFECE" style="stroke: #A80036; stroke-width: 1.5;"/><!--class Sku--><polygon fill="#FEFECE" filter="url(#f96ieh8)" points="94,289.332,94,290.0772,104.2667,289.8072,114.5333,289.9919,124.8,288.8707,135.0667,289.9366,145.3333,288.6832,155.6,289.6073,165.8667,288.8823,176.1333,289.0356,186.4,289.972,196.6667,289.1027,206.9333,289.2443,217.2,289.304,227.4667,289.4493,237.7333,290.0602,248,289.332,247.417,289.332,247.5445,298.9762,247.8768,308.6204,248.5724,318.2646,247.2646,327.9087,248.033,337.5529,247.799,347.1971,248.4138,356.8413,247.8336,366.4854,247.8374,376.1296,248.0591,385.7738,248,395.418,248,395.1577,237.7333,396.1313,227.4667,395.9749,217.2,394.9078,206.9333,394.9678,196.6667,394.7643,186.4,395.7532,176.1333,394.838,165.8667,394.9445,155.6,396.1426,145.3333,394.7426,135.0667,395.5373,124.8,396.0809,114.5333,395.5533,104.2667,395.798,94,395.418,94.1946,395.418,93.9189,385.7738,94.4499,376.1296,93.6018,366.4854,94.1991,356.8413,94.4658,347.1971,93.9102,337.5529,93.4311,327.9087,94.335,318.2646,93.386,308.6204,93.2718,298.9762,94,289.332" style="stroke: #A80036; stroke-width: 1.5;"/><polygon fill="#ADD1B2" points="147.7555,310.4943,147.3977,312.9974,145.8111,315.5572,143.1753,316.66,140.4396,318.9634,137.1262,320.0897,134.5635,318.9827,132.0859,317.6329,128.7373,316.2268,127.5327,313.7687,125.5247,310.6654,126.4339,308.0378,125.6903,305.5959,127.2824,303.5457,128.3747,300.9864,131.1885,298.8146,133.9655,298.4625,135.8157,298.1093,138.9946,298.2935,141.6608,299.0843,143.9365,300.9109,146.6924,302.8801,147.0755,305.1757,148.453,308.1781,148.0195,310.4508" style="stroke: #A80036; stroke-width: 1.0;"/><path d="M139.3731,314.6079 Q138.7921,314.9067 138.1529,315.0562 Q137.5138,315.2056 136.8082,315.2056 Q134.3014,315.2056 132.9815,313.5537 Q131.6617,311.9019 131.6617,308.7808 Q131.6617,305.6514 132.9815,303.9995 Q134.3014,302.3477 136.8082,302.3477 Q137.5138,302.3477 138.1612,302.4971 Q138.8087,302.6465 139.3731,302.9453 L139.3731,305.668 Q138.7423,305.0869 138.1488,304.8171 Q137.5553,304.5474 136.9244,304.5474 Q135.5797,304.5474 134.8949,305.614 Q134.2101,306.6807 134.2101,308.7808 Q134.2101,310.8726 134.8949,311.9392 Q135.5797,313.0059 136.9244,313.0059 Q137.5553,313.0059 138.1488,312.7361 Q138.7423,312.4663 139.3731,311.8853 Z "/><text fill="#000000" font-family="sans-serif" font-size="12" font-style="italic" lengthAdjust="spacingAndGlyphs" textLength="64" x="155.1" y="305.9336">«货品编号.»</text><text fill="#000000" font-family="sans-serif" font-size="12" lengthAdjust="spacingAndGlyphs" textLength="20" x="177.1" y="320.0664">Sku</text><path d="M95,327.5977 L95,326.7653 L105.1333,327.5718 L115.2667,327.7543 L125.4,327.1003 L135.5333,327.4246 L145.6667,326.6918 L155.8,328.0878 L165.9333,328.1177 L176.0667,327.4044 L186.2,327.5648 L196.3333,328.3158 L206.4667,327.5213 L216.6,327.3084 L226.7333,326.8101 L236.8667,326.9075 L247,327.5977 " fill="#FEFECE" style="stroke: #A80036; stroke-width: 1.5;"/><text fill="#000000" font-family="sans-serif" font-size="11" lengthAdjust="spacingAndGlyphs" textLength="142" x="100" y="359.1875">OwnerNo PackCode skuNo</text><path d="M95,342.0752 L95,341.6018 L104.9,341.9518 L114.8,341.7792 L124.7,343.0662 L134.6,342.507 L144.5,342.0752 " fill="#FEFECE" style="stroke: #A80036; stroke-width: 1.5;"/><text fill="#000000" font-family="sans-serif" font-size="11" lengthAdjust="spacingAndGlyphs" textLength="53" x="144.5" y="345.7324">Structural</text><path d="M197.5,342.0752 L197.5,342.1515 L207.4,342.0916 L217.3,342.1172 L227.2,341.5032 L237.1,341.2326 L247,342.0752 " fill="#FEFECE" style="stroke: #A80036; stroke-width: 1.5;"/><text fill="#000000" font-family="sans-serif" font-size="11" lengthAdjust="spacingAndGlyphs" textLength="67" x="100" y="389.0977">LotNo snList</text><path d="M95,371.9854 L95,371.8761 L104.3,371.1331 L113.6,372.8988 L122.9,372.6023 L132.2,372.6273 L141.5,371.9854 " fill="#FEFECE" style="stroke: #A80036; stroke-width: 1.5;"/><text fill="#000000" font-family="sans-serif" font-size="11" lengthAdjust="spacingAndGlyphs" textLength="59" x="141.5" y="375.6426">Contextual</text><path d="M200.5,371.9854 L200.5,371.814 L209.8,372.7488 L219.1,371.0244 L228.4,372.6453 L237.7,372.875 L247,371.9854 " fill="#FEFECE" style="stroke: #A80036; stroke-width: 1.5;"/><!--class Container--><polygon fill="#FEFECE" filter="url(#f96ieh8)" points="815,541.332,815,541.3437,824.9286,541.1044,834.8571,540.8284,844.7857,540.7062,854.7143,541.8047,864.6429,540.9049,874.5714,541.1754,884.5,541.4208,894.4286,542.0181,904.3571,540.7088,914.2857,541.3637,924.2143,541.753,934.1429,541.6751,944.0714,540.6786,954,541.332,954.5982,541.332,953.9542,550.9762,953.7188,560.6204,954.6545,570.2646,953.6444,579.9087,954.1349,589.5529,954.6096,599.1971,953.9629,608.8413,954.6556,618.4854,953.3817,628.1296,953.7822,637.7738,954,647.418,954,648.0565,944.0714,647.806,934.1429,646.9664,924.2143,648.0647,914.2857,647.7423,904.3571,647.5658,894.4286,646.7262,884.5,647.992,874.5714,648.0624,864.6429,647.7021,854.7143,647.9471,844.7857,647.1158,834.8571,647.7217,824.9286,647.0951,815,647.418,815.2979,647.418,814.6606,637.7738,815.1532,628.1296,814.9104,618.4854,814.9101,608.8413,814.5846,599.1971,814.4318,589.5529,815.6765,579.9087,815.3874,570.2646,815.0751,560.6204,815.3619,550.9762,815,541.332" style="stroke: #A80036; stroke-width: 1.5;"/><polygon fill="#ADD1B2" points="861.9548,562.9813,860.9645,565.2837,859.8585,567.4001,858.589,569.2455,855.2553,571.2087,852.4872,571.4412,850.3796,571.5083,847.1044,570.5005,844.5105,569.2666,842.7394,566.9403,840.7282,563.9136,839.5418,560.9429,840.1123,558.2087,841.5774,554.7788,842.6388,552.6556,845.3953,550.4069,848.741,550.2169,851.9868,549.8776,854.3379,549.3653,856.3361,550.3937,858.0787,552.6302,860.7614,555.1809,862.0071,556.8944,861.4644,559.1097,861.5187,561.9524" style="stroke: #A80036; stroke-width: 1.0;"/><path d="M853.6231,566.6079 Q853.0421,566.9067 852.4029,567.0562 Q851.7638,567.2056 851.0582,567.2056 Q848.5514,567.2056 847.2315,565.5537 Q845.9117,563.9019 845.9117,560.7808 Q845.9117,557.6514 847.2315,555.9995 Q848.5514,554.3477 851.0582,554.3477 Q851.7638,554.3477 852.4112,554.4971 Q853.0587,554.6465 853.6231,554.9453 L853.6231,557.668 Q852.9923,557.0869 852.3988,556.8171 Q851.8053,556.5474 851.1744,556.5474 Q849.8297,556.5474 849.1449,557.614 Q848.4601,558.6807 848.4601,560.7808 Q848.4601,562.8726 849.1449,563.9392 Q849.8297,565.0059 851.1744,565.0059 Q851.8053,565.0059 852.3988,564.7361 Q852.9923,564.4663 853.6231,563.8853 Z "/><text fill="#000000" font-family="sans-serif" font-size="12" font-style="italic" lengthAdjust="spacingAndGlyphs" textLength="64" x="867.85" y="557.9336">«拣货容器.»</text><text fill="#000000" font-family="sans-serif" font-size="12" lengthAdjust="spacingAndGlyphs" textLength="55" x="872.35" y="572.0664">Container</text><path d="M816,579.5977 L816,580.2439 L825.7857,579.9962 L835.5714,580.5743 L845.3571,578.6865 L855.1429,578.7655 L864.9286,579.4292 L874.7143,579.9605 L884.5,580.1486 L894.2857,579.7557 L904.0714,578.8246 L913.8571,579.5275 L923.6429,579.3505 L933.4286,580.3321 L943.2143,580.5211 L953,579.5977 " fill="#FEFECE" style="stroke: #A80036; stroke-width: 1.5;"/><text fill="#000000" font-family="sans-serif" font-size="11" lengthAdjust="spacingAndGlyphs" textLength="23" x="821" y="611.1875">type</text><path d="M816,594.0752 L816,593.8931 L823.4,594.1193 L830.8,593.801 L838.2,594.3146 L845.6,593.9055 L853,594.0752 " fill="#FEFECE" style="stroke: #A80036; stroke-width: 1.5;"/><text fill="#000000" font-family="sans-serif" font-size="11" lengthAdjust="spacingAndGlyphs" textLength="63" x="853" y="597.7324">Operational</text><path d="M916,594.0752 L916,593.9051 L923.4,593.8934 L930.8,593.9899 L938.2,594.2117 L945.6,594.2691 L953,594.0752 " fill="#FEFECE" style="stroke: #A80036; stroke-width: 1.5;"/><text fill="#000000" font-family="sans-serif" font-size="11" lengthAdjust="spacingAndGlyphs" textLength="127" x="821" y="641.0977">containerNo/扫描枪可扫</text><path d="M816,623.9854 L816,624.331 L825.4167,624.8961 L834.8333,624.1236 L844.25,623.1349 L853.6667,624.4602 L863.0833,623.1346 L872.5,623.9854 " fill="#FEFECE" style="stroke: #A80036; stroke-width: 1.5;"/><text fill="#000000" font-family="sans-serif" font-size="11" lengthAdjust="spacingAndGlyphs" textLength="24" x="872.5" y="627.6426">DCU</text><path d="M896.5,623.9854 L896.5,624.3778 L905.9167,623.5893 L915.3333,624.9351 L924.75,624.4953 L934.1667,624.233 L943.5833,623.8404 L953,623.9854 " fill="#FEFECE" style="stroke: #A80036; stroke-width: 1.5;"/><!--class ContainerBag--><polygon fill="#FEFECE" filter="url(#f96ieh8)" points="449.5,560.332,449.5,560.8036,459.4,559.8919,469.3,561.0602,479.2,559.9594,489.1,559.8099,499,560.3584,508.9,559.5872,518.8,560.147,528.7,559.7989,538.6,561.0353,548.5,561.0326,558.4,559.5911,568.3,560.361,578.2,560.0369,588.1,559.6298,598,559.6974,607.9,559.9571,617.8,560.0071,627.7,559.6935,637.6,560.2638,647.5,560.332,647.4385,560.332,646.8807,569.9141,647.8021,579.4961,648.0497,589.0781,648.0675,598.6602,647.5433,608.2422,648.0265,617.8242,648.1409,627.4063,646.9737,636.9883,647.8723,646.5703,647.5,656.1523,647.5,656.4832,637.6,656.8904,627.7,656.3765,617.8,656.7267,607.9,655.4578,598,656.4342,588.1,656.0391,578.2,655.904,568.3,656.7792,558.4,656.5981,548.5,655.6178,538.6,656.2244,528.7,656.5863,518.8,656.4742,508.9,656.6404,499,656.537,489.1,656.8991,479.2,656.8462,469.3,655.9483,459.4,656.7357,449.5,656.1523,450.1138,656.1523,449.1026,646.5703,449.7159,636.9883,449.9682,627.4063,449.3418,617.8242,448.9593,608.2422,449.1349,598.6602,449.1364,589.0781,449.7955,579.4961,449.0959,569.9141,449.5,560.332" style="stroke: #A80036; stroke-width: 1.5;"/><polygon fill="#9197DB" points="517.2943,579.2352,516.5344,581.692,515.1273,583.8604,512.67,584.624,511.0332,585.6428,507.8188,587.9109,504.4129,587.6456,501.3042,585.9854,498.6108,585.0084,496.1534,581.9858,495.1929,579.1162,495.099,575.5312,496.0329,572.6737,497.4696,570.7225,499.3214,568.1389,500.7146,566.1523,503.9885,565.2664,507.7462,565.4984,510.5729,565.9348,512.6335,567.3242,515.0019,568.5862,516.1873,571.7095,517.6457,575.0389,516.498,577.8897" style="stroke: #A80036; stroke-width: 1.0;"/><path d="M504.6533,577.7041 L504.6533,581.373 L506.2803,581.373 Q507.4507,581.373 507.9197,580.9746 Q508.3887,580.5762 508.3887,579.5884 Q508.3887,578.584 507.8989,578.144 Q507.4092,577.7041 506.2803,577.7041 Z M504.6533,572.873 L504.6533,575.7534 L506.2803,575.7534 Q507.21,575.7534 507.6042,575.4214 Q507.9985,575.0894 507.9985,574.3257 Q507.9985,573.562 507.5959,573.2175 Q507.1934,572.873 506.2803,572.873 Z M502.2876,570.9224 L506.2803,570.9224 Q508.3472,570.9224 509.3889,571.7068 Q510.4307,572.4912 510.4307,574.0518 Q510.4307,575.2471 509.8164,575.9194 Q509.2021,576.5918 508.0151,576.6997 Q509.4346,576.8408 510.1526,577.6543 Q510.8706,578.4678 510.8706,579.9287 Q510.8706,581.7217 509.7915,582.5269 Q508.7124,583.332 506.2803,583.332 L502.2876,583.332 Z "/><text fill="#000000" font-family="sans-serif" font-size="12" lengthAdjust="spacingAndGlyphs" textLength="76" x="526.75" y="580.8672">ContainerBag</text><path d="M450.5,592.332 L450.5,592.4136 L460.3,591.8263 L470.1,592.2082 L479.9,593.1025 L489.7,591.733 L499.5,591.7064 L509.3,592.2755 L519.1,593.1187 L528.9,592.1186 L538.7,591.9441 L548.5,592.0031 L558.3,591.4848 L568.1,592.2277 L577.9,592.3261 L587.7,593.2901 L597.5,592.4385 L607.3,592.3061 L617.1,592.5264 L626.9,591.759 L636.7,591.7754 L646.5,592.332 " fill="#FEFECE" style="stroke: #A80036; stroke-width: 1.5;"/><text fill="#000000" font-family="sans-serif" font-size="11" lengthAdjust="spacingAndGlyphs" textLength="186" x="455.5" y="623.9219">totalSku() 该容器的总商品种类(品数).</text><text fill="#000000" font-family="sans-serif" font-size="11" lengthAdjust="spacingAndGlyphs" textLength="145" x="455.5" y="636.877">totalQty() 该容器的总要货量.</text><text fill="#000000" font-family="sans-serif" font-size="11" lengthAdjust="spacingAndGlyphs" textLength="94" x="455.5" y="649.832">pendingItemBag()</text><path d="M450.5,606.8096 L450.5,607.7142 L460.1667,606.0041 L469.8333,606.7432 L479.5,607.42 L489.1667,606.3865 L498.8333,607.1008 L508.5,606.4164 L518.1667,606.5035 L527.8333,607.3123 L537.5,606.8096 " fill="#FEFECE" style="stroke: #A80036; stroke-width: 1.5;"/><text fill="#000000" font-family="sans-serif" font-size="11" lengthAdjust="spacingAndGlyphs" textLength="22" x="537.5" y="610.4668">规则</text><path d="M559.5,606.8096 L559.5,606.544 L569.1667,607.4756 L578.8333,606.0064 L588.5,606.5509 L598.1667,607.4125 L607.8333,606.9411 L617.5,606.3403 L627.1667,607.0866 L636.8333,606.3283 L646.5,606.8096 " fill="#FEFECE" style="stroke: #A80036; stroke-width: 1.5;"/><!--class ContainerItem--><polygon fill="#FEFECE" filter="url(#f96ieh8)" points="1478,507.332,1478,507.5794,1487.85,507.0409,1497.7,507.3324,1507.55,507.5112,1517.4,507.9562,1527.25,507.2252,1537.1,507.6331,1546.95,506.6102,1556.8,506.6836,1566.65,507.4977,1576.5,507.3067,1586.35,507.4064,1596.2,507.3301,1606.05,507.8409,1615.9,506.657,1625.75,508.0015,1635.6,507.2491,1645.45,507.1856,1655.3,506.7002,1665.15,507.0952,1675,507.332,1674.63,507.332,1675.5419,517.2621,1675.6513,527.1922,1674.9741,537.1223,1674.7745,547.0523,1675.6047,556.9824,1674.3101,566.9125,1674.7276,576.8426,1675.4078,586.7727,1675.036,596.7027,1674.4886,606.6328,1675.2129,616.5629,1674.6758,626.493,1675.7216,636.423,1674.3833,646.3531,1675,656.2832,1675,656.1481,1665.15,655.8181,1655.3,656.5133,1645.45,656.2923,1635.6,656.3874,1625.75,655.619,1615.9,656.0924,1606.05,656.1102,1596.2,656.4616,1586.35,656.4497,1576.5,656.9196,1566.65,656.4025,1556.8,656.6658,1546.95,655.6616,1537.1,655.9469,1527.25,656.7267,1517.4,655.9855,1507.55,655.9943,1497.7,656.5416,1487.85,655.9325,1478,656.2832,1477.5126,656.2832,1478.3685,646.3531,1477.2904,636.423,1477.2957,626.493,1477.8901,616.5629,1478.2938,606.6328,1477.3327,596.7027,1478.3621,586.7727,1477.8399,576.8426,1478.2359,566.9125,1477.7476,556.9824,1477.9092,547.0523,1478.3197,537.1223,1478.4992,527.1922,1478.605,517.2621,1478,507.332" style="stroke: #A80036; stroke-width: 1.5;"/><polygon fill="#ADD1B2" points="1513.3087,528.9621,1512.4739,531.7494,1510.0916,534.763,1508.3709,535.9787,1505.1736,536.8465,1503.0142,536.8092,1499.3782,537.2756,1495.8422,535.9693,1494.8402,533.5153,1493.4203,531.8109,1491.9547,528.9465,1491.8577,526.0774,1491.7925,522.4447,1493.4441,520.6974,1495.5435,517.9219,1498.6087,515.707,1502.3179,515.368,1504.2567,516.072,1506.2537,516.5784,1508.7308,517.6999,1510.0541,519.2699,1511.8756,520.3443,1512.7536,522.45,1513.6289,525.633,1512.809,528.7022" style="stroke: #A80036; stroke-width: 1.0;"/><path d="M1504.9231,532.6079 Q1504.3421,532.9067 1503.7029,533.0562 Q1503.0638,533.2056 1502.3582,533.2056 Q1499.8514,533.2056 1498.5315,531.5537 Q1497.2117,529.9019 1497.2117,526.7808 Q1497.2117,523.6514 1498.5315,521.9995 Q1499.8514,520.3477 1502.3582,520.3477 Q1503.0638,520.3477 1503.7112,520.4971 Q1504.3587,520.6465 1504.9231,520.9453 L1504.9231,523.668 Q1504.2923,523.0869 1503.6988,522.8171 Q1503.1053,522.5474 1502.4744,522.5474 Q1501.1297,522.5474 1500.4449,523.614 Q1499.7601,524.6807 1499.7601,526.7808 Q1499.7601,528.8726 1500.4449,529.9392 Q1501.1297,531.0059 1502.4744,531.0059 Q1503.1053,531.0059 1503.6988,530.7361 Q1504.2923,530.4663 1504.9231,529.8853 Z "/><text fill="#000000" font-family="sans-serif" font-size="12" font-style="italic" lengthAdjust="spacingAndGlyphs" textLength="148" x="1516.55" y="523.9336">«拣货容器里的商品和数量.»</text><text fill="#000000" font-family="sans-serif" font-size="12" lengthAdjust="spacingAndGlyphs" textLength="80" x="1550.55" y="538.0664">ContainerItem</text><path d="M1479,545.5977 L1479,545.5422 L1488.75,545.1936 L1498.5,546.2134 L1508.25,544.6455 L1518,545.7793 L1527.75,545.3946 L1537.5,546.2055 L1547.25,544.6188 L1557,544.7357 L1566.75,544.862 L1576.5,545.2078 L1586.25,545.1014 L1596,544.6626 L1605.75,545.6509 L1615.5,546.2287 L1625.25,546.1324 L1635,546.3258 L1644.75,545.3617 L1654.5,545.4967 L1664.25,545.6373 L1674,545.5977 " fill="#FEFECE" style="stroke: #A80036; stroke-width: 1.5;"/><text fill="#000000" font-family="sans-serif" font-size="11" lengthAdjust="spacingAndGlyphs" textLength="91" x="1484" y="577.1875">OrderLineNo Sku</text><path d="M1479,560.0752 L1479,559.2357 L1489.1429,559.323 L1499.2857,561.064 L1509.4286,560.7474 L1519.5714,561.0396 L1529.7143,559.2071 L1539.8571,561.0348 L1550,560.0752 " fill="#FEFECE" style="stroke: #A80036; stroke-width: 1.5;"/><text fill="#000000" font-family="sans-serif" font-size="11" lengthAdjust="spacingAndGlyphs" textLength="53" x="1550" y="563.7324">Structural</text><path d="M1603,560.0752 L1603,559.8191 L1613.1429,560.6219 L1623.2857,560.4645 L1633.4286,559.3053 L1643.5714,560.0344 L1653.7143,559.1591 L1663.8571,559.3453 L1674,560.0752 " fill="#FEFECE" style="stroke: #A80036; stroke-width: 1.5;"/><text fill="#000000" font-family="sans-serif" font-size="11" lengthAdjust="spacingAndGlyphs" textLength="185" x="1484" y="607.0977">expectedQty givenQty pendingQty</text><path d="M1479,589.9854 L1479,589.5359 L1489.6429,589.7173 L1500.2857,590.3619 L1510.9286,589.4248 L1521.5714,589.9939 L1532.2143,589.3434 L1542.8571,590.0282 L1553.5,589.9854 " fill="#FEFECE" style="stroke: #A80036; stroke-width: 1.5;"/><text fill="#000000" font-family="sans-serif" font-size="11" lengthAdjust="spacingAndGlyphs" textLength="46" x="1553.5" y="593.6426">Quantity</text><path d="M1599.5,589.9854 L1599.5,590.1225 L1610.1429,589.5064 L1620.7857,589.2404 L1631.4286,590.7236 L1642.0714,590.5598 L1652.7143,589.6992 L1663.3571,590.8376 L1674,589.9854 " fill="#FEFECE" style="stroke: #A80036; stroke-width: 1.5;"/><text fill="#000000" font-family="sans-serif" font-size="11" lengthAdjust="spacingAndGlyphs" textLength="172" x="1484" y="637.0078">diffQty() 复核作业发现的差异数量.</text><text fill="#000000" font-family="sans-serif" font-size="11" lengthAdjust="spacingAndGlyphs" textLength="35" x="1484" y="649.9629">done()</text><path d="M1479,619.8955 L1479,620.1489 L1488.6111,619.5223 L1498.2222,620.3758 L1507.8333,619.4201 L1517.4444,619.3492 L1527.0556,620.0584 L1536.6667,619.7307 L1546.2778,620.1083 L1555.8889,618.9623 L1565.5,619.8955 " fill="#FEFECE" style="stroke: #A80036; stroke-width: 1.5;"/><text fill="#000000" font-family="sans-serif" font-size="11" lengthAdjust="spacingAndGlyphs" textLength="22" x="1565.5" y="623.5527">规则</text><path d="M1587.5,619.8955 L1587.5,618.9586 L1597.1111,619.8422 L1606.7222,619.9536 L1616.3333,620.2026 L1625.9444,619.0329 L1635.5556,619.3211 L1645.1667,620.3956 L1654.7778,620.1418 L1664.3889,619.6396 L1674,619.8955 " fill="#FEFECE" style="stroke: #A80036; stroke-width: 1.5;"/><!--class ContainerItemBag--><polygon fill="#FEFECE" filter="url(#f96ieh8)" points="1112.5,530.332,1112.5,529.653,1122.4,530.2207,1132.3,530.8548,1142.2,531.037,1152.1,530.7327,1162,530.5999,1171.9,529.7101,1181.8,529.9266,1191.7,530.1174,1201.6,529.7187,1211.5,530.4845,1221.4,530.1236,1231.3,530.3117,1241.2,530.8185,1251.1,529.5915,1261,529.8943,1270.9,529.9569,1280.8,529.842,1290.7,529.6272,1300.6,531.0649,1310.5,530.332,1310.7141,530.332,1310.8742,540.5843,1310.9729,550.8366,1310.1253,561.089,1310.72,571.3413,1309.8543,581.5936,1309.7726,591.8459,1310.7153,602.0982,1310.7138,612.3505,1309.9657,622.6028,1310.8157,632.8551,1310.5,643.1074,1310.5,642.5835,1300.6,642.6454,1290.7,643.3887,1280.8,643.6083,1270.9,642.6281,1261,642.3796,1251.1,643.596,1241.2,643.0087,1231.3,642.984,1221.4,642.7303,1211.5,643.3053,1201.6,643.459,1191.7,643.1426,1181.8,643.5566,1171.9,643.1474,1162,643.1372,1152.1,643.4008,1142.2,643.5425,1132.3,643.0585,1122.4,643.7771,1112.5,643.1074,1112.8718,643.1074,1112.908,632.8551,1113.2266,622.6028,1112.3213,612.3505,1112.8232,602.0982,1112.5041,591.8459,1112.4429,581.5936,1112.318,571.3413,1111.8676,561.089,1112.7807,550.8366,1112.6852,540.5843,1112.5,530.332" style="stroke: #A80036; stroke-width: 1.5;"/><polygon fill="#9197DB" points="1167.32,549.4379,1165.2584,552.2531,1164.6473,554.2002,1161.9859,555.456,1159.9218,557.2919,1156.0633,557.5899,1153.4957,556.7396,1150.3755,554.8968,1147.6426,553.5497,1146.8411,549.7204,1146.1737,547.3023,1146.1426,544.1646,1147.3172,541.9177,1148.5137,539.9016,1149.4935,538.1107,1152.7229,536.7496,1155.9447,535.7065,1159.2932,535.9379,1161.5168,535.8151,1163.4712,537.1003,1164.9397,539.6928,1166.4562,542.7081,1167.4256,545.2501,1168.1914,548.5048" style="stroke: #A80036; stroke-width: 1.0;"/><path d="M1155.1533,547.7041 L1155.1533,551.373 L1156.7803,551.373 Q1157.9507,551.373 1158.4197,550.9746 Q1158.8887,550.5762 1158.8887,549.5884 Q1158.8887,548.584 1158.3989,548.144 Q1157.9092,547.7041 1156.7803,547.7041 Z M1155.1533,542.873 L1155.1533,545.7534 L1156.7803,545.7534 Q1157.71,545.7534 1158.1042,545.4214 Q1158.4985,545.0894 1158.4985,544.3257 Q1158.4985,543.562 1158.0959,543.2175 Q1157.6934,542.873 1156.7803,542.873 Z M1152.7876,540.9224 L1156.7803,540.9224 Q1158.8472,540.9224 1159.8889,541.7068 Q1160.9307,542.4912 1160.9307,544.0518 Q1160.9307,545.2471 1160.3164,545.9194 Q1159.7021,546.5918 1158.5151,546.6997 Q1159.9346,546.8408 1160.6526,547.6543 Q1161.3706,548.4678 1161.3706,549.9287 Q1161.3706,551.7217 1160.2915,552.5269 Q1159.2124,553.332 1156.7803,553.332 L1152.7876,553.332 Z "/><text fill="#000000" font-family="sans-serif" font-size="12" lengthAdjust="spacingAndGlyphs" textLength="101" x="1177.25" y="550.8672">ContainerItemBag</text><path d="M1113.5,562.332 L1113.5,563.2324 L1123.3,562.4013 L1133.1,563.1313 L1142.9,563.1249 L1152.7,562.352 L1162.5,561.9762 L1172.3,562.8297 L1182.1,562.8601 L1191.9,562.6504 L1201.7,561.6773 L1211.5,562.0326 L1221.3,562.2371 L1231.1,562.4522 L1240.9,562.0989 L1250.7,561.8398 L1260.5,562.8356 L1270.3,563.0874 L1280.1,563.0938 L1289.9,562.4581 L1299.7,561.6794 L1309.5,562.332 " fill="#FEFECE" style="stroke: #A80036; stroke-width: 1.5;"/><text fill="#000000" font-family="sans-serif" font-size="11" lengthAdjust="spacingAndGlyphs" textLength="186" x="1118.5" y="593.9219">totalSku() 该容器的总商品种类(品数).</text><text fill="#000000" font-family="sans-serif" font-size="11" lengthAdjust="spacingAndGlyphs" textLength="134" x="1118.5" y="606.877">totalQty() 该容器的总货量.</text><path d="M1113.5,576.8096 L1113.5,577.7065 L1123.1667,576.7205 L1132.8333,577.0916 L1142.5,576.9664 L1152.1667,577.4684 L1161.8333,577.6132 L1171.5,577.6853 L1181.1667,577.5419 L1190.8333,576.9948 L1200.5,576.8096 " fill="#FEFECE" style="stroke: #A80036; stroke-width: 1.5;"/><text fill="#000000" font-family="sans-serif" font-size="11" lengthAdjust="spacingAndGlyphs" textLength="22" x="1200.5" y="580.4668">规则</text><path d="M1222.5,576.8096 L1222.5,577.0776 L1232.1667,577.385 L1241.8333,577.5324 L1251.5,575.941 L1261.1667,576.8419 L1270.8333,576.7483 L1280.5,577.1568 L1290.1667,575.8565 L1299.8333,576.8871 L1309.5,576.8096 " fill="#FEFECE" style="stroke: #A80036; stroke-width: 1.5;"/><text fill="#000000" font-family="sans-serif" font-size="11" lengthAdjust="spacingAndGlyphs" textLength="157" x="1118.5" y="636.7871">allocatedQty() Yes, not public</text><path d="M1113.5,619.6748 L1113.5,620.152 L1123.1667,619.0566 L1132.8333,619.8876 L1142.5,619.8324 L1152.1667,619.5144 L1161.8333,620.5862 L1171.5,619.6445 L1181.1667,620.2951 L1190.8333,619.6687 L1200.5,619.6748 " fill="#FEFECE" style="stroke: #A80036; stroke-width: 1.5;"/><text fill="#000000" font-family="sans-serif" font-size="11" lengthAdjust="spacingAndGlyphs" textLength="22" x="1200.5" y="623.332">行为</text><path d="M1222.5,619.6748 L1222.5,619.6454 L1232.1667,620.6687 L1241.8333,619.424 L1251.5,619.6 L1261.1667,618.9284 L1270.8333,619.0072 L1280.5,620.056 L1290.1667,619.6182 L1299.8333,620.2525 L1309.5,619.6748 " fill="#FEFECE" style="stroke: #A80036; stroke-width: 1.5;"/><!--class Task--><polygon fill="#FEFECE" filter="url(#f96ieh8)" points="125,506.332,125,505.8126,135.3333,505.9711,145.6667,505.7381,156,506.1178,166.3333,506.0546,176.6667,505.6258,187,505.9784,197.3333,506.0158,207.6667,506.5077,218,506.332,217.7019,506.332,218.6647,516.2677,218.4325,526.2033,218.3366,536.1389,218.4499,546.0745,217.5913,556.0101,217.3719,565.9458,218.1279,575.8814,218.5791,585.817,217.3645,595.7526,218.2486,605.6883,218.5132,615.6239,218.7109,625.5595,218.7233,635.4951,218.685,645.4307,218.5213,655.3664,217.2544,665.302,218.3117,675.2376,218.0605,685.1732,217.9961,695.1088,217.7516,705.0445,218.4834,714.9801,217.6151,724.9157,217.9865,734.8513,218.2612,744.787,218.4082,754.7226,218,764.6582,218,764.5717,207.6667,765.3955,197.3333,764.7706,187,764.9506,176.6667,764.6221,166.3333,765.4069,156,765.0245,145.6667,764.1021,135.3333,764.9251,125,764.6582,124.3219,764.6582,125.4061,754.7226,124.5311,744.787,124.8809,734.8513,124.4227,724.9157,125.7403,714.9801,125.2086,705.0445,125.2306,695.1088,125.5527,685.1732,124.3446,675.2376,125.3067,665.302,125.353,655.3664,125.1348,645.4307,124.6856,635.4951,124.5134,625.5595,125.5676,615.6239,124.6871,605.6883,124.4682,595.7526,125.4066,585.817,124.6855,575.8814,125.2801,565.9458,124.6211,556.0101,124.8327,546.0745,124.3196,536.1389,125.4471,526.2033,125.5906,516.2677,125,506.332" style="stroke: #A80036; stroke-width: 1.5;"/><polygon fill="#FF7700" points="164.72,525.6496,163.4205,529.0146,161.5729,530.414,160.2572,532.34,156.8214,533.5961,153.6543,533.6185,150.8503,531.9062,148.3913,532.0032,146.3398,529.8103,145.6487,527.7347,144.135,526.2977,144.3756,523.7876,143.6417,520.7045,144.7944,518.1381,145.837,514.9718,147.9113,513.2177,150.3978,512.2475,152.8195,511.6684,155.4343,511.8489,157.7481,511.8981,160.5848,512.5649,162.9061,514.7827,164.3014,516.5982,166.0689,519.9499,165.5634,522.3609" style="stroke: #A80036; stroke-width: 1.0;"/><path d="M155.5487,522.98 Q155.914,523.0547 156.1837,523.3245 Q156.4535,523.5942 156.8437,524.3745 L159.0849,528.832 L156.3954,528.832 L154.9013,525.7026 Q154.8349,525.5698 154.727,525.3374 Q154.0712,523.9346 153.183,523.9346 L152.4027,523.9346 L152.4027,528.832 L149.954,528.832 L149.954,516.439 L153.4901,516.439 Q155.8808,516.439 156.9225,517.2856 Q157.9643,518.1323 157.9643,520.0415 Q157.9643,521.3198 157.3417,522.0752 Q156.7191,522.8306 155.5487,522.98 Z M152.4027,518.4976 L152.4027,521.876 L153.5565,521.876 Q154.5609,521.876 154.9967,521.4817 Q155.4325,521.0874 155.4325,520.1826 Q155.4325,519.2778 155.0009,518.8877 Q154.5692,518.4976 153.5565,518.4976 Z "/><text fill="#000000" font-family="sans-serif" font-size="12" lengthAdjust="spacingAndGlyphs" textLength="28" x="172.15" y="526.8672">Task</text><path d="M126,538.332 L126,538.288 L136.1111,538.9479 L146.2222,538.2389 L156.3333,539.2272 L166.4444,537.63 L176.5556,538.094 L186.6667,539.0578 L196.7778,537.8985 L206.8889,538.9405 L217,538.332 " fill="#FEFECE" style="stroke: #A80036; stroke-width: 1.5;"/><text fill="#000000" font-family="sans-serif" font-size="11" lengthAdjust="spacingAndGlyphs" textLength="33" x="131" y="569.9219">status</text><path d="M126,552.8096 L126,552.9207 L130.5,552.6966 L135,553.1412 L139.5,553.0225 L144,552.8278 L148.5,552.8096 " fill="#FEFECE" style="stroke: #A80036; stroke-width: 1.5;"/><text fill="#000000" font-family="sans-serif" font-size="11" lengthAdjust="spacingAndGlyphs" textLength="46" x="148.5" y="556.4668">Lifecycle</text><path d="M194.5,552.8096 L194.5,553.0478 L199,552.5151 L203.5,552.5721 L208,552.7217 L212.5,552.5916 L217,552.8096 " fill="#FEFECE" style="stroke: #A80036; stroke-width: 1.5;"/><text fill="#000000" font-family="sans-serif" font-size="11" lengthAdjust="spacingAndGlyphs" textLength="40" x="131" y="599.832">priority</text><path d="M126,582.7197 L126,583.0515 L128.8,582.4751 L131.6,582.6649 L134.4,582.7275 L137.2,582.4849 L140,582.7197 " fill="#FEFECE" style="stroke: #A80036; stroke-width: 1.5;"/><text fill="#000000" font-family="sans-serif" font-size="11" lengthAdjust="spacingAndGlyphs" textLength="63" x="140" y="586.377">Operational</text><path d="M203,582.7197 L203,582.6199 L205.8,582.8981 L208.6,582.623 L211.4,582.7699 L214.2,582.9713 L217,582.7197 " fill="#FEFECE" style="stroke: #A80036; stroke-width: 1.5;"/><text fill="#000000" font-family="sans-serif" font-size="11" lengthAdjust="spacingAndGlyphs" textLength="37" x="131" y="629.7422">taskNo</text><path d="M126,612.6299 L126,612.4306 L132.7,612.9526 L139.4,612.7008 L146.1,612.3881 L152.8,612.7171 L159.5,612.6299 " fill="#FEFECE" style="stroke: #A80036; stroke-width: 1.5;"/><text fill="#000000" font-family="sans-serif" font-size="11" lengthAdjust="spacingAndGlyphs" textLength="24" x="159.5" y="616.2871">DCU</text><path d="M183.5,612.6299 L183.5,612.7921 L190.2,612.7133 L196.9,612.7351 L203.6,612.6181 L210.3,612.6061 L217,612.6299 " fill="#FEFECE" style="stroke: #A80036; stroke-width: 1.5;"/><text fill="#000000" font-family="sans-serif" font-size="11" lengthAdjust="spacingAndGlyphs" textLength="61" x="131" y="659.6523">platformNo</text><path d="M126,642.54 L126,642.7504 L130.5,642.6097 L135,642.6041 L139.5,642.5403 L144,642.7053 L148.5,642.54 " fill="#FEFECE" style="stroke: #A80036; stroke-width: 1.5;"/><text fill="#000000" font-family="sans-serif" font-size="11" lengthAdjust="spacingAndGlyphs" textLength="46" x="148.5" y="646.1973">Location</text><path d="M194.5,642.54 L194.5,642.3908 L199,642.3195 L203.5,642.4069 L208,642.2971 L212.5,642.2685 L217,642.54 " fill="#FEFECE" style="stroke: #A80036; stroke-width: 1.5;"/><text fill="#000000" font-family="sans-serif" font-size="11" lengthAdjust="spacingAndGlyphs" textLength="51" x="131" y="689.5625">totalSku()</text><text fill="#000000" font-family="sans-serif" font-size="11" lengthAdjust="spacingAndGlyphs" textLength="51" x="131" y="702.5176">totalQty()</text><text fill="#000000" font-family="sans-serif" font-size="11" lengthAdjust="spacingAndGlyphs" textLength="81" x="131" y="715.4727">pendingItems()</text><path d="M126,672.4502 L126,672.7368 L132.9,672.3793 L139.8,672.6169 L146.7,672.7209 L153.6,672.2037 L160.5,672.4502 " fill="#FEFECE" style="stroke: #A80036; stroke-width: 1.5;"/><text fill="#000000" font-family="sans-serif" font-size="11" lengthAdjust="spacingAndGlyphs" textLength="22" x="160.5" y="676.1074">规则</text><path d="M182.5,672.4502 L182.5,672.1639 L189.4,672.3528 L196.3,672.6113 L203.2,672.1474 L210.1,672.7341 L217,672.4502 " fill="#FEFECE" style="stroke: #A80036; stroke-width: 1.5;"/><text fill="#000000" font-family="sans-serif" font-size="11" lengthAdjust="spacingAndGlyphs" textLength="32" x="131" y="745.3828">bind()</text><text fill="#000000" font-family="sans-serif" font-size="11" font-style="italic" lengthAdjust="spacingAndGlyphs" textLength="69" x="131" y="758.3379">confirmQty()</text><path d="M126,728.2705 L126,728.3413 L132.9,728.1458 L139.8,728.2727 L146.7,728.4597 L153.6,728.0715 L160.5,728.2705 " fill="#FEFECE" style="stroke: #A80036; stroke-width: 1.5;"/><text fill="#000000" font-family="sans-serif" font-size="11" lengthAdjust="spacingAndGlyphs" textLength="22" x="160.5" y="731.9277">行为</text><path d="M182.5,728.2705 L182.5,728.5172 L189.4,728.2705 L196.3,728.1631 L203.2,727.9637 L210.1,728.0119 L217,728.2705 " fill="#FEFECE" style="stroke: #A80036; stroke-width: 1.5;"/><!--class ManualCheckAppService--><polygon fill="#FEFECE" filter="url(#f96ieh8)" points="54.5,110.832,54.5,110.4475,64.6304,110.2942,74.7609,111.5374,84.8913,110.1565,95.0217,111.473,105.1522,110.5391,115.2826,111.0118,125.413,111.3021,135.5435,110.4601,145.6739,110.9004,155.8043,110.0898,165.9348,110.8225,176.0652,110.2834,186.1957,111.3694,196.3261,110.1281,206.4565,110.3029,216.587,110.3418,226.7174,110.5097,236.8478,110.9827,246.9783,110.2798,257.1087,110.5502,267.2391,111.408,277.3696,111.4523,287.5,110.832,288.1274,110.832,287.8055,120.4837,286.8787,130.1354,287.6126,139.7871,287.4881,149.4388,286.8809,159.0905,287.0685,168.7422,287.4006,178.3939,287.3245,188.0456,287.5,197.6973,287.5,198.4461,277.3696,198.3813,267.2391,197.7839,257.1087,197.338,246.9783,198.2536,236.8478,197.1505,226.7174,197.6624,216.587,198.2934,206.4565,197.7298,196.3261,196.9659,186.1957,198.0816,176.0652,197.1583,165.9348,198.0349,155.8043,198.2999,145.6739,197.1322,135.5435,197.4433,125.413,197.5699,115.2826,198.0267,105.1522,198.0564,95.0217,197.5223,84.8913,198.011,74.7609,197.6908,64.6304,198.1583,54.5,197.6973,54.4864,197.6973,54.1262,188.0456,54.8393,178.3939,54.5144,168.7422,53.9105,159.0905,54.3814,149.4388,54.8964,139.7871,54.2145,130.1354,54.5888,120.4837,54.5,110.832" style="stroke: #A80036; stroke-width: 1.5;"/><polygon fill="#ADD1B2" points="108.0409,129.3286,107.2913,131.3859,104.9517,133.9819,103.1229,136.3034,100.6854,137.0761,96.9895,137.1476,93.5478,137.4193,90.7367,136.0926,88.5993,134.1298,86.8771,131.6364,85.6392,128.5293,86.1992,125.0313,87.3781,122.7884,88.5601,119.3169,90.7661,117.7526,94.3377,116.6675,97.5159,115.7938,100.5189,116.752,102.7846,116.9024,104.7309,118.7602,105.8436,121.2924,107.7957,123.6292,108.097,126.7563,107.6931,129.1186" style="stroke: #A80036; stroke-width: 1.0;"/><path d="M99.4231,132.9751 Q98.8421,133.2739 98.2029,133.4233 Q97.5638,133.5728 96.8582,133.5728 Q94.3514,133.5728 93.0315,131.9209 Q91.7117,130.269 91.7117,127.1479 Q91.7117,124.0186 93.0315,122.3667 Q94.3514,120.7148 96.8582,120.7148 Q97.5638,120.7148 98.2112,120.8643 Q98.8587,121.0137 99.4231,121.3125 L99.4231,124.0352 Q98.7923,123.4541 98.1988,123.1843 Q97.6053,122.9146 96.9744,122.9146 Q95.6297,122.9146 94.9449,123.9812 Q94.2601,125.0479 94.2601,127.1479 Q94.2601,129.2397 94.9449,130.3064 Q95.6297,131.373 96.9744,131.373 Q97.6053,131.373 98.1988,131.1033 Q98.7923,130.8335 99.4231,130.2524 Z "/><text fill="#000000" font-family="sans-serif" font-size="12" lengthAdjust="spacingAndGlyphs" textLength="140" x="117.05" y="131.3672">ManualCheckAppService</text><path d="M55.5,142.832 L55.5,143.6753 L65.5435,143.3655 L75.587,143.014 L85.6304,142.952 L95.6739,143.079 L105.7174,142.8654 L115.7609,143.7959 L125.8043,143.1936 L135.8478,142.8791 L145.8913,143.0209 L155.9348,142.1208 L165.9783,142.0941 L176.0217,142.4823 L186.0652,142.8704 L196.1087,141.9915 L206.1522,142.518 L216.1957,142.2565 L226.2391,143.7513 L236.2826,143.1229 L246.3261,142.1232 L256.3696,143.0846 L266.413,143.5672 L276.4565,141.9468 L286.5,142.832 " fill="#FEFECE" style="stroke: #A80036; stroke-width: 1.5;"/><path d="M55.5,150.832 L55.5,150.3196 L65.5435,149.8347 L75.587,150.8098 L85.6304,151.8225 L95.6739,150.35 L105.7174,151.5577 L115.7609,150.3769 L125.8043,151.5947 L135.8478,151.2036 L145.8913,151.4984 L155.9348,151.5533 L165.9783,150.8941 L176.0217,150.12 L186.0652,151.7276 L196.1087,151.7862 L206.1522,150.2551 L216.1957,150.4228 L226.2391,150.3529 L236.2826,150.0858 L246.3261,150.2536 L256.3696,151.3408 L266.413,149.8595 L276.4565,151.0231 L286.5,150.832 " fill="#FEFECE" style="stroke: #A80036; stroke-width: 1.5;"/><text fill="#000000" font-family="sans-serif" font-size="11" lengthAdjust="spacingAndGlyphs" textLength="221" x="60.5" y="165.4668">platformNo recommendPlatform(taskNo )</text><text fill="#000000" font-family="sans-serif" font-size="11" lengthAdjust="spacingAndGlyphs" textLength="130" x="60.5" y="178.4219">claimTask(containerNo )</text><text fill="#000000" font-family="sans-serif" font-size="11" lengthAdjust="spacingAndGlyphs" textLength="214" x="60.5" y="191.377">confirmQty(orderNo,qty,skuNo,taskNo )</text><path d="M1258.02,311.332 L1258.02,310.9246 L1268.1269,310.8349 L1278.2338,311.6627 L1288.3408,310.8706 L1298.4477,312.2191 L1308.5546,310.7409 L1318.6615,311.9184 L1328.7685,310.9467 L1338.8754,312.1961 L1348.9823,311.773 L1359.0892,311.043 L1369.1962,311.6765 L1379.3031,312.0161 L1389.41,312.1015 L1399.5169,312.237 L1409.6238,312.2672 L1419.7308,310.6147 L1429.8377,312.3249 L1439.9446,311.5845 L1450.0515,312.2267 L1460.1585,312.1842 L1470.2654,310.7049 L1480.3723,311.0181 L1490.4792,311.2146 L1500.5862,312.2727 L1510.6931,311.5101 L1520.8,311.332 " fill="none" style="stroke: #A80036; stroke-width: 1.0;"/><polygon fill="#A80036" points="1244.67,311.332,1244.7061,311.3862,1245.8124,312.0456,1247.0847,312.9541,1248.3959,313.9208,1249.577,314.6926,1250.67,315.332,1250.5924,315.2157,1251.8864,314.5567,1253.0031,313.6317,1254.3096,312.9915,1255.4193,312.0561,1256.67,311.332,1256.6986,311.375,1255.4803,310.5475,1254.2848,309.7543,1252.9677,308.7787,1251.8387,308.0851,1250.67,307.332,1250.7374,307.4332,1249.349,307.9505,1248.1384,308.7347,1246.9861,309.6061,1245.7501,310.3521,1244.67,311.332" style="stroke: #A80036; stroke-width: 1.0;"/><text fill="#000000" font-family="sans-serif" font-size="13" lengthAdjust="spacingAndGlyphs" textLength="49" x="1369.5" y="307.9004">HasOne</text><text fill="#000000" font-family="sans-serif" font-size="13" lengthAdjust="spacingAndGlyphs" textLength="8" x="1252.3489" y="328.0392">1</text><text fill="#000000" font-family="sans-serif" font-size="13" lengthAdjust="spacingAndGlyphs" textLength="8" x="1504.845" y="324.9291">1</text><path d="M1644.22,311.332 L1644.22,311.6596 L1654.248,311.7205 L1664.276,311.0197 L1674.304,311.6746 L1684.332,310.8229 L1694.36,311.0831 L1704.388,311.2794 L1714.416,310.9754 L1724.444,311.2364 L1734.472,311.2083 L1744.5,310.3953 L1754.528,312.1561 L1764.556,312.3055 L1774.584,311.5634 L1784.612,311.7361 L1794.64,310.9376 L1804.668,311.6022 L1814.696,310.8021 L1824.724,311.2285 L1834.752,311.0375 L1844.78,311.332 " fill="none" style="stroke: #A80036; stroke-width: 1.0;"/><polygon fill="#A80036" points="1631.07,311.332,1631.0098,311.2417,1632.22,312.057,1633.5426,313.0409,1634.6434,313.6921,1635.8508,314.5032,1637.07,315.332,1637.0586,315.3149,1638.396,314.721,1639.5681,313.8792,1640.7172,313.0029,1641.9555,312.2603,1643.07,311.332,1643.1424,311.4407,1641.9471,310.6476,1640.601,309.6285,1639.4781,308.9441,1638.1805,307.9977,1637.07,307.332,1637.1743,307.4884,1635.803,308.0315,1634.64,308.887,1633.4219,309.6599,1632.2097,310.4416,1631.07,311.332" style="stroke: #A80036; stroke-width: 1.0;"/><text fill="#000000" font-family="sans-serif" font-size="13" lengthAdjust="spacingAndGlyphs" textLength="57" x="1732" y="307.9004">HasMany</text><text fill="#000000" font-family="sans-serif" font-size="13" lengthAdjust="spacingAndGlyphs" textLength="8" x="1638.7102" y="326.2448">1</text><text fill="#000000" font-family="sans-serif" font-size="13" lengthAdjust="spacingAndGlyphs" textLength="10" x="1827.0188" y="324.5455">N</text><path d="M1675.01,507.552 L1674.4439,506.8077 L1682.4694,500.9891 L1690.4876,495.1607 L1698.0992,488.7978 L1706.3015,483.2116 L1714.5881,477.7361 L1722.7461,472.0915 L1729.7727,464.9595 L1738.6156,460.2155 L1745.7348,453.2053 L1753.9661,447.6571 L1761.7943,441.579 L1770.0141,436.0157 L1777.4763,429.4563 L1785.6017,423.769 L1792.8172,416.8853 L1801.5058,411.9384 L1809.3661,405.9026 L1817.4241,400.1265 L1824.6135,393.2086 L1832.77,387.562 " fill="none" style="stroke: #A80036; stroke-width: 1.0;"/><polygon fill="none" points="1828.63,381.922,1828.6656,382.0316,1832.5904,380.3935,1836.7667,379.53,1840.7829,378.1735,1844.7692,376.7246,1848.79,375.382,1848.8822,375.443,1846.4202,378.897,1844.0141,382.388,1841.8492,386.0385,1839.509,389.573,1837.1,393.062,1837.0091,392.9929,1835.2726,390.7326,1833.6099,388.5284,1831.8755,386.2697,1830.4142,384.2186,1828.63,381.922" style="stroke: #A80036; stroke-width: 1.0;"/><text fill="#000000" font-family="sans-serif" font-size="13" lengthAdjust="spacingAndGlyphs" textLength="58" x="1731.5" y="418.9004">BelongTo</text><path d="M1324.16,584.792 L1324.1486,583.9601 L1334.4166,585.3277 L1344.6619,585.0364 L1354.913,585.1735 L1365.1411,583.6272 L1375.3984,584.2126 L1385.6571,584.9018 L1395.8943,584.0237 L1406.1286,582.9363 L1416.3755,582.7615 L1426.6244,582.7355 L1436.8822,583.3574 L1447.1411,584.06 L1457.3819,583.4439 L1467.6159,582.329 L1477.87,582.682 " fill="none" style="stroke: #A80036; stroke-width: 1.0;"/><polygon fill="#A80036" points="1310.87,584.982,1310.7408,584.7821,1312.1585,585.8842,1313.277,586.5235,1314.4562,587.2566,1315.8491,588.3203,1316.9265,588.8959,1316.9702,588.9594,1318.0275,587.9516,1319.375,587.366,1320.6108,586.6178,1321.6109,585.5267,1322.8688,584.8106,1322.874,584.8187,1321.6829,584.0673,1320.489,583.3113,1319.2191,582.4379,1318.0738,581.7573,1316.8123,580.8967,1316.9257,581.0618,1315.6724,581.7845,1314.3987,582.4776,1313.339,583.4819,1311.9776,584.0474,1310.87,584.982" style="stroke: #A80036; stroke-width: 1.0;"/><text fill="#000000" font-family="sans-serif" font-size="13" lengthAdjust="spacingAndGlyphs" textLength="57" x="1365.5" y="580.9004">HasMany</text><text fill="#000000" font-family="sans-serif" font-size="13" lengthAdjust="spacingAndGlyphs" textLength="8" x="1318.6657" y="598.5305">1</text><text fill="#000000" font-family="sans-serif" font-size="13" lengthAdjust="spacingAndGlyphs" textLength="10" x="1459.9358" y="595.9034">N</text><path d="M967.04,592.332 L967.0386,592.2735 L976.7154,591.5017 L986.4238,592.0096 L996.1283,592.3605 L1005.7867,590.8361 L1015.475,590.5278 L1025.1769,590.7739 L1034.8725,590.7637 L1044.5753,591.0441 L1054.2536,590.3308 L1063.9435,590.0855 L1073.6414,590.169 L1083.3387,590.2257 L1092.9997,588.8102 L1102.6768,588.0502 L1112.39,588.752 " fill="none" style="stroke: #A80036; stroke-width: 1.0;"/><polygon fill="#A80036" points="954.03,592.652,954.0244,592.6432,955.2396,593.4079,956.3968,594.0809,957.6132,594.8478,958.8131,595.5882,960.1249,596.5059,960.0577,596.4101,961.1947,595.5196,962.3828,594.702,963.6038,593.9311,964.7243,593.0172,966.0265,592.362,966.0878,592.459,964.7238,591.4588,963.4665,590.6274,962.259,589.8748,961.2252,589.397,959.9316,588.5082,959.945,588.5273,958.6841,589.2412,957.5323,590.1106,956.5141,591.1703,955.31,591.9652,954.03,592.652" style="stroke: #A80036; stroke-width: 1.0;"/><text fill="#000000" font-family="sans-serif" font-size="13" lengthAdjust="spacingAndGlyphs" textLength="49" x="1008.5" y="586.9004">HasOne</text><text fill="#000000" font-family="sans-serif" font-size="13" lengthAdjust="spacingAndGlyphs" textLength="8" x="962.0029" y="606.6664">1</text><text fill="#000000" font-family="sans-serif" font-size="13" lengthAdjust="spacingAndGlyphs" textLength="8" x="1096.4956" y="602.0621">1</text><path d="M231.15,631.142 L231.095,630.379 L241.0748,630.62 L250.9252,629.0661 L260.8548,628.6111 L270.8638,629.2574 L280.6553,626.8869 L290.5447,625.8732 L300.5821,626.9131 L310.399,624.8947 L320.3981,625.403 L330.2193,623.445 L340.2234,624.0232 L350.1302,623.251 L360.0613,622.8169 L369.913,621.2812 L379.8776,621.3109 L389.6605,618.8211 L399.6046,618.5673 L409.5779,618.7179 L419.4285,617.1663 L429.351,616.6125 L439.3203,616.7077 L449.19,615.422 " fill="none" style="stroke: #A80036; stroke-width: 1.0;"/><polygon fill="#A80036" points="218.17,632.072,218.1208,631.9852,219.3861,632.7146,220.6394,633.4227,221.8465,634.0494,223.0778,634.7187,224.4442,635.6265,224.4233,635.5996,225.6066,634.772,226.5747,633.6674,227.7757,632.8624,229.0358,632.1336,230.1384,631.2021,230.239,631.3796,228.9428,630.5957,227.6874,629.8838,226.4051,629.1245,225.236,628.5649,223.8642,627.6476,223.7571,627.5098,222.7247,628.5316,221.5235,629.3363,220.3395,630.163,219.3498,631.2398,218.17,632.072" style="stroke: #A80036; stroke-width: 1.0;"/><text fill="#000000" font-family="sans-serif" font-size="13" lengthAdjust="spacingAndGlyphs" textLength="49" x="345.5" y="616.9004">HasOne</text><text fill="#000000" font-family="sans-serif" font-size="13" lengthAdjust="spacingAndGlyphs" textLength="8" x="225.9046" y="646.201">1</text><text fill="#000000" font-family="sans-serif" font-size="13" lengthAdjust="spacingAndGlyphs" textLength="8" x="433.6032" y="629.0798">1</text><path d="M660.71,603.682 L660.7207,603.9383 L670.9758,603.0247 L681.2509,602.588 L691.5234,602.0883 L701.7966,601.6083 L712.0559,600.7936 L722.3631,601.124 L732.6153,600.1424 L742.8803,599.4643 L753.2269,600.735 L763.4694,599.5202 L773.7721,599.7414 L784.0013,598.2117 L794.3148,598.6913 L804.5598,597.5371 L814.84,597.222 " fill="none" style="stroke: #A80036; stroke-width: 1.0;"/><polygon fill="#A80036" points="647.6,604.222,647.5576,604.1523,648.8948,605.074,650.1416,605.847,651.2024,606.3142,652.5552,607.2615,653.7617,607.9682,653.8183,608.0459,654.994,607.2105,656.143,606.3383,657.2984,605.475,658.3172,604.4242,659.5896,603.7214,659.5473,603.6519,658.3495,602.9594,657.0437,602.0894,655.8845,601.4605,654.66,600.724,653.4279,599.9752,653.5113,600.0896,652.1878,600.7223,650.9568,601.4819,649.9793,602.5893,648.7777,603.3893,647.6,604.222" style="stroke: #A80036; stroke-width: 1.0;"/><text fill="#000000" font-family="sans-serif" font-size="13" lengthAdjust="spacingAndGlyphs" textLength="57" x="702.5" y="596.9004">HasMany</text><text fill="#000000" font-family="sans-serif" font-size="13" lengthAdjust="spacingAndGlyphs" textLength="8" x="655.3509" y="617.3925">1</text><text fill="#000000" font-family="sans-serif" font-size="13" lengthAdjust="spacingAndGlyphs" textLength="10" x="797.1407" y="610.8734">N</text><text fill="#888888" font-family="sans-serif" font-size="10" lengthAdjust="spacingAndGlyphs" textLength="108" x="994" y="836">generated by DDDplus</text></g></svg>