<?xml version="1.0" encoding="UTF-8" standalone="no"?><svg xmlns="http://www.w3.org/2000/svg" xmlns:xlink="http://www.w3.org/1999/xlink" contentScriptType="application/ecmascript" contentStyleType="text/css" height="2303px" preserveAspectRatio="none" style="width:4194px;height:2303px;" version="1.1" viewBox="0 0 4194 2303" width="4194px" zoomAndPan="magnify"><defs><filter height="300%" id="fvfng84" width="300%" x="-1" y="-1"><feGaussianBlur result="blurOut" stdDeviation="2.0"/><feColorMatrix in="blurOut" result="blurOut2" type="matrix" values="0 0 0 0 0 0 0 0 0 0 0 0 0 0 0 0 0 0 .4 0"/><feOffset dx="4.0" dy="4.0" in="blurOut2" result="blurOut3"/><feBlend in="SourceGraphic" in2="blurOut3" mode="normal"/></filter></defs><g><text fill="#888888" font-family="sans-serif" font-size="10" lengthAdjust="spacingAndGlyphs" textLength="182" x="4011" y="9.668">公共类：53，标注：30，覆盖率：56.6%</text><text fill="#888888" font-family="sans-serif" font-size="10" lengthAdjust="spacingAndGlyphs" textLength="192" x="4001" y="21.4453">公共方法：94，标注：39，覆盖率：41.5%</text><text fill="#888888" font-family="sans-serif" font-size="10" lengthAdjust="spacingAndGlyphs" textLength="198" x="3995" y="33.2227">字段属性：170，标注：45，覆盖率：26.5%</text><!--cluster 逆向业务模型--><polygon fill="#FFFFFF" filter="url(#fvfng84)" points="233,373.832,323,373.832,330,396.3203,4159,396.3203,4159,2212.832,233,2212.832,233,373.832" style="stroke: #000000; stroke-width: 2.0;"/><line style="stroke: #000000; stroke-width: 2.0;" x1="233" x2="330" y1="396.3203" y2="396.3203"/><text fill="#000000" font-family="sans-serif" font-size="14" font-weight="bold" lengthAdjust="spacingAndGlyphs" textLength="84" x="237" y="389.3672">逆向业务模型</text><!--cluster Aggregate：客户出库单--><polygon fill="#FFFFFF" filter="url(#fvfng84)" points="1410.5,1614.832,1573.5,1614.832,1580.5,1637.3203,3359,1637.3203,3359,1957.832,1410.5,1957.832,1410.5,1614.832" style="stroke: #000000; stroke-width: 2.0;"/><line style="stroke: #000000; stroke-width: 2.0;" x1="1410.5" x2="1580.5" y1="1637.3203" y2="1637.3203"/><text fill="#000000" font-family="sans-serif" font-size="14" font-weight="bold" lengthAdjust="spacingAndGlyphs" textLength="157" x="1414.5" y="1630.3672">Aggregate：客户出库单</text><text fill="#000000" font-family="sans-serif" font-size="14" font-style="italic" lengthAdjust="spacingAndGlyphs" textLength="277" x="2250.25" y="1652.8555">«ddd.plus.showcase.wms.domain.order»</text><!--cluster Aggregate：包裹--><polygon fill="#FFFFFF" filter="url(#fvfng84)" points="816,1114.832,937,1114.832,944,1137.3203,1103,1137.3203,1103,1357.832,816,1357.832,816,1114.832" style="stroke: #000000; stroke-width: 2.0;"/><line style="stroke: #000000; stroke-width: 2.0;" x1="816" x2="944" y1="1137.3203" y2="1137.3203"/><text fill="#000000" font-family="sans-serif" font-size="14" font-weight="bold" lengthAdjust="spacingAndGlyphs" textLength="115" x="820" y="1130.3672">Aggregate：包裹</text><text fill="#000000" font-family="sans-serif" font-size="14" font-style="italic" lengthAdjust="spacingAndGlyphs" textLength="271" x="828" y="1152.8555">«ddd.plus.showcase.wms.domain.pack»</text><!--cluster Aggregate：复核报差异--><polygon fill="#FFFFFF" filter="url(#fvfng84)" points="1488,1305.832,1651,1305.832,1658,1328.3203,2889,1328.3203,2889,1590.832,1488,1590.832,1488,1305.832" style="stroke: #000000; stroke-width: 2.0;"/><line style="stroke: #000000; stroke-width: 2.0;" x1="1488" x2="1658" y1="1328.3203" y2="1328.3203"/><text fill="#000000" font-family="sans-serif" font-size="14" font-weight="bold" lengthAdjust="spacingAndGlyphs" textLength="157" x="1492" y="1321.3672">Aggregate：复核报差异</text><text fill="#000000" font-family="sans-serif" font-size="14" font-style="italic" lengthAdjust="spacingAndGlyphs" textLength="262" x="2061.5" y="1343.8555">«ddd.plus.showcase.wms.domain.diff»</text><!--cluster Aggregate：装箱--><polygon fill="#FFFFFF" filter="url(#fvfng84)" points="1401.5,416.832,1522.5,416.832,1529.5,439.3203,2901.5,439.3203,2901.5,827.832,1401.5,827.832,1401.5,416.832" style="stroke: #000000; stroke-width: 2.0;"/><line style="stroke: #000000; stroke-width: 2.0;" x1="1401.5" x2="1529.5" y1="439.3203" y2="439.3203"/><text fill="#000000" font-family="sans-serif" font-size="14" font-weight="bold" lengthAdjust="spacingAndGlyphs" textLength="115" x="1405.5" y="432.3672">Aggregate：装箱</text><text fill="#000000" font-family="sans-serif" font-size="14" font-style="italic" lengthAdjust="spacingAndGlyphs" textLength="283" x="2014" y="454.8555">«ddd.plus.showcase.wms.domain.carton»</text><!--cluster Aggregate：通用子域--><polygon fill="#FFFFFF" filter="url(#fvfng84)" points="3073,638.832,3222,638.832,3229,661.3203,3388,661.3203,3388,811.832,3073,811.832,3073,638.832" style="stroke: #000000; stroke-width: 2.0;"/><line style="stroke: #000000; stroke-width: 2.0;" x1="3073" x2="3229" y1="661.3203" y2="661.3203"/><text fill="#000000" font-family="sans-serif" font-size="14" font-weight="bold" lengthAdjust="spacingAndGlyphs" textLength="143" x="3077" y="654.3672">Aggregate：通用子域</text><text fill="#000000" font-family="sans-serif" font-size="14" font-style="italic" lengthAdjust="spacingAndGlyphs" textLength="299" x="3085" y="676.8555">«ddd.plus.showcase.wms.domain.common»</text><!--cluster Aggregate：出库复核任务--><polygon fill="#FFFFFF" filter="url(#fvfng84)" points="1376,851.832,1553,851.832,1560,874.3203,4135,874.3203,4135,1281.832,1376,1281.832,1376,851.832" style="stroke: #000000; stroke-width: 2.0;"/><line style="stroke: #000000; stroke-width: 2.0;" x1="1376" x2="1560" y1="874.3203" y2="874.3203"/><text fill="#000000" font-family="sans-serif" font-size="14" font-weight="bold" lengthAdjust="spacingAndGlyphs" textLength="171" x="1380" y="867.3672">Aggregate：出库复核任务</text><text fill="#000000" font-family="sans-serif" font-size="14" font-style="italic" lengthAdjust="spacingAndGlyphs" textLength="267" x="2626" y="889.8555">«ddd.plus.showcase.wms.domain.task»</text><!--cluster Aggregate：发货--><polygon fill="#FFFFFF" filter="url(#fvfng84)" points="257,1981.832,378,1981.832,385,2004.3203,1730.5,2004.3203,1730.5,2188.832,257,2188.832,257,1981.832" style="stroke: #000000; stroke-width: 2.0;"/><line style="stroke: #000000; stroke-width: 2.0;" x1="257" x2="385" y1="2004.3203" y2="2004.3203"/><text fill="#000000" font-family="sans-serif" font-size="14" font-weight="bold" lengthAdjust="spacingAndGlyphs" textLength="115" x="261" y="1997.3672">Aggregate：发货</text><text fill="#000000" font-family="sans-serif" font-size="14" font-style="italic" lengthAdjust="spacingAndGlyphs" textLength="268" x="863.75" y="2019.8555">«ddd.plus.showcase.wms.domain.ship»</text><!--cluster 交互--><polygon fill="#FFFFFF" filter="url(#fvfng84)" points="22,59.832,56,59.832,63,82.3203,701,82.3203,701,349.832,22,349.832,22,59.832" style="stroke: #000000; stroke-width: 2.0;"/><line style="stroke: #000000; stroke-width: 2.0;" x1="22" x2="63" y1="82.3203" y2="82.3203"/><text fill="#000000" font-family="sans-serif" font-size="14" font-weight="bold" lengthAdjust="spacingAndGlyphs" textLength="28" x="26" y="75.3672">交互</text><text fill="#000000" font-family="sans-serif" font-size="14" font-style="italic" lengthAdjust="spacingAndGlyphs" textLength="72" x="329.5" y="97.8555">«UseCase»</text><!--class Order--><rect fill="#FEFECE" filter="url(#fvfng84)" height="195.8164" style="stroke: #A80036; stroke-width: 1.5;" width="426" x="2072" y="1686.832"/><ellipse cx="2238.75" cy="1705.9648" fill="#FF7700" rx="11" ry="11" style="stroke: #A80036; stroke-width: 1.0;"/><path d="M2239.4487,1706.6128 Q2239.814,1706.6875 2240.0837,1706.9573 Q2240.3535,1707.2271 2240.7437,1708.0073 L2242.9849,1712.4648 L2240.2954,1712.4648 L2238.8013,1709.3354 Q2238.7349,1709.2026 2238.627,1708.9702 Q2237.9712,1707.5674 2237.083,1707.5674 L2236.3027,1707.5674 L2236.3027,1712.4648 L2233.854,1712.4648 L2233.854,1700.0718 L2237.3901,1700.0718 Q2239.7808,1700.0718 2240.8225,1700.9185 Q2241.8643,1701.7651 2241.8643,1703.6743 Q2241.8643,1704.9526 2241.2417,1705.708 Q2240.6191,1706.4634 2239.4487,1706.6128 Z M2236.3027,1702.1304 L2236.3027,1705.5088 L2237.4565,1705.5088 Q2238.4609,1705.5088 2238.8967,1705.1145 Q2239.3325,1704.7202 2239.3325,1703.8154 Q2239.3325,1702.9106 2238.9009,1702.5205 Q2238.4692,1702.1304 2237.4565,1702.1304 Z "/><text fill="#000000" font-family="sans-serif" font-size="12" font-style="italic" lengthAdjust="spacingAndGlyphs" textLength="88" x="2257.25" y="1703.4336">«客户的出库单.»</text><text fill="#000000" font-family="sans-serif" font-size="12" lengthAdjust="spacingAndGlyphs" textLength="34" x="2284.25" y="1717.5664">Order</text><line style="stroke: #A80036; stroke-width: 1.5;" x1="2073" x2="2497" y1="1725.0977" y2="1725.0977"/><text fill="#000000" font-family="sans-serif" font-size="11" lengthAdjust="spacingAndGlyphs" textLength="160" x="2078" y="1756.6875">OrderStatus ProductionStatus</text><line style="stroke: #A80036; stroke-width: 1.5;" x1="2073" x2="2262" y1="1739.5752" y2="1739.5752"/><text fill="#000000" font-family="sans-serif" font-size="11" lengthAdjust="spacingAndGlyphs" textLength="46" x="2262" y="1743.2324">Lifecycle</text><line style="stroke: #A80036; stroke-width: 1.5;" x1="2308" x2="2497" y1="1739.5752" y2="1739.5752"/><text fill="#000000" font-family="sans-serif" font-size="11" lengthAdjust="spacingAndGlyphs" textLength="89" x="2078" y="1786.5977">OrderConstraint</text><line style="stroke: #A80036; stroke-width: 1.5;" x1="2073" x2="2253.5" y1="1769.4854" y2="1769.4854"/><text fill="#000000" font-family="sans-serif" font-size="11" lengthAdjust="spacingAndGlyphs" textLength="63" x="2253.5" y="1773.1426">Operational</text><line style="stroke: #A80036; stroke-width: 1.5;" x1="2316.5" x2="2497" y1="1769.4854" y2="1769.4854"/><text fill="#000000" font-family="sans-serif" font-size="11" lengthAdjust="spacingAndGlyphs" textLength="316" x="2078" y="1816.5078">recommendedPlatformNo() 该订单已经被推荐到哪一个复核台.</text><line style="stroke: #A80036; stroke-width: 1.5;" x1="2073" x2="2274" y1="1799.3955" y2="1799.3955"/><text fill="#000000" font-family="sans-serif" font-size="11" lengthAdjust="spacingAndGlyphs" textLength="22" x="2274" y="1803.0527">规则</text><line style="stroke: #A80036; stroke-width: 1.5;" x1="2296" x2="2497" y1="1799.3955" y2="1799.3955"/><text fill="#000000" font-family="sans-serif" font-size="11" lengthAdjust="spacingAndGlyphs" textLength="141" x="2078" y="1846.418">asPresale() 切换到预售场景.</text><line style="stroke: #A80036; stroke-width: 1.5;" x1="2073" x2="2274" y1="1829.3057" y2="1829.3057"/><text fill="#000000" font-family="sans-serif" font-size="11" lengthAdjust="spacingAndGlyphs" textLength="22" x="2274" y="1832.9629">行为</text><line style="stroke: #A80036; stroke-width: 1.5;" x1="2296" x2="2497" y1="1829.3057" y2="1829.3057"/><text fill="#000000" font-family="sans-serif" font-size="11" lengthAdjust="spacingAndGlyphs" textLength="270" x="2078" y="1876.3281">recommendByOrder(RecommendPlatformRequest)</text><text fill="#808000" font-family="sans-serif" font-size="11" lengthAdjust="spacingAndGlyphs" textLength="135" x="2354" y="1876.3281">RecommendPlatformFlow</text><line style="stroke: #A80036; stroke-width: 1.5;" x1="2073" x2="2274" y1="1859.2158" y2="1859.2158"/><text fill="#000000" font-family="sans-serif" font-size="11" lengthAdjust="spacingAndGlyphs" textLength="22" x="2274" y="1862.873">流程</text><line style="stroke: #A80036; stroke-width: 1.5;" x1="2296" x2="2497" y1="1859.2158" y2="1859.2158"/><!--class Order.OrderCartons--><rect fill="#FEFECE" filter="url(#fvfng84)" height="48" style="stroke: #A80036; stroke-width: 1.5;" width="148" x="2709" y="1748.832"/><ellipse cx="2724" cy="1764.832" fill="#9197DB" rx="11" ry="11" style="stroke: #A80036; stroke-width: 1.0;"/><path d="M2722.4033,1766.2041 L2722.4033,1769.873 L2724.0303,1769.873 Q2725.2007,1769.873 2725.6697,1769.4746 Q2726.1387,1769.0762 2726.1387,1768.0884 Q2726.1387,1767.084 2725.6489,1766.644 Q2725.1592,1766.2041 2724.0303,1766.2041 Z M2722.4033,1761.373 L2722.4033,1764.2534 L2724.0303,1764.2534 Q2724.96,1764.2534 2725.3542,1763.9214 Q2725.7485,1763.5894 2725.7485,1762.8257 Q2725.7485,1762.062 2725.3459,1761.7175 Q2724.9434,1761.373 2724.0303,1761.373 Z M2720.0376,1759.4224 L2724.0303,1759.4224 Q2726.0972,1759.4224 2727.1389,1760.2068 Q2728.1807,1760.9912 2728.1807,1762.5518 Q2728.1807,1763.7471 2727.5664,1764.4194 Q2726.9521,1765.0918 2725.7651,1765.1997 Q2727.1846,1765.3408 2727.9026,1766.1543 Q2728.6206,1766.9678 2728.6206,1768.4287 Q2728.6206,1770.2217 2727.5415,1771.0269 Q2726.4624,1771.832 2724.0303,1771.832 L2720.0376,1771.832 Z "/><text fill="#000000" font-family="sans-serif" font-size="12" lengthAdjust="spacingAndGlyphs" textLength="116" x="2738" y="1769.3672">Order.OrderCartons</text><line style="stroke: #A80036; stroke-width: 1.5;" x1="2710" x2="2856" y1="1780.832" y2="1780.832"/><line style="stroke: #A80036; stroke-width: 1.5;" x1="2710" x2="2856" y1="1788.832" y2="1788.832"/><!--class OrderContainerItems--><rect fill="#FEFECE" filter="url(#fvfng84)" height="48" style="stroke: #A80036; stroke-width: 1.5;" width="152" x="2707" y="1665.832"/><ellipse cx="2722" cy="1681.832" fill="#9197DB" rx="11" ry="11" style="stroke: #A80036; stroke-width: 1.0;"/><path d="M2720.4033,1683.2041 L2720.4033,1686.873 L2722.0303,1686.873 Q2723.2007,1686.873 2723.6697,1686.4746 Q2724.1387,1686.0762 2724.1387,1685.0884 Q2724.1387,1684.084 2723.6489,1683.644 Q2723.1592,1683.2041 2722.0303,1683.2041 Z M2720.4033,1678.373 L2720.4033,1681.2534 L2722.0303,1681.2534 Q2722.96,1681.2534 2723.3542,1680.9214 Q2723.7485,1680.5894 2723.7485,1679.8257 Q2723.7485,1679.062 2723.3459,1678.7175 Q2722.9434,1678.373 2722.0303,1678.373 Z M2718.0376,1676.4224 L2722.0303,1676.4224 Q2724.0972,1676.4224 2725.1389,1677.2068 Q2726.1807,1677.9912 2726.1807,1679.5518 Q2726.1807,1680.7471 2725.5664,1681.4194 Q2724.9521,1682.0918 2723.7651,1682.1997 Q2725.1846,1682.3408 2725.9026,1683.1543 Q2726.6206,1683.9678 2726.6206,1685.4287 Q2726.6206,1687.2217 2725.5415,1688.0269 Q2724.4624,1688.832 2722.0303,1688.832 L2718.0376,1688.832 Z "/><text fill="#000000" font-family="sans-serif" font-size="12" lengthAdjust="spacingAndGlyphs" textLength="120" x="2736" y="1686.3672">OrderContainerItems</text><line style="stroke: #A80036; stroke-width: 1.5;" x1="2708" x2="2858" y1="1697.832" y2="1697.832"/><line style="stroke: #A80036; stroke-width: 1.5;" x1="2708" x2="2858" y1="1705.832" y2="1705.832"/><!--class OrderLine--><rect fill="#FEFECE" filter="url(#fvfng84)" height="135.9961" style="stroke: #A80036; stroke-width: 1.5;" width="177" x="3142.5" y="1686.832"/><ellipse cx="3198.25" cy="1705.9648" fill="#ADD1B2" rx="11" ry="11" style="stroke: #A80036; stroke-width: 1.0;"/><path d="M3200.7231,1712.1079 Q3200.1421,1712.4067 3199.5029,1712.5562 Q3198.8638,1712.7056 3198.1582,1712.7056 Q3195.6514,1712.7056 3194.3315,1711.0537 Q3193.0117,1709.4019 3193.0117,1706.2808 Q3193.0117,1703.1514 3194.3315,1701.4995 Q3195.6514,1699.8477 3198.1582,1699.8477 Q3198.8638,1699.8477 3199.5112,1699.9971 Q3200.1587,1700.1465 3200.7231,1700.4453 L3200.7231,1703.168 Q3200.0923,1702.5869 3199.4988,1702.3171 Q3198.9053,1702.0474 3198.2744,1702.0474 Q3196.9297,1702.0474 3196.2449,1703.114 Q3195.5601,1704.1807 3195.5601,1706.2808 Q3195.5601,1708.3726 3196.2449,1709.4392 Q3196.9297,1710.5059 3198.2744,1710.5059 Q3198.9053,1710.5059 3199.4988,1710.2361 Q3200.0923,1709.9663 3200.7231,1709.3853 Z "/><text fill="#000000" font-family="sans-serif" font-size="12" font-style="italic" lengthAdjust="spacingAndGlyphs" textLength="52" x="3221.25" y="1703.4336">«订单行.»</text><text fill="#000000" font-family="sans-serif" font-size="12" lengthAdjust="spacingAndGlyphs" textLength="57" x="3218.75" y="1717.5664">OrderLine</text><line style="stroke: #A80036; stroke-width: 1.5;" x1="3143.5" x2="3318.5" y1="1725.0977" y2="1725.0977"/><text fill="#000000" font-family="sans-serif" font-size="11" lengthAdjust="spacingAndGlyphs" textLength="91" x="3148.5" y="1756.6875">OrderLineNo Sku</text><line style="stroke: #A80036; stroke-width: 1.5;" x1="3143.5" x2="3204.5" y1="1739.5752" y2="1739.5752"/><text fill="#000000" font-family="sans-serif" font-size="11" lengthAdjust="spacingAndGlyphs" textLength="53" x="3204.5" y="1743.2324">Structural</text><line style="stroke: #A80036; stroke-width: 1.5;" x1="3257.5" x2="3318.5" y1="1739.5752" y2="1739.5752"/><text fill="#000000" font-family="sans-serif" font-size="11" lengthAdjust="spacingAndGlyphs" textLength="165" x="3148.5" y="1786.5977">qty/要货量 shortageQty/缺货量</text><line style="stroke: #A80036; stroke-width: 1.5;" x1="3143.5" x2="3208" y1="1769.4854" y2="1769.4854"/><text fill="#000000" font-family="sans-serif" font-size="11" lengthAdjust="spacingAndGlyphs" textLength="46" x="3208" y="1773.1426">Quantity</text><line style="stroke: #A80036; stroke-width: 1.5;" x1="3254" x2="3318.5" y1="1769.4854" y2="1769.4854"/><text fill="#000000" font-family="sans-serif" font-size="11" lengthAdjust="spacingAndGlyphs" textLength="154" x="3148.5" y="1816.5078">expectedQty/要货量-缺货量()</text><line style="stroke: #A80036; stroke-width: 1.5;" x1="3143.5" x2="3220" y1="1799.3955" y2="1799.3955"/><text fill="#000000" font-family="sans-serif" font-size="11" lengthAdjust="spacingAndGlyphs" textLength="22" x="3220" y="1803.0527">规则</text><line style="stroke: #A80036; stroke-width: 1.5;" x1="3242" x2="3318.5" y1="1799.3955" y2="1799.3955"/><!--class OrderLineBag--><rect fill="#FEFECE" filter="url(#fvfng84)" height="69.9102" style="stroke: #A80036; stroke-width: 1.5;" width="228" x="2669" y="1852.832"/><ellipse cx="2739.75" cy="1868.832" fill="#9197DB" rx="11" ry="11" style="stroke: #A80036; stroke-width: 1.0;"/><path d="M2738.1533,1870.2041 L2738.1533,1873.873 L2739.7803,1873.873 Q2740.9507,1873.873 2741.4197,1873.4746 Q2741.8887,1873.0762 2741.8887,1872.0884 Q2741.8887,1871.084 2741.3989,1870.644 Q2740.9092,1870.2041 2739.7803,1870.2041 Z M2738.1533,1865.373 L2738.1533,1868.2534 L2739.7803,1868.2534 Q2740.71,1868.2534 2741.1042,1867.9214 Q2741.4985,1867.5894 2741.4985,1866.8257 Q2741.4985,1866.062 2741.0959,1865.7175 Q2740.6934,1865.373 2739.7803,1865.373 Z M2735.7876,1863.4224 L2739.7803,1863.4224 Q2741.8472,1863.4224 2742.8889,1864.2068 Q2743.9307,1864.9912 2743.9307,1866.5518 Q2743.9307,1867.7471 2743.3164,1868.4194 Q2742.7021,1869.0918 2741.5151,1869.1997 Q2742.9346,1869.3408 2743.6526,1870.1543 Q2744.3706,1870.9678 2744.3706,1872.4287 Q2744.3706,1874.2217 2743.2915,1875.0269 Q2742.2124,1875.832 2739.7803,1875.832 L2735.7876,1875.832 Z "/><text fill="#000000" font-family="sans-serif" font-size="12" lengthAdjust="spacingAndGlyphs" textLength="78" x="2760.25" y="1873.3672">OrderLineBag</text><line style="stroke: #A80036; stroke-width: 1.5;" x1="2670" x2="2896" y1="1884.832" y2="1884.832"/><text fill="#000000" font-family="sans-serif" font-size="11" lengthAdjust="spacingAndGlyphs" textLength="216" x="2675" y="1916.4219">totalExpectedQty() 期望的总装箱货品件数.</text><line style="stroke: #A80036; stroke-width: 1.5;" x1="2670" x2="2772" y1="1899.3096" y2="1899.3096"/><text fill="#000000" font-family="sans-serif" font-size="11" lengthAdjust="spacingAndGlyphs" textLength="22" x="2772" y="1902.9668">规则</text><line style="stroke: #A80036; stroke-width: 1.5;" x1="2794" x2="2896" y1="1899.3096" y2="1899.3096"/><!--class OrderOfPresale--><rect fill="#FEFECE" filter="url(#fvfng84)" height="76.1758" style="stroke: #A80036; stroke-width: 1.5;" width="140" x="1552" y="1665.832"/><ellipse cx="1567" cy="1684.9648" fill="#9197DB" rx="11" ry="11" style="stroke: #A80036; stroke-width: 1.0;"/><path d="M1565.4033,1686.3369 L1565.4033,1690.0059 L1567.0303,1690.0059 Q1568.2007,1690.0059 1568.6697,1689.6074 Q1569.1387,1689.209 1569.1387,1688.2212 Q1569.1387,1687.2168 1568.6489,1686.7769 Q1568.1592,1686.3369 1567.0303,1686.3369 Z M1565.4033,1681.5059 L1565.4033,1684.3862 L1567.0303,1684.3862 Q1567.96,1684.3862 1568.3542,1684.0542 Q1568.7485,1683.7222 1568.7485,1682.9585 Q1568.7485,1682.1948 1568.3459,1681.8503 Q1567.9434,1681.5059 1567.0303,1681.5059 Z M1563.0376,1679.5552 L1567.0303,1679.5552 Q1569.0972,1679.5552 1570.1389,1680.3396 Q1571.1807,1681.124 1571.1807,1682.6846 Q1571.1807,1683.8799 1570.5664,1684.5522 Q1569.9521,1685.2246 1568.7651,1685.3325 Q1570.1846,1685.4736 1570.9026,1686.2871 Q1571.6206,1687.1006 1571.6206,1688.5615 Q1571.6206,1690.3545 1570.5415,1691.1597 Q1569.4624,1691.9648 1567.0303,1691.9648 L1563.0376,1691.9648 Z "/><text fill="#000000" font-family="sans-serif" font-size="12" font-style="italic" lengthAdjust="spacingAndGlyphs" textLength="112" x="1579" y="1682.4336">«出库单的预售场景.»</text><text fill="#000000" font-family="sans-serif" font-size="12" lengthAdjust="spacingAndGlyphs" textLength="89" x="1590.5" y="1696.5664">OrderOfPresale</text><line style="stroke: #A80036; stroke-width: 1.5;" x1="1553" x2="1691" y1="1704.0977" y2="1704.0977"/><text fill="#000000" font-family="sans-serif" font-size="11" lengthAdjust="spacingAndGlyphs" textLength="127" x="1558" y="1735.6875">isFinalPaid() 尾款已结清?</text><line style="stroke: #A80036; stroke-width: 1.5;" x1="1553" x2="1611" y1="1718.5752" y2="1718.5752"/><text fill="#000000" font-family="sans-serif" font-size="11" lengthAdjust="spacingAndGlyphs" textLength="22" x="1611" y="1722.2324">规则</text><line style="stroke: #A80036; stroke-width: 1.5;" x1="1633" x2="1691" y1="1718.5752" y2="1718.5752"/><!--class OrderBag--><rect fill="#FEFECE" filter="url(#fvfng84)" height="69.9102" style="stroke: #A80036; stroke-width: 1.5;" width="391" x="1426.5" y="1776.832"/><ellipse cx="1590.25" cy="1792.832" fill="#9197DB" rx="11" ry="11" style="stroke: #A80036; stroke-width: 1.0;"/><path d="M1588.6533,1794.2041 L1588.6533,1797.873 L1590.2803,1797.873 Q1591.4507,1797.873 1591.9197,1797.4746 Q1592.3887,1797.0762 1592.3887,1796.0884 Q1592.3887,1795.084 1591.8989,1794.644 Q1591.4092,1794.2041 1590.2803,1794.2041 Z M1588.6533,1789.373 L1588.6533,1792.2534 L1590.2803,1792.2534 Q1591.21,1792.2534 1591.6042,1791.9214 Q1591.9985,1791.5894 1591.9985,1790.8257 Q1591.9985,1790.062 1591.5959,1789.7175 Q1591.1934,1789.373 1590.2803,1789.373 Z M1586.2876,1787.4224 L1590.2803,1787.4224 Q1592.3472,1787.4224 1593.3889,1788.2068 Q1594.4307,1788.9912 1594.4307,1790.5518 Q1594.4307,1791.7471 1593.8164,1792.4194 Q1593.2021,1793.0918 1592.0151,1793.1997 Q1593.4346,1793.3408 1594.1526,1794.1543 Q1594.8706,1794.9678 1594.8706,1796.4287 Q1594.8706,1798.2217 1593.7915,1799.0269 Q1592.7124,1799.832 1590.2803,1799.832 L1586.2876,1799.832 Z "/><text fill="#000000" font-family="sans-serif" font-size="12" lengthAdjust="spacingAndGlyphs" textLength="55" x="1610.75" y="1797.3672">OrderBag</text><line style="stroke: #A80036; stroke-width: 1.5;" x1="1427.5" x2="1816.5" y1="1808.832" y2="1808.832"/><text fill="#000000" font-family="sans-serif" font-size="11" lengthAdjust="spacingAndGlyphs" textLength="379" x="1432.5" y="1840.4219">subBagOfCanceled() 当前出库单集合里哪些已经在单据中心里被客户取消了.</text><line style="stroke: #A80036; stroke-width: 1.5;" x1="1427.5" x2="1611" y1="1823.3096" y2="1823.3096"/><text fill="#000000" font-family="sans-serif" font-size="11" lengthAdjust="spacingAndGlyphs" textLength="22" x="1611" y="1826.9668">行为</text><line style="stroke: #A80036; stroke-width: 1.5;" x1="1633" x2="1816.5" y1="1823.3096" y2="1823.3096"/><!--class Pack--><rect fill="#FEFECE" filter="url(#fvfng84)" height="135.9961" style="stroke: #A80036; stroke-width: 1.5;" width="139" x="890.5" y="1186.832"/><ellipse cx="937.75" cy="1205.9648" fill="#FF7700" rx="11" ry="11" style="stroke: #A80036; stroke-width: 1.0;"/><path d="M938.4487,1206.6128 Q938.814,1206.6875 939.0837,1206.9573 Q939.3535,1207.2271 939.7437,1208.0073 L941.9849,1212.4648 L939.2954,1212.4648 L937.8013,1209.3354 Q937.7349,1209.2026 937.627,1208.9702 Q936.9712,1207.5674 936.083,1207.5674 L935.3027,1207.5674 L935.3027,1212.4648 L932.854,1212.4648 L932.854,1200.0718 L936.3901,1200.0718 Q938.7808,1200.0718 939.8225,1200.9185 Q940.8643,1201.7651 940.8643,1203.6743 Q940.8643,1204.9526 940.2417,1205.708 Q939.6191,1206.4634 938.4487,1206.6128 Z M935.3027,1202.1304 L935.3027,1205.5088 L936.4565,1205.5088 Q937.4609,1205.5088 937.8967,1205.1145 Q938.3325,1204.7202 938.3325,1203.8154 Q938.3325,1202.9106 937.9009,1202.5205 Q937.4692,1202.1304 936.4565,1202.1304 Z "/><text fill="#000000" font-family="sans-serif" font-size="12" font-style="italic" lengthAdjust="spacingAndGlyphs" textLength="40" x="956.25" y="1203.4336">«包裹.»</text><text fill="#000000" font-family="sans-serif" font-size="12" lengthAdjust="spacingAndGlyphs" textLength="27" x="962.75" y="1217.5664">Pack</text><line style="stroke: #A80036; stroke-width: 1.5;" x1="891.5" x2="1028.5" y1="1225.0977" y2="1225.0977"/><text fill="#000000" font-family="sans-serif" font-size="11" lengthAdjust="spacingAndGlyphs" textLength="102" x="896.5" y="1256.6875">OrderNo WaybillNo</text><line style="stroke: #A80036; stroke-width: 1.5;" x1="891.5" x2="933.5" y1="1239.5752" y2="1239.5752"/><text fill="#000000" font-family="sans-serif" font-size="11" lengthAdjust="spacingAndGlyphs" textLength="53" x="933.5" y="1243.2324">Structural</text><line style="stroke: #A80036; stroke-width: 1.5;" x1="986.5" x2="1028.5" y1="1239.5752" y2="1239.5752"/><text fill="#000000" font-family="sans-serif" font-size="11" lengthAdjust="spacingAndGlyphs" textLength="57" x="896.5" y="1286.5977">PackStatus</text><line style="stroke: #A80036; stroke-width: 1.5;" x1="891.5" x2="937" y1="1269.4854" y2="1269.4854"/><text fill="#000000" font-family="sans-serif" font-size="11" lengthAdjust="spacingAndGlyphs" textLength="46" x="937" y="1273.1426">Lifecycle</text><line style="stroke: #A80036; stroke-width: 1.5;" x1="983" x2="1028.5" y1="1269.4854" y2="1269.4854"/><text fill="#000000" font-family="sans-serif" font-size="11" lengthAdjust="spacingAndGlyphs" textLength="127" x="896.5" y="1316.5078">totalVolume totalWeight</text><line style="stroke: #A80036; stroke-width: 1.5;" x1="891.5" x2="944" y1="1299.3955" y2="1299.3955"/><text fill="#000000" font-family="sans-serif" font-size="11" lengthAdjust="spacingAndGlyphs" textLength="32" x="944" y="1303.0527">Billing</text><line style="stroke: #A80036; stroke-width: 1.5;" x1="976" x2="1028.5" y1="1299.3955" y2="1299.3955"/><!--class ContainerDiff--><rect fill="#FEFECE" filter="url(#fvfng84)" height="178.8613" style="stroke: #A80036; stroke-width: 1.5;" width="188" x="1528" y="1376.832"/><ellipse cx="1543" cy="1395.9648" fill="#FF7700" rx="11" ry="11" style="stroke: #A80036; stroke-width: 1.0;"/><path d="M1543.6987,1396.6128 Q1544.064,1396.6875 1544.3337,1396.9573 Q1544.6035,1397.2271 1544.9937,1398.0073 L1547.2349,1402.4648 L1544.5454,1402.4648 L1543.0513,1399.3354 Q1542.9849,1399.2026 1542.877,1398.9702 Q1542.2212,1397.5674 1541.333,1397.5674 L1540.5527,1397.5674 L1540.5527,1402.4648 L1538.104,1402.4648 L1538.104,1390.0718 L1541.6401,1390.0718 Q1544.0308,1390.0718 1545.0725,1390.9185 Q1546.1143,1391.7651 1546.1143,1393.6743 Q1546.1143,1394.9526 1545.4917,1395.708 Q1544.8691,1396.4634 1543.6987,1396.6128 Z M1540.5527,1392.1304 L1540.5527,1395.5088 L1541.7065,1395.5088 Q1542.7109,1395.5088 1543.1467,1395.1145 Q1543.5825,1394.7202 1543.5825,1393.8154 Q1543.5825,1392.9106 1543.1509,1392.5205 Q1542.7192,1392.1304 1541.7065,1392.1304 Z "/><text fill="#000000" font-family="sans-serif" font-size="12" font-style="italic" lengthAdjust="spacingAndGlyphs" textLength="160" x="1555" y="1393.4336">«复核过程中发现的容器差异.»</text><text fill="#000000" font-family="sans-serif" font-size="12" lengthAdjust="spacingAndGlyphs" textLength="75" x="1597.5" y="1407.5664">ContainerDiff</text><line style="stroke: #A80036; stroke-width: 1.5;" x1="1529" x2="1715" y1="1415.0977" y2="1415.0977"/><text fill="#000000" font-family="sans-serif" font-size="11" lengthAdjust="spacingAndGlyphs" textLength="66" x="1534" y="1446.6875">containerNo</text><line style="stroke: #A80036; stroke-width: 1.5;" x1="1529" x2="1595.5" y1="1429.5752" y2="1429.5752"/><text fill="#000000" font-family="sans-serif" font-size="11" lengthAdjust="spacingAndGlyphs" textLength="53" x="1595.5" y="1433.2324">Structural</text><line style="stroke: #A80036; stroke-width: 1.5;" x1="1648.5" x2="1715" y1="1429.5752" y2="1429.5752"/><text fill="#000000" font-family="sans-serif" font-size="11" lengthAdjust="spacingAndGlyphs" textLength="37" x="1534" y="1476.5977">reason</text><line style="stroke: #A80036; stroke-width: 1.5;" x1="1529" x2="1590.5" y1="1459.4854" y2="1459.4854"/><text fill="#000000" font-family="sans-serif" font-size="11" lengthAdjust="spacingAndGlyphs" textLength="63" x="1590.5" y="1463.1426">Operational</text><line style="stroke: #A80036; stroke-width: 1.5;" x1="1653.5" x2="1715" y1="1459.4854" y2="1459.4854"/><text fill="#000000" font-family="sans-serif" font-size="11" lengthAdjust="spacingAndGlyphs" textLength="46" x="1534" y="1506.5078">platform</text><line style="stroke: #A80036; stroke-width: 1.5;" x1="1529" x2="1599" y1="1489.3955" y2="1489.3955"/><text fill="#000000" font-family="sans-serif" font-size="11" lengthAdjust="spacingAndGlyphs" textLength="46" x="1599" y="1493.0527">Location</text><line style="stroke: #A80036; stroke-width: 1.5;" x1="1645" x2="1715" y1="1489.3955" y2="1489.3955"/><text fill="#000000" font-family="sans-serif" font-size="11" lengthAdjust="spacingAndGlyphs" textLength="87" x="1534" y="1536.418">registerBroken()</text><text fill="#000000" font-family="sans-serif" font-size="11" lengthAdjust="spacingAndGlyphs" textLength="73" x="1534" y="1549.373">registerLost()</text><line style="stroke: #A80036; stroke-width: 1.5;" x1="1529" x2="1611" y1="1519.3057" y2="1519.3057"/><text fill="#000000" font-family="sans-serif" font-size="11" lengthAdjust="spacingAndGlyphs" textLength="22" x="1611" y="1522.9629">行为</text><line style="stroke: #A80036; stroke-width: 1.5;" x1="1633" x2="1715" y1="1519.3057" y2="1519.3057"/><!--class ContainerDiffItem--><rect fill="#FEFECE" filter="url(#fvfng84)" height="69.9102" style="stroke: #A80036; stroke-width: 1.5;" width="132" x="2717" y="1471.832"/><ellipse cx="2732" cy="1487.832" fill="#ADD1B2" rx="11" ry="11" style="stroke: #A80036; stroke-width: 1.0;"/><path d="M2734.4731,1493.9751 Q2733.8921,1494.2739 2733.2529,1494.4233 Q2732.6138,1494.5728 2731.9082,1494.5728 Q2729.4014,1494.5728 2728.0815,1492.9209 Q2726.7617,1491.269 2726.7617,1488.1479 Q2726.7617,1485.0186 2728.0815,1483.3667 Q2729.4014,1481.7148 2731.9082,1481.7148 Q2732.6138,1481.7148 2733.2612,1481.8643 Q2733.9087,1482.0137 2734.4731,1482.3125 L2734.4731,1485.0352 Q2733.8423,1484.4541 2733.2488,1484.1843 Q2732.6553,1483.9146 2732.0244,1483.9146 Q2730.6797,1483.9146 2729.9949,1484.9812 Q2729.3101,1486.0479 2729.3101,1488.1479 Q2729.3101,1490.2397 2729.9949,1491.3064 Q2730.6797,1492.373 2732.0244,1492.373 Q2732.6553,1492.373 2733.2488,1492.1033 Q2733.8423,1491.8335 2734.4731,1491.2524 Z "/><text fill="#000000" font-family="sans-serif" font-size="12" lengthAdjust="spacingAndGlyphs" textLength="100" x="2746" y="1492.3672">ContainerDiffItem</text><line style="stroke: #A80036; stroke-width: 1.5;" x1="2718" x2="2848" y1="1503.832" y2="1503.832"/><text fill="#000000" font-family="sans-serif" font-size="11" lengthAdjust="spacingAndGlyphs" textLength="19" x="2723" y="1535.4219">Sku</text><line style="stroke: #A80036; stroke-width: 1.5;" x1="2718" x2="2756.5" y1="1518.3096" y2="1518.3096"/><text fill="#000000" font-family="sans-serif" font-size="11" lengthAdjust="spacingAndGlyphs" textLength="53" x="2756.5" y="1521.9668">Structural</text><line style="stroke: #A80036; stroke-width: 1.5;" x1="2809.5" x2="2848" y1="1518.3096" y2="1518.3096"/><!--class ContainerDiffItemBag--><rect fill="#FEFECE" filter="url(#fvfng84)" height="48" style="stroke: #A80036; stroke-width: 1.5;" width="153" x="2209" y="1448.832"/><ellipse cx="2224" cy="1464.832" fill="#9197DB" rx="11" ry="11" style="stroke: #A80036; stroke-width: 1.0;"/><path d="M2222.4033,1466.2041 L2222.4033,1469.873 L2224.0303,1469.873 Q2225.2007,1469.873 2225.6697,1469.4746 Q2226.1387,1469.0762 2226.1387,1468.0884 Q2226.1387,1467.084 2225.6489,1466.644 Q2225.1592,1466.2041 2224.0303,1466.2041 Z M2222.4033,1461.373 L2222.4033,1464.2534 L2224.0303,1464.2534 Q2224.96,1464.2534 2225.3542,1463.9214 Q2225.7485,1463.5894 2225.7485,1462.8257 Q2225.7485,1462.062 2225.3459,1461.7175 Q2224.9434,1461.373 2224.0303,1461.373 Z M2220.0376,1459.4224 L2224.0303,1459.4224 Q2226.0972,1459.4224 2227.1389,1460.2068 Q2228.1807,1460.9912 2228.1807,1462.5518 Q2228.1807,1463.7471 2227.5664,1464.4194 Q2226.9521,1465.0918 2225.7651,1465.1997 Q2227.1846,1465.3408 2227.9026,1466.1543 Q2228.6206,1466.9678 2228.6206,1468.4287 Q2228.6206,1470.2217 2227.5415,1471.0269 Q2226.4624,1471.832 2224.0303,1471.832 L2220.0376,1471.832 Z "/><text fill="#000000" font-family="sans-serif" font-size="12" lengthAdjust="spacingAndGlyphs" textLength="121" x="2238" y="1469.3672">ContainerDiffItemBag</text><line style="stroke: #A80036; stroke-width: 1.5;" x1="2210" x2="2361" y1="1480.832" y2="1480.832"/><line style="stroke: #A80036; stroke-width: 1.5;" x1="2210" x2="2361" y1="1488.832" y2="1488.832"/><!--class Carton--><rect fill="#FEFECE" filter="url(#fvfng84)" height="277.5469" style="stroke: #A80036; stroke-width: 1.5;" width="361" x="1442" y="514.832"/><ellipse cx="1558.25" cy="533.9648" fill="#FF7700" rx="11" ry="11" style="stroke: #A80036; stroke-width: 1.0;"/><path d="M1558.9487,534.6128 Q1559.314,534.6875 1559.5837,534.9573 Q1559.8535,535.2271 1560.2437,536.0073 L1562.4849,540.4648 L1559.7954,540.4648 L1558.3013,537.3354 Q1558.2349,537.2026 1558.127,536.9702 Q1557.4712,535.5674 1556.583,535.5674 L1555.8027,535.5674 L1555.8027,540.4648 L1553.354,540.4648 L1553.354,528.0718 L1556.8901,528.0718 Q1559.2808,528.0718 1560.3225,528.9185 Q1561.3643,529.7651 1561.3643,531.6743 Q1561.3643,532.9526 1560.7417,533.708 Q1560.1191,534.4634 1558.9487,534.6128 Z M1555.8027,530.1304 L1555.8027,533.5088 L1556.9565,533.5088 Q1557.9609,533.5088 1558.3967,533.1145 Q1558.8325,532.7202 1558.8325,531.8154 Q1558.8325,530.9106 1558.4009,530.5205 Q1557.9692,530.1304 1556.9565,530.1304 Z "/><text fill="#000000" font-family="sans-serif" font-size="12" font-style="italic" lengthAdjust="spacingAndGlyphs" textLength="124" x="1576.75" y="531.4336">«纸箱，它会成为包裹.»</text><text fill="#000000" font-family="sans-serif" font-size="12" lengthAdjust="spacingAndGlyphs" textLength="38" x="1619.75" y="545.5664">Carton</text><line style="stroke: #A80036; stroke-width: 1.5;" x1="1443" x2="1802" y1="553.0977" y2="553.0977"/><text fill="#000000" font-family="sans-serif" font-size="11" lengthAdjust="spacingAndGlyphs" textLength="33" x="1448" y="584.6875">status</text><line style="stroke: #A80036; stroke-width: 1.5;" x1="1443" x2="1599.5" y1="567.5752" y2="567.5752"/><text fill="#000000" font-family="sans-serif" font-size="11" lengthAdjust="spacingAndGlyphs" textLength="46" x="1599.5" y="571.2324">Lifecycle</text><line style="stroke: #A80036; stroke-width: 1.5;" x1="1645.5" x2="1802" y1="567.5752" y2="567.5752"/><text fill="#000000" font-family="sans-serif" font-size="11" lengthAdjust="spacingAndGlyphs" textLength="94" x="1448" y="614.5977">cartonizationRule</text><line style="stroke: #A80036; stroke-width: 1.5;" x1="1443" x2="1591" y1="597.4854" y2="597.4854"/><text fill="#000000" font-family="sans-serif" font-size="11" lengthAdjust="spacingAndGlyphs" textLength="63" x="1591" y="601.1426">Operational</text><line style="stroke: #A80036; stroke-width: 1.5;" x1="1654" x2="1802" y1="597.4854" y2="597.4854"/><text fill="#000000" font-family="sans-serif" font-size="11" lengthAdjust="spacingAndGlyphs" textLength="53" x="1448" y="644.5078">fulfillTime</text><line style="stroke: #A80036; stroke-width: 1.5;" x1="1443" x2="1614.5" y1="627.3955" y2="627.3955"/><text fill="#000000" font-family="sans-serif" font-size="11" lengthAdjust="spacingAndGlyphs" textLength="16" x="1614.5" y="631.0527">KPI</text><line style="stroke: #A80036; stroke-width: 1.5;" x1="1630.5" x2="1802" y1="627.3955" y2="627.3955"/><text fill="#000000" font-family="sans-serif" font-size="11" lengthAdjust="spacingAndGlyphs" textLength="45" x="1448" y="674.418">Platform</text><line style="stroke: #A80036; stroke-width: 1.5;" x1="1443" x2="1599.5" y1="657.3057" y2="657.3057"/><text fill="#000000" font-family="sans-serif" font-size="11" lengthAdjust="spacingAndGlyphs" textLength="46" x="1599.5" y="660.9629">Location</text><line style="stroke: #A80036; stroke-width: 1.5;" x1="1645.5" x2="1802" y1="657.3057" y2="657.3057"/><text fill="#000000" font-family="sans-serif" font-size="11" lengthAdjust="spacingAndGlyphs" textLength="100" x="1448" y="704.3281">isEmpty() 是否空箱.</text><text fill="#000000" font-family="sans-serif" font-size="11" lengthAdjust="spacingAndGlyphs" textLength="349" x="1448" y="717.2832">cartonizationRule() 装箱规则，利用gateway延迟加载，规则也是规约.</text><line style="stroke: #A80036; stroke-width: 1.5;" x1="1443" x2="1611.5" y1="687.2158" y2="687.2158"/><text fill="#000000" font-family="sans-serif" font-size="11" lengthAdjust="spacingAndGlyphs" textLength="22" x="1611.5" y="690.873">规则</text><line style="stroke: #A80036; stroke-width: 1.5;" x1="1633.5" x2="1802" y1="687.2158" y2="687.2158"/><text fill="#000000" font-family="sans-serif" font-size="11" lengthAdjust="spacingAndGlyphs" textLength="64" x="1448" y="747.1934">bindOrder()</text><text fill="#000000" font-family="sans-serif" font-size="11" lengthAdjust="spacingAndGlyphs" textLength="71" x="1448" y="760.1484">fulfill() 箱满了</text><text fill="#000000" font-family="sans-serif" font-size="11" lengthAdjust="spacingAndGlyphs" textLength="174" x="1448" y="773.1035">transferFrom(ContainerItemBag)</text><text fill="#000000" font-family="sans-serif" font-size="11" lengthAdjust="spacingAndGlyphs" textLength="183" x="1448" y="786.0586">useConsumables() 向纸箱添加耗材.</text><line style="stroke: #A80036; stroke-width: 1.5;" x1="1443" x2="1611.5" y1="730.0811" y2="730.0811"/><text fill="#000000" font-family="sans-serif" font-size="11" lengthAdjust="spacingAndGlyphs" textLength="22" x="1611.5" y="733.7383">行为</text><line style="stroke: #A80036; stroke-width: 1.5;" x1="1633.5" x2="1802" y1="730.0811" y2="730.0811"/><!--class CartonItem--><rect fill="#FEFECE" filter="url(#fvfng84)" height="129.7305" style="stroke: #A80036; stroke-width: 1.5;" width="95" x="2736" y="488.832"/><ellipse cx="2751" cy="504.832" fill="#ADD1B2" rx="11" ry="11" style="stroke: #A80036; stroke-width: 1.0;"/><path d="M2753.4731,510.9751 Q2752.8921,511.2739 2752.2529,511.4233 Q2751.6138,511.5728 2750.9082,511.5728 Q2748.4014,511.5728 2747.0815,509.9209 Q2745.7617,508.269 2745.7617,505.1479 Q2745.7617,502.0186 2747.0815,500.3667 Q2748.4014,498.7148 2750.9082,498.7148 Q2751.6138,498.7148 2752.2612,498.8643 Q2752.9087,499.0137 2753.4731,499.3125 L2753.4731,502.0352 Q2752.8423,501.4541 2752.2488,501.1843 Q2751.6553,500.9146 2751.0244,500.9146 Q2749.6797,500.9146 2748.9949,501.9812 Q2748.3101,503.0479 2748.3101,505.1479 Q2748.3101,507.2397 2748.9949,508.3064 Q2749.6797,509.373 2751.0244,509.373 Q2751.6553,509.373 2752.2488,509.1033 Q2752.8423,508.8335 2753.4731,508.2524 Z "/><text fill="#000000" font-family="sans-serif" font-size="12" lengthAdjust="spacingAndGlyphs" textLength="63" x="2765" y="509.3672">CartonItem</text><line style="stroke: #A80036; stroke-width: 1.5;" x1="2737" x2="2830" y1="520.832" y2="520.832"/><text fill="#000000" font-family="sans-serif" font-size="11" lengthAdjust="spacingAndGlyphs" textLength="19" x="2742" y="552.4219">sku</text><line style="stroke: #A80036; stroke-width: 1.5;" x1="2737" x2="2757" y1="535.3096" y2="535.3096"/><text fill="#000000" font-family="sans-serif" font-size="11" lengthAdjust="spacingAndGlyphs" textLength="53" x="2757" y="538.9668">Structural</text><line style="stroke: #A80036; stroke-width: 1.5;" x1="2810" x2="2830" y1="535.3096" y2="535.3096"/><text fill="#000000" font-family="sans-serif" font-size="11" lengthAdjust="spacingAndGlyphs" textLength="67" x="2742" y="582.332">orderLineNo</text><line style="stroke: #A80036; stroke-width: 1.5;" x1="2737" x2="2755" y1="565.2197" y2="565.2197"/><text fill="#000000" font-family="sans-serif" font-size="11" lengthAdjust="spacingAndGlyphs" textLength="57" x="2755" y="568.877">Referential</text><line style="stroke: #A80036; stroke-width: 1.5;" x1="2812" x2="2830" y1="565.2197" y2="565.2197"/><text fill="#000000" font-family="sans-serif" font-size="11" lengthAdjust="spacingAndGlyphs" textLength="63" x="2742" y="612.2422">checkedQty</text><line style="stroke: #A80036; stroke-width: 1.5;" x1="2737" x2="2760.5" y1="595.1299" y2="595.1299"/><text fill="#000000" font-family="sans-serif" font-size="11" lengthAdjust="spacingAndGlyphs" textLength="46" x="2760.5" y="598.7871">Quantity</text><line style="stroke: #A80036; stroke-width: 1.5;" x1="2806.5" x2="2830" y1="595.1299" y2="595.1299"/><!--class CartonItemBag--><rect fill="#FEFECE" filter="url(#fvfng84)" height="69.9102" style="stroke: #A80036; stroke-width: 1.5;" width="289" x="2141" y="505.832"/><ellipse cx="2239.25" cy="521.832" fill="#9197DB" rx="11" ry="11" style="stroke: #A80036; stroke-width: 1.0;"/><path d="M2237.6533,523.2041 L2237.6533,526.873 L2239.2803,526.873 Q2240.4507,526.873 2240.9197,526.4746 Q2241.3887,526.0762 2241.3887,525.0884 Q2241.3887,524.084 2240.8989,523.644 Q2240.4092,523.2041 2239.2803,523.2041 Z M2237.6533,518.373 L2237.6533,521.2534 L2239.2803,521.2534 Q2240.21,521.2534 2240.6042,520.9214 Q2240.9985,520.5894 2240.9985,519.8257 Q2240.9985,519.062 2240.5959,518.7175 Q2240.1934,518.373 2239.2803,518.373 Z M2235.2876,516.4224 L2239.2803,516.4224 Q2241.3472,516.4224 2242.3889,517.2068 Q2243.4307,517.9912 2243.4307,519.5518 Q2243.4307,520.7471 2242.8164,521.4194 Q2242.2021,522.0918 2241.0151,522.1997 Q2242.4346,522.3408 2243.1526,523.1543 Q2243.8706,523.9678 2243.8706,525.4287 Q2243.8706,527.2217 2242.7915,528.0269 Q2241.7124,528.832 2239.2803,528.832 L2235.2876,528.832 Z "/><text fill="#000000" font-family="sans-serif" font-size="12" lengthAdjust="spacingAndGlyphs" textLength="84" x="2259.75" y="526.3672">CartonItemBag</text><line style="stroke: #A80036; stroke-width: 1.5;" x1="2142" x2="2429" y1="537.832" y2="537.832"/><text fill="#000000" font-family="sans-serif" font-size="11" lengthAdjust="spacingAndGlyphs" textLength="277" x="2147" y="569.4219">contains(UniqueCode) 货品唯一码是否在本箱里已有了</text><line style="stroke: #A80036; stroke-width: 1.5;" x1="2142" x2="2274.5" y1="552.3096" y2="552.3096"/><text fill="#000000" font-family="sans-serif" font-size="11" lengthAdjust="spacingAndGlyphs" textLength="22" x="2274.5" y="555.9668">行为</text><line style="stroke: #A80036; stroke-width: 1.5;" x1="2296.5" x2="2429" y1="552.3096" y2="552.3096"/><!--class Consumable--><rect fill="#FEFECE" filter="url(#fvfng84)" height="99.8203" style="stroke: #A80036; stroke-width: 1.5;" width="157" x="2705" y="692.832"/><ellipse cx="2744.3" cy="708.832" fill="#ADD1B2" rx="11" ry="11" style="stroke: #A80036; stroke-width: 1.0;"/><path d="M2746.7731,714.9751 Q2746.1921,715.2739 2745.5529,715.4233 Q2744.9138,715.5728 2744.2082,715.5728 Q2741.7014,715.5728 2740.3815,713.9209 Q2739.0617,712.269 2739.0617,709.1479 Q2739.0617,706.0186 2740.3815,704.3667 Q2741.7014,702.7148 2744.2082,702.7148 Q2744.9138,702.7148 2745.5612,702.8643 Q2746.2087,703.0137 2746.7731,703.3125 L2746.7731,706.0352 Q2746.1423,705.4541 2745.5488,705.1843 Q2744.9553,704.9146 2744.3244,704.9146 Q2742.9797,704.9146 2742.2949,705.9812 Q2741.6101,707.0479 2741.6101,709.1479 Q2741.6101,711.2397 2742.2949,712.3064 Q2742.9797,713.373 2744.3244,713.373 Q2744.9553,713.373 2745.5488,713.1033 Q2746.1423,712.8335 2746.7731,712.2524 Z "/><text fill="#000000" font-family="sans-serif" font-size="12" lengthAdjust="spacingAndGlyphs" textLength="71" x="2763.7" y="713.3672">Consumable</text><line style="stroke: #A80036; stroke-width: 1.5;" x1="2706" x2="2861" y1="724.832" y2="724.832"/><text fill="#000000" font-family="sans-serif" font-size="11" lengthAdjust="spacingAndGlyphs" textLength="145" x="2711" y="756.4219">CartonNo OrderNo TaskNo</text><line style="stroke: #A80036; stroke-width: 1.5;" x1="2706" x2="2757" y1="739.3096" y2="739.3096"/><text fill="#000000" font-family="sans-serif" font-size="11" lengthAdjust="spacingAndGlyphs" textLength="53" x="2757" y="742.9668">Structural</text><line style="stroke: #A80036; stroke-width: 1.5;" x1="2810" x2="2861" y1="739.3096" y2="739.3096"/><text fill="#000000" font-family="sans-serif" font-size="11" lengthAdjust="spacingAndGlyphs" textLength="45" x="2711" y="786.332">Platform</text><line style="stroke: #A80036; stroke-width: 1.5;" x1="2706" x2="2760.5" y1="769.2197" y2="769.2197"/><text fill="#000000" font-family="sans-serif" font-size="11" lengthAdjust="spacingAndGlyphs" textLength="46" x="2760.5" y="772.877">Location</text><line style="stroke: #A80036; stroke-width: 1.5;" x1="2806.5" x2="2861" y1="769.2197" y2="769.2197"/><!--class ConsumableBag--><rect fill="#FEFECE" filter="url(#fvfng84)" height="48" style="stroke: #A80036; stroke-width: 1.5;" width="124" x="2223" y="732.832"/><ellipse cx="2238" cy="748.832" fill="#9197DB" rx="11" ry="11" style="stroke: #A80036; stroke-width: 1.0;"/><path d="M2236.4033,750.2041 L2236.4033,753.873 L2238.0303,753.873 Q2239.2007,753.873 2239.6697,753.4746 Q2240.1387,753.0762 2240.1387,752.0884 Q2240.1387,751.084 2239.6489,750.644 Q2239.1592,750.2041 2238.0303,750.2041 Z M2236.4033,745.373 L2236.4033,748.2534 L2238.0303,748.2534 Q2238.96,748.2534 2239.3542,747.9214 Q2239.7485,747.5894 2239.7485,746.8257 Q2239.7485,746.062 2239.3459,745.7175 Q2238.9434,745.373 2238.0303,745.373 Z M2234.0376,743.4224 L2238.0303,743.4224 Q2240.0972,743.4224 2241.1389,744.2068 Q2242.1807,744.9912 2242.1807,746.5518 Q2242.1807,747.7471 2241.5664,748.4194 Q2240.9521,749.0918 2239.7651,749.1997 Q2241.1846,749.3408 2241.9026,750.1543 Q2242.6206,750.9678 2242.6206,752.4287 Q2242.6206,754.2217 2241.5415,755.0269 Q2240.4624,755.832 2238.0303,755.832 L2234.0376,755.832 Z "/><text fill="#000000" font-family="sans-serif" font-size="12" lengthAdjust="spacingAndGlyphs" textLength="92" x="2252" y="753.3672">ConsumableBag</text><line style="stroke: #A80036; stroke-width: 1.5;" x1="2224" x2="2346" y1="764.832" y2="764.832"/><line style="stroke: #A80036; stroke-width: 1.5;" x1="2224" x2="2346" y1="772.832" y2="772.832"/><!--class Pallet--><rect fill="#FEFECE" filter="url(#fvfng84)" height="48" style="stroke: #A80036; stroke-width: 1.5;" width="63" x="2253.5" y="629.832"/><ellipse cx="2268.5" cy="645.832" fill="#9197DB" rx="11" ry="11" style="stroke: #A80036; stroke-width: 1.0;"/><path d="M2266.9033,647.2041 L2266.9033,650.873 L2268.5303,650.873 Q2269.7007,650.873 2270.1697,650.4746 Q2270.6387,650.0762 2270.6387,649.0884 Q2270.6387,648.084 2270.1489,647.644 Q2269.6592,647.2041 2268.5303,647.2041 Z M2266.9033,642.373 L2266.9033,645.2534 L2268.5303,645.2534 Q2269.46,645.2534 2269.8542,644.9214 Q2270.2485,644.5894 2270.2485,643.8257 Q2270.2485,643.062 2269.8459,642.7175 Q2269.4434,642.373 2268.5303,642.373 Z M2264.5376,640.4224 L2268.5303,640.4224 Q2270.5972,640.4224 2271.6389,641.2068 Q2272.6807,641.9912 2272.6807,643.5518 Q2272.6807,644.7471 2272.0664,645.4194 Q2271.4521,646.0918 2270.2651,646.1997 Q2271.6846,646.3408 2272.4026,647.1543 Q2273.1206,647.9678 2273.1206,649.4287 Q2273.1206,651.2217 2272.0415,652.0269 Q2270.9624,652.832 2268.5303,652.832 L2264.5376,652.832 Z "/><text fill="#000000" font-family="sans-serif" font-size="12" lengthAdjust="spacingAndGlyphs" textLength="31" x="2282.5" y="650.3672">Pallet</text><line style="stroke: #A80036; stroke-width: 1.5;" x1="2254.5" x2="2315.5" y1="661.832" y2="661.832"/><line style="stroke: #A80036; stroke-width: 1.5;" x1="2254.5" x2="2315.5" y1="669.832" y2="669.832"/><!--class Sku--><rect fill="#FEFECE" filter="url(#fvfng84)" height="106.0859" style="stroke: #A80036; stroke-width: 1.5;" width="117" x="3172" y="689.832"/><ellipse cx="3198.25" cy="708.9648" fill="#ADD1B2" rx="11" ry="11" style="stroke: #A80036; stroke-width: 1.0;"/><path d="M3200.7231,715.1079 Q3200.1421,715.4067 3199.5029,715.5562 Q3198.8638,715.7056 3198.1582,715.7056 Q3195.6514,715.7056 3194.3315,714.0537 Q3193.0117,712.4019 3193.0117,709.2808 Q3193.0117,706.1514 3194.3315,704.4995 Q3195.6514,702.8477 3198.1582,702.8477 Q3198.8638,702.8477 3199.5112,702.9971 Q3200.1587,703.1465 3200.7231,703.4453 L3200.7231,706.168 Q3200.0923,705.5869 3199.4988,705.3171 Q3198.9053,705.0474 3198.2744,705.0474 Q3196.9297,705.0474 3196.2449,706.114 Q3195.5601,707.1807 3195.5601,709.2808 Q3195.5601,711.3726 3196.2449,712.4392 Q3196.9297,713.5059 3198.2744,713.5059 Q3198.9053,713.5059 3199.4988,713.2361 Q3200.0923,712.9663 3200.7231,712.3853 Z "/><text fill="#000000" font-family="sans-serif" font-size="12" font-style="italic" lengthAdjust="spacingAndGlyphs" textLength="64" x="3212.75" y="706.4336">«货品编号.»</text><text fill="#000000" font-family="sans-serif" font-size="12" lengthAdjust="spacingAndGlyphs" textLength="20" x="3234.75" y="720.5664">Sku</text><line style="stroke: #A80036; stroke-width: 1.5;" x1="3173" x2="3288" y1="728.0977" y2="728.0977"/><text fill="#000000" font-family="sans-serif" font-size="11" lengthAdjust="spacingAndGlyphs" textLength="105" x="3178" y="759.6875">OwnerNo PackCode</text><line style="stroke: #A80036; stroke-width: 1.5;" x1="3173" x2="3204" y1="742.5752" y2="742.5752"/><text fill="#000000" font-family="sans-serif" font-size="11" lengthAdjust="spacingAndGlyphs" textLength="53" x="3204" y="746.2324">Structural</text><line style="stroke: #A80036; stroke-width: 1.5;" x1="3257" x2="3288" y1="742.5752" y2="742.5752"/><text fill="#000000" font-family="sans-serif" font-size="11" lengthAdjust="spacingAndGlyphs" textLength="67" x="3178" y="789.5977">LotNo snList</text><line style="stroke: #A80036; stroke-width: 1.5;" x1="3173" x2="3201" y1="772.4854" y2="772.4854"/><text fill="#000000" font-family="sans-serif" font-size="11" lengthAdjust="spacingAndGlyphs" textLength="59" x="3201" y="776.1426">Contextual</text><line style="stroke: #A80036; stroke-width: 1.5;" x1="3260" x2="3288" y1="772.4854" y2="772.4854"/><!--class Container--><rect fill="#FEFECE" filter="url(#fvfng84)" height="106.0859" style="stroke: #A80036; stroke-width: 1.5;" width="139" x="3161.5" y="1101.832"/><ellipse cx="3197.65" cy="1120.9648" fill="#ADD1B2" rx="11" ry="11" style="stroke: #A80036; stroke-width: 1.0;"/><path d="M3200.1231,1127.1079 Q3199.5421,1127.4067 3198.9029,1127.5562 Q3198.2638,1127.7056 3197.5582,1127.7056 Q3195.0514,1127.7056 3193.7315,1126.0537 Q3192.4117,1124.4019 3192.4117,1121.2808 Q3192.4117,1118.1514 3193.7315,1116.4995 Q3195.0514,1114.8477 3197.5582,1114.8477 Q3198.2638,1114.8477 3198.9112,1114.9971 Q3199.5587,1115.1465 3200.1231,1115.4453 L3200.1231,1118.168 Q3199.4923,1117.5869 3198.8988,1117.3171 Q3198.3053,1117.0474 3197.6744,1117.0474 Q3196.3297,1117.0474 3195.6449,1118.114 Q3194.9601,1119.1807 3194.9601,1121.2808 Q3194.9601,1123.3726 3195.6449,1124.4392 Q3196.3297,1125.5059 3197.6744,1125.5059 Q3198.3053,1125.5059 3198.8988,1125.2361 Q3199.4923,1124.9663 3200.1231,1124.3853 Z "/><text fill="#000000" font-family="sans-serif" font-size="12" font-style="italic" lengthAdjust="spacingAndGlyphs" textLength="64" x="3214.35" y="1118.4336">«拣货容器.»</text><text fill="#000000" font-family="sans-serif" font-size="12" lengthAdjust="spacingAndGlyphs" textLength="55" x="3218.85" y="1132.5664">Container</text><line style="stroke: #A80036; stroke-width: 1.5;" x1="3162.5" x2="3299.5" y1="1140.0977" y2="1140.0977"/><text fill="#000000" font-family="sans-serif" font-size="11" lengthAdjust="spacingAndGlyphs" textLength="79" x="3167.5" y="1171.6875">ContainerType</text><line style="stroke: #A80036; stroke-width: 1.5;" x1="3162.5" x2="3199.5" y1="1154.5752" y2="1154.5752"/><text fill="#000000" font-family="sans-serif" font-size="11" lengthAdjust="spacingAndGlyphs" textLength="63" x="3199.5" y="1158.2324">Operational</text><line style="stroke: #A80036; stroke-width: 1.5;" x1="3262.5" x2="3299.5" y1="1154.5752" y2="1154.5752"/><text fill="#000000" font-family="sans-serif" font-size="11" lengthAdjust="spacingAndGlyphs" textLength="127" x="3167.5" y="1201.5977">containerNo/扫描枪可扫</text><line style="stroke: #A80036; stroke-width: 1.5;" x1="3162.5" x2="3219" y1="1184.4854" y2="1184.4854"/><text fill="#000000" font-family="sans-serif" font-size="11" lengthAdjust="spacingAndGlyphs" textLength="24" x="3219" y="1188.1426">DCU</text><line style="stroke: #A80036; stroke-width: 1.5;" x1="3243" x2="3299.5" y1="1184.4854" y2="1184.4854"/><!--class ContainerBag--><rect fill="#FEFECE" filter="url(#fvfng84)" height="121.7305" style="stroke: #A80036; stroke-width: 1.5;" width="222" x="2672" y="1076.832"/><ellipse cx="2740.75" cy="1092.832" fill="#9197DB" rx="11" ry="11" style="stroke: #A80036; stroke-width: 1.0;"/><path d="M2739.1533,1094.2041 L2739.1533,1097.873 L2740.7803,1097.873 Q2741.9507,1097.873 2742.4197,1097.4746 Q2742.8887,1097.0762 2742.8887,1096.0884 Q2742.8887,1095.084 2742.3989,1094.644 Q2741.9092,1094.2041 2740.7803,1094.2041 Z M2739.1533,1089.373 L2739.1533,1092.2534 L2740.7803,1092.2534 Q2741.71,1092.2534 2742.1042,1091.9214 Q2742.4985,1091.5894 2742.4985,1090.8257 Q2742.4985,1090.062 2742.0959,1089.7175 Q2741.6934,1089.373 2740.7803,1089.373 Z M2736.7876,1087.4224 L2740.7803,1087.4224 Q2742.8472,1087.4224 2743.8889,1088.2068 Q2744.9307,1088.9912 2744.9307,1090.5518 Q2744.9307,1091.7471 2744.3164,1092.4194 Q2743.7021,1093.0918 2742.5151,1093.1997 Q2743.9346,1093.3408 2744.6526,1094.1543 Q2745.3706,1094.9678 2745.3706,1096.4287 Q2745.3706,1098.2217 2744.2915,1099.0269 Q2743.2124,1099.832 2740.7803,1099.832 L2736.7876,1099.832 Z "/><text fill="#000000" font-family="sans-serif" font-size="12" lengthAdjust="spacingAndGlyphs" textLength="76" x="2761.25" y="1097.3672">ContainerBag</text><line style="stroke: #A80036; stroke-width: 1.5;" x1="2673" x2="2893" y1="1108.832" y2="1108.832"/><text fill="#000000" font-family="sans-serif" font-size="11" lengthAdjust="spacingAndGlyphs" textLength="186" x="2678" y="1140.4219">totalSku() 该容器的总商品种类(品数).</text><text fill="#000000" font-family="sans-serif" font-size="11" lengthAdjust="spacingAndGlyphs" textLength="145" x="2678" y="1153.377">totalQty() 该容器的总要货量.</text><text fill="#000000" font-family="sans-serif" font-size="11" lengthAdjust="spacingAndGlyphs" textLength="94" x="2678" y="1166.332">totalPendingQty()</text><text fill="#000000" font-family="sans-serif" font-size="11" lengthAdjust="spacingAndGlyphs" textLength="210" x="2678" y="1179.2871">pendingItemBag() 待复核的所有容器明细.</text><text fill="#000000" font-family="sans-serif" font-size="11" lengthAdjust="spacingAndGlyphs" textLength="152" x="2678" y="1192.2422">orderNoSet() 所有的出库单号.</text><line style="stroke: #A80036; stroke-width: 1.5;" x1="2673" x2="2772" y1="1123.3096" y2="1123.3096"/><text fill="#000000" font-family="sans-serif" font-size="11" lengthAdjust="spacingAndGlyphs" textLength="22" x="2772" y="1126.9668">规则</text><line style="stroke: #A80036; stroke-width: 1.5;" x1="2794" x2="2893" y1="1123.3096" y2="1123.3096"/><!--class ContainerItem--><rect fill="#FEFECE" filter="url(#fvfng84)" height="148.9512" style="stroke: #A80036; stroke-width: 1.5;" width="197" x="3898.5" y="1095.832"/><ellipse cx="3922.95" cy="1114.9648" fill="#ADD1B2" rx="11" ry="11" style="stroke: #A80036; stroke-width: 1.0;"/><path d="M3925.4231,1121.1079 Q3924.8421,1121.4067 3924.2029,1121.5562 Q3923.5638,1121.7056 3922.8582,1121.7056 Q3920.3514,1121.7056 3919.0315,1120.0537 Q3917.7117,1118.4019 3917.7117,1115.2808 Q3917.7117,1112.1514 3919.0315,1110.4995 Q3920.3514,1108.8477 3922.8582,1108.8477 Q3923.5638,1108.8477 3924.2112,1108.9971 Q3924.8587,1109.1465 3925.4231,1109.4453 L3925.4231,1112.168 Q3924.7923,1111.5869 3924.1988,1111.3171 Q3923.6053,1111.0474 3922.9744,1111.0474 Q3921.6297,1111.0474 3920.9449,1112.114 Q3920.2601,1113.1807 3920.2601,1115.2808 Q3920.2601,1117.3726 3920.9449,1118.4392 Q3921.6297,1119.5059 3922.9744,1119.5059 Q3923.6053,1119.5059 3924.1988,1119.2361 Q3924.7923,1118.9663 3925.4231,1118.3853 Z "/><text fill="#000000" font-family="sans-serif" font-size="12" font-style="italic" lengthAdjust="spacingAndGlyphs" textLength="148" x="3937.05" y="1112.4336">«拣货容器里的商品和数量.»</text><text fill="#000000" font-family="sans-serif" font-size="12" lengthAdjust="spacingAndGlyphs" textLength="80" x="3971.05" y="1126.5664">ContainerItem</text><line style="stroke: #A80036; stroke-width: 1.5;" x1="3899.5" x2="4094.5" y1="1134.0977" y2="1134.0977"/><text fill="#000000" font-family="sans-serif" font-size="11" lengthAdjust="spacingAndGlyphs" textLength="91" x="3904.5" y="1165.6875">OrderLineNo Sku</text><line style="stroke: #A80036; stroke-width: 1.5;" x1="3899.5" x2="3970.5" y1="1148.5752" y2="1148.5752"/><text fill="#000000" font-family="sans-serif" font-size="11" lengthAdjust="spacingAndGlyphs" textLength="53" x="3970.5" y="1152.2324">Structural</text><line style="stroke: #A80036; stroke-width: 1.5;" x1="4023.5" x2="4094.5" y1="1148.5752" y2="1148.5752"/><text fill="#000000" font-family="sans-serif" font-size="11" lengthAdjust="spacingAndGlyphs" textLength="185" x="3904.5" y="1195.5977">expectedQty givenQty pendingQty</text><line style="stroke: #A80036; stroke-width: 1.5;" x1="3899.5" x2="3974" y1="1178.4854" y2="1178.4854"/><text fill="#000000" font-family="sans-serif" font-size="11" lengthAdjust="spacingAndGlyphs" textLength="46" x="3974" y="1182.1426">Quantity</text><line style="stroke: #A80036; stroke-width: 1.5;" x1="4020" x2="4094.5" y1="1178.4854" y2="1178.4854"/><text fill="#000000" font-family="sans-serif" font-size="11" lengthAdjust="spacingAndGlyphs" textLength="172" x="3904.5" y="1225.5078">diffQty() 复核作业发现的差异数量.</text><text fill="#000000" font-family="sans-serif" font-size="11" lengthAdjust="spacingAndGlyphs" textLength="35" x="3904.5" y="1238.4629">done()</text><line style="stroke: #A80036; stroke-width: 1.5;" x1="3899.5" x2="3986" y1="1208.3955" y2="1208.3955"/><text fill="#000000" font-family="sans-serif" font-size="11" lengthAdjust="spacingAndGlyphs" textLength="22" x="3986" y="1212.0527">规则</text><line style="stroke: #A80036; stroke-width: 1.5;" x1="4008" x2="4094.5" y1="1208.3955" y2="1208.3955"/><!--class ContainerItemBag--><rect fill="#FEFECE" filter="url(#fvfng84)" height="95.8203" style="stroke: #A80036; stroke-width: 1.5;" width="198" x="3533" y="1116.832"/><ellipse cx="3577.25" cy="1132.832" fill="#9197DB" rx="11" ry="11" style="stroke: #A80036; stroke-width: 1.0;"/><path d="M3575.6533,1134.2041 L3575.6533,1137.873 L3577.2803,1137.873 Q3578.4507,1137.873 3578.9197,1137.4746 Q3579.3887,1137.0762 3579.3887,1136.0884 Q3579.3887,1135.084 3578.8989,1134.644 Q3578.4092,1134.2041 3577.2803,1134.2041 Z M3575.6533,1129.373 L3575.6533,1132.2534 L3577.2803,1132.2534 Q3578.21,1132.2534 3578.6042,1131.9214 Q3578.9985,1131.5894 3578.9985,1130.8257 Q3578.9985,1130.062 3578.5959,1129.7175 Q3578.1934,1129.373 3577.2803,1129.373 Z M3573.2876,1127.4224 L3577.2803,1127.4224 Q3579.3472,1127.4224 3580.3889,1128.2068 Q3581.4307,1128.9912 3581.4307,1130.5518 Q3581.4307,1131.7471 3580.8164,1132.4194 Q3580.2021,1133.0918 3579.0151,1133.1997 Q3580.4346,1133.3408 3581.1526,1134.1543 Q3581.8706,1134.9678 3581.8706,1136.4287 Q3581.8706,1138.2217 3580.7915,1139.0269 Q3579.7124,1139.832 3577.2803,1139.832 L3573.2876,1139.832 Z "/><text fill="#000000" font-family="sans-serif" font-size="12" lengthAdjust="spacingAndGlyphs" textLength="101" x="3597.75" y="1137.3672">ContainerItemBag</text><line style="stroke: #A80036; stroke-width: 1.5;" x1="3534" x2="3730" y1="1148.832" y2="1148.832"/><text fill="#000000" font-family="sans-serif" font-size="11" lengthAdjust="spacingAndGlyphs" textLength="186" x="3539" y="1180.4219">totalSku() 该容器的总商品种类(品数).</text><text fill="#000000" font-family="sans-serif" font-size="11" lengthAdjust="spacingAndGlyphs" textLength="134" x="3539" y="1193.377">totalQty() 该容器的总货量.</text><text fill="#000000" font-family="sans-serif" font-size="11" lengthAdjust="spacingAndGlyphs" textLength="94" x="3539" y="1206.332">totalPendingQty()</text><line style="stroke: #A80036; stroke-width: 1.5;" x1="3534" x2="3621" y1="1163.3096" y2="1163.3096"/><text fill="#000000" font-family="sans-serif" font-size="11" lengthAdjust="spacingAndGlyphs" textLength="22" x="3621" y="1166.9668">规则</text><line style="stroke: #A80036; stroke-width: 1.5;" x1="3643" x2="3730" y1="1163.3096" y2="1163.3096"/><!--class Task--><rect fill="#FEFECE" filter="url(#fvfng84)" height="135.9961" style="stroke: #A80036; stroke-width: 1.5;" width="92" x="2239" y="1068.832"/><ellipse cx="2254" cy="1087.9648" fill="#FF7700" rx="11" ry="11" style="stroke: #A80036; stroke-width: 1.0;"/><path d="M2254.6987,1088.6128 Q2255.064,1088.6875 2255.3337,1088.9573 Q2255.6035,1089.2271 2255.9937,1090.0073 L2258.2349,1094.4648 L2255.5454,1094.4648 L2254.0513,1091.3354 Q2253.9849,1091.2026 2253.877,1090.9702 Q2253.2212,1089.5674 2252.333,1089.5674 L2251.5527,1089.5674 L2251.5527,1094.4648 L2249.104,1094.4648 L2249.104,1082.0718 L2252.6401,1082.0718 Q2255.0308,1082.0718 2256.0725,1082.9185 Q2257.1143,1083.7651 2257.1143,1085.6743 Q2257.1143,1086.9526 2256.4917,1087.708 Q2255.8691,1088.4634 2254.6987,1088.6128 Z M2251.5527,1084.1304 L2251.5527,1087.5088 L2252.7065,1087.5088 Q2253.7109,1087.5088 2254.1467,1087.1145 Q2254.5825,1086.7202 2254.5825,1085.8154 Q2254.5825,1084.9106 2254.1509,1084.5205 Q2253.7192,1084.1304 2252.7065,1084.1304 Z "/><text fill="#000000" font-family="sans-serif" font-size="12" font-style="italic" lengthAdjust="spacingAndGlyphs" textLength="64" x="2266" y="1085.4336">«复核任务.»</text><text fill="#000000" font-family="sans-serif" font-size="12" lengthAdjust="spacingAndGlyphs" textLength="28" x="2284" y="1099.5664">Task</text><line style="stroke: #A80036; stroke-width: 1.5;" x1="2240" x2="2330" y1="1107.0977" y2="1107.0977"/><text fill="#000000" font-family="sans-serif" font-size="11" lengthAdjust="spacingAndGlyphs" textLength="58" x="2245" y="1138.6875">TaskStatus</text><line style="stroke: #A80036; stroke-width: 1.5;" x1="2240" x2="2262" y1="1121.5752" y2="1121.5752"/><text fill="#000000" font-family="sans-serif" font-size="11" lengthAdjust="spacingAndGlyphs" textLength="46" x="2262" y="1125.2324">Lifecycle</text><line style="stroke: #A80036; stroke-width: 1.5;" x1="2308" x2="2330" y1="1121.5752" y2="1121.5752"/><text fill="#000000" font-family="sans-serif" font-size="11" lengthAdjust="spacingAndGlyphs" textLength="45" x="2245" y="1168.5977">Platform</text><line style="stroke: #A80036; stroke-width: 1.5;" x1="2240" x2="2262" y1="1151.4854" y2="1151.4854"/><text fill="#000000" font-family="sans-serif" font-size="11" lengthAdjust="spacingAndGlyphs" textLength="46" x="2262" y="1155.1426">Location</text><line style="stroke: #A80036; stroke-width: 1.5;" x1="2308" x2="2330" y1="1151.4854" y2="1151.4854"/><text fill="#000000" font-family="sans-serif" font-size="11" lengthAdjust="spacingAndGlyphs" textLength="72" x="2245" y="1198.5078">claimedWith()</text><line style="stroke: #A80036; stroke-width: 1.5;" x1="2240" x2="2274" y1="1181.3955" y2="1181.3955"/><text fill="#000000" font-family="sans-serif" font-size="11" lengthAdjust="spacingAndGlyphs" textLength="22" x="2274" y="1185.0527">行为</text><line style="stroke: #A80036; stroke-width: 1.5;" x1="2296" x2="2330" y1="1181.3955" y2="1181.3955"/><!--class TaskBag--><rect fill="#FEFECE" filter="url(#fvfng84)" height="69.9102" style="stroke: #A80036; stroke-width: 1.5;" width="460" x="1392" y="902.832"/><ellipse cx="1593.25" cy="918.832" fill="#9197DB" rx="11" ry="11" style="stroke: #A80036; stroke-width: 1.0;"/><path d="M1591.6533,920.2041 L1591.6533,923.873 L1593.2803,923.873 Q1594.4507,923.873 1594.9197,923.4746 Q1595.3887,923.0762 1595.3887,922.0884 Q1595.3887,921.084 1594.8989,920.644 Q1594.4092,920.2041 1593.2803,920.2041 Z M1591.6533,915.373 L1591.6533,918.2534 L1593.2803,918.2534 Q1594.21,918.2534 1594.6042,917.9214 Q1594.9985,917.5894 1594.9985,916.8257 Q1594.9985,916.062 1594.5959,915.7175 Q1594.1934,915.373 1593.2803,915.373 Z M1589.2876,913.4224 L1593.2803,913.4224 Q1595.3472,913.4224 1596.3889,914.2068 Q1597.4307,914.9912 1597.4307,916.5518 Q1597.4307,917.7471 1596.8164,918.4194 Q1596.2021,919.0918 1595.0151,919.1997 Q1596.4346,919.3408 1597.1526,920.1543 Q1597.8706,920.9678 1597.8706,922.4287 Q1597.8706,924.2217 1596.7915,925.0269 Q1595.7124,925.832 1593.2803,925.832 L1589.2876,925.832 Z "/><text fill="#000000" font-family="sans-serif" font-size="12" lengthAdjust="spacingAndGlyphs" textLength="49" x="1613.75" y="923.3672">TaskBag</text><line style="stroke: #A80036; stroke-width: 1.5;" x1="1393" x2="1851" y1="934.832" y2="934.832"/><text fill="#000000" font-family="sans-serif" font-size="11" lengthAdjust="spacingAndGlyphs" textLength="304" x="1398" y="966.4219">recommendByTaskBacklog(RecommendPlatformRequest)</text><text fill="#808000" font-family="sans-serif" font-size="11" lengthAdjust="spacingAndGlyphs" textLength="135" x="1708" y="966.4219">RecommendPlatformFlow</text><line style="stroke: #A80036; stroke-width: 1.5;" x1="1393" x2="1611" y1="949.3096" y2="949.3096"/><text fill="#000000" font-family="sans-serif" font-size="11" lengthAdjust="spacingAndGlyphs" textLength="22" x="1611" y="952.9668">流程</text><line style="stroke: #A80036; stroke-width: 1.5;" x1="1633" x2="1851" y1="949.3096" y2="949.3096"/><!--class TaskOfContainer--><rect fill="#FEFECE" filter="url(#fvfng84)" height="48" style="stroke: #A80036; stroke-width: 1.5;" width="128" x="1558" y="1112.832"/><ellipse cx="1573" cy="1128.832" fill="#9197DB" rx="11" ry="11" style="stroke: #A80036; stroke-width: 1.0;"/><path d="M1571.4033,1130.2041 L1571.4033,1133.873 L1573.0303,1133.873 Q1574.2007,1133.873 1574.6697,1133.4746 Q1575.1387,1133.0762 1575.1387,1132.0884 Q1575.1387,1131.084 1574.6489,1130.644 Q1574.1592,1130.2041 1573.0303,1130.2041 Z M1571.4033,1125.373 L1571.4033,1128.2534 L1573.0303,1128.2534 Q1573.96,1128.2534 1574.3542,1127.9214 Q1574.7485,1127.5894 1574.7485,1126.8257 Q1574.7485,1126.062 1574.3459,1125.7175 Q1573.9434,1125.373 1573.0303,1125.373 Z M1569.0376,1123.4224 L1573.0303,1123.4224 Q1575.0972,1123.4224 1576.1389,1124.2068 Q1577.1807,1124.9912 1577.1807,1126.5518 Q1577.1807,1127.7471 1576.5664,1128.4194 Q1575.9521,1129.0918 1574.7651,1129.1997 Q1576.1846,1129.3408 1576.9026,1130.1543 Q1577.6206,1130.9678 1577.6206,1132.4287 Q1577.6206,1134.2217 1576.5415,1135.0269 Q1575.4624,1135.832 1573.0303,1135.832 L1569.0376,1135.832 Z "/><text fill="#000000" font-family="sans-serif" font-size="12" lengthAdjust="spacingAndGlyphs" textLength="96" x="1587" y="1133.3672">TaskOfContainer</text><line style="stroke: #A80036; stroke-width: 1.5;" x1="1559" x2="1685" y1="1144.832" y2="1144.832"/><line style="stroke: #A80036; stroke-width: 1.5;" x1="1559" x2="1685" y1="1152.832" y2="1152.832"/><!--class TaskOfOrder--><rect fill="#FEFECE" filter="url(#fvfng84)" height="69.9102" style="stroke: #A80036; stroke-width: 1.5;" width="107" x="1568.5" y="1195.832"/><ellipse cx="1583.5" cy="1211.832" fill="#9197DB" rx="11" ry="11" style="stroke: #A80036; stroke-width: 1.0;"/><path d="M1581.9033,1213.2041 L1581.9033,1216.873 L1583.5303,1216.873 Q1584.7007,1216.873 1585.1697,1216.4746 Q1585.6387,1216.0762 1585.6387,1215.0884 Q1585.6387,1214.084 1585.1489,1213.644 Q1584.6592,1213.2041 1583.5303,1213.2041 Z M1581.9033,1208.373 L1581.9033,1211.2534 L1583.5303,1211.2534 Q1584.46,1211.2534 1584.8542,1210.9214 Q1585.2485,1210.5894 1585.2485,1209.8257 Q1585.2485,1209.062 1584.8459,1208.7175 Q1584.4434,1208.373 1583.5303,1208.373 Z M1579.5376,1206.4224 L1583.5303,1206.4224 Q1585.5972,1206.4224 1586.6389,1207.2068 Q1587.6807,1207.9912 1587.6807,1209.5518 Q1587.6807,1210.7471 1587.0664,1211.4194 Q1586.4521,1212.0918 1585.2651,1212.1997 Q1586.6846,1212.3408 1587.4026,1213.1543 Q1588.1206,1213.9678 1588.1206,1215.4287 Q1588.1206,1217.2217 1587.0415,1218.0269 Q1585.9624,1218.832 1583.5303,1218.832 L1579.5376,1218.832 Z "/><text fill="#000000" font-family="sans-serif" font-size="12" lengthAdjust="spacingAndGlyphs" textLength="75" x="1597.5" y="1216.3672">TaskOfOrder</text><line style="stroke: #A80036; stroke-width: 1.5;" x1="1569.5" x2="1674.5" y1="1227.832" y2="1227.832"/><text fill="#000000" font-family="sans-serif" font-size="11" lengthAdjust="spacingAndGlyphs" textLength="69" x="1574.5" y="1259.4219">confirmQty()</text><line style="stroke: #A80036; stroke-width: 1.5;" x1="1569.5" x2="1611" y1="1242.3096" y2="1242.3096"/><text fill="#000000" font-family="sans-serif" font-size="11" lengthAdjust="spacingAndGlyphs" textLength="22" x="1611" y="1245.9668">行为</text><line style="stroke: #A80036; stroke-width: 1.5;" x1="1633" x2="1674.5" y1="1242.3096" y2="1242.3096"/><!--class TaskOfSku--><rect fill="#FEFECE" filter="url(#fvfng84)" height="69.9102" style="stroke: #A80036; stroke-width: 1.5;" width="93" x="1575.5" y="1007.832"/><ellipse cx="1590.5" cy="1023.832" fill="#9197DB" rx="11" ry="11" style="stroke: #A80036; stroke-width: 1.0;"/><path d="M1588.9033,1025.2041 L1588.9033,1028.873 L1590.5303,1028.873 Q1591.7007,1028.873 1592.1697,1028.4746 Q1592.6387,1028.0762 1592.6387,1027.0884 Q1592.6387,1026.084 1592.1489,1025.644 Q1591.6592,1025.2041 1590.5303,1025.2041 Z M1588.9033,1020.373 L1588.9033,1023.2534 L1590.5303,1023.2534 Q1591.46,1023.2534 1591.8542,1022.9214 Q1592.2485,1022.5894 1592.2485,1021.8257 Q1592.2485,1021.062 1591.8459,1020.7175 Q1591.4434,1020.373 1590.5303,1020.373 Z M1586.5376,1018.4224 L1590.5303,1018.4224 Q1592.5972,1018.4224 1593.6389,1019.2068 Q1594.6807,1019.9912 1594.6807,1021.5518 Q1594.6807,1022.7471 1594.0664,1023.4194 Q1593.4521,1024.0918 1592.2651,1024.1997 Q1593.6846,1024.3408 1594.4026,1025.1543 Q1595.1206,1025.9678 1595.1206,1027.4287 Q1595.1206,1029.2217 1594.0415,1030.0269 Q1592.9624,1030.832 1590.5303,1030.832 L1586.5376,1030.832 Z "/><text fill="#000000" font-family="sans-serif" font-size="12" lengthAdjust="spacingAndGlyphs" textLength="61" x="1604.5" y="1028.3672">TaskOfSku</text><line style="stroke: #A80036; stroke-width: 1.5;" x1="1576.5" x2="1667.5" y1="1039.832" y2="1039.832"/><text fill="#000000" font-family="sans-serif" font-size="11" lengthAdjust="spacingAndGlyphs" textLength="69" x="1581.5" y="1071.4219">confirmQty()</text><line style="stroke: #A80036; stroke-width: 1.5;" x1="1576.5" x2="1611" y1="1054.3096" y2="1054.3096"/><text fill="#000000" font-family="sans-serif" font-size="11" lengthAdjust="spacingAndGlyphs" textLength="22" x="1611" y="1057.9668">行为</text><line style="stroke: #A80036; stroke-width: 1.5;" x1="1633" x2="1667.5" y1="1054.3096" y2="1054.3096"/><!--class OrderLineManifest--><rect fill="#FEFECE" filter="url(#fvfng84)" height="69.9102" style="stroke: #A80036; stroke-width: 1.5;" width="137" x="1554" y="2057.832"/><ellipse cx="1569" cy="2073.832" fill="#ADD1B2" rx="11" ry="11" style="stroke: #A80036; stroke-width: 1.0;"/><path d="M1571.4731,2079.9751 Q1570.8921,2080.2739 1570.2529,2080.4233 Q1569.6138,2080.5728 1568.9082,2080.5728 Q1566.4014,2080.5728 1565.0815,2078.9209 Q1563.7617,2077.269 1563.7617,2074.1479 Q1563.7617,2071.0186 1565.0815,2069.3667 Q1566.4014,2067.7148 1568.9082,2067.7148 Q1569.6138,2067.7148 1570.2612,2067.8643 Q1570.9087,2068.0137 1571.4731,2068.3125 L1571.4731,2071.0352 Q1570.8423,2070.4541 1570.2488,2070.1843 Q1569.6553,2069.9146 1569.0244,2069.9146 Q1567.6797,2069.9146 1566.9949,2070.9812 Q1566.3101,2072.0479 1566.3101,2074.1479 Q1566.3101,2076.2397 1566.9949,2077.3064 Q1567.6797,2078.373 1569.0244,2078.373 Q1569.6553,2078.373 1570.2488,2078.1033 Q1570.8423,2077.8335 1571.4731,2077.2524 Z "/><text fill="#000000" font-family="sans-serif" font-size="12" lengthAdjust="spacingAndGlyphs" textLength="105" x="1583" y="2078.3672">OrderLineManifest</text><line style="stroke: #A80036; stroke-width: 1.5;" x1="1555" x2="1690" y1="2089.832" y2="2089.832"/><text fill="#000000" font-family="sans-serif" font-size="11" lengthAdjust="spacingAndGlyphs" textLength="91" x="1560" y="2121.4219">OrderLineNo Sku</text><line style="stroke: #A80036; stroke-width: 1.5;" x1="1555" x2="1596" y1="2104.3096" y2="2104.3096"/><text fill="#000000" font-family="sans-serif" font-size="11" lengthAdjust="spacingAndGlyphs" textLength="53" x="1596" y="2107.9668">Structural</text><line style="stroke: #A80036; stroke-width: 1.5;" x1="1649" x2="1690" y1="2104.3096" y2="2104.3096"/><!--class OrderManifest--><rect fill="#FEFECE" filter="url(#fvfng84)" height="69.9102" style="stroke: #A80036; stroke-width: 1.5;" width="114" x="902.5" y="2057.832"/><ellipse cx="917.5" cy="2073.832" fill="#ADD1B2" rx="11" ry="11" style="stroke: #A80036; stroke-width: 1.0;"/><path d="M919.9731,2079.9751 Q919.3921,2080.2739 918.7529,2080.4233 Q918.1138,2080.5728 917.4082,2080.5728 Q914.9014,2080.5728 913.5815,2078.9209 Q912.2617,2077.269 912.2617,2074.1479 Q912.2617,2071.0186 913.5815,2069.3667 Q914.9014,2067.7148 917.4082,2067.7148 Q918.1138,2067.7148 918.7612,2067.8643 Q919.4087,2068.0137 919.9731,2068.3125 L919.9731,2071.0352 Q919.3423,2070.4541 918.7488,2070.1843 Q918.1553,2069.9146 917.5244,2069.9146 Q916.1797,2069.9146 915.4949,2070.9812 Q914.8101,2072.0479 914.8101,2074.1479 Q914.8101,2076.2397 915.4949,2077.3064 Q916.1797,2078.373 917.5244,2078.373 Q918.1553,2078.373 918.7488,2078.1033 Q919.3423,2077.8335 919.9731,2077.2524 Z "/><text fill="#000000" font-family="sans-serif" font-size="12" lengthAdjust="spacingAndGlyphs" textLength="82" x="931.5" y="2078.3672">OrderManifest</text><line style="stroke: #A80036; stroke-width: 1.5;" x1="903.5" x2="1015.5" y1="2089.832" y2="2089.832"/><text fill="#000000" font-family="sans-serif" font-size="11" lengthAdjust="spacingAndGlyphs" textLength="47" x="908.5" y="2121.4219">OrderNo</text><line style="stroke: #A80036; stroke-width: 1.5;" x1="903.5" x2="933" y1="2104.3096" y2="2104.3096"/><text fill="#000000" font-family="sans-serif" font-size="11" lengthAdjust="spacingAndGlyphs" textLength="53" x="933" y="2107.9668">Structural</text><line style="stroke: #A80036; stroke-width: 1.5;" x1="986" x2="1015.5" y1="2104.3096" y2="2104.3096"/><!--class ShippingManifest--><rect fill="#FEFECE" filter="url(#fvfng84)" height="99.8203" style="stroke: #A80036; stroke-width: 1.5;" width="129" x="297.5" y="2053.832"/><ellipse cx="312.5" cy="2069.832" fill="#FF7700" rx="11" ry="11" style="stroke: #A80036; stroke-width: 1.0;"/><path d="M313.1987,2070.48 Q313.564,2070.5547 313.8337,2070.8245 Q314.1035,2071.0942 314.4937,2071.8745 L316.7349,2076.332 L314.0454,2076.332 L312.5513,2073.2026 Q312.4849,2073.0698 312.377,2072.8374 Q311.7212,2071.4346 310.833,2071.4346 L310.0527,2071.4346 L310.0527,2076.332 L307.604,2076.332 L307.604,2063.939 L311.1401,2063.939 Q313.5308,2063.939 314.5725,2064.7856 Q315.6143,2065.6323 315.6143,2067.5415 Q315.6143,2068.8198 314.9917,2069.5752 Q314.3691,2070.3306 313.1987,2070.48 Z M310.0527,2065.9976 L310.0527,2069.376 L311.2065,2069.376 Q312.2109,2069.376 312.6467,2068.9817 Q313.0825,2068.5874 313.0825,2067.6826 Q313.0825,2066.7778 312.6509,2066.3877 Q312.2192,2065.9976 311.2065,2065.9976 Z "/><text fill="#000000" font-family="sans-serif" font-size="12" lengthAdjust="spacingAndGlyphs" textLength="97" x="326.5" y="2074.3672">ShippingManifest</text><line style="stroke: #A80036; stroke-width: 1.5;" x1="298.5" x2="425.5" y1="2085.832" y2="2085.832"/><text fill="#000000" font-family="sans-serif" font-size="11" lengthAdjust="spacingAndGlyphs" textLength="51" x="303.5" y="2117.4219">carrierNo</text><line style="stroke: #A80036; stroke-width: 1.5;" x1="298.5" x2="335.5" y1="2100.3096" y2="2100.3096"/><text fill="#000000" font-family="sans-serif" font-size="11" lengthAdjust="spacingAndGlyphs" textLength="53" x="335.5" y="2103.9668">Structural</text><line style="stroke: #A80036; stroke-width: 1.5;" x1="388.5" x2="425.5" y1="2100.3096" y2="2100.3096"/><text fill="#000000" font-family="sans-serif" font-size="11" lengthAdjust="spacingAndGlyphs" textLength="38" x="303.5" y="2147.332">extInfo</text><line style="stroke: #A80036; stroke-width: 1.5;" x1="298.5" x2="337.5" y1="2130.2197" y2="2130.2197"/><text fill="#000000" font-family="sans-serif" font-size="11" lengthAdjust="spacingAndGlyphs" textLength="49" x="337.5" y="2133.877">Reserved</text><line style="stroke: #A80036; stroke-width: 1.5;" x1="386.5" x2="425.5" y1="2130.2197" y2="2130.2197"/><!--class ManualCheckAppService--><rect fill="#FEFECE" filter="url(#fvfng84)" height="125.7305" style="stroke: #A80036; stroke-width: 1.5;" width="647" x="38" y="110.832"/><ellipse cx="287.25" cy="126.832" fill="#ADD1B2" rx="11" ry="11" style="stroke: #A80036; stroke-width: 1.0;"/><path d="M289.7231,132.9751 Q289.1421,133.2739 288.5029,133.4233 Q287.8638,133.5728 287.1582,133.5728 Q284.6514,133.5728 283.3315,131.9209 Q282.0117,130.269 282.0117,127.1479 Q282.0117,124.0186 283.3315,122.3667 Q284.6514,120.7148 287.1582,120.7148 Q287.8638,120.7148 288.5112,120.8643 Q289.1587,121.0137 289.7231,121.3125 L289.7231,124.0352 Q289.0923,123.4541 288.4988,123.1843 Q287.9053,122.9146 287.2744,122.9146 Q285.9297,122.9146 285.2449,123.9812 Q284.5601,125.0479 284.5601,127.1479 Q284.5601,129.2397 285.2449,130.3064 Q285.9297,131.373 287.2744,131.373 Q287.9053,131.373 288.4988,131.1033 Q289.0923,130.8335 289.7231,130.2524 Z "/><text fill="#000000" font-family="sans-serif" font-size="12" lengthAdjust="spacingAndGlyphs" textLength="140" x="307.75" y="131.3672">ManualCheckAppService</text><line style="stroke: #A80036; stroke-width: 1.5;" x1="39" x2="684" y1="142.832" y2="142.832"/><line style="stroke: #A80036; stroke-width: 1.5;" x1="39" x2="684" y1="150.832" y2="150.832"/><text fill="#000000" font-family="sans-serif" font-size="11" lengthAdjust="spacingAndGlyphs" textLength="338" x="44" y="165.4668">recommendPlatform(taskNo) 拣货员应该去哪一个复核台进行复核?</text><text fill="#000000" font-family="sans-serif" font-size="11" lengthAdjust="spacingAndGlyphs" textLength="276" x="44" y="178.4219">claimTask(containerNo) 复核员扫描容器领取复核任务.</text><text fill="#000000" font-family="sans-serif" font-size="11" lengthAdjust="spacingAndGlyphs" textLength="273" x="44" y="191.377">checkBySku(qty,skuNo) 复核装箱一体化：按货品维度.</text><text fill="#000000" font-family="sans-serif" font-size="11" lengthAdjust="spacingAndGlyphs" textLength="461" x="44" y="204.332">checkByOrder(orderNo) 把一个出库单的所有货品一次性放到入参指定的纸箱：爆品订单复核</text><text fill="#000000" font-family="sans-serif" font-size="11" lengthAdjust="spacingAndGlyphs" textLength="190" x="44" y="217.2871">recheck(cartonNo,taskNo) 重新复核.</text><text fill="#000000" font-family="sans-serif" font-size="11" lengthAdjust="spacingAndGlyphs" textLength="635" x="44" y="230.2422">fulfillCarton(cartonNo,consumables,orderNo) 复核员把拣货容器的货品放入箱，并使用耗材以便运输安全，该过程发现箱已满.</text><!--class TaskSubmittedConsumer--><rect fill="#FEFECE" filter="url(#fvfng84)" height="60.9551" style="stroke: #A80036; stroke-width: 1.5;" width="176" x="273.5" y="272.332"/><ellipse cx="288.5" cy="288.332" fill="#ADD1B2" rx="11" ry="11" style="stroke: #A80036; stroke-width: 1.0;"/><path d="M290.9731,294.4751 Q290.3921,294.7739 289.7529,294.9233 Q289.1138,295.0728 288.4082,295.0728 Q285.9014,295.0728 284.5815,293.4209 Q283.2617,291.769 283.2617,288.6479 Q283.2617,285.5186 284.5815,283.8667 Q285.9014,282.2148 288.4082,282.2148 Q289.1138,282.2148 289.7612,282.3643 Q290.4087,282.5137 290.9731,282.8125 L290.9731,285.5352 Q290.3423,284.9541 289.7488,284.6843 Q289.1553,284.4146 288.5244,284.4146 Q287.1797,284.4146 286.4949,285.4812 Q285.8101,286.5479 285.8101,288.6479 Q285.8101,290.7397 286.4949,291.8064 Q287.1797,292.873 288.5244,292.873 Q289.1553,292.873 289.7488,292.6033 Q290.3423,292.3335 290.9731,291.7524 Z "/><text fill="#000000" font-family="sans-serif" font-size="12" lengthAdjust="spacingAndGlyphs" textLength="144" x="302.5" y="292.8672">TaskSubmittedConsumer</text><line style="stroke: #A80036; stroke-width: 1.5;" x1="274.5" x2="448.5" y1="304.332" y2="304.332"/><line style="stroke: #A80036; stroke-width: 1.5;" x1="274.5" x2="448.5" y1="312.332" y2="312.332"/><text fill="#000000" font-family="sans-serif" font-size="11" lengthAdjust="spacingAndGlyphs" textLength="119" x="279.5" y="326.9668">消费接收复核任务(json)</text><polygon fill="#FFFFFF" filter="url(#fvfng84)" points="288,2229.332,392,2229.332,399,2251.8203,435,2251.8203,435,2282.3086,288,2282.3086,288,2229.332" style="stroke: #000000; stroke-width: 2.0;"/><line style="stroke: #000000; stroke-width: 2.0;" x1="288" x2="399" y1="2251.8203" y2="2251.8203"/><text fill="#000000" font-family="sans-serif" font-size="14" font-weight="bold" lengthAdjust="spacingAndGlyphs" textLength="98" x="292" y="2244.8672">跨聚合复杂流程</text><text fill="#000000" font-family="sans-serif" font-size="14" font-style="italic" lengthAdjust="spacingAndGlyphs" textLength="125" x="303" y="2267.3555">«Orphan Services»</text><path d="M2510.91,1831.532 C2565.64,1842.902 2621.89,1854.582 2668.87,1864.342 " fill="none" style="stroke: #A80036; stroke-width: 1.0;"/><polygon fill="#A80036" points="2498.15,1828.882,2503.2115,1834.0183,2509.8994,1831.3216,2504.8379,1826.1853,2498.15,1828.882" style="stroke: #A80036; stroke-width: 1.0;"/><text fill="#000000" font-family="sans-serif" font-size="13" lengthAdjust="spacingAndGlyphs" textLength="49" x="2559" y="1839.4004">HasOne</text><text fill="#000000" font-family="sans-serif" font-size="13" lengthAdjust="spacingAndGlyphs" textLength="8" x="2506.163" y="1845.4161">1</text><text fill="#000000" font-family="sans-serif" font-size="13" lengthAdjust="spacingAndGlyphs" textLength="8" x="2652.9331" y="1875.8495">1</text><path d="M2058.99,1834.832 C1954.08,1858.152 1852,1880.832 1852,1880.832 C1852,1880.832 1368,1880.832 1368,1880.832 C1368,1880.832 1110.18,1483.802 1005.2,1322.122 " fill="none" style="stroke: #A80036; stroke-width: 1.0;"/><polygon fill="#A80036" points="2071.8,1831.992,2065.0767,1829.3849,2060.0842,1834.5882,2066.8075,1837.1954,2071.8,1831.992" style="stroke: #A80036; stroke-width: 1.0;"/><text fill="#000000" font-family="sans-serif" font-size="13" lengthAdjust="spacingAndGlyphs" textLength="57" x="1593.5" y="1877.4004">HasMany</text><text fill="#000000" font-family="sans-serif" font-size="13" lengthAdjust="spacingAndGlyphs" textLength="8" x="2055.9944" y="1846.5336">1</text><text fill="#000000" font-family="sans-serif" font-size="13" lengthAdjust="spacingAndGlyphs" textLength="10" x="999.8481" y="1343.3562">N</text><path d="M2511.42,1779.382 C2582.66,1777.652 2656.42,1775.872 2708.89,1774.602 " fill="none" style="stroke: #A80036; stroke-width: 1.0;"/><polygon fill="#FFFFFF" points="2498.15,1779.702,2504.2449,1783.5559,2510.1465,1779.412,2504.0516,1775.5582,2498.15,1779.702" style="stroke: #A80036; stroke-width: 1.0;"/><text fill="#000000" font-family="sans-serif" font-size="13" lengthAdjust="spacingAndGlyphs" textLength="61" x="2553" y="1774.4004">Associate</text><path d="M2511.25,1741.692 C2581.62,1728.212 2654.46,1714.262 2706.84,1704.232 " fill="none" style="stroke: #A80036; stroke-width: 1.0;"/><polygon fill="#FFFFFF" points="2498.15,1744.202,2504.7946,1747.0036,2509.9363,1741.9476,2503.2917,1739.146,2498.15,1744.202" style="stroke: #A80036; stroke-width: 1.0;"/><text fill="#000000" font-family="sans-serif" font-size="13" lengthAdjust="spacingAndGlyphs" textLength="61" x="2553" y="1720.4004">Associate</text><path d="M2909.93,1850.322 C2984.06,1828.242 3075.99,1800.852 3142.37,1781.082 " fill="none" style="stroke: #A80036; stroke-width: 1.0;"/><polygon fill="#A80036" points="2897.25,1854.102,2904.1421,1856.223,2908.7508,1850.6768,2901.8587,1848.5558,2897.25,1854.102" style="stroke: #A80036; stroke-width: 1.0;"/><text fill="#000000" font-family="sans-serif" font-size="13" lengthAdjust="spacingAndGlyphs" textLength="57" x="2952.5" y="1818.4004">HasMany</text><text fill="#000000" font-family="sans-serif" font-size="13" lengthAdjust="spacingAndGlyphs" textLength="8" x="2904.7539" y="1863.0099">1</text><text fill="#000000" font-family="sans-serif" font-size="13" lengthAdjust="spacingAndGlyphs" textLength="10" x="3124.6163" y="1796.4583">N</text><path d="M1692.18,1712.312 C1776.95,1722.692 1924.95,1740.832 2051.73,1756.372 " fill="none" style="stroke: #A80036; stroke-width: 1.0;"/><polygon fill="none" points="2052.88,1749.462,2071.88,1758.842,2051.18,1763.352,2052.88,1749.462" style="stroke: #A80036; stroke-width: 1.0;"/><text fill="#000000" font-family="sans-serif" font-size="13" lengthAdjust="spacingAndGlyphs" textLength="69" x="1915.5" y="1734.4004">Contextual</text><path d="M1029.7,1192.782 C1131.94,1099.752 1327.7,921.622 1466.13,795.662 " fill="none" style="stroke: #A80036; stroke-width: 1.0;"/><polygon fill="#A80036" points="1470.21,791.952,1460.8634,795.0571,1466.5142,795.3197,1466.2516,800.9704,1470.21,791.952" style="stroke: #A80036; stroke-width: 1.0;"/><text fill="#000000" font-family="sans-serif" font-size="13" lengthAdjust="spacingAndGlyphs" textLength="190" x="1156.5" y="897.4004">From/Contextual 包裹明细采集</text><path d="M1729.18,1466.952 C1863.32,1468.372 2090.86,1470.782 2208.89,1472.032 " fill="none" style="stroke: #A80036; stroke-width: 1.0;"/><polygon fill="#A80036" points="1716.09,1466.812,1722.0501,1470.8712,1728.0894,1466.9307,1722.1293,1462.8716,1716.09,1466.812" style="stroke: #A80036; stroke-width: 1.0;"/><text fill="#000000" font-family="sans-serif" font-size="13" lengthAdjust="spacingAndGlyphs" textLength="49" x="1925.5" y="1465.4004">HasOne</text><text fill="#000000" font-family="sans-serif" font-size="13" lengthAdjust="spacingAndGlyphs" textLength="8" x="1724.1373" y="1480.8418">1</text><text fill="#000000" font-family="sans-serif" font-size="13" lengthAdjust="spacingAndGlyphs" textLength="8" x="2192.955" y="1485.2752">1</text><path d="M2845.62,1541.052 C2917.5,1580.982 3037.56,1647.672 3124.5,1695.952 " fill="none" style="stroke: #A80036; stroke-width: 1.0;"/><polygon fill="none" points="3128.16,1689.982,3142.25,1705.812,3121.36,1702.222,3128.16,1689.982" style="stroke: #A80036; stroke-width: 1.0;"/><text fill="#000000" font-family="sans-serif" font-size="13" lengthAdjust="spacingAndGlyphs" textLength="58" x="2952" y="1598.4004">BelongTo</text><path d="M2375.32,1478.902 C2473.34,1485.632 2629.24,1496.342 2716.8,1502.352 " fill="none" style="stroke: #A80036; stroke-width: 1.0;"/><polygon fill="#A80036" points="2362.18,1477.992,2367.8932,1482.3919,2374.1521,1478.8104,2368.4388,1474.4105,2362.18,1477.992" style="stroke: #A80036; stroke-width: 1.0;"/><text fill="#000000" font-family="sans-serif" font-size="13" lengthAdjust="spacingAndGlyphs" textLength="57" x="2555" y="1489.4004">HasMany</text><text fill="#000000" font-family="sans-serif" font-size="13" lengthAdjust="spacingAndGlyphs" textLength="8" x="2370.0787" y="1493.3637">1</text><text fill="#000000" font-family="sans-serif" font-size="13" lengthAdjust="spacingAndGlyphs" textLength="10" x="2699.0125" y="1515.2726">N</text><path d="M2443.29,544.932 C2544.49,547.582 2669.4,550.852 2735.98,552.602 " fill="none" style="stroke: #A80036; stroke-width: 1.0;"/><polygon fill="#A80036" points="2430.13,544.582,2436.0225,548.7388,2442.1258,544.8984,2436.2334,540.7416,2430.13,544.582" style="stroke: #A80036; stroke-width: 1.0;"/><text fill="#000000" font-family="sans-serif" font-size="13" lengthAdjust="spacingAndGlyphs" textLength="57" x="2555" y="545.4004">HasMany</text><text fill="#000000" font-family="sans-serif" font-size="13" lengthAdjust="spacingAndGlyphs" textLength="8" x="2438.3903" y="558.4743">1</text><text fill="#000000" font-family="sans-serif" font-size="13" lengthAdjust="spacingAndGlyphs" textLength="10" x="2717.9379" y="566.1749">N</text><path d="M2360.37,754.742 C2453,752.132 2610.52,747.692 2704.87,745.032 " fill="none" style="stroke: #A80036; stroke-width: 1.0;"/><polygon fill="#A80036" points="2347.19,755.112,2353.2976,758.9457,2359.1855,754.7825,2353.0779,750.9488,2347.19,755.112" style="stroke: #A80036; stroke-width: 1.0;"/><text fill="#000000" font-family="sans-serif" font-size="13" lengthAdjust="spacingAndGlyphs" textLength="57" x="2555" y="744.4004">HasMany</text><text fill="#000000" font-family="sans-serif" font-size="13" lengthAdjust="spacingAndGlyphs" textLength="8" x="2354.8286" y="769.2755">1</text><text fill="#000000" font-family="sans-serif" font-size="13" lengthAdjust="spacingAndGlyphs" textLength="10" x="2686.899" y="758.5483">N</text><path d="M2862.17,742.832 C2943.36,742.832 3070.42,742.832 3151.81,742.832 " fill="none" style="stroke: #A80036; stroke-width: 1.0;"/><polygon fill="none" points="3151.96,735.832,3171.96,742.832,3151.96,749.832,3151.96,735.832" style="stroke: #A80036; stroke-width: 1.0;"/><text fill="#000000" font-family="sans-serif" font-size="13" lengthAdjust="spacingAndGlyphs" textLength="50" x="2956" y="739.4004">Extends</text><path d="M1803.04,784.862 C1942.44,886.872 2127.66,1022.412 2222.42,1091.762 " fill="none" style="stroke: #A80036; stroke-width: 1.0;"/><polygon fill="none" points="2226.75,1086.262,2238.75,1103.722,2218.48,1097.562,2226.75,1086.262" style="stroke: #A80036; stroke-width: 1.0;"/><text fill="#000000" font-family="sans-serif" font-size="13" lengthAdjust="spacingAndGlyphs" textLength="58" x="1921" y="849.4004">BelongTo</text><path d="M1759.26,792.062 C1808.36,842.232 1852,886.832 1852,886.832 C1852,886.832 1882,1607.832 1882,1607.832 C1882,1607.832 1963.73,1643.812 2053.48,1683.332 " fill="none" style="stroke: #A80036; stroke-width: 1.0;"/><polygon fill="none" points="2056.33,1676.942,2071.82,1691.412,2050.69,1689.752,2056.33,1676.942" style="stroke: #A80036; stroke-width: 1.0;"/><text fill="#000000" font-family="sans-serif" font-size="13" lengthAdjust="spacingAndGlyphs" textLength="58" x="1921" y="1604.4004">BelongTo</text><path d="M1803.04,653.832 C1947.96,653.832 2142.39,653.832 2233.24,653.832 " fill="none" style="stroke: #A80036; stroke-width: 1.0;"/><polygon fill="none" points="2233.26,646.832,2253.26,653.832,2233.26,660.832,2233.26,646.832" style="stroke: #A80036; stroke-width: 1.0;"/><text fill="#000000" font-family="sans-serif" font-size="13" lengthAdjust="spacingAndGlyphs" textLength="134" x="1883" y="650.4004">BelongTo/Contextual</text><path d="M1816.17,620.982 C1919.86,603.252 2045.73,581.732 2140.92,565.462 " fill="none" style="stroke: #A80036; stroke-width: 1.0;"/><polygon fill="#A80036" points="1803.31,623.182,1809.8971,626.1162,1815.1392,621.1643,1808.552,618.2301,1803.31,623.182" style="stroke: #A80036; stroke-width: 1.0;"/><text fill="#000000" font-family="sans-serif" font-size="13" lengthAdjust="spacingAndGlyphs" textLength="49" x="1925.5" y="584.4004">HasOne</text><text fill="#000000" font-family="sans-serif" font-size="13" lengthAdjust="spacingAndGlyphs" textLength="8" x="1811.0571" y="633.7226">1</text><text fill="#000000" font-family="sans-serif" font-size="13" lengthAdjust="spacingAndGlyphs" textLength="8" x="2124.7945" y="579.7984">1</text><path d="M1816.25,683.832 C1954.07,705.342 2130.95,732.942 2222.67,747.262 " fill="none" style="stroke: #A80036; stroke-width: 1.0;"/><polygon fill="#A80036" points="1803.04,681.772,1808.3477,686.6534,1814.8951,683.6314,1809.5873,678.75,1803.04,681.772" style="stroke: #A80036; stroke-width: 1.0;"/><text fill="#000000" font-family="sans-serif" font-size="13" lengthAdjust="spacingAndGlyphs" textLength="49" x="1925.5" y="693.4004">HasOne</text><text fill="#000000" font-family="sans-serif" font-size="13" lengthAdjust="spacingAndGlyphs" textLength="8" x="1810.7631" y="697.5308">1</text><text fill="#000000" font-family="sans-serif" font-size="13" lengthAdjust="spacingAndGlyphs" textLength="8" x="2207.0006" y="759.609">1</text><path d="M3899.6,1244.032 C3755.06,1354.712 3484.14,1562.152 3335.91,1675.652 " fill="none" style="stroke: #A80036; stroke-width: 1.0;"/><polygon fill="none" points="3339.9,1681.412,3319.77,1688.012,3331.39,1670.292,3339.9,1681.412" style="stroke: #A80036; stroke-width: 1.0;"/><text fill="#000000" font-family="sans-serif" font-size="13" lengthAdjust="spacingAndGlyphs" textLength="58" x="3603" y="1354.4004">BelongTo</text><path d="M1675.7,1223.342 C1795.48,1206.302 2087.91,1164.722 2218.8,1146.102 " fill="none" style="stroke: #A80036; stroke-width: 1.0;"/><polygon fill="none" points="2217.95,1139.152,2238.73,1143.272,2219.92,1153.012,2217.95,1139.152" style="stroke: #A80036; stroke-width: 1.0;"/><text fill="#000000" font-family="sans-serif" font-size="13" lengthAdjust="spacingAndGlyphs" textLength="69" x="1915.5" y="1172.4004">Contextual</text><path d="M3744.66,1166.372 C3793.76,1167.042 3850.92,1167.832 3898.37,1168.482 " fill="none" style="stroke: #A80036; stroke-width: 1.0;"/><polygon fill="#A80036" points="3731.37,1166.182,3737.3123,1170.2673,3743.3688,1166.3534,3737.4265,1162.2681,3731.37,1166.182" style="stroke: #A80036; stroke-width: 1.0;"/><text fill="#000000" font-family="sans-serif" font-size="13" lengthAdjust="spacingAndGlyphs" textLength="57" x="3786" y="1164.4004">HasMany</text><text fill="#000000" font-family="sans-serif" font-size="13" lengthAdjust="spacingAndGlyphs" textLength="8" x="3739.1657" y="1180.2568">1</text><text fill="#000000" font-family="sans-serif" font-size="13" lengthAdjust="spacingAndGlyphs" textLength="10" x="3880.4358" y="1181.4967">N</text><path d="M3313.7,1156.872 C3377.15,1158.462 3465.59,1160.682 3532.98,1162.372 " fill="none" style="stroke: #A80036; stroke-width: 1.0;"/><polygon fill="#A80036" points="3300.55,1156.542,3306.4469,1160.6925,3312.5462,1156.8456,3306.6493,1152.6951,3300.55,1156.542" style="stroke: #A80036; stroke-width: 1.0;"/><text fill="#000000" font-family="sans-serif" font-size="13" lengthAdjust="spacingAndGlyphs" textLength="49" x="3429" y="1156.4004">HasOne</text><text fill="#000000" font-family="sans-serif" font-size="13" lengthAdjust="spacingAndGlyphs" textLength="8" x="3308.5278" y="1171.3827">1</text><text fill="#000000" font-family="sans-serif" font-size="13" lengthAdjust="spacingAndGlyphs" textLength="8" x="3517.0925" y="1175.345">1</text><path d="M1668.69,1049.332 C1783.67,1065.682 2085.29,1108.572 2218.81,1127.562 " fill="none" style="stroke: #A80036; stroke-width: 1.0;"/><polygon fill="none" points="2219.92,1120.652,2238.74,1130.392,2217.95,1134.512,2219.92,1120.652" style="stroke: #A80036; stroke-width: 1.0;"/><text fill="#000000" font-family="sans-serif" font-size="13" lengthAdjust="spacingAndGlyphs" textLength="69" x="1915.5" y="1078.4004">Contextual</text><path d="M2344.6,1136.952 C2424.95,1137.112 2570.86,1137.402 2671.94,1137.612 " fill="none" style="stroke: #A80036; stroke-width: 1.0;"/><polygon fill="#A80036" points="2331.33,1136.922,2337.3212,1140.9352,2343.33,1136.9484,2337.3388,1132.9352,2331.33,1136.922" style="stroke: #A80036; stroke-width: 1.0;"/><text fill="#000000" font-family="sans-serif" font-size="13" lengthAdjust="spacingAndGlyphs" textLength="49" x="2559" y="1134.4004">HasOne</text><text fill="#000000" font-family="sans-serif" font-size="13" lengthAdjust="spacingAndGlyphs" textLength="8" x="2338.9392" y="1152.3472">1</text><text fill="#000000" font-family="sans-serif" font-size="13" lengthAdjust="spacingAndGlyphs" textLength="8" x="2655.8498" y="1150.7127">1</text><path d="M1686.08,1136.832 C1811.58,1136.832 2091.43,1136.832 2218.72,1136.832 " fill="none" style="stroke: #A80036; stroke-width: 1.0;"/><polygon fill="none" points="2218.86,1129.832,2238.86,1136.832,2218.86,1143.832,2218.86,1129.832" style="stroke: #A80036; stroke-width: 1.0;"/><text fill="#000000" font-family="sans-serif" font-size="13" lengthAdjust="spacingAndGlyphs" textLength="69" x="1915.5" y="1133.4004">Contextual</text><path d="M2907.28,1142.522 C2989.13,1145.642 3093.59,1149.622 3161.25,1152.192 " fill="none" style="stroke: #A80036; stroke-width: 1.0;"/><polygon fill="#A80036" points="2894.08,1142.022,2899.9217,1146.2499,2906.0711,1142.4837,2900.2295,1138.2558,2894.08,1142.022" style="stroke: #A80036; stroke-width: 1.0;"/><text fill="#000000" font-family="sans-serif" font-size="13" lengthAdjust="spacingAndGlyphs" textLength="57" x="2952.5" y="1141.4004">HasMany</text><text fill="#000000" font-family="sans-serif" font-size="13" lengthAdjust="spacingAndGlyphs" textLength="8" x="2901.8074" y="1156.35">1</text><text fill="#000000" font-family="sans-serif" font-size="13" lengthAdjust="spacingAndGlyphs" textLength="10" x="3143.5414" y="1165.2732">N</text><path d="M1029.97,2092.832 C1157.52,2092.832 1427.51,2092.832 1553.97,2092.832 " fill="none" style="stroke: #A80036; stroke-width: 1.0;"/><polygon fill="#A80036" points="1016.61,2092.832,1022.61,2096.832,1028.61,2092.832,1022.61,2088.832,1016.61,2092.832" style="stroke: #A80036; stroke-width: 1.0;"/><text fill="#000000" font-family="sans-serif" font-size="13" lengthAdjust="spacingAndGlyphs" textLength="215" x="1144" y="2089.4004">HasMany/Contextual 包裹明细采集</text><text fill="#000000" font-family="sans-serif" font-size="13" lengthAdjust="spacingAndGlyphs" textLength="8" x="1024.2111" y="2107.6623">1</text><text fill="#000000" font-family="sans-serif" font-size="13" lengthAdjust="spacingAndGlyphs" textLength="10" x="1535.9277" y="2106.2426">N</text><path d="M974.84,2057.592 C1046.23,1882.102 1360,1110.832 1360,1110.832 C1360,1110.832 1368,886.832 1368,886.832 C1368,886.832 1414.36,844.302 1467.48,795.582 " fill="none" style="stroke: #A80036; stroke-width: 1.0;"/><polygon fill="#A80036" points="1471.31,792.062,1461.976,795.2048,1467.6278,795.4445,1467.388,801.0963,1471.31,792.062" style="stroke: #A80036; stroke-width: 1.0;"/><text fill="#000000" font-family="sans-serif" font-size="13" lengthAdjust="spacingAndGlyphs" textLength="32" x="1235.5" y="1107.4004">From</text><path d="M439.76,2102.422 C560.97,2100.182 794.83,2095.862 902.16,2093.872 " fill="none" style="stroke: #A80036; stroke-width: 1.0;"/><polygon fill="#A80036" points="426.61,2102.662,432.6794,2106.5559,438.6081,2102.4511,432.5388,2098.5572,426.61,2102.662" style="stroke: #A80036; stroke-width: 1.0;"/><text fill="#000000" font-family="sans-serif" font-size="13" lengthAdjust="spacingAndGlyphs" textLength="57" x="718" y="2093.4004">HasMany</text><text fill="#000000" font-family="sans-serif" font-size="13" lengthAdjust="spacingAndGlyphs" textLength="8" x="434.1413" y="2116.9153">1</text><text fill="#000000" font-family="sans-serif" font-size="13" lengthAdjust="spacingAndGlyphs" textLength="10" x="884.5623" y="2107.5056">N</text><text fill="#888888" font-family="sans-serif" font-size="10" lengthAdjust="spacingAndGlyphs" textLength="108" x="2042.5" y="2302">generated by DDDplus</text></g></svg>