<?xml version="1.0" encoding="UTF-8" standalone="no"?><svg xmlns="http://www.w3.org/2000/svg" xmlns:xlink="http://www.w3.org/1999/xlink" contentScriptType="application/ecmascript" contentStyleType="text/css" height="2118px" preserveAspectRatio="none" style="width:3396px;height:2118px;" version="1.1" viewBox="0 0 3396 2118" width="3396px" zoomAndPan="magnify"><defs><filter height="300%" id="ft4gt2v" width="300%" x="-1" y="-1"><feGaussianBlur result="blurOut" stdDeviation="2.0"/><feColorMatrix in="blurOut" result="blurOut2" type="matrix" values="0 0 0 0 0 0 0 0 0 0 0 0 0 0 0 0 0 0 .4 0"/><feOffset dx="4.0" dy="4.0" in="blurOut2" result="blurOut3"/><feBlend in="SourceGraphic" in2="blurOut3" mode="normal"/></filter></defs><g><text fill="#888888" font-family="sans-serif" font-size="10" lengthAdjust="spacingAndGlyphs" textLength="182" x="3213" y="9.668">公共类：44，标注：26，覆盖率：59.1%</text><text fill="#888888" font-family="sans-serif" font-size="10" lengthAdjust="spacingAndGlyphs" textLength="192" x="3203" y="21.4453">公共方法：78，标注：32，覆盖率：41.0%</text><text fill="#888888" font-family="sans-serif" font-size="10" lengthAdjust="spacingAndGlyphs" textLength="198" x="3197" y="33.2227">字段属性：148，标注：35，覆盖率：23.6%</text><!--cluster 业务模型--><polygon fill="#FFFFFF" filter="url(#ft4gt2v)" points="196,552.332,258,552.332,265,574.8203,3361,574.8203,3361,2081.332,196,2081.332,196,552.332" style="stroke: #000000; stroke-width: 2.0;"/><line style="stroke: #000000; stroke-width: 2.0;" x1="196" x2="265" y1="574.8203" y2="574.8203"/><text fill="#000000" font-family="sans-serif" font-size="14" font-weight="bold" lengthAdjust="spacingAndGlyphs" textLength="56" x="200" y="567.8672">业务模型</text><!--cluster Aggregate：客户出库单--><polygon fill="#FFFFFF" filter="url(#ft4gt2v)" points="2104,1171.332,2267,1171.332,2274,1193.8203,3337,1193.8203,3337,1561.332,2104,1561.332,2104,1171.332" style="stroke: #000000; stroke-width: 2.0;"/><line style="stroke: #000000; stroke-width: 2.0;" x1="2104" x2="2274" y1="1193.8203" y2="1193.8203"/><text fill="#000000" font-family="sans-serif" font-size="14" font-weight="bold" lengthAdjust="spacingAndGlyphs" textLength="157" x="2108" y="1186.8672">Aggregate：客户出库单</text><text fill="#000000" font-family="sans-serif" font-size="14" font-style="italic" lengthAdjust="spacingAndGlyphs" textLength="277" x="2586" y="1209.3555">«ddd.plus.showcase.wms.domain.order»</text><!--cluster Aggregate：包裹--><polygon fill="#FFFFFF" filter="url(#ft4gt2v)" points="2665.5,904.332,2786.5,904.332,2793.5,926.8203,2952.5,926.8203,2952.5,1147.332,2665.5,1147.332,2665.5,904.332" style="stroke: #000000; stroke-width: 2.0;"/><line style="stroke: #000000; stroke-width: 2.0;" x1="2665.5" x2="2793.5" y1="926.8203" y2="926.8203"/><text fill="#000000" font-family="sans-serif" font-size="14" font-weight="bold" lengthAdjust="spacingAndGlyphs" textLength="115" x="2669.5" y="919.8672">Aggregate：包裹</text><text fill="#000000" font-family="sans-serif" font-size="14" font-style="italic" lengthAdjust="spacingAndGlyphs" textLength="271" x="2677.5" y="942.3555">«ddd.plus.showcase.wms.domain.pack»</text><!--cluster Aggregate：复核报差异--><polygon fill="#FFFFFF" filter="url(#ft4gt2v)" points="1684,595.332,1847,595.332,1854,617.8203,2915,617.8203,2915,880.332,1684,880.332,1684,595.332" style="stroke: #000000; stroke-width: 2.0;"/><line style="stroke: #000000; stroke-width: 2.0;" x1="1684" x2="1854" y1="617.8203" y2="617.8203"/><text fill="#000000" font-family="sans-serif" font-size="14" font-weight="bold" lengthAdjust="spacingAndGlyphs" textLength="157" x="1688" y="610.8672">Aggregate：复核报差异</text><text fill="#000000" font-family="sans-serif" font-size="14" font-style="italic" lengthAdjust="spacingAndGlyphs" textLength="262" x="2172.5" y="633.3555">«ddd.plus.showcase.wms.domain.diff»</text><!--cluster Aggregate：装箱--><polygon fill="#FFFFFF" filter="url(#ft4gt2v)" points="286.5,1022.332,407.5,1022.332,414.5,1044.8203,1488.5,1044.8203,1488.5,1405.332,286.5,1405.332,286.5,1022.332" style="stroke: #000000; stroke-width: 2.0;"/><line style="stroke: #000000; stroke-width: 2.0;" x1="286.5" x2="414.5" y1="1044.8203" y2="1044.8203"/><text fill="#000000" font-family="sans-serif" font-size="14" font-weight="bold" lengthAdjust="spacingAndGlyphs" textLength="115" x="290.5" y="1037.8672">Aggregate：装箱</text><text fill="#000000" font-family="sans-serif" font-size="14" font-style="italic" lengthAdjust="spacingAndGlyphs" textLength="283" x="750" y="1060.3555">«ddd.plus.showcase.wms.domain.carton»</text><!--cluster Aggregate：通用子域--><polygon fill="#FFFFFF" filter="url(#ft4gt2v)" points="1660.5,1028.332,1809.5,1028.332,1816.5,1050.8203,1975.5,1050.8203,1975.5,1201.332,1660.5,1201.332,1660.5,1028.332" style="stroke: #000000; stroke-width: 2.0;"/><line style="stroke: #000000; stroke-width: 2.0;" x1="1660.5" x2="1816.5" y1="1050.8203" y2="1050.8203"/><text fill="#000000" font-family="sans-serif" font-size="14" font-weight="bold" lengthAdjust="spacingAndGlyphs" textLength="143" x="1664.5" y="1043.8672">Aggregate：通用子域</text><text fill="#000000" font-family="sans-serif" font-size="14" font-style="italic" lengthAdjust="spacingAndGlyphs" textLength="299" x="1672.5" y="1066.3555">«ddd.plus.showcase.wms.domain.common»</text><!--cluster Aggregate：出库复核任务--><polygon fill="#FFFFFF" filter="url(#ft4gt2v)" points="281.5,1585.332,458.5,1585.332,465.5,1607.8203,2947.5,1607.8203,2947.5,1866.332,281.5,1866.332,281.5,1585.332" style="stroke: #000000; stroke-width: 2.0;"/><line style="stroke: #000000; stroke-width: 2.0;" x1="281.5" x2="465.5" y1="1607.8203" y2="1607.8203"/><text fill="#000000" font-family="sans-serif" font-size="14" font-weight="bold" lengthAdjust="spacingAndGlyphs" textLength="171" x="285.5" y="1600.8672">Aggregate：出库复核任务</text><text fill="#000000" font-family="sans-serif" font-size="14" font-style="italic" lengthAdjust="spacingAndGlyphs" textLength="267" x="1485" y="1623.3555">«ddd.plus.showcase.wms.domain.task»</text><!--cluster Aggregate：发货--><polygon fill="#FFFFFF" filter="url(#ft4gt2v)" points="220,1890.332,341,1890.332,348,1912.8203,504,1912.8203,504,2057.332,220,2057.332,220,1890.332" style="stroke: #000000; stroke-width: 2.0;"/><line style="stroke: #000000; stroke-width: 2.0;" x1="220" x2="348" y1="1912.8203" y2="1912.8203"/><text fill="#000000" font-family="sans-serif" font-size="14" font-weight="bold" lengthAdjust="spacingAndGlyphs" textLength="115" x="224" y="1905.8672">Aggregate：发货</text><text fill="#000000" font-family="sans-serif" font-size="14" font-style="italic" lengthAdjust="spacingAndGlyphs" textLength="268" x="232" y="1928.3555">«ddd.plus.showcase.wms.domain.ship»</text><!--cluster 交互--><polygon fill="#FFFFFF" filter="url(#ft4gt2v)" points="22,212.332,56,212.332,63,234.8203,701,234.8203,701,528.332,22,528.332,22,212.332" style="stroke: #000000; stroke-width: 2.0;"/><line style="stroke: #000000; stroke-width: 2.0;" x1="22" x2="63" y1="234.8203" y2="234.8203"/><text fill="#000000" font-family="sans-serif" font-size="14" font-weight="bold" lengthAdjust="spacingAndGlyphs" textLength="28" x="26" y="227.8672">交互</text><text fill="#000000" font-family="sans-serif" font-size="14" font-style="italic" lengthAdjust="spacingAndGlyphs" textLength="72" x="329.5" y="250.3555">«UseCase»</text><!--cluster 跨聚合复杂流程--><polygon fill="#FFFFFF" filter="url(#ft4gt2v)" points="237.5,59.332,341.5,59.332,348.5,81.8203,485.5,81.8203,485.5,188.332,237.5,188.332,237.5,59.332" style="stroke: #000000; stroke-width: 2.0;"/><line style="stroke: #000000; stroke-width: 2.0;" x1="237.5" x2="348.5" y1="81.8203" y2="81.8203"/><text fill="#000000" font-family="sans-serif" font-size="14" font-weight="bold" lengthAdjust="spacingAndGlyphs" textLength="98" x="241.5" y="74.8672">跨聚合复杂流程</text><text fill="#000000" font-family="sans-serif" font-size="14" font-style="italic" lengthAdjust="spacingAndGlyphs" textLength="125" x="303" y="97.3555">«Orphan Services»</text><!--class Order--><rect fill="#FEFECE" filter="url(#ft4gt2v)" height="178.8613" style="stroke: #A80036; stroke-width: 1.5;" width="328" x="2151.5" y="1242.332"/><ellipse cx="2269.25" cy="1261.4648" fill="#FF7700" rx="11" ry="11" style="stroke: #A80036; stroke-width: 1.0;"/><path d="M2269.9487,1262.1128 Q2270.314,1262.1875 2270.5837,1262.4573 Q2270.8535,1262.7271 2271.2437,1263.5073 L2273.4849,1267.9648 L2270.7954,1267.9648 L2269.3013,1264.8354 Q2269.2349,1264.7026 2269.127,1264.4702 Q2268.4712,1263.0674 2267.583,1263.0674 L2266.8027,1263.0674 L2266.8027,1267.9648 L2264.354,1267.9648 L2264.354,1255.5718 L2267.8901,1255.5718 Q2270.2808,1255.5718 2271.3225,1256.4185 Q2272.3643,1257.2651 2272.3643,1259.1743 Q2272.3643,1260.4526 2271.7417,1261.208 Q2271.1191,1261.9634 2269.9487,1262.1128 Z M2266.8027,1257.6304 L2266.8027,1261.0088 L2267.9565,1261.0088 Q2268.9609,1261.0088 2269.3967,1260.6145 Q2269.8325,1260.2202 2269.8325,1259.3154 Q2269.8325,1258.4106 2269.4009,1258.0205 Q2268.9692,1257.6304 2267.9565,1257.6304 Z "/><text fill="#000000" font-family="sans-serif" font-size="12" font-style="italic" lengthAdjust="spacingAndGlyphs" textLength="88" x="2287.75" y="1258.9336">«客户的出库单.»</text><text fill="#000000" font-family="sans-serif" font-size="12" lengthAdjust="spacingAndGlyphs" textLength="34" x="2314.75" y="1273.0664">Order</text><line style="stroke: #A80036; stroke-width: 1.5;" x1="2152.5" x2="2478.5" y1="1280.5977" y2="1280.5977"/><text fill="#000000" font-family="sans-serif" font-size="11" lengthAdjust="spacingAndGlyphs" textLength="160" x="2157.5" y="1312.1875">OrderStatus ProductionStatus</text><line style="stroke: #A80036; stroke-width: 1.5;" x1="2152.5" x2="2292.5" y1="1295.0752" y2="1295.0752"/><text fill="#000000" font-family="sans-serif" font-size="11" lengthAdjust="spacingAndGlyphs" textLength="46" x="2292.5" y="1298.7324">Lifecycle</text><line style="stroke: #A80036; stroke-width: 1.5;" x1="2338.5" x2="2478.5" y1="1295.0752" y2="1295.0752"/><text fill="#000000" font-family="sans-serif" font-size="11" lengthAdjust="spacingAndGlyphs" textLength="89" x="2157.5" y="1342.0977">OrderConstraint</text><line style="stroke: #A80036; stroke-width: 1.5;" x1="2152.5" x2="2284" y1="1324.9854" y2="1324.9854"/><text fill="#000000" font-family="sans-serif" font-size="11" lengthAdjust="spacingAndGlyphs" textLength="63" x="2284" y="1328.6426">Operational</text><line style="stroke: #A80036; stroke-width: 1.5;" x1="2347" x2="2478.5" y1="1324.9854" y2="1324.9854"/><text fill="#000000" font-family="sans-serif" font-size="11" lengthAdjust="spacingAndGlyphs" textLength="316" x="2157.5" y="1372.0078">recommendedPlatformNo() 该订单已经被推荐到哪一个复核台.</text><line style="stroke: #A80036; stroke-width: 1.5;" x1="2152.5" x2="2304.5" y1="1354.8955" y2="1354.8955"/><text fill="#000000" font-family="sans-serif" font-size="11" lengthAdjust="spacingAndGlyphs" textLength="22" x="2304.5" y="1358.5527">规则</text><line style="stroke: #A80036; stroke-width: 1.5;" x1="2326.5" x2="2478.5" y1="1354.8955" y2="1354.8955"/><text fill="#000000" font-family="sans-serif" font-size="11" lengthAdjust="spacingAndGlyphs" textLength="40" x="2157.5" y="1401.918">pause()</text><text fill="#000000" font-family="sans-serif" font-size="11" lengthAdjust="spacingAndGlyphs" textLength="48" x="2157.5" y="1414.873">resume()</text><line style="stroke: #A80036; stroke-width: 1.5;" x1="2152.5" x2="2304.5" y1="1384.8057" y2="1384.8057"/><text fill="#000000" font-family="sans-serif" font-size="11" lengthAdjust="spacingAndGlyphs" textLength="22" x="2304.5" y="1388.4629">行为</text><line style="stroke: #A80036; stroke-width: 1.5;" x1="2326.5" x2="2478.5" y1="1384.8057" y2="1384.8057"/><!--class Order.OrderCartons--><rect fill="#FEFECE" filter="url(#ft4gt2v)" height="48" style="stroke: #A80036; stroke-width: 1.5;" width="148" x="2735" y="1459.332"/><ellipse cx="2750" cy="1475.332" fill="#9197DB" rx="11" ry="11" style="stroke: #A80036; stroke-width: 1.0;"/><path d="M2748.4033,1476.7041 L2748.4033,1480.373 L2750.0303,1480.373 Q2751.2007,1480.373 2751.6697,1479.9746 Q2752.1387,1479.5762 2752.1387,1478.5884 Q2752.1387,1477.584 2751.6489,1477.144 Q2751.1592,1476.7041 2750.0303,1476.7041 Z M2748.4033,1471.873 L2748.4033,1474.7534 L2750.0303,1474.7534 Q2750.96,1474.7534 2751.3542,1474.4214 Q2751.7485,1474.0894 2751.7485,1473.3257 Q2751.7485,1472.562 2751.3459,1472.2175 Q2750.9434,1471.873 2750.0303,1471.873 Z M2746.0376,1469.9224 L2750.0303,1469.9224 Q2752.0972,1469.9224 2753.1389,1470.7068 Q2754.1807,1471.4912 2754.1807,1473.0518 Q2754.1807,1474.2471 2753.5664,1474.9194 Q2752.9521,1475.5918 2751.7651,1475.6997 Q2753.1846,1475.8408 2753.9026,1476.6543 Q2754.6206,1477.4678 2754.6206,1478.9287 Q2754.6206,1480.7217 2753.5415,1481.5269 Q2752.4624,1482.332 2750.0303,1482.332 L2746.0376,1482.332 Z "/><text fill="#000000" font-family="sans-serif" font-size="12" lengthAdjust="spacingAndGlyphs" textLength="116" x="2764" y="1479.8672">Order.OrderCartons</text><line style="stroke: #A80036; stroke-width: 1.5;" x1="2736" x2="2882" y1="1491.332" y2="1491.332"/><line style="stroke: #A80036; stroke-width: 1.5;" x1="2736" x2="2882" y1="1499.332" y2="1499.332"/><!--class OrderContainerItems--><rect fill="#FEFECE" filter="url(#ft4gt2v)" height="48" style="stroke: #A80036; stroke-width: 1.5;" width="152" x="2733" y="1376.332"/><ellipse cx="2748" cy="1392.332" fill="#9197DB" rx="11" ry="11" style="stroke: #A80036; stroke-width: 1.0;"/><path d="M2746.4033,1393.7041 L2746.4033,1397.373 L2748.0303,1397.373 Q2749.2007,1397.373 2749.6697,1396.9746 Q2750.1387,1396.5762 2750.1387,1395.5884 Q2750.1387,1394.584 2749.6489,1394.144 Q2749.1592,1393.7041 2748.0303,1393.7041 Z M2746.4033,1388.873 L2746.4033,1391.7534 L2748.0303,1391.7534 Q2748.96,1391.7534 2749.3542,1391.4214 Q2749.7485,1391.0894 2749.7485,1390.3257 Q2749.7485,1389.562 2749.3459,1389.2175 Q2748.9434,1388.873 2748.0303,1388.873 Z M2744.0376,1386.9224 L2748.0303,1386.9224 Q2750.0972,1386.9224 2751.1389,1387.7068 Q2752.1807,1388.4912 2752.1807,1390.0518 Q2752.1807,1391.2471 2751.5664,1391.9194 Q2750.9521,1392.5918 2749.7651,1392.6997 Q2751.1846,1392.8408 2751.9026,1393.6543 Q2752.6206,1394.4678 2752.6206,1395.9287 Q2752.6206,1397.7217 2751.5415,1398.5269 Q2750.4624,1399.332 2748.0303,1399.332 L2744.0376,1399.332 Z "/><text fill="#000000" font-family="sans-serif" font-size="12" lengthAdjust="spacingAndGlyphs" textLength="120" x="2762" y="1396.8672">OrderContainerItems</text><line style="stroke: #A80036; stroke-width: 1.5;" x1="2734" x2="2884" y1="1408.332" y2="1408.332"/><line style="stroke: #A80036; stroke-width: 1.5;" x1="2734" x2="2884" y1="1416.332" y2="1416.332"/><!--class OrderLine--><rect fill="#FEFECE" filter="url(#ft4gt2v)" height="135.9961" style="stroke: #A80036; stroke-width: 1.5;" width="177" x="3120.5" y="1243.332"/><ellipse cx="3176.25" cy="1262.4648" fill="#ADD1B2" rx="11" ry="11" style="stroke: #A80036; stroke-width: 1.0;"/><path d="M3178.7231,1268.6079 Q3178.1421,1268.9067 3177.5029,1269.0562 Q3176.8638,1269.2056 3176.1582,1269.2056 Q3173.6514,1269.2056 3172.3315,1267.5537 Q3171.0117,1265.9019 3171.0117,1262.7808 Q3171.0117,1259.6514 3172.3315,1257.9995 Q3173.6514,1256.3477 3176.1582,1256.3477 Q3176.8638,1256.3477 3177.5112,1256.4971 Q3178.1587,1256.6465 3178.7231,1256.9453 L3178.7231,1259.668 Q3178.0923,1259.0869 3177.4988,1258.8171 Q3176.9053,1258.5474 3176.2744,1258.5474 Q3174.9297,1258.5474 3174.2449,1259.614 Q3173.5601,1260.6807 3173.5601,1262.7808 Q3173.5601,1264.8726 3174.2449,1265.9392 Q3174.9297,1267.0059 3176.2744,1267.0059 Q3176.9053,1267.0059 3177.4988,1266.7361 Q3178.0923,1266.4663 3178.7231,1265.8853 Z "/><text fill="#000000" font-family="sans-serif" font-size="12" font-style="italic" lengthAdjust="spacingAndGlyphs" textLength="52" x="3199.25" y="1259.9336">«订单行.»</text><text fill="#000000" font-family="sans-serif" font-size="12" lengthAdjust="spacingAndGlyphs" textLength="57" x="3196.75" y="1274.0664">OrderLine</text><line style="stroke: #A80036; stroke-width: 1.5;" x1="3121.5" x2="3296.5" y1="1281.5977" y2="1281.5977"/><text fill="#000000" font-family="sans-serif" font-size="11" lengthAdjust="spacingAndGlyphs" textLength="91" x="3126.5" y="1313.1875">OrderLineNo Sku</text><line style="stroke: #A80036; stroke-width: 1.5;" x1="3121.5" x2="3182.5" y1="1296.0752" y2="1296.0752"/><text fill="#000000" font-family="sans-serif" font-size="11" lengthAdjust="spacingAndGlyphs" textLength="53" x="3182.5" y="1299.7324">Structural</text><line style="stroke: #A80036; stroke-width: 1.5;" x1="3235.5" x2="3296.5" y1="1296.0752" y2="1296.0752"/><text fill="#000000" font-family="sans-serif" font-size="11" lengthAdjust="spacingAndGlyphs" textLength="165" x="3126.5" y="1343.0977">qty/要货量 shortageQty/缺货量</text><line style="stroke: #A80036; stroke-width: 1.5;" x1="3121.5" x2="3186" y1="1325.9854" y2="1325.9854"/><text fill="#000000" font-family="sans-serif" font-size="11" lengthAdjust="spacingAndGlyphs" textLength="46" x="3186" y="1329.6426">Quantity</text><line style="stroke: #A80036; stroke-width: 1.5;" x1="3232" x2="3296.5" y1="1325.9854" y2="1325.9854"/><text fill="#000000" font-family="sans-serif" font-size="11" lengthAdjust="spacingAndGlyphs" textLength="154" x="3126.5" y="1373.0078">expectedQty/要货量-缺货量()</text><line style="stroke: #A80036; stroke-width: 1.5;" x1="3121.5" x2="3198" y1="1355.8955" y2="1355.8955"/><text fill="#000000" font-family="sans-serif" font-size="11" lengthAdjust="spacingAndGlyphs" textLength="22" x="3198" y="1359.5527">规则</text><line style="stroke: #A80036; stroke-width: 1.5;" x1="3220" x2="3296.5" y1="1355.8955" y2="1355.8955"/><!--class OrderLineBag--><rect fill="#FEFECE" filter="url(#ft4gt2v)" height="69.9102" style="stroke: #A80036; stroke-width: 1.5;" width="228" x="2695" y="1252.332"/><ellipse cx="2765.75" cy="1268.332" fill="#9197DB" rx="11" ry="11" style="stroke: #A80036; stroke-width: 1.0;"/><path d="M2764.1533,1269.7041 L2764.1533,1273.373 L2765.7803,1273.373 Q2766.9507,1273.373 2767.4197,1272.9746 Q2767.8887,1272.5762 2767.8887,1271.5884 Q2767.8887,1270.584 2767.3989,1270.144 Q2766.9092,1269.7041 2765.7803,1269.7041 Z M2764.1533,1264.873 L2764.1533,1267.7534 L2765.7803,1267.7534 Q2766.71,1267.7534 2767.1042,1267.4214 Q2767.4985,1267.0894 2767.4985,1266.3257 Q2767.4985,1265.562 2767.0959,1265.2175 Q2766.6934,1264.873 2765.7803,1264.873 Z M2761.7876,1262.9224 L2765.7803,1262.9224 Q2767.8472,1262.9224 2768.8889,1263.7068 Q2769.9307,1264.4912 2769.9307,1266.0518 Q2769.9307,1267.2471 2769.3164,1267.9194 Q2768.7021,1268.5918 2767.5151,1268.6997 Q2768.9346,1268.8408 2769.6526,1269.6543 Q2770.3706,1270.4678 2770.3706,1271.9287 Q2770.3706,1273.7217 2769.2915,1274.5269 Q2768.2124,1275.332 2765.7803,1275.332 L2761.7876,1275.332 Z "/><text fill="#000000" font-family="sans-serif" font-size="12" lengthAdjust="spacingAndGlyphs" textLength="78" x="2786.25" y="1272.8672">OrderLineBag</text><line style="stroke: #A80036; stroke-width: 1.5;" x1="2696" x2="2922" y1="1284.332" y2="1284.332"/><text fill="#000000" font-family="sans-serif" font-size="11" lengthAdjust="spacingAndGlyphs" textLength="216" x="2701" y="1315.9219">totalExpectedQty() 期望的总装箱货品件数.</text><line style="stroke: #A80036; stroke-width: 1.5;" x1="2696" x2="2798" y1="1298.8096" y2="1298.8096"/><text fill="#000000" font-family="sans-serif" font-size="11" lengthAdjust="spacingAndGlyphs" textLength="22" x="2798" y="1302.4668">规则</text><line style="stroke: #A80036; stroke-width: 1.5;" x1="2820" x2="2922" y1="1298.8096" y2="1298.8096"/><!--class OrderBag--><rect fill="#FEFECE" filter="url(#ft4gt2v)" height="69.9102" style="stroke: #A80036; stroke-width: 1.5;" width="391" x="2120" y="1475.332"/><ellipse cx="2283.75" cy="1491.332" fill="#9197DB" rx="11" ry="11" style="stroke: #A80036; stroke-width: 1.0;"/><path d="M2282.1533,1492.7041 L2282.1533,1496.373 L2283.7803,1496.373 Q2284.9507,1496.373 2285.4197,1495.9746 Q2285.8887,1495.5762 2285.8887,1494.5884 Q2285.8887,1493.584 2285.3989,1493.144 Q2284.9092,1492.7041 2283.7803,1492.7041 Z M2282.1533,1487.873 L2282.1533,1490.7534 L2283.7803,1490.7534 Q2284.71,1490.7534 2285.1042,1490.4214 Q2285.4985,1490.0894 2285.4985,1489.3257 Q2285.4985,1488.562 2285.0959,1488.2175 Q2284.6934,1487.873 2283.7803,1487.873 Z M2279.7876,1485.9224 L2283.7803,1485.9224 Q2285.8472,1485.9224 2286.8889,1486.7068 Q2287.9307,1487.4912 2287.9307,1489.0518 Q2287.9307,1490.2471 2287.3164,1490.9194 Q2286.7021,1491.5918 2285.5151,1491.6997 Q2286.9346,1491.8408 2287.6526,1492.6543 Q2288.3706,1493.4678 2288.3706,1494.9287 Q2288.3706,1496.7217 2287.2915,1497.5269 Q2286.2124,1498.332 2283.7803,1498.332 L2279.7876,1498.332 Z "/><text fill="#000000" font-family="sans-serif" font-size="12" lengthAdjust="spacingAndGlyphs" textLength="55" x="2304.25" y="1495.8672">OrderBag</text><line style="stroke: #A80036; stroke-width: 1.5;" x1="2121" x2="2510" y1="1507.332" y2="1507.332"/><text fill="#000000" font-family="sans-serif" font-size="11" lengthAdjust="spacingAndGlyphs" textLength="379" x="2126" y="1538.9219">subBagOfCanceled() 当前出库单集合里哪些已经在单据中心里被客户取消了.</text><line style="stroke: #A80036; stroke-width: 1.5;" x1="2121" x2="2304.5" y1="1521.8096" y2="1521.8096"/><text fill="#000000" font-family="sans-serif" font-size="11" lengthAdjust="spacingAndGlyphs" textLength="22" x="2304.5" y="1525.4668">行为</text><line style="stroke: #A80036; stroke-width: 1.5;" x1="2326.5" x2="2510" y1="1521.8096" y2="1521.8096"/><!--class Pack--><rect fill="#FEFECE" filter="url(#ft4gt2v)" height="135.9961" style="stroke: #A80036; stroke-width: 1.5;" width="139" x="2740" y="976.332"/><ellipse cx="2787.25" cy="995.4648" fill="#FF7700" rx="11" ry="11" style="stroke: #A80036; stroke-width: 1.0;"/><path d="M2787.9487,996.1128 Q2788.314,996.1875 2788.5837,996.4573 Q2788.8535,996.7271 2789.2437,997.5073 L2791.4849,1001.9648 L2788.7954,1001.9648 L2787.3013,998.8354 Q2787.2349,998.7026 2787.127,998.4702 Q2786.4712,997.0674 2785.583,997.0674 L2784.8027,997.0674 L2784.8027,1001.9648 L2782.354,1001.9648 L2782.354,989.5718 L2785.8901,989.5718 Q2788.2808,989.5718 2789.3225,990.4185 Q2790.3643,991.2651 2790.3643,993.1743 Q2790.3643,994.4526 2789.7417,995.208 Q2789.1191,995.9634 2787.9487,996.1128 Z M2784.8027,991.6304 L2784.8027,995.0088 L2785.9565,995.0088 Q2786.9609,995.0088 2787.3967,994.6145 Q2787.8325,994.2202 2787.8325,993.3154 Q2787.8325,992.4106 2787.4009,992.0205 Q2786.9692,991.6304 2785.9565,991.6304 Z "/><text fill="#000000" font-family="sans-serif" font-size="12" font-style="italic" lengthAdjust="spacingAndGlyphs" textLength="40" x="2805.75" y="992.9336">«包裹.»</text><text fill="#000000" font-family="sans-serif" font-size="12" lengthAdjust="spacingAndGlyphs" textLength="27" x="2812.25" y="1007.0664">Pack</text><line style="stroke: #A80036; stroke-width: 1.5;" x1="2741" x2="2878" y1="1014.5977" y2="1014.5977"/><text fill="#000000" font-family="sans-serif" font-size="11" lengthAdjust="spacingAndGlyphs" textLength="99" x="2746" y="1046.1875">orderNo waybillNo</text><line style="stroke: #A80036; stroke-width: 1.5;" x1="2741" x2="2783" y1="1029.0752" y2="1029.0752"/><text fill="#000000" font-family="sans-serif" font-size="11" lengthAdjust="spacingAndGlyphs" textLength="53" x="2783" y="1032.7324">Structural</text><line style="stroke: #A80036; stroke-width: 1.5;" x1="2836" x2="2878" y1="1029.0752" y2="1029.0752"/><text fill="#000000" font-family="sans-serif" font-size="11" lengthAdjust="spacingAndGlyphs" textLength="57" x="2746" y="1076.0977">PackStatus</text><line style="stroke: #A80036; stroke-width: 1.5;" x1="2741" x2="2786.5" y1="1058.9854" y2="1058.9854"/><text fill="#000000" font-family="sans-serif" font-size="11" lengthAdjust="spacingAndGlyphs" textLength="46" x="2786.5" y="1062.6426">Lifecycle</text><line style="stroke: #A80036; stroke-width: 1.5;" x1="2832.5" x2="2878" y1="1058.9854" y2="1058.9854"/><text fill="#000000" font-family="sans-serif" font-size="11" lengthAdjust="spacingAndGlyphs" textLength="127" x="2746" y="1106.0078">totalVolume totalWeight</text><line style="stroke: #A80036; stroke-width: 1.5;" x1="2741" x2="2793.5" y1="1088.8955" y2="1088.8955"/><text fill="#000000" font-family="sans-serif" font-size="11" lengthAdjust="spacingAndGlyphs" textLength="32" x="2793.5" y="1092.5527">Billing</text><line style="stroke: #A80036; stroke-width: 1.5;" x1="2825.5" x2="2878" y1="1088.8955" y2="1088.8955"/><!--class ContainerDiff--><rect fill="#FEFECE" filter="url(#ft4gt2v)" height="178.8613" style="stroke: #A80036; stroke-width: 1.5;" width="188" x="1724" y="666.332"/><ellipse cx="1739" cy="685.4648" fill="#FF7700" rx="11" ry="11" style="stroke: #A80036; stroke-width: 1.0;"/><path d="M1739.6987,686.1128 Q1740.064,686.1875 1740.3337,686.4573 Q1740.6035,686.7271 1740.9937,687.5073 L1743.2349,691.9648 L1740.5454,691.9648 L1739.0513,688.8354 Q1738.9849,688.7026 1738.877,688.4702 Q1738.2212,687.0674 1737.333,687.0674 L1736.5527,687.0674 L1736.5527,691.9648 L1734.104,691.9648 L1734.104,679.5718 L1737.6401,679.5718 Q1740.0308,679.5718 1741.0725,680.4185 Q1742.1143,681.2651 1742.1143,683.1743 Q1742.1143,684.4526 1741.4917,685.208 Q1740.8691,685.9634 1739.6987,686.1128 Z M1736.5527,681.6304 L1736.5527,685.0088 L1737.7065,685.0088 Q1738.7109,685.0088 1739.1467,684.6145 Q1739.5825,684.2202 1739.5825,683.3154 Q1739.5825,682.4106 1739.1509,682.0205 Q1738.7192,681.6304 1737.7065,681.6304 Z "/><text fill="#000000" font-family="sans-serif" font-size="12" font-style="italic" lengthAdjust="spacingAndGlyphs" textLength="160" x="1751" y="682.9336">«复核过程中发现的容器差异.»</text><text fill="#000000" font-family="sans-serif" font-size="12" lengthAdjust="spacingAndGlyphs" textLength="75" x="1793.5" y="697.0664">ContainerDiff</text><line style="stroke: #A80036; stroke-width: 1.5;" x1="1725" x2="1911" y1="704.5977" y2="704.5977"/><text fill="#000000" font-family="sans-serif" font-size="11" lengthAdjust="spacingAndGlyphs" textLength="66" x="1730" y="736.1875">containerNo</text><line style="stroke: #A80036; stroke-width: 1.5;" x1="1725" x2="1791.5" y1="719.0752" y2="719.0752"/><text fill="#000000" font-family="sans-serif" font-size="11" lengthAdjust="spacingAndGlyphs" textLength="53" x="1791.5" y="722.7324">Structural</text><line style="stroke: #A80036; stroke-width: 1.5;" x1="1844.5" x2="1911" y1="719.0752" y2="719.0752"/><text fill="#000000" font-family="sans-serif" font-size="11" lengthAdjust="spacingAndGlyphs" textLength="37" x="1730" y="766.0977">reason</text><line style="stroke: #A80036; stroke-width: 1.5;" x1="1725" x2="1786.5" y1="748.9854" y2="748.9854"/><text fill="#000000" font-family="sans-serif" font-size="11" lengthAdjust="spacingAndGlyphs" textLength="63" x="1786.5" y="752.6426">Operational</text><line style="stroke: #A80036; stroke-width: 1.5;" x1="1849.5" x2="1911" y1="748.9854" y2="748.9854"/><text fill="#000000" font-family="sans-serif" font-size="11" lengthAdjust="spacingAndGlyphs" textLength="46" x="1730" y="796.0078">platform</text><line style="stroke: #A80036; stroke-width: 1.5;" x1="1725" x2="1795" y1="778.8955" y2="778.8955"/><text fill="#000000" font-family="sans-serif" font-size="11" lengthAdjust="spacingAndGlyphs" textLength="46" x="1795" y="782.5527">Location</text><line style="stroke: #A80036; stroke-width: 1.5;" x1="1841" x2="1911" y1="778.8955" y2="778.8955"/><text fill="#000000" font-family="sans-serif" font-size="11" lengthAdjust="spacingAndGlyphs" textLength="87" x="1730" y="825.918">registerBroken()</text><text fill="#000000" font-family="sans-serif" font-size="11" lengthAdjust="spacingAndGlyphs" textLength="73" x="1730" y="838.873">registerLost()</text><line style="stroke: #A80036; stroke-width: 1.5;" x1="1725" x2="1807" y1="808.8057" y2="808.8057"/><text fill="#000000" font-family="sans-serif" font-size="11" lengthAdjust="spacingAndGlyphs" textLength="22" x="1807" y="812.4629">行为</text><line style="stroke: #A80036; stroke-width: 1.5;" x1="1829" x2="1911" y1="808.8057" y2="808.8057"/><!--class ContainerDiffItem--><rect fill="#FEFECE" filter="url(#ft4gt2v)" height="69.9102" style="stroke: #A80036; stroke-width: 1.5;" width="132" x="2743" y="761.332"/><ellipse cx="2758" cy="777.332" fill="#ADD1B2" rx="11" ry="11" style="stroke: #A80036; stroke-width: 1.0;"/><path d="M2760.4731,783.4751 Q2759.8921,783.7739 2759.2529,783.9233 Q2758.6138,784.0728 2757.9082,784.0728 Q2755.4014,784.0728 2754.0815,782.4209 Q2752.7617,780.769 2752.7617,777.6479 Q2752.7617,774.5186 2754.0815,772.8667 Q2755.4014,771.2148 2757.9082,771.2148 Q2758.6138,771.2148 2759.2612,771.3643 Q2759.9087,771.5137 2760.4731,771.8125 L2760.4731,774.5352 Q2759.8423,773.9541 2759.2488,773.6843 Q2758.6553,773.4146 2758.0244,773.4146 Q2756.6797,773.4146 2755.9949,774.4812 Q2755.3101,775.5479 2755.3101,777.6479 Q2755.3101,779.7397 2755.9949,780.8064 Q2756.6797,781.873 2758.0244,781.873 Q2758.6553,781.873 2759.2488,781.6033 Q2759.8423,781.3335 2760.4731,780.7524 Z "/><text fill="#000000" font-family="sans-serif" font-size="12" lengthAdjust="spacingAndGlyphs" textLength="100" x="2772" y="781.8672">ContainerDiffItem</text><line style="stroke: #A80036; stroke-width: 1.5;" x1="2744" x2="2874" y1="793.332" y2="793.332"/><text fill="#000000" font-family="sans-serif" font-size="11" lengthAdjust="spacingAndGlyphs" textLength="19" x="2749" y="824.9219">Sku</text><line style="stroke: #A80036; stroke-width: 1.5;" x1="2744" x2="2782.5" y1="807.8096" y2="807.8096"/><text fill="#000000" font-family="sans-serif" font-size="11" lengthAdjust="spacingAndGlyphs" textLength="53" x="2782.5" y="811.4668">Structural</text><line style="stroke: #A80036; stroke-width: 1.5;" x1="2835.5" x2="2874" y1="807.8096" y2="807.8096"/><!--class ContainerDiffItemBag--><rect fill="#FEFECE" filter="url(#ft4gt2v)" height="48" style="stroke: #A80036; stroke-width: 1.5;" width="153" x="2239.5" y="738.332"/><ellipse cx="2254.5" cy="754.332" fill="#9197DB" rx="11" ry="11" style="stroke: #A80036; stroke-width: 1.0;"/><path d="M2252.9033,755.7041 L2252.9033,759.373 L2254.5303,759.373 Q2255.7007,759.373 2256.1697,758.9746 Q2256.6387,758.5762 2256.6387,757.5884 Q2256.6387,756.584 2256.1489,756.144 Q2255.6592,755.7041 2254.5303,755.7041 Z M2252.9033,750.873 L2252.9033,753.7534 L2254.5303,753.7534 Q2255.46,753.7534 2255.8542,753.4214 Q2256.2485,753.0894 2256.2485,752.3257 Q2256.2485,751.562 2255.8459,751.2175 Q2255.4434,750.873 2254.5303,750.873 Z M2250.5376,748.9224 L2254.5303,748.9224 Q2256.5972,748.9224 2257.6389,749.7068 Q2258.6807,750.4912 2258.6807,752.0518 Q2258.6807,753.2471 2258.0664,753.9194 Q2257.4521,754.5918 2256.2651,754.6997 Q2257.6846,754.8408 2258.4026,755.6543 Q2259.1206,756.4678 2259.1206,757.9287 Q2259.1206,759.7217 2258.0415,760.5269 Q2256.9624,761.332 2254.5303,761.332 L2250.5376,761.332 Z "/><text fill="#000000" font-family="sans-serif" font-size="12" lengthAdjust="spacingAndGlyphs" textLength="121" x="2268.5" y="758.8672">ContainerDiffItemBag</text><line style="stroke: #A80036; stroke-width: 1.5;" x1="2240.5" x2="2391.5" y1="770.332" y2="770.332"/><line style="stroke: #A80036; stroke-width: 1.5;" x1="2240.5" x2="2391.5" y1="778.332" y2="778.332"/><!--class Carton--><rect fill="#FEFECE" filter="url(#ft4gt2v)" height="99.8203" style="stroke: #A80036; stroke-width: 1.5;" width="70" x="326.5" y="1270.332"/><ellipse cx="341.5" cy="1286.332" fill="#FF7700" rx="11" ry="11" style="stroke: #A80036; stroke-width: 1.0;"/><path d="M342.1987,1286.98 Q342.564,1287.0547 342.8337,1287.3245 Q343.1035,1287.5942 343.4937,1288.3745 L345.7349,1292.832 L343.0454,1292.832 L341.5513,1289.7026 Q341.4849,1289.5698 341.377,1289.3374 Q340.7212,1287.9346 339.833,1287.9346 L339.0527,1287.9346 L339.0527,1292.832 L336.604,1292.832 L336.604,1280.439 L340.1401,1280.439 Q342.5308,1280.439 343.5725,1281.2856 Q344.6143,1282.1323 344.6143,1284.0415 Q344.6143,1285.3198 343.9917,1286.0752 Q343.3691,1286.8306 342.1987,1286.98 Z M339.0527,1282.4976 L339.0527,1285.876 L340.2065,1285.876 Q341.2109,1285.876 341.6467,1285.4817 Q342.0825,1285.0874 342.0825,1284.1826 Q342.0825,1283.2778 341.6509,1282.8877 Q341.2192,1282.4976 340.2065,1282.4976 Z "/><text fill="#000000" font-family="sans-serif" font-size="12" lengthAdjust="spacingAndGlyphs" textLength="38" x="355.5" y="1290.8672">Carton</text><line style="stroke: #A80036; stroke-width: 1.5;" x1="327.5" x2="395.5" y1="1302.332" y2="1302.332"/><text fill="#000000" font-family="sans-serif" font-size="11" lengthAdjust="spacingAndGlyphs" textLength="33" x="332.5" y="1333.9219">status</text><line style="stroke: #A80036; stroke-width: 1.5;" x1="327.5" x2="338.5" y1="1316.8096" y2="1316.8096"/><text fill="#000000" font-family="sans-serif" font-size="11" lengthAdjust="spacingAndGlyphs" textLength="46" x="338.5" y="1320.4668">Lifecycle</text><line style="stroke: #A80036; stroke-width: 1.5;" x1="384.5" x2="395.5" y1="1316.8096" y2="1316.8096"/><text fill="#000000" font-family="sans-serif" font-size="11" lengthAdjust="spacingAndGlyphs" textLength="35" x="332.5" y="1363.832">fulfill()</text><line style="stroke: #A80036; stroke-width: 1.5;" x1="327.5" x2="350.5" y1="1346.7197" y2="1346.7197"/><text fill="#000000" font-family="sans-serif" font-size="11" lengthAdjust="spacingAndGlyphs" textLength="22" x="350.5" y="1350.377">行为</text><line style="stroke: #A80036; stroke-width: 1.5;" x1="372.5" x2="395.5" y1="1346.7197" y2="1346.7197"/><!--class CartonItem--><rect fill="#FEFECE" filter="url(#ft4gt2v)" height="129.7305" style="stroke: #A80036; stroke-width: 1.5;" width="95" x="1350" y="1232.332"/><ellipse cx="1365" cy="1248.332" fill="#ADD1B2" rx="11" ry="11" style="stroke: #A80036; stroke-width: 1.0;"/><path d="M1367.4731,1254.4751 Q1366.8921,1254.7739 1366.2529,1254.9233 Q1365.6138,1255.0728 1364.9082,1255.0728 Q1362.4014,1255.0728 1361.0815,1253.4209 Q1359.7617,1251.769 1359.7617,1248.6479 Q1359.7617,1245.5186 1361.0815,1243.8667 Q1362.4014,1242.2148 1364.9082,1242.2148 Q1365.6138,1242.2148 1366.2612,1242.3643 Q1366.9087,1242.5137 1367.4731,1242.8125 L1367.4731,1245.5352 Q1366.8423,1244.9541 1366.2488,1244.6843 Q1365.6553,1244.4146 1365.0244,1244.4146 Q1363.6797,1244.4146 1362.9949,1245.4812 Q1362.3101,1246.5479 1362.3101,1248.6479 Q1362.3101,1250.7397 1362.9949,1251.8064 Q1363.6797,1252.873 1365.0244,1252.873 Q1365.6553,1252.873 1366.2488,1252.6033 Q1366.8423,1252.3335 1367.4731,1251.7524 Z "/><text fill="#000000" font-family="sans-serif" font-size="12" lengthAdjust="spacingAndGlyphs" textLength="63" x="1379" y="1252.8672">CartonItem</text><line style="stroke: #A80036; stroke-width: 1.5;" x1="1351" x2="1444" y1="1264.332" y2="1264.332"/><text fill="#000000" font-family="sans-serif" font-size="11" lengthAdjust="spacingAndGlyphs" textLength="19" x="1356" y="1295.9219">sku</text><line style="stroke: #A80036; stroke-width: 1.5;" x1="1351" x2="1371" y1="1278.8096" y2="1278.8096"/><text fill="#000000" font-family="sans-serif" font-size="11" lengthAdjust="spacingAndGlyphs" textLength="53" x="1371" y="1282.4668">Structural</text><line style="stroke: #A80036; stroke-width: 1.5;" x1="1424" x2="1444" y1="1278.8096" y2="1278.8096"/><text fill="#000000" font-family="sans-serif" font-size="11" lengthAdjust="spacingAndGlyphs" textLength="67" x="1356" y="1325.832">orderLineNo</text><line style="stroke: #A80036; stroke-width: 1.5;" x1="1351" x2="1369" y1="1308.7197" y2="1308.7197"/><text fill="#000000" font-family="sans-serif" font-size="11" lengthAdjust="spacingAndGlyphs" textLength="57" x="1369" y="1312.377">Referential</text><line style="stroke: #A80036; stroke-width: 1.5;" x1="1426" x2="1444" y1="1308.7197" y2="1308.7197"/><text fill="#000000" font-family="sans-serif" font-size="11" lengthAdjust="spacingAndGlyphs" textLength="63" x="1356" y="1355.7422">checkedQty</text><line style="stroke: #A80036; stroke-width: 1.5;" x1="1351" x2="1374.5" y1="1338.6299" y2="1338.6299"/><text fill="#000000" font-family="sans-serif" font-size="11" lengthAdjust="spacingAndGlyphs" textLength="46" x="1374.5" y="1342.2871">Quantity</text><line style="stroke: #A80036; stroke-width: 1.5;" x1="1420.5" x2="1444" y1="1338.6299" y2="1338.6299"/><!--class CartonItemBag--><rect fill="#FEFECE" filter="url(#ft4gt2v)" height="69.9102" style="stroke: #A80036; stroke-width: 1.5;" width="212" x="907" y="1300.332"/><ellipse cx="966.75" cy="1316.332" fill="#9197DB" rx="11" ry="11" style="stroke: #A80036; stroke-width: 1.0;"/><path d="M965.1533,1317.7041 L965.1533,1321.373 L966.7803,1321.373 Q967.9507,1321.373 968.4197,1320.9746 Q968.8887,1320.5762 968.8887,1319.5884 Q968.8887,1318.584 968.3989,1318.144 Q967.9092,1317.7041 966.7803,1317.7041 Z M965.1533,1312.873 L965.1533,1315.7534 L966.7803,1315.7534 Q967.71,1315.7534 968.1042,1315.4214 Q968.4985,1315.0894 968.4985,1314.3257 Q968.4985,1313.562 968.0959,1313.2175 Q967.6934,1312.873 966.7803,1312.873 Z M962.7876,1310.9224 L966.7803,1310.9224 Q968.8472,1310.9224 969.8889,1311.7068 Q970.9307,1312.4912 970.9307,1314.0518 Q970.9307,1315.2471 970.3164,1315.9194 Q969.7021,1316.5918 968.5151,1316.6997 Q969.9346,1316.8408 970.6526,1317.6543 Q971.3706,1318.4678 971.3706,1319.9287 Q971.3706,1321.7217 970.2915,1322.5269 Q969.2124,1323.332 966.7803,1323.332 L962.7876,1323.332 Z "/><text fill="#000000" font-family="sans-serif" font-size="12" lengthAdjust="spacingAndGlyphs" textLength="84" x="987.25" y="1320.8672">CartonItemBag</text><line style="stroke: #A80036; stroke-width: 1.5;" x1="908" x2="1118" y1="1332.332" y2="1332.332"/><text fill="#000000" font-family="sans-serif" font-size="11" lengthAdjust="spacingAndGlyphs" textLength="200" x="913" y="1363.9219">contains() 货品唯一是否在本箱里已有了</text><line style="stroke: #A80036; stroke-width: 1.5;" x1="908" x2="1002" y1="1346.8096" y2="1346.8096"/><text fill="#000000" font-family="sans-serif" font-size="11" lengthAdjust="spacingAndGlyphs" textLength="22" x="1002" y="1350.4668">行为</text><line style="stroke: #A80036; stroke-width: 1.5;" x1="1024" x2="1118" y1="1346.8096" y2="1346.8096"/><!--class Consumable--><rect fill="#FEFECE" filter="url(#ft4gt2v)" height="48" style="stroke: #A80036; stroke-width: 1.5;" width="103" x="1346" y="1108.332"/><ellipse cx="1361" cy="1124.332" fill="#9197DB" rx="11" ry="11" style="stroke: #A80036; stroke-width: 1.0;"/><path d="M1359.4033,1125.7041 L1359.4033,1129.373 L1361.0303,1129.373 Q1362.2007,1129.373 1362.6697,1128.9746 Q1363.1387,1128.5762 1363.1387,1127.5884 Q1363.1387,1126.584 1362.6489,1126.144 Q1362.1592,1125.7041 1361.0303,1125.7041 Z M1359.4033,1120.873 L1359.4033,1123.7534 L1361.0303,1123.7534 Q1361.96,1123.7534 1362.3542,1123.4214 Q1362.7485,1123.0894 1362.7485,1122.3257 Q1362.7485,1121.562 1362.3459,1121.2175 Q1361.9434,1120.873 1361.0303,1120.873 Z M1357.0376,1118.9224 L1361.0303,1118.9224 Q1363.0972,1118.9224 1364.1389,1119.7068 Q1365.1807,1120.4912 1365.1807,1122.0518 Q1365.1807,1123.2471 1364.5664,1123.9194 Q1363.9521,1124.5918 1362.7651,1124.6997 Q1364.1846,1124.8408 1364.9026,1125.6543 Q1365.6206,1126.4678 1365.6206,1127.9287 Q1365.6206,1129.7217 1364.5415,1130.5269 Q1363.4624,1131.332 1361.0303,1131.332 L1357.0376,1131.332 Z "/><text fill="#000000" font-family="sans-serif" font-size="12" lengthAdjust="spacingAndGlyphs" textLength="71" x="1375" y="1128.8672">Consumable</text><line style="stroke: #A80036; stroke-width: 1.5;" x1="1347" x2="1448" y1="1140.332" y2="1140.332"/><line style="stroke: #A80036; stroke-width: 1.5;" x1="1347" x2="1448" y1="1148.332" y2="1148.332"/><!--class ConsumableBag--><rect fill="#FEFECE" filter="url(#ft4gt2v)" height="48" style="stroke: #A80036; stroke-width: 1.5;" width="124" x="951" y="1176.332"/><ellipse cx="966" cy="1192.332" fill="#9197DB" rx="11" ry="11" style="stroke: #A80036; stroke-width: 1.0;"/><path d="M964.4033,1193.7041 L964.4033,1197.373 L966.0303,1197.373 Q967.2007,1197.373 967.6697,1196.9746 Q968.1387,1196.5762 968.1387,1195.5884 Q968.1387,1194.584 967.6489,1194.144 Q967.1592,1193.7041 966.0303,1193.7041 Z M964.4033,1188.873 L964.4033,1191.7534 L966.0303,1191.7534 Q966.96,1191.7534 967.3542,1191.4214 Q967.7485,1191.0894 967.7485,1190.3257 Q967.7485,1189.562 967.3459,1189.2175 Q966.9434,1188.873 966.0303,1188.873 Z M962.0376,1186.9224 L966.0303,1186.9224 Q968.0972,1186.9224 969.1389,1187.7068 Q970.1807,1188.4912 970.1807,1190.0518 Q970.1807,1191.2471 969.5664,1191.9194 Q968.9521,1192.5918 967.7651,1192.6997 Q969.1846,1192.8408 969.9026,1193.6543 Q970.6206,1194.4678 970.6206,1195.9287 Q970.6206,1197.7217 969.5415,1198.5269 Q968.4624,1199.332 966.0303,1199.332 L962.0376,1199.332 Z "/><text fill="#000000" font-family="sans-serif" font-size="12" lengthAdjust="spacingAndGlyphs" textLength="92" x="980" y="1196.8672">ConsumableBag</text><line style="stroke: #A80036; stroke-width: 1.5;" x1="952" x2="1074" y1="1208.332" y2="1208.332"/><line style="stroke: #A80036; stroke-width: 1.5;" x1="952" x2="1074" y1="1216.332" y2="1216.332"/><!--class Pallet--><rect fill="#FEFECE" filter="url(#ft4gt2v)" height="48" style="stroke: #A80036; stroke-width: 1.5;" width="63" x="981.5" y="1073.332"/><ellipse cx="996.5" cy="1089.332" fill="#9197DB" rx="11" ry="11" style="stroke: #A80036; stroke-width: 1.0;"/><path d="M994.9033,1090.7041 L994.9033,1094.373 L996.5303,1094.373 Q997.7007,1094.373 998.1697,1093.9746 Q998.6387,1093.5762 998.6387,1092.5884 Q998.6387,1091.584 998.1489,1091.144 Q997.6592,1090.7041 996.5303,1090.7041 Z M994.9033,1085.873 L994.9033,1088.7534 L996.5303,1088.7534 Q997.46,1088.7534 997.8542,1088.4214 Q998.2485,1088.0894 998.2485,1087.3257 Q998.2485,1086.562 997.8459,1086.2175 Q997.4434,1085.873 996.5303,1085.873 Z M992.5376,1083.9224 L996.5303,1083.9224 Q998.5972,1083.9224 999.6389,1084.7068 Q1000.6807,1085.4912 1000.6807,1087.0518 Q1000.6807,1088.2471 1000.0664,1088.9194 Q999.4521,1089.5918 998.2651,1089.6997 Q999.6846,1089.8408 1000.4026,1090.6543 Q1001.1206,1091.4678 1001.1206,1092.9287 Q1001.1206,1094.7217 1000.0415,1095.5269 Q998.9624,1096.332 996.5303,1096.332 L992.5376,1096.332 Z "/><text fill="#000000" font-family="sans-serif" font-size="12" lengthAdjust="spacingAndGlyphs" textLength="31" x="1010.5" y="1093.8672">Pallet</text><line style="stroke: #A80036; stroke-width: 1.5;" x1="982.5" x2="1043.5" y1="1105.332" y2="1105.332"/><line style="stroke: #A80036; stroke-width: 1.5;" x1="982.5" x2="1043.5" y1="1113.332" y2="1113.332"/><!--class Sku--><rect fill="#FEFECE" filter="url(#ft4gt2v)" height="106.0859" style="stroke: #A80036; stroke-width: 1.5;" width="117" x="1759.5" y="1079.332"/><ellipse cx="1785.75" cy="1098.4648" fill="#ADD1B2" rx="11" ry="11" style="stroke: #A80036; stroke-width: 1.0;"/><path d="M1788.2231,1104.6079 Q1787.6421,1104.9067 1787.0029,1105.0562 Q1786.3638,1105.2056 1785.6582,1105.2056 Q1783.1514,1105.2056 1781.8315,1103.5537 Q1780.5117,1101.9019 1780.5117,1098.7808 Q1780.5117,1095.6514 1781.8315,1093.9995 Q1783.1514,1092.3477 1785.6582,1092.3477 Q1786.3638,1092.3477 1787.0112,1092.4971 Q1787.6587,1092.6465 1788.2231,1092.9453 L1788.2231,1095.668 Q1787.5923,1095.0869 1786.9988,1094.8171 Q1786.4053,1094.5474 1785.7744,1094.5474 Q1784.4297,1094.5474 1783.7449,1095.614 Q1783.0601,1096.6807 1783.0601,1098.7808 Q1783.0601,1100.8726 1783.7449,1101.9392 Q1784.4297,1103.0059 1785.7744,1103.0059 Q1786.4053,1103.0059 1786.9988,1102.7361 Q1787.5923,1102.4663 1788.2231,1101.8853 Z "/><text fill="#000000" font-family="sans-serif" font-size="12" font-style="italic" lengthAdjust="spacingAndGlyphs" textLength="64" x="1800.25" y="1095.9336">«货品编号.»</text><text fill="#000000" font-family="sans-serif" font-size="12" lengthAdjust="spacingAndGlyphs" textLength="20" x="1822.25" y="1110.0664">Sku</text><line style="stroke: #A80036; stroke-width: 1.5;" x1="1760.5" x2="1875.5" y1="1117.5977" y2="1117.5977"/><text fill="#000000" font-family="sans-serif" font-size="11" lengthAdjust="spacingAndGlyphs" textLength="105" x="1765.5" y="1149.1875">OwnerNo PackCode</text><line style="stroke: #A80036; stroke-width: 1.5;" x1="1760.5" x2="1791.5" y1="1132.0752" y2="1132.0752"/><text fill="#000000" font-family="sans-serif" font-size="11" lengthAdjust="spacingAndGlyphs" textLength="53" x="1791.5" y="1135.7324">Structural</text><line style="stroke: #A80036; stroke-width: 1.5;" x1="1844.5" x2="1875.5" y1="1132.0752" y2="1132.0752"/><text fill="#000000" font-family="sans-serif" font-size="11" lengthAdjust="spacingAndGlyphs" textLength="67" x="1765.5" y="1179.0977">LotNo snList</text><line style="stroke: #A80036; stroke-width: 1.5;" x1="1760.5" x2="1788.5" y1="1161.9854" y2="1161.9854"/><text fill="#000000" font-family="sans-serif" font-size="11" lengthAdjust="spacingAndGlyphs" textLength="59" x="1788.5" y="1165.6426">Contextual</text><line style="stroke: #A80036; stroke-width: 1.5;" x1="1847.5" x2="1875.5" y1="1161.9854" y2="1161.9854"/><!--class Container--><rect fill="#FEFECE" filter="url(#ft4gt2v)" height="106.0859" style="stroke: #A80036; stroke-width: 1.5;" width="139" x="1749" y="1677.332"/><ellipse cx="1785.15" cy="1696.4648" fill="#ADD1B2" rx="11" ry="11" style="stroke: #A80036; stroke-width: 1.0;"/><path d="M1787.6231,1702.6079 Q1787.0421,1702.9067 1786.4029,1703.0562 Q1785.7638,1703.2056 1785.0582,1703.2056 Q1782.5514,1703.2056 1781.2315,1701.5537 Q1779.9117,1699.9019 1779.9117,1696.7808 Q1779.9117,1693.6514 1781.2315,1691.9995 Q1782.5514,1690.3477 1785.0582,1690.3477 Q1785.7638,1690.3477 1786.4112,1690.4971 Q1787.0587,1690.6465 1787.6231,1690.9453 L1787.6231,1693.668 Q1786.9923,1693.0869 1786.3988,1692.8171 Q1785.8053,1692.5474 1785.1744,1692.5474 Q1783.8297,1692.5474 1783.1449,1693.614 Q1782.4601,1694.6807 1782.4601,1696.7808 Q1782.4601,1698.8726 1783.1449,1699.9392 Q1783.8297,1701.0059 1785.1744,1701.0059 Q1785.8053,1701.0059 1786.3988,1700.7361 Q1786.9923,1700.4663 1787.6231,1699.8853 Z "/><text fill="#000000" font-family="sans-serif" font-size="12" font-style="italic" lengthAdjust="spacingAndGlyphs" textLength="64" x="1801.85" y="1693.9336">«拣货容器.»</text><text fill="#000000" font-family="sans-serif" font-size="12" lengthAdjust="spacingAndGlyphs" textLength="55" x="1806.35" y="1708.0664">Container</text><line style="stroke: #A80036; stroke-width: 1.5;" x1="1750" x2="1887" y1="1715.5977" y2="1715.5977"/><text fill="#000000" font-family="sans-serif" font-size="11" lengthAdjust="spacingAndGlyphs" textLength="79" x="1755" y="1747.1875">ContainerType</text><line style="stroke: #A80036; stroke-width: 1.5;" x1="1750" x2="1787" y1="1730.0752" y2="1730.0752"/><text fill="#000000" font-family="sans-serif" font-size="11" lengthAdjust="spacingAndGlyphs" textLength="63" x="1787" y="1733.7324">Operational</text><line style="stroke: #A80036; stroke-width: 1.5;" x1="1850" x2="1887" y1="1730.0752" y2="1730.0752"/><text fill="#000000" font-family="sans-serif" font-size="11" lengthAdjust="spacingAndGlyphs" textLength="127" x="1755" y="1777.0977">containerNo/扫描枪可扫</text><line style="stroke: #A80036; stroke-width: 1.5;" x1="1750" x2="1806.5" y1="1759.9854" y2="1759.9854"/><text fill="#000000" font-family="sans-serif" font-size="11" lengthAdjust="spacingAndGlyphs" textLength="24" x="1806.5" y="1763.6426">DCU</text><line style="stroke: #A80036; stroke-width: 1.5;" x1="1830.5" x2="1887" y1="1759.9854" y2="1759.9854"/><!--class ContainerBag--><rect fill="#FEFECE" filter="url(#ft4gt2v)" height="121.7305" style="stroke: #A80036; stroke-width: 1.5;" width="222" x="1286" y="1669.332"/><ellipse cx="1354.75" cy="1685.332" fill="#9197DB" rx="11" ry="11" style="stroke: #A80036; stroke-width: 1.0;"/><path d="M1353.1533,1686.7041 L1353.1533,1690.373 L1354.7803,1690.373 Q1355.9507,1690.373 1356.4197,1689.9746 Q1356.8887,1689.5762 1356.8887,1688.5884 Q1356.8887,1687.584 1356.3989,1687.144 Q1355.9092,1686.7041 1354.7803,1686.7041 Z M1353.1533,1681.873 L1353.1533,1684.7534 L1354.7803,1684.7534 Q1355.71,1684.7534 1356.1042,1684.4214 Q1356.4985,1684.0894 1356.4985,1683.3257 Q1356.4985,1682.562 1356.0959,1682.2175 Q1355.6934,1681.873 1354.7803,1681.873 Z M1350.7876,1679.9224 L1354.7803,1679.9224 Q1356.8472,1679.9224 1357.8889,1680.7068 Q1358.9307,1681.4912 1358.9307,1683.0518 Q1358.9307,1684.2471 1358.3164,1684.9194 Q1357.7021,1685.5918 1356.5151,1685.6997 Q1357.9346,1685.8408 1358.6526,1686.6543 Q1359.3706,1687.4678 1359.3706,1688.9287 Q1359.3706,1690.7217 1358.2915,1691.5269 Q1357.2124,1692.332 1354.7803,1692.332 L1350.7876,1692.332 Z "/><text fill="#000000" font-family="sans-serif" font-size="12" lengthAdjust="spacingAndGlyphs" textLength="76" x="1375.25" y="1689.8672">ContainerBag</text><line style="stroke: #A80036; stroke-width: 1.5;" x1="1287" x2="1507" y1="1701.332" y2="1701.332"/><text fill="#000000" font-family="sans-serif" font-size="11" lengthAdjust="spacingAndGlyphs" textLength="186" x="1292" y="1732.9219">totalSku() 该容器的总商品种类(品数).</text><text fill="#000000" font-family="sans-serif" font-size="11" lengthAdjust="spacingAndGlyphs" textLength="145" x="1292" y="1745.877">totalQty() 该容器的总要货量.</text><text fill="#000000" font-family="sans-serif" font-size="11" lengthAdjust="spacingAndGlyphs" textLength="94" x="1292" y="1758.832">totalPendingQty()</text><text fill="#000000" font-family="sans-serif" font-size="11" lengthAdjust="spacingAndGlyphs" textLength="210" x="1292" y="1771.7871">pendingItemBag() 待复核的所有容器明细.</text><text fill="#000000" font-family="sans-serif" font-size="11" lengthAdjust="spacingAndGlyphs" textLength="152" x="1292" y="1784.7422">orderNoSet() 所有的出库单号.</text><line style="stroke: #A80036; stroke-width: 1.5;" x1="1287" x2="1386" y1="1715.8096" y2="1715.8096"/><text fill="#000000" font-family="sans-serif" font-size="11" lengthAdjust="spacingAndGlyphs" textLength="22" x="1386" y="1719.4668">规则</text><line style="stroke: #A80036; stroke-width: 1.5;" x1="1408" x2="1507" y1="1715.8096" y2="1715.8096"/><!--class ContainerItem--><rect fill="#FEFECE" filter="url(#ft4gt2v)" height="148.9512" style="stroke: #A80036; stroke-width: 1.5;" width="197" x="2711" y="1656.332"/><ellipse cx="2735.45" cy="1675.4648" fill="#ADD1B2" rx="11" ry="11" style="stroke: #A80036; stroke-width: 1.0;"/><path d="M2737.9231,1681.6079 Q2737.3421,1681.9067 2736.7029,1682.0562 Q2736.0638,1682.2056 2735.3582,1682.2056 Q2732.8514,1682.2056 2731.5315,1680.5537 Q2730.2117,1678.9019 2730.2117,1675.7808 Q2730.2117,1672.6514 2731.5315,1670.9995 Q2732.8514,1669.3477 2735.3582,1669.3477 Q2736.0638,1669.3477 2736.7112,1669.4971 Q2737.3587,1669.6465 2737.9231,1669.9453 L2737.9231,1672.668 Q2737.2923,1672.0869 2736.6988,1671.8171 Q2736.1053,1671.5474 2735.4744,1671.5474 Q2734.1297,1671.5474 2733.4449,1672.614 Q2732.7601,1673.6807 2732.7601,1675.7808 Q2732.7601,1677.8726 2733.4449,1678.9392 Q2734.1297,1680.0059 2735.4744,1680.0059 Q2736.1053,1680.0059 2736.6988,1679.7361 Q2737.2923,1679.4663 2737.9231,1678.8853 Z "/><text fill="#000000" font-family="sans-serif" font-size="12" font-style="italic" lengthAdjust="spacingAndGlyphs" textLength="148" x="2749.55" y="1672.9336">«拣货容器里的商品和数量.»</text><text fill="#000000" font-family="sans-serif" font-size="12" lengthAdjust="spacingAndGlyphs" textLength="80" x="2783.55" y="1687.0664">ContainerItem</text><line style="stroke: #A80036; stroke-width: 1.5;" x1="2712" x2="2907" y1="1694.5977" y2="1694.5977"/><text fill="#000000" font-family="sans-serif" font-size="11" lengthAdjust="spacingAndGlyphs" textLength="91" x="2717" y="1726.1875">OrderLineNo Sku</text><line style="stroke: #A80036; stroke-width: 1.5;" x1="2712" x2="2783" y1="1709.0752" y2="1709.0752"/><text fill="#000000" font-family="sans-serif" font-size="11" lengthAdjust="spacingAndGlyphs" textLength="53" x="2783" y="1712.7324">Structural</text><line style="stroke: #A80036; stroke-width: 1.5;" x1="2836" x2="2907" y1="1709.0752" y2="1709.0752"/><text fill="#000000" font-family="sans-serif" font-size="11" lengthAdjust="spacingAndGlyphs" textLength="185" x="2717" y="1756.0977">expectedQty givenQty pendingQty</text><line style="stroke: #A80036; stroke-width: 1.5;" x1="2712" x2="2786.5" y1="1738.9854" y2="1738.9854"/><text fill="#000000" font-family="sans-serif" font-size="11" lengthAdjust="spacingAndGlyphs" textLength="46" x="2786.5" y="1742.6426">Quantity</text><line style="stroke: #A80036; stroke-width: 1.5;" x1="2832.5" x2="2907" y1="1738.9854" y2="1738.9854"/><text fill="#000000" font-family="sans-serif" font-size="11" lengthAdjust="spacingAndGlyphs" textLength="172" x="2717" y="1786.0078">diffQty() 复核作业发现的差异数量.</text><text fill="#000000" font-family="sans-serif" font-size="11" lengthAdjust="spacingAndGlyphs" textLength="35" x="2717" y="1798.9629">done()</text><line style="stroke: #A80036; stroke-width: 1.5;" x1="2712" x2="2798.5" y1="1768.8955" y2="1768.8955"/><text fill="#000000" font-family="sans-serif" font-size="11" lengthAdjust="spacingAndGlyphs" textLength="22" x="2798.5" y="1772.5527">规则</text><line style="stroke: #A80036; stroke-width: 1.5;" x1="2820.5" x2="2907" y1="1768.8955" y2="1768.8955"/><!--class ContainerItemBag--><rect fill="#FEFECE" filter="url(#ft4gt2v)" height="95.8203" style="stroke: #A80036; stroke-width: 1.5;" width="198" x="2216.5" y="1682.332"/><ellipse cx="2260.75" cy="1698.332" fill="#9197DB" rx="11" ry="11" style="stroke: #A80036; stroke-width: 1.0;"/><path d="M2259.1533,1699.7041 L2259.1533,1703.373 L2260.7803,1703.373 Q2261.9507,1703.373 2262.4197,1702.9746 Q2262.8887,1702.5762 2262.8887,1701.5884 Q2262.8887,1700.584 2262.3989,1700.144 Q2261.9092,1699.7041 2260.7803,1699.7041 Z M2259.1533,1694.873 L2259.1533,1697.7534 L2260.7803,1697.7534 Q2261.71,1697.7534 2262.1042,1697.4214 Q2262.4985,1697.0894 2262.4985,1696.3257 Q2262.4985,1695.562 2262.0959,1695.2175 Q2261.6934,1694.873 2260.7803,1694.873 Z M2256.7876,1692.9224 L2260.7803,1692.9224 Q2262.8472,1692.9224 2263.8889,1693.7068 Q2264.9307,1694.4912 2264.9307,1696.0518 Q2264.9307,1697.2471 2264.3164,1697.9194 Q2263.7021,1698.5918 2262.5151,1698.6997 Q2263.9346,1698.8408 2264.6526,1699.6543 Q2265.3706,1700.4678 2265.3706,1701.9287 Q2265.3706,1703.7217 2264.2915,1704.5269 Q2263.2124,1705.332 2260.7803,1705.332 L2256.7876,1705.332 Z "/><text fill="#000000" font-family="sans-serif" font-size="12" lengthAdjust="spacingAndGlyphs" textLength="101" x="2281.25" y="1702.8672">ContainerItemBag</text><line style="stroke: #A80036; stroke-width: 1.5;" x1="2217.5" x2="2413.5" y1="1714.332" y2="1714.332"/><text fill="#000000" font-family="sans-serif" font-size="11" lengthAdjust="spacingAndGlyphs" textLength="186" x="2222.5" y="1745.9219">totalSku() 该容器的总商品种类(品数).</text><text fill="#000000" font-family="sans-serif" font-size="11" lengthAdjust="spacingAndGlyphs" textLength="134" x="2222.5" y="1758.877">totalQty() 该容器的总货量.</text><text fill="#000000" font-family="sans-serif" font-size="11" lengthAdjust="spacingAndGlyphs" textLength="94" x="2222.5" y="1771.832">totalPendingQty()</text><line style="stroke: #A80036; stroke-width: 1.5;" x1="2217.5" x2="2304.5" y1="1728.8096" y2="1728.8096"/><text fill="#000000" font-family="sans-serif" font-size="11" lengthAdjust="spacingAndGlyphs" textLength="22" x="2304.5" y="1732.4668">规则</text><line style="stroke: #A80036; stroke-width: 1.5;" x1="2326.5" x2="2413.5" y1="1728.8096" y2="1728.8096"/><!--class Task--><rect fill="#FEFECE" filter="url(#ft4gt2v)" height="148.9512" style="stroke: #A80036; stroke-width: 1.5;" width="92" x="967" y="1656.332"/><ellipse cx="982" cy="1675.4648" fill="#FF7700" rx="11" ry="11" style="stroke: #A80036; stroke-width: 1.0;"/><path d="M982.6987,1676.1128 Q983.064,1676.1875 983.3337,1676.4573 Q983.6035,1676.7271 983.9937,1677.5073 L986.2349,1681.9648 L983.5454,1681.9648 L982.0513,1678.8354 Q981.9849,1678.7026 981.877,1678.4702 Q981.2212,1677.0674 980.333,1677.0674 L979.5527,1677.0674 L979.5527,1681.9648 L977.104,1681.9648 L977.104,1669.5718 L980.6401,1669.5718 Q983.0308,1669.5718 984.0725,1670.4185 Q985.1143,1671.2651 985.1143,1673.1743 Q985.1143,1674.4526 984.4917,1675.208 Q983.8691,1675.9634 982.6987,1676.1128 Z M979.5527,1671.6304 L979.5527,1675.0088 L980.7065,1675.0088 Q981.7109,1675.0088 982.1467,1674.6145 Q982.5825,1674.2202 982.5825,1673.3154 Q982.5825,1672.4106 982.1509,1672.0205 Q981.7192,1671.6304 980.7065,1671.6304 Z "/><text fill="#000000" font-family="sans-serif" font-size="12" font-style="italic" lengthAdjust="spacingAndGlyphs" textLength="64" x="994" y="1672.9336">«复核任务.»</text><text fill="#000000" font-family="sans-serif" font-size="12" lengthAdjust="spacingAndGlyphs" textLength="28" x="1012" y="1687.0664">Task</text><line style="stroke: #A80036; stroke-width: 1.5;" x1="968" x2="1058" y1="1694.5977" y2="1694.5977"/><text fill="#000000" font-family="sans-serif" font-size="11" lengthAdjust="spacingAndGlyphs" textLength="58" x="973" y="1726.1875">TaskStatus</text><line style="stroke: #A80036; stroke-width: 1.5;" x1="968" x2="990" y1="1709.0752" y2="1709.0752"/><text fill="#000000" font-family="sans-serif" font-size="11" lengthAdjust="spacingAndGlyphs" textLength="46" x="990" y="1712.7324">Lifecycle</text><line style="stroke: #A80036; stroke-width: 1.5;" x1="1036" x2="1058" y1="1709.0752" y2="1709.0752"/><text fill="#000000" font-family="sans-serif" font-size="11" lengthAdjust="spacingAndGlyphs" textLength="45" x="973" y="1756.0977">Platform</text><line style="stroke: #A80036; stroke-width: 1.5;" x1="968" x2="990" y1="1738.9854" y2="1738.9854"/><text fill="#000000" font-family="sans-serif" font-size="11" lengthAdjust="spacingAndGlyphs" textLength="46" x="990" y="1742.6426">Location</text><line style="stroke: #A80036; stroke-width: 1.5;" x1="1036" x2="1058" y1="1738.9854" y2="1738.9854"/><text fill="#000000" font-family="sans-serif" font-size="11" lengthAdjust="spacingAndGlyphs" textLength="72" x="973" y="1786.0078">claimedWith()</text><text fill="#000000" font-family="sans-serif" font-size="11" lengthAdjust="spacingAndGlyphs" textLength="69" x="973" y="1798.9629">confirmQty()</text><line style="stroke: #A80036; stroke-width: 1.5;" x1="968" x2="1002" y1="1768.8955" y2="1768.8955"/><text fill="#000000" font-family="sans-serif" font-size="11" lengthAdjust="spacingAndGlyphs" textLength="22" x="1002" y="1772.5527">行为</text><line style="stroke: #A80036; stroke-width: 1.5;" x1="1024" x2="1058" y1="1768.8955" y2="1768.8955"/><!--class TaskOfContainer--><rect fill="#FEFECE" filter="url(#ft4gt2v)" height="48" style="stroke: #A80036; stroke-width: 1.5;" width="128" x="297.5" y="1636.332"/><ellipse cx="312.5" cy="1652.332" fill="#9197DB" rx="11" ry="11" style="stroke: #A80036; stroke-width: 1.0;"/><path d="M310.9033,1653.7041 L310.9033,1657.373 L312.5303,1657.373 Q313.7007,1657.373 314.1697,1656.9746 Q314.6387,1656.5762 314.6387,1655.5884 Q314.6387,1654.584 314.1489,1654.144 Q313.6592,1653.7041 312.5303,1653.7041 Z M310.9033,1648.873 L310.9033,1651.7534 L312.5303,1651.7534 Q313.46,1651.7534 313.8542,1651.4214 Q314.2485,1651.0894 314.2485,1650.3257 Q314.2485,1649.562 313.8459,1649.2175 Q313.4434,1648.873 312.5303,1648.873 Z M308.5376,1646.9224 L312.5303,1646.9224 Q314.5972,1646.9224 315.6389,1647.7068 Q316.6807,1648.4912 316.6807,1650.0518 Q316.6807,1651.2471 316.0664,1651.9194 Q315.4521,1652.5918 314.2651,1652.6997 Q315.6846,1652.8408 316.4026,1653.6543 Q317.1206,1654.4678 317.1206,1655.9287 Q317.1206,1657.7217 316.0415,1658.5269 Q314.9624,1659.332 312.5303,1659.332 L308.5376,1659.332 Z "/><text fill="#000000" font-family="sans-serif" font-size="12" lengthAdjust="spacingAndGlyphs" textLength="96" x="326.5" y="1656.8672">TaskOfContainer</text><line style="stroke: #A80036; stroke-width: 1.5;" x1="298.5" x2="424.5" y1="1668.332" y2="1668.332"/><line style="stroke: #A80036; stroke-width: 1.5;" x1="298.5" x2="424.5" y1="1676.332" y2="1676.332"/><!--class TaskOfOrder--><rect fill="#FEFECE" filter="url(#ft4gt2v)" height="48" style="stroke: #A80036; stroke-width: 1.5;" width="107" x="308" y="1719.332"/><ellipse cx="323" cy="1735.332" fill="#9197DB" rx="11" ry="11" style="stroke: #A80036; stroke-width: 1.0;"/><path d="M321.4033,1736.7041 L321.4033,1740.373 L323.0303,1740.373 Q324.2007,1740.373 324.6697,1739.9746 Q325.1387,1739.5762 325.1387,1738.5884 Q325.1387,1737.584 324.6489,1737.144 Q324.1592,1736.7041 323.0303,1736.7041 Z M321.4033,1731.873 L321.4033,1734.7534 L323.0303,1734.7534 Q323.96,1734.7534 324.3542,1734.4214 Q324.7485,1734.0894 324.7485,1733.3257 Q324.7485,1732.562 324.3459,1732.2175 Q323.9434,1731.873 323.0303,1731.873 Z M319.0376,1729.9224 L323.0303,1729.9224 Q325.0972,1729.9224 326.1389,1730.7068 Q327.1807,1731.4912 327.1807,1733.0518 Q327.1807,1734.2471 326.5664,1734.9194 Q325.9521,1735.5918 324.7651,1735.6997 Q326.1846,1735.8408 326.9026,1736.6543 Q327.6206,1737.4678 327.6206,1738.9287 Q327.6206,1740.7217 326.5415,1741.5269 Q325.4624,1742.332 323.0303,1742.332 L319.0376,1742.332 Z "/><text fill="#000000" font-family="sans-serif" font-size="12" lengthAdjust="spacingAndGlyphs" textLength="75" x="337" y="1739.8672">TaskOfOrder</text><line style="stroke: #A80036; stroke-width: 1.5;" x1="309" x2="414" y1="1751.332" y2="1751.332"/><line style="stroke: #A80036; stroke-width: 1.5;" x1="309" x2="414" y1="1759.332" y2="1759.332"/><!--class TaskOfSku--><rect fill="#FEFECE" filter="url(#ft4gt2v)" height="48" style="stroke: #A80036; stroke-width: 1.5;" width="93" x="315" y="1802.332"/><ellipse cx="330" cy="1818.332" fill="#9197DB" rx="11" ry="11" style="stroke: #A80036; stroke-width: 1.0;"/><path d="M328.4033,1819.7041 L328.4033,1823.373 L330.0303,1823.373 Q331.2007,1823.373 331.6697,1822.9746 Q332.1387,1822.5762 332.1387,1821.5884 Q332.1387,1820.584 331.6489,1820.144 Q331.1592,1819.7041 330.0303,1819.7041 Z M328.4033,1814.873 L328.4033,1817.7534 L330.0303,1817.7534 Q330.96,1817.7534 331.3542,1817.4214 Q331.7485,1817.0894 331.7485,1816.3257 Q331.7485,1815.562 331.3459,1815.2175 Q330.9434,1814.873 330.0303,1814.873 Z M326.0376,1812.9224 L330.0303,1812.9224 Q332.0972,1812.9224 333.1389,1813.7068 Q334.1807,1814.4912 334.1807,1816.0518 Q334.1807,1817.2471 333.5664,1817.9194 Q332.9521,1818.5918 331.7651,1818.6997 Q333.1846,1818.8408 333.9026,1819.6543 Q334.6206,1820.4678 334.6206,1821.9287 Q334.6206,1823.7217 333.5415,1824.5269 Q332.4624,1825.332 330.0303,1825.332 L326.0376,1825.332 Z "/><text fill="#000000" font-family="sans-serif" font-size="12" lengthAdjust="spacingAndGlyphs" textLength="61" x="344" y="1822.8672">TaskOfSku</text><line style="stroke: #A80036; stroke-width: 1.5;" x1="316" x2="407" y1="1834.332" y2="1834.332"/><line style="stroke: #A80036; stroke-width: 1.5;" x1="316" x2="407" y1="1842.332" y2="1842.332"/><!--class ShippingManifest--><rect fill="#FEFECE" filter="url(#ft4gt2v)" height="99.8203" style="stroke: #A80036; stroke-width: 1.5;" width="129" x="297" y="1941.332"/><ellipse cx="312" cy="1957.332" fill="#FF7700" rx="11" ry="11" style="stroke: #A80036; stroke-width: 1.0;"/><path d="M312.6987,1957.98 Q313.064,1958.0547 313.3337,1958.3245 Q313.6035,1958.5942 313.9937,1959.3745 L316.2349,1963.832 L313.5454,1963.832 L312.0513,1960.7026 Q311.9849,1960.5698 311.877,1960.3374 Q311.2212,1958.9346 310.333,1958.9346 L309.5527,1958.9346 L309.5527,1963.832 L307.104,1963.832 L307.104,1951.439 L310.6401,1951.439 Q313.0308,1951.439 314.0725,1952.2856 Q315.1143,1953.1323 315.1143,1955.0415 Q315.1143,1956.3198 314.4917,1957.0752 Q313.8691,1957.8306 312.6987,1957.98 Z M309.5527,1953.4976 L309.5527,1956.876 L310.7065,1956.876 Q311.7109,1956.876 312.1467,1956.4817 Q312.5825,1956.0874 312.5825,1955.1826 Q312.5825,1954.2778 312.1509,1953.8877 Q311.7192,1953.4976 310.7065,1953.4976 Z "/><text fill="#000000" font-family="sans-serif" font-size="12" lengthAdjust="spacingAndGlyphs" textLength="97" x="326" y="1961.8672">ShippingManifest</text><line style="stroke: #A80036; stroke-width: 1.5;" x1="298" x2="425" y1="1973.332" y2="1973.332"/><text fill="#000000" font-family="sans-serif" font-size="11" lengthAdjust="spacingAndGlyphs" textLength="51" x="303" y="2004.9219">carrierNo</text><line style="stroke: #A80036; stroke-width: 1.5;" x1="298" x2="335" y1="1987.8096" y2="1987.8096"/><text fill="#000000" font-family="sans-serif" font-size="11" lengthAdjust="spacingAndGlyphs" textLength="53" x="335" y="1991.4668">Structural</text><line style="stroke: #A80036; stroke-width: 1.5;" x1="388" x2="425" y1="1987.8096" y2="1987.8096"/><text fill="#000000" font-family="sans-serif" font-size="11" lengthAdjust="spacingAndGlyphs" textLength="38" x="303" y="2034.832">extInfo</text><line style="stroke: #A80036; stroke-width: 1.5;" x1="298" x2="337" y1="2017.7197" y2="2017.7197"/><text fill="#000000" font-family="sans-serif" font-size="11" lengthAdjust="spacingAndGlyphs" textLength="49" x="337" y="2021.377">Reserved</text><line style="stroke: #A80036; stroke-width: 1.5;" x1="386" x2="425" y1="2017.7197" y2="2017.7197"/><!--class ManualCheckAppService--><rect fill="#FEFECE" filter="url(#ft4gt2v)" height="151.6406" style="stroke: #A80036; stroke-width: 1.5;" width="647" x="38" y="263.332"/><ellipse cx="287.25" cy="279.332" fill="#ADD1B2" rx="11" ry="11" style="stroke: #A80036; stroke-width: 1.0;"/><path d="M289.7231,285.4751 Q289.1421,285.7739 288.5029,285.9233 Q287.8638,286.0728 287.1582,286.0728 Q284.6514,286.0728 283.3315,284.4209 Q282.0117,282.769 282.0117,279.6479 Q282.0117,276.5186 283.3315,274.8667 Q284.6514,273.2148 287.1582,273.2148 Q287.8638,273.2148 288.5112,273.3643 Q289.1587,273.5137 289.7231,273.8125 L289.7231,276.5352 Q289.0923,275.9541 288.4988,275.6843 Q287.9053,275.4146 287.2744,275.4146 Q285.9297,275.4146 285.2449,276.4812 Q284.5601,277.5479 284.5601,279.6479 Q284.5601,281.7397 285.2449,282.8064 Q285.9297,283.873 287.2744,283.873 Q287.9053,283.873 288.4988,283.6033 Q289.0923,283.3335 289.7231,282.7524 Z "/><text fill="#000000" font-family="sans-serif" font-size="12" lengthAdjust="spacingAndGlyphs" textLength="140" x="307.75" y="283.8672">ManualCheckAppService</text><line style="stroke: #A80036; stroke-width: 1.5;" x1="39" x2="684" y1="295.332" y2="295.332"/><line style="stroke: #A80036; stroke-width: 1.5;" x1="39" x2="684" y1="303.332" y2="303.332"/><text fill="#000000" font-family="sans-serif" font-size="11" lengthAdjust="spacingAndGlyphs" textLength="338" x="44" y="317.9668">recommendPlatform(taskNo) 拣货员应该去哪一个复核台进行复核?</text><text fill="#000000" font-family="sans-serif" font-size="11" lengthAdjust="spacingAndGlyphs" textLength="276" x="44" y="330.9219">claimTask(containerNo) 复核员扫描容器领取复核任务.</text><text fill="#000000" font-family="sans-serif" font-size="11" lengthAdjust="spacingAndGlyphs" textLength="391" x="44" y="343.877">checkBySku(orderNo,qty,skuNo,taskNo) 操作员(复核员)清点并确认货品数量.</text><text fill="#000000" font-family="sans-serif" font-size="11" lengthAdjust="spacingAndGlyphs" textLength="225" x="44" y="356.832">checkByOrder(orderNo,qty,skuNo,taskNo)</text><text fill="#000000" font-family="sans-serif" font-size="11" lengthAdjust="spacingAndGlyphs" textLength="168" x="44" y="369.7871">pause(orderNo) 暂停一个出库单.</text><text fill="#000000" font-family="sans-serif" font-size="11" lengthAdjust="spacingAndGlyphs" textLength="209" x="44" y="382.7422">resume(orderNo) 恢复一个出库单的执行.</text><text fill="#000000" font-family="sans-serif" font-size="11" lengthAdjust="spacingAndGlyphs" textLength="190" x="44" y="395.6973">recheck(cartonNo,taskNo) 重新复核.</text><text fill="#000000" font-family="sans-serif" font-size="11" lengthAdjust="spacingAndGlyphs" textLength="635" x="44" y="408.6523">fulfillCarton(cartonNo,consumables,orderNo) 复核员把拣货容器的货品放入箱，并使用耗材以便运输安全，该过程发现箱已满.</text><!--class TaskSubmittedConsumer--><rect fill="#FEFECE" filter="url(#ft4gt2v)" height="60.9551" style="stroke: #A80036; stroke-width: 1.5;" width="176" x="273.5" y="450.832"/><ellipse cx="288.5" cy="466.832" fill="#ADD1B2" rx="11" ry="11" style="stroke: #A80036; stroke-width: 1.0;"/><path d="M290.9731,472.9751 Q290.3921,473.2739 289.7529,473.4233 Q289.1138,473.5728 288.4082,473.5728 Q285.9014,473.5728 284.5815,471.9209 Q283.2617,470.269 283.2617,467.1479 Q283.2617,464.0186 284.5815,462.3667 Q285.9014,460.7148 288.4082,460.7148 Q289.1138,460.7148 289.7612,460.8643 Q290.4087,461.0137 290.9731,461.3125 L290.9731,464.0352 Q290.3423,463.4541 289.7488,463.1843 Q289.1553,462.9146 288.5244,462.9146 Q287.1797,462.9146 286.4949,463.9812 Q285.8101,465.0479 285.8101,467.1479 Q285.8101,469.2397 286.4949,470.3064 Q287.1797,471.373 288.5244,471.373 Q289.1553,471.373 289.7488,471.1033 Q290.3423,470.8335 290.9731,470.2524 Z "/><text fill="#000000" font-family="sans-serif" font-size="12" lengthAdjust="spacingAndGlyphs" textLength="144" x="302.5" y="471.3672">TaskSubmittedConsumer</text><line style="stroke: #A80036; stroke-width: 1.5;" x1="274.5" x2="448.5" y1="482.832" y2="482.832"/><line style="stroke: #A80036; stroke-width: 1.5;" x1="274.5" x2="448.5" y1="490.832" y2="490.832"/><text fill="#000000" font-family="sans-serif" font-size="11" lengthAdjust="spacingAndGlyphs" textLength="119" x="279.5" y="505.4668">消费接收复核任务(json)</text><!--class RecommendPlatformFlow--><rect fill="#FEFECE" filter="url(#ft4gt2v)" height="60.9551" style="stroke: #A80036; stroke-width: 1.5;" width="216" x="253.5" y="110.832"/><ellipse cx="286.05" cy="126.832" fill="#ADD1B2" rx="11" ry="11" style="stroke: #A80036; stroke-width: 1.0;"/><path d="M288.5231,132.9751 Q287.9421,133.2739 287.3029,133.4233 Q286.6638,133.5728 285.9582,133.5728 Q283.4514,133.5728 282.1315,131.9209 Q280.8117,130.269 280.8117,127.1479 Q280.8117,124.0186 282.1315,122.3667 Q283.4514,120.7148 285.9582,120.7148 Q286.6638,120.7148 287.3112,120.8643 Q287.9587,121.0137 288.5231,121.3125 L288.5231,124.0352 Q287.8923,123.4541 287.2988,123.1843 Q286.7053,122.9146 286.0744,122.9146 Q284.7297,122.9146 284.0449,123.9812 Q283.3601,125.0479 283.3601,127.1479 Q283.3601,129.2397 284.0449,130.3064 Q284.7297,131.373 286.0744,131.373 Q286.7053,131.373 287.2988,131.1033 Q287.8923,130.8335 288.5231,130.2524 Z "/><text fill="#000000" font-family="sans-serif" font-size="12" lengthAdjust="spacingAndGlyphs" textLength="145" x="303.95" y="131.3672">RecommendPlatformFlow</text><line style="stroke: #A80036; stroke-width: 1.5;" x1="254.5" x2="468.5" y1="142.832" y2="142.832"/><line style="stroke: #A80036; stroke-width: 1.5;" x1="254.5" x2="468.5" y1="150.832" y2="150.832"/><text fill="#000000" font-family="sans-serif" font-size="11" lengthAdjust="spacingAndGlyphs" textLength="204" x="259.5" y="165.4668">execute(RecommendPlatformRequest)</text><path d="M2493.16,1315.522 C2560.39,1309.502 2635.12,1302.812 2694.9,1297.452 " fill="none" style="stroke: #A80036; stroke-width: 1.0;"/><polygon fill="#A80036" points="2479.82,1316.712,2486.1524,1320.1618,2491.7723,1315.6434,2485.44,1312.1936,2479.82,1316.712" style="stroke: #A80036; stroke-width: 1.0;"/><text fill="#000000" font-family="sans-serif" font-size="13" lengthAdjust="spacingAndGlyphs" textLength="49" x="2548" y="1303.9004">HasOne</text><text fill="#000000" font-family="sans-serif" font-size="13" lengthAdjust="spacingAndGlyphs" textLength="8" x="2487.6015" y="1328.5524">1</text><text fill="#000000" font-family="sans-serif" font-size="13" lengthAdjust="spacingAndGlyphs" textLength="8" x="2678.9652" y="1311.2177">1</text><path d="M2492.1,1387.982 C2575.62,1414.922 2657.5,1441.332 2657.5,1441.332 C2657.5,1441.332 2696.61,1452.242 2734.95,1462.952 " fill="none" style="stroke: #A80036; stroke-width: 1.0;"/><polygon fill="#FFFFFF" points="2479.51,1383.912,2483.9903,1389.5624,2490.9293,1387.5999,2486.4489,1381.9496,2479.51,1383.912" style="stroke: #A80036; stroke-width: 1.0;"/><text fill="#000000" font-family="sans-serif" font-size="13" lengthAdjust="spacingAndGlyphs" textLength="61" x="2542" y="1402.9004">Associate</text><path d="M2492.7,1356.072 C2575.23,1367.652 2669.17,1380.842 2732.88,1389.782 " fill="none" style="stroke: #A80036; stroke-width: 1.0;"/><polygon fill="#FFFFFF" points="2479.82,1354.262,2485.203,1359.0603,2491.7025,1355.9369,2486.3196,1351.1386,2479.82,1354.262" style="stroke: #A80036; stroke-width: 1.0;"/><text fill="#000000" font-family="sans-serif" font-size="13" lengthAdjust="spacingAndGlyphs" textLength="61" x="2542" y="1360.9004">Associate</text><path d="M2480.53,1235.742 C2568.8,1184.312 2672.99,1123.592 2739.97,1084.562 " fill="none" style="stroke: #A80036; stroke-width: 1.0;"/><polygon fill="#A80036" points="2469.29,1242.292,2476.4881,1242.7245,2479.6558,1236.2464,2472.4577,1235.8139,2469.29,1242.292" style="stroke: #A80036; stroke-width: 1.0;"/><text fill="#000000" font-family="sans-serif" font-size="13" lengthAdjust="spacingAndGlyphs" textLength="57" x="2544" y="1167.9004">HasMany</text><text fill="#000000" font-family="sans-serif" font-size="13" lengthAdjust="spacingAndGlyphs" textLength="8" x="2487.0352" y="1240.7984">1</text><text fill="#000000" font-family="sans-serif" font-size="13" lengthAdjust="spacingAndGlyphs" textLength="10" x="2721.8183" y="1102.3681">N</text><path d="M2936.15,1294.932 C2996.11,1298.542 3066.32,1302.772 3120.43,1306.032 " fill="none" style="stroke: #A80036; stroke-width: 1.0;"/><polygon fill="#A80036" points="2923.13,1294.142,2928.8775,1298.4971,2935.1081,1294.8668,2929.3606,1290.5117,2923.13,1294.142" style="stroke: #A80036; stroke-width: 1.0;"/><text fill="#000000" font-family="sans-serif" font-size="13" lengthAdjust="spacingAndGlyphs" textLength="57" x="3007.5" y="1295.9004">HasMany</text><text fill="#000000" font-family="sans-serif" font-size="13" lengthAdjust="spacingAndGlyphs" textLength="8" x="2931.3053" y="1308.8416">1</text><text fill="#000000" font-family="sans-serif" font-size="13" lengthAdjust="spacingAndGlyphs" textLength="10" x="3102.3888" y="1318.803">N</text><path d="M1925.14,756.832 C2019.62,758.162 2155.5,760.072 2239.5,761.262 " fill="none" style="stroke: #A80036; stroke-width: 1.0;"/><polygon fill="#A80036" points="1912.1,756.642,1918.0423,760.7273,1924.0988,756.8134,1918.1565,752.7281,1912.1,756.642" style="stroke: #A80036; stroke-width: 1.0;"/><text fill="#000000" font-family="sans-serif" font-size="13" lengthAdjust="spacingAndGlyphs" textLength="49" x="2038" y="755.9004">HasOne</text><text fill="#000000" font-family="sans-serif" font-size="13" lengthAdjust="spacingAndGlyphs" textLength="8" x="1920.1491" y="770.7306">1</text><text fill="#000000" font-family="sans-serif" font-size="13" lengthAdjust="spacingAndGlyphs" textLength="8" x="2223.5758" y="774.4786">1</text><path d="M2846.05,830.582 C2890.57,872.892 2960.5,939.332 2960.5,939.332 C2960.5,939.332 3078.7,1116.632 3151.9,1226.432 " fill="none" style="stroke: #A80036; stroke-width: 1.0;"/><polygon fill="none" points="3157.74,1222.582,3163.01,1243.102,3146.09,1230.342,3157.74,1222.582" style="stroke: #A80036; stroke-width: 1.0;"/><text fill="#000000" font-family="sans-serif" font-size="13" lengthAdjust="spacingAndGlyphs" textLength="58" x="3007" y="1007.9004">BelongTo</text><path d="M2405.53,768.432 C2502.46,775.152 2656.06,785.802 2742.78,791.812 " fill="none" style="stroke: #A80036; stroke-width: 1.0;"/><polygon fill="#A80036" points="2392.53,767.532,2398.2387,771.9377,2404.5012,768.3626,2398.7925,763.9569,2392.53,767.532" style="stroke: #A80036; stroke-width: 1.0;"/><text fill="#000000" font-family="sans-serif" font-size="13" lengthAdjust="spacingAndGlyphs" textLength="57" x="2544" y="774.9004">HasMany</text><text fill="#000000" font-family="sans-serif" font-size="13" lengthAdjust="spacingAndGlyphs" textLength="8" x="2400.3959" y="782.9125">1</text><text fill="#000000" font-family="sans-serif" font-size="13" lengthAdjust="spacingAndGlyphs" textLength="10" x="2724.9903" y="804.7282">N</text><path d="M1132.2,1323.602 C1205.67,1316.312 1296.08,1307.342 1350,1301.992 " fill="none" style="stroke: #A80036; stroke-width: 1.0;"/><polygon fill="#A80036" points="1119.16,1324.902,1125.526,1328.2893,1131.1012,1323.7158,1124.7352,1320.3285,1119.16,1324.902" style="stroke: #A80036; stroke-width: 1.0;"/><text fill="#000000" font-family="sans-serif" font-size="13" lengthAdjust="spacingAndGlyphs" textLength="57" x="1174" y="1310.9004">HasMany</text><text fill="#000000" font-family="sans-serif" font-size="13" lengthAdjust="spacingAndGlyphs" textLength="8" x="1126.8033" y="1337.0524">1</text><text fill="#000000" font-family="sans-serif" font-size="13" lengthAdjust="spacingAndGlyphs" textLength="10" x="1331.9609" y="1316.4668">N</text><path d="M1088.32,1187.132 C1164.15,1173.672 1279.81,1153.142 1345.91,1141.402 " fill="none" style="stroke: #A80036; stroke-width: 1.0;"/><polygon fill="#A80036" points="1075.11,1189.482,1081.7166,1192.3721,1086.9254,1187.3853,1080.3188,1184.4952,1075.11,1189.482" style="stroke: #A80036; stroke-width: 1.0;"/><text fill="#000000" font-family="sans-serif" font-size="13" lengthAdjust="spacingAndGlyphs" textLength="57" x="1174" y="1158.9004">HasMany</text><text fill="#000000" font-family="sans-serif" font-size="13" lengthAdjust="spacingAndGlyphs" textLength="8" x="1082.7271" y="1201.1918">1</text><text fill="#000000" font-family="sans-serif" font-size="13" lengthAdjust="spacingAndGlyphs" textLength="10" x="1327.952" y="1156.3224">N</text><path d="M1449.01,1132.332 C1520.9,1132.332 1654.13,1132.332 1739.03,1132.332 " fill="none" style="stroke: #A80036; stroke-width: 1.0;"/><polygon fill="none" points="1739.24,1125.332,1759.24,1132.332,1739.24,1139.332,1739.24,1125.332" style="stroke: #A80036; stroke-width: 1.0;"/><text fill="#000000" font-family="sans-serif" font-size="13" lengthAdjust="spacingAndGlyphs" textLength="50" x="1566.5" y="1128.9004">Extends</text><path d="M396.51,1341.802 C500.42,1407.392 814.88,1605.902 949.62,1690.962 " fill="none" style="stroke: #A80036; stroke-width: 1.0;"/><polygon fill="none" points="953.48,1685.112,966.65,1701.702,946,1696.952,953.48,1685.112" style="stroke: #A80036; stroke-width: 1.0;"/><text fill="#000000" font-family="sans-serif" font-size="13" lengthAdjust="spacingAndGlyphs" textLength="58" x="756" y="1546.9004">BelongTo</text><path d="M396.51,1326.252 C530.14,1349.502 1012,1433.332 1012,1433.332 C1012,1433.332 1012,1433.332 1819,1433.332 C1819,1433.332 1990.35,1398.062 2131.53,1369.002 " fill="none" style="stroke: #A80036; stroke-width: 1.0;"/><polygon fill="none" points="2130.22,1362.122,2151.23,1364.942,2133.05,1375.832,2130.22,1362.122" style="stroke: #A80036; stroke-width: 1.0;"/><text fill="#000000" font-family="sans-serif" font-size="13" lengthAdjust="spacingAndGlyphs" textLength="58" x="1368" y="1429.9004">BelongTo</text><path d="M396.65,1308.392 C512.45,1267.902 883,1138.332 883,1138.332 C883,1138.332 925.92,1124.692 962.24,1113.152 " fill="none" style="stroke: #A80036; stroke-width: 1.0;"/><polygon fill="none" points="960.25,1106.432,981.43,1107.052,964.49,1119.782,960.25,1106.432" style="stroke: #A80036; stroke-width: 1.0;"/><text fill="#000000" font-family="sans-serif" font-size="13" lengthAdjust="spacingAndGlyphs" textLength="134" x="718" y="1147.9004">BelongTo/Contextual</text><path d="M409.57,1321.422 C513.31,1323.812 763.76,1329.602 906.94,1332.902 " fill="none" style="stroke: #A80036; stroke-width: 1.0;"/><polygon fill="#A80036" points="396.51,1321.122,402.416,1325.2595,408.5068,1321.3992,402.6008,1317.2617,396.51,1321.122" style="stroke: #A80036; stroke-width: 1.0;"/><text fill="#000000" font-family="sans-serif" font-size="13" lengthAdjust="spacingAndGlyphs" textLength="49" x="760.5" y="1325.9004">HasOne</text><text fill="#000000" font-family="sans-serif" font-size="13" lengthAdjust="spacingAndGlyphs" textLength="8" x="404.4026" y="1338.0646">1</text><text fill="#000000" font-family="sans-serif" font-size="13" lengthAdjust="spacingAndGlyphs" textLength="8" x="890.8575" y="1345.8574">1</text><path d="M409.31,1311.682 C524.52,1290.402 821.77,1235.482 950.76,1211.642 " fill="none" style="stroke: #A80036; stroke-width: 1.0;"/><polygon fill="#A80036" points="396.51,1314.052,403.1388,1316.8908,408.3088,1311.8637,401.6799,1309.0249,396.51,1314.052" style="stroke: #A80036; stroke-width: 1.0;"/><text fill="#000000" font-family="sans-serif" font-size="13" lengthAdjust="spacingAndGlyphs" textLength="49" x="760.5" y="1227.9004">HasOne</text><text fill="#000000" font-family="sans-serif" font-size="13" lengthAdjust="spacingAndGlyphs" textLength="8" x="404.5558" y="1326.9226">1</text><text fill="#000000" font-family="sans-serif" font-size="13" lengthAdjust="spacingAndGlyphs" textLength="8" x="935.101" y="1226.4033">1</text><path d="M2881.61,1655.902 C2951.57,1582.162 3058.46,1469.492 3130.8,1393.242 " fill="none" style="stroke: #A80036; stroke-width: 1.0;"/><polygon fill="none" points="3125.94,1388.182,3144.78,1378.492,3136.1,1397.822,3125.94,1388.182" style="stroke: #A80036; stroke-width: 1.0;"/><text fill="#000000" font-family="sans-serif" font-size="13" lengthAdjust="spacingAndGlyphs" textLength="58" x="3007" y="1467.9004">BelongTo</text><path d="M415.1,1742.282 C532.96,1739.922 817.96,1734.212 946.81,1731.632 " fill="none" style="stroke: #A80036; stroke-width: 1.0;"/><polygon fill="none" points="946.69,1724.642,966.82,1731.232,946.97,1738.632,946.69,1724.642" style="stroke: #A80036; stroke-width: 1.0;"/><text fill="#000000" font-family="sans-serif" font-size="13" lengthAdjust="spacingAndGlyphs" textLength="69" x="750.5" y="1729.9004">Contextual</text><path d="M2427.81,1730.332 C2512.99,1730.332 2629.32,1730.332 2710.99,1730.332 " fill="none" style="stroke: #A80036; stroke-width: 1.0;"/><polygon fill="#A80036" points="2414.69,1730.332,2420.69,1734.332,2426.69,1730.332,2420.69,1726.332,2414.69,1730.332" style="stroke: #A80036; stroke-width: 1.0;"/><text fill="#000000" font-family="sans-serif" font-size="13" lengthAdjust="spacingAndGlyphs" textLength="57" x="2544" y="1726.9004">HasMany</text><text fill="#000000" font-family="sans-serif" font-size="13" lengthAdjust="spacingAndGlyphs" textLength="8" x="2422.4558" y="1744.1832">1</text><text fill="#000000" font-family="sans-serif" font-size="13" lengthAdjust="spacingAndGlyphs" textLength="10" x="2693.065" y="1743.4501">N</text><path d="M1901.39,1730.332 C1987.71,1730.332 2124.08,1730.332 2216.31,1730.332 " fill="none" style="stroke: #A80036; stroke-width: 1.0;"/><polygon fill="#A80036" points="1888.24,1730.332,1894.24,1734.332,1900.24,1730.332,1894.24,1726.332,1888.24,1730.332" style="stroke: #A80036; stroke-width: 1.0;"/><text fill="#000000" font-family="sans-serif" font-size="13" lengthAdjust="spacingAndGlyphs" textLength="49" x="2038" y="1726.9004">HasOne</text><text fill="#000000" font-family="sans-serif" font-size="13" lengthAdjust="spacingAndGlyphs" textLength="8" x="1896.2641" y="1744.7559">1</text><text fill="#000000" font-family="sans-serif" font-size="13" lengthAdjust="spacingAndGlyphs" textLength="8" x="2200.4095" y="1743.4934">1</text><path d="M408.16,1820.932 C502.24,1809.792 709,1785.332 709,1785.332 C709,1785.332 853,1760.332 853,1760.332 C853,1760.332 903.05,1750.892 946.99,1742.602 " fill="none" style="stroke: #A80036; stroke-width: 1.0;"/><polygon fill="none" points="945.91,1735.682,966.86,1738.852,948.51,1749.432,945.91,1735.682" style="stroke: #A80036; stroke-width: 1.0;"/><text fill="#000000" font-family="sans-serif" font-size="13" lengthAdjust="spacingAndGlyphs" textLength="69" x="750.5" y="1756.9004">Contextual</text><path d="M1072.66,1730.332 C1129.22,1730.332 1216.23,1730.332 1285.75,1730.332 " fill="none" style="stroke: #A80036; stroke-width: 1.0;"/><polygon fill="#A80036" points="1059.32,1730.332,1065.32,1734.332,1071.32,1730.332,1065.32,1726.332,1059.32,1730.332" style="stroke: #A80036; stroke-width: 1.0;"/><text fill="#000000" font-family="sans-serif" font-size="13" lengthAdjust="spacingAndGlyphs" textLength="49" x="1178" y="1726.9004">HasOne</text><text fill="#000000" font-family="sans-serif" font-size="13" lengthAdjust="spacingAndGlyphs" textLength="8" x="1066.9255" y="1745.5479">1</text><text fill="#000000" font-family="sans-serif" font-size="13" lengthAdjust="spacingAndGlyphs" textLength="8" x="1270.0066" y="1743.4238">1</text><path d="M425.62,1666.512 C558.1,1679.472 853,1708.332 853,1708.332 C853,1708.332 903.05,1715.262 946.99,1721.332 " fill="none" style="stroke: #A80036; stroke-width: 1.0;"/><polygon fill="none" points="948.01,1714.412,966.86,1724.082,946.09,1728.282,948.01,1714.412" style="stroke: #A80036; stroke-width: 1.0;"/><text fill="#000000" font-family="sans-serif" font-size="13" lengthAdjust="spacingAndGlyphs" textLength="69" x="750.5" y="1691.9004">Contextual</text><path d="M1521.23,1730.332 C1595.39,1730.332 1687.06,1730.332 1748.73,1730.332 " fill="none" style="stroke: #A80036; stroke-width: 1.0;"/><polygon fill="#A80036" points="1508.08,1730.332,1514.08,1734.332,1520.08,1730.332,1514.08,1726.332,1508.08,1730.332" style="stroke: #A80036; stroke-width: 1.0;"/><text fill="#000000" font-family="sans-serif" font-size="13" lengthAdjust="spacingAndGlyphs" textLength="57" x="1563" y="1726.9004">HasMany</text><text fill="#000000" font-family="sans-serif" font-size="13" lengthAdjust="spacingAndGlyphs" textLength="8" x="1515.8074" y="1744.0446">1</text><text fill="#000000" font-family="sans-serif" font-size="13" lengthAdjust="spacingAndGlyphs" textLength="10" x="1731.0193" y="1743.6854">N</text><text fill="#888888" font-family="sans-serif" font-size="10" lengthAdjust="spacingAndGlyphs" textLength="108" x="1643.5" y="2117">generated by DDDplus</text></g></svg>