<?xml version="1.0" encoding="UTF-8" standalone="no"?><svg xmlns="http://www.w3.org/2000/svg" xmlns:xlink="http://www.w3.org/1999/xlink" contentScriptType="application/ecmascript" contentStyleType="text/css" height="2345px" preserveAspectRatio="none" style="width:4631px;height:2345px;" version="1.1" viewBox="0 0 4631 2345" width="4631px" zoomAndPan="magnify"><defs><filter height="300%" id="f6cunli" width="300%" x="-1" y="-1"><feGaussianBlur result="blurOut" stdDeviation="2.0"/><feColorMatrix in="blurOut" result="blurOut2" type="matrix" values="0 0 0 0 0 0 0 0 0 0 0 0 0 0 0 0 0 0 .4 0"/><feOffset dx="4.0" dy="4.0" in="blurOut2" result="blurOut3"/><feBlend in="SourceGraphic" in2="blurOut3" mode="normal"/></filter></defs><g><text fill="#888888" font-family="sans-serif" font-size="10" lengthAdjust="spacingAndGlyphs" textLength="182" x="4448" y="9.668">公共类：53，标注：30，覆盖率：56.6%</text><text fill="#888888" font-family="sans-serif" font-size="10" lengthAdjust="spacingAndGlyphs" textLength="192" x="4438" y="21.4453">公共方法：94，标注：39，覆盖率：41.5%</text><text fill="#888888" font-family="sans-serif" font-size="10" lengthAdjust="spacingAndGlyphs" textLength="198" x="4432" y="33.2227">字段属性：170，标注：43，覆盖率：25.3%</text><!--cluster 逆向业务模型--><polygon fill="#FFFFFF" filter="url(#f6cunli)" points="233,373.832,323,373.832,330,396.3203,4596,396.3203,4596,2254.832,233,2254.832,233,373.832" style="stroke: #000000; stroke-width: 2.0;"/><line style="stroke: #000000; stroke-width: 2.0;" x1="233" x2="330" y1="396.3203" y2="396.3203"/><text fill="#000000" font-family="sans-serif" font-size="14" font-weight="bold" lengthAdjust="spacingAndGlyphs" textLength="84" x="237" y="389.3672">逆向业务模型</text><!--cluster Aggregate：客户出库单--><polygon fill="#FFFFFF" filter="url(#f6cunli)" points="2734,935.832,2897,935.832,2904,958.3203,4572,958.3203,4572,1278.832,2734,1278.832,2734,935.832" style="stroke: #000000; stroke-width: 2.0;"/><line style="stroke: #000000; stroke-width: 2.0;" x1="2734" x2="2904" y1="958.3203" y2="958.3203"/><text fill="#000000" font-family="sans-serif" font-size="14" font-weight="bold" lengthAdjust="spacingAndGlyphs" textLength="157" x="2738" y="951.3672">Aggregate：客户出库单</text><text fill="#000000" font-family="sans-serif" font-size="14" font-style="italic" lengthAdjust="spacingAndGlyphs" textLength="277" x="3518.5" y="973.8555">«ddd.plus.showcase.wms.domain.order»</text><!--cluster Aggregate：包裹--><polygon fill="#FFFFFF" filter="url(#f6cunli)" points="3900.5,1302.832,4021.5,1302.832,4028.5,1325.3203,4187.5,1325.3203,4187.5,1545.832,3900.5,1545.832,3900.5,1302.832" style="stroke: #000000; stroke-width: 2.0;"/><line style="stroke: #000000; stroke-width: 2.0;" x1="3900.5" x2="4028.5" y1="1325.3203" y2="1325.3203"/><text fill="#000000" font-family="sans-serif" font-size="14" font-weight="bold" lengthAdjust="spacingAndGlyphs" textLength="115" x="3904.5" y="1318.3672">Aggregate：包裹</text><text fill="#000000" font-family="sans-serif" font-size="14" font-style="italic" lengthAdjust="spacingAndGlyphs" textLength="271" x="3912.5" y="1340.8555">«ddd.plus.showcase.wms.domain.pack»</text><!--cluster Aggregate：复核报差异--><polygon fill="#FFFFFF" filter="url(#f6cunli)" points="2811.5,416.832,2974.5,416.832,2981.5,439.3203,4150,439.3203,4150,701.832,2811.5,701.832,2811.5,416.832" style="stroke: #000000; stroke-width: 2.0;"/><line style="stroke: #000000; stroke-width: 2.0;" x1="2811.5" x2="2981.5" y1="439.3203" y2="439.3203"/><text fill="#000000" font-family="sans-serif" font-size="14" font-weight="bold" lengthAdjust="spacingAndGlyphs" textLength="157" x="2815.5" y="432.3672">Aggregate：复核报差异</text><text fill="#000000" font-family="sans-serif" font-size="14" font-style="italic" lengthAdjust="spacingAndGlyphs" textLength="262" x="3353.75" y="454.8555">«ddd.plus.showcase.wms.domain.diff»</text><!--cluster Aggregate：装箱--><polygon fill="#FFFFFF" filter="url(#f6cunli)" points="1256.5,885.832,1377.5,885.832,1384.5,908.3203,2612.5,908.3203,2612.5,1296.832,1256.5,1296.832,1256.5,885.832" style="stroke: #000000; stroke-width: 2.0;"/><line style="stroke: #000000; stroke-width: 2.0;" x1="1256.5" x2="1384.5" y1="908.3203" y2="908.3203"/><text fill="#000000" font-family="sans-serif" font-size="14" font-weight="bold" lengthAdjust="spacingAndGlyphs" textLength="115" x="1260.5" y="901.3672">Aggregate：装箱</text><text fill="#000000" font-family="sans-serif" font-size="14" font-style="italic" lengthAdjust="spacingAndGlyphs" textLength="283" x="1797" y="923.8555">«ddd.plus.showcase.wms.domain.carton»</text><!--cluster Aggregate：通用子域--><polygon fill="#FFFFFF" filter="url(#f6cunli)" points="2788,738.832,2937,738.832,2944,761.3203,3103,761.3203,3103,911.832,2788,911.832,2788,738.832" style="stroke: #000000; stroke-width: 2.0;"/><line style="stroke: #000000; stroke-width: 2.0;" x1="2788" x2="2944" y1="761.3203" y2="761.3203"/><text fill="#000000" font-family="sans-serif" font-size="14" font-weight="bold" lengthAdjust="spacingAndGlyphs" textLength="143" x="2792" y="754.3672">Aggregate：通用子域</text><text fill="#000000" font-family="sans-serif" font-size="14" font-style="italic" lengthAdjust="spacingAndGlyphs" textLength="299" x="2800" y="776.8555">«ddd.plus.showcase.wms.domain.common»</text><!--cluster Aggregate：出库复核任务--><polygon fill="#FFFFFF" filter="url(#f6cunli)" points="1231,1569.832,1408,1569.832,1415,1592.3203,4182.5,1592.3203,4182.5,1999.832,1231,1999.832,1231,1569.832" style="stroke: #000000; stroke-width: 2.0;"/><line style="stroke: #000000; stroke-width: 2.0;" x1="1231" x2="1415" y1="1592.3203" y2="1592.3203"/><text fill="#000000" font-family="sans-serif" font-size="14" font-weight="bold" lengthAdjust="spacingAndGlyphs" textLength="171" x="1235" y="1585.3672">Aggregate：出库复核任务</text><text fill="#000000" font-family="sans-serif" font-size="14" font-style="italic" lengthAdjust="spacingAndGlyphs" textLength="267" x="2577.25" y="1607.8555">«ddd.plus.showcase.wms.domain.task»</text><!--cluster Aggregate：发货--><polygon fill="#FFFFFF" filter="url(#f6cunli)" points="257,2023.832,378,2023.832,385,2046.3203,1585.5,2046.3203,1585.5,2230.832,257,2230.832,257,2023.832" style="stroke: #000000; stroke-width: 2.0;"/><line style="stroke: #000000; stroke-width: 2.0;" x1="257" x2="385" y1="2046.3203" y2="2046.3203"/><text fill="#000000" font-family="sans-serif" font-size="14" font-weight="bold" lengthAdjust="spacingAndGlyphs" textLength="115" x="261" y="2039.3672">Aggregate：发货</text><text fill="#000000" font-family="sans-serif" font-size="14" font-style="italic" lengthAdjust="spacingAndGlyphs" textLength="268" x="791.25" y="2061.8555">«ddd.plus.showcase.wms.domain.ship»</text><!--cluster 交互--><polygon fill="#FFFFFF" filter="url(#f6cunli)" points="22,59.832,56,59.832,63,82.3203,701,82.3203,701,349.832,22,349.832,22,59.832" style="stroke: #000000; stroke-width: 2.0;"/><line style="stroke: #000000; stroke-width: 2.0;" x1="22" x2="63" y1="82.3203" y2="82.3203"/><text fill="#000000" font-family="sans-serif" font-size="14" font-weight="bold" lengthAdjust="spacingAndGlyphs" textLength="28" x="26" y="75.3672">交互</text><text fill="#000000" font-family="sans-serif" font-size="14" font-style="italic" lengthAdjust="spacingAndGlyphs" textLength="72" x="329.5" y="97.8555">«UseCase»</text><!--class Order--><rect fill="#FEFECE" filter="url(#f6cunli)" height="195.8164" style="stroke: #A80036; stroke-width: 1.5;" width="426" x="3296" y="1034.832"/><ellipse cx="3462.75" cy="1053.9648" fill="#FF7700" rx="11" ry="11" style="stroke: #A80036; stroke-width: 1.0;"/><path d="M3463.4487,1054.6128 Q3463.814,1054.6875 3464.0837,1054.9573 Q3464.3535,1055.2271 3464.7437,1056.0073 L3466.9849,1060.4648 L3464.2954,1060.4648 L3462.8013,1057.3354 Q3462.7349,1057.2026 3462.627,1056.9702 Q3461.9712,1055.5674 3461.083,1055.5674 L3460.3027,1055.5674 L3460.3027,1060.4648 L3457.854,1060.4648 L3457.854,1048.0718 L3461.3901,1048.0718 Q3463.7808,1048.0718 3464.8225,1048.9185 Q3465.8643,1049.7651 3465.8643,1051.6743 Q3465.8643,1052.9526 3465.2417,1053.708 Q3464.6191,1054.4634 3463.4487,1054.6128 Z M3460.3027,1050.1304 L3460.3027,1053.5088 L3461.4565,1053.5088 Q3462.4609,1053.5088 3462.8967,1053.1145 Q3463.3325,1052.7202 3463.3325,1051.8154 Q3463.3325,1050.9106 3462.9009,1050.5205 Q3462.4692,1050.1304 3461.4565,1050.1304 Z "/><text fill="#000000" font-family="sans-serif" font-size="12" font-style="italic" lengthAdjust="spacingAndGlyphs" textLength="88" x="3481.25" y="1051.4336">«客户的出库单.»</text><text fill="#000000" font-family="sans-serif" font-size="12" lengthAdjust="spacingAndGlyphs" textLength="34" x="3508.25" y="1065.5664">Order</text><line style="stroke: #A80036; stroke-width: 1.5;" x1="3297" x2="3721" y1="1073.0977" y2="1073.0977"/><text fill="#000000" font-family="sans-serif" font-size="11" lengthAdjust="spacingAndGlyphs" textLength="160" x="3302" y="1104.6875">OrderStatus ProductionStatus</text><line style="stroke: #A80036; stroke-width: 1.5;" x1="3297" x2="3486" y1="1087.5752" y2="1087.5752"/><text fill="#000000" font-family="sans-serif" font-size="11" lengthAdjust="spacingAndGlyphs" textLength="46" x="3486" y="1091.2324">Lifecycle</text><line style="stroke: #A80036; stroke-width: 1.5;" x1="3532" x2="3721" y1="1087.5752" y2="1087.5752"/><text fill="#000000" font-family="sans-serif" font-size="11" lengthAdjust="spacingAndGlyphs" textLength="89" x="3302" y="1134.5977">OrderConstraint</text><line style="stroke: #A80036; stroke-width: 1.5;" x1="3297" x2="3477.5" y1="1117.4854" y2="1117.4854"/><text fill="#000000" font-family="sans-serif" font-size="11" lengthAdjust="spacingAndGlyphs" textLength="63" x="3477.5" y="1121.1426">Operational</text><line style="stroke: #A80036; stroke-width: 1.5;" x1="3540.5" x2="3721" y1="1117.4854" y2="1117.4854"/><text fill="#000000" font-family="sans-serif" font-size="11" lengthAdjust="spacingAndGlyphs" textLength="316" x="3302" y="1164.5078">recommendedPlatformNo() 该订单已经被推荐到哪一个复核台.</text><line style="stroke: #A80036; stroke-width: 1.5;" x1="3297" x2="3498" y1="1147.3955" y2="1147.3955"/><text fill="#000000" font-family="sans-serif" font-size="11" lengthAdjust="spacingAndGlyphs" textLength="22" x="3498" y="1151.0527">规则</text><line style="stroke: #A80036; stroke-width: 1.5;" x1="3520" x2="3721" y1="1147.3955" y2="1147.3955"/><text fill="#000000" font-family="sans-serif" font-size="11" lengthAdjust="spacingAndGlyphs" textLength="141" x="3302" y="1194.418">asPresale() 切换到预售场景.</text><line style="stroke: #A80036; stroke-width: 1.5;" x1="3297" x2="3498" y1="1177.3057" y2="1177.3057"/><text fill="#000000" font-family="sans-serif" font-size="11" lengthAdjust="spacingAndGlyphs" textLength="22" x="3498" y="1180.9629">行为</text><line style="stroke: #A80036; stroke-width: 1.5;" x1="3520" x2="3721" y1="1177.3057" y2="1177.3057"/><text fill="#000000" font-family="sans-serif" font-size="11" lengthAdjust="spacingAndGlyphs" textLength="270" x="3302" y="1224.3281">recommendByOrder(RecommendPlatformRequest)</text><text fill="#808000" font-family="sans-serif" font-size="11" lengthAdjust="spacingAndGlyphs" textLength="135" x="3578" y="1224.3281">RecommendPlatformFlow</text><line style="stroke: #A80036; stroke-width: 1.5;" x1="3297" x2="3498" y1="1207.2158" y2="1207.2158"/><text fill="#000000" font-family="sans-serif" font-size="11" lengthAdjust="spacingAndGlyphs" textLength="22" x="3498" y="1210.873">流程</text><line style="stroke: #A80036; stroke-width: 1.5;" x1="3520" x2="3721" y1="1207.2158" y2="1207.2158"/><!--class Order.OrderCartons--><rect fill="#FEFECE" filter="url(#f6cunli)" height="48" style="stroke: #A80036; stroke-width: 1.5;" width="148" x="3970" y="1214.832"/><ellipse cx="3985" cy="1230.832" fill="#9197DB" rx="11" ry="11" style="stroke: #A80036; stroke-width: 1.0;"/><path d="M3983.4033,1232.2041 L3983.4033,1235.873 L3985.0303,1235.873 Q3986.2007,1235.873 3986.6697,1235.4746 Q3987.1387,1235.0762 3987.1387,1234.0884 Q3987.1387,1233.084 3986.6489,1232.644 Q3986.1592,1232.2041 3985.0303,1232.2041 Z M3983.4033,1227.373 L3983.4033,1230.2534 L3985.0303,1230.2534 Q3985.96,1230.2534 3986.3542,1229.9214 Q3986.7485,1229.5894 3986.7485,1228.8257 Q3986.7485,1228.062 3986.3459,1227.7175 Q3985.9434,1227.373 3985.0303,1227.373 Z M3981.0376,1225.4224 L3985.0303,1225.4224 Q3987.0972,1225.4224 3988.1389,1226.2068 Q3989.1807,1226.9912 3989.1807,1228.5518 Q3989.1807,1229.7471 3988.5664,1230.4194 Q3987.9521,1231.0918 3986.7651,1231.1997 Q3988.1846,1231.3408 3988.9026,1232.1543 Q3989.6206,1232.9678 3989.6206,1234.4287 Q3989.6206,1236.2217 3988.5415,1237.0269 Q3987.4624,1237.832 3985.0303,1237.832 L3981.0376,1237.832 Z "/><text fill="#000000" font-family="sans-serif" font-size="12" lengthAdjust="spacingAndGlyphs" textLength="116" x="3999" y="1235.3672">Order.OrderCartons</text><line style="stroke: #A80036; stroke-width: 1.5;" x1="3971" x2="4117" y1="1246.832" y2="1246.832"/><line style="stroke: #A80036; stroke-width: 1.5;" x1="3971" x2="4117" y1="1254.832" y2="1254.832"/><!--class OrderContainerItems--><rect fill="#FEFECE" filter="url(#f6cunli)" height="48" style="stroke: #A80036; stroke-width: 1.5;" width="152" x="3968" y="1131.832"/><ellipse cx="3983" cy="1147.832" fill="#9197DB" rx="11" ry="11" style="stroke: #A80036; stroke-width: 1.0;"/><path d="M3981.4033,1149.2041 L3981.4033,1152.873 L3983.0303,1152.873 Q3984.2007,1152.873 3984.6697,1152.4746 Q3985.1387,1152.0762 3985.1387,1151.0884 Q3985.1387,1150.084 3984.6489,1149.644 Q3984.1592,1149.2041 3983.0303,1149.2041 Z M3981.4033,1144.373 L3981.4033,1147.2534 L3983.0303,1147.2534 Q3983.96,1147.2534 3984.3542,1146.9214 Q3984.7485,1146.5894 3984.7485,1145.8257 Q3984.7485,1145.062 3984.3459,1144.7175 Q3983.9434,1144.373 3983.0303,1144.373 Z M3979.0376,1142.4224 L3983.0303,1142.4224 Q3985.0972,1142.4224 3986.1389,1143.2068 Q3987.1807,1143.9912 3987.1807,1145.5518 Q3987.1807,1146.7471 3986.5664,1147.4194 Q3985.9521,1148.0918 3984.7651,1148.1997 Q3986.1846,1148.3408 3986.9026,1149.1543 Q3987.6206,1149.9678 3987.6206,1151.4287 Q3987.6206,1153.2217 3986.5415,1154.0269 Q3985.4624,1154.832 3983.0303,1154.832 L3979.0376,1154.832 Z "/><text fill="#000000" font-family="sans-serif" font-size="12" lengthAdjust="spacingAndGlyphs" textLength="120" x="3997" y="1152.3672">OrderContainerItems</text><line style="stroke: #A80036; stroke-width: 1.5;" x1="3969" x2="4119" y1="1163.832" y2="1163.832"/><line style="stroke: #A80036; stroke-width: 1.5;" x1="3969" x2="4119" y1="1171.832" y2="1171.832"/><!--class OrderLine--><rect fill="#FEFECE" filter="url(#f6cunli)" height="135.9961" style="stroke: #A80036; stroke-width: 1.5;" width="177" x="4355.5" y="1007.832"/><ellipse cx="4411.25" cy="1026.9648" fill="#ADD1B2" rx="11" ry="11" style="stroke: #A80036; stroke-width: 1.0;"/><path d="M4413.7231,1033.1079 Q4413.1421,1033.4067 4412.5029,1033.5562 Q4411.8638,1033.7056 4411.1582,1033.7056 Q4408.6514,1033.7056 4407.3315,1032.0537 Q4406.0117,1030.4019 4406.0117,1027.2808 Q4406.0117,1024.1514 4407.3315,1022.4995 Q4408.6514,1020.8477 4411.1582,1020.8477 Q4411.8638,1020.8477 4412.5112,1020.9971 Q4413.1587,1021.1465 4413.7231,1021.4453 L4413.7231,1024.168 Q4413.0923,1023.5869 4412.4988,1023.3171 Q4411.9053,1023.0474 4411.2744,1023.0474 Q4409.9297,1023.0474 4409.2449,1024.114 Q4408.5601,1025.1807 4408.5601,1027.2808 Q4408.5601,1029.3726 4409.2449,1030.4392 Q4409.9297,1031.5059 4411.2744,1031.5059 Q4411.9053,1031.5059 4412.4988,1031.2361 Q4413.0923,1030.9663 4413.7231,1030.3853 Z "/><text fill="#000000" font-family="sans-serif" font-size="12" font-style="italic" lengthAdjust="spacingAndGlyphs" textLength="52" x="4434.25" y="1024.4336">«订单行.»</text><text fill="#000000" font-family="sans-serif" font-size="12" lengthAdjust="spacingAndGlyphs" textLength="57" x="4431.75" y="1038.5664">OrderLine</text><line style="stroke: #A80036; stroke-width: 1.5;" x1="4356.5" x2="4531.5" y1="1046.0977" y2="1046.0977"/><text fill="#000000" font-family="sans-serif" font-size="11" lengthAdjust="spacingAndGlyphs" textLength="91" x="4361.5" y="1077.6875">OrderLineNo Sku</text><line style="stroke: #A80036; stroke-width: 1.5;" x1="4356.5" x2="4417.5" y1="1060.5752" y2="1060.5752"/><text fill="#000000" font-family="sans-serif" font-size="11" lengthAdjust="spacingAndGlyphs" textLength="53" x="4417.5" y="1064.2324">Structural</text><line style="stroke: #A80036; stroke-width: 1.5;" x1="4470.5" x2="4531.5" y1="1060.5752" y2="1060.5752"/><text fill="#000000" font-family="sans-serif" font-size="11" lengthAdjust="spacingAndGlyphs" textLength="165" x="4361.5" y="1107.5977">qty/要货量 shortageQty/缺货量</text><line style="stroke: #A80036; stroke-width: 1.5;" x1="4356.5" x2="4421" y1="1090.4854" y2="1090.4854"/><text fill="#000000" font-family="sans-serif" font-size="11" lengthAdjust="spacingAndGlyphs" textLength="46" x="4421" y="1094.1426">Quantity</text><line style="stroke: #A80036; stroke-width: 1.5;" x1="4467" x2="4531.5" y1="1090.4854" y2="1090.4854"/><text fill="#000000" font-family="sans-serif" font-size="11" lengthAdjust="spacingAndGlyphs" textLength="154" x="4361.5" y="1137.5078">expectedQty/要货量-缺货量()</text><line style="stroke: #A80036; stroke-width: 1.5;" x1="4356.5" x2="4433" y1="1120.3955" y2="1120.3955"/><text fill="#000000" font-family="sans-serif" font-size="11" lengthAdjust="spacingAndGlyphs" textLength="22" x="4433" y="1124.0527">规则</text><line style="stroke: #A80036; stroke-width: 1.5;" x1="4455" x2="4531.5" y1="1120.3955" y2="1120.3955"/><!--class OrderLineBag--><rect fill="#FEFECE" filter="url(#f6cunli)" height="69.9102" style="stroke: #A80036; stroke-width: 1.5;" width="228" x="3930" y="1007.832"/><ellipse cx="4000.75" cy="1023.832" fill="#9197DB" rx="11" ry="11" style="stroke: #A80036; stroke-width: 1.0;"/><path d="M3999.1533,1025.2041 L3999.1533,1028.873 L4000.7803,1028.873 Q4001.9507,1028.873 4002.4197,1028.4746 Q4002.8887,1028.0762 4002.8887,1027.0884 Q4002.8887,1026.084 4002.3989,1025.644 Q4001.9092,1025.2041 4000.7803,1025.2041 Z M3999.1533,1020.373 L3999.1533,1023.2534 L4000.7803,1023.2534 Q4001.71,1023.2534 4002.1042,1022.9214 Q4002.4985,1022.5894 4002.4985,1021.8257 Q4002.4985,1021.062 4002.0959,1020.7175 Q4001.6934,1020.373 4000.7803,1020.373 Z M3996.7876,1018.4224 L4000.7803,1018.4224 Q4002.8472,1018.4224 4003.8889,1019.2068 Q4004.9307,1019.9912 4004.9307,1021.5518 Q4004.9307,1022.7471 4004.3164,1023.4194 Q4003.7021,1024.0918 4002.5151,1024.1997 Q4003.9346,1024.3408 4004.6526,1025.1543 Q4005.3706,1025.9678 4005.3706,1027.4287 Q4005.3706,1029.2217 4004.2915,1030.0269 Q4003.2124,1030.832 4000.7803,1030.832 L3996.7876,1030.832 Z "/><text fill="#000000" font-family="sans-serif" font-size="12" lengthAdjust="spacingAndGlyphs" textLength="78" x="4021.25" y="1028.3672">OrderLineBag</text><line style="stroke: #A80036; stroke-width: 1.5;" x1="3931" x2="4157" y1="1039.832" y2="1039.832"/><text fill="#000000" font-family="sans-serif" font-size="11" lengthAdjust="spacingAndGlyphs" textLength="216" x="3936" y="1071.4219">totalExpectedQty() 期望的总装箱货品件数.</text><line style="stroke: #A80036; stroke-width: 1.5;" x1="3931" x2="4033" y1="1054.3096" y2="1054.3096"/><text fill="#000000" font-family="sans-serif" font-size="11" lengthAdjust="spacingAndGlyphs" textLength="22" x="4033" y="1057.9668">规则</text><line style="stroke: #A80036; stroke-width: 1.5;" x1="4055" x2="4157" y1="1054.3096" y2="1054.3096"/><!--class OrderOfPresale--><rect fill="#FEFECE" filter="url(#f6cunli)" height="76.1758" style="stroke: #A80036; stroke-width: 1.5;" width="140" x="2875.5" y="1081.832"/><ellipse cx="2890.5" cy="1100.9648" fill="#9197DB" rx="11" ry="11" style="stroke: #A80036; stroke-width: 1.0;"/><path d="M2888.9033,1102.3369 L2888.9033,1106.0059 L2890.5303,1106.0059 Q2891.7007,1106.0059 2892.1697,1105.6074 Q2892.6387,1105.209 2892.6387,1104.2212 Q2892.6387,1103.2168 2892.1489,1102.7769 Q2891.6592,1102.3369 2890.5303,1102.3369 Z M2888.9033,1097.5059 L2888.9033,1100.3862 L2890.5303,1100.3862 Q2891.46,1100.3862 2891.8542,1100.0542 Q2892.2485,1099.7222 2892.2485,1098.9585 Q2892.2485,1098.1948 2891.8459,1097.8503 Q2891.4434,1097.5059 2890.5303,1097.5059 Z M2886.5376,1095.5552 L2890.5303,1095.5552 Q2892.5972,1095.5552 2893.6389,1096.3396 Q2894.6807,1097.124 2894.6807,1098.6846 Q2894.6807,1099.8799 2894.0664,1100.5522 Q2893.4521,1101.2246 2892.2651,1101.3325 Q2893.6846,1101.4736 2894.4026,1102.2871 Q2895.1206,1103.1006 2895.1206,1104.5615 Q2895.1206,1106.3545 2894.0415,1107.1597 Q2892.9624,1107.9648 2890.5303,1107.9648 L2886.5376,1107.9648 Z "/><text fill="#000000" font-family="sans-serif" font-size="12" font-style="italic" lengthAdjust="spacingAndGlyphs" textLength="112" x="2902.5" y="1098.4336">«出库单的预售场景.»</text><text fill="#000000" font-family="sans-serif" font-size="12" lengthAdjust="spacingAndGlyphs" textLength="89" x="2914" y="1112.5664">OrderOfPresale</text><line style="stroke: #A80036; stroke-width: 1.5;" x1="2876.5" x2="3014.5" y1="1120.0977" y2="1120.0977"/><text fill="#000000" font-family="sans-serif" font-size="11" lengthAdjust="spacingAndGlyphs" textLength="127" x="2881.5" y="1151.6875">isFinalPaid() 尾款已结清?</text><line style="stroke: #A80036; stroke-width: 1.5;" x1="2876.5" x2="2934.5" y1="1134.5752" y2="1134.5752"/><text fill="#000000" font-family="sans-serif" font-size="11" lengthAdjust="spacingAndGlyphs" textLength="22" x="2934.5" y="1138.2324">规则</text><line style="stroke: #A80036; stroke-width: 1.5;" x1="2956.5" x2="3014.5" y1="1134.5752" y2="1134.5752"/><!--class OrderBag--><rect fill="#FEFECE" filter="url(#f6cunli)" height="69.9102" style="stroke: #A80036; stroke-width: 1.5;" width="391" x="2750" y="1192.832"/><ellipse cx="2913.75" cy="1208.832" fill="#9197DB" rx="11" ry="11" style="stroke: #A80036; stroke-width: 1.0;"/><path d="M2912.1533,1210.2041 L2912.1533,1213.873 L2913.7803,1213.873 Q2914.9507,1213.873 2915.4197,1213.4746 Q2915.8887,1213.0762 2915.8887,1212.0884 Q2915.8887,1211.084 2915.3989,1210.644 Q2914.9092,1210.2041 2913.7803,1210.2041 Z M2912.1533,1205.373 L2912.1533,1208.2534 L2913.7803,1208.2534 Q2914.71,1208.2534 2915.1042,1207.9214 Q2915.4985,1207.5894 2915.4985,1206.8257 Q2915.4985,1206.062 2915.0959,1205.7175 Q2914.6934,1205.373 2913.7803,1205.373 Z M2909.7876,1203.4224 L2913.7803,1203.4224 Q2915.8472,1203.4224 2916.8889,1204.2068 Q2917.9307,1204.9912 2917.9307,1206.5518 Q2917.9307,1207.7471 2917.3164,1208.4194 Q2916.7021,1209.0918 2915.5151,1209.1997 Q2916.9346,1209.3408 2917.6526,1210.1543 Q2918.3706,1210.9678 2918.3706,1212.4287 Q2918.3706,1214.2217 2917.2915,1215.0269 Q2916.2124,1215.832 2913.7803,1215.832 L2909.7876,1215.832 Z "/><text fill="#000000" font-family="sans-serif" font-size="12" lengthAdjust="spacingAndGlyphs" textLength="55" x="2934.25" y="1213.3672">OrderBag</text><line style="stroke: #A80036; stroke-width: 1.5;" x1="2751" x2="3140" y1="1224.832" y2="1224.832"/><text fill="#000000" font-family="sans-serif" font-size="11" lengthAdjust="spacingAndGlyphs" textLength="379" x="2756" y="1256.4219">subBagOfCanceled() 当前出库单集合里哪些已经在单据中心里被客户取消了.</text><line style="stroke: #A80036; stroke-width: 1.5;" x1="2751" x2="2934.5" y1="1239.3096" y2="1239.3096"/><text fill="#000000" font-family="sans-serif" font-size="11" lengthAdjust="spacingAndGlyphs" textLength="22" x="2934.5" y="1242.9668">行为</text><line style="stroke: #A80036; stroke-width: 1.5;" x1="2956.5" x2="3140" y1="1239.3096" y2="1239.3096"/><!--class Pack--><rect fill="#FEFECE" filter="url(#f6cunli)" height="135.9961" style="stroke: #A80036; stroke-width: 1.5;" width="139" x="3975" y="1374.832"/><ellipse cx="4022.25" cy="1393.9648" fill="#FF7700" rx="11" ry="11" style="stroke: #A80036; stroke-width: 1.0;"/><path d="M4022.9487,1394.6128 Q4023.314,1394.6875 4023.5837,1394.9573 Q4023.8535,1395.2271 4024.2437,1396.0073 L4026.4849,1400.4648 L4023.7954,1400.4648 L4022.3013,1397.3354 Q4022.2349,1397.2026 4022.127,1396.9702 Q4021.4712,1395.5674 4020.583,1395.5674 L4019.8027,1395.5674 L4019.8027,1400.4648 L4017.354,1400.4648 L4017.354,1388.0718 L4020.8901,1388.0718 Q4023.2808,1388.0718 4024.3225,1388.9185 Q4025.3643,1389.7651 4025.3643,1391.6743 Q4025.3643,1392.9526 4024.7417,1393.708 Q4024.1191,1394.4634 4022.9487,1394.6128 Z M4019.8027,1390.1304 L4019.8027,1393.5088 L4020.9565,1393.5088 Q4021.9609,1393.5088 4022.3967,1393.1145 Q4022.8325,1392.7202 4022.8325,1391.8154 Q4022.8325,1390.9106 4022.4009,1390.5205 Q4021.9692,1390.1304 4020.9565,1390.1304 Z "/><text fill="#000000" font-family="sans-serif" font-size="12" font-style="italic" lengthAdjust="spacingAndGlyphs" textLength="40" x="4040.75" y="1391.4336">«包裹.»</text><text fill="#000000" font-family="sans-serif" font-size="12" lengthAdjust="spacingAndGlyphs" textLength="27" x="4047.25" y="1405.5664">Pack</text><line style="stroke: #A80036; stroke-width: 1.5;" x1="3976" x2="4113" y1="1413.0977" y2="1413.0977"/><text fill="#000000" font-family="sans-serif" font-size="11" lengthAdjust="spacingAndGlyphs" textLength="102" x="3981" y="1444.6875">OrderNo WaybillNo</text><line style="stroke: #A80036; stroke-width: 1.5;" x1="3976" x2="4018" y1="1427.5752" y2="1427.5752"/><text fill="#000000" font-family="sans-serif" font-size="11" lengthAdjust="spacingAndGlyphs" textLength="53" x="4018" y="1431.2324">Structural</text><line style="stroke: #A80036; stroke-width: 1.5;" x1="4071" x2="4113" y1="1427.5752" y2="1427.5752"/><text fill="#000000" font-family="sans-serif" font-size="11" lengthAdjust="spacingAndGlyphs" textLength="57" x="3981" y="1474.5977">PackStatus</text><line style="stroke: #A80036; stroke-width: 1.5;" x1="3976" x2="4021.5" y1="1457.4854" y2="1457.4854"/><text fill="#000000" font-family="sans-serif" font-size="11" lengthAdjust="spacingAndGlyphs" textLength="46" x="4021.5" y="1461.1426">Lifecycle</text><line style="stroke: #A80036; stroke-width: 1.5;" x1="4067.5" x2="4113" y1="1457.4854" y2="1457.4854"/><text fill="#000000" font-family="sans-serif" font-size="11" lengthAdjust="spacingAndGlyphs" textLength="127" x="3981" y="1504.5078">totalVolume totalWeight</text><line style="stroke: #A80036; stroke-width: 1.5;" x1="3976" x2="4028.5" y1="1487.3955" y2="1487.3955"/><text fill="#000000" font-family="sans-serif" font-size="11" lengthAdjust="spacingAndGlyphs" textLength="32" x="4028.5" y="1491.0527">Billing</text><line style="stroke: #A80036; stroke-width: 1.5;" x1="4060.5" x2="4113" y1="1487.3955" y2="1487.3955"/><!--class ContainerDiff--><rect fill="#FEFECE" filter="url(#f6cunli)" height="178.8613" style="stroke: #A80036; stroke-width: 1.5;" width="188" x="2851.5" y="487.832"/><ellipse cx="2866.5" cy="506.9648" fill="#FF7700" rx="11" ry="11" style="stroke: #A80036; stroke-width: 1.0;"/><path d="M2867.1987,507.6128 Q2867.564,507.6875 2867.8337,507.9573 Q2868.1035,508.2271 2868.4937,509.0073 L2870.7349,513.4648 L2868.0454,513.4648 L2866.5513,510.3354 Q2866.4849,510.2026 2866.377,509.9702 Q2865.7212,508.5674 2864.833,508.5674 L2864.0527,508.5674 L2864.0527,513.4648 L2861.604,513.4648 L2861.604,501.0718 L2865.1401,501.0718 Q2867.5308,501.0718 2868.5725,501.9185 Q2869.6143,502.7651 2869.6143,504.6743 Q2869.6143,505.9526 2868.9917,506.708 Q2868.3691,507.4634 2867.1987,507.6128 Z M2864.0527,503.1304 L2864.0527,506.5088 L2865.2065,506.5088 Q2866.2109,506.5088 2866.6467,506.1145 Q2867.0825,505.7202 2867.0825,504.8154 Q2867.0825,503.9106 2866.6509,503.5205 Q2866.2192,503.1304 2865.2065,503.1304 Z "/><text fill="#000000" font-family="sans-serif" font-size="12" font-style="italic" lengthAdjust="spacingAndGlyphs" textLength="160" x="2878.5" y="504.4336">«复核过程中发现的容器差异.»</text><text fill="#000000" font-family="sans-serif" font-size="12" lengthAdjust="spacingAndGlyphs" textLength="75" x="2921" y="518.5664">ContainerDiff</text><line style="stroke: #A80036; stroke-width: 1.5;" x1="2852.5" x2="3038.5" y1="526.0977" y2="526.0977"/><text fill="#000000" font-family="sans-serif" font-size="11" lengthAdjust="spacingAndGlyphs" textLength="66" x="2857.5" y="557.6875">containerNo</text><line style="stroke: #A80036; stroke-width: 1.5;" x1="2852.5" x2="2919" y1="540.5752" y2="540.5752"/><text fill="#000000" font-family="sans-serif" font-size="11" lengthAdjust="spacingAndGlyphs" textLength="53" x="2919" y="544.2324">Structural</text><line style="stroke: #A80036; stroke-width: 1.5;" x1="2972" x2="3038.5" y1="540.5752" y2="540.5752"/><text fill="#000000" font-family="sans-serif" font-size="11" lengthAdjust="spacingAndGlyphs" textLength="37" x="2857.5" y="587.5977">reason</text><line style="stroke: #A80036; stroke-width: 1.5;" x1="2852.5" x2="2914" y1="570.4854" y2="570.4854"/><text fill="#000000" font-family="sans-serif" font-size="11" lengthAdjust="spacingAndGlyphs" textLength="63" x="2914" y="574.1426">Operational</text><line style="stroke: #A80036; stroke-width: 1.5;" x1="2977" x2="3038.5" y1="570.4854" y2="570.4854"/><text fill="#000000" font-family="sans-serif" font-size="11" lengthAdjust="spacingAndGlyphs" textLength="46" x="2857.5" y="617.5078">platform</text><line style="stroke: #A80036; stroke-width: 1.5;" x1="2852.5" x2="2922.5" y1="600.3955" y2="600.3955"/><text fill="#000000" font-family="sans-serif" font-size="11" lengthAdjust="spacingAndGlyphs" textLength="46" x="2922.5" y="604.0527">Location</text><line style="stroke: #A80036; stroke-width: 1.5;" x1="2968.5" x2="3038.5" y1="600.3955" y2="600.3955"/><text fill="#000000" font-family="sans-serif" font-size="11" lengthAdjust="spacingAndGlyphs" textLength="87" x="2857.5" y="647.418">registerBroken()</text><text fill="#000000" font-family="sans-serif" font-size="11" lengthAdjust="spacingAndGlyphs" textLength="73" x="2857.5" y="660.373">registerLost()</text><line style="stroke: #A80036; stroke-width: 1.5;" x1="2852.5" x2="2934.5" y1="630.3057" y2="630.3057"/><text fill="#000000" font-family="sans-serif" font-size="11" lengthAdjust="spacingAndGlyphs" textLength="22" x="2934.5" y="633.9629">行为</text><line style="stroke: #A80036; stroke-width: 1.5;" x1="2956.5" x2="3038.5" y1="630.3057" y2="630.3057"/><!--class ContainerDiffItem--><rect fill="#FEFECE" filter="url(#f6cunli)" height="69.9102" style="stroke: #A80036; stroke-width: 1.5;" width="132" x="3978" y="582.832"/><ellipse cx="3993" cy="598.832" fill="#ADD1B2" rx="11" ry="11" style="stroke: #A80036; stroke-width: 1.0;"/><path d="M3995.4731,604.9751 Q3994.8921,605.2739 3994.2529,605.4233 Q3993.6138,605.5728 3992.9082,605.5728 Q3990.4014,605.5728 3989.0815,603.9209 Q3987.7617,602.269 3987.7617,599.1479 Q3987.7617,596.0186 3989.0815,594.3667 Q3990.4014,592.7148 3992.9082,592.7148 Q3993.6138,592.7148 3994.2612,592.8643 Q3994.9087,593.0137 3995.4731,593.3125 L3995.4731,596.0352 Q3994.8423,595.4541 3994.2488,595.1843 Q3993.6553,594.9146 3993.0244,594.9146 Q3991.6797,594.9146 3990.9949,595.9812 Q3990.3101,597.0479 3990.3101,599.1479 Q3990.3101,601.2397 3990.9949,602.3064 Q3991.6797,603.373 3993.0244,603.373 Q3993.6553,603.373 3994.2488,603.1033 Q3994.8423,602.8335 3995.4731,602.2524 Z "/><text fill="#000000" font-family="sans-serif" font-size="12" lengthAdjust="spacingAndGlyphs" textLength="100" x="4007" y="603.3672">ContainerDiffItem</text><line style="stroke: #A80036; stroke-width: 1.5;" x1="3979" x2="4109" y1="614.832" y2="614.832"/><text fill="#000000" font-family="sans-serif" font-size="11" lengthAdjust="spacingAndGlyphs" textLength="19" x="3984" y="646.4219">Sku</text><line style="stroke: #A80036; stroke-width: 1.5;" x1="3979" x2="4017.5" y1="629.3096" y2="629.3096"/><text fill="#000000" font-family="sans-serif" font-size="11" lengthAdjust="spacingAndGlyphs" textLength="53" x="4017.5" y="632.9668">Structural</text><line style="stroke: #A80036; stroke-width: 1.5;" x1="4070.5" x2="4109" y1="629.3096" y2="629.3096"/><!--class ContainerDiffItemBag--><rect fill="#FEFECE" filter="url(#f6cunli)" height="48" style="stroke: #A80036; stroke-width: 1.5;" width="153" x="3433" y="559.832"/><ellipse cx="3448" cy="575.832" fill="#9197DB" rx="11" ry="11" style="stroke: #A80036; stroke-width: 1.0;"/><path d="M3446.4033,577.2041 L3446.4033,580.873 L3448.0303,580.873 Q3449.2007,580.873 3449.6697,580.4746 Q3450.1387,580.0762 3450.1387,579.0884 Q3450.1387,578.084 3449.6489,577.644 Q3449.1592,577.2041 3448.0303,577.2041 Z M3446.4033,572.373 L3446.4033,575.2534 L3448.0303,575.2534 Q3448.96,575.2534 3449.3542,574.9214 Q3449.7485,574.5894 3449.7485,573.8257 Q3449.7485,573.062 3449.3459,572.7175 Q3448.9434,572.373 3448.0303,572.373 Z M3444.0376,570.4224 L3448.0303,570.4224 Q3450.0972,570.4224 3451.1389,571.2068 Q3452.1807,571.9912 3452.1807,573.5518 Q3452.1807,574.7471 3451.5664,575.4194 Q3450.9521,576.0918 3449.7651,576.1997 Q3451.1846,576.3408 3451.9026,577.1543 Q3452.6206,577.9678 3452.6206,579.4287 Q3452.6206,581.2217 3451.5415,582.0269 Q3450.4624,582.832 3448.0303,582.832 L3444.0376,582.832 Z "/><text fill="#000000" font-family="sans-serif" font-size="12" lengthAdjust="spacingAndGlyphs" textLength="121" x="3462" y="580.3672">ContainerDiffItemBag</text><line style="stroke: #A80036; stroke-width: 1.5;" x1="3434" x2="3585" y1="591.832" y2="591.832"/><line style="stroke: #A80036; stroke-width: 1.5;" x1="3434" x2="3585" y1="599.832" y2="599.832"/><!--class Carton--><rect fill="#FEFECE" filter="url(#f6cunli)" height="277.5469" style="stroke: #A80036; stroke-width: 1.5;" width="361" x="1297" y="970.832"/><ellipse cx="1413.25" cy="989.9648" fill="#FF7700" rx="11" ry="11" style="stroke: #A80036; stroke-width: 1.0;"/><path d="M1413.9487,990.6128 Q1414.314,990.6875 1414.5837,990.9573 Q1414.8535,991.2271 1415.2437,992.0073 L1417.4849,996.4648 L1414.7954,996.4648 L1413.3013,993.3354 Q1413.2349,993.2026 1413.127,992.9702 Q1412.4712,991.5674 1411.583,991.5674 L1410.8027,991.5674 L1410.8027,996.4648 L1408.354,996.4648 L1408.354,984.0718 L1411.8901,984.0718 Q1414.2808,984.0718 1415.3225,984.9185 Q1416.3643,985.7651 1416.3643,987.6743 Q1416.3643,988.9526 1415.7417,989.708 Q1415.1191,990.4634 1413.9487,990.6128 Z M1410.8027,986.1304 L1410.8027,989.5088 L1411.9565,989.5088 Q1412.9609,989.5088 1413.3967,989.1145 Q1413.8325,988.7202 1413.8325,987.8154 Q1413.8325,986.9106 1413.4009,986.5205 Q1412.9692,986.1304 1411.9565,986.1304 Z "/><text fill="#000000" font-family="sans-serif" font-size="12" font-style="italic" lengthAdjust="spacingAndGlyphs" textLength="124" x="1431.75" y="987.4336">«纸箱，它会成为包裹.»</text><text fill="#000000" font-family="sans-serif" font-size="12" lengthAdjust="spacingAndGlyphs" textLength="38" x="1474.75" y="1001.5664">Carton</text><line style="stroke: #A80036; stroke-width: 1.5;" x1="1298" x2="1657" y1="1009.0977" y2="1009.0977"/><text fill="#000000" font-family="sans-serif" font-size="11" lengthAdjust="spacingAndGlyphs" textLength="33" x="1303" y="1040.6875">status</text><line style="stroke: #A80036; stroke-width: 1.5;" x1="1298" x2="1454.5" y1="1023.5752" y2="1023.5752"/><text fill="#000000" font-family="sans-serif" font-size="11" lengthAdjust="spacingAndGlyphs" textLength="46" x="1454.5" y="1027.2324">Lifecycle</text><line style="stroke: #A80036; stroke-width: 1.5;" x1="1500.5" x2="1657" y1="1023.5752" y2="1023.5752"/><text fill="#000000" font-family="sans-serif" font-size="11" lengthAdjust="spacingAndGlyphs" textLength="94" x="1303" y="1070.5977">cartonizationRule</text><line style="stroke: #A80036; stroke-width: 1.5;" x1="1298" x2="1446" y1="1053.4854" y2="1053.4854"/><text fill="#000000" font-family="sans-serif" font-size="11" lengthAdjust="spacingAndGlyphs" textLength="63" x="1446" y="1057.1426">Operational</text><line style="stroke: #A80036; stroke-width: 1.5;" x1="1509" x2="1657" y1="1053.4854" y2="1053.4854"/><text fill="#000000" font-family="sans-serif" font-size="11" lengthAdjust="spacingAndGlyphs" textLength="53" x="1303" y="1100.5078">fulfillTime</text><line style="stroke: #A80036; stroke-width: 1.5;" x1="1298" x2="1469.5" y1="1083.3955" y2="1083.3955"/><text fill="#000000" font-family="sans-serif" font-size="11" lengthAdjust="spacingAndGlyphs" textLength="16" x="1469.5" y="1087.0527">KPI</text><line style="stroke: #A80036; stroke-width: 1.5;" x1="1485.5" x2="1657" y1="1083.3955" y2="1083.3955"/><text fill="#000000" font-family="sans-serif" font-size="11" lengthAdjust="spacingAndGlyphs" textLength="45" x="1303" y="1130.418">Platform</text><line style="stroke: #A80036; stroke-width: 1.5;" x1="1298" x2="1454.5" y1="1113.3057" y2="1113.3057"/><text fill="#000000" font-family="sans-serif" font-size="11" lengthAdjust="spacingAndGlyphs" textLength="46" x="1454.5" y="1116.9629">Location</text><line style="stroke: #A80036; stroke-width: 1.5;" x1="1500.5" x2="1657" y1="1113.3057" y2="1113.3057"/><text fill="#000000" font-family="sans-serif" font-size="11" lengthAdjust="spacingAndGlyphs" textLength="100" x="1303" y="1160.3281">isEmpty() 是否空箱.</text><text fill="#000000" font-family="sans-serif" font-size="11" lengthAdjust="spacingAndGlyphs" textLength="349" x="1303" y="1173.2832">cartonizationRule() 装箱规则，利用gateway延迟加载，规则也是规约.</text><line style="stroke: #A80036; stroke-width: 1.5;" x1="1298" x2="1466.5" y1="1143.2158" y2="1143.2158"/><text fill="#000000" font-family="sans-serif" font-size="11" lengthAdjust="spacingAndGlyphs" textLength="22" x="1466.5" y="1146.873">规则</text><line style="stroke: #A80036; stroke-width: 1.5;" x1="1488.5" x2="1657" y1="1143.2158" y2="1143.2158"/><text fill="#000000" font-family="sans-serif" font-size="11" lengthAdjust="spacingAndGlyphs" textLength="64" x="1303" y="1203.1934">bindOrder()</text><text fill="#000000" font-family="sans-serif" font-size="11" lengthAdjust="spacingAndGlyphs" textLength="71" x="1303" y="1216.1484">fulfill() 箱满了</text><text fill="#000000" font-family="sans-serif" font-size="11" lengthAdjust="spacingAndGlyphs" textLength="174" x="1303" y="1229.1035">transferFrom(ContainerItemBag)</text><text fill="#000000" font-family="sans-serif" font-size="11" lengthAdjust="spacingAndGlyphs" textLength="183" x="1303" y="1242.0586">useConsumables() 向纸箱添加耗材.</text><line style="stroke: #A80036; stroke-width: 1.5;" x1="1298" x2="1466.5" y1="1186.0811" y2="1186.0811"/><text fill="#000000" font-family="sans-serif" font-size="11" lengthAdjust="spacingAndGlyphs" textLength="22" x="1466.5" y="1189.7383">行为</text><line style="stroke: #A80036; stroke-width: 1.5;" x1="1488.5" x2="1657" y1="1186.0811" y2="1186.0811"/><!--class CartonItem--><rect fill="#FEFECE" filter="url(#f6cunli)" height="129.7305" style="stroke: #A80036; stroke-width: 1.5;" width="95" x="2447" y="1131.832"/><ellipse cx="2462" cy="1147.832" fill="#ADD1B2" rx="11" ry="11" style="stroke: #A80036; stroke-width: 1.0;"/><path d="M2464.4731,1153.9751 Q2463.8921,1154.2739 2463.2529,1154.4233 Q2462.6138,1154.5728 2461.9082,1154.5728 Q2459.4014,1154.5728 2458.0815,1152.9209 Q2456.7617,1151.269 2456.7617,1148.1479 Q2456.7617,1145.0186 2458.0815,1143.3667 Q2459.4014,1141.7148 2461.9082,1141.7148 Q2462.6138,1141.7148 2463.2612,1141.8643 Q2463.9087,1142.0137 2464.4731,1142.3125 L2464.4731,1145.0352 Q2463.8423,1144.4541 2463.2488,1144.1843 Q2462.6553,1143.9146 2462.0244,1143.9146 Q2460.6797,1143.9146 2459.9949,1144.9812 Q2459.3101,1146.0479 2459.3101,1148.1479 Q2459.3101,1150.2397 2459.9949,1151.3064 Q2460.6797,1152.373 2462.0244,1152.373 Q2462.6553,1152.373 2463.2488,1152.1033 Q2463.8423,1151.8335 2464.4731,1151.2524 Z "/><text fill="#000000" font-family="sans-serif" font-size="12" lengthAdjust="spacingAndGlyphs" textLength="63" x="2476" y="1152.3672">CartonItem</text><line style="stroke: #A80036; stroke-width: 1.5;" x1="2448" x2="2541" y1="1163.832" y2="1163.832"/><text fill="#000000" font-family="sans-serif" font-size="11" lengthAdjust="spacingAndGlyphs" textLength="19" x="2453" y="1195.4219">sku</text><line style="stroke: #A80036; stroke-width: 1.5;" x1="2448" x2="2468" y1="1178.3096" y2="1178.3096"/><text fill="#000000" font-family="sans-serif" font-size="11" lengthAdjust="spacingAndGlyphs" textLength="53" x="2468" y="1181.9668">Structural</text><line style="stroke: #A80036; stroke-width: 1.5;" x1="2521" x2="2541" y1="1178.3096" y2="1178.3096"/><text fill="#000000" font-family="sans-serif" font-size="11" lengthAdjust="spacingAndGlyphs" textLength="67" x="2453" y="1225.332">orderLineNo</text><line style="stroke: #A80036; stroke-width: 1.5;" x1="2448" x2="2466" y1="1208.2197" y2="1208.2197"/><text fill="#000000" font-family="sans-serif" font-size="11" lengthAdjust="spacingAndGlyphs" textLength="57" x="2466" y="1211.877">Referential</text><line style="stroke: #A80036; stroke-width: 1.5;" x1="2523" x2="2541" y1="1208.2197" y2="1208.2197"/><text fill="#000000" font-family="sans-serif" font-size="11" lengthAdjust="spacingAndGlyphs" textLength="63" x="2453" y="1255.2422">checkedQty</text><line style="stroke: #A80036; stroke-width: 1.5;" x1="2448" x2="2471.5" y1="1238.1299" y2="1238.1299"/><text fill="#000000" font-family="sans-serif" font-size="11" lengthAdjust="spacingAndGlyphs" textLength="46" x="2471.5" y="1241.7871">Quantity</text><line style="stroke: #A80036; stroke-width: 1.5;" x1="2517.5" x2="2541" y1="1238.1299" y2="1238.1299"/><!--class CartonItemBag--><rect fill="#FEFECE" filter="url(#f6cunli)" height="69.9102" style="stroke: #A80036; stroke-width: 1.5;" width="289" x="1927.5" y="1163.832"/><ellipse cx="2025.75" cy="1179.832" fill="#9197DB" rx="11" ry="11" style="stroke: #A80036; stroke-width: 1.0;"/><path d="M2024.1533,1181.2041 L2024.1533,1184.873 L2025.7803,1184.873 Q2026.9507,1184.873 2027.4197,1184.4746 Q2027.8887,1184.0762 2027.8887,1183.0884 Q2027.8887,1182.084 2027.3989,1181.644 Q2026.9092,1181.2041 2025.7803,1181.2041 Z M2024.1533,1176.373 L2024.1533,1179.2534 L2025.7803,1179.2534 Q2026.71,1179.2534 2027.1042,1178.9214 Q2027.4985,1178.5894 2027.4985,1177.8257 Q2027.4985,1177.062 2027.0959,1176.7175 Q2026.6934,1176.373 2025.7803,1176.373 Z M2021.7876,1174.4224 L2025.7803,1174.4224 Q2027.8472,1174.4224 2028.8889,1175.2068 Q2029.9307,1175.9912 2029.9307,1177.5518 Q2029.9307,1178.7471 2029.3164,1179.4194 Q2028.7021,1180.0918 2027.5151,1180.1997 Q2028.9346,1180.3408 2029.6526,1181.1543 Q2030.3706,1181.9678 2030.3706,1183.4287 Q2030.3706,1185.2217 2029.2915,1186.0269 Q2028.2124,1186.832 2025.7803,1186.832 L2021.7876,1186.832 Z "/><text fill="#000000" font-family="sans-serif" font-size="12" lengthAdjust="spacingAndGlyphs" textLength="84" x="2046.25" y="1184.3672">CartonItemBag</text><line style="stroke: #A80036; stroke-width: 1.5;" x1="1928.5" x2="2215.5" y1="1195.832" y2="1195.832"/><text fill="#000000" font-family="sans-serif" font-size="11" lengthAdjust="spacingAndGlyphs" textLength="277" x="1933.5" y="1227.4219">contains(UniqueCode) 货品唯一码是否在本箱里已有了</text><line style="stroke: #A80036; stroke-width: 1.5;" x1="1928.5" x2="2061" y1="1210.3096" y2="1210.3096"/><text fill="#000000" font-family="sans-serif" font-size="11" lengthAdjust="spacingAndGlyphs" textLength="22" x="2061" y="1213.9668">行为</text><line style="stroke: #A80036; stroke-width: 1.5;" x1="2083" x2="2215.5" y1="1210.3096" y2="1210.3096"/><!--class Consumable--><rect fill="#FEFECE" filter="url(#f6cunli)" height="99.8203" style="stroke: #A80036; stroke-width: 1.5;" width="157" x="2416" y="957.832"/><ellipse cx="2455.3" cy="973.832" fill="#ADD1B2" rx="11" ry="11" style="stroke: #A80036; stroke-width: 1.0;"/><path d="M2457.7731,979.9751 Q2457.1921,980.2739 2456.5529,980.4233 Q2455.9138,980.5728 2455.2082,980.5728 Q2452.7014,980.5728 2451.3815,978.9209 Q2450.0617,977.269 2450.0617,974.1479 Q2450.0617,971.0186 2451.3815,969.3667 Q2452.7014,967.7148 2455.2082,967.7148 Q2455.9138,967.7148 2456.5612,967.8643 Q2457.2087,968.0137 2457.7731,968.3125 L2457.7731,971.0352 Q2457.1423,970.4541 2456.5488,970.1843 Q2455.9553,969.9146 2455.3244,969.9146 Q2453.9797,969.9146 2453.2949,970.9812 Q2452.6101,972.0479 2452.6101,974.1479 Q2452.6101,976.2397 2453.2949,977.3064 Q2453.9797,978.373 2455.3244,978.373 Q2455.9553,978.373 2456.5488,978.1033 Q2457.1423,977.8335 2457.7731,977.2524 Z "/><text fill="#000000" font-family="sans-serif" font-size="12" lengthAdjust="spacingAndGlyphs" textLength="71" x="2474.7" y="978.3672">Consumable</text><line style="stroke: #A80036; stroke-width: 1.5;" x1="2417" x2="2572" y1="989.832" y2="989.832"/><text fill="#000000" font-family="sans-serif" font-size="11" lengthAdjust="spacingAndGlyphs" textLength="145" x="2422" y="1021.4219">CartonNo OrderNo TaskNo</text><line style="stroke: #A80036; stroke-width: 1.5;" x1="2417" x2="2468" y1="1004.3096" y2="1004.3096"/><text fill="#000000" font-family="sans-serif" font-size="11" lengthAdjust="spacingAndGlyphs" textLength="53" x="2468" y="1007.9668">Structural</text><line style="stroke: #A80036; stroke-width: 1.5;" x1="2521" x2="2572" y1="1004.3096" y2="1004.3096"/><text fill="#000000" font-family="sans-serif" font-size="11" lengthAdjust="spacingAndGlyphs" textLength="45" x="2422" y="1051.332">Platform</text><line style="stroke: #A80036; stroke-width: 1.5;" x1="2417" x2="2471.5" y1="1034.2197" y2="1034.2197"/><text fill="#000000" font-family="sans-serif" font-size="11" lengthAdjust="spacingAndGlyphs" textLength="46" x="2471.5" y="1037.877">Location</text><line style="stroke: #A80036; stroke-width: 1.5;" x1="2517.5" x2="2572" y1="1034.2197" y2="1034.2197"/><!--class ConsumableBag--><rect fill="#FEFECE" filter="url(#f6cunli)" height="48" style="stroke: #A80036; stroke-width: 1.5;" width="124" x="2009.5" y="1039.832"/><ellipse cx="2024.5" cy="1055.832" fill="#9197DB" rx="11" ry="11" style="stroke: #A80036; stroke-width: 1.0;"/><path d="M2022.9033,1057.2041 L2022.9033,1060.873 L2024.5303,1060.873 Q2025.7007,1060.873 2026.1697,1060.4746 Q2026.6387,1060.0762 2026.6387,1059.0884 Q2026.6387,1058.084 2026.1489,1057.644 Q2025.6592,1057.2041 2024.5303,1057.2041 Z M2022.9033,1052.373 L2022.9033,1055.2534 L2024.5303,1055.2534 Q2025.46,1055.2534 2025.8542,1054.9214 Q2026.2485,1054.5894 2026.2485,1053.8257 Q2026.2485,1053.062 2025.8459,1052.7175 Q2025.4434,1052.373 2024.5303,1052.373 Z M2020.5376,1050.4224 L2024.5303,1050.4224 Q2026.5972,1050.4224 2027.6389,1051.2068 Q2028.6807,1051.9912 2028.6807,1053.5518 Q2028.6807,1054.7471 2028.0664,1055.4194 Q2027.4521,1056.0918 2026.2651,1056.1997 Q2027.6846,1056.3408 2028.4026,1057.1543 Q2029.1206,1057.9678 2029.1206,1059.4287 Q2029.1206,1061.2217 2028.0415,1062.0269 Q2026.9624,1062.832 2024.5303,1062.832 L2020.5376,1062.832 Z "/><text fill="#000000" font-family="sans-serif" font-size="12" lengthAdjust="spacingAndGlyphs" textLength="92" x="2038.5" y="1060.3672">ConsumableBag</text><line style="stroke: #A80036; stroke-width: 1.5;" x1="2010.5" x2="2132.5" y1="1071.832" y2="1071.832"/><line style="stroke: #A80036; stroke-width: 1.5;" x1="2010.5" x2="2132.5" y1="1079.832" y2="1079.832"/><!--class Pallet--><rect fill="#FEFECE" filter="url(#f6cunli)" height="48" style="stroke: #A80036; stroke-width: 1.5;" width="63" x="2040" y="936.832"/><ellipse cx="2055" cy="952.832" fill="#9197DB" rx="11" ry="11" style="stroke: #A80036; stroke-width: 1.0;"/><path d="M2053.4033,954.2041 L2053.4033,957.873 L2055.0303,957.873 Q2056.2007,957.873 2056.6697,957.4746 Q2057.1387,957.0762 2057.1387,956.0884 Q2057.1387,955.084 2056.6489,954.644 Q2056.1592,954.2041 2055.0303,954.2041 Z M2053.4033,949.373 L2053.4033,952.2534 L2055.0303,952.2534 Q2055.96,952.2534 2056.3542,951.9214 Q2056.7485,951.5894 2056.7485,950.8257 Q2056.7485,950.062 2056.3459,949.7175 Q2055.9434,949.373 2055.0303,949.373 Z M2051.0376,947.4224 L2055.0303,947.4224 Q2057.0972,947.4224 2058.1389,948.2068 Q2059.1807,948.9912 2059.1807,950.5518 Q2059.1807,951.7471 2058.5664,952.4194 Q2057.9521,953.0918 2056.7651,953.1997 Q2058.1846,953.3408 2058.9026,954.1543 Q2059.6206,954.9678 2059.6206,956.4287 Q2059.6206,958.2217 2058.5415,959.0269 Q2057.4624,959.832 2055.0303,959.832 L2051.0376,959.832 Z "/><text fill="#000000" font-family="sans-serif" font-size="12" lengthAdjust="spacingAndGlyphs" textLength="31" x="2069" y="957.3672">Pallet</text><line style="stroke: #A80036; stroke-width: 1.5;" x1="2041" x2="2102" y1="968.832" y2="968.832"/><line style="stroke: #A80036; stroke-width: 1.5;" x1="2041" x2="2102" y1="976.832" y2="976.832"/><!--class Sku--><rect fill="#FEFECE" filter="url(#f6cunli)" height="106.0859" style="stroke: #A80036; stroke-width: 1.5;" width="117" x="2887" y="789.832"/><ellipse cx="2913.25" cy="808.9648" fill="#ADD1B2" rx="11" ry="11" style="stroke: #A80036; stroke-width: 1.0;"/><path d="M2915.7231,815.1079 Q2915.1421,815.4067 2914.5029,815.5562 Q2913.8638,815.7056 2913.1582,815.7056 Q2910.6514,815.7056 2909.3315,814.0537 Q2908.0117,812.4019 2908.0117,809.2808 Q2908.0117,806.1514 2909.3315,804.4995 Q2910.6514,802.8477 2913.1582,802.8477 Q2913.8638,802.8477 2914.5112,802.9971 Q2915.1587,803.1465 2915.7231,803.4453 L2915.7231,806.168 Q2915.0923,805.5869 2914.4988,805.3171 Q2913.9053,805.0474 2913.2744,805.0474 Q2911.9297,805.0474 2911.2449,806.114 Q2910.5601,807.1807 2910.5601,809.2808 Q2910.5601,811.3726 2911.2449,812.4392 Q2911.9297,813.5059 2913.2744,813.5059 Q2913.9053,813.5059 2914.4988,813.2361 Q2915.0923,812.9663 2915.7231,812.3853 Z "/><text fill="#000000" font-family="sans-serif" font-size="12" font-style="italic" lengthAdjust="spacingAndGlyphs" textLength="64" x="2927.75" y="806.4336">«货品编号.»</text><text fill="#000000" font-family="sans-serif" font-size="12" lengthAdjust="spacingAndGlyphs" textLength="20" x="2949.75" y="820.5664">Sku</text><line style="stroke: #A80036; stroke-width: 1.5;" x1="2888" x2="3003" y1="828.0977" y2="828.0977"/><text fill="#000000" font-family="sans-serif" font-size="11" lengthAdjust="spacingAndGlyphs" textLength="105" x="2893" y="859.6875">OwnerNo PackCode</text><line style="stroke: #A80036; stroke-width: 1.5;" x1="2888" x2="2919" y1="842.5752" y2="842.5752"/><text fill="#000000" font-family="sans-serif" font-size="11" lengthAdjust="spacingAndGlyphs" textLength="53" x="2919" y="846.2324">Structural</text><line style="stroke: #A80036; stroke-width: 1.5;" x1="2972" x2="3003" y1="842.5752" y2="842.5752"/><text fill="#000000" font-family="sans-serif" font-size="11" lengthAdjust="spacingAndGlyphs" textLength="67" x="2893" y="889.5977">LotNo snList</text><line style="stroke: #A80036; stroke-width: 1.5;" x1="2888" x2="2916" y1="872.4854" y2="872.4854"/><text fill="#000000" font-family="sans-serif" font-size="11" lengthAdjust="spacingAndGlyphs" textLength="59" x="2916" y="876.1426">Contextual</text><line style="stroke: #A80036; stroke-width: 1.5;" x1="2975" x2="3003" y1="872.4854" y2="872.4854"/><!--class Container--><rect fill="#FEFECE" filter="url(#f6cunli)" height="106.0859" style="stroke: #A80036; stroke-width: 1.5;" width="139" x="2876.5" y="1683.832"/><ellipse cx="2912.65" cy="1702.9648" fill="#ADD1B2" rx="11" ry="11" style="stroke: #A80036; stroke-width: 1.0;"/><path d="M2915.1231,1709.1079 Q2914.5421,1709.4067 2913.9029,1709.5562 Q2913.2638,1709.7056 2912.5582,1709.7056 Q2910.0514,1709.7056 2908.7315,1708.0537 Q2907.4117,1706.4019 2907.4117,1703.2808 Q2907.4117,1700.1514 2908.7315,1698.4995 Q2910.0514,1696.8477 2912.5582,1696.8477 Q2913.2638,1696.8477 2913.9112,1696.9971 Q2914.5587,1697.1465 2915.1231,1697.4453 L2915.1231,1700.168 Q2914.4923,1699.5869 2913.8988,1699.3171 Q2913.3053,1699.0474 2912.6744,1699.0474 Q2911.3297,1699.0474 2910.6449,1700.114 Q2909.9601,1701.1807 2909.9601,1703.2808 Q2909.9601,1705.3726 2910.6449,1706.4392 Q2911.3297,1707.5059 2912.6744,1707.5059 Q2913.3053,1707.5059 2913.8988,1707.2361 Q2914.4923,1706.9663 2915.1231,1706.3853 Z "/><text fill="#000000" font-family="sans-serif" font-size="12" font-style="italic" lengthAdjust="spacingAndGlyphs" textLength="64" x="2929.35" y="1700.4336">«拣货容器.»</text><text fill="#000000" font-family="sans-serif" font-size="12" lengthAdjust="spacingAndGlyphs" textLength="55" x="2933.85" y="1714.5664">Container</text><line style="stroke: #A80036; stroke-width: 1.5;" x1="2877.5" x2="3014.5" y1="1722.0977" y2="1722.0977"/><text fill="#000000" font-family="sans-serif" font-size="11" lengthAdjust="spacingAndGlyphs" textLength="79" x="2882.5" y="1753.6875">ContainerType</text><line style="stroke: #A80036; stroke-width: 1.5;" x1="2877.5" x2="2914.5" y1="1736.5752" y2="1736.5752"/><text fill="#000000" font-family="sans-serif" font-size="11" lengthAdjust="spacingAndGlyphs" textLength="63" x="2914.5" y="1740.2324">Operational</text><line style="stroke: #A80036; stroke-width: 1.5;" x1="2977.5" x2="3014.5" y1="1736.5752" y2="1736.5752"/><text fill="#000000" font-family="sans-serif" font-size="11" lengthAdjust="spacingAndGlyphs" textLength="127" x="2882.5" y="1783.5977">containerNo/扫描枪可扫</text><line style="stroke: #A80036; stroke-width: 1.5;" x1="2877.5" x2="2934" y1="1766.4854" y2="1766.4854"/><text fill="#000000" font-family="sans-serif" font-size="11" lengthAdjust="spacingAndGlyphs" textLength="24" x="2934" y="1770.1426">DCU</text><line style="stroke: #A80036; stroke-width: 1.5;" x1="2958" x2="3014.5" y1="1766.4854" y2="1766.4854"/><!--class ContainerBag--><rect fill="#FEFECE" filter="url(#f6cunli)" height="121.7305" style="stroke: #A80036; stroke-width: 1.5;" width="222" x="2383" y="1679.832"/><ellipse cx="2451.75" cy="1695.832" fill="#9197DB" rx="11" ry="11" style="stroke: #A80036; stroke-width: 1.0;"/><path d="M2450.1533,1697.2041 L2450.1533,1700.873 L2451.7803,1700.873 Q2452.9507,1700.873 2453.4197,1700.4746 Q2453.8887,1700.0762 2453.8887,1699.0884 Q2453.8887,1698.084 2453.3989,1697.644 Q2452.9092,1697.2041 2451.7803,1697.2041 Z M2450.1533,1692.373 L2450.1533,1695.2534 L2451.7803,1695.2534 Q2452.71,1695.2534 2453.1042,1694.9214 Q2453.4985,1694.5894 2453.4985,1693.8257 Q2453.4985,1693.062 2453.0959,1692.7175 Q2452.6934,1692.373 2451.7803,1692.373 Z M2447.7876,1690.4224 L2451.7803,1690.4224 Q2453.8472,1690.4224 2454.8889,1691.2068 Q2455.9307,1691.9912 2455.9307,1693.5518 Q2455.9307,1694.7471 2455.3164,1695.4194 Q2454.7021,1696.0918 2453.5151,1696.1997 Q2454.9346,1696.3408 2455.6526,1697.1543 Q2456.3706,1697.9678 2456.3706,1699.4287 Q2456.3706,1701.2217 2455.2915,1702.0269 Q2454.2124,1702.832 2451.7803,1702.832 L2447.7876,1702.832 Z "/><text fill="#000000" font-family="sans-serif" font-size="12" lengthAdjust="spacingAndGlyphs" textLength="76" x="2472.25" y="1700.3672">ContainerBag</text><line style="stroke: #A80036; stroke-width: 1.5;" x1="2384" x2="2604" y1="1711.832" y2="1711.832"/><text fill="#000000" font-family="sans-serif" font-size="11" lengthAdjust="spacingAndGlyphs" textLength="186" x="2389" y="1743.4219">totalSku() 该容器的总商品种类(品数).</text><text fill="#000000" font-family="sans-serif" font-size="11" lengthAdjust="spacingAndGlyphs" textLength="145" x="2389" y="1756.377">totalQty() 该容器的总要货量.</text><text fill="#000000" font-family="sans-serif" font-size="11" lengthAdjust="spacingAndGlyphs" textLength="94" x="2389" y="1769.332">totalPendingQty()</text><text fill="#000000" font-family="sans-serif" font-size="11" lengthAdjust="spacingAndGlyphs" textLength="210" x="2389" y="1782.2871">pendingItemBag() 待复核的所有容器明细.</text><text fill="#000000" font-family="sans-serif" font-size="11" lengthAdjust="spacingAndGlyphs" textLength="152" x="2389" y="1795.2422">orderNoSet() 所有的出库单号.</text><line style="stroke: #A80036; stroke-width: 1.5;" x1="2384" x2="2483" y1="1726.3096" y2="1726.3096"/><text fill="#000000" font-family="sans-serif" font-size="11" lengthAdjust="spacingAndGlyphs" textLength="22" x="2483" y="1729.9668">规则</text><line style="stroke: #A80036; stroke-width: 1.5;" x1="2505" x2="2604" y1="1726.3096" y2="1726.3096"/><!--class ContainerItem--><rect fill="#FEFECE" filter="url(#f6cunli)" height="148.9512" style="stroke: #A80036; stroke-width: 1.5;" width="197" x="3946" y="1641.832"/><ellipse cx="3970.45" cy="1660.9648" fill="#ADD1B2" rx="11" ry="11" style="stroke: #A80036; stroke-width: 1.0;"/><path d="M3972.9231,1667.1079 Q3972.3421,1667.4067 3971.7029,1667.5562 Q3971.0638,1667.7056 3970.3582,1667.7056 Q3967.8514,1667.7056 3966.5315,1666.0537 Q3965.2117,1664.4019 3965.2117,1661.2808 Q3965.2117,1658.1514 3966.5315,1656.4995 Q3967.8514,1654.8477 3970.3582,1654.8477 Q3971.0638,1654.8477 3971.7112,1654.9971 Q3972.3587,1655.1465 3972.9231,1655.4453 L3972.9231,1658.168 Q3972.2923,1657.5869 3971.6988,1657.3171 Q3971.1053,1657.0474 3970.4744,1657.0474 Q3969.1297,1657.0474 3968.4449,1658.114 Q3967.7601,1659.1807 3967.7601,1661.2808 Q3967.7601,1663.3726 3968.4449,1664.4392 Q3969.1297,1665.5059 3970.4744,1665.5059 Q3971.1053,1665.5059 3971.6988,1665.2361 Q3972.2923,1664.9663 3972.9231,1664.3853 Z "/><text fill="#000000" font-family="sans-serif" font-size="12" font-style="italic" lengthAdjust="spacingAndGlyphs" textLength="148" x="3984.55" y="1658.4336">«拣货容器里的商品和数量.»</text><text fill="#000000" font-family="sans-serif" font-size="12" lengthAdjust="spacingAndGlyphs" textLength="80" x="4018.55" y="1672.5664">ContainerItem</text><line style="stroke: #A80036; stroke-width: 1.5;" x1="3947" x2="4142" y1="1680.0977" y2="1680.0977"/><text fill="#000000" font-family="sans-serif" font-size="11" lengthAdjust="spacingAndGlyphs" textLength="91" x="3952" y="1711.6875">OrderLineNo Sku</text><line style="stroke: #A80036; stroke-width: 1.5;" x1="3947" x2="4018" y1="1694.5752" y2="1694.5752"/><text fill="#000000" font-family="sans-serif" font-size="11" lengthAdjust="spacingAndGlyphs" textLength="53" x="4018" y="1698.2324">Structural</text><line style="stroke: #A80036; stroke-width: 1.5;" x1="4071" x2="4142" y1="1694.5752" y2="1694.5752"/><text fill="#000000" font-family="sans-serif" font-size="11" lengthAdjust="spacingAndGlyphs" textLength="185" x="3952" y="1741.5977">expectedQty givenQty pendingQty</text><line style="stroke: #A80036; stroke-width: 1.5;" x1="3947" x2="4021.5" y1="1724.4854" y2="1724.4854"/><text fill="#000000" font-family="sans-serif" font-size="11" lengthAdjust="spacingAndGlyphs" textLength="46" x="4021.5" y="1728.1426">Quantity</text><line style="stroke: #A80036; stroke-width: 1.5;" x1="4067.5" x2="4142" y1="1724.4854" y2="1724.4854"/><text fill="#000000" font-family="sans-serif" font-size="11" lengthAdjust="spacingAndGlyphs" textLength="172" x="3952" y="1771.5078">diffQty() 复核作业发现的差异数量.</text><text fill="#000000" font-family="sans-serif" font-size="11" lengthAdjust="spacingAndGlyphs" textLength="35" x="3952" y="1784.4629">done()</text><line style="stroke: #A80036; stroke-width: 1.5;" x1="3947" x2="4033.5" y1="1754.3955" y2="1754.3955"/><text fill="#000000" font-family="sans-serif" font-size="11" lengthAdjust="spacingAndGlyphs" textLength="22" x="4033.5" y="1758.0527">规则</text><line style="stroke: #A80036; stroke-width: 1.5;" x1="4055.5" x2="4142" y1="1754.3955" y2="1754.3955"/><!--class ContainerItemBag--><rect fill="#FEFECE" filter="url(#f6cunli)" height="95.8203" style="stroke: #A80036; stroke-width: 1.5;" width="198" x="3410" y="1685.832"/><ellipse cx="3454.25" cy="1701.832" fill="#9197DB" rx="11" ry="11" style="stroke: #A80036; stroke-width: 1.0;"/><path d="M3452.6533,1703.2041 L3452.6533,1706.873 L3454.2803,1706.873 Q3455.4507,1706.873 3455.9197,1706.4746 Q3456.3887,1706.0762 3456.3887,1705.0884 Q3456.3887,1704.084 3455.8989,1703.644 Q3455.4092,1703.2041 3454.2803,1703.2041 Z M3452.6533,1698.373 L3452.6533,1701.2534 L3454.2803,1701.2534 Q3455.21,1701.2534 3455.6042,1700.9214 Q3455.9985,1700.5894 3455.9985,1699.8257 Q3455.9985,1699.062 3455.5959,1698.7175 Q3455.1934,1698.373 3454.2803,1698.373 Z M3450.2876,1696.4224 L3454.2803,1696.4224 Q3456.3472,1696.4224 3457.3889,1697.2068 Q3458.4307,1697.9912 3458.4307,1699.5518 Q3458.4307,1700.7471 3457.8164,1701.4194 Q3457.2021,1702.0918 3456.0151,1702.1997 Q3457.4346,1702.3408 3458.1526,1703.1543 Q3458.8706,1703.9678 3458.8706,1705.4287 Q3458.8706,1707.2217 3457.7915,1708.0269 Q3456.7124,1708.832 3454.2803,1708.832 L3450.2876,1708.832 Z "/><text fill="#000000" font-family="sans-serif" font-size="12" lengthAdjust="spacingAndGlyphs" textLength="101" x="3474.75" y="1706.3672">ContainerItemBag</text><line style="stroke: #A80036; stroke-width: 1.5;" x1="3411" x2="3607" y1="1717.832" y2="1717.832"/><text fill="#000000" font-family="sans-serif" font-size="11" lengthAdjust="spacingAndGlyphs" textLength="186" x="3416" y="1749.4219">totalSku() 该容器的总商品种类(品数).</text><text fill="#000000" font-family="sans-serif" font-size="11" lengthAdjust="spacingAndGlyphs" textLength="134" x="3416" y="1762.377">totalQty() 该容器的总货量.</text><text fill="#000000" font-family="sans-serif" font-size="11" lengthAdjust="spacingAndGlyphs" textLength="94" x="3416" y="1775.332">totalPendingQty()</text><line style="stroke: #A80036; stroke-width: 1.5;" x1="3411" x2="3498" y1="1732.3096" y2="1732.3096"/><text fill="#000000" font-family="sans-serif" font-size="11" lengthAdjust="spacingAndGlyphs" textLength="22" x="3498" y="1735.9668">规则</text><line style="stroke: #A80036; stroke-width: 1.5;" x1="3520" x2="3607" y1="1732.3096" y2="1732.3096"/><!--class Task--><rect fill="#FEFECE" filter="url(#f6cunli)" height="135.9961" style="stroke: #A80036; stroke-width: 1.5;" width="92" x="2025.5" y="1681.832"/><ellipse cx="2040.5" cy="1700.9648" fill="#FF7700" rx="11" ry="11" style="stroke: #A80036; stroke-width: 1.0;"/><path d="M2041.1987,1701.6128 Q2041.564,1701.6875 2041.8337,1701.9573 Q2042.1035,1702.2271 2042.4937,1703.0073 L2044.7349,1707.4648 L2042.0454,1707.4648 L2040.5513,1704.3354 Q2040.4849,1704.2026 2040.377,1703.9702 Q2039.7212,1702.5674 2038.833,1702.5674 L2038.0527,1702.5674 L2038.0527,1707.4648 L2035.604,1707.4648 L2035.604,1695.0718 L2039.1401,1695.0718 Q2041.5308,1695.0718 2042.5725,1695.9185 Q2043.6143,1696.7651 2043.6143,1698.6743 Q2043.6143,1699.9526 2042.9917,1700.708 Q2042.3691,1701.4634 2041.1987,1701.6128 Z M2038.0527,1697.1304 L2038.0527,1700.5088 L2039.2065,1700.5088 Q2040.2109,1700.5088 2040.6467,1700.1145 Q2041.0825,1699.7202 2041.0825,1698.8154 Q2041.0825,1697.9106 2040.6509,1697.5205 Q2040.2192,1697.1304 2039.2065,1697.1304 Z "/><text fill="#000000" font-family="sans-serif" font-size="12" font-style="italic" lengthAdjust="spacingAndGlyphs" textLength="64" x="2052.5" y="1698.4336">«复核任务.»</text><text fill="#000000" font-family="sans-serif" font-size="12" lengthAdjust="spacingAndGlyphs" textLength="28" x="2070.5" y="1712.5664">Task</text><line style="stroke: #A80036; stroke-width: 1.5;" x1="2026.5" x2="2116.5" y1="1720.0977" y2="1720.0977"/><text fill="#000000" font-family="sans-serif" font-size="11" lengthAdjust="spacingAndGlyphs" textLength="58" x="2031.5" y="1751.6875">TaskStatus</text><line style="stroke: #A80036; stroke-width: 1.5;" x1="2026.5" x2="2048.5" y1="1734.5752" y2="1734.5752"/><text fill="#000000" font-family="sans-serif" font-size="11" lengthAdjust="spacingAndGlyphs" textLength="46" x="2048.5" y="1738.2324">Lifecycle</text><line style="stroke: #A80036; stroke-width: 1.5;" x1="2094.5" x2="2116.5" y1="1734.5752" y2="1734.5752"/><text fill="#000000" font-family="sans-serif" font-size="11" lengthAdjust="spacingAndGlyphs" textLength="45" x="2031.5" y="1781.5977">Platform</text><line style="stroke: #A80036; stroke-width: 1.5;" x1="2026.5" x2="2048.5" y1="1764.4854" y2="1764.4854"/><text fill="#000000" font-family="sans-serif" font-size="11" lengthAdjust="spacingAndGlyphs" textLength="46" x="2048.5" y="1768.1426">Location</text><line style="stroke: #A80036; stroke-width: 1.5;" x1="2094.5" x2="2116.5" y1="1764.4854" y2="1764.4854"/><text fill="#000000" font-family="sans-serif" font-size="11" lengthAdjust="spacingAndGlyphs" textLength="72" x="2031.5" y="1811.5078">claimedWith()</text><line style="stroke: #A80036; stroke-width: 1.5;" x1="2026.5" x2="2060.5" y1="1794.3955" y2="1794.3955"/><text fill="#000000" font-family="sans-serif" font-size="11" lengthAdjust="spacingAndGlyphs" textLength="22" x="2060.5" y="1798.0527">行为</text><line style="stroke: #A80036; stroke-width: 1.5;" x1="2082.5" x2="2116.5" y1="1794.3955" y2="1794.3955"/><!--class TaskBag--><rect fill="#FEFECE" filter="url(#f6cunli)" height="69.9102" style="stroke: #A80036; stroke-width: 1.5;" width="460" x="1247" y="1620.832"/><ellipse cx="1448.25" cy="1636.832" fill="#9197DB" rx="11" ry="11" style="stroke: #A80036; stroke-width: 1.0;"/><path d="M1446.6533,1638.2041 L1446.6533,1641.873 L1448.2803,1641.873 Q1449.4507,1641.873 1449.9197,1641.4746 Q1450.3887,1641.0762 1450.3887,1640.0884 Q1450.3887,1639.084 1449.8989,1638.644 Q1449.4092,1638.2041 1448.2803,1638.2041 Z M1446.6533,1633.373 L1446.6533,1636.2534 L1448.2803,1636.2534 Q1449.21,1636.2534 1449.6042,1635.9214 Q1449.9985,1635.5894 1449.9985,1634.8257 Q1449.9985,1634.062 1449.5959,1633.7175 Q1449.1934,1633.373 1448.2803,1633.373 Z M1444.2876,1631.4224 L1448.2803,1631.4224 Q1450.3472,1631.4224 1451.3889,1632.2068 Q1452.4307,1632.9912 1452.4307,1634.5518 Q1452.4307,1635.7471 1451.8164,1636.4194 Q1451.2021,1637.0918 1450.0151,1637.1997 Q1451.4346,1637.3408 1452.1526,1638.1543 Q1452.8706,1638.9678 1452.8706,1640.4287 Q1452.8706,1642.2217 1451.7915,1643.0269 Q1450.7124,1643.832 1448.2803,1643.832 L1444.2876,1643.832 Z "/><text fill="#000000" font-family="sans-serif" font-size="12" lengthAdjust="spacingAndGlyphs" textLength="49" x="1468.75" y="1641.3672">TaskBag</text><line style="stroke: #A80036; stroke-width: 1.5;" x1="1248" x2="1706" y1="1652.832" y2="1652.832"/><text fill="#000000" font-family="sans-serif" font-size="11" lengthAdjust="spacingAndGlyphs" textLength="304" x="1253" y="1684.4219">recommendByTaskBacklog(RecommendPlatformRequest)</text><text fill="#808000" font-family="sans-serif" font-size="11" lengthAdjust="spacingAndGlyphs" textLength="135" x="1563" y="1684.4219">RecommendPlatformFlow</text><line style="stroke: #A80036; stroke-width: 1.5;" x1="1248" x2="1466" y1="1667.3096" y2="1667.3096"/><text fill="#000000" font-family="sans-serif" font-size="11" lengthAdjust="spacingAndGlyphs" textLength="22" x="1466" y="1670.9668">流程</text><line style="stroke: #A80036; stroke-width: 1.5;" x1="1488" x2="1706" y1="1667.3096" y2="1667.3096"/><!--class TaskOfContainer--><rect fill="#FEFECE" filter="url(#f6cunli)" height="48" style="stroke: #A80036; stroke-width: 1.5;" width="128" x="1413" y="1725.832"/><ellipse cx="1428" cy="1741.832" fill="#9197DB" rx="11" ry="11" style="stroke: #A80036; stroke-width: 1.0;"/><path d="M1426.4033,1743.2041 L1426.4033,1746.873 L1428.0303,1746.873 Q1429.2007,1746.873 1429.6697,1746.4746 Q1430.1387,1746.0762 1430.1387,1745.0884 Q1430.1387,1744.084 1429.6489,1743.644 Q1429.1592,1743.2041 1428.0303,1743.2041 Z M1426.4033,1738.373 L1426.4033,1741.2534 L1428.0303,1741.2534 Q1428.96,1741.2534 1429.3542,1740.9214 Q1429.7485,1740.5894 1429.7485,1739.8257 Q1429.7485,1739.062 1429.3459,1738.7175 Q1428.9434,1738.373 1428.0303,1738.373 Z M1424.0376,1736.4224 L1428.0303,1736.4224 Q1430.0972,1736.4224 1431.1389,1737.2068 Q1432.1807,1737.9912 1432.1807,1739.5518 Q1432.1807,1740.7471 1431.5664,1741.4194 Q1430.9521,1742.0918 1429.7651,1742.1997 Q1431.1846,1742.3408 1431.9026,1743.1543 Q1432.6206,1743.9678 1432.6206,1745.4287 Q1432.6206,1747.2217 1431.5415,1748.0269 Q1430.4624,1748.832 1428.0303,1748.832 L1424.0376,1748.832 Z "/><text fill="#000000" font-family="sans-serif" font-size="12" lengthAdjust="spacingAndGlyphs" textLength="96" x="1442" y="1746.3672">TaskOfContainer</text><line style="stroke: #A80036; stroke-width: 1.5;" x1="1414" x2="1540" y1="1757.832" y2="1757.832"/><line style="stroke: #A80036; stroke-width: 1.5;" x1="1414" x2="1540" y1="1765.832" y2="1765.832"/><!--class TaskOfOrder--><rect fill="#FEFECE" filter="url(#f6cunli)" height="69.9102" style="stroke: #A80036; stroke-width: 1.5;" width="107" x="1423.5" y="1808.832"/><ellipse cx="1438.5" cy="1824.832" fill="#9197DB" rx="11" ry="11" style="stroke: #A80036; stroke-width: 1.0;"/><path d="M1436.9033,1826.2041 L1436.9033,1829.873 L1438.5303,1829.873 Q1439.7007,1829.873 1440.1697,1829.4746 Q1440.6387,1829.0762 1440.6387,1828.0884 Q1440.6387,1827.084 1440.1489,1826.644 Q1439.6592,1826.2041 1438.5303,1826.2041 Z M1436.9033,1821.373 L1436.9033,1824.2534 L1438.5303,1824.2534 Q1439.46,1824.2534 1439.8542,1823.9214 Q1440.2485,1823.5894 1440.2485,1822.8257 Q1440.2485,1822.062 1439.8459,1821.7175 Q1439.4434,1821.373 1438.5303,1821.373 Z M1434.5376,1819.4224 L1438.5303,1819.4224 Q1440.5972,1819.4224 1441.6389,1820.2068 Q1442.6807,1820.9912 1442.6807,1822.5518 Q1442.6807,1823.7471 1442.0664,1824.4194 Q1441.4521,1825.0918 1440.2651,1825.1997 Q1441.6846,1825.3408 1442.4026,1826.1543 Q1443.1206,1826.9678 1443.1206,1828.4287 Q1443.1206,1830.2217 1442.0415,1831.0269 Q1440.9624,1831.832 1438.5303,1831.832 L1434.5376,1831.832 Z "/><text fill="#000000" font-family="sans-serif" font-size="12" lengthAdjust="spacingAndGlyphs" textLength="75" x="1452.5" y="1829.3672">TaskOfOrder</text><line style="stroke: #A80036; stroke-width: 1.5;" x1="1424.5" x2="1529.5" y1="1840.832" y2="1840.832"/><text fill="#000000" font-family="sans-serif" font-size="11" lengthAdjust="spacingAndGlyphs" textLength="69" x="1429.5" y="1872.4219">confirmQty()</text><line style="stroke: #A80036; stroke-width: 1.5;" x1="1424.5" x2="1466" y1="1855.3096" y2="1855.3096"/><text fill="#000000" font-family="sans-serif" font-size="11" lengthAdjust="spacingAndGlyphs" textLength="22" x="1466" y="1858.9668">行为</text><line style="stroke: #A80036; stroke-width: 1.5;" x1="1488" x2="1529.5" y1="1855.3096" y2="1855.3096"/><!--class TaskOfSku--><rect fill="#FEFECE" filter="url(#f6cunli)" height="69.9102" style="stroke: #A80036; stroke-width: 1.5;" width="93" x="1430.5" y="1913.832"/><ellipse cx="1445.5" cy="1929.832" fill="#9197DB" rx="11" ry="11" style="stroke: #A80036; stroke-width: 1.0;"/><path d="M1443.9033,1931.2041 L1443.9033,1934.873 L1445.5303,1934.873 Q1446.7007,1934.873 1447.1697,1934.4746 Q1447.6387,1934.0762 1447.6387,1933.0884 Q1447.6387,1932.084 1447.1489,1931.644 Q1446.6592,1931.2041 1445.5303,1931.2041 Z M1443.9033,1926.373 L1443.9033,1929.2534 L1445.5303,1929.2534 Q1446.46,1929.2534 1446.8542,1928.9214 Q1447.2485,1928.5894 1447.2485,1927.8257 Q1447.2485,1927.062 1446.8459,1926.7175 Q1446.4434,1926.373 1445.5303,1926.373 Z M1441.5376,1924.4224 L1445.5303,1924.4224 Q1447.5972,1924.4224 1448.6389,1925.2068 Q1449.6807,1925.9912 1449.6807,1927.5518 Q1449.6807,1928.7471 1449.0664,1929.4194 Q1448.4521,1930.0918 1447.2651,1930.1997 Q1448.6846,1930.3408 1449.4026,1931.1543 Q1450.1206,1931.9678 1450.1206,1933.4287 Q1450.1206,1935.2217 1449.0415,1936.0269 Q1447.9624,1936.832 1445.5303,1936.832 L1441.5376,1936.832 Z "/><text fill="#000000" font-family="sans-serif" font-size="12" lengthAdjust="spacingAndGlyphs" textLength="61" x="1459.5" y="1934.3672">TaskOfSku</text><line style="stroke: #A80036; stroke-width: 1.5;" x1="1431.5" x2="1522.5" y1="1945.832" y2="1945.832"/><text fill="#000000" font-family="sans-serif" font-size="11" lengthAdjust="spacingAndGlyphs" textLength="69" x="1436.5" y="1977.4219">confirmQty()</text><line style="stroke: #A80036; stroke-width: 1.5;" x1="1431.5" x2="1466" y1="1960.3096" y2="1960.3096"/><text fill="#000000" font-family="sans-serif" font-size="11" lengthAdjust="spacingAndGlyphs" textLength="22" x="1466" y="1963.9668">行为</text><line style="stroke: #A80036; stroke-width: 1.5;" x1="1488" x2="1522.5" y1="1960.3096" y2="1960.3096"/><!--class OrderLineManifest--><rect fill="#FEFECE" filter="url(#f6cunli)" height="69.9102" style="stroke: #A80036; stroke-width: 1.5;" width="137" x="1409" y="2099.832"/><ellipse cx="1424" cy="2115.832" fill="#ADD1B2" rx="11" ry="11" style="stroke: #A80036; stroke-width: 1.0;"/><path d="M1426.4731,2121.9751 Q1425.8921,2122.2739 1425.2529,2122.4233 Q1424.6138,2122.5728 1423.9082,2122.5728 Q1421.4014,2122.5728 1420.0815,2120.9209 Q1418.7617,2119.269 1418.7617,2116.1479 Q1418.7617,2113.0186 1420.0815,2111.3667 Q1421.4014,2109.7148 1423.9082,2109.7148 Q1424.6138,2109.7148 1425.2612,2109.8643 Q1425.9087,2110.0137 1426.4731,2110.3125 L1426.4731,2113.0352 Q1425.8423,2112.4541 1425.2488,2112.1843 Q1424.6553,2111.9146 1424.0244,2111.9146 Q1422.6797,2111.9146 1421.9949,2112.9812 Q1421.3101,2114.0479 1421.3101,2116.1479 Q1421.3101,2118.2397 1421.9949,2119.3064 Q1422.6797,2120.373 1424.0244,2120.373 Q1424.6553,2120.373 1425.2488,2120.1033 Q1425.8423,2119.8335 1426.4731,2119.2524 Z "/><text fill="#000000" font-family="sans-serif" font-size="12" lengthAdjust="spacingAndGlyphs" textLength="105" x="1438" y="2120.3672">OrderLineManifest</text><line style="stroke: #A80036; stroke-width: 1.5;" x1="1410" x2="1545" y1="2131.832" y2="2131.832"/><text fill="#000000" font-family="sans-serif" font-size="11" lengthAdjust="spacingAndGlyphs" textLength="19" x="1415" y="2163.4219">sku</text><line style="stroke: #A80036; stroke-width: 1.5;" x1="1410" x2="1451" y1="2146.3096" y2="2146.3096"/><text fill="#000000" font-family="sans-serif" font-size="11" lengthAdjust="spacingAndGlyphs" textLength="53" x="1451" y="2149.9668">Structural</text><line style="stroke: #A80036; stroke-width: 1.5;" x1="1504" x2="1545" y1="2146.3096" y2="2146.3096"/><!--class OrderManifest--><rect fill="#FEFECE" filter="url(#f6cunli)" height="48" style="stroke: #A80036; stroke-width: 1.5;" width="114" x="830" y="2110.832"/><ellipse cx="845" cy="2126.832" fill="#9197DB" rx="11" ry="11" style="stroke: #A80036; stroke-width: 1.0;"/><path d="M843.4033,2128.2041 L843.4033,2131.873 L845.0303,2131.873 Q846.2007,2131.873 846.6697,2131.4746 Q847.1387,2131.0762 847.1387,2130.0884 Q847.1387,2129.084 846.6489,2128.644 Q846.1592,2128.2041 845.0303,2128.2041 Z M843.4033,2123.373 L843.4033,2126.2534 L845.0303,2126.2534 Q845.96,2126.2534 846.3542,2125.9214 Q846.7485,2125.5894 846.7485,2124.8257 Q846.7485,2124.062 846.3459,2123.7175 Q845.9434,2123.373 845.0303,2123.373 Z M841.0376,2121.4224 L845.0303,2121.4224 Q847.0972,2121.4224 848.1389,2122.2068 Q849.1807,2122.9912 849.1807,2124.5518 Q849.1807,2125.7471 848.5664,2126.4194 Q847.9521,2127.0918 846.7651,2127.1997 Q848.1846,2127.3408 848.9026,2128.1543 Q849.6206,2128.9678 849.6206,2130.4287 Q849.6206,2132.2217 848.5415,2133.0269 Q847.4624,2133.832 845.0303,2133.832 L841.0376,2133.832 Z "/><text fill="#000000" font-family="sans-serif" font-size="12" lengthAdjust="spacingAndGlyphs" textLength="82" x="859" y="2131.3672">OrderManifest</text><line style="stroke: #A80036; stroke-width: 1.5;" x1="831" x2="943" y1="2142.832" y2="2142.832"/><line style="stroke: #A80036; stroke-width: 1.5;" x1="831" x2="943" y1="2150.832" y2="2150.832"/><!--class ShippingManifest--><rect fill="#FEFECE" filter="url(#f6cunli)" height="99.8203" style="stroke: #A80036; stroke-width: 1.5;" width="129" x="297.5" y="2095.832"/><ellipse cx="312.5" cy="2111.832" fill="#FF7700" rx="11" ry="11" style="stroke: #A80036; stroke-width: 1.0;"/><path d="M313.1987,2112.48 Q313.564,2112.5547 313.8337,2112.8245 Q314.1035,2113.0942 314.4937,2113.8745 L316.7349,2118.332 L314.0454,2118.332 L312.5513,2115.2026 Q312.4849,2115.0698 312.377,2114.8374 Q311.7212,2113.4346 310.833,2113.4346 L310.0527,2113.4346 L310.0527,2118.332 L307.604,2118.332 L307.604,2105.939 L311.1401,2105.939 Q313.5308,2105.939 314.5725,2106.7856 Q315.6143,2107.6323 315.6143,2109.5415 Q315.6143,2110.8198 314.9917,2111.5752 Q314.3691,2112.3306 313.1987,2112.48 Z M310.0527,2107.9976 L310.0527,2111.376 L311.2065,2111.376 Q312.2109,2111.376 312.6467,2110.9817 Q313.0825,2110.5874 313.0825,2109.6826 Q313.0825,2108.7778 312.6509,2108.3877 Q312.2192,2107.9976 311.2065,2107.9976 Z "/><text fill="#000000" font-family="sans-serif" font-size="12" lengthAdjust="spacingAndGlyphs" textLength="97" x="326.5" y="2116.3672">ShippingManifest</text><line style="stroke: #A80036; stroke-width: 1.5;" x1="298.5" x2="425.5" y1="2127.832" y2="2127.832"/><text fill="#000000" font-family="sans-serif" font-size="11" lengthAdjust="spacingAndGlyphs" textLength="51" x="303.5" y="2159.4219">carrierNo</text><line style="stroke: #A80036; stroke-width: 1.5;" x1="298.5" x2="335.5" y1="2142.3096" y2="2142.3096"/><text fill="#000000" font-family="sans-serif" font-size="11" lengthAdjust="spacingAndGlyphs" textLength="53" x="335.5" y="2145.9668">Structural</text><line style="stroke: #A80036; stroke-width: 1.5;" x1="388.5" x2="425.5" y1="2142.3096" y2="2142.3096"/><text fill="#000000" font-family="sans-serif" font-size="11" lengthAdjust="spacingAndGlyphs" textLength="38" x="303.5" y="2189.332">extInfo</text><line style="stroke: #A80036; stroke-width: 1.5;" x1="298.5" x2="337.5" y1="2172.2197" y2="2172.2197"/><text fill="#000000" font-family="sans-serif" font-size="11" lengthAdjust="spacingAndGlyphs" textLength="49" x="337.5" y="2175.877">Reserved</text><line style="stroke: #A80036; stroke-width: 1.5;" x1="386.5" x2="425.5" y1="2172.2197" y2="2172.2197"/><!--class ManualCheckAppService--><rect fill="#FEFECE" filter="url(#f6cunli)" height="125.7305" style="stroke: #A80036; stroke-width: 1.5;" width="647" x="38" y="110.832"/><ellipse cx="287.25" cy="126.832" fill="#ADD1B2" rx="11" ry="11" style="stroke: #A80036; stroke-width: 1.0;"/><path d="M289.7231,132.9751 Q289.1421,133.2739 288.5029,133.4233 Q287.8638,133.5728 287.1582,133.5728 Q284.6514,133.5728 283.3315,131.9209 Q282.0117,130.269 282.0117,127.1479 Q282.0117,124.0186 283.3315,122.3667 Q284.6514,120.7148 287.1582,120.7148 Q287.8638,120.7148 288.5112,120.8643 Q289.1587,121.0137 289.7231,121.3125 L289.7231,124.0352 Q289.0923,123.4541 288.4988,123.1843 Q287.9053,122.9146 287.2744,122.9146 Q285.9297,122.9146 285.2449,123.9812 Q284.5601,125.0479 284.5601,127.1479 Q284.5601,129.2397 285.2449,130.3064 Q285.9297,131.373 287.2744,131.373 Q287.9053,131.373 288.4988,131.1033 Q289.0923,130.8335 289.7231,130.2524 Z "/><text fill="#000000" font-family="sans-serif" font-size="12" lengthAdjust="spacingAndGlyphs" textLength="140" x="307.75" y="131.3672">ManualCheckAppService</text><line style="stroke: #A80036; stroke-width: 1.5;" x1="39" x2="684" y1="142.832" y2="142.832"/><line style="stroke: #A80036; stroke-width: 1.5;" x1="39" x2="684" y1="150.832" y2="150.832"/><text fill="#000000" font-family="sans-serif" font-size="11" lengthAdjust="spacingAndGlyphs" textLength="338" x="44" y="165.4668">recommendPlatform(taskNo) 拣货员应该去哪一个复核台进行复核?</text><text fill="#000000" font-family="sans-serif" font-size="11" lengthAdjust="spacingAndGlyphs" textLength="276" x="44" y="178.4219">claimTask(containerNo) 复核员扫描容器领取复核任务.</text><text fill="#000000" font-family="sans-serif" font-size="11" lengthAdjust="spacingAndGlyphs" textLength="273" x="44" y="191.377">checkBySku(qty,skuNo) 复核装箱一体化：按货品维度.</text><text fill="#000000" font-family="sans-serif" font-size="11" lengthAdjust="spacingAndGlyphs" textLength="461" x="44" y="204.332">checkByOrder(orderNo) 把一个出库单的所有货品一次性放到入参指定的纸箱：爆品订单复核</text><text fill="#000000" font-family="sans-serif" font-size="11" lengthAdjust="spacingAndGlyphs" textLength="190" x="44" y="217.2871">recheck(cartonNo,taskNo) 重新复核.</text><text fill="#000000" font-family="sans-serif" font-size="11" lengthAdjust="spacingAndGlyphs" textLength="635" x="44" y="230.2422">fulfillCarton(cartonNo,consumables,orderNo) 复核员把拣货容器的货品放入箱，并使用耗材以便运输安全，该过程发现箱已满.</text><!--class TaskSubmittedConsumer--><rect fill="#FEFECE" filter="url(#f6cunli)" height="60.9551" style="stroke: #A80036; stroke-width: 1.5;" width="176" x="273.5" y="272.332"/><ellipse cx="288.5" cy="288.332" fill="#ADD1B2" rx="11" ry="11" style="stroke: #A80036; stroke-width: 1.0;"/><path d="M290.9731,294.4751 Q290.3921,294.7739 289.7529,294.9233 Q289.1138,295.0728 288.4082,295.0728 Q285.9014,295.0728 284.5815,293.4209 Q283.2617,291.769 283.2617,288.6479 Q283.2617,285.5186 284.5815,283.8667 Q285.9014,282.2148 288.4082,282.2148 Q289.1138,282.2148 289.7612,282.3643 Q290.4087,282.5137 290.9731,282.8125 L290.9731,285.5352 Q290.3423,284.9541 289.7488,284.6843 Q289.1553,284.4146 288.5244,284.4146 Q287.1797,284.4146 286.4949,285.4812 Q285.8101,286.5479 285.8101,288.6479 Q285.8101,290.7397 286.4949,291.8064 Q287.1797,292.873 288.5244,292.873 Q289.1553,292.873 289.7488,292.6033 Q290.3423,292.3335 290.9731,291.7524 Z "/><text fill="#000000" font-family="sans-serif" font-size="12" lengthAdjust="spacingAndGlyphs" textLength="144" x="302.5" y="292.8672">TaskSubmittedConsumer</text><line style="stroke: #A80036; stroke-width: 1.5;" x1="274.5" x2="448.5" y1="304.332" y2="304.332"/><line style="stroke: #A80036; stroke-width: 1.5;" x1="274.5" x2="448.5" y1="312.332" y2="312.332"/><text fill="#000000" font-family="sans-serif" font-size="11" lengthAdjust="spacingAndGlyphs" textLength="119" x="279.5" y="326.9668">消费接收复核任务(json)</text><polygon fill="#FFFFFF" filter="url(#f6cunli)" points="288,2271.332,392,2271.332,399,2293.8203,435,2293.8203,435,2324.3086,288,2324.3086,288,2271.332" style="stroke: #000000; stroke-width: 2.0;"/><line style="stroke: #000000; stroke-width: 2.0;" x1="288" x2="399" y1="2293.8203" y2="2293.8203"/><text fill="#000000" font-family="sans-serif" font-size="14" font-weight="bold" lengthAdjust="spacingAndGlyphs" textLength="98" x="292" y="2286.8672">跨聚合复杂流程</text><text fill="#000000" font-family="sans-serif" font-size="14" font-style="italic" lengthAdjust="spacingAndGlyphs" textLength="125" x="303" y="2309.3555">«Orphan Services»</text><path d="M3735.13,1094.812 C3802.35,1083.462 3873.17,1071.512 3929.92,1061.922 " fill="none" style="stroke: #A80036; stroke-width: 1.0;"/><polygon fill="#A80036" points="3722.19,1097.002,3728.7708,1099.9505,3734.0235,1095.01,3727.4427,1092.0615,3722.19,1097.002" style="stroke: #A80036; stroke-width: 1.0;"/><text fill="#000000" font-family="sans-serif" font-size="13" lengthAdjust="spacingAndGlyphs" textLength="49" x="3783" y="1076.4004">HasOne</text><text fill="#000000" font-family="sans-serif" font-size="13" lengthAdjust="spacingAndGlyphs" textLength="8" x="3730.2061" y="1107.4203">1</text><text fill="#000000" font-family="sans-serif" font-size="13" lengthAdjust="spacingAndGlyphs" textLength="8" x="3913.9865" y="1076.2904">1</text><path d="M3688.39,1236.392 C3786.49,1293.342 3902.6,1360.752 3974.79,1402.652 " fill="none" style="stroke: #A80036; stroke-width: 1.0;"/><polygon fill="#A80036" points="3677.13,1229.852,3680.31,1236.3241,3687.5073,1235.878,3684.3273,1229.4059,3677.13,1229.852" style="stroke: #A80036; stroke-width: 1.0;"/><text fill="#000000" font-family="sans-serif" font-size="13" lengthAdjust="spacingAndGlyphs" textLength="57" x="3779" y="1284.4004">HasMany</text><text fill="#000000" font-family="sans-serif" font-size="13" lengthAdjust="spacingAndGlyphs" textLength="8" x="3682.722" y="1251.0964">1</text><text fill="#000000" font-family="sans-serif" font-size="13" lengthAdjust="spacingAndGlyphs" textLength="10" x="3957.0855" y="1411.8665">N</text><path d="M3735.11,1177.602 C3819.31,1194.342 3909.16,1212.212 3969.93,1224.302 " fill="none" style="stroke: #A80036; stroke-width: 1.0;"/><polygon fill="#FFFFFF" points="3722.19,1175.032,3727.2923,1180.1278,3733.9585,1177.3778,3728.8562,1172.2821,3722.19,1175.032" style="stroke: #A80036; stroke-width: 1.0;"/><text fill="#000000" font-family="sans-serif" font-size="13" lengthAdjust="spacingAndGlyphs" textLength="61" x="3777" y="1182.4004">Associate</text><path d="M3735.21,1142.552 C3818.36,1146.142 3907,1149.962 3967.7,1152.582 " fill="none" style="stroke: #A80036; stroke-width: 1.0;"/><polygon fill="#FFFFFF" points="3722.19,1141.992,3728.013,1146.2455,3734.179,1142.5064,3728.3559,1138.2529,3722.19,1141.992" style="stroke: #A80036; stroke-width: 1.0;"/><text fill="#000000" font-family="sans-serif" font-size="13" lengthAdjust="spacingAndGlyphs" textLength="61" x="3777" y="1141.4004">Associate</text><path d="M4171.15,1053.282 C4231.11,1058.242 4301.32,1064.062 4355.43,1068.542 " fill="none" style="stroke: #A80036; stroke-width: 1.0;"/><polygon fill="#A80036" points="4158.13,1052.202,4163.78,1056.6829,4170.0892,1053.1909,4164.4392,1048.7101,4158.13,1052.202" style="stroke: #A80036; stroke-width: 1.0;"/><text fill="#000000" font-family="sans-serif" font-size="13" lengthAdjust="spacingAndGlyphs" textLength="57" x="4242.5" y="1056.4004">HasMany</text><text fill="#000000" font-family="sans-serif" font-size="13" lengthAdjust="spacingAndGlyphs" textLength="8" x="4166.3053" y="1067.2776">1</text><text fill="#000000" font-family="sans-serif" font-size="13" lengthAdjust="spacingAndGlyphs" textLength="10" x="4337.3888" y="1081.1419">N</text><path d="M3015.63,1121.432 C3080.7,1122.942 3181.88,1125.282 3275.64,1127.452 " fill="none" style="stroke: #A80036; stroke-width: 1.0;"/><polygon fill="none" points="3276,1120.462,3295.84,1127.922,3275.68,1134.452,3276,1120.462" style="stroke: #A80036; stroke-width: 1.0;"/><text fill="#000000" font-family="sans-serif" font-size="13" lengthAdjust="spacingAndGlyphs" textLength="69" x="3172" y="1122.4004">Contextual</text><path d="M3052.91,578.152 C3163.78,579.532 3334.71,581.662 3432.79,582.882 " fill="none" style="stroke: #A80036; stroke-width: 1.0;"/><polygon fill="#A80036" points="3039.7,577.992,3045.6467,582.0708,3051.699,578.1503,3045.7522,574.0715,3039.7,577.992" style="stroke: #A80036; stroke-width: 1.0;"/><text fill="#000000" font-family="sans-serif" font-size="13" lengthAdjust="spacingAndGlyphs" textLength="49" x="3182" y="576.4004">HasOne</text><text fill="#000000" font-family="sans-serif" font-size="13" lengthAdjust="spacingAndGlyphs" textLength="8" x="3047.7669" y="592.0539">1</text><text fill="#000000" font-family="sans-serif" font-size="13" lengthAdjust="spacingAndGlyphs" textLength="8" x="3417.0973" y="596.0895">1</text><path d="M4074.63,651.882 C4136.82,723.362 4282.54,890.832 4371.08,992.592 " fill="none" style="stroke: #A80036; stroke-width: 1.0;"/><polygon fill="none" points="4376.39,988.042,4384.24,1007.722,4365.83,997.232,4376.39,988.042" style="stroke: #A80036; stroke-width: 1.0;"/><text fill="#000000" font-family="sans-serif" font-size="13" lengthAdjust="spacingAndGlyphs" textLength="58" x="4242" y="843.4004">BelongTo</text><path d="M3599.38,589.482 C3706.06,596.302 3882.91,607.602 3977.9,613.672 " fill="none" style="stroke: #A80036; stroke-width: 1.0;"/><polygon fill="#A80036" points="3586.09,588.632,3591.8228,593.0064,3598.0656,589.397,3592.3328,585.0226,3586.09,588.632" style="stroke: #A80036; stroke-width: 1.0;"/><text fill="#000000" font-family="sans-serif" font-size="13" lengthAdjust="spacingAndGlyphs" textLength="57" x="3779" y="597.4004">HasMany</text><text fill="#000000" font-family="sans-serif" font-size="13" lengthAdjust="spacingAndGlyphs" textLength="8" x="3593.9691" y="603.925">1</text><text fill="#000000" font-family="sans-serif" font-size="13" lengthAdjust="spacingAndGlyphs" textLength="10" x="3960.1234" y="626.6276">N</text><path d="M2229.98,1198.092 C2306.92,1197.722 2394.16,1197.302 2446.59,1197.062 " fill="none" style="stroke: #A80036; stroke-width: 1.0;"/><polygon fill="#A80036" points="2216.74,1198.152,2222.7575,1202.1256,2228.7399,1198.0993,2222.7224,1194.1257,2216.74,1198.152" style="stroke: #A80036; stroke-width: 1.0;"/><text fill="#000000" font-family="sans-serif" font-size="13" lengthAdjust="spacingAndGlyphs" textLength="57" x="2271" y="1194.4004">HasMany</text><text fill="#000000" font-family="sans-serif" font-size="13" lengthAdjust="spacingAndGlyphs" textLength="8" x="2224.1334" y="1211.4882">1</text><text fill="#000000" font-family="sans-serif" font-size="13" lengthAdjust="spacingAndGlyphs" textLength="10" x="2429.1495" y="1210.7582">N</text><path d="M2146.93,1053.942 C2222.46,1043.912 2338.9,1028.442 2415.77,1018.222 " fill="none" style="stroke: #A80036; stroke-width: 1.0;"/><polygon fill="#A80036" points="2133.79,1055.692,2140.2646,1058.8668,2145.6854,1054.1112,2139.2108,1050.9365,2133.79,1055.692" style="stroke: #A80036; stroke-width: 1.0;"/><text fill="#000000" font-family="sans-serif" font-size="13" lengthAdjust="spacingAndGlyphs" textLength="57" x="2271" y="1027.4004">HasMany</text><text fill="#000000" font-family="sans-serif" font-size="13" lengthAdjust="spacingAndGlyphs" textLength="8" x="2141.4554" y="1068.1301">1</text><text fill="#000000" font-family="sans-serif" font-size="13" lengthAdjust="spacingAndGlyphs" textLength="10" x="2398.0511" y="1032.4622">N</text><path d="M2573.1,979.472 C2655.64,949.102 2785.81,901.212 2868.09,870.942 " fill="none" style="stroke: #A80036; stroke-width: 1.0;"/><polygon fill="none" points="2865.72,864.352,2886.91,864.022,2870.55,877.492,2865.72,864.352" style="stroke: #A80036; stroke-width: 1.0;"/><text fill="#000000" font-family="sans-serif" font-size="13" lengthAdjust="spacingAndGlyphs" textLength="50" x="2663.5" y="927.4004">Extends</text><path d="M1606.62,1247.912 C1731.96,1383.532 1917.62,1584.422 2011.52,1686.022 " fill="none" style="stroke: #A80036; stroke-width: 1.0;"/><polygon fill="none" points="2016.81,1681.422,2025.24,1700.862,2006.52,1690.922,2016.81,1681.422" style="stroke: #A80036; stroke-width: 1.0;"/><text fill="#000000" font-family="sans-serif" font-size="13" lengthAdjust="spacingAndGlyphs" textLength="58" x="1776" y="1388.4004">BelongTo</text><path d="M1658.07,992.362 C1832.17,878.172 2070.5,721.832 2070.5,721.832 C2070.5,721.832 2070.5,721.832 2946.5,721.832 C2946.5,721.832 3141,773.832 3141,773.832 C3141,773.832 3285.47,915.152 3393.12,1020.462 " fill="none" style="stroke: #A80036; stroke-width: 1.0;"/><polygon fill="none" points="3398.31,1015.742,3407.72,1034.732,3388.52,1025.752,3398.31,1015.742" style="stroke: #A80036; stroke-width: 1.0;"/><text fill="#000000" font-family="sans-serif" font-size="13" lengthAdjust="spacingAndGlyphs" textLength="58" x="2465" y="718.4004">BelongTo</text><path d="M1658.2,1064.182 C1773.92,1034.712 1903,1001.832 1903,1001.832 C1903,1001.832 1971,985.192 2020.35,973.112 " fill="none" style="stroke: #A80036; stroke-width: 1.0;"/><polygon fill="none" points="2018.69,966.312,2039.78,968.352,2022.02,979.902,2018.69,966.312" style="stroke: #A80036; stroke-width: 1.0;"/><text fill="#000000" font-family="sans-serif" font-size="13" lengthAdjust="spacingAndGlyphs" textLength="134" x="1738" y="1008.4004">BelongTo/Contextual</text><path d="M1671.37,1138.732 C1754.65,1151.242 1850.47,1165.632 1927.46,1177.192 " fill="none" style="stroke: #A80036; stroke-width: 1.0;"/><polygon fill="#A80036" points="1658.38,1136.772,1663.7203,1141.6178,1670.2472,1138.5521,1664.907,1133.7063,1658.38,1136.772" style="stroke: #A80036; stroke-width: 1.0;"/><text fill="#000000" font-family="sans-serif" font-size="13" lengthAdjust="spacingAndGlyphs" textLength="49" x="1780.5" y="1146.4004">HasOne</text><text fill="#000000" font-family="sans-serif" font-size="13" lengthAdjust="spacingAndGlyphs" textLength="8" x="1666.1334" y="1152.4417">1</text><text fill="#000000" font-family="sans-serif" font-size="13" lengthAdjust="spacingAndGlyphs" textLength="8" x="1911.3367" y="1188.9981">1</text><path d="M1671.13,1094.892 C1788.14,1085.792 1929.94,1074.762 2009.21,1068.602 " fill="none" style="stroke: #A80036; stroke-width: 1.0;"/><polygon fill="#A80036" points="1658.07,1095.902,1664.3639,1099.4216,1670.0334,1094.9655,1663.7395,1091.446,1658.07,1095.902" style="stroke: #A80036; stroke-width: 1.0;"/><text fill="#000000" font-family="sans-serif" font-size="13" lengthAdjust="spacingAndGlyphs" textLength="49" x="1780.5" y="1077.4004">HasOne</text><text fill="#000000" font-family="sans-serif" font-size="13" lengthAdjust="spacingAndGlyphs" textLength="8" x="1665.7958" y="1107.9317">1</text><text fill="#000000" font-family="sans-serif" font-size="13" lengthAdjust="spacingAndGlyphs" textLength="8" x="1993.5452" y="1082.6071">1</text><path d="M4111.14,1641.762 C4151.43,1595.952 4195.5,1545.832 4195.5,1545.832 C4195.5,1545.832 4327.02,1296.572 4398.51,1161.092 " fill="none" style="stroke: #A80036; stroke-width: 1.0;"/><polygon fill="none" points="4392.44,1157.592,4407.97,1143.172,4404.83,1164.122,4392.44,1157.592" style="stroke: #A80036; stroke-width: 1.0;"/><text fill="#000000" font-family="sans-serif" font-size="13" lengthAdjust="spacingAndGlyphs" textLength="58" x="4242" y="1350.4004">BelongTo</text><path d="M1530.58,1835.492 C1639.05,1818.282 1887.37,1778.882 2005.61,1760.122 " fill="none" style="stroke: #A80036; stroke-width: 1.0;"/><polygon fill="none" points="2004.59,1753.202,2025.44,1756.982,2006.79,1767.032,2004.59,1753.202" style="stroke: #A80036; stroke-width: 1.0;"/><text fill="#000000" font-family="sans-serif" font-size="13" lengthAdjust="spacingAndGlyphs" textLength="69" x="1770.5" y="1780.4004">Contextual</text><path d="M3621.49,1730.072 C3717.32,1726.842 3854.16,1722.232 3945.89,1719.142 " fill="none" style="stroke: #A80036; stroke-width: 1.0;"/><polygon fill="#A80036" points="3608.25,1730.522,3614.3827,1734.3154,3620.243,1730.1135,3614.1103,1726.3201,3608.25,1730.522" style="stroke: #A80036; stroke-width: 1.0;"/><text fill="#000000" font-family="sans-serif" font-size="13" lengthAdjust="spacingAndGlyphs" textLength="57" x="3779" y="1720.4004">HasMany</text><text fill="#000000" font-family="sans-serif" font-size="13" lengthAdjust="spacingAndGlyphs" textLength="8" x="3616.0258" y="1743.825">1</text><text fill="#000000" font-family="sans-serif" font-size="13" lengthAdjust="spacingAndGlyphs" textLength="10" x="3927.9574" y="1732.5135">N</text><path d="M3028.82,1736.392 C3129.78,1735.852 3301.84,1734.932 3409.98,1734.352 " fill="none" style="stroke: #A80036; stroke-width: 1.0;"/><polygon fill="#A80036" points="3015.67,1736.472,3021.6919,1740.439,3027.6698,1736.4061,3021.6479,1732.4391,3015.67,1736.472" style="stroke: #A80036; stroke-width: 1.0;"/><text fill="#000000" font-family="sans-serif" font-size="13" lengthAdjust="spacingAndGlyphs" textLength="49" x="3182" y="1732.4004">HasOne</text><text fill="#000000" font-family="sans-serif" font-size="13" lengthAdjust="spacingAndGlyphs" textLength="8" x="3023.6771" y="1750.8081">1</text><text fill="#000000" font-family="sans-serif" font-size="13" lengthAdjust="spacingAndGlyphs" textLength="8" x="3394.0925" y="1747.5532">1</text><path d="M1523.52,1938.302 C1590.3,1922.842 1707,1895.832 1707,1895.832 C1707,1895.832 1902.24,1817.412 2006.54,1775.522 " fill="none" style="stroke: #A80036; stroke-width: 1.0;"/><polygon fill="none" points="2004.03,1768.982,2025.2,1768.032,2009.25,1781.982,2004.03,1768.982" style="stroke: #A80036; stroke-width: 1.0;"/><text fill="#000000" font-family="sans-serif" font-size="13" lengthAdjust="spacingAndGlyphs" textLength="69" x="1770.5" y="1828.4004">Contextual</text><path d="M2130.69,1748.582 C2195.6,1747.202 2302.05,1744.922 2382.82,1743.192 " fill="none" style="stroke: #A80036; stroke-width: 1.0;"/><polygon fill="#A80036" points="2117.5,1748.872,2123.5864,1752.7392,2129.4971,1748.6084,2123.4107,1744.7412,2117.5,1748.872" style="stroke: #A80036; stroke-width: 1.0;"/><text fill="#000000" font-family="sans-serif" font-size="13" lengthAdjust="spacingAndGlyphs" textLength="49" x="2275" y="1741.4004">HasOne</text><text fill="#000000" font-family="sans-serif" font-size="13" lengthAdjust="spacingAndGlyphs" textLength="8" x="2125.5125" y="1763.9937">1</text><text fill="#000000" font-family="sans-serif" font-size="13" lengthAdjust="spacingAndGlyphs" textLength="8" x="2367.0813" y="1756.4423">1</text><path d="M1541.13,1749.832 C1654.28,1749.832 1890.48,1749.832 2005.19,1749.832 " fill="none" style="stroke: #A80036; stroke-width: 1.0;"/><polygon fill="none" points="2005.47,1742.832,2025.47,1749.832,2005.47,1756.832,2005.47,1742.832" style="stroke: #A80036; stroke-width: 1.0;"/><text fill="#000000" font-family="sans-serif" font-size="13" lengthAdjust="spacingAndGlyphs" textLength="69" x="1770.5" y="1746.4004">Contextual</text><path d="M2618.32,1739.742 C2701.36,1739.002 2807.83,1738.052 2876.36,1737.442 " fill="none" style="stroke: #A80036; stroke-width: 1.0;"/><polygon fill="#A80036" points="2605.2,1739.852,2611.2349,1743.7991,2617.1995,1739.7465,2611.1646,1735.7994,2605.2,1739.852" style="stroke: #A80036; stroke-width: 1.0;"/><text fill="#000000" font-family="sans-serif" font-size="13" lengthAdjust="spacingAndGlyphs" textLength="57" x="2660" y="1736.4004">HasMany</text><text fill="#000000" font-family="sans-serif" font-size="13" lengthAdjust="spacingAndGlyphs" textLength="8" x="2612.945" y="1753.4206">1</text><text fill="#000000" font-family="sans-serif" font-size="13" lengthAdjust="spacingAndGlyphs" textLength="10" x="2858.6628" y="1750.8583">N</text><path d="M957.53,2134.832 C1071.36,2134.832 1296.09,2134.832 1408.95,2134.832 " fill="none" style="stroke: #A80036; stroke-width: 1.0;"/><polygon fill="#A80036" points="944.21,2134.832,950.21,2138.832,956.21,2134.832,950.21,2130.832,944.21,2134.832" style="stroke: #A80036; stroke-width: 1.0;"/><text fill="#000000" font-family="sans-serif" font-size="13" lengthAdjust="spacingAndGlyphs" textLength="215" x="999" y="2131.4004">HasMany/Contextual 包裹明细采集</text><text fill="#000000" font-family="sans-serif" font-size="13" lengthAdjust="spacingAndGlyphs" textLength="8" x="951.8404" y="2149.6491">1</text><text fill="#000000" font-family="sans-serif" font-size="13" lengthAdjust="spacingAndGlyphs" textLength="10" x="1390.9055" y="2148.2426">N</text><path d="M901.98,2110.502 C968.14,1995.372 1252.5,1500.512 1394.98,1252.572 " fill="none" style="stroke: #A80036; stroke-width: 1.0;"/><polygon fill="#A80036" points="1397.48,1248.212,1389.5377,1254.036,1394.9962,1252.5515,1396.4808,1258.0101,1397.48,1248.212" style="stroke: #A80036; stroke-width: 1.0;"/><text fill="#000000" font-family="sans-serif" font-size="13" lengthAdjust="spacingAndGlyphs" textLength="32" x="1090.5" y="1588.4004">From</text><path d="M439.67,2144.232 C545.82,2141.992 735.76,2137.992 829.92,2136.012 " fill="none" style="stroke: #A80036; stroke-width: 1.0;"/><polygon fill="#A80036" points="426.53,2144.502,432.6122,2148.3759,438.5274,2144.2515,432.4452,2140.3777,426.53,2144.502" style="stroke: #A80036; stroke-width: 1.0;"/><text fill="#000000" font-family="sans-serif" font-size="13" lengthAdjust="spacingAndGlyphs" textLength="57" x="718" y="2134.4004">HasMany</text><text fill="#000000" font-family="sans-serif" font-size="13" lengthAdjust="spacingAndGlyphs" textLength="8" x="434.7974" y="2158.7945">1</text><text fill="#000000" font-family="sans-serif" font-size="13" lengthAdjust="spacingAndGlyphs" textLength="10" x="811.966" y="2149.7124">N</text><text fill="#888888" font-family="sans-serif" font-size="10" lengthAdjust="spacingAndGlyphs" textLength="108" x="2261" y="2344">generated by DDDplus</text></g></svg>