<?xml version="1.0" encoding="UTF-8" standalone="no"?><svg xmlns="http://www.w3.org/2000/svg" xmlns:xlink="http://www.w3.org/1999/xlink" contentScriptType="application/ecmascript" contentStyleType="text/css" height="2105px" preserveAspectRatio="none" style="width:3386px;height:2105px;" version="1.1" viewBox="0 0 3386 2105" width="3386px" zoomAndPan="magnify"><defs><filter height="300%" id="flz2udp" width="300%" x="-1" y="-1"><feGaussianBlur result="blurOut" stdDeviation="2.0"/><feColorMatrix in="blurOut" result="blurOut2" type="matrix" values="0 0 0 0 0 0 0 0 0 0 0 0 0 0 0 0 0 0 .4 0"/><feOffset dx="4.0" dy="4.0" in="blurOut2" result="blurOut3"/><feBlend in="SourceGraphic" in2="blurOut3" mode="normal"/></filter></defs><g><text fill="#888888" font-family="sans-serif" font-size="10" lengthAdjust="spacingAndGlyphs" textLength="182" x="3203" y="9.668">公共类：44，标注：25，覆盖率：56.8%</text><text fill="#888888" font-family="sans-serif" font-size="10" lengthAdjust="spacingAndGlyphs" textLength="192" x="3193" y="21.4453">公共方法：76，标注：31，覆盖率：40.8%</text><text fill="#888888" font-family="sans-serif" font-size="10" lengthAdjust="spacingAndGlyphs" textLength="198" x="3187" y="33.2227">字段属性：139，标注：35，覆盖率：25.2%</text><!--cluster 业务模型--><polygon fill="#FFFFFF" filter="url(#flz2udp)" points="191,539.332,253,539.332,260,561.8203,3351,561.8203,3351,2068.332,191,2068.332,191,539.332" style="stroke: #000000; stroke-width: 2.0;"/><line style="stroke: #000000; stroke-width: 2.0;" x1="191" x2="260" y1="561.8203" y2="561.8203"/><text fill="#000000" font-family="sans-serif" font-size="14" font-weight="bold" lengthAdjust="spacingAndGlyphs" textLength="56" x="195" y="554.8672">业务模型</text><!--cluster Aggregate：客户出库单--><polygon fill="#FFFFFF" filter="url(#flz2udp)" points="2094,1158.332,2257,1158.332,2264,1180.8203,3327,1180.8203,3327,1548.332,2094,1548.332,2094,1158.332" style="stroke: #000000; stroke-width: 2.0;"/><line style="stroke: #000000; stroke-width: 2.0;" x1="2094" x2="2264" y1="1180.8203" y2="1180.8203"/><text fill="#000000" font-family="sans-serif" font-size="14" font-weight="bold" lengthAdjust="spacingAndGlyphs" textLength="157" x="2098" y="1173.8672">Aggregate：客户出库单</text><text fill="#000000" font-family="sans-serif" font-size="14" font-style="italic" lengthAdjust="spacingAndGlyphs" textLength="277" x="2576" y="1196.3555">«ddd.plus.showcase.wms.domain.order»</text><!--cluster Aggregate：包裹--><polygon fill="#FFFFFF" filter="url(#flz2udp)" points="2655.5,891.332,2776.5,891.332,2783.5,913.8203,2942.5,913.8203,2942.5,1134.332,2655.5,1134.332,2655.5,891.332" style="stroke: #000000; stroke-width: 2.0;"/><line style="stroke: #000000; stroke-width: 2.0;" x1="2655.5" x2="2783.5" y1="913.8203" y2="913.8203"/><text fill="#000000" font-family="sans-serif" font-size="14" font-weight="bold" lengthAdjust="spacingAndGlyphs" textLength="115" x="2659.5" y="906.8672">Aggregate：包裹</text><text fill="#000000" font-family="sans-serif" font-size="14" font-style="italic" lengthAdjust="spacingAndGlyphs" textLength="271" x="2667.5" y="929.3555">«ddd.plus.showcase.wms.domain.pack»</text><!--cluster Aggregate：复核报差异--><polygon fill="#FFFFFF" filter="url(#flz2udp)" points="1674,582.332,1837,582.332,1844,604.8203,2905,604.8203,2905,867.332,1674,867.332,1674,582.332" style="stroke: #000000; stroke-width: 2.0;"/><line style="stroke: #000000; stroke-width: 2.0;" x1="1674" x2="1844" y1="604.8203" y2="604.8203"/><text fill="#000000" font-family="sans-serif" font-size="14" font-weight="bold" lengthAdjust="spacingAndGlyphs" textLength="157" x="1678" y="597.8672">Aggregate：复核报差异</text><text fill="#000000" font-family="sans-serif" font-size="14" font-style="italic" lengthAdjust="spacingAndGlyphs" textLength="262" x="2162.5" y="620.3555">«ddd.plus.showcase.wms.domain.diff»</text><!--cluster Aggregate：装箱--><polygon fill="#FFFFFF" filter="url(#flz2udp)" points="281.5,1009.332,402.5,1009.332,409.5,1031.8203,1478.5,1031.8203,1478.5,1392.332,281.5,1392.332,281.5,1009.332" style="stroke: #000000; stroke-width: 2.0;"/><line style="stroke: #000000; stroke-width: 2.0;" x1="281.5" x2="409.5" y1="1031.8203" y2="1031.8203"/><text fill="#000000" font-family="sans-serif" font-size="14" font-weight="bold" lengthAdjust="spacingAndGlyphs" textLength="115" x="285.5" y="1024.8672">Aggregate：装箱</text><text fill="#000000" font-family="sans-serif" font-size="14" font-style="italic" lengthAdjust="spacingAndGlyphs" textLength="283" x="742.5" y="1047.3555">«ddd.plus.showcase.wms.domain.carton»</text><!--cluster Aggregate：通用子域--><polygon fill="#FFFFFF" filter="url(#flz2udp)" points="1650.5,1015.332,1799.5,1015.332,1806.5,1037.8203,1965.5,1037.8203,1965.5,1188.332,1650.5,1188.332,1650.5,1015.332" style="stroke: #000000; stroke-width: 2.0;"/><line style="stroke: #000000; stroke-width: 2.0;" x1="1650.5" x2="1806.5" y1="1037.8203" y2="1037.8203"/><text fill="#000000" font-family="sans-serif" font-size="14" font-weight="bold" lengthAdjust="spacingAndGlyphs" textLength="143" x="1654.5" y="1030.8672">Aggregate：通用子域</text><text fill="#000000" font-family="sans-serif" font-size="14" font-style="italic" lengthAdjust="spacingAndGlyphs" textLength="299" x="1662.5" y="1053.3555">«ddd.plus.showcase.wms.domain.common»</text><!--cluster Aggregate：出库复核任务--><polygon fill="#FFFFFF" filter="url(#flz2udp)" points="276.5,1572.332,453.5,1572.332,460.5,1594.8203,2937.5,1594.8203,2937.5,1853.332,276.5,1853.332,276.5,1572.332" style="stroke: #000000; stroke-width: 2.0;"/><line style="stroke: #000000; stroke-width: 2.0;" x1="276.5" x2="460.5" y1="1594.8203" y2="1594.8203"/><text fill="#000000" font-family="sans-serif" font-size="14" font-weight="bold" lengthAdjust="spacingAndGlyphs" textLength="171" x="280.5" y="1587.8672">Aggregate：出库复核任务</text><text fill="#000000" font-family="sans-serif" font-size="14" font-style="italic" lengthAdjust="spacingAndGlyphs" textLength="267" x="1477.5" y="1610.3555">«ddd.plus.showcase.wms.domain.task»</text><!--cluster Aggregate：发货--><polygon fill="#FFFFFF" filter="url(#flz2udp)" points="215,1877.332,336,1877.332,343,1899.8203,499,1899.8203,499,2044.332,215,2044.332,215,1877.332" style="stroke: #000000; stroke-width: 2.0;"/><line style="stroke: #000000; stroke-width: 2.0;" x1="215" x2="343" y1="1899.8203" y2="1899.8203"/><text fill="#000000" font-family="sans-serif" font-size="14" font-weight="bold" lengthAdjust="spacingAndGlyphs" textLength="115" x="219" y="1892.8672">Aggregate：发货</text><text fill="#000000" font-family="sans-serif" font-size="14" font-style="italic" lengthAdjust="spacingAndGlyphs" textLength="268" x="227" y="1915.3555">«ddd.plus.showcase.wms.domain.ship»</text><!--cluster 交互--><polygon fill="#FFFFFF" filter="url(#flz2udp)" points="22,212.332,56,212.332,63,234.8203,691,234.8203,691,515.332,22,515.332,22,212.332" style="stroke: #000000; stroke-width: 2.0;"/><line style="stroke: #000000; stroke-width: 2.0;" x1="22" x2="63" y1="234.8203" y2="234.8203"/><text fill="#000000" font-family="sans-serif" font-size="14" font-weight="bold" lengthAdjust="spacingAndGlyphs" textLength="28" x="26" y="227.8672">交互</text><text fill="#000000" font-family="sans-serif" font-size="14" font-style="italic" lengthAdjust="spacingAndGlyphs" textLength="72" x="324.5" y="250.3555">«UseCase»</text><!--cluster 跨聚合复杂流程--><polygon fill="#FFFFFF" filter="url(#flz2udp)" points="232.5,59.332,336.5,59.332,343.5,81.8203,480.5,81.8203,480.5,188.332,232.5,188.332,232.5,59.332" style="stroke: #000000; stroke-width: 2.0;"/><line style="stroke: #000000; stroke-width: 2.0;" x1="232.5" x2="343.5" y1="81.8203" y2="81.8203"/><text fill="#000000" font-family="sans-serif" font-size="14" font-weight="bold" lengthAdjust="spacingAndGlyphs" textLength="98" x="236.5" y="74.8672">跨聚合复杂流程</text><text fill="#000000" font-family="sans-serif" font-size="14" font-style="italic" lengthAdjust="spacingAndGlyphs" textLength="125" x="298" y="97.3555">«Orphan Services»</text><!--class Order--><rect fill="#FEFECE" filter="url(#flz2udp)" height="178.8613" style="stroke: #A80036; stroke-width: 1.5;" width="328" x="2141.5" y="1229.332"/><ellipse cx="2259.25" cy="1248.4648" fill="#FF7700" rx="11" ry="11" style="stroke: #A80036; stroke-width: 1.0;"/><path d="M2259.9487,1249.1128 Q2260.314,1249.1875 2260.5837,1249.4573 Q2260.8535,1249.7271 2261.2437,1250.5073 L2263.4849,1254.9648 L2260.7954,1254.9648 L2259.3013,1251.8354 Q2259.2349,1251.7026 2259.127,1251.4702 Q2258.4712,1250.0674 2257.583,1250.0674 L2256.8027,1250.0674 L2256.8027,1254.9648 L2254.354,1254.9648 L2254.354,1242.5718 L2257.8901,1242.5718 Q2260.2808,1242.5718 2261.3225,1243.4185 Q2262.3643,1244.2651 2262.3643,1246.1743 Q2262.3643,1247.4526 2261.7417,1248.208 Q2261.1191,1248.9634 2259.9487,1249.1128 Z M2256.8027,1244.6304 L2256.8027,1248.0088 L2257.9565,1248.0088 Q2258.9609,1248.0088 2259.3967,1247.6145 Q2259.8325,1247.2202 2259.8325,1246.3154 Q2259.8325,1245.4106 2259.4009,1245.0205 Q2258.9692,1244.6304 2257.9565,1244.6304 Z "/><text fill="#000000" font-family="sans-serif" font-size="12" font-style="italic" lengthAdjust="spacingAndGlyphs" textLength="88" x="2277.75" y="1245.9336">«客户的出库单.»</text><text fill="#000000" font-family="sans-serif" font-size="12" lengthAdjust="spacingAndGlyphs" textLength="34" x="2304.75" y="1260.0664">Order</text><line style="stroke: #A80036; stroke-width: 1.5;" x1="2142.5" x2="2468.5" y1="1267.5977" y2="1267.5977"/><text fill="#000000" font-family="sans-serif" font-size="11" lengthAdjust="spacingAndGlyphs" textLength="160" x="2147.5" y="1299.1875">OrderStatus ProductionStatus</text><line style="stroke: #A80036; stroke-width: 1.5;" x1="2142.5" x2="2282.5" y1="1282.0752" y2="1282.0752"/><text fill="#000000" font-family="sans-serif" font-size="11" lengthAdjust="spacingAndGlyphs" textLength="46" x="2282.5" y="1285.7324">Lifecycle</text><line style="stroke: #A80036; stroke-width: 1.5;" x1="2328.5" x2="2468.5" y1="1282.0752" y2="1282.0752"/><text fill="#000000" font-family="sans-serif" font-size="11" lengthAdjust="spacingAndGlyphs" textLength="89" x="2147.5" y="1329.0977">OrderConstraint</text><line style="stroke: #A80036; stroke-width: 1.5;" x1="2142.5" x2="2274" y1="1311.9854" y2="1311.9854"/><text fill="#000000" font-family="sans-serif" font-size="11" lengthAdjust="spacingAndGlyphs" textLength="63" x="2274" y="1315.6426">Operational</text><line style="stroke: #A80036; stroke-width: 1.5;" x1="2337" x2="2468.5" y1="1311.9854" y2="1311.9854"/><text fill="#000000" font-family="sans-serif" font-size="11" lengthAdjust="spacingAndGlyphs" textLength="316" x="2147.5" y="1359.0078">recommendedPlatformNo() 该订单已经被推荐到哪一个复核台.</text><line style="stroke: #A80036; stroke-width: 1.5;" x1="2142.5" x2="2294.5" y1="1341.8955" y2="1341.8955"/><text fill="#000000" font-family="sans-serif" font-size="11" lengthAdjust="spacingAndGlyphs" textLength="22" x="2294.5" y="1345.5527">规则</text><line style="stroke: #A80036; stroke-width: 1.5;" x1="2316.5" x2="2468.5" y1="1341.8955" y2="1341.8955"/><text fill="#000000" font-family="sans-serif" font-size="11" lengthAdjust="spacingAndGlyphs" textLength="40" x="2147.5" y="1388.918">pause()</text><text fill="#000000" font-family="sans-serif" font-size="11" lengthAdjust="spacingAndGlyphs" textLength="48" x="2147.5" y="1401.873">resume()</text><line style="stroke: #A80036; stroke-width: 1.5;" x1="2142.5" x2="2294.5" y1="1371.8057" y2="1371.8057"/><text fill="#000000" font-family="sans-serif" font-size="11" lengthAdjust="spacingAndGlyphs" textLength="22" x="2294.5" y="1375.4629">行为</text><line style="stroke: #A80036; stroke-width: 1.5;" x1="2316.5" x2="2468.5" y1="1371.8057" y2="1371.8057"/><!--class Order.OrderCartons--><rect fill="#FEFECE" filter="url(#flz2udp)" height="48" style="stroke: #A80036; stroke-width: 1.5;" width="148" x="2725" y="1392.332"/><ellipse cx="2740" cy="1408.332" fill="#9197DB" rx="11" ry="11" style="stroke: #A80036; stroke-width: 1.0;"/><path d="M2738.4033,1409.7041 L2738.4033,1413.373 L2740.0303,1413.373 Q2741.2007,1413.373 2741.6697,1412.9746 Q2742.1387,1412.5762 2742.1387,1411.5884 Q2742.1387,1410.584 2741.6489,1410.144 Q2741.1592,1409.7041 2740.0303,1409.7041 Z M2738.4033,1404.873 L2738.4033,1407.7534 L2740.0303,1407.7534 Q2740.96,1407.7534 2741.3542,1407.4214 Q2741.7485,1407.0894 2741.7485,1406.3257 Q2741.7485,1405.562 2741.3459,1405.2175 Q2740.9434,1404.873 2740.0303,1404.873 Z M2736.0376,1402.9224 L2740.0303,1402.9224 Q2742.0972,1402.9224 2743.1389,1403.7068 Q2744.1807,1404.4912 2744.1807,1406.0518 Q2744.1807,1407.2471 2743.5664,1407.9194 Q2742.9521,1408.5918 2741.7651,1408.6997 Q2743.1846,1408.8408 2743.9026,1409.6543 Q2744.6206,1410.4678 2744.6206,1411.9287 Q2744.6206,1413.7217 2743.5415,1414.5269 Q2742.4624,1415.332 2740.0303,1415.332 L2736.0376,1415.332 Z "/><text fill="#000000" font-family="sans-serif" font-size="12" lengthAdjust="spacingAndGlyphs" textLength="116" x="2754" y="1412.8672">Order.OrderCartons</text><line style="stroke: #A80036; stroke-width: 1.5;" x1="2726" x2="2872" y1="1424.332" y2="1424.332"/><line style="stroke: #A80036; stroke-width: 1.5;" x1="2726" x2="2872" y1="1432.332" y2="1432.332"/><!--class OrderLine--><rect fill="#FEFECE" filter="url(#flz2udp)" height="135.9961" style="stroke: #A80036; stroke-width: 1.5;" width="177" x="3110.5" y="1235.332"/><ellipse cx="3166.25" cy="1254.4648" fill="#ADD1B2" rx="11" ry="11" style="stroke: #A80036; stroke-width: 1.0;"/><path d="M3168.7231,1260.6079 Q3168.1421,1260.9067 3167.5029,1261.0562 Q3166.8638,1261.2056 3166.1582,1261.2056 Q3163.6514,1261.2056 3162.3315,1259.5537 Q3161.0117,1257.9019 3161.0117,1254.7808 Q3161.0117,1251.6514 3162.3315,1249.9995 Q3163.6514,1248.3477 3166.1582,1248.3477 Q3166.8638,1248.3477 3167.5112,1248.4971 Q3168.1587,1248.6465 3168.7231,1248.9453 L3168.7231,1251.668 Q3168.0923,1251.0869 3167.4988,1250.8171 Q3166.9053,1250.5474 3166.2744,1250.5474 Q3164.9297,1250.5474 3164.2449,1251.614 Q3163.5601,1252.6807 3163.5601,1254.7808 Q3163.5601,1256.8726 3164.2449,1257.9392 Q3164.9297,1259.0059 3166.2744,1259.0059 Q3166.9053,1259.0059 3167.4988,1258.7361 Q3168.0923,1258.4663 3168.7231,1257.8853 Z "/><text fill="#000000" font-family="sans-serif" font-size="12" font-style="italic" lengthAdjust="spacingAndGlyphs" textLength="52" x="3189.25" y="1251.9336">«订单行.»</text><text fill="#000000" font-family="sans-serif" font-size="12" lengthAdjust="spacingAndGlyphs" textLength="57" x="3186.75" y="1266.0664">OrderLine</text><line style="stroke: #A80036; stroke-width: 1.5;" x1="3111.5" x2="3286.5" y1="1273.5977" y2="1273.5977"/><text fill="#000000" font-family="sans-serif" font-size="11" lengthAdjust="spacingAndGlyphs" textLength="91" x="3116.5" y="1305.1875">OrderLineNo Sku</text><line style="stroke: #A80036; stroke-width: 1.5;" x1="3111.5" x2="3172.5" y1="1288.0752" y2="1288.0752"/><text fill="#000000" font-family="sans-serif" font-size="11" lengthAdjust="spacingAndGlyphs" textLength="53" x="3172.5" y="1291.7324">Structural</text><line style="stroke: #A80036; stroke-width: 1.5;" x1="3225.5" x2="3286.5" y1="1288.0752" y2="1288.0752"/><text fill="#000000" font-family="sans-serif" font-size="11" lengthAdjust="spacingAndGlyphs" textLength="165" x="3116.5" y="1335.0977">qty/要货量 shortageQty/缺货量</text><line style="stroke: #A80036; stroke-width: 1.5;" x1="3111.5" x2="3176" y1="1317.9854" y2="1317.9854"/><text fill="#000000" font-family="sans-serif" font-size="11" lengthAdjust="spacingAndGlyphs" textLength="46" x="3176" y="1321.6426">Quantity</text><line style="stroke: #A80036; stroke-width: 1.5;" x1="3222" x2="3286.5" y1="1317.9854" y2="1317.9854"/><text fill="#000000" font-family="sans-serif" font-size="11" lengthAdjust="spacingAndGlyphs" textLength="154" x="3116.5" y="1365.0078">expectedQty/要货量-缺货量()</text><line style="stroke: #A80036; stroke-width: 1.5;" x1="3111.5" x2="3188" y1="1347.8955" y2="1347.8955"/><text fill="#000000" font-family="sans-serif" font-size="11" lengthAdjust="spacingAndGlyphs" textLength="22" x="3188" y="1351.5527">规则</text><line style="stroke: #A80036; stroke-width: 1.5;" x1="3210" x2="3286.5" y1="1347.8955" y2="1347.8955"/><!--class OrderLineBag--><rect fill="#FEFECE" filter="url(#flz2udp)" height="69.9102" style="stroke: #A80036; stroke-width: 1.5;" width="228" x="2685" y="1268.332"/><ellipse cx="2755.75" cy="1284.332" fill="#9197DB" rx="11" ry="11" style="stroke: #A80036; stroke-width: 1.0;"/><path d="M2754.1533,1285.7041 L2754.1533,1289.373 L2755.7803,1289.373 Q2756.9507,1289.373 2757.4197,1288.9746 Q2757.8887,1288.5762 2757.8887,1287.5884 Q2757.8887,1286.584 2757.3989,1286.144 Q2756.9092,1285.7041 2755.7803,1285.7041 Z M2754.1533,1280.873 L2754.1533,1283.7534 L2755.7803,1283.7534 Q2756.71,1283.7534 2757.1042,1283.4214 Q2757.4985,1283.0894 2757.4985,1282.3257 Q2757.4985,1281.562 2757.0959,1281.2175 Q2756.6934,1280.873 2755.7803,1280.873 Z M2751.7876,1278.9224 L2755.7803,1278.9224 Q2757.8472,1278.9224 2758.8889,1279.7068 Q2759.9307,1280.4912 2759.9307,1282.0518 Q2759.9307,1283.2471 2759.3164,1283.9194 Q2758.7021,1284.5918 2757.5151,1284.6997 Q2758.9346,1284.8408 2759.6526,1285.6543 Q2760.3706,1286.4678 2760.3706,1287.9287 Q2760.3706,1289.7217 2759.2915,1290.5269 Q2758.2124,1291.332 2755.7803,1291.332 L2751.7876,1291.332 Z "/><text fill="#000000" font-family="sans-serif" font-size="12" lengthAdjust="spacingAndGlyphs" textLength="78" x="2776.25" y="1288.8672">OrderLineBag</text><line style="stroke: #A80036; stroke-width: 1.5;" x1="2686" x2="2912" y1="1300.332" y2="1300.332"/><text fill="#000000" font-family="sans-serif" font-size="11" lengthAdjust="spacingAndGlyphs" textLength="216" x="2691" y="1331.9219">totalExpectedQty() 期望的总装箱货品件数.</text><line style="stroke: #A80036; stroke-width: 1.5;" x1="2686" x2="2788" y1="1314.8096" y2="1314.8096"/><text fill="#000000" font-family="sans-serif" font-size="11" lengthAdjust="spacingAndGlyphs" textLength="22" x="2788" y="1318.4668">规则</text><line style="stroke: #A80036; stroke-width: 1.5;" x1="2810" x2="2912" y1="1314.8096" y2="1314.8096"/><!--class OrderBag--><rect fill="#FEFECE" filter="url(#flz2udp)" height="69.9102" style="stroke: #A80036; stroke-width: 1.5;" width="391" x="2110" y="1462.332"/><ellipse cx="2273.75" cy="1478.332" fill="#9197DB" rx="11" ry="11" style="stroke: #A80036; stroke-width: 1.0;"/><path d="M2272.1533,1479.7041 L2272.1533,1483.373 L2273.7803,1483.373 Q2274.9507,1483.373 2275.4197,1482.9746 Q2275.8887,1482.5762 2275.8887,1481.5884 Q2275.8887,1480.584 2275.3989,1480.144 Q2274.9092,1479.7041 2273.7803,1479.7041 Z M2272.1533,1474.873 L2272.1533,1477.7534 L2273.7803,1477.7534 Q2274.71,1477.7534 2275.1042,1477.4214 Q2275.4985,1477.0894 2275.4985,1476.3257 Q2275.4985,1475.562 2275.0959,1475.2175 Q2274.6934,1474.873 2273.7803,1474.873 Z M2269.7876,1472.9224 L2273.7803,1472.9224 Q2275.8472,1472.9224 2276.8889,1473.7068 Q2277.9307,1474.4912 2277.9307,1476.0518 Q2277.9307,1477.2471 2277.3164,1477.9194 Q2276.7021,1478.5918 2275.5151,1478.6997 Q2276.9346,1478.8408 2277.6526,1479.6543 Q2278.3706,1480.4678 2278.3706,1481.9287 Q2278.3706,1483.7217 2277.2915,1484.5269 Q2276.2124,1485.332 2273.7803,1485.332 L2269.7876,1485.332 Z "/><text fill="#000000" font-family="sans-serif" font-size="12" lengthAdjust="spacingAndGlyphs" textLength="55" x="2294.25" y="1482.8672">OrderBag</text><line style="stroke: #A80036; stroke-width: 1.5;" x1="2111" x2="2500" y1="1494.332" y2="1494.332"/><text fill="#000000" font-family="sans-serif" font-size="11" lengthAdjust="spacingAndGlyphs" textLength="379" x="2116" y="1525.9219">subBagOfCanceled() 当前出库单集合里哪些已经在单据中心里被客户取消了.</text><line style="stroke: #A80036; stroke-width: 1.5;" x1="2111" x2="2294.5" y1="1508.8096" y2="1508.8096"/><text fill="#000000" font-family="sans-serif" font-size="11" lengthAdjust="spacingAndGlyphs" textLength="22" x="2294.5" y="1512.4668">行为</text><line style="stroke: #A80036; stroke-width: 1.5;" x1="2316.5" x2="2500" y1="1508.8096" y2="1508.8096"/><!--class Pack--><rect fill="#FEFECE" filter="url(#flz2udp)" height="135.9961" style="stroke: #A80036; stroke-width: 1.5;" width="139" x="2730" y="963.332"/><ellipse cx="2777.25" cy="982.4648" fill="#FF7700" rx="11" ry="11" style="stroke: #A80036; stroke-width: 1.0;"/><path d="M2777.9487,983.1128 Q2778.314,983.1875 2778.5837,983.4573 Q2778.8535,983.7271 2779.2437,984.5073 L2781.4849,988.9648 L2778.7954,988.9648 L2777.3013,985.8354 Q2777.2349,985.7026 2777.127,985.4702 Q2776.4712,984.0674 2775.583,984.0674 L2774.8027,984.0674 L2774.8027,988.9648 L2772.354,988.9648 L2772.354,976.5718 L2775.8901,976.5718 Q2778.2808,976.5718 2779.3225,977.4185 Q2780.3643,978.2651 2780.3643,980.1743 Q2780.3643,981.4526 2779.7417,982.208 Q2779.1191,982.9634 2777.9487,983.1128 Z M2774.8027,978.6304 L2774.8027,982.0088 L2775.9565,982.0088 Q2776.9609,982.0088 2777.3967,981.6145 Q2777.8325,981.2202 2777.8325,980.3154 Q2777.8325,979.4106 2777.4009,979.0205 Q2776.9692,978.6304 2775.9565,978.6304 Z "/><text fill="#000000" font-family="sans-serif" font-size="12" font-style="italic" lengthAdjust="spacingAndGlyphs" textLength="40" x="2795.75" y="979.9336">«包裹.»</text><text fill="#000000" font-family="sans-serif" font-size="12" lengthAdjust="spacingAndGlyphs" textLength="27" x="2802.25" y="994.0664">Pack</text><line style="stroke: #A80036; stroke-width: 1.5;" x1="2731" x2="2868" y1="1001.5977" y2="1001.5977"/><text fill="#000000" font-family="sans-serif" font-size="11" lengthAdjust="spacingAndGlyphs" textLength="99" x="2736" y="1033.1875">orderNo waybillNo</text><line style="stroke: #A80036; stroke-width: 1.5;" x1="2731" x2="2773" y1="1016.0752" y2="1016.0752"/><text fill="#000000" font-family="sans-serif" font-size="11" lengthAdjust="spacingAndGlyphs" textLength="53" x="2773" y="1019.7324">Structural</text><line style="stroke: #A80036; stroke-width: 1.5;" x1="2826" x2="2868" y1="1016.0752" y2="1016.0752"/><text fill="#000000" font-family="sans-serif" font-size="11" lengthAdjust="spacingAndGlyphs" textLength="57" x="2736" y="1063.0977">PackStatus</text><line style="stroke: #A80036; stroke-width: 1.5;" x1="2731" x2="2776.5" y1="1045.9854" y2="1045.9854"/><text fill="#000000" font-family="sans-serif" font-size="11" lengthAdjust="spacingAndGlyphs" textLength="46" x="2776.5" y="1049.6426">Lifecycle</text><line style="stroke: #A80036; stroke-width: 1.5;" x1="2822.5" x2="2868" y1="1045.9854" y2="1045.9854"/><text fill="#000000" font-family="sans-serif" font-size="11" lengthAdjust="spacingAndGlyphs" textLength="127" x="2736" y="1093.0078">totalVolume totalWeight</text><line style="stroke: #A80036; stroke-width: 1.5;" x1="2731" x2="2783.5" y1="1075.8955" y2="1075.8955"/><text fill="#000000" font-family="sans-serif" font-size="11" lengthAdjust="spacingAndGlyphs" textLength="32" x="2783.5" y="1079.5527">Billing</text><line style="stroke: #A80036; stroke-width: 1.5;" x1="2815.5" x2="2868" y1="1075.8955" y2="1075.8955"/><!--class ContainerDiff--><rect fill="#FEFECE" filter="url(#flz2udp)" height="178.8613" style="stroke: #A80036; stroke-width: 1.5;" width="188" x="1714" y="653.332"/><ellipse cx="1729" cy="672.4648" fill="#FF7700" rx="11" ry="11" style="stroke: #A80036; stroke-width: 1.0;"/><path d="M1729.6987,673.1128 Q1730.064,673.1875 1730.3337,673.4573 Q1730.6035,673.7271 1730.9937,674.5073 L1733.2349,678.9648 L1730.5454,678.9648 L1729.0513,675.8354 Q1728.9849,675.7026 1728.877,675.4702 Q1728.2212,674.0674 1727.333,674.0674 L1726.5527,674.0674 L1726.5527,678.9648 L1724.104,678.9648 L1724.104,666.5718 L1727.6401,666.5718 Q1730.0308,666.5718 1731.0725,667.4185 Q1732.1143,668.2651 1732.1143,670.1743 Q1732.1143,671.4526 1731.4917,672.208 Q1730.8691,672.9634 1729.6987,673.1128 Z M1726.5527,668.6304 L1726.5527,672.0088 L1727.7065,672.0088 Q1728.7109,672.0088 1729.1467,671.6145 Q1729.5825,671.2202 1729.5825,670.3154 Q1729.5825,669.4106 1729.1509,669.0205 Q1728.7192,668.6304 1727.7065,668.6304 Z "/><text fill="#000000" font-family="sans-serif" font-size="12" font-style="italic" lengthAdjust="spacingAndGlyphs" textLength="160" x="1741" y="669.9336">«复核过程中发现的容器差异.»</text><text fill="#000000" font-family="sans-serif" font-size="12" lengthAdjust="spacingAndGlyphs" textLength="75" x="1783.5" y="684.0664">ContainerDiff</text><line style="stroke: #A80036; stroke-width: 1.5;" x1="1715" x2="1901" y1="691.5977" y2="691.5977"/><text fill="#000000" font-family="sans-serif" font-size="11" lengthAdjust="spacingAndGlyphs" textLength="66" x="1720" y="723.1875">containerNo</text><line style="stroke: #A80036; stroke-width: 1.5;" x1="1715" x2="1781.5" y1="706.0752" y2="706.0752"/><text fill="#000000" font-family="sans-serif" font-size="11" lengthAdjust="spacingAndGlyphs" textLength="53" x="1781.5" y="709.7324">Structural</text><line style="stroke: #A80036; stroke-width: 1.5;" x1="1834.5" x2="1901" y1="706.0752" y2="706.0752"/><text fill="#000000" font-family="sans-serif" font-size="11" lengthAdjust="spacingAndGlyphs" textLength="37" x="1720" y="753.0977">reason</text><line style="stroke: #A80036; stroke-width: 1.5;" x1="1715" x2="1776.5" y1="735.9854" y2="735.9854"/><text fill="#000000" font-family="sans-serif" font-size="11" lengthAdjust="spacingAndGlyphs" textLength="63" x="1776.5" y="739.6426">Operational</text><line style="stroke: #A80036; stroke-width: 1.5;" x1="1839.5" x2="1901" y1="735.9854" y2="735.9854"/><text fill="#000000" font-family="sans-serif" font-size="11" lengthAdjust="spacingAndGlyphs" textLength="46" x="1720" y="783.0078">platform</text><line style="stroke: #A80036; stroke-width: 1.5;" x1="1715" x2="1785" y1="765.8955" y2="765.8955"/><text fill="#000000" font-family="sans-serif" font-size="11" lengthAdjust="spacingAndGlyphs" textLength="46" x="1785" y="769.5527">Location</text><line style="stroke: #A80036; stroke-width: 1.5;" x1="1831" x2="1901" y1="765.8955" y2="765.8955"/><text fill="#000000" font-family="sans-serif" font-size="11" lengthAdjust="spacingAndGlyphs" textLength="87" x="1720" y="812.918">registerBroken()</text><text fill="#000000" font-family="sans-serif" font-size="11" lengthAdjust="spacingAndGlyphs" textLength="73" x="1720" y="825.873">registerLost()</text><line style="stroke: #A80036; stroke-width: 1.5;" x1="1715" x2="1797" y1="795.8057" y2="795.8057"/><text fill="#000000" font-family="sans-serif" font-size="11" lengthAdjust="spacingAndGlyphs" textLength="22" x="1797" y="799.4629">行为</text><line style="stroke: #A80036; stroke-width: 1.5;" x1="1819" x2="1901" y1="795.8057" y2="795.8057"/><!--class ContainerDiffItem--><rect fill="#FEFECE" filter="url(#flz2udp)" height="69.9102" style="stroke: #A80036; stroke-width: 1.5;" width="132" x="2733" y="748.332"/><ellipse cx="2748" cy="764.332" fill="#ADD1B2" rx="11" ry="11" style="stroke: #A80036; stroke-width: 1.0;"/><path d="M2750.4731,770.4751 Q2749.8921,770.7739 2749.2529,770.9233 Q2748.6138,771.0728 2747.9082,771.0728 Q2745.4014,771.0728 2744.0815,769.4209 Q2742.7617,767.769 2742.7617,764.6479 Q2742.7617,761.5186 2744.0815,759.8667 Q2745.4014,758.2148 2747.9082,758.2148 Q2748.6138,758.2148 2749.2612,758.3643 Q2749.9087,758.5137 2750.4731,758.8125 L2750.4731,761.5352 Q2749.8423,760.9541 2749.2488,760.6843 Q2748.6553,760.4146 2748.0244,760.4146 Q2746.6797,760.4146 2745.9949,761.4812 Q2745.3101,762.5479 2745.3101,764.6479 Q2745.3101,766.7397 2745.9949,767.8064 Q2746.6797,768.873 2748.0244,768.873 Q2748.6553,768.873 2749.2488,768.6033 Q2749.8423,768.3335 2750.4731,767.7524 Z "/><text fill="#000000" font-family="sans-serif" font-size="12" lengthAdjust="spacingAndGlyphs" textLength="100" x="2762" y="768.8672">ContainerDiffItem</text><line style="stroke: #A80036; stroke-width: 1.5;" x1="2734" x2="2864" y1="780.332" y2="780.332"/><text fill="#000000" font-family="sans-serif" font-size="11" lengthAdjust="spacingAndGlyphs" textLength="19" x="2739" y="811.9219">Sku</text><line style="stroke: #A80036; stroke-width: 1.5;" x1="2734" x2="2772.5" y1="794.8096" y2="794.8096"/><text fill="#000000" font-family="sans-serif" font-size="11" lengthAdjust="spacingAndGlyphs" textLength="53" x="2772.5" y="798.4668">Structural</text><line style="stroke: #A80036; stroke-width: 1.5;" x1="2825.5" x2="2864" y1="794.8096" y2="794.8096"/><!--class ContainerDiffItemBag--><rect fill="#FEFECE" filter="url(#flz2udp)" height="48" style="stroke: #A80036; stroke-width: 1.5;" width="153" x="2229.5" y="725.332"/><ellipse cx="2244.5" cy="741.332" fill="#9197DB" rx="11" ry="11" style="stroke: #A80036; stroke-width: 1.0;"/><path d="M2242.9033,742.7041 L2242.9033,746.373 L2244.5303,746.373 Q2245.7007,746.373 2246.1697,745.9746 Q2246.6387,745.5762 2246.6387,744.5884 Q2246.6387,743.584 2246.1489,743.144 Q2245.6592,742.7041 2244.5303,742.7041 Z M2242.9033,737.873 L2242.9033,740.7534 L2244.5303,740.7534 Q2245.46,740.7534 2245.8542,740.4214 Q2246.2485,740.0894 2246.2485,739.3257 Q2246.2485,738.562 2245.8459,738.2175 Q2245.4434,737.873 2244.5303,737.873 Z M2240.5376,735.9224 L2244.5303,735.9224 Q2246.5972,735.9224 2247.6389,736.7068 Q2248.6807,737.4912 2248.6807,739.0518 Q2248.6807,740.2471 2248.0664,740.9194 Q2247.4521,741.5918 2246.2651,741.6997 Q2247.6846,741.8408 2248.4026,742.6543 Q2249.1206,743.4678 2249.1206,744.9287 Q2249.1206,746.7217 2248.0415,747.5269 Q2246.9624,748.332 2244.5303,748.332 L2240.5376,748.332 Z "/><text fill="#000000" font-family="sans-serif" font-size="12" lengthAdjust="spacingAndGlyphs" textLength="121" x="2258.5" y="745.8672">ContainerDiffItemBag</text><line style="stroke: #A80036; stroke-width: 1.5;" x1="2230.5" x2="2381.5" y1="757.332" y2="757.332"/><line style="stroke: #A80036; stroke-width: 1.5;" x1="2230.5" x2="2381.5" y1="765.332" y2="765.332"/><!--class Carton--><rect fill="#FEFECE" filter="url(#flz2udp)" height="99.8203" style="stroke: #A80036; stroke-width: 1.5;" width="70" x="321.5" y="1257.332"/><ellipse cx="336.5" cy="1273.332" fill="#FF7700" rx="11" ry="11" style="stroke: #A80036; stroke-width: 1.0;"/><path d="M337.1987,1273.98 Q337.564,1274.0547 337.8337,1274.3245 Q338.1035,1274.5942 338.4937,1275.3745 L340.7349,1279.832 L338.0454,1279.832 L336.5513,1276.7026 Q336.4849,1276.5698 336.377,1276.3374 Q335.7212,1274.9346 334.833,1274.9346 L334.0527,1274.9346 L334.0527,1279.832 L331.604,1279.832 L331.604,1267.439 L335.1401,1267.439 Q337.5308,1267.439 338.5725,1268.2856 Q339.6143,1269.1323 339.6143,1271.0415 Q339.6143,1272.3198 338.9917,1273.0752 Q338.3691,1273.8306 337.1987,1273.98 Z M334.0527,1269.4976 L334.0527,1272.876 L335.2065,1272.876 Q336.2109,1272.876 336.6467,1272.4817 Q337.0825,1272.0874 337.0825,1271.1826 Q337.0825,1270.2778 336.6509,1269.8877 Q336.2192,1269.4976 335.2065,1269.4976 Z "/><text fill="#000000" font-family="sans-serif" font-size="12" lengthAdjust="spacingAndGlyphs" textLength="38" x="350.5" y="1277.8672">Carton</text><line style="stroke: #A80036; stroke-width: 1.5;" x1="322.5" x2="390.5" y1="1289.332" y2="1289.332"/><text fill="#000000" font-family="sans-serif" font-size="11" lengthAdjust="spacingAndGlyphs" textLength="33" x="327.5" y="1320.9219">status</text><line style="stroke: #A80036; stroke-width: 1.5;" x1="322.5" x2="333.5" y1="1303.8096" y2="1303.8096"/><text fill="#000000" font-family="sans-serif" font-size="11" lengthAdjust="spacingAndGlyphs" textLength="46" x="333.5" y="1307.4668">Lifecycle</text><line style="stroke: #A80036; stroke-width: 1.5;" x1="379.5" x2="390.5" y1="1303.8096" y2="1303.8096"/><text fill="#000000" font-family="sans-serif" font-size="11" lengthAdjust="spacingAndGlyphs" textLength="35" x="327.5" y="1350.832">fulfill()</text><line style="stroke: #A80036; stroke-width: 1.5;" x1="322.5" x2="345.5" y1="1333.7197" y2="1333.7197"/><text fill="#000000" font-family="sans-serif" font-size="11" lengthAdjust="spacingAndGlyphs" textLength="22" x="345.5" y="1337.377">行为</text><line style="stroke: #A80036; stroke-width: 1.5;" x1="367.5" x2="390.5" y1="1333.7197" y2="1333.7197"/><!--class CartonItem--><rect fill="#FEFECE" filter="url(#flz2udp)" height="129.7305" style="stroke: #A80036; stroke-width: 1.5;" width="95" x="1340" y="1219.332"/><ellipse cx="1355" cy="1235.332" fill="#ADD1B2" rx="11" ry="11" style="stroke: #A80036; stroke-width: 1.0;"/><path d="M1357.4731,1241.4751 Q1356.8921,1241.7739 1356.2529,1241.9233 Q1355.6138,1242.0728 1354.9082,1242.0728 Q1352.4014,1242.0728 1351.0815,1240.4209 Q1349.7617,1238.769 1349.7617,1235.6479 Q1349.7617,1232.5186 1351.0815,1230.8667 Q1352.4014,1229.2148 1354.9082,1229.2148 Q1355.6138,1229.2148 1356.2612,1229.3643 Q1356.9087,1229.5137 1357.4731,1229.8125 L1357.4731,1232.5352 Q1356.8423,1231.9541 1356.2488,1231.6843 Q1355.6553,1231.4146 1355.0244,1231.4146 Q1353.6797,1231.4146 1352.9949,1232.4812 Q1352.3101,1233.5479 1352.3101,1235.6479 Q1352.3101,1237.7397 1352.9949,1238.8064 Q1353.6797,1239.873 1355.0244,1239.873 Q1355.6553,1239.873 1356.2488,1239.6033 Q1356.8423,1239.3335 1357.4731,1238.7524 Z "/><text fill="#000000" font-family="sans-serif" font-size="12" lengthAdjust="spacingAndGlyphs" textLength="63" x="1369" y="1239.8672">CartonItem</text><line style="stroke: #A80036; stroke-width: 1.5;" x1="1341" x2="1434" y1="1251.332" y2="1251.332"/><text fill="#000000" font-family="sans-serif" font-size="11" lengthAdjust="spacingAndGlyphs" textLength="19" x="1346" y="1282.9219">sku</text><line style="stroke: #A80036; stroke-width: 1.5;" x1="1341" x2="1361" y1="1265.8096" y2="1265.8096"/><text fill="#000000" font-family="sans-serif" font-size="11" lengthAdjust="spacingAndGlyphs" textLength="53" x="1361" y="1269.4668">Structural</text><line style="stroke: #A80036; stroke-width: 1.5;" x1="1414" x2="1434" y1="1265.8096" y2="1265.8096"/><text fill="#000000" font-family="sans-serif" font-size="11" lengthAdjust="spacingAndGlyphs" textLength="67" x="1346" y="1312.832">orderLineNo</text><line style="stroke: #A80036; stroke-width: 1.5;" x1="1341" x2="1359" y1="1295.7197" y2="1295.7197"/><text fill="#000000" font-family="sans-serif" font-size="11" lengthAdjust="spacingAndGlyphs" textLength="57" x="1359" y="1299.377">Referential</text><line style="stroke: #A80036; stroke-width: 1.5;" x1="1416" x2="1434" y1="1295.7197" y2="1295.7197"/><text fill="#000000" font-family="sans-serif" font-size="11" lengthAdjust="spacingAndGlyphs" textLength="63" x="1346" y="1342.7422">checkedQty</text><line style="stroke: #A80036; stroke-width: 1.5;" x1="1341" x2="1364.5" y1="1325.6299" y2="1325.6299"/><text fill="#000000" font-family="sans-serif" font-size="11" lengthAdjust="spacingAndGlyphs" textLength="46" x="1364.5" y="1329.2871">Quantity</text><line style="stroke: #A80036; stroke-width: 1.5;" x1="1410.5" x2="1434" y1="1325.6299" y2="1325.6299"/><!--class CartonItemBag--><rect fill="#FEFECE" filter="url(#flz2udp)" height="69.9102" style="stroke: #A80036; stroke-width: 1.5;" width="212" x="897" y="1287.332"/><ellipse cx="956.75" cy="1303.332" fill="#9197DB" rx="11" ry="11" style="stroke: #A80036; stroke-width: 1.0;"/><path d="M955.1533,1304.7041 L955.1533,1308.373 L956.7803,1308.373 Q957.9507,1308.373 958.4197,1307.9746 Q958.8887,1307.5762 958.8887,1306.5884 Q958.8887,1305.584 958.3989,1305.144 Q957.9092,1304.7041 956.7803,1304.7041 Z M955.1533,1299.873 L955.1533,1302.7534 L956.7803,1302.7534 Q957.71,1302.7534 958.1042,1302.4214 Q958.4985,1302.0894 958.4985,1301.3257 Q958.4985,1300.562 958.0959,1300.2175 Q957.6934,1299.873 956.7803,1299.873 Z M952.7876,1297.9224 L956.7803,1297.9224 Q958.8472,1297.9224 959.8889,1298.7068 Q960.9307,1299.4912 960.9307,1301.0518 Q960.9307,1302.2471 960.3164,1302.9194 Q959.7021,1303.5918 958.5151,1303.6997 Q959.9346,1303.8408 960.6526,1304.6543 Q961.3706,1305.4678 961.3706,1306.9287 Q961.3706,1308.7217 960.2915,1309.5269 Q959.2124,1310.332 956.7803,1310.332 L952.7876,1310.332 Z "/><text fill="#000000" font-family="sans-serif" font-size="12" lengthAdjust="spacingAndGlyphs" textLength="84" x="977.25" y="1307.8672">CartonItemBag</text><line style="stroke: #A80036; stroke-width: 1.5;" x1="898" x2="1108" y1="1319.332" y2="1319.332"/><text fill="#000000" font-family="sans-serif" font-size="11" lengthAdjust="spacingAndGlyphs" textLength="200" x="903" y="1350.9219">contains() 货品唯一是否在本箱里已有了</text><line style="stroke: #A80036; stroke-width: 1.5;" x1="898" x2="992" y1="1333.8096" y2="1333.8096"/><text fill="#000000" font-family="sans-serif" font-size="11" lengthAdjust="spacingAndGlyphs" textLength="22" x="992" y="1337.4668">行为</text><line style="stroke: #A80036; stroke-width: 1.5;" x1="1014" x2="1108" y1="1333.8096" y2="1333.8096"/><!--class Consumable--><rect fill="#FEFECE" filter="url(#flz2udp)" height="48" style="stroke: #A80036; stroke-width: 1.5;" width="103" x="1336" y="1095.332"/><ellipse cx="1351" cy="1111.332" fill="#9197DB" rx="11" ry="11" style="stroke: #A80036; stroke-width: 1.0;"/><path d="M1349.4033,1112.7041 L1349.4033,1116.373 L1351.0303,1116.373 Q1352.2007,1116.373 1352.6697,1115.9746 Q1353.1387,1115.5762 1353.1387,1114.5884 Q1353.1387,1113.584 1352.6489,1113.144 Q1352.1592,1112.7041 1351.0303,1112.7041 Z M1349.4033,1107.873 L1349.4033,1110.7534 L1351.0303,1110.7534 Q1351.96,1110.7534 1352.3542,1110.4214 Q1352.7485,1110.0894 1352.7485,1109.3257 Q1352.7485,1108.562 1352.3459,1108.2175 Q1351.9434,1107.873 1351.0303,1107.873 Z M1347.0376,1105.9224 L1351.0303,1105.9224 Q1353.0972,1105.9224 1354.1389,1106.7068 Q1355.1807,1107.4912 1355.1807,1109.0518 Q1355.1807,1110.2471 1354.5664,1110.9194 Q1353.9521,1111.5918 1352.7651,1111.6997 Q1354.1846,1111.8408 1354.9026,1112.6543 Q1355.6206,1113.4678 1355.6206,1114.9287 Q1355.6206,1116.7217 1354.5415,1117.5269 Q1353.4624,1118.332 1351.0303,1118.332 L1347.0376,1118.332 Z "/><text fill="#000000" font-family="sans-serif" font-size="12" lengthAdjust="spacingAndGlyphs" textLength="71" x="1365" y="1115.8672">Consumable</text><line style="stroke: #A80036; stroke-width: 1.5;" x1="1337" x2="1438" y1="1127.332" y2="1127.332"/><line style="stroke: #A80036; stroke-width: 1.5;" x1="1337" x2="1438" y1="1135.332" y2="1135.332"/><!--class ConsumableBag--><rect fill="#FEFECE" filter="url(#flz2udp)" height="48" style="stroke: #A80036; stroke-width: 1.5;" width="124" x="941" y="1163.332"/><ellipse cx="956" cy="1179.332" fill="#9197DB" rx="11" ry="11" style="stroke: #A80036; stroke-width: 1.0;"/><path d="M954.4033,1180.7041 L954.4033,1184.373 L956.0303,1184.373 Q957.2007,1184.373 957.6697,1183.9746 Q958.1387,1183.5762 958.1387,1182.5884 Q958.1387,1181.584 957.6489,1181.144 Q957.1592,1180.7041 956.0303,1180.7041 Z M954.4033,1175.873 L954.4033,1178.7534 L956.0303,1178.7534 Q956.96,1178.7534 957.3542,1178.4214 Q957.7485,1178.0894 957.7485,1177.3257 Q957.7485,1176.562 957.3459,1176.2175 Q956.9434,1175.873 956.0303,1175.873 Z M952.0376,1173.9224 L956.0303,1173.9224 Q958.0972,1173.9224 959.1389,1174.7068 Q960.1807,1175.4912 960.1807,1177.0518 Q960.1807,1178.2471 959.5664,1178.9194 Q958.9521,1179.5918 957.7651,1179.6997 Q959.1846,1179.8408 959.9026,1180.6543 Q960.6206,1181.4678 960.6206,1182.9287 Q960.6206,1184.7217 959.5415,1185.5269 Q958.4624,1186.332 956.0303,1186.332 L952.0376,1186.332 Z "/><text fill="#000000" font-family="sans-serif" font-size="12" lengthAdjust="spacingAndGlyphs" textLength="92" x="970" y="1183.8672">ConsumableBag</text><line style="stroke: #A80036; stroke-width: 1.5;" x1="942" x2="1064" y1="1195.332" y2="1195.332"/><line style="stroke: #A80036; stroke-width: 1.5;" x1="942" x2="1064" y1="1203.332" y2="1203.332"/><!--class Pallet--><rect fill="#FEFECE" filter="url(#flz2udp)" height="48" style="stroke: #A80036; stroke-width: 1.5;" width="63" x="971.5" y="1060.332"/><ellipse cx="986.5" cy="1076.332" fill="#9197DB" rx="11" ry="11" style="stroke: #A80036; stroke-width: 1.0;"/><path d="M984.9033,1077.7041 L984.9033,1081.373 L986.5303,1081.373 Q987.7007,1081.373 988.1697,1080.9746 Q988.6387,1080.5762 988.6387,1079.5884 Q988.6387,1078.584 988.1489,1078.144 Q987.6592,1077.7041 986.5303,1077.7041 Z M984.9033,1072.873 L984.9033,1075.7534 L986.5303,1075.7534 Q987.46,1075.7534 987.8542,1075.4214 Q988.2485,1075.0894 988.2485,1074.3257 Q988.2485,1073.562 987.8459,1073.2175 Q987.4434,1072.873 986.5303,1072.873 Z M982.5376,1070.9224 L986.5303,1070.9224 Q988.5972,1070.9224 989.6389,1071.7068 Q990.6807,1072.4912 990.6807,1074.0518 Q990.6807,1075.2471 990.0664,1075.9194 Q989.4521,1076.5918 988.2651,1076.6997 Q989.6846,1076.8408 990.4026,1077.6543 Q991.1206,1078.4678 991.1206,1079.9287 Q991.1206,1081.7217 990.0415,1082.5269 Q988.9624,1083.332 986.5303,1083.332 L982.5376,1083.332 Z "/><text fill="#000000" font-family="sans-serif" font-size="12" lengthAdjust="spacingAndGlyphs" textLength="31" x="1000.5" y="1080.8672">Pallet</text><line style="stroke: #A80036; stroke-width: 1.5;" x1="972.5" x2="1033.5" y1="1092.332" y2="1092.332"/><line style="stroke: #A80036; stroke-width: 1.5;" x1="972.5" x2="1033.5" y1="1100.332" y2="1100.332"/><!--class Sku--><rect fill="#FEFECE" filter="url(#flz2udp)" height="106.0859" style="stroke: #A80036; stroke-width: 1.5;" width="117" x="1749.5" y="1066.332"/><ellipse cx="1775.75" cy="1085.4648" fill="#ADD1B2" rx="11" ry="11" style="stroke: #A80036; stroke-width: 1.0;"/><path d="M1778.2231,1091.6079 Q1777.6421,1091.9067 1777.0029,1092.0562 Q1776.3638,1092.2056 1775.6582,1092.2056 Q1773.1514,1092.2056 1771.8315,1090.5537 Q1770.5117,1088.9019 1770.5117,1085.7808 Q1770.5117,1082.6514 1771.8315,1080.9995 Q1773.1514,1079.3477 1775.6582,1079.3477 Q1776.3638,1079.3477 1777.0112,1079.4971 Q1777.6587,1079.6465 1778.2231,1079.9453 L1778.2231,1082.668 Q1777.5923,1082.0869 1776.9988,1081.8171 Q1776.4053,1081.5474 1775.7744,1081.5474 Q1774.4297,1081.5474 1773.7449,1082.614 Q1773.0601,1083.6807 1773.0601,1085.7808 Q1773.0601,1087.8726 1773.7449,1088.9392 Q1774.4297,1090.0059 1775.7744,1090.0059 Q1776.4053,1090.0059 1776.9988,1089.7361 Q1777.5923,1089.4663 1778.2231,1088.8853 Z "/><text fill="#000000" font-family="sans-serif" font-size="12" font-style="italic" lengthAdjust="spacingAndGlyphs" textLength="64" x="1790.25" y="1082.9336">«货品编号.»</text><text fill="#000000" font-family="sans-serif" font-size="12" lengthAdjust="spacingAndGlyphs" textLength="20" x="1812.25" y="1097.0664">Sku</text><line style="stroke: #A80036; stroke-width: 1.5;" x1="1750.5" x2="1865.5" y1="1104.5977" y2="1104.5977"/><text fill="#000000" font-family="sans-serif" font-size="11" lengthAdjust="spacingAndGlyphs" textLength="105" x="1755.5" y="1136.1875">OwnerNo PackCode</text><line style="stroke: #A80036; stroke-width: 1.5;" x1="1750.5" x2="1781.5" y1="1119.0752" y2="1119.0752"/><text fill="#000000" font-family="sans-serif" font-size="11" lengthAdjust="spacingAndGlyphs" textLength="53" x="1781.5" y="1122.7324">Structural</text><line style="stroke: #A80036; stroke-width: 1.5;" x1="1834.5" x2="1865.5" y1="1119.0752" y2="1119.0752"/><text fill="#000000" font-family="sans-serif" font-size="11" lengthAdjust="spacingAndGlyphs" textLength="67" x="1755.5" y="1166.0977">LotNo snList</text><line style="stroke: #A80036; stroke-width: 1.5;" x1="1750.5" x2="1778.5" y1="1148.9854" y2="1148.9854"/><text fill="#000000" font-family="sans-serif" font-size="11" lengthAdjust="spacingAndGlyphs" textLength="59" x="1778.5" y="1152.6426">Contextual</text><line style="stroke: #A80036; stroke-width: 1.5;" x1="1837.5" x2="1865.5" y1="1148.9854" y2="1148.9854"/><!--class Container--><rect fill="#FEFECE" filter="url(#flz2udp)" height="106.0859" style="stroke: #A80036; stroke-width: 1.5;" width="139" x="1739" y="1664.332"/><ellipse cx="1775.15" cy="1683.4648" fill="#ADD1B2" rx="11" ry="11" style="stroke: #A80036; stroke-width: 1.0;"/><path d="M1777.6231,1689.6079 Q1777.0421,1689.9067 1776.4029,1690.0562 Q1775.7638,1690.2056 1775.0582,1690.2056 Q1772.5514,1690.2056 1771.2315,1688.5537 Q1769.9117,1686.9019 1769.9117,1683.7808 Q1769.9117,1680.6514 1771.2315,1678.9995 Q1772.5514,1677.3477 1775.0582,1677.3477 Q1775.7638,1677.3477 1776.4112,1677.4971 Q1777.0587,1677.6465 1777.6231,1677.9453 L1777.6231,1680.668 Q1776.9923,1680.0869 1776.3988,1679.8171 Q1775.8053,1679.5474 1775.1744,1679.5474 Q1773.8297,1679.5474 1773.1449,1680.614 Q1772.4601,1681.6807 1772.4601,1683.7808 Q1772.4601,1685.8726 1773.1449,1686.9392 Q1773.8297,1688.0059 1775.1744,1688.0059 Q1775.8053,1688.0059 1776.3988,1687.7361 Q1776.9923,1687.4663 1777.6231,1686.8853 Z "/><text fill="#000000" font-family="sans-serif" font-size="12" font-style="italic" lengthAdjust="spacingAndGlyphs" textLength="64" x="1791.85" y="1680.9336">«拣货容器.»</text><text fill="#000000" font-family="sans-serif" font-size="12" lengthAdjust="spacingAndGlyphs" textLength="55" x="1796.35" y="1695.0664">Container</text><line style="stroke: #A80036; stroke-width: 1.5;" x1="1740" x2="1877" y1="1702.5977" y2="1702.5977"/><text fill="#000000" font-family="sans-serif" font-size="11" lengthAdjust="spacingAndGlyphs" textLength="79" x="1745" y="1734.1875">ContainerType</text><line style="stroke: #A80036; stroke-width: 1.5;" x1="1740" x2="1777" y1="1717.0752" y2="1717.0752"/><text fill="#000000" font-family="sans-serif" font-size="11" lengthAdjust="spacingAndGlyphs" textLength="63" x="1777" y="1720.7324">Operational</text><line style="stroke: #A80036; stroke-width: 1.5;" x1="1840" x2="1877" y1="1717.0752" y2="1717.0752"/><text fill="#000000" font-family="sans-serif" font-size="11" lengthAdjust="spacingAndGlyphs" textLength="127" x="1745" y="1764.0977">containerNo/扫描枪可扫</text><line style="stroke: #A80036; stroke-width: 1.5;" x1="1740" x2="1796.5" y1="1746.9854" y2="1746.9854"/><text fill="#000000" font-family="sans-serif" font-size="11" lengthAdjust="spacingAndGlyphs" textLength="24" x="1796.5" y="1750.6426">DCU</text><line style="stroke: #A80036; stroke-width: 1.5;" x1="1820.5" x2="1877" y1="1746.9854" y2="1746.9854"/><!--class ContainerBag--><rect fill="#FEFECE" filter="url(#flz2udp)" height="121.7305" style="stroke: #A80036; stroke-width: 1.5;" width="222" x="1276" y="1656.332"/><ellipse cx="1344.75" cy="1672.332" fill="#9197DB" rx="11" ry="11" style="stroke: #A80036; stroke-width: 1.0;"/><path d="M1343.1533,1673.7041 L1343.1533,1677.373 L1344.7803,1677.373 Q1345.9507,1677.373 1346.4197,1676.9746 Q1346.8887,1676.5762 1346.8887,1675.5884 Q1346.8887,1674.584 1346.3989,1674.144 Q1345.9092,1673.7041 1344.7803,1673.7041 Z M1343.1533,1668.873 L1343.1533,1671.7534 L1344.7803,1671.7534 Q1345.71,1671.7534 1346.1042,1671.4214 Q1346.4985,1671.0894 1346.4985,1670.3257 Q1346.4985,1669.562 1346.0959,1669.2175 Q1345.6934,1668.873 1344.7803,1668.873 Z M1340.7876,1666.9224 L1344.7803,1666.9224 Q1346.8472,1666.9224 1347.8889,1667.7068 Q1348.9307,1668.4912 1348.9307,1670.0518 Q1348.9307,1671.2471 1348.3164,1671.9194 Q1347.7021,1672.5918 1346.5151,1672.6997 Q1347.9346,1672.8408 1348.6526,1673.6543 Q1349.3706,1674.4678 1349.3706,1675.9287 Q1349.3706,1677.7217 1348.2915,1678.5269 Q1347.2124,1679.332 1344.7803,1679.332 L1340.7876,1679.332 Z "/><text fill="#000000" font-family="sans-serif" font-size="12" lengthAdjust="spacingAndGlyphs" textLength="76" x="1365.25" y="1676.8672">ContainerBag</text><line style="stroke: #A80036; stroke-width: 1.5;" x1="1277" x2="1497" y1="1688.332" y2="1688.332"/><text fill="#000000" font-family="sans-serif" font-size="11" lengthAdjust="spacingAndGlyphs" textLength="186" x="1282" y="1719.9219">totalSku() 该容器的总商品种类(品数).</text><text fill="#000000" font-family="sans-serif" font-size="11" lengthAdjust="spacingAndGlyphs" textLength="145" x="1282" y="1732.877">totalQty() 该容器的总要货量.</text><text fill="#000000" font-family="sans-serif" font-size="11" lengthAdjust="spacingAndGlyphs" textLength="94" x="1282" y="1745.832">totalPendingQty()</text><text fill="#000000" font-family="sans-serif" font-size="11" lengthAdjust="spacingAndGlyphs" textLength="210" x="1282" y="1758.7871">pendingItemBag() 待复核的所有容器明细.</text><text fill="#000000" font-family="sans-serif" font-size="11" lengthAdjust="spacingAndGlyphs" textLength="152" x="1282" y="1771.7422">orderNoSet() 所有的出库单号.</text><line style="stroke: #A80036; stroke-width: 1.5;" x1="1277" x2="1376" y1="1702.8096" y2="1702.8096"/><text fill="#000000" font-family="sans-serif" font-size="11" lengthAdjust="spacingAndGlyphs" textLength="22" x="1376" y="1706.4668">规则</text><line style="stroke: #A80036; stroke-width: 1.5;" x1="1398" x2="1497" y1="1702.8096" y2="1702.8096"/><!--class ContainerItem--><rect fill="#FEFECE" filter="url(#flz2udp)" height="148.9512" style="stroke: #A80036; stroke-width: 1.5;" width="197" x="2701" y="1643.332"/><ellipse cx="2725.45" cy="1662.4648" fill="#ADD1B2" rx="11" ry="11" style="stroke: #A80036; stroke-width: 1.0;"/><path d="M2727.9231,1668.6079 Q2727.3421,1668.9067 2726.7029,1669.0562 Q2726.0638,1669.2056 2725.3582,1669.2056 Q2722.8514,1669.2056 2721.5315,1667.5537 Q2720.2117,1665.9019 2720.2117,1662.7808 Q2720.2117,1659.6514 2721.5315,1657.9995 Q2722.8514,1656.3477 2725.3582,1656.3477 Q2726.0638,1656.3477 2726.7112,1656.4971 Q2727.3587,1656.6465 2727.9231,1656.9453 L2727.9231,1659.668 Q2727.2923,1659.0869 2726.6988,1658.8171 Q2726.1053,1658.5474 2725.4744,1658.5474 Q2724.1297,1658.5474 2723.4449,1659.614 Q2722.7601,1660.6807 2722.7601,1662.7808 Q2722.7601,1664.8726 2723.4449,1665.9392 Q2724.1297,1667.0059 2725.4744,1667.0059 Q2726.1053,1667.0059 2726.6988,1666.7361 Q2727.2923,1666.4663 2727.9231,1665.8853 Z "/><text fill="#000000" font-family="sans-serif" font-size="12" font-style="italic" lengthAdjust="spacingAndGlyphs" textLength="148" x="2739.55" y="1659.9336">«拣货容器里的商品和数量.»</text><text fill="#000000" font-family="sans-serif" font-size="12" lengthAdjust="spacingAndGlyphs" textLength="80" x="2773.55" y="1674.0664">ContainerItem</text><line style="stroke: #A80036; stroke-width: 1.5;" x1="2702" x2="2897" y1="1681.5977" y2="1681.5977"/><text fill="#000000" font-family="sans-serif" font-size="11" lengthAdjust="spacingAndGlyphs" textLength="91" x="2707" y="1713.1875">OrderLineNo Sku</text><line style="stroke: #A80036; stroke-width: 1.5;" x1="2702" x2="2773" y1="1696.0752" y2="1696.0752"/><text fill="#000000" font-family="sans-serif" font-size="11" lengthAdjust="spacingAndGlyphs" textLength="53" x="2773" y="1699.7324">Structural</text><line style="stroke: #A80036; stroke-width: 1.5;" x1="2826" x2="2897" y1="1696.0752" y2="1696.0752"/><text fill="#000000" font-family="sans-serif" font-size="11" lengthAdjust="spacingAndGlyphs" textLength="185" x="2707" y="1743.0977">expectedQty givenQty pendingQty</text><line style="stroke: #A80036; stroke-width: 1.5;" x1="2702" x2="2776.5" y1="1725.9854" y2="1725.9854"/><text fill="#000000" font-family="sans-serif" font-size="11" lengthAdjust="spacingAndGlyphs" textLength="46" x="2776.5" y="1729.6426">Quantity</text><line style="stroke: #A80036; stroke-width: 1.5;" x1="2822.5" x2="2897" y1="1725.9854" y2="1725.9854"/><text fill="#000000" font-family="sans-serif" font-size="11" lengthAdjust="spacingAndGlyphs" textLength="172" x="2707" y="1773.0078">diffQty() 复核作业发现的差异数量.</text><text fill="#000000" font-family="sans-serif" font-size="11" lengthAdjust="spacingAndGlyphs" textLength="35" x="2707" y="1785.9629">done()</text><line style="stroke: #A80036; stroke-width: 1.5;" x1="2702" x2="2788.5" y1="1755.8955" y2="1755.8955"/><text fill="#000000" font-family="sans-serif" font-size="11" lengthAdjust="spacingAndGlyphs" textLength="22" x="2788.5" y="1759.5527">规则</text><line style="stroke: #A80036; stroke-width: 1.5;" x1="2810.5" x2="2897" y1="1755.8955" y2="1755.8955"/><!--class ContainerItemBag--><rect fill="#FEFECE" filter="url(#flz2udp)" height="95.8203" style="stroke: #A80036; stroke-width: 1.5;" width="198" x="2206.5" y="1669.332"/><ellipse cx="2250.75" cy="1685.332" fill="#9197DB" rx="11" ry="11" style="stroke: #A80036; stroke-width: 1.0;"/><path d="M2249.1533,1686.7041 L2249.1533,1690.373 L2250.7803,1690.373 Q2251.9507,1690.373 2252.4197,1689.9746 Q2252.8887,1689.5762 2252.8887,1688.5884 Q2252.8887,1687.584 2252.3989,1687.144 Q2251.9092,1686.7041 2250.7803,1686.7041 Z M2249.1533,1681.873 L2249.1533,1684.7534 L2250.7803,1684.7534 Q2251.71,1684.7534 2252.1042,1684.4214 Q2252.4985,1684.0894 2252.4985,1683.3257 Q2252.4985,1682.562 2252.0959,1682.2175 Q2251.6934,1681.873 2250.7803,1681.873 Z M2246.7876,1679.9224 L2250.7803,1679.9224 Q2252.8472,1679.9224 2253.8889,1680.7068 Q2254.9307,1681.4912 2254.9307,1683.0518 Q2254.9307,1684.2471 2254.3164,1684.9194 Q2253.7021,1685.5918 2252.5151,1685.6997 Q2253.9346,1685.8408 2254.6526,1686.6543 Q2255.3706,1687.4678 2255.3706,1688.9287 Q2255.3706,1690.7217 2254.2915,1691.5269 Q2253.2124,1692.332 2250.7803,1692.332 L2246.7876,1692.332 Z "/><text fill="#000000" font-family="sans-serif" font-size="12" lengthAdjust="spacingAndGlyphs" textLength="101" x="2271.25" y="1689.8672">ContainerItemBag</text><line style="stroke: #A80036; stroke-width: 1.5;" x1="2207.5" x2="2403.5" y1="1701.332" y2="1701.332"/><text fill="#000000" font-family="sans-serif" font-size="11" lengthAdjust="spacingAndGlyphs" textLength="186" x="2212.5" y="1732.9219">totalSku() 该容器的总商品种类(品数).</text><text fill="#000000" font-family="sans-serif" font-size="11" lengthAdjust="spacingAndGlyphs" textLength="134" x="2212.5" y="1745.877">totalQty() 该容器的总货量.</text><text fill="#000000" font-family="sans-serif" font-size="11" lengthAdjust="spacingAndGlyphs" textLength="94" x="2212.5" y="1758.832">totalPendingQty()</text><line style="stroke: #A80036; stroke-width: 1.5;" x1="2207.5" x2="2294.5" y1="1715.8096" y2="1715.8096"/><text fill="#000000" font-family="sans-serif" font-size="11" lengthAdjust="spacingAndGlyphs" textLength="22" x="2294.5" y="1719.4668">规则</text><line style="stroke: #A80036; stroke-width: 1.5;" x1="2316.5" x2="2403.5" y1="1715.8096" y2="1715.8096"/><!--class Task--><rect fill="#FEFECE" filter="url(#flz2udp)" height="148.9512" style="stroke: #A80036; stroke-width: 1.5;" width="92" x="957" y="1643.332"/><ellipse cx="972" cy="1662.4648" fill="#FF7700" rx="11" ry="11" style="stroke: #A80036; stroke-width: 1.0;"/><path d="M972.6987,1663.1128 Q973.064,1663.1875 973.3337,1663.4573 Q973.6035,1663.7271 973.9937,1664.5073 L976.2349,1668.9648 L973.5454,1668.9648 L972.0513,1665.8354 Q971.9849,1665.7026 971.877,1665.4702 Q971.2212,1664.0674 970.333,1664.0674 L969.5527,1664.0674 L969.5527,1668.9648 L967.104,1668.9648 L967.104,1656.5718 L970.6401,1656.5718 Q973.0308,1656.5718 974.0725,1657.4185 Q975.1143,1658.2651 975.1143,1660.1743 Q975.1143,1661.4526 974.4917,1662.208 Q973.8691,1662.9634 972.6987,1663.1128 Z M969.5527,1658.6304 L969.5527,1662.0088 L970.7065,1662.0088 Q971.7109,1662.0088 972.1467,1661.6145 Q972.5825,1661.2202 972.5825,1660.3154 Q972.5825,1659.4106 972.1509,1659.0205 Q971.7192,1658.6304 970.7065,1658.6304 Z "/><text fill="#000000" font-family="sans-serif" font-size="12" font-style="italic" lengthAdjust="spacingAndGlyphs" textLength="64" x="984" y="1659.9336">«复核任务.»</text><text fill="#000000" font-family="sans-serif" font-size="12" lengthAdjust="spacingAndGlyphs" textLength="28" x="1002" y="1674.0664">Task</text><line style="stroke: #A80036; stroke-width: 1.5;" x1="958" x2="1048" y1="1681.5977" y2="1681.5977"/><text fill="#000000" font-family="sans-serif" font-size="11" lengthAdjust="spacingAndGlyphs" textLength="58" x="963" y="1713.1875">TaskStatus</text><line style="stroke: #A80036; stroke-width: 1.5;" x1="958" x2="980" y1="1696.0752" y2="1696.0752"/><text fill="#000000" font-family="sans-serif" font-size="11" lengthAdjust="spacingAndGlyphs" textLength="46" x="980" y="1699.7324">Lifecycle</text><line style="stroke: #A80036; stroke-width: 1.5;" x1="1026" x2="1048" y1="1696.0752" y2="1696.0752"/><text fill="#000000" font-family="sans-serif" font-size="11" lengthAdjust="spacingAndGlyphs" textLength="45" x="963" y="1743.0977">Platform</text><line style="stroke: #A80036; stroke-width: 1.5;" x1="958" x2="980" y1="1725.9854" y2="1725.9854"/><text fill="#000000" font-family="sans-serif" font-size="11" lengthAdjust="spacingAndGlyphs" textLength="46" x="980" y="1729.6426">Location</text><line style="stroke: #A80036; stroke-width: 1.5;" x1="1026" x2="1048" y1="1725.9854" y2="1725.9854"/><text fill="#000000" font-family="sans-serif" font-size="11" lengthAdjust="spacingAndGlyphs" textLength="72" x="963" y="1773.0078">claimedWith()</text><text fill="#000000" font-family="sans-serif" font-size="11" lengthAdjust="spacingAndGlyphs" textLength="69" x="963" y="1785.9629">confirmQty()</text><line style="stroke: #A80036; stroke-width: 1.5;" x1="958" x2="992" y1="1755.8955" y2="1755.8955"/><text fill="#000000" font-family="sans-serif" font-size="11" lengthAdjust="spacingAndGlyphs" textLength="22" x="992" y="1759.5527">行为</text><line style="stroke: #A80036; stroke-width: 1.5;" x1="1014" x2="1048" y1="1755.8955" y2="1755.8955"/><!--class TaskOfContainer--><rect fill="#FEFECE" filter="url(#flz2udp)" height="48" style="stroke: #A80036; stroke-width: 1.5;" width="128" x="292.5" y="1623.332"/><ellipse cx="307.5" cy="1639.332" fill="#9197DB" rx="11" ry="11" style="stroke: #A80036; stroke-width: 1.0;"/><path d="M305.9033,1640.7041 L305.9033,1644.373 L307.5303,1644.373 Q308.7007,1644.373 309.1697,1643.9746 Q309.6387,1643.5762 309.6387,1642.5884 Q309.6387,1641.584 309.1489,1641.144 Q308.6592,1640.7041 307.5303,1640.7041 Z M305.9033,1635.873 L305.9033,1638.7534 L307.5303,1638.7534 Q308.46,1638.7534 308.8542,1638.4214 Q309.2485,1638.0894 309.2485,1637.3257 Q309.2485,1636.562 308.8459,1636.2175 Q308.4434,1635.873 307.5303,1635.873 Z M303.5376,1633.9224 L307.5303,1633.9224 Q309.5972,1633.9224 310.6389,1634.7068 Q311.6807,1635.4912 311.6807,1637.0518 Q311.6807,1638.2471 311.0664,1638.9194 Q310.4521,1639.5918 309.2651,1639.6997 Q310.6846,1639.8408 311.4026,1640.6543 Q312.1206,1641.4678 312.1206,1642.9287 Q312.1206,1644.7217 311.0415,1645.5269 Q309.9624,1646.332 307.5303,1646.332 L303.5376,1646.332 Z "/><text fill="#000000" font-family="sans-serif" font-size="12" lengthAdjust="spacingAndGlyphs" textLength="96" x="321.5" y="1643.8672">TaskOfContainer</text><line style="stroke: #A80036; stroke-width: 1.5;" x1="293.5" x2="419.5" y1="1655.332" y2="1655.332"/><line style="stroke: #A80036; stroke-width: 1.5;" x1="293.5" x2="419.5" y1="1663.332" y2="1663.332"/><!--class TaskOfOrder--><rect fill="#FEFECE" filter="url(#flz2udp)" height="48" style="stroke: #A80036; stroke-width: 1.5;" width="107" x="303" y="1706.332"/><ellipse cx="318" cy="1722.332" fill="#9197DB" rx="11" ry="11" style="stroke: #A80036; stroke-width: 1.0;"/><path d="M316.4033,1723.7041 L316.4033,1727.373 L318.0303,1727.373 Q319.2007,1727.373 319.6697,1726.9746 Q320.1387,1726.5762 320.1387,1725.5884 Q320.1387,1724.584 319.6489,1724.144 Q319.1592,1723.7041 318.0303,1723.7041 Z M316.4033,1718.873 L316.4033,1721.7534 L318.0303,1721.7534 Q318.96,1721.7534 319.3542,1721.4214 Q319.7485,1721.0894 319.7485,1720.3257 Q319.7485,1719.562 319.3459,1719.2175 Q318.9434,1718.873 318.0303,1718.873 Z M314.0376,1716.9224 L318.0303,1716.9224 Q320.0972,1716.9224 321.1389,1717.7068 Q322.1807,1718.4912 322.1807,1720.0518 Q322.1807,1721.2471 321.5664,1721.9194 Q320.9521,1722.5918 319.7651,1722.6997 Q321.1846,1722.8408 321.9026,1723.6543 Q322.6206,1724.4678 322.6206,1725.9287 Q322.6206,1727.7217 321.5415,1728.5269 Q320.4624,1729.332 318.0303,1729.332 L314.0376,1729.332 Z "/><text fill="#000000" font-family="sans-serif" font-size="12" lengthAdjust="spacingAndGlyphs" textLength="75" x="332" y="1726.8672">TaskOfOrder</text><line style="stroke: #A80036; stroke-width: 1.5;" x1="304" x2="409" y1="1738.332" y2="1738.332"/><line style="stroke: #A80036; stroke-width: 1.5;" x1="304" x2="409" y1="1746.332" y2="1746.332"/><!--class TaskOfSku--><rect fill="#FEFECE" filter="url(#flz2udp)" height="48" style="stroke: #A80036; stroke-width: 1.5;" width="93" x="310" y="1789.332"/><ellipse cx="325" cy="1805.332" fill="#9197DB" rx="11" ry="11" style="stroke: #A80036; stroke-width: 1.0;"/><path d="M323.4033,1806.7041 L323.4033,1810.373 L325.0303,1810.373 Q326.2007,1810.373 326.6697,1809.9746 Q327.1387,1809.5762 327.1387,1808.5884 Q327.1387,1807.584 326.6489,1807.144 Q326.1592,1806.7041 325.0303,1806.7041 Z M323.4033,1801.873 L323.4033,1804.7534 L325.0303,1804.7534 Q325.96,1804.7534 326.3542,1804.4214 Q326.7485,1804.0894 326.7485,1803.3257 Q326.7485,1802.562 326.3459,1802.2175 Q325.9434,1801.873 325.0303,1801.873 Z M321.0376,1799.9224 L325.0303,1799.9224 Q327.0972,1799.9224 328.1389,1800.7068 Q329.1807,1801.4912 329.1807,1803.0518 Q329.1807,1804.2471 328.5664,1804.9194 Q327.9521,1805.5918 326.7651,1805.6997 Q328.1846,1805.8408 328.9026,1806.6543 Q329.6206,1807.4678 329.6206,1808.9287 Q329.6206,1810.7217 328.5415,1811.5269 Q327.4624,1812.332 325.0303,1812.332 L321.0376,1812.332 Z "/><text fill="#000000" font-family="sans-serif" font-size="12" lengthAdjust="spacingAndGlyphs" textLength="61" x="339" y="1809.8672">TaskOfSku</text><line style="stroke: #A80036; stroke-width: 1.5;" x1="311" x2="402" y1="1821.332" y2="1821.332"/><line style="stroke: #A80036; stroke-width: 1.5;" x1="311" x2="402" y1="1829.332" y2="1829.332"/><!--class ShippingManifest--><rect fill="#FEFECE" filter="url(#flz2udp)" height="99.8203" style="stroke: #A80036; stroke-width: 1.5;" width="129" x="292" y="1928.332"/><ellipse cx="307" cy="1944.332" fill="#FF7700" rx="11" ry="11" style="stroke: #A80036; stroke-width: 1.0;"/><path d="M307.6987,1944.98 Q308.064,1945.0547 308.3337,1945.3245 Q308.6035,1945.5942 308.9937,1946.3745 L311.2349,1950.832 L308.5454,1950.832 L307.0513,1947.7026 Q306.9849,1947.5698 306.877,1947.3374 Q306.2212,1945.9346 305.333,1945.9346 L304.5527,1945.9346 L304.5527,1950.832 L302.104,1950.832 L302.104,1938.439 L305.6401,1938.439 Q308.0308,1938.439 309.0725,1939.2856 Q310.1143,1940.1323 310.1143,1942.0415 Q310.1143,1943.3198 309.4917,1944.0752 Q308.8691,1944.8306 307.6987,1944.98 Z M304.5527,1940.4976 L304.5527,1943.876 L305.7065,1943.876 Q306.7109,1943.876 307.1467,1943.4817 Q307.5825,1943.0874 307.5825,1942.1826 Q307.5825,1941.2778 307.1509,1940.8877 Q306.7192,1940.4976 305.7065,1940.4976 Z "/><text fill="#000000" font-family="sans-serif" font-size="12" lengthAdjust="spacingAndGlyphs" textLength="97" x="321" y="1948.8672">ShippingManifest</text><line style="stroke: #A80036; stroke-width: 1.5;" x1="293" x2="420" y1="1960.332" y2="1960.332"/><text fill="#000000" font-family="sans-serif" font-size="11" lengthAdjust="spacingAndGlyphs" textLength="51" x="298" y="1991.9219">carrierNo</text><line style="stroke: #A80036; stroke-width: 1.5;" x1="293" x2="330" y1="1974.8096" y2="1974.8096"/><text fill="#000000" font-family="sans-serif" font-size="11" lengthAdjust="spacingAndGlyphs" textLength="53" x="330" y="1978.4668">Structural</text><line style="stroke: #A80036; stroke-width: 1.5;" x1="383" x2="420" y1="1974.8096" y2="1974.8096"/><text fill="#000000" font-family="sans-serif" font-size="11" lengthAdjust="spacingAndGlyphs" textLength="38" x="298" y="2021.832">extInfo</text><line style="stroke: #A80036; stroke-width: 1.5;" x1="293" x2="332" y1="2004.7197" y2="2004.7197"/><text fill="#000000" font-family="sans-serif" font-size="11" lengthAdjust="spacingAndGlyphs" textLength="49" x="332" y="2008.377">Reserved</text><line style="stroke: #A80036; stroke-width: 1.5;" x1="381" x2="420" y1="2004.7197" y2="2004.7197"/><!--class ManualCheckAppService--><rect fill="#FEFECE" filter="url(#flz2udp)" height="138.6855" style="stroke: #A80036; stroke-width: 1.5;" width="637" x="38" y="263.832"/><ellipse cx="282.25" cy="279.832" fill="#ADD1B2" rx="11" ry="11" style="stroke: #A80036; stroke-width: 1.0;"/><path d="M284.7231,285.9751 Q284.1421,286.2739 283.5029,286.4233 Q282.8638,286.5728 282.1582,286.5728 Q279.6514,286.5728 278.3315,284.9209 Q277.0117,283.269 277.0117,280.1479 Q277.0117,277.0186 278.3315,275.3667 Q279.6514,273.7148 282.1582,273.7148 Q282.8638,273.7148 283.5112,273.8643 Q284.1587,274.0137 284.7231,274.3125 L284.7231,277.0352 Q284.0923,276.4541 283.4988,276.1843 Q282.9053,275.9146 282.2744,275.9146 Q280.9297,275.9146 280.2449,276.9812 Q279.5601,278.0479 279.5601,280.1479 Q279.5601,282.2397 280.2449,283.3064 Q280.9297,284.373 282.2744,284.373 Q282.9053,284.373 283.4988,284.1033 Q284.0923,283.8335 284.7231,283.2524 Z "/><text fill="#000000" font-family="sans-serif" font-size="12" lengthAdjust="spacingAndGlyphs" textLength="140" x="302.75" y="284.3672">ManualCheckAppService</text><line style="stroke: #A80036; stroke-width: 1.5;" x1="39" x2="674" y1="295.832" y2="295.832"/><line style="stroke: #A80036; stroke-width: 1.5;" x1="39" x2="674" y1="303.832" y2="303.832"/><text fill="#000000" font-family="sans-serif" font-size="11" lengthAdjust="spacingAndGlyphs" textLength="338" x="44" y="318.4668">recommendPlatform(taskNo) 拣货员应该去哪一个复核台进行复核?</text><text fill="#000000" font-family="sans-serif" font-size="11" lengthAdjust="spacingAndGlyphs" textLength="276" x="44" y="331.4219">claimTask(containerNo) 复核员扫描容器领取复核任务.</text><text fill="#000000" font-family="sans-serif" font-size="11" lengthAdjust="spacingAndGlyphs" textLength="390" x="44" y="344.377">confirmQty(orderNo,qty,skuNo,taskNo) 操作员(复核员)清点并确认货品数量.</text><text fill="#000000" font-family="sans-serif" font-size="11" lengthAdjust="spacingAndGlyphs" textLength="168" x="44" y="357.332">pause(orderNo) 暂停一个出库单.</text><text fill="#000000" font-family="sans-serif" font-size="11" lengthAdjust="spacingAndGlyphs" textLength="209" x="44" y="370.2871">resume(orderNo) 恢复一个出库单的执行.</text><text fill="#000000" font-family="sans-serif" font-size="11" lengthAdjust="spacingAndGlyphs" textLength="190" x="44" y="383.2422">recheck(cartonNo,taskNo) 重新复核.</text><text fill="#000000" font-family="sans-serif" font-size="11" lengthAdjust="spacingAndGlyphs" textLength="625" x="44" y="396.1973">cartonFull(cartonNo,consumables,orderNo) 复核员把拣货容器的货品放入箱，并使用耗材以便运输安全，该过程发现箱已满.</text><!--class TaskSubmittedConsumer--><rect fill="#FEFECE" filter="url(#flz2udp)" height="60.9551" style="stroke: #A80036; stroke-width: 1.5;" width="176" x="268.5" y="437.832"/><ellipse cx="283.5" cy="453.832" fill="#ADD1B2" rx="11" ry="11" style="stroke: #A80036; stroke-width: 1.0;"/><path d="M285.9731,459.9751 Q285.3921,460.2739 284.7529,460.4233 Q284.1138,460.5728 283.4082,460.5728 Q280.9014,460.5728 279.5815,458.9209 Q278.2617,457.269 278.2617,454.1479 Q278.2617,451.0186 279.5815,449.3667 Q280.9014,447.7148 283.4082,447.7148 Q284.1138,447.7148 284.7612,447.8643 Q285.4087,448.0137 285.9731,448.3125 L285.9731,451.0352 Q285.3423,450.4541 284.7488,450.1843 Q284.1553,449.9146 283.5244,449.9146 Q282.1797,449.9146 281.4949,450.9812 Q280.8101,452.0479 280.8101,454.1479 Q280.8101,456.2397 281.4949,457.3064 Q282.1797,458.373 283.5244,458.373 Q284.1553,458.373 284.7488,458.1033 Q285.3423,457.8335 285.9731,457.2524 Z "/><text fill="#000000" font-family="sans-serif" font-size="12" lengthAdjust="spacingAndGlyphs" textLength="144" x="297.5" y="458.3672">TaskSubmittedConsumer</text><line style="stroke: #A80036; stroke-width: 1.5;" x1="269.5" x2="443.5" y1="469.832" y2="469.832"/><line style="stroke: #A80036; stroke-width: 1.5;" x1="269.5" x2="443.5" y1="477.832" y2="477.832"/><text fill="#000000" font-family="sans-serif" font-size="11" lengthAdjust="spacingAndGlyphs" textLength="119" x="274.5" y="492.4668">消费接收复核任务(json)</text><!--class RecommendPlatformFlow--><rect fill="#FEFECE" filter="url(#flz2udp)" height="60.9551" style="stroke: #A80036; stroke-width: 1.5;" width="216" x="248.5" y="110.832"/><ellipse cx="281.05" cy="126.832" fill="#ADD1B2" rx="11" ry="11" style="stroke: #A80036; stroke-width: 1.0;"/><path d="M283.5231,132.9751 Q282.9421,133.2739 282.3029,133.4233 Q281.6638,133.5728 280.9582,133.5728 Q278.4514,133.5728 277.1315,131.9209 Q275.8117,130.269 275.8117,127.1479 Q275.8117,124.0186 277.1315,122.3667 Q278.4514,120.7148 280.9582,120.7148 Q281.6638,120.7148 282.3112,120.8643 Q282.9587,121.0137 283.5231,121.3125 L283.5231,124.0352 Q282.8923,123.4541 282.2988,123.1843 Q281.7053,122.9146 281.0744,122.9146 Q279.7297,122.9146 279.0449,123.9812 Q278.3601,125.0479 278.3601,127.1479 Q278.3601,129.2397 279.0449,130.3064 Q279.7297,131.373 281.0744,131.373 Q281.7053,131.373 282.2988,131.1033 Q282.8923,130.8335 283.5231,130.2524 Z "/><text fill="#000000" font-family="sans-serif" font-size="12" lengthAdjust="spacingAndGlyphs" textLength="145" x="298.95" y="131.3672">RecommendPlatformFlow</text><line style="stroke: #A80036; stroke-width: 1.5;" x1="249.5" x2="463.5" y1="142.832" y2="142.832"/><line style="stroke: #A80036; stroke-width: 1.5;" x1="249.5" x2="463.5" y1="150.832" y2="150.832"/><text fill="#000000" font-family="sans-serif" font-size="11" lengthAdjust="spacingAndGlyphs" textLength="204" x="254.5" y="165.4668">execute(RecommendPlatformRequest)</text><path d="M2483.16,1312.942 C2550.39,1310.892 2625.12,1308.612 2684.9,1306.782 " fill="none" style="stroke: #A80036; stroke-width: 1.0;"/><polygon fill="#A80036" points="2469.82,1313.352,2475.936,1317.1723,2481.8147,1312.9961,2475.6987,1309.1758,2469.82,1313.352" style="stroke: #A80036; stroke-width: 1.0;"/><text fill="#000000" font-family="sans-serif" font-size="13" lengthAdjust="spacingAndGlyphs" textLength="49" x="2538" y="1306.9004">HasOne</text><text fill="#000000" font-family="sans-serif" font-size="13" lengthAdjust="spacingAndGlyphs" textLength="8" x="2477.6015" y="1326.1413">1</text><text fill="#000000" font-family="sans-serif" font-size="13" lengthAdjust="spacingAndGlyphs" textLength="8" x="2668.9652" y="1320.0995">1</text><path d="M2482.83,1353.492 C2566.18,1370.112 2661.14,1389.042 2724.85,1401.742 " fill="none" style="stroke: #A80036; stroke-width: 1.0;"/><polygon fill="#FFFFFF" points="2469.82,1350.892,2474.9223,1355.9878,2481.5885,1353.2378,2476.4862,1348.1421,2469.82,1350.892" style="stroke: #A80036; stroke-width: 1.0;"/><text fill="#000000" font-family="sans-serif" font-size="13" lengthAdjust="spacingAndGlyphs" textLength="61" x="2532" y="1361.9004">Associate</text><path d="M2470.53,1222.742 C2558.8,1171.312 2662.99,1110.592 2729.97,1071.562 " fill="none" style="stroke: #A80036; stroke-width: 1.0;"/><polygon fill="#A80036" points="2459.29,1229.292,2466.4881,1229.7245,2469.6558,1223.2464,2462.4577,1222.8139,2459.29,1229.292" style="stroke: #A80036; stroke-width: 1.0;"/><text fill="#000000" font-family="sans-serif" font-size="13" lengthAdjust="spacingAndGlyphs" textLength="57" x="2534" y="1154.9004">HasMany</text><text fill="#000000" font-family="sans-serif" font-size="13" lengthAdjust="spacingAndGlyphs" textLength="8" x="2477.0352" y="1227.7984">1</text><text fill="#000000" font-family="sans-serif" font-size="13" lengthAdjust="spacingAndGlyphs" textLength="10" x="2711.8183" y="1089.3681">N</text><path d="M2926.15,1303.332 C2986.11,1303.332 3056.32,1303.332 3110.43,1303.332 " fill="none" style="stroke: #A80036; stroke-width: 1.0;"/><polygon fill="#A80036" points="2913.13,1303.332,2919.13,1307.332,2925.13,1303.332,2919.13,1299.332,2913.13,1303.332" style="stroke: #A80036; stroke-width: 1.0;"/><text fill="#000000" font-family="sans-serif" font-size="13" lengthAdjust="spacingAndGlyphs" textLength="57" x="2997.5" y="1299.9004">HasMany</text><text fill="#000000" font-family="sans-serif" font-size="13" lengthAdjust="spacingAndGlyphs" textLength="8" x="2921.3053" y="1317.0314">1</text><text fill="#000000" font-family="sans-serif" font-size="13" lengthAdjust="spacingAndGlyphs" textLength="10" x="3092.3888" y="1316.5584">N</text><path d="M1915.14,743.832 C2009.62,745.162 2145.5,747.072 2229.5,748.262 " fill="none" style="stroke: #A80036; stroke-width: 1.0;"/><polygon fill="#A80036" points="1902.1,743.642,1908.0423,747.7273,1914.0988,743.8134,1908.1565,739.7281,1902.1,743.642" style="stroke: #A80036; stroke-width: 1.0;"/><text fill="#000000" font-family="sans-serif" font-size="13" lengthAdjust="spacingAndGlyphs" textLength="49" x="2028" y="742.9004">HasOne</text><text fill="#000000" font-family="sans-serif" font-size="13" lengthAdjust="spacingAndGlyphs" textLength="8" x="1910.1491" y="757.7306">1</text><text fill="#000000" font-family="sans-serif" font-size="13" lengthAdjust="spacingAndGlyphs" textLength="8" x="2213.5758" y="761.4786">1</text><path d="M2836.05,817.582 C2880.57,859.892 2950.5,926.332 2950.5,926.332 C2950.5,926.332 3069.34,1106.982 3142.49,1218.182 " fill="none" style="stroke: #A80036; stroke-width: 1.0;"/><polygon fill="none" points="3148.45,1214.502,3153.59,1235.062,3136.75,1222.202,3148.45,1214.502" style="stroke: #A80036; stroke-width: 1.0;"/><text fill="#000000" font-family="sans-serif" font-size="13" lengthAdjust="spacingAndGlyphs" textLength="58" x="2997" y="995.9004">BelongTo</text><path d="M2395.53,755.432 C2492.46,762.152 2646.06,772.802 2732.78,778.812 " fill="none" style="stroke: #A80036; stroke-width: 1.0;"/><polygon fill="#A80036" points="2382.53,754.532,2388.2387,758.9377,2394.5012,755.3626,2388.7925,750.9569,2382.53,754.532" style="stroke: #A80036; stroke-width: 1.0;"/><text fill="#000000" font-family="sans-serif" font-size="13" lengthAdjust="spacingAndGlyphs" textLength="57" x="2534" y="761.9004">HasMany</text><text fill="#000000" font-family="sans-serif" font-size="13" lengthAdjust="spacingAndGlyphs" textLength="8" x="2390.3959" y="769.9125">1</text><text fill="#000000" font-family="sans-serif" font-size="13" lengthAdjust="spacingAndGlyphs" textLength="10" x="2714.9903" y="791.7282">N</text><path d="M1122.2,1310.602 C1195.67,1303.312 1286.08,1294.342 1340,1288.992 " fill="none" style="stroke: #A80036; stroke-width: 1.0;"/><polygon fill="#A80036" points="1109.16,1311.902,1115.526,1315.2893,1121.1012,1310.7158,1114.7352,1307.3285,1109.16,1311.902" style="stroke: #A80036; stroke-width: 1.0;"/><text fill="#000000" font-family="sans-serif" font-size="13" lengthAdjust="spacingAndGlyphs" textLength="57" x="1164" y="1297.9004">HasMany</text><text fill="#000000" font-family="sans-serif" font-size="13" lengthAdjust="spacingAndGlyphs" textLength="8" x="1116.8033" y="1324.0524">1</text><text fill="#000000" font-family="sans-serif" font-size="13" lengthAdjust="spacingAndGlyphs" textLength="10" x="1321.9609" y="1303.4668">N</text><path d="M1078.32,1174.132 C1154.15,1160.672 1269.81,1140.142 1335.91,1128.402 " fill="none" style="stroke: #A80036; stroke-width: 1.0;"/><polygon fill="#A80036" points="1065.11,1176.482,1071.7166,1179.3721,1076.9254,1174.3853,1070.3188,1171.4952,1065.11,1176.482" style="stroke: #A80036; stroke-width: 1.0;"/><text fill="#000000" font-family="sans-serif" font-size="13" lengthAdjust="spacingAndGlyphs" textLength="57" x="1164" y="1145.9004">HasMany</text><text fill="#000000" font-family="sans-serif" font-size="13" lengthAdjust="spacingAndGlyphs" textLength="8" x="1072.7271" y="1188.1918">1</text><text fill="#000000" font-family="sans-serif" font-size="13" lengthAdjust="spacingAndGlyphs" textLength="10" x="1317.952" y="1143.3224">N</text><path d="M1439.01,1119.332 C1510.9,1119.332 1644.13,1119.332 1729.03,1119.332 " fill="none" style="stroke: #A80036; stroke-width: 1.0;"/><polygon fill="none" points="1729.24,1112.332,1749.24,1119.332,1729.24,1126.332,1729.24,1112.332" style="stroke: #A80036; stroke-width: 1.0;"/><text fill="#000000" font-family="sans-serif" font-size="13" lengthAdjust="spacingAndGlyphs" textLength="50" x="1556.5" y="1115.9004">Extends</text><path d="M391.7,1329.082 C495.18,1394.912 806.05,1592.682 939.75,1677.732 " fill="none" style="stroke: #A80036; stroke-width: 1.0;"/><polygon fill="none" points="943.54,1671.842,956.66,1688.482,936.02,1683.662,943.54,1671.842" style="stroke: #A80036; stroke-width: 1.0;"/><text fill="#000000" font-family="sans-serif" font-size="13" lengthAdjust="spacingAndGlyphs" textLength="58" x="746" y="1533.9004">BelongTo</text><path d="M391.7,1313.332 C524.94,1336.692 1002,1420.332 1002,1420.332 C1002,1420.332 1002,1420.332 1809,1420.332 C1809,1420.332 1980.35,1385.062 2121.53,1356.002 " fill="none" style="stroke: #A80036; stroke-width: 1.0;"/><polygon fill="none" points="2120.22,1349.122,2141.23,1351.942,2123.05,1362.832,2120.22,1349.122" style="stroke: #A80036; stroke-width: 1.0;"/><text fill="#000000" font-family="sans-serif" font-size="13" lengthAdjust="spacingAndGlyphs" textLength="58" x="1358" y="1416.9004">BelongTo</text><path d="M391.72,1295.252 C506.86,1254.602 873,1125.332 873,1125.332 C873,1125.332 915.92,1111.692 952.24,1100.152 " fill="none" style="stroke: #A80036; stroke-width: 1.0;"/><polygon fill="none" points="950.25,1093.432,971.43,1094.052,954.49,1106.782,950.25,1093.432" style="stroke: #A80036; stroke-width: 1.0;"/><text fill="#000000" font-family="sans-serif" font-size="13" lengthAdjust="spacingAndGlyphs" textLength="134" x="708" y="1134.9004">BelongTo/Contextual</text><path d="M404.99,1308.442 C508.15,1310.842 754.84,1316.582 896.72,1319.882 " fill="none" style="stroke: #A80036; stroke-width: 1.0;"/><polygon fill="#A80036" points="391.7,1308.132,397.6061,1312.2694,403.6968,1308.4089,397.7907,1304.2715,391.7,1308.132" style="stroke: #A80036; stroke-width: 1.0;"/><text fill="#000000" font-family="sans-serif" font-size="13" lengthAdjust="spacingAndGlyphs" textLength="49" x="750.5" y="1312.9004">HasOne</text><text fill="#000000" font-family="sans-serif" font-size="13" lengthAdjust="spacingAndGlyphs" textLength="8" x="399.69" y="1325.0798">1</text><text fill="#000000" font-family="sans-serif" font-size="13" lengthAdjust="spacingAndGlyphs" textLength="8" x="880.9659" y="1332.8195">1</text><path d="M404.79,1298.532 C519.59,1277.152 812.98,1222.522 940.86,1198.712 " fill="none" style="stroke: #A80036; stroke-width: 1.0;"/><polygon fill="#A80036" points="391.7,1300.962,398.3319,1303.7936,403.4964,1298.7609,396.8645,1295.9293,391.7,1300.962" style="stroke: #A80036; stroke-width: 1.0;"/><text fill="#000000" font-family="sans-serif" font-size="13" lengthAdjust="spacingAndGlyphs" textLength="49" x="750.5" y="1216.9004">HasOne</text><text fill="#000000" font-family="sans-serif" font-size="13" lengthAdjust="spacingAndGlyphs" textLength="8" x="399.4175" y="1313.8011">1</text><text fill="#000000" font-family="sans-serif" font-size="13" lengthAdjust="spacingAndGlyphs" textLength="8" x="924.7992" y="1213.6003">1</text><path d="M2872.07,1643.322 C2941.78,1570.712 3047.84,1460.242 3120.01,1385.082 " fill="none" style="stroke: #A80036; stroke-width: 1.0;"/><polygon fill="none" points="3115.07,1380.122,3133.97,1370.542,3125.17,1389.822,3115.07,1380.122" style="stroke: #A80036; stroke-width: 1.0;"/><text fill="#000000" font-family="sans-serif" font-size="13" lengthAdjust="spacingAndGlyphs" textLength="58" x="2997" y="1457.9004">BelongTo</text><path d="M410.24,1729.272 C527.31,1726.902 808.59,1721.232 936.59,1718.652 " fill="none" style="stroke: #A80036; stroke-width: 1.0;"/><polygon fill="none" points="936.71,1711.652,956.85,1718.242,937,1725.642,936.71,1711.652" style="stroke: #A80036; stroke-width: 1.0;"/><text fill="#000000" font-family="sans-serif" font-size="13" lengthAdjust="spacingAndGlyphs" textLength="69" x="740.5" y="1716.9004">Contextual</text><path d="M2417.81,1717.332 C2502.99,1717.332 2619.32,1717.332 2700.99,1717.332 " fill="none" style="stroke: #A80036; stroke-width: 1.0;"/><polygon fill="#A80036" points="2404.69,1717.332,2410.69,1721.332,2416.69,1717.332,2410.69,1713.332,2404.69,1717.332" style="stroke: #A80036; stroke-width: 1.0;"/><text fill="#000000" font-family="sans-serif" font-size="13" lengthAdjust="spacingAndGlyphs" textLength="57" x="2534" y="1713.9004">HasMany</text><text fill="#000000" font-family="sans-serif" font-size="13" lengthAdjust="spacingAndGlyphs" textLength="8" x="2412.4558" y="1731.1832">1</text><text fill="#000000" font-family="sans-serif" font-size="13" lengthAdjust="spacingAndGlyphs" textLength="10" x="2683.065" y="1730.4501">N</text><path d="M1891.39,1717.332 C1977.71,1717.332 2114.08,1717.332 2206.31,1717.332 " fill="none" style="stroke: #A80036; stroke-width: 1.0;"/><polygon fill="#A80036" points="1878.24,1717.332,1884.24,1721.332,1890.24,1717.332,1884.24,1713.332,1878.24,1717.332" style="stroke: #A80036; stroke-width: 1.0;"/><text fill="#000000" font-family="sans-serif" font-size="13" lengthAdjust="spacingAndGlyphs" textLength="49" x="2028" y="1713.9004">HasOne</text><text fill="#000000" font-family="sans-serif" font-size="13" lengthAdjust="spacingAndGlyphs" textLength="8" x="1886.2641" y="1731.7559">1</text><text fill="#000000" font-family="sans-serif" font-size="13" lengthAdjust="spacingAndGlyphs" textLength="8" x="2190.4095" y="1730.4934">1</text><path d="M403.2,1807.842 C496.26,1796.672 699,1772.332 699,1772.332 C699,1772.332 843,1747.332 843,1747.332 C843,1747.332 893.05,1737.892 936.99,1729.602 " fill="none" style="stroke: #A80036; stroke-width: 1.0;"/><polygon fill="none" points="935.91,1722.682,956.86,1725.852,938.51,1736.432,935.91,1722.682" style="stroke: #A80036; stroke-width: 1.0;"/><text fill="#000000" font-family="sans-serif" font-size="13" lengthAdjust="spacingAndGlyphs" textLength="69" x="740.5" y="1743.9004">Contextual</text><path d="M1062.66,1717.332 C1119.22,1717.332 1206.23,1717.332 1275.75,1717.332 " fill="none" style="stroke: #A80036; stroke-width: 1.0;"/><polygon fill="#A80036" points="1049.32,1717.332,1055.32,1721.332,1061.32,1717.332,1055.32,1713.332,1049.32,1717.332" style="stroke: #A80036; stroke-width: 1.0;"/><text fill="#000000" font-family="sans-serif" font-size="13" lengthAdjust="spacingAndGlyphs" textLength="49" x="1168" y="1713.9004">HasOne</text><text fill="#000000" font-family="sans-serif" font-size="13" lengthAdjust="spacingAndGlyphs" textLength="8" x="1056.9255" y="1732.5479">1</text><text fill="#000000" font-family="sans-serif" font-size="13" lengthAdjust="spacingAndGlyphs" textLength="8" x="1260.0066" y="1730.4238">1</text><path d="M420.97,1653.612 C552.57,1666.622 843,1695.332 843,1695.332 C843,1695.332 893.05,1702.262 936.99,1708.332 " fill="none" style="stroke: #A80036; stroke-width: 1.0;"/><polygon fill="none" points="938.01,1701.412,956.86,1711.082,936.09,1715.282,938.01,1701.412" style="stroke: #A80036; stroke-width: 1.0;"/><text fill="#000000" font-family="sans-serif" font-size="13" lengthAdjust="spacingAndGlyphs" textLength="69" x="740.5" y="1678.9004">Contextual</text><path d="M1511.23,1717.332 C1585.39,1717.332 1677.06,1717.332 1738.73,1717.332 " fill="none" style="stroke: #A80036; stroke-width: 1.0;"/><polygon fill="#A80036" points="1498.08,1717.332,1504.08,1721.332,1510.08,1717.332,1504.08,1713.332,1498.08,1717.332" style="stroke: #A80036; stroke-width: 1.0;"/><text fill="#000000" font-family="sans-serif" font-size="13" lengthAdjust="spacingAndGlyphs" textLength="57" x="1553" y="1713.9004">HasMany</text><text fill="#000000" font-family="sans-serif" font-size="13" lengthAdjust="spacingAndGlyphs" textLength="8" x="1505.8074" y="1731.0446">1</text><text fill="#000000" font-family="sans-serif" font-size="13" lengthAdjust="spacingAndGlyphs" textLength="10" x="1721.0193" y="1730.6854">N</text><text fill="#888888" font-family="sans-serif" font-size="10" lengthAdjust="spacingAndGlyphs" textLength="108" x="1638.5" y="2104">generated by DDDplus</text></g></svg>