<?xml version="1.0" encoding="UTF-8" standalone="no"?><svg xmlns="http://www.w3.org/2000/svg" xmlns:xlink="http://www.w3.org/1999/xlink" contentScriptType="application/ecmascript" contentStyleType="text/css" height="1826px" preserveAspectRatio="none" style="width:3378px;height:1826px;" version="1.1" viewBox="0 0 3378 1826" width="3378px" zoomAndPan="magnify"><defs><filter height="300%" id="fqaa9mp" width="300%" x="-1" y="-1"><feGaussianBlur result="blurOut" stdDeviation="2.0"/><feColorMatrix in="blurOut" result="blurOut2" type="matrix" values="0 0 0 0 0 0 0 0 0 0 0 0 0 0 0 0 0 0 .4 0"/><feOffset dx="4.0" dy="4.0" in="blurOut2" result="blurOut3"/><feBlend in="SourceGraphic" in2="blurOut3" mode="normal"/></filter></defs><g><text fill="#888888" font-family="sans-serif" font-size="10" lengthAdjust="spacingAndGlyphs" textLength="182" x="3195" y="9.668">公共类：48，标注：22，覆盖率：45.8%</text><text fill="#888888" font-family="sans-serif" font-size="10" lengthAdjust="spacingAndGlyphs" textLength="192" x="3185" y="21.4453">公共方法：82，标注：35，覆盖率：42.7%</text><text fill="#888888" font-family="sans-serif" font-size="10" lengthAdjust="spacingAndGlyphs" textLength="198" x="3179" y="33.2227">字段属性：138，标注：31，覆盖率：22.5%</text><!--cluster 业务模型--><polygon fill="#FFFFFF" filter="url(#fqaa9mp)" points="191,539.332,253,539.332,260,561.8203,3343,561.8203,3343,1789.332,191,1789.332,191,539.332" style="stroke: #000000; stroke-width: 2.0;"/><line style="stroke: #000000; stroke-width: 2.0;" x1="191" x2="260" y1="561.8203" y2="561.8203"/><text fill="#000000" font-family="sans-serif" font-size="14" font-weight="bold" lengthAdjust="spacingAndGlyphs" textLength="56" x="195" y="554.8672">业务模型</text><!--cluster Aggregate：客户出库单--><polygon fill="#FFFFFF" filter="url(#fqaa9mp)" points="2086,582.332,2249,582.332,2256,604.8203,3319,604.8203,3319,972.332,2086,972.332,2086,582.332" style="stroke: #000000; stroke-width: 2.0;"/><line style="stroke: #000000; stroke-width: 2.0;" x1="2086" x2="2256" y1="604.8203" y2="604.8203"/><text fill="#000000" font-family="sans-serif" font-size="14" font-weight="bold" lengthAdjust="spacingAndGlyphs" textLength="157" x="2090" y="597.8672">Aggregate：客户出库单</text><text fill="#000000" font-family="sans-serif" font-size="14" font-style="italic" lengthAdjust="spacingAndGlyphs" textLength="277" x="2568" y="620.3555">«ddd.plus.showcase.wms.domain.order»</text><!--cluster Aggregate：包裹--><polygon fill="#FFFFFF" filter="url(#fqaa9mp)" points="2647.5,996.332,2768.5,996.332,2775.5,1018.8203,2934.5,1018.8203,2934.5,1239.332,2647.5,1239.332,2647.5,996.332" style="stroke: #000000; stroke-width: 2.0;"/><line style="stroke: #000000; stroke-width: 2.0;" x1="2647.5" x2="2775.5" y1="1018.8203" y2="1018.8203"/><text fill="#000000" font-family="sans-serif" font-size="14" font-weight="bold" lengthAdjust="spacingAndGlyphs" textLength="115" x="2651.5" y="1011.8672">Aggregate：包裹</text><text fill="#000000" font-family="sans-serif" font-size="14" font-style="italic" lengthAdjust="spacingAndGlyphs" textLength="271" x="2659.5" y="1034.3555">«ddd.plus.showcase.wms.domain.pack»</text><!--cluster Aggregate：装箱--><polygon fill="#FFFFFF" filter="url(#fqaa9mp)" points="281.5,692.332,402.5,692.332,409.5,714.8203,1447.5,714.8203,1447.5,1075.332,281.5,1075.332,281.5,692.332" style="stroke: #000000; stroke-width: 2.0;"/><line style="stroke: #000000; stroke-width: 2.0;" x1="281.5" x2="409.5" y1="714.8203" y2="714.8203"/><text fill="#000000" font-family="sans-serif" font-size="14" font-weight="bold" lengthAdjust="spacingAndGlyphs" textLength="115" x="285.5" y="707.8672">Aggregate：装箱</text><text fill="#000000" font-family="sans-serif" font-size="14" font-style="italic" lengthAdjust="spacingAndGlyphs" textLength="283" x="727" y="730.3555">«ddd.plus.showcase.wms.domain.carton»</text><!--cluster Aggregate：通用子域--><polygon fill="#FFFFFF" filter="url(#fqaa9mp)" points="1642,698.332,1791,698.332,1798,720.8203,1957,720.8203,1957,871.332,1642,871.332,1642,698.332" style="stroke: #000000; stroke-width: 2.0;"/><line style="stroke: #000000; stroke-width: 2.0;" x1="1642" x2="1798" y1="720.8203" y2="720.8203"/><text fill="#000000" font-family="sans-serif" font-size="14" font-weight="bold" lengthAdjust="spacingAndGlyphs" textLength="143" x="1646" y="713.8672">Aggregate：通用子域</text><text fill="#000000" font-family="sans-serif" font-size="14" font-style="italic" lengthAdjust="spacingAndGlyphs" textLength="299" x="1654" y="736.3555">«ddd.plus.showcase.wms.domain.common»</text><!--cluster Aggregate：出库复核任务--><polygon fill="#FFFFFF" filter="url(#fqaa9mp)" points="276.5,1263.332,453.5,1263.332,460.5,1285.8203,2929.5,1285.8203,2929.5,1574.332,276.5,1574.332,276.5,1263.332" style="stroke: #000000; stroke-width: 2.0;"/><line style="stroke: #000000; stroke-width: 2.0;" x1="276.5" x2="460.5" y1="1285.8203" y2="1285.8203"/><text fill="#000000" font-family="sans-serif" font-size="14" font-weight="bold" lengthAdjust="spacingAndGlyphs" textLength="171" x="280.5" y="1278.8672">Aggregate：出库复核任务</text><text fill="#000000" font-family="sans-serif" font-size="14" font-style="italic" lengthAdjust="spacingAndGlyphs" textLength="267" x="1473.5" y="1301.3555">«ddd.plus.showcase.wms.domain.fooTask»</text><!--cluster Aggregate：发货--><polygon fill="#FFFFFF" filter="url(#fqaa9mp)" points="215,1598.332,336,1598.332,343,1620.8203,499,1620.8203,499,1765.332,215,1765.332,215,1598.332" style="stroke: #000000; stroke-width: 2.0;"/><line style="stroke: #000000; stroke-width: 2.0;" x1="215" x2="343" y1="1620.8203" y2="1620.8203"/><text fill="#000000" font-family="sans-serif" font-size="14" font-weight="bold" lengthAdjust="spacingAndGlyphs" textLength="115" x="219" y="1613.8672">Aggregate：发货</text><text fill="#000000" font-family="sans-serif" font-size="14" font-style="italic" lengthAdjust="spacingAndGlyphs" textLength="268" x="227" y="1636.3555">«ddd.plus.showcase.wms.domain.ship»</text><!--cluster 交互--><polygon fill="#FFFFFF" filter="url(#fqaa9mp)" points="22,212.332,56,212.332,63,234.8203,691,234.8203,691,515.332,22,515.332,22,212.332" style="stroke: #000000; stroke-width: 2.0;"/><line style="stroke: #000000; stroke-width: 2.0;" x1="22" x2="63" y1="234.8203" y2="234.8203"/><text fill="#000000" font-family="sans-serif" font-size="14" font-weight="bold" lengthAdjust="spacingAndGlyphs" textLength="28" x="26" y="227.8672">交互</text><text fill="#000000" font-family="sans-serif" font-size="14" font-style="italic" lengthAdjust="spacingAndGlyphs" textLength="72" x="324.5" y="250.3555">«UseCase»</text><!--cluster 跨聚合复杂流程--><polygon fill="#FFFFFF" filter="url(#fqaa9mp)" points="232.5,59.332,336.5,59.332,343.5,81.8203,480.5,81.8203,480.5,188.332,232.5,188.332,232.5,59.332" style="stroke: #000000; stroke-width: 2.0;"/><line style="stroke: #000000; stroke-width: 2.0;" x1="232.5" x2="343.5" y1="81.8203" y2="81.8203"/><text fill="#000000" font-family="sans-serif" font-size="14" font-weight="bold" lengthAdjust="spacingAndGlyphs" textLength="98" x="236.5" y="74.8672">跨聚合复杂流程</text><text fill="#000000" font-family="sans-serif" font-size="14" font-style="italic" lengthAdjust="spacingAndGlyphs" textLength="125" x="298" y="97.3555">«Orphan Services»</text><!--class Order--><rect fill="#FEFECE" filter="url(#fqaa9mp)" height="178.8613" style="stroke: #A80036; stroke-width: 1.5;" width="328" x="2133.5" y="653.332"/><ellipse cx="2251.25" cy="672.4648" fill="#FF7700" rx="11" ry="11" style="stroke: #A80036; stroke-width: 1.0;"/><path d="M2251.9487,673.1128 Q2252.314,673.1875 2252.5837,673.4573 Q2252.8535,673.7271 2253.2437,674.5073 L2255.4849,678.9648 L2252.7954,678.9648 L2251.3013,675.8354 Q2251.2349,675.7026 2251.127,675.4702 Q2250.4712,674.0674 2249.583,674.0674 L2248.8027,674.0674 L2248.8027,678.9648 L2246.354,678.9648 L2246.354,666.5718 L2249.8901,666.5718 Q2252.2808,666.5718 2253.3225,667.4185 Q2254.3643,668.2651 2254.3643,670.1743 Q2254.3643,671.4526 2253.7417,672.208 Q2253.1191,672.9634 2251.9487,673.1128 Z M2248.8027,668.6304 L2248.8027,672.0088 L2249.9565,672.0088 Q2250.9609,672.0088 2251.3967,671.6145 Q2251.8325,671.2202 2251.8325,670.3154 Q2251.8325,669.4106 2251.4009,669.0205 Q2250.9692,668.6304 2249.9565,668.6304 Z "/><text fill="#000000" font-family="sans-serif" font-size="12" font-style="italic" lengthAdjust="spacingAndGlyphs" textLength="88" x="2269.75" y="669.9336">«客户的出库单.»</text><text fill="#000000" font-family="sans-serif" font-size="12" lengthAdjust="spacingAndGlyphs" textLength="34" x="2296.75" y="684.0664">Order</text><line style="stroke: #A80036; stroke-width: 1.5;" x1="2134.5" x2="2460.5" y1="691.5977" y2="691.5977"/><text fill="#000000" font-family="sans-serif" font-size="11" lengthAdjust="spacingAndGlyphs" textLength="160" x="2139.5" y="723.1875">OrderStatus ProductionStatus</text><line style="stroke: #A80036; stroke-width: 1.5;" x1="2134.5" x2="2274.5" y1="706.0752" y2="706.0752"/><text fill="#000000" font-family="sans-serif" font-size="11" lengthAdjust="spacingAndGlyphs" textLength="46" x="2274.5" y="709.7324">Lifecycle</text><line style="stroke: #A80036; stroke-width: 1.5;" x1="2320.5" x2="2460.5" y1="706.0752" y2="706.0752"/><text fill="#000000" font-family="sans-serif" font-size="11" lengthAdjust="spacingAndGlyphs" textLength="89" x="2139.5" y="753.0977">OrderConstraint</text><line style="stroke: #A80036; stroke-width: 1.5;" x1="2134.5" x2="2266" y1="735.9854" y2="735.9854"/><text fill="#000000" font-family="sans-serif" font-size="11" lengthAdjust="spacingAndGlyphs" textLength="63" x="2266" y="739.6426">Operational</text><line style="stroke: #A80036; stroke-width: 1.5;" x1="2329" x2="2460.5" y1="735.9854" y2="735.9854"/><text fill="#000000" font-family="sans-serif" font-size="11" lengthAdjust="spacingAndGlyphs" textLength="316" x="2139.5" y="783.0078">recommendedPlatformNo() 该订单已经被推荐到哪一个复核台.</text><line style="stroke: #A80036; stroke-width: 1.5;" x1="2134.5" x2="2286.5" y1="765.8955" y2="765.8955"/><text fill="#000000" font-family="sans-serif" font-size="11" lengthAdjust="spacingAndGlyphs" textLength="22" x="2286.5" y="769.5527">规则</text><line style="stroke: #A80036; stroke-width: 1.5;" x1="2308.5" x2="2460.5" y1="765.8955" y2="765.8955"/><text fill="#000000" font-family="sans-serif" font-size="11" lengthAdjust="spacingAndGlyphs" textLength="40" x="2139.5" y="812.918">pause()</text><text fill="#000000" font-family="sans-serif" font-size="11" lengthAdjust="spacingAndGlyphs" textLength="48" x="2139.5" y="825.873">resume()</text><line style="stroke: #A80036; stroke-width: 1.5;" x1="2134.5" x2="2286.5" y1="795.8057" y2="795.8057"/><text fill="#000000" font-family="sans-serif" font-size="11" lengthAdjust="spacingAndGlyphs" textLength="22" x="2286.5" y="799.4629">行为</text><line style="stroke: #A80036; stroke-width: 1.5;" x1="2308.5" x2="2460.5" y1="795.8057" y2="795.8057"/><!--class Order.OrderCartons--><rect fill="#FEFECE" filter="url(#fqaa9mp)" height="48" style="stroke: #A80036; stroke-width: 1.5;" width="148" x="2717" y="831.332"/><ellipse cx="2732" cy="847.332" fill="#9197DB" rx="11" ry="11" style="stroke: #A80036; stroke-width: 1.0;"/><path d="M2730.4033,848.7041 L2730.4033,852.373 L2732.0303,852.373 Q2733.2007,852.373 2733.6697,851.9746 Q2734.1387,851.5762 2734.1387,850.5884 Q2734.1387,849.584 2733.6489,849.144 Q2733.1592,848.7041 2732.0303,848.7041 Z M2730.4033,843.873 L2730.4033,846.7534 L2732.0303,846.7534 Q2732.96,846.7534 2733.3542,846.4214 Q2733.7485,846.0894 2733.7485,845.3257 Q2733.7485,844.562 2733.3459,844.2175 Q2732.9434,843.873 2732.0303,843.873 Z M2728.0376,841.9224 L2732.0303,841.9224 Q2734.0972,841.9224 2735.1389,842.7068 Q2736.1807,843.4912 2736.1807,845.0518 Q2736.1807,846.2471 2735.5664,846.9194 Q2734.9521,847.5918 2733.7651,847.6997 Q2735.1846,847.8408 2735.9026,848.6543 Q2736.6206,849.4678 2736.6206,850.9287 Q2736.6206,852.7217 2735.5415,853.5269 Q2734.4624,854.332 2732.0303,854.332 L2728.0376,854.332 Z "/><text fill="#000000" font-family="sans-serif" font-size="12" lengthAdjust="spacingAndGlyphs" textLength="116" x="2746" y="851.8672">Order.OrderCartons</text><line style="stroke: #A80036; stroke-width: 1.5;" x1="2718" x2="2864" y1="863.332" y2="863.332"/><line style="stroke: #A80036; stroke-width: 1.5;" x1="2718" x2="2864" y1="871.332" y2="871.332"/><!--class OrderLine--><rect fill="#FEFECE" filter="url(#fqaa9mp)" height="135.9961" style="stroke: #A80036; stroke-width: 1.5;" width="177" x="3102.5" y="738.332"/><ellipse cx="3158.25" cy="757.4648" fill="#ADD1B2" rx="11" ry="11" style="stroke: #A80036; stroke-width: 1.0;"/><path d="M3160.7231,763.6079 Q3160.1421,763.9067 3159.5029,764.0562 Q3158.8638,764.2056 3158.1582,764.2056 Q3155.6514,764.2056 3154.3315,762.5537 Q3153.0117,760.9019 3153.0117,757.7808 Q3153.0117,754.6514 3154.3315,752.9995 Q3155.6514,751.3477 3158.1582,751.3477 Q3158.8638,751.3477 3159.5112,751.4971 Q3160.1587,751.6465 3160.7231,751.9453 L3160.7231,754.668 Q3160.0923,754.0869 3159.4988,753.8171 Q3158.9053,753.5474 3158.2744,753.5474 Q3156.9297,753.5474 3156.2449,754.614 Q3155.5601,755.6807 3155.5601,757.7808 Q3155.5601,759.8726 3156.2449,760.9392 Q3156.9297,762.0059 3158.2744,762.0059 Q3158.9053,762.0059 3159.4988,761.7361 Q3160.0923,761.4663 3160.7231,760.8853 Z "/><text fill="#000000" font-family="sans-serif" font-size="12" font-style="italic" lengthAdjust="spacingAndGlyphs" textLength="52" x="3181.25" y="754.9336">«订单行.»</text><text fill="#000000" font-family="sans-serif" font-size="12" lengthAdjust="spacingAndGlyphs" textLength="57" x="3178.75" y="769.0664">OrderLine</text><line style="stroke: #A80036; stroke-width: 1.5;" x1="3103.5" x2="3278.5" y1="776.5977" y2="776.5977"/><text fill="#000000" font-family="sans-serif" font-size="11" lengthAdjust="spacingAndGlyphs" textLength="91" x="3108.5" y="808.1875">OrderLineNo Sku</text><line style="stroke: #A80036; stroke-width: 1.5;" x1="3103.5" x2="3164.5" y1="791.0752" y2="791.0752"/><text fill="#000000" font-family="sans-serif" font-size="11" lengthAdjust="spacingAndGlyphs" textLength="53" x="3164.5" y="794.7324">Structural</text><line style="stroke: #A80036; stroke-width: 1.5;" x1="3217.5" x2="3278.5" y1="791.0752" y2="791.0752"/><text fill="#000000" font-family="sans-serif" font-size="11" lengthAdjust="spacingAndGlyphs" textLength="165" x="3108.5" y="838.0977">qty/要货量 shortageQty/缺货量</text><line style="stroke: #A80036; stroke-width: 1.5;" x1="3103.5" x2="3168" y1="820.9854" y2="820.9854"/><text fill="#000000" font-family="sans-serif" font-size="11" lengthAdjust="spacingAndGlyphs" textLength="46" x="3168" y="824.6426">Quantity</text><line style="stroke: #A80036; stroke-width: 1.5;" x1="3214" x2="3278.5" y1="820.9854" y2="820.9854"/><text fill="#000000" font-family="sans-serif" font-size="11" lengthAdjust="spacingAndGlyphs" textLength="154" x="3108.5" y="868.0078">expectedQty/要货量-缺货量()</text><line style="stroke: #A80036; stroke-width: 1.5;" x1="3103.5" x2="3180" y1="850.8955" y2="850.8955"/><text fill="#000000" font-family="sans-serif" font-size="11" lengthAdjust="spacingAndGlyphs" textLength="22" x="3180" y="854.5527">规则</text><line style="stroke: #A80036; stroke-width: 1.5;" x1="3202" x2="3278.5" y1="850.8955" y2="850.8955"/><!--class OrderLineBag--><rect fill="#FEFECE" filter="url(#fqaa9mp)" height="69.9102" style="stroke: #A80036; stroke-width: 1.5;" width="228" x="2677" y="707.332"/><ellipse cx="2747.75" cy="723.332" fill="#9197DB" rx="11" ry="11" style="stroke: #A80036; stroke-width: 1.0;"/><path d="M2746.1533,724.7041 L2746.1533,728.373 L2747.7803,728.373 Q2748.9507,728.373 2749.4197,727.9746 Q2749.8887,727.5762 2749.8887,726.5884 Q2749.8887,725.584 2749.3989,725.144 Q2748.9092,724.7041 2747.7803,724.7041 Z M2746.1533,719.873 L2746.1533,722.7534 L2747.7803,722.7534 Q2748.71,722.7534 2749.1042,722.4214 Q2749.4985,722.0894 2749.4985,721.3257 Q2749.4985,720.562 2749.0959,720.2175 Q2748.6934,719.873 2747.7803,719.873 Z M2743.7876,717.9224 L2747.7803,717.9224 Q2749.8472,717.9224 2750.8889,718.7068 Q2751.9307,719.4912 2751.9307,721.0518 Q2751.9307,722.2471 2751.3164,722.9194 Q2750.7021,723.5918 2749.5151,723.6997 Q2750.9346,723.8408 2751.6526,724.6543 Q2752.3706,725.4678 2752.3706,726.9287 Q2752.3706,728.7217 2751.2915,729.5269 Q2750.2124,730.332 2747.7803,730.332 L2743.7876,730.332 Z "/><text fill="#000000" font-family="sans-serif" font-size="12" lengthAdjust="spacingAndGlyphs" textLength="78" x="2768.25" y="727.8672">OrderLineBag</text><line style="stroke: #A80036; stroke-width: 1.5;" x1="2678" x2="2904" y1="739.332" y2="739.332"/><text fill="#000000" font-family="sans-serif" font-size="11" lengthAdjust="spacingAndGlyphs" textLength="216" x="2683" y="770.9219">totalExpectedQty() 期望的总装箱货品件数.</text><line style="stroke: #A80036; stroke-width: 1.5;" x1="2678" x2="2780" y1="753.8096" y2="753.8096"/><text fill="#000000" font-family="sans-serif" font-size="11" lengthAdjust="spacingAndGlyphs" textLength="22" x="2780" y="757.4668">规则</text><line style="stroke: #A80036; stroke-width: 1.5;" x1="2802" x2="2904" y1="753.8096" y2="753.8096"/><!--class OrderBag--><rect fill="#FEFECE" filter="url(#fqaa9mp)" height="69.9102" style="stroke: #A80036; stroke-width: 1.5;" width="391" x="2102" y="886.332"/><ellipse cx="2265.75" cy="902.332" fill="#9197DB" rx="11" ry="11" style="stroke: #A80036; stroke-width: 1.0;"/><path d="M2264.1533,903.7041 L2264.1533,907.373 L2265.7803,907.373 Q2266.9507,907.373 2267.4197,906.9746 Q2267.8887,906.5762 2267.8887,905.5884 Q2267.8887,904.584 2267.3989,904.144 Q2266.9092,903.7041 2265.7803,903.7041 Z M2264.1533,898.873 L2264.1533,901.7534 L2265.7803,901.7534 Q2266.71,901.7534 2267.1042,901.4214 Q2267.4985,901.0894 2267.4985,900.3257 Q2267.4985,899.562 2267.0959,899.2175 Q2266.6934,898.873 2265.7803,898.873 Z M2261.7876,896.9224 L2265.7803,896.9224 Q2267.8472,896.9224 2268.8889,897.7068 Q2269.9307,898.4912 2269.9307,900.0518 Q2269.9307,901.2471 2269.3164,901.9194 Q2268.7021,902.5918 2267.5151,902.6997 Q2268.9346,902.8408 2269.6526,903.6543 Q2270.3706,904.4678 2270.3706,905.9287 Q2270.3706,907.7217 2269.2915,908.5269 Q2268.2124,909.332 2265.7803,909.332 L2261.7876,909.332 Z "/><text fill="#000000" font-family="sans-serif" font-size="12" lengthAdjust="spacingAndGlyphs" textLength="55" x="2286.25" y="906.8672">OrderBag</text><line style="stroke: #A80036; stroke-width: 1.5;" x1="2103" x2="2492" y1="918.332" y2="918.332"/><text fill="#000000" font-family="sans-serif" font-size="11" lengthAdjust="spacingAndGlyphs" textLength="379" x="2108" y="949.9219">subBagOfCanceled() 当前出库单集合里哪些已经在单据中心里被客户取消了.</text><line style="stroke: #A80036; stroke-width: 1.5;" x1="2103" x2="2286.5" y1="932.8096" y2="932.8096"/><text fill="#000000" font-family="sans-serif" font-size="11" lengthAdjust="spacingAndGlyphs" textLength="22" x="2286.5" y="936.4668">行为</text><line style="stroke: #A80036; stroke-width: 1.5;" x1="2308.5" x2="2492" y1="932.8096" y2="932.8096"/><!--class Pack--><rect fill="#FEFECE" filter="url(#fqaa9mp)" height="135.9961" style="stroke: #A80036; stroke-width: 1.5;" width="139" x="2722" y="1068.332"/><ellipse cx="2769.25" cy="1087.4648" fill="#FF7700" rx="11" ry="11" style="stroke: #A80036; stroke-width: 1.0;"/><path d="M2769.9487,1088.1128 Q2770.314,1088.1875 2770.5837,1088.4573 Q2770.8535,1088.7271 2771.2437,1089.5073 L2773.4849,1093.9648 L2770.7954,1093.9648 L2769.3013,1090.8354 Q2769.2349,1090.7026 2769.127,1090.4702 Q2768.4712,1089.0674 2767.583,1089.0674 L2766.8027,1089.0674 L2766.8027,1093.9648 L2764.354,1093.9648 L2764.354,1081.5718 L2767.8901,1081.5718 Q2770.2808,1081.5718 2771.3225,1082.4185 Q2772.3643,1083.2651 2772.3643,1085.1743 Q2772.3643,1086.4526 2771.7417,1087.208 Q2771.1191,1087.9634 2769.9487,1088.1128 Z M2766.8027,1083.6304 L2766.8027,1087.0088 L2767.9565,1087.0088 Q2768.9609,1087.0088 2769.3967,1086.6145 Q2769.8325,1086.2202 2769.8325,1085.3154 Q2769.8325,1084.4106 2769.4009,1084.0205 Q2768.9692,1083.6304 2767.9565,1083.6304 Z "/><text fill="#000000" font-family="sans-serif" font-size="12" font-style="italic" lengthAdjust="spacingAndGlyphs" textLength="40" x="2787.75" y="1084.9336">«包裹.»</text><text fill="#000000" font-family="sans-serif" font-size="12" lengthAdjust="spacingAndGlyphs" textLength="27" x="2794.25" y="1099.0664">Pack</text><line style="stroke: #A80036; stroke-width: 1.5;" x1="2723" x2="2860" y1="1106.5977" y2="1106.5977"/><text fill="#000000" font-family="sans-serif" font-size="11" lengthAdjust="spacingAndGlyphs" textLength="99" x="2728" y="1138.1875">orderNo waybillNo</text><line style="stroke: #A80036; stroke-width: 1.5;" x1="2723" x2="2765" y1="1121.0752" y2="1121.0752"/><text fill="#000000" font-family="sans-serif" font-size="11" lengthAdjust="spacingAndGlyphs" textLength="53" x="2765" y="1124.7324">Structural</text><line style="stroke: #A80036; stroke-width: 1.5;" x1="2818" x2="2860" y1="1121.0752" y2="1121.0752"/><text fill="#000000" font-family="sans-serif" font-size="11" lengthAdjust="spacingAndGlyphs" textLength="57" x="2728" y="1168.0977">PackStatus</text><line style="stroke: #A80036; stroke-width: 1.5;" x1="2723" x2="2768.5" y1="1150.9854" y2="1150.9854"/><text fill="#000000" font-family="sans-serif" font-size="11" lengthAdjust="spacingAndGlyphs" textLength="46" x="2768.5" y="1154.6426">Lifecycle</text><line style="stroke: #A80036; stroke-width: 1.5;" x1="2814.5" x2="2860" y1="1150.9854" y2="1150.9854"/><text fill="#000000" font-family="sans-serif" font-size="11" lengthAdjust="spacingAndGlyphs" textLength="127" x="2728" y="1198.0078">totalVolume totalWeight</text><line style="stroke: #A80036; stroke-width: 1.5;" x1="2723" x2="2775.5" y1="1180.8955" y2="1180.8955"/><text fill="#000000" font-family="sans-serif" font-size="11" lengthAdjust="spacingAndGlyphs" textLength="32" x="2775.5" y="1184.5527">Billing</text><line style="stroke: #A80036; stroke-width: 1.5;" x1="2807.5" x2="2860" y1="1180.8955" y2="1180.8955"/><!--class Carton--><rect fill="#FEFECE" filter="url(#fqaa9mp)" height="99.8203" style="stroke: #A80036; stroke-width: 1.5;" width="70" x="321.5" y="940.332"/><ellipse cx="336.5" cy="956.332" fill="#FF7700" rx="11" ry="11" style="stroke: #A80036; stroke-width: 1.0;"/><path d="M337.1987,956.98 Q337.564,957.0547 337.8337,957.3245 Q338.1035,957.5942 338.4937,958.3745 L340.7349,962.832 L338.0454,962.832 L336.5513,959.7026 Q336.4849,959.5698 336.377,959.3374 Q335.7212,957.9346 334.833,957.9346 L334.0527,957.9346 L334.0527,962.832 L331.604,962.832 L331.604,950.439 L335.1401,950.439 Q337.5308,950.439 338.5725,951.2856 Q339.6143,952.1323 339.6143,954.0415 Q339.6143,955.3198 338.9917,956.0752 Q338.3691,956.8306 337.1987,956.98 Z M334.0527,952.4976 L334.0527,955.876 L335.2065,955.876 Q336.2109,955.876 336.6467,955.4817 Q337.0825,955.0874 337.0825,954.1826 Q337.0825,953.2778 336.6509,952.8877 Q336.2192,952.4976 335.2065,952.4976 Z "/><text fill="#000000" font-family="sans-serif" font-size="12" lengthAdjust="spacingAndGlyphs" textLength="38" x="350.5" y="960.8672">Carton</text><line style="stroke: #A80036; stroke-width: 1.5;" x1="322.5" x2="390.5" y1="972.332" y2="972.332"/><text fill="#000000" font-family="sans-serif" font-size="11" lengthAdjust="spacingAndGlyphs" textLength="33" x="327.5" y="1003.9219">status</text><line style="stroke: #A80036; stroke-width: 1.5;" x1="322.5" x2="333.5" y1="986.8096" y2="986.8096"/><text fill="#000000" font-family="sans-serif" font-size="11" lengthAdjust="spacingAndGlyphs" textLength="46" x="333.5" y="990.4668">Lifecycle</text><line style="stroke: #A80036; stroke-width: 1.5;" x1="379.5" x2="390.5" y1="986.8096" y2="986.8096"/><text fill="#000000" font-family="sans-serif" font-size="11" lengthAdjust="spacingAndGlyphs" textLength="35" x="327.5" y="1033.832">fulfill()</text><line style="stroke: #A80036; stroke-width: 1.5;" x1="322.5" x2="345.5" y1="1016.7197" y2="1016.7197"/><text fill="#000000" font-family="sans-serif" font-size="11" lengthAdjust="spacingAndGlyphs" textLength="22" x="345.5" y="1020.377">行为</text><line style="stroke: #A80036; stroke-width: 1.5;" x1="367.5" x2="390.5" y1="1016.7197" y2="1016.7197"/><!--class CartonItem--><rect fill="#FEFECE" filter="url(#fqaa9mp)" height="129.7305" style="stroke: #A80036; stroke-width: 1.5;" width="95" x="1309" y="902.332"/><ellipse cx="1324" cy="918.332" fill="#ADD1B2" rx="11" ry="11" style="stroke: #A80036; stroke-width: 1.0;"/><path d="M1326.4731,924.4751 Q1325.8921,924.7739 1325.2529,924.9233 Q1324.6138,925.0728 1323.9082,925.0728 Q1321.4014,925.0728 1320.0815,923.4209 Q1318.7617,921.769 1318.7617,918.6479 Q1318.7617,915.5186 1320.0815,913.8667 Q1321.4014,912.2148 1323.9082,912.2148 Q1324.6138,912.2148 1325.2612,912.3643 Q1325.9087,912.5137 1326.4731,912.8125 L1326.4731,915.5352 Q1325.8423,914.9541 1325.2488,914.6843 Q1324.6553,914.4146 1324.0244,914.4146 Q1322.6797,914.4146 1321.9949,915.4812 Q1321.3101,916.5479 1321.3101,918.6479 Q1321.3101,920.7397 1321.9949,921.8064 Q1322.6797,922.873 1324.0244,922.873 Q1324.6553,922.873 1325.2488,922.6033 Q1325.8423,922.3335 1326.4731,921.7524 Z "/><text fill="#000000" font-family="sans-serif" font-size="12" lengthAdjust="spacingAndGlyphs" textLength="63" x="1338" y="922.8672">CartonItem</text><line style="stroke: #A80036; stroke-width: 1.5;" x1="1310" x2="1403" y1="934.332" y2="934.332"/><text fill="#000000" font-family="sans-serif" font-size="11" lengthAdjust="spacingAndGlyphs" textLength="19" x="1315" y="965.9219">sku</text><line style="stroke: #A80036; stroke-width: 1.5;" x1="1310" x2="1330" y1="948.8096" y2="948.8096"/><text fill="#000000" font-family="sans-serif" font-size="11" lengthAdjust="spacingAndGlyphs" textLength="53" x="1330" y="952.4668">Structural</text><line style="stroke: #A80036; stroke-width: 1.5;" x1="1383" x2="1403" y1="948.8096" y2="948.8096"/><text fill="#000000" font-family="sans-serif" font-size="11" lengthAdjust="spacingAndGlyphs" textLength="67" x="1315" y="995.832">orderLineNo</text><line style="stroke: #A80036; stroke-width: 1.5;" x1="1310" x2="1328" y1="978.7197" y2="978.7197"/><text fill="#000000" font-family="sans-serif" font-size="11" lengthAdjust="spacingAndGlyphs" textLength="57" x="1328" y="982.377">Referential</text><line style="stroke: #A80036; stroke-width: 1.5;" x1="1385" x2="1403" y1="978.7197" y2="978.7197"/><text fill="#000000" font-family="sans-serif" font-size="11" lengthAdjust="spacingAndGlyphs" textLength="63" x="1315" y="1025.7422">checkedQty</text><line style="stroke: #A80036; stroke-width: 1.5;" x1="1310" x2="1333.5" y1="1008.6299" y2="1008.6299"/><text fill="#000000" font-family="sans-serif" font-size="11" lengthAdjust="spacingAndGlyphs" textLength="46" x="1333.5" y="1012.2871">Quantity</text><line style="stroke: #A80036; stroke-width: 1.5;" x1="1379.5" x2="1403" y1="1008.6299" y2="1008.6299"/><!--class CartonItemBag--><rect fill="#FEFECE" filter="url(#fqaa9mp)" height="69.9102" style="stroke: #A80036; stroke-width: 1.5;" width="212" x="858.5" y="970.332"/><ellipse cx="918.25" cy="986.332" fill="#9197DB" rx="11" ry="11" style="stroke: #A80036; stroke-width: 1.0;"/><path d="M916.6533,987.7041 L916.6533,991.373 L918.2803,991.373 Q919.4507,991.373 919.9197,990.9746 Q920.3887,990.5762 920.3887,989.5884 Q920.3887,988.584 919.8989,988.144 Q919.4092,987.7041 918.2803,987.7041 Z M916.6533,982.873 L916.6533,985.7534 L918.2803,985.7534 Q919.21,985.7534 919.6042,985.4214 Q919.9985,985.0894 919.9985,984.3257 Q919.9985,983.562 919.5959,983.2175 Q919.1934,982.873 918.2803,982.873 Z M914.2876,980.9224 L918.2803,980.9224 Q920.3472,980.9224 921.3889,981.7068 Q922.4307,982.4912 922.4307,984.0518 Q922.4307,985.2471 921.8164,985.9194 Q921.2021,986.5918 920.0151,986.6997 Q921.4346,986.8408 922.1526,987.6543 Q922.8706,988.4678 922.8706,989.9287 Q922.8706,991.7217 921.7915,992.5269 Q920.7124,993.332 918.2803,993.332 L914.2876,993.332 Z "/><text fill="#000000" font-family="sans-serif" font-size="12" lengthAdjust="spacingAndGlyphs" textLength="84" x="938.75" y="990.8672">CartonItemBag</text><line style="stroke: #A80036; stroke-width: 1.5;" x1="859.5" x2="1069.5" y1="1002.332" y2="1002.332"/><text fill="#000000" font-family="sans-serif" font-size="11" lengthAdjust="spacingAndGlyphs" textLength="200" x="864.5" y="1033.9219">contains() 货品唯一是否在本箱里已有了</text><line style="stroke: #A80036; stroke-width: 1.5;" x1="859.5" x2="953.5" y1="1016.8096" y2="1016.8096"/><text fill="#000000" font-family="sans-serif" font-size="11" lengthAdjust="spacingAndGlyphs" textLength="22" x="953.5" y="1020.4668">行为</text><line style="stroke: #A80036; stroke-width: 1.5;" x1="975.5" x2="1069.5" y1="1016.8096" y2="1016.8096"/><!--class Consumable--><rect fill="#FEFECE" filter="url(#fqaa9mp)" height="48" style="stroke: #A80036; stroke-width: 1.5;" width="103" x="1305" y="778.332"/><ellipse cx="1320" cy="794.332" fill="#9197DB" rx="11" ry="11" style="stroke: #A80036; stroke-width: 1.0;"/><path d="M1318.4033,795.7041 L1318.4033,799.373 L1320.0303,799.373 Q1321.2007,799.373 1321.6697,798.9746 Q1322.1387,798.5762 1322.1387,797.5884 Q1322.1387,796.584 1321.6489,796.144 Q1321.1592,795.7041 1320.0303,795.7041 Z M1318.4033,790.873 L1318.4033,793.7534 L1320.0303,793.7534 Q1320.96,793.7534 1321.3542,793.4214 Q1321.7485,793.0894 1321.7485,792.3257 Q1321.7485,791.562 1321.3459,791.2175 Q1320.9434,790.873 1320.0303,790.873 Z M1316.0376,788.9224 L1320.0303,788.9224 Q1322.0972,788.9224 1323.1389,789.7068 Q1324.1807,790.4912 1324.1807,792.0518 Q1324.1807,793.2471 1323.5664,793.9194 Q1322.9521,794.5918 1321.7651,794.6997 Q1323.1846,794.8408 1323.9026,795.6543 Q1324.6206,796.4678 1324.6206,797.9287 Q1324.6206,799.7217 1323.5415,800.5269 Q1322.4624,801.332 1320.0303,801.332 L1316.0376,801.332 Z "/><text fill="#000000" font-family="sans-serif" font-size="12" lengthAdjust="spacingAndGlyphs" textLength="71" x="1334" y="798.8672">Consumable</text><line style="stroke: #A80036; stroke-width: 1.5;" x1="1306" x2="1407" y1="810.332" y2="810.332"/><line style="stroke: #A80036; stroke-width: 1.5;" x1="1306" x2="1407" y1="818.332" y2="818.332"/><!--class ConsumableBag--><rect fill="#FEFECE" filter="url(#fqaa9mp)" height="48" style="stroke: #A80036; stroke-width: 1.5;" width="124" x="902.5" y="846.332"/><ellipse cx="917.5" cy="862.332" fill="#9197DB" rx="11" ry="11" style="stroke: #A80036; stroke-width: 1.0;"/><path d="M915.9033,863.7041 L915.9033,867.373 L917.5303,867.373 Q918.7007,867.373 919.1697,866.9746 Q919.6387,866.5762 919.6387,865.5884 Q919.6387,864.584 919.1489,864.144 Q918.6592,863.7041 917.5303,863.7041 Z M915.9033,858.873 L915.9033,861.7534 L917.5303,861.7534 Q918.46,861.7534 918.8542,861.4214 Q919.2485,861.0894 919.2485,860.3257 Q919.2485,859.562 918.8459,859.2175 Q918.4434,858.873 917.5303,858.873 Z M913.5376,856.9224 L917.5303,856.9224 Q919.5972,856.9224 920.6389,857.7068 Q921.6807,858.4912 921.6807,860.0518 Q921.6807,861.2471 921.0664,861.9194 Q920.4521,862.5918 919.2651,862.6997 Q920.6846,862.8408 921.4026,863.6543 Q922.1206,864.4678 922.1206,865.9287 Q922.1206,867.7217 921.0415,868.5269 Q919.9624,869.332 917.5303,869.332 L913.5376,869.332 Z "/><text fill="#000000" font-family="sans-serif" font-size="12" lengthAdjust="spacingAndGlyphs" textLength="92" x="931.5" y="866.8672">ConsumableBag</text><line style="stroke: #A80036; stroke-width: 1.5;" x1="903.5" x2="1025.5" y1="878.332" y2="878.332"/><line style="stroke: #A80036; stroke-width: 1.5;" x1="903.5" x2="1025.5" y1="886.332" y2="886.332"/><!--class Pallet--><rect fill="#FEFECE" filter="url(#fqaa9mp)" height="48" style="stroke: #A80036; stroke-width: 1.5;" width="63" x="933" y="743.332"/><ellipse cx="948" cy="759.332" fill="#9197DB" rx="11" ry="11" style="stroke: #A80036; stroke-width: 1.0;"/><path d="M946.4033,760.7041 L946.4033,764.373 L948.0303,764.373 Q949.2007,764.373 949.6697,763.9746 Q950.1387,763.5762 950.1387,762.5884 Q950.1387,761.584 949.6489,761.144 Q949.1592,760.7041 948.0303,760.7041 Z M946.4033,755.873 L946.4033,758.7534 L948.0303,758.7534 Q948.96,758.7534 949.3542,758.4214 Q949.7485,758.0894 949.7485,757.3257 Q949.7485,756.562 949.3459,756.2175 Q948.9434,755.873 948.0303,755.873 Z M944.0376,753.9224 L948.0303,753.9224 Q950.0972,753.9224 951.1389,754.7068 Q952.1807,755.4912 952.1807,757.0518 Q952.1807,758.2471 951.5664,758.9194 Q950.9521,759.5918 949.7651,759.6997 Q951.1846,759.8408 951.9026,760.6543 Q952.6206,761.4678 952.6206,762.9287 Q952.6206,764.7217 951.5415,765.5269 Q950.4624,766.332 948.0303,766.332 L944.0376,766.332 Z "/><text fill="#000000" font-family="sans-serif" font-size="12" lengthAdjust="spacingAndGlyphs" textLength="31" x="962" y="763.8672">Pallet</text><line style="stroke: #A80036; stroke-width: 1.5;" x1="934" x2="995" y1="775.332" y2="775.332"/><line style="stroke: #A80036; stroke-width: 1.5;" x1="934" x2="995" y1="783.332" y2="783.332"/><!--class Sku--><rect fill="#FEFECE" filter="url(#fqaa9mp)" height="106.0859" style="stroke: #A80036; stroke-width: 1.5;" width="117" x="1741" y="749.332"/><ellipse cx="1767.25" cy="768.4648" fill="#ADD1B2" rx="11" ry="11" style="stroke: #A80036; stroke-width: 1.0;"/><path d="M1769.7231,774.6079 Q1769.1421,774.9067 1768.5029,775.0562 Q1767.8638,775.2056 1767.1582,775.2056 Q1764.6514,775.2056 1763.3315,773.5537 Q1762.0117,771.9019 1762.0117,768.7808 Q1762.0117,765.6514 1763.3315,763.9995 Q1764.6514,762.3477 1767.1582,762.3477 Q1767.8638,762.3477 1768.5112,762.4971 Q1769.1587,762.6465 1769.7231,762.9453 L1769.7231,765.668 Q1769.0923,765.0869 1768.4988,764.8171 Q1767.9053,764.5474 1767.2744,764.5474 Q1765.9297,764.5474 1765.2449,765.614 Q1764.5601,766.6807 1764.5601,768.7808 Q1764.5601,770.8726 1765.2449,771.9392 Q1765.9297,773.0059 1767.2744,773.0059 Q1767.9053,773.0059 1768.4988,772.7361 Q1769.0923,772.4663 1769.7231,771.8853 Z "/><text fill="#000000" font-family="sans-serif" font-size="12" font-style="italic" lengthAdjust="spacingAndGlyphs" textLength="64" x="1781.75" y="765.9336">«货品编号.»</text><text fill="#000000" font-family="sans-serif" font-size="12" lengthAdjust="spacingAndGlyphs" textLength="20" x="1803.75" y="780.0664">Sku</text><line style="stroke: #A80036; stroke-width: 1.5;" x1="1742" x2="1857" y1="787.5977" y2="787.5977"/><text fill="#000000" font-family="sans-serif" font-size="11" lengthAdjust="spacingAndGlyphs" textLength="105" x="1747" y="819.1875">OwnerNo PackCode</text><line style="stroke: #A80036; stroke-width: 1.5;" x1="1742" x2="1773" y1="802.0752" y2="802.0752"/><text fill="#000000" font-family="sans-serif" font-size="11" lengthAdjust="spacingAndGlyphs" textLength="53" x="1773" y="805.7324">Structural</text><line style="stroke: #A80036; stroke-width: 1.5;" x1="1826" x2="1857" y1="802.0752" y2="802.0752"/><text fill="#000000" font-family="sans-serif" font-size="11" lengthAdjust="spacingAndGlyphs" textLength="67" x="1747" y="849.0977">LotNo snList</text><line style="stroke: #A80036; stroke-width: 1.5;" x1="1742" x2="1770" y1="831.9854" y2="831.9854"/><text fill="#000000" font-family="sans-serif" font-size="11" lengthAdjust="spacingAndGlyphs" textLength="59" x="1770" y="835.6426">Contextual</text><line style="stroke: #A80036; stroke-width: 1.5;" x1="1829" x2="1857" y1="831.9854" y2="831.9854"/><!--class Container--><rect fill="#FEFECE" filter="url(#fqaa9mp)" height="106.0859" style="stroke: #A80036; stroke-width: 1.5;" width="139" x="1730.5" y="1366.332"/><ellipse cx="1766.65" cy="1385.4648" fill="#ADD1B2" rx="11" ry="11" style="stroke: #A80036; stroke-width: 1.0;"/><path d="M1769.1231,1391.6079 Q1768.5421,1391.9067 1767.9029,1392.0562 Q1767.2638,1392.2056 1766.5582,1392.2056 Q1764.0514,1392.2056 1762.7315,1390.5537 Q1761.4117,1388.9019 1761.4117,1385.7808 Q1761.4117,1382.6514 1762.7315,1380.9995 Q1764.0514,1379.3477 1766.5582,1379.3477 Q1767.2638,1379.3477 1767.9112,1379.4971 Q1768.5587,1379.6465 1769.1231,1379.9453 L1769.1231,1382.668 Q1768.4923,1382.0869 1767.8988,1381.8171 Q1767.3053,1381.5474 1766.6744,1381.5474 Q1765.3297,1381.5474 1764.6449,1382.614 Q1763.9601,1383.6807 1763.9601,1385.7808 Q1763.9601,1387.8726 1764.6449,1388.9392 Q1765.3297,1390.0059 1766.6744,1390.0059 Q1767.3053,1390.0059 1767.8988,1389.7361 Q1768.4923,1389.4663 1769.1231,1388.8853 Z "/><text fill="#000000" font-family="sans-serif" font-size="12" font-style="italic" lengthAdjust="spacingAndGlyphs" textLength="64" x="1783.35" y="1382.9336">«拣货容器.»</text><text fill="#000000" font-family="sans-serif" font-size="12" lengthAdjust="spacingAndGlyphs" textLength="55" x="1787.85" y="1397.0664">Container</text><line style="stroke: #A80036; stroke-width: 1.5;" x1="1731.5" x2="1868.5" y1="1404.5977" y2="1404.5977"/><text fill="#000000" font-family="sans-serif" font-size="11" lengthAdjust="spacingAndGlyphs" textLength="79" x="1736.5" y="1436.1875">ContainerType</text><line style="stroke: #A80036; stroke-width: 1.5;" x1="1731.5" x2="1768.5" y1="1419.0752" y2="1419.0752"/><text fill="#000000" font-family="sans-serif" font-size="11" lengthAdjust="spacingAndGlyphs" textLength="63" x="1768.5" y="1422.7324">Operational</text><line style="stroke: #A80036; stroke-width: 1.5;" x1="1831.5" x2="1868.5" y1="1419.0752" y2="1419.0752"/><text fill="#000000" font-family="sans-serif" font-size="11" lengthAdjust="spacingAndGlyphs" textLength="127" x="1736.5" y="1466.0977">containerNo/扫描枪可扫</text><line style="stroke: #A80036; stroke-width: 1.5;" x1="1731.5" x2="1788" y1="1448.9854" y2="1448.9854"/><text fill="#000000" font-family="sans-serif" font-size="11" lengthAdjust="spacingAndGlyphs" textLength="24" x="1788" y="1452.6426">DCU</text><line style="stroke: #A80036; stroke-width: 1.5;" x1="1812" x2="1868.5" y1="1448.9854" y2="1448.9854"/><!--class ContainerBag--><rect fill="#FEFECE" filter="url(#fqaa9mp)" height="121.7305" style="stroke: #A80036; stroke-width: 1.5;" width="222" x="1245" y="1361.332"/><ellipse cx="1313.75" cy="1377.332" fill="#9197DB" rx="11" ry="11" style="stroke: #A80036; stroke-width: 1.0;"/><path d="M1312.1533,1378.7041 L1312.1533,1382.373 L1313.7803,1382.373 Q1314.9507,1382.373 1315.4197,1381.9746 Q1315.8887,1381.5762 1315.8887,1380.5884 Q1315.8887,1379.584 1315.3989,1379.144 Q1314.9092,1378.7041 1313.7803,1378.7041 Z M1312.1533,1373.873 L1312.1533,1376.7534 L1313.7803,1376.7534 Q1314.71,1376.7534 1315.1042,1376.4214 Q1315.4985,1376.0894 1315.4985,1375.3257 Q1315.4985,1374.562 1315.0959,1374.2175 Q1314.6934,1373.873 1313.7803,1373.873 Z M1309.7876,1371.9224 L1313.7803,1371.9224 Q1315.8472,1371.9224 1316.8889,1372.7068 Q1317.9307,1373.4912 1317.9307,1375.0518 Q1317.9307,1376.2471 1317.3164,1376.9194 Q1316.7021,1377.5918 1315.5151,1377.6997 Q1316.9346,1377.8408 1317.6526,1378.6543 Q1318.3706,1379.4678 1318.3706,1380.9287 Q1318.3706,1382.7217 1317.2915,1383.5269 Q1316.2124,1384.332 1313.7803,1384.332 L1309.7876,1384.332 Z "/><text fill="#000000" font-family="sans-serif" font-size="12" lengthAdjust="spacingAndGlyphs" textLength="76" x="1334.25" y="1381.8672">ContainerBag</text><line style="stroke: #A80036; stroke-width: 1.5;" x1="1246" x2="1466" y1="1393.332" y2="1393.332"/><text fill="#000000" font-family="sans-serif" font-size="11" lengthAdjust="spacingAndGlyphs" textLength="186" x="1251" y="1424.9219">totalSku() 该容器的总商品种类(品数).</text><text fill="#000000" font-family="sans-serif" font-size="11" lengthAdjust="spacingAndGlyphs" textLength="145" x="1251" y="1437.877">totalQty() 该容器的总要货量.</text><text fill="#000000" font-family="sans-serif" font-size="11" lengthAdjust="spacingAndGlyphs" textLength="94" x="1251" y="1450.832">totalPendingQty()</text><text fill="#000000" font-family="sans-serif" font-size="11" lengthAdjust="spacingAndGlyphs" textLength="210" x="1251" y="1463.7871">pendingItemBag() 待复核的所有容器明细.</text><text fill="#000000" font-family="sans-serif" font-size="11" lengthAdjust="spacingAndGlyphs" textLength="152" x="1251" y="1476.7422">orderNoSet() 所有的出库单号.</text><line style="stroke: #A80036; stroke-width: 1.5;" x1="1246" x2="1345" y1="1407.8096" y2="1407.8096"/><text fill="#000000" font-family="sans-serif" font-size="11" lengthAdjust="spacingAndGlyphs" textLength="22" x="1345" y="1411.4668">规则</text><line style="stroke: #A80036; stroke-width: 1.5;" x1="1367" x2="1466" y1="1407.8096" y2="1407.8096"/><!--class ContainerItem--><rect fill="#FEFECE" filter="url(#fqaa9mp)" height="148.9512" style="stroke: #A80036; stroke-width: 1.5;" width="197" x="2693" y="1335.332"/><ellipse cx="2717.45" cy="1354.4648" fill="#ADD1B2" rx="11" ry="11" style="stroke: #A80036; stroke-width: 1.0;"/><path d="M2719.9231,1360.6079 Q2719.3421,1360.9067 2718.7029,1361.0562 Q2718.0638,1361.2056 2717.3582,1361.2056 Q2714.8514,1361.2056 2713.5315,1359.5537 Q2712.2117,1357.9019 2712.2117,1354.7808 Q2712.2117,1351.6514 2713.5315,1349.9995 Q2714.8514,1348.3477 2717.3582,1348.3477 Q2718.0638,1348.3477 2718.7112,1348.4971 Q2719.3587,1348.6465 2719.9231,1348.9453 L2719.9231,1351.668 Q2719.2923,1351.0869 2718.6988,1350.8171 Q2718.1053,1350.5474 2717.4744,1350.5474 Q2716.1297,1350.5474 2715.4449,1351.614 Q2714.7601,1352.6807 2714.7601,1354.7808 Q2714.7601,1356.8726 2715.4449,1357.9392 Q2716.1297,1359.0059 2717.4744,1359.0059 Q2718.1053,1359.0059 2718.6988,1358.7361 Q2719.2923,1358.4663 2719.9231,1357.8853 Z "/><text fill="#000000" font-family="sans-serif" font-size="12" font-style="italic" lengthAdjust="spacingAndGlyphs" textLength="148" x="2731.55" y="1351.9336">«拣货容器里的商品和数量.»</text><text fill="#000000" font-family="sans-serif" font-size="12" lengthAdjust="spacingAndGlyphs" textLength="80" x="2765.55" y="1366.0664">ContainerItem</text><line style="stroke: #A80036; stroke-width: 1.5;" x1="2694" x2="2889" y1="1373.5977" y2="1373.5977"/><text fill="#000000" font-family="sans-serif" font-size="11" lengthAdjust="spacingAndGlyphs" textLength="91" x="2699" y="1405.1875">OrderLineNo Sku</text><line style="stroke: #A80036; stroke-width: 1.5;" x1="2694" x2="2765" y1="1388.0752" y2="1388.0752"/><text fill="#000000" font-family="sans-serif" font-size="11" lengthAdjust="spacingAndGlyphs" textLength="53" x="2765" y="1391.7324">Structural</text><line style="stroke: #A80036; stroke-width: 1.5;" x1="2818" x2="2889" y1="1388.0752" y2="1388.0752"/><text fill="#000000" font-family="sans-serif" font-size="11" lengthAdjust="spacingAndGlyphs" textLength="185" x="2699" y="1435.0977">expectedQty givenQty pendingQty</text><line style="stroke: #A80036; stroke-width: 1.5;" x1="2694" x2="2768.5" y1="1417.9854" y2="1417.9854"/><text fill="#000000" font-family="sans-serif" font-size="11" lengthAdjust="spacingAndGlyphs" textLength="46" x="2768.5" y="1421.6426">Quantity</text><line style="stroke: #A80036; stroke-width: 1.5;" x1="2814.5" x2="2889" y1="1417.9854" y2="1417.9854"/><text fill="#000000" font-family="sans-serif" font-size="11" lengthAdjust="spacingAndGlyphs" textLength="172" x="2699" y="1465.0078">diffQty() 复核作业发现的差异数量.</text><text fill="#000000" font-family="sans-serif" font-size="11" lengthAdjust="spacingAndGlyphs" textLength="35" x="2699" y="1477.9629">done()</text><line style="stroke: #A80036; stroke-width: 1.5;" x1="2694" x2="2780.5" y1="1447.8955" y2="1447.8955"/><text fill="#000000" font-family="sans-serif" font-size="11" lengthAdjust="spacingAndGlyphs" textLength="22" x="2780.5" y="1451.5527">规则</text><line style="stroke: #A80036; stroke-width: 1.5;" x1="2802.5" x2="2889" y1="1447.8955" y2="1447.8955"/><!--class ContainerItemBag--><rect fill="#FEFECE" filter="url(#fqaa9mp)" height="95.8203" style="stroke: #A80036; stroke-width: 1.5;" width="198" x="2198.5" y="1369.332"/><ellipse cx="2242.75" cy="1385.332" fill="#9197DB" rx="11" ry="11" style="stroke: #A80036; stroke-width: 1.0;"/><path d="M2241.1533,1386.7041 L2241.1533,1390.373 L2242.7803,1390.373 Q2243.9507,1390.373 2244.4197,1389.9746 Q2244.8887,1389.5762 2244.8887,1388.5884 Q2244.8887,1387.584 2244.3989,1387.144 Q2243.9092,1386.7041 2242.7803,1386.7041 Z M2241.1533,1381.873 L2241.1533,1384.7534 L2242.7803,1384.7534 Q2243.71,1384.7534 2244.1042,1384.4214 Q2244.4985,1384.0894 2244.4985,1383.3257 Q2244.4985,1382.562 2244.0959,1382.2175 Q2243.6934,1381.873 2242.7803,1381.873 Z M2238.7876,1379.9224 L2242.7803,1379.9224 Q2244.8472,1379.9224 2245.8889,1380.7068 Q2246.9307,1381.4912 2246.9307,1383.0518 Q2246.9307,1384.2471 2246.3164,1384.9194 Q2245.7021,1385.5918 2244.5151,1385.6997 Q2245.9346,1385.8408 2246.6526,1386.6543 Q2247.3706,1387.4678 2247.3706,1388.9287 Q2247.3706,1390.7217 2246.2915,1391.5269 Q2245.2124,1392.332 2242.7803,1392.332 L2238.7876,1392.332 Z "/><text fill="#000000" font-family="sans-serif" font-size="12" lengthAdjust="spacingAndGlyphs" textLength="101" x="2263.25" y="1389.8672">ContainerItemBag</text><line style="stroke: #A80036; stroke-width: 1.5;" x1="2199.5" x2="2395.5" y1="1401.332" y2="1401.332"/><text fill="#000000" font-family="sans-serif" font-size="11" lengthAdjust="spacingAndGlyphs" textLength="186" x="2204.5" y="1432.9219">totalSku() 该容器的总商品种类(品数).</text><text fill="#000000" font-family="sans-serif" font-size="11" lengthAdjust="spacingAndGlyphs" textLength="134" x="2204.5" y="1445.877">totalQty() 该容器的总货量.</text><text fill="#000000" font-family="sans-serif" font-size="11" lengthAdjust="spacingAndGlyphs" textLength="94" x="2204.5" y="1458.832">totalPendingQty()</text><line style="stroke: #A80036; stroke-width: 1.5;" x1="2199.5" x2="2286.5" y1="1415.8096" y2="1415.8096"/><text fill="#000000" font-family="sans-serif" font-size="11" lengthAdjust="spacingAndGlyphs" textLength="22" x="2286.5" y="1419.4668">规则</text><line style="stroke: #A80036; stroke-width: 1.5;" x1="2308.5" x2="2395.5" y1="1415.8096" y2="1415.8096"/><!--class Task--><rect fill="#FEFECE" filter="url(#fqaa9mp)" height="204.7715" style="stroke: #A80036; stroke-width: 1.5;" width="227" x="851.5" y="1334.332"/><ellipse cx="930.75" cy="1353.4648" fill="#FF7700" rx="11" ry="11" style="stroke: #A80036; stroke-width: 1.0;"/><path d="M931.4487,1354.1128 Q931.814,1354.1875 932.0837,1354.4573 Q932.3535,1354.7271 932.7437,1355.5073 L934.9849,1359.9648 L932.2954,1359.9648 L930.8013,1356.8354 Q930.7349,1356.7026 930.627,1356.4702 Q929.9712,1355.0674 929.083,1355.0674 L928.3027,1355.0674 L928.3027,1359.9648 L925.854,1359.9648 L925.854,1347.5718 L929.3901,1347.5718 Q931.7808,1347.5718 932.8225,1348.4185 Q933.8643,1349.2651 933.8643,1351.1743 Q933.8643,1352.4526 933.2417,1353.208 Q932.6191,1353.9634 931.4487,1354.1128 Z M928.3027,1349.6304 L928.3027,1353.0088 L929.4565,1353.0088 Q930.4609,1353.0088 930.8967,1352.6145 Q931.3325,1352.2202 931.3325,1351.3154 Q931.3325,1350.4106 930.9009,1350.0205 Q930.4692,1349.6304 929.4565,1349.6304 Z "/><text fill="#000000" font-family="sans-serif" font-size="12" font-style="italic" lengthAdjust="spacingAndGlyphs" textLength="64" x="949.25" y="1350.9336">«复核任务.»</text><text fill="#000000" font-family="sans-serif" font-size="12" lengthAdjust="spacingAndGlyphs" textLength="28" x="967.25" y="1365.0664">Task</text><line style="stroke: #A80036; stroke-width: 1.5;" x1="852.5" x2="1077.5" y1="1372.5977" y2="1372.5977"/><text fill="#000000" font-family="sans-serif" font-size="11" lengthAdjust="spacingAndGlyphs" textLength="58" x="857.5" y="1404.1875">TaskStatus</text><line style="stroke: #A80036; stroke-width: 1.5;" x1="852.5" x2="942" y1="1387.0752" y2="1387.0752"/><text fill="#000000" font-family="sans-serif" font-size="11" lengthAdjust="spacingAndGlyphs" textLength="46" x="942" y="1390.7324">Lifecycle</text><line style="stroke: #A80036; stroke-width: 1.5;" x1="988" x2="1077.5" y1="1387.0752" y2="1387.0752"/><text fill="#000000" font-family="sans-serif" font-size="11" lengthAdjust="spacingAndGlyphs" textLength="45" x="857.5" y="1434.0977">Platform</text><line style="stroke: #A80036; stroke-width: 1.5;" x1="852.5" x2="942" y1="1416.9854" y2="1416.9854"/><text fill="#000000" font-family="sans-serif" font-size="11" lengthAdjust="spacingAndGlyphs" textLength="46" x="942" y="1420.6426">Location</text><line style="stroke: #A80036; stroke-width: 1.5;" x1="988" x2="1077.5" y1="1416.9854" y2="1416.9854"/><text fill="#000000" font-family="sans-serif" font-size="11" lengthAdjust="spacingAndGlyphs" textLength="72" x="857.5" y="1464.0078">claimedWith()</text><text fill="#000000" font-family="sans-serif" font-size="11" lengthAdjust="spacingAndGlyphs" textLength="69" x="857.5" y="1476.9629">confirmQty()</text><line style="stroke: #A80036; stroke-width: 1.5;" x1="852.5" x2="954" y1="1446.8955" y2="1446.8955"/><text fill="#000000" font-family="sans-serif" font-size="11" lengthAdjust="spacingAndGlyphs" textLength="22" x="954" y="1450.5527">行为</text><line style="stroke: #A80036; stroke-width: 1.5;" x1="976" x2="1077.5" y1="1446.8955" y2="1446.8955"/><text fill="#000000" font-family="sans-serif" font-size="11" lengthAdjust="spacingAndGlyphs" textLength="174" x="857.5" y="1506.873">pendingOrders()  TaskOrdersDb</text><text fill="#000000" font-family="sans-serif" font-size="11" lengthAdjust="spacingAndGlyphs" textLength="215" x="857.5" y="1519.8281">pendingOrder(OrderNo)  TaskOrdersDb</text><text fill="#000000" font-family="sans-serif" font-size="11" lengthAdjust="spacingAndGlyphs" textLength="197" x="857.5" y="1532.7832">cartonItemBag()  TaskCartonItemsDb</text><line style="stroke: #A80036; stroke-width: 1.5;" x1="852.5" x2="954" y1="1489.7607" y2="1489.7607"/><text fill="#000000" font-family="sans-serif" font-size="11" lengthAdjust="spacingAndGlyphs" textLength="22" x="954" y="1493.418">流程</text><line style="stroke: #A80036; stroke-width: 1.5;" x1="976" x2="1077.5" y1="1489.7607" y2="1489.7607"/><!--class TaskOfContainer--><rect fill="#FEFECE" filter="url(#fqaa9mp)" height="48" style="stroke: #A80036; stroke-width: 1.5;" width="128" x="292.5" y="1329.332"/><ellipse cx="307.5" cy="1345.332" fill="#9197DB" rx="11" ry="11" style="stroke: #A80036; stroke-width: 1.0;"/><path d="M305.9033,1346.7041 L305.9033,1350.373 L307.5303,1350.373 Q308.7007,1350.373 309.1697,1349.9746 Q309.6387,1349.5762 309.6387,1348.5884 Q309.6387,1347.584 309.1489,1347.144 Q308.6592,1346.7041 307.5303,1346.7041 Z M305.9033,1341.873 L305.9033,1344.7534 L307.5303,1344.7534 Q308.46,1344.7534 308.8542,1344.4214 Q309.2485,1344.0894 309.2485,1343.3257 Q309.2485,1342.562 308.8459,1342.2175 Q308.4434,1341.873 307.5303,1341.873 Z M303.5376,1339.9224 L307.5303,1339.9224 Q309.5972,1339.9224 310.6389,1340.7068 Q311.6807,1341.4912 311.6807,1343.0518 Q311.6807,1344.2471 311.0664,1344.9194 Q310.4521,1345.5918 309.2651,1345.6997 Q310.6846,1345.8408 311.4026,1346.6543 Q312.1206,1347.4678 312.1206,1348.9287 Q312.1206,1350.7217 311.0415,1351.5269 Q309.9624,1352.332 307.5303,1352.332 L303.5376,1352.332 Z "/><text fill="#000000" font-family="sans-serif" font-size="12" lengthAdjust="spacingAndGlyphs" textLength="96" x="321.5" y="1349.8672">TaskOfContainer</text><line style="stroke: #A80036; stroke-width: 1.5;" x1="293.5" x2="419.5" y1="1361.332" y2="1361.332"/><line style="stroke: #A80036; stroke-width: 1.5;" x1="293.5" x2="419.5" y1="1369.332" y2="1369.332"/><!--class TaskOfOrder--><rect fill="#FEFECE" filter="url(#fqaa9mp)" height="48" style="stroke: #A80036; stroke-width: 1.5;" width="107" x="303" y="1412.332"/><ellipse cx="318" cy="1428.332" fill="#9197DB" rx="11" ry="11" style="stroke: #A80036; stroke-width: 1.0;"/><path d="M316.4033,1429.7041 L316.4033,1433.373 L318.0303,1433.373 Q319.2007,1433.373 319.6697,1432.9746 Q320.1387,1432.5762 320.1387,1431.5884 Q320.1387,1430.584 319.6489,1430.144 Q319.1592,1429.7041 318.0303,1429.7041 Z M316.4033,1424.873 L316.4033,1427.7534 L318.0303,1427.7534 Q318.96,1427.7534 319.3542,1427.4214 Q319.7485,1427.0894 319.7485,1426.3257 Q319.7485,1425.562 319.3459,1425.2175 Q318.9434,1424.873 318.0303,1424.873 Z M314.0376,1422.9224 L318.0303,1422.9224 Q320.0972,1422.9224 321.1389,1423.7068 Q322.1807,1424.4912 322.1807,1426.0518 Q322.1807,1427.2471 321.5664,1427.9194 Q320.9521,1428.5918 319.7651,1428.6997 Q321.1846,1428.8408 321.9026,1429.6543 Q322.6206,1430.4678 322.6206,1431.9287 Q322.6206,1433.7217 321.5415,1434.5269 Q320.4624,1435.332 318.0303,1435.332 L314.0376,1435.332 Z "/><text fill="#000000" font-family="sans-serif" font-size="12" lengthAdjust="spacingAndGlyphs" textLength="75" x="332" y="1432.8672">TaskOfOrder</text><line style="stroke: #A80036; stroke-width: 1.5;" x1="304" x2="409" y1="1444.332" y2="1444.332"/><line style="stroke: #A80036; stroke-width: 1.5;" x1="304" x2="409" y1="1452.332" y2="1452.332"/><!--class TaskOfSku--><rect fill="#FEFECE" filter="url(#fqaa9mp)" height="48" style="stroke: #A80036; stroke-width: 1.5;" width="93" x="310" y="1495.332"/><ellipse cx="325" cy="1511.332" fill="#9197DB" rx="11" ry="11" style="stroke: #A80036; stroke-width: 1.0;"/><path d="M323.4033,1512.7041 L323.4033,1516.373 L325.0303,1516.373 Q326.2007,1516.373 326.6697,1515.9746 Q327.1387,1515.5762 327.1387,1514.5884 Q327.1387,1513.584 326.6489,1513.144 Q326.1592,1512.7041 325.0303,1512.7041 Z M323.4033,1507.873 L323.4033,1510.7534 L325.0303,1510.7534 Q325.96,1510.7534 326.3542,1510.4214 Q326.7485,1510.0894 326.7485,1509.3257 Q326.7485,1508.562 326.3459,1508.2175 Q325.9434,1507.873 325.0303,1507.873 Z M321.0376,1505.9224 L325.0303,1505.9224 Q327.0972,1505.9224 328.1389,1506.7068 Q329.1807,1507.4912 329.1807,1509.0518 Q329.1807,1510.2471 328.5664,1510.9194 Q327.9521,1511.5918 326.7651,1511.6997 Q328.1846,1511.8408 328.9026,1512.6543 Q329.6206,1513.4678 329.6206,1514.9287 Q329.6206,1516.7217 328.5415,1517.5269 Q327.4624,1518.332 325.0303,1518.332 L321.0376,1518.332 Z "/><text fill="#000000" font-family="sans-serif" font-size="12" lengthAdjust="spacingAndGlyphs" textLength="61" x="339" y="1515.8672">TaskOfSku</text><line style="stroke: #A80036; stroke-width: 1.5;" x1="311" x2="402" y1="1527.332" y2="1527.332"/><line style="stroke: #A80036; stroke-width: 1.5;" x1="311" x2="402" y1="1535.332" y2="1535.332"/><!--class ShippingManifest--><rect fill="#FEFECE" filter="url(#fqaa9mp)" height="99.8203" style="stroke: #A80036; stroke-width: 1.5;" width="129" x="292" y="1649.332"/><ellipse cx="307" cy="1665.332" fill="#FF7700" rx="11" ry="11" style="stroke: #A80036; stroke-width: 1.0;"/><path d="M307.6987,1665.98 Q308.064,1666.0547 308.3337,1666.3245 Q308.6035,1666.5942 308.9937,1667.3745 L311.2349,1671.832 L308.5454,1671.832 L307.0513,1668.7026 Q306.9849,1668.5698 306.877,1668.3374 Q306.2212,1666.9346 305.333,1666.9346 L304.5527,1666.9346 L304.5527,1671.832 L302.104,1671.832 L302.104,1659.439 L305.6401,1659.439 Q308.0308,1659.439 309.0725,1660.2856 Q310.1143,1661.1323 310.1143,1663.0415 Q310.1143,1664.3198 309.4917,1665.0752 Q308.8691,1665.8306 307.6987,1665.98 Z M304.5527,1661.4976 L304.5527,1664.876 L305.7065,1664.876 Q306.7109,1664.876 307.1467,1664.4817 Q307.5825,1664.0874 307.5825,1663.1826 Q307.5825,1662.2778 307.1509,1661.8877 Q306.7192,1661.4976 305.7065,1661.4976 Z "/><text fill="#000000" font-family="sans-serif" font-size="12" lengthAdjust="spacingAndGlyphs" textLength="97" x="321" y="1669.8672">ShippingManifest</text><line style="stroke: #A80036; stroke-width: 1.5;" x1="293" x2="420" y1="1681.332" y2="1681.332"/><text fill="#000000" font-family="sans-serif" font-size="11" lengthAdjust="spacingAndGlyphs" textLength="51" x="298" y="1712.9219">carrierNo</text><line style="stroke: #A80036; stroke-width: 1.5;" x1="293" x2="330" y1="1695.8096" y2="1695.8096"/><text fill="#000000" font-family="sans-serif" font-size="11" lengthAdjust="spacingAndGlyphs" textLength="53" x="330" y="1699.4668">Structural</text><line style="stroke: #A80036; stroke-width: 1.5;" x1="383" x2="420" y1="1695.8096" y2="1695.8096"/><text fill="#000000" font-family="sans-serif" font-size="11" lengthAdjust="spacingAndGlyphs" textLength="38" x="298" y="1742.832">extInfo</text><line style="stroke: #A80036; stroke-width: 1.5;" x1="293" x2="332" y1="1725.7197" y2="1725.7197"/><text fill="#000000" font-family="sans-serif" font-size="11" lengthAdjust="spacingAndGlyphs" textLength="49" x="332" y="1729.377">Reserved</text><line style="stroke: #A80036; stroke-width: 1.5;" x1="381" x2="420" y1="1725.7197" y2="1725.7197"/><!--class ManualCheckAppService--><rect fill="#FEFECE" filter="url(#fqaa9mp)" height="138.6855" style="stroke: #A80036; stroke-width: 1.5;" width="637" x="38" y="263.832"/><ellipse cx="282.25" cy="279.832" fill="#ADD1B2" rx="11" ry="11" style="stroke: #A80036; stroke-width: 1.0;"/><path d="M284.7231,285.9751 Q284.1421,286.2739 283.5029,286.4233 Q282.8638,286.5728 282.1582,286.5728 Q279.6514,286.5728 278.3315,284.9209 Q277.0117,283.269 277.0117,280.1479 Q277.0117,277.0186 278.3315,275.3667 Q279.6514,273.7148 282.1582,273.7148 Q282.8638,273.7148 283.5112,273.8643 Q284.1587,274.0137 284.7231,274.3125 L284.7231,277.0352 Q284.0923,276.4541 283.4988,276.1843 Q282.9053,275.9146 282.2744,275.9146 Q280.9297,275.9146 280.2449,276.9812 Q279.5601,278.0479 279.5601,280.1479 Q279.5601,282.2397 280.2449,283.3064 Q280.9297,284.373 282.2744,284.373 Q282.9053,284.373 283.4988,284.1033 Q284.0923,283.8335 284.7231,283.2524 Z "/><text fill="#000000" font-family="sans-serif" font-size="12" lengthAdjust="spacingAndGlyphs" textLength="140" x="302.75" y="284.3672">ManualCheckAppService</text><line style="stroke: #A80036; stroke-width: 1.5;" x1="39" x2="674" y1="295.832" y2="295.832"/><line style="stroke: #A80036; stroke-width: 1.5;" x1="39" x2="674" y1="303.832" y2="303.832"/><text fill="#000000" font-family="sans-serif" font-size="11" lengthAdjust="spacingAndGlyphs" textLength="294" x="44" y="318.4668">recommendPlatform(taskNo) 操作员应该去哪一个复核台?</text><text fill="#000000" font-family="sans-serif" font-size="11" lengthAdjust="spacingAndGlyphs" textLength="276" x="44" y="331.4219">claimTask(containerNo) 操作员扫描容器领取复核任务.</text><text fill="#000000" font-family="sans-serif" font-size="11" lengthAdjust="spacingAndGlyphs" textLength="390" x="44" y="344.377">confirmQty(orderNo,qty,skuNo,taskNo) 操作员(复核员)清点并确认货品数量.</text><text fill="#000000" font-family="sans-serif" font-size="11" lengthAdjust="spacingAndGlyphs" textLength="168" x="44" y="357.332">pause(orderNo) 暂停一个出库单.</text><text fill="#000000" font-family="sans-serif" font-size="11" lengthAdjust="spacingAndGlyphs" textLength="209" x="44" y="370.2871">resume(orderNo) 恢复一个出库单的执行.</text><text fill="#000000" font-family="sans-serif" font-size="11" lengthAdjust="spacingAndGlyphs" textLength="190" x="44" y="383.2422">recheck(cartonNo,taskNo) 重新复核.</text><text fill="#000000" font-family="sans-serif" font-size="11" lengthAdjust="spacingAndGlyphs" textLength="625" x="44" y="396.1973">cartonFull(cartonNo,consumables,orderNo) 复核员把拣货容器的货品放入箱，并使用耗材以便运输安全，该过程发现箱已满.</text><!--class TaskSubmittedConsumer--><rect fill="#FEFECE" filter="url(#fqaa9mp)" height="60.9551" style="stroke: #A80036; stroke-width: 1.5;" width="176" x="268.5" y="437.832"/><ellipse cx="283.5" cy="453.832" fill="#ADD1B2" rx="11" ry="11" style="stroke: #A80036; stroke-width: 1.0;"/><path d="M285.9731,459.9751 Q285.3921,460.2739 284.7529,460.4233 Q284.1138,460.5728 283.4082,460.5728 Q280.9014,460.5728 279.5815,458.9209 Q278.2617,457.269 278.2617,454.1479 Q278.2617,451.0186 279.5815,449.3667 Q280.9014,447.7148 283.4082,447.7148 Q284.1138,447.7148 284.7612,447.8643 Q285.4087,448.0137 285.9731,448.3125 L285.9731,451.0352 Q285.3423,450.4541 284.7488,450.1843 Q284.1553,449.9146 283.5244,449.9146 Q282.1797,449.9146 281.4949,450.9812 Q280.8101,452.0479 280.8101,454.1479 Q280.8101,456.2397 281.4949,457.3064 Q282.1797,458.373 283.5244,458.373 Q284.1553,458.373 284.7488,458.1033 Q285.3423,457.8335 285.9731,457.2524 Z "/><text fill="#000000" font-family="sans-serif" font-size="12" lengthAdjust="spacingAndGlyphs" textLength="144" x="297.5" y="458.3672">TaskSubmittedConsumer</text><line style="stroke: #A80036; stroke-width: 1.5;" x1="269.5" x2="443.5" y1="469.832" y2="469.832"/><line style="stroke: #A80036; stroke-width: 1.5;" x1="269.5" x2="443.5" y1="477.832" y2="477.832"/><text fill="#000000" font-family="sans-serif" font-size="11" lengthAdjust="spacingAndGlyphs" textLength="119" x="274.5" y="492.4668">消费接收复核任务(json)</text><!--class RecommendPlatformFlow--><rect fill="#FEFECE" filter="url(#fqaa9mp)" height="60.9551" style="stroke: #A80036; stroke-width: 1.5;" width="216" x="248.5" y="110.832"/><ellipse cx="281.05" cy="126.832" fill="#ADD1B2" rx="11" ry="11" style="stroke: #A80036; stroke-width: 1.0;"/><path d="M283.5231,132.9751 Q282.9421,133.2739 282.3029,133.4233 Q281.6638,133.5728 280.9582,133.5728 Q278.4514,133.5728 277.1315,131.9209 Q275.8117,130.269 275.8117,127.1479 Q275.8117,124.0186 277.1315,122.3667 Q278.4514,120.7148 280.9582,120.7148 Q281.6638,120.7148 282.3112,120.8643 Q282.9587,121.0137 283.5231,121.3125 L283.5231,124.0352 Q282.8923,123.4541 282.2988,123.1843 Q281.7053,122.9146 281.0744,122.9146 Q279.7297,122.9146 279.0449,123.9812 Q278.3601,125.0479 278.3601,127.1479 Q278.3601,129.2397 279.0449,130.3064 Q279.7297,131.373 281.0744,131.373 Q281.7053,131.373 282.2988,131.1033 Q282.8923,130.8335 283.5231,130.2524 Z "/><text fill="#000000" font-family="sans-serif" font-size="12" lengthAdjust="spacingAndGlyphs" textLength="145" x="298.95" y="131.3672">RecommendPlatformFlow</text><line style="stroke: #A80036; stroke-width: 1.5;" x1="249.5" x2="463.5" y1="142.832" y2="142.832"/><line style="stroke: #A80036; stroke-width: 1.5;" x1="249.5" x2="463.5" y1="150.832" y2="150.832"/><text fill="#000000" font-family="sans-serif" font-size="11" lengthAdjust="spacingAndGlyphs" textLength="204" x="254.5" y="165.4668">execute(RecommendPlatformRequest)</text><path d="M2475.16,742.332 C2542.39,742.332 2617.12,742.332 2676.9,742.332 " fill="none" style="stroke: #A80036; stroke-width: 1.0;"/><polygon fill="#A80036" points="2461.82,742.332,2467.82,746.332,2473.82,742.332,2467.82,738.332,2461.82,742.332" style="stroke: #A80036; stroke-width: 1.0;"/><text fill="#000000" font-family="sans-serif" font-size="13" lengthAdjust="spacingAndGlyphs" textLength="49" x="2530" y="738.9004">HasOne</text><text fill="#000000" font-family="sans-serif" font-size="13" lengthAdjust="spacingAndGlyphs" textLength="8" x="2469.6015" y="755.6116">1</text><text fill="#000000" font-family="sans-serif" font-size="13" lengthAdjust="spacingAndGlyphs" textLength="8" x="2660.9652" y="755.4177">1</text><path d="M2474.57,782.812 C2557.98,801.992 2653.07,823.852 2716.85,838.512 " fill="none" style="stroke: #A80036; stroke-width: 1.0;"/><polygon fill="#FFFFFF" points="2461.82,779.882,2466.7708,785.1251,2473.5147,782.5717,2468.5639,777.3286,2461.82,779.882" style="stroke: #A80036; stroke-width: 1.0;"/><text fill="#000000" font-family="sans-serif" font-size="13" lengthAdjust="spacingAndGlyphs" textLength="61" x="2524" y="792.9004">Associate</text><path d="M2446.91,838.472 C2473.53,855.722 2493,868.332 2493,868.332 C2493,868.332 2633.85,995.002 2721.88,1074.172 " fill="none" style="stroke: #A80036; stroke-width: 1.0;"/><polygon fill="#A80036" points="2435.96,831.382,2438.8165,838.0032,2446.027,837.9131,2443.1705,831.2919,2435.96,831.382" style="stroke: #A80036; stroke-width: 1.0;"/><text fill="#000000" font-family="sans-serif" font-size="13" lengthAdjust="spacingAndGlyphs" textLength="57" x="2526" y="892.9004">HasMany</text><text fill="#000000" font-family="sans-serif" font-size="13" lengthAdjust="spacingAndGlyphs" textLength="8" x="2440.3555" y="852.8257">1</text><text fill="#000000" font-family="sans-serif" font-size="13" lengthAdjust="spacingAndGlyphs" textLength="10" x="2704.1848" y="1081.1198">N</text><path d="M2918.15,762.592 C2978.11,772.222 3048.32,783.492 3102.43,792.192 " fill="none" style="stroke: #A80036; stroke-width: 1.0;"/><polygon fill="#A80036" points="2905.13,760.502,2910.4157,765.4073,2916.9766,762.4149,2911.6909,757.5096,2905.13,760.502" style="stroke: #A80036; stroke-width: 1.0;"/><text fill="#000000" font-family="sans-serif" font-size="13" lengthAdjust="spacingAndGlyphs" textLength="57" x="2989.5" y="770.9004">HasMany</text><text fill="#000000" font-family="sans-serif" font-size="13" lengthAdjust="spacingAndGlyphs" textLength="8" x="2913.3053" y="776.8701">1</text><text fill="#000000" font-family="sans-serif" font-size="13" lengthAdjust="spacingAndGlyphs" textLength="10" x="3084.3888" y="804.2033">N</text><path d="M1084.07,993.792 C1159.66,986.442 1253.49,977.312 1308.84,971.922 " fill="none" style="stroke: #A80036; stroke-width: 1.0;"/><polygon fill="#A80036" points="1070.66,995.102,1077.0186,998.5032,1082.6038,993.9419,1076.2452,990.5407,1070.66,995.102" style="stroke: #A80036; stroke-width: 1.0;"/><text fill="#000000" font-family="sans-serif" font-size="13" lengthAdjust="spacingAndGlyphs" textLength="57" x="1133" y="980.9004">HasMany</text><text fill="#000000" font-family="sans-serif" font-size="13" lengthAdjust="spacingAndGlyphs" textLength="8" x="1078.3033" y="1007.283">1</text><text fill="#000000" font-family="sans-serif" font-size="13" lengthAdjust="spacingAndGlyphs" textLength="10" x="1291.1056" y="986.3087">N</text><path d="M1039.54,857.442 C1117.14,843.922 1236.99,823.052 1304.75,811.252 " fill="none" style="stroke: #A80036; stroke-width: 1.0;"/><polygon fill="#A80036" points="1026.52,859.712,1033.1166,862.6248,1038.3425,857.6559,1031.7459,854.7431,1026.52,859.712" style="stroke: #A80036; stroke-width: 1.0;"/><text fill="#000000" font-family="sans-serif" font-size="13" lengthAdjust="spacingAndGlyphs" textLength="57" x="1133" y="828.9004">HasMany</text><text fill="#000000" font-family="sans-serif" font-size="13" lengthAdjust="spacingAndGlyphs" textLength="8" x="1034.8381" y="871.4466">1</text><text fill="#000000" font-family="sans-serif" font-size="13" lengthAdjust="spacingAndGlyphs" textLength="10" x="1287.1242" y="826.0477">N</text><path d="M1408.1,802.332 C1484.46,802.332 1630.58,802.332 1720.79,802.332 " fill="none" style="stroke: #A80036; stroke-width: 1.0;"/><polygon fill="none" points="1720.79,795.332,1740.79,802.332,1720.79,809.332,1720.79,795.332" style="stroke: #A80036; stroke-width: 1.0;"/><text fill="#000000" font-family="sans-serif" font-size="13" lengthAdjust="spacingAndGlyphs" textLength="50" x="1525.5" y="798.9004">Extends</text><path d="M404.92,991.502 C501.95,993.912 725.2,999.432 858.21,1002.722 " fill="none" style="stroke: #A80036; stroke-width: 1.0;"/><polygon fill="#A80036" points="391.82,991.182,397.717,995.3324,403.8162,991.4852,397.9192,987.3349,391.82,991.182" style="stroke: #A80036; stroke-width: 1.0;"/><text fill="#000000" font-family="sans-serif" font-size="13" lengthAdjust="spacingAndGlyphs" textLength="49" x="727.5" y="995.9004">HasOne</text><text fill="#000000" font-family="sans-serif" font-size="13" lengthAdjust="spacingAndGlyphs" textLength="8" x="399.8715" y="1008.1554">1</text><text fill="#000000" font-family="sans-serif" font-size="13" lengthAdjust="spacingAndGlyphs" textLength="8" x="842.4552" y="1015.6483">1</text><path d="M404.87,980.952 C513.61,959.422 781.01,906.472 902.12,882.482 " fill="none" style="stroke: #A80036; stroke-width: 1.0;"/><polygon fill="#A80036" points="391.82,983.532,398.4808,986.2949,403.593,981.2091,396.9322,978.4462,391.82,983.532" style="stroke: #A80036; stroke-width: 1.0;"/><text fill="#000000" font-family="sans-serif" font-size="13" lengthAdjust="spacingAndGlyphs" textLength="49" x="727.5" y="900.9004">HasOne</text><text fill="#000000" font-family="sans-serif" font-size="13" lengthAdjust="spacingAndGlyphs" textLength="8" x="399.5611" y="996.2865">1</text><text fill="#000000" font-family="sans-serif" font-size="13" lengthAdjust="spacingAndGlyphs" textLength="8" x="886.4448" y="897.3404">1</text><path d="M391.64,977.092 C499.68,935.212 827,808.332 827,808.332 C827,808.332 874.59,794.042 913.57,782.332 " fill="none" style="stroke: #A80036; stroke-width: 1.0;"/><polygon fill="none" points="911.7,775.582,932.87,776.532,915.73,788.992,911.7,775.582" style="stroke: #A80036; stroke-width: 1.0;"/><text fill="#000000" font-family="sans-serif" font-size="13" lengthAdjust="spacingAndGlyphs" textLength="88" x="708" y="817.9004">BelongTo 可能</text><path d="M391.87,1015.592 C475.53,1077.052 693.2,1236.992 834.78,1341.022 " fill="none" style="stroke: #A80036; stroke-width: 1.0;"/><polygon fill="none" points="839.26,1335.622,851.23,1353.102,830.97,1346.902,839.26,1335.622" style="stroke: #A80036; stroke-width: 1.0;"/><text fill="#000000" font-family="sans-serif" font-size="13" lengthAdjust="spacingAndGlyphs" textLength="58" x="723" y="1248.9004">BelongTo</text><path d="M391.82,996.732 C520.01,1020.632 963.5,1103.332 963.5,1103.332 C963.5,1103.332 963.5,1103.332 1800.5,1103.332 C1800.5,1103.332 2078,868.332 2078,868.332 C2078,868.332 2097.43,857.132 2124.7,841.402 " fill="none" style="stroke: #A80036; stroke-width: 1.0;"/><polygon fill="none" points="2121.26,835.302,2142.08,831.382,2128.25,847.432,2121.26,835.302" style="stroke: #A80036; stroke-width: 1.0;"/><text fill="#000000" font-family="sans-serif" font-size="13" lengthAdjust="spacingAndGlyphs" textLength="58" x="1327" y="1099.9004">BelongTo</text><path d="M2858.14,1335.262 C2898.43,1289.452 2942.5,1239.332 2942.5,1239.332 C2942.5,1239.332 3069.82,1017.032 3142.01,891.002 " fill="none" style="stroke: #A80036; stroke-width: 1.0;"/><polygon fill="none" points="3136.01,887.392,3152.02,873.512,3148.16,894.352,3136.01,887.392" style="stroke: #A80036; stroke-width: 1.0;"/><text fill="#000000" font-family="sans-serif" font-size="13" lengthAdjust="spacingAndGlyphs" textLength="58" x="2989" y="1058.9004">BelongTo</text><path d="M410.04,1436.332 C502.95,1436.332 698.89,1436.332 831.15,1436.332 " fill="none" style="stroke: #A80036; stroke-width: 1.0;"/><polygon fill="none" points="831.39,1429.332,851.39,1436.332,831.39,1443.332,831.39,1429.332" style="stroke: #A80036; stroke-width: 1.0;"/><text fill="#000000" font-family="sans-serif" font-size="13" lengthAdjust="spacingAndGlyphs" textLength="69" x="717.5" y="1432.9004">Contextual</text><path d="M2409.81,1415.522 C2494.99,1414.142 2611.32,1412.252 2692.99,1410.922 " fill="none" style="stroke: #A80036; stroke-width: 1.0;"/><polygon fill="#A80036" points="2396.69,1415.742,2402.7551,1419.6426,2408.6884,1415.5443,2402.6233,1411.6437,2396.69,1415.742" style="stroke: #A80036; stroke-width: 1.0;"/><text fill="#000000" font-family="sans-serif" font-size="13" lengthAdjust="spacingAndGlyphs" textLength="57" x="2526" y="1408.9004">HasMany</text><text fill="#000000" font-family="sans-serif" font-size="13" lengthAdjust="spacingAndGlyphs" textLength="8" x="2404.4558" y="1429.3298">1</text><text fill="#000000" font-family="sans-serif" font-size="13" lengthAdjust="spacingAndGlyphs" textLength="10" x="2675.065" y="1424.1618">N</text><path d="M1882.7,1419.002 C1969.06,1418.652 2105.68,1418.102 2198.1,1417.732 " fill="none" style="stroke: #A80036; stroke-width: 1.0;"/><polygon fill="#A80036" points="1869.55,1419.062,1875.5675,1423.0356,1881.5499,1419.0093,1875.5324,1415.0357,1869.55,1419.062" style="stroke: #A80036; stroke-width: 1.0;"/><text fill="#000000" font-family="sans-serif" font-size="13" lengthAdjust="spacingAndGlyphs" textLength="49" x="2020" y="1413.9004">HasOne</text><text fill="#000000" font-family="sans-serif" font-size="13" lengthAdjust="spacingAndGlyphs" textLength="8" x="1877.5278" y="1433.4201">1</text><text fill="#000000" font-family="sans-serif" font-size="13" lengthAdjust="spacingAndGlyphs" textLength="8" x="2182.5066" y="1430.8985">1</text><path d="M403.2,1513.842 C496.26,1502.672 699,1478.332 699,1478.332 C699,1478.332 764.96,1467.902 831.13,1457.432 " fill="none" style="stroke: #A80036; stroke-width: 1.0;"/><polygon fill="none" points="830.29,1450.472,851.13,1454.262,832.47,1464.302,830.29,1450.472" style="stroke: #A80036; stroke-width: 1.0;"/><text fill="#000000" font-family="sans-serif" font-size="13" lengthAdjust="spacingAndGlyphs" textLength="69" x="717.5" y="1459.9004">Contextual</text><path d="M1091.65,1431.822 C1140.93,1430.042 1197.03,1428.022 1244.75,1426.302 " fill="none" style="stroke: #A80036; stroke-width: 1.0;"/><polygon fill="#A80036" points="1078.61,1432.292,1084.751,1436.072,1090.6021,1431.8572,1084.4611,1428.0772,1078.61,1432.292" style="stroke: #A80036; stroke-width: 1.0;"/><text fill="#000000" font-family="sans-serif" font-size="13" lengthAdjust="spacingAndGlyphs" textLength="49" x="1137" y="1424.9004">HasOne</text><text fill="#000000" font-family="sans-serif" font-size="13" lengthAdjust="spacingAndGlyphs" textLength="8" x="1086.709" y="1445.3347">1</text><text fill="#000000" font-family="sans-serif" font-size="13" lengthAdjust="spacingAndGlyphs" textLength="8" x="1229.0066" y="1439.6605">1</text><path d="M420.53,1361.082 C519.21,1373.222 699,1395.332 699,1395.332 C699,1395.332 764.96,1405.522 831.13,1415.732 " fill="none" style="stroke: #A80036; stroke-width: 1.0;"/><polygon fill="none" points="832.44,1408.852,851.13,1418.822,830.3,1422.692,832.44,1408.852" style="stroke: #A80036; stroke-width: 1.0;"/><text fill="#000000" font-family="sans-serif" font-size="13" lengthAdjust="spacingAndGlyphs" textLength="69" x="717.5" y="1392.9004">Contextual</text><path d="M1480.5,1421.492 C1561.17,1420.952 1663.54,1420.252 1730.24,1419.802 " fill="none" style="stroke: #A80036; stroke-width: 1.0;"/><polygon fill="#A80036" points="1467.24,1421.582,1473.2706,1425.5358,1479.2396,1421.4897,1473.2091,1417.536,1467.24,1421.582" style="stroke: #A80036; stroke-width: 1.0;"/><text fill="#000000" font-family="sans-serif" font-size="13" lengthAdjust="spacingAndGlyphs" textLength="57" x="1522" y="1416.9004">HasMany</text><text fill="#000000" font-family="sans-serif" font-size="13" lengthAdjust="spacingAndGlyphs" textLength="8" x="1474.9909" y="1435.1844">1</text><text fill="#000000" font-family="sans-serif" font-size="13" lengthAdjust="spacingAndGlyphs" textLength="10" x="1712.5304" y="1433.2039">N</text><text fill="#888888" font-family="sans-serif" font-size="10" lengthAdjust="spacingAndGlyphs" textLength="108" x="1634.5" y="1825">generated by DDDplus</text></g></svg>