<?xml version="1.0" encoding="UTF-8" standalone="no"?><svg xmlns="http://www.w3.org/2000/svg" xmlns:xlink="http://www.w3.org/1999/xlink" contentScriptType="application/ecmascript" contentStyleType="text/css" height="2140px" preserveAspectRatio="none" style="width:3473px;height:2140px;" version="1.1" viewBox="0 0 3473 2140" width="3473px" zoomAndPan="magnify"><defs><filter height="300%" id="f8ym73o" width="300%" x="-1" y="-1"><feGaussianBlur result="blurOut" stdDeviation="2.0"/><feColorMatrix in="blurOut" result="blurOut2" type="matrix" values="0 0 0 0 0 0 0 0 0 0 0 0 0 0 0 0 0 0 .4 0"/><feOffset dx="4.0" dy="4.0" in="blurOut2" result="blurOut3"/><feBlend in="SourceGraphic" in2="blurOut3" mode="normal"/></filter></defs><g><text fill="#888888" font-family="sans-serif" font-size="10" lengthAdjust="spacingAndGlyphs" textLength="182" x="3290" y="9.668">公共类：47，标注：26，覆盖率：55.3%</text><text fill="#888888" font-family="sans-serif" font-size="10" lengthAdjust="spacingAndGlyphs" textLength="192" x="3280" y="21.4453">公共方法：85，标注：35，覆盖率：41.2%</text><text fill="#888888" font-family="sans-serif" font-size="10" lengthAdjust="spacingAndGlyphs" textLength="198" x="3274" y="33.2227">字段属性：157，标注：36，覆盖率：22.9%</text><!--cluster 业务模型--><polygon fill="#FFFFFF" filter="url(#f8ym73o)" points="117,552.332,179,552.332,186,574.8203,3438,574.8203,3438,2103.332,117,2103.332,117,552.332" style="stroke: #000000; stroke-width: 2.0;"/><line style="stroke: #000000; stroke-width: 2.0;" x1="117" x2="186" y1="574.8203" y2="574.8203"/><text fill="#000000" font-family="sans-serif" font-size="14" font-weight="bold" lengthAdjust="spacingAndGlyphs" textLength="56" x="121" y="567.8672">业务模型</text><!--cluster Aggregate：客户出库单--><polygon fill="#FFFFFF" filter="url(#f8ym73o)" points="2181,1171.332,2344,1171.332,2351,1193.8203,3414,1193.8203,3414,1561.332,2181,1561.332,2181,1171.332" style="stroke: #000000; stroke-width: 2.0;"/><line style="stroke: #000000; stroke-width: 2.0;" x1="2181" x2="2351" y1="1193.8203" y2="1193.8203"/><text fill="#000000" font-family="sans-serif" font-size="14" font-weight="bold" lengthAdjust="spacingAndGlyphs" textLength="157" x="2185" y="1186.8672">Aggregate：客户出库单</text><text fill="#000000" font-family="sans-serif" font-size="14" font-style="italic" lengthAdjust="spacingAndGlyphs" textLength="277" x="2663" y="1209.3555">«ddd.plus.showcase.wms.domain.order»</text><!--cluster Aggregate：包裹--><polygon fill="#FFFFFF" filter="url(#f8ym73o)" points="2742.5,904.332,2863.5,904.332,2870.5,926.8203,3029.5,926.8203,3029.5,1147.332,2742.5,1147.332,2742.5,904.332" style="stroke: #000000; stroke-width: 2.0;"/><line style="stroke: #000000; stroke-width: 2.0;" x1="2742.5" x2="2870.5" y1="926.8203" y2="926.8203"/><text fill="#000000" font-family="sans-serif" font-size="14" font-weight="bold" lengthAdjust="spacingAndGlyphs" textLength="115" x="2746.5" y="919.8672">Aggregate：包裹</text><text fill="#000000" font-family="sans-serif" font-size="14" font-style="italic" lengthAdjust="spacingAndGlyphs" textLength="271" x="2754.5" y="942.3555">«ddd.plus.showcase.wms.domain.pack»</text><!--cluster Aggregate：复核报差异--><polygon fill="#FFFFFF" filter="url(#f8ym73o)" points="1761,595.332,1924,595.332,1931,617.8203,2992,617.8203,2992,880.332,1761,880.332,1761,595.332" style="stroke: #000000; stroke-width: 2.0;"/><line style="stroke: #000000; stroke-width: 2.0;" x1="1761" x2="1931" y1="617.8203" y2="617.8203"/><text fill="#000000" font-family="sans-serif" font-size="14" font-weight="bold" lengthAdjust="spacingAndGlyphs" textLength="157" x="1765" y="610.8672">Aggregate：复核报差异</text><text fill="#000000" font-family="sans-serif" font-size="14" font-style="italic" lengthAdjust="spacingAndGlyphs" textLength="262" x="2249.5" y="633.3555">«ddd.plus.showcase.wms.domain.diff»</text><!--cluster Aggregate：装箱--><polygon fill="#FFFFFF" filter="url(#f8ym73o)" points="141,1022.332,262,1022.332,269,1044.8203,1565.5,1044.8203,1565.5,1405.332,141,1405.332,141,1022.332" style="stroke: #000000; stroke-width: 2.0;"/><line style="stroke: #000000; stroke-width: 2.0;" x1="141" x2="269" y1="1044.8203" y2="1044.8203"/><text fill="#000000" font-family="sans-serif" font-size="14" font-weight="bold" lengthAdjust="spacingAndGlyphs" textLength="115" x="145" y="1037.8672">Aggregate：装箱</text><text fill="#000000" font-family="sans-serif" font-size="14" font-style="italic" lengthAdjust="spacingAndGlyphs" textLength="283" x="715.75" y="1060.3555">«ddd.plus.showcase.wms.domain.carton»</text><!--cluster Aggregate：通用子域--><polygon fill="#FFFFFF" filter="url(#f8ym73o)" points="1737.5,1028.332,1886.5,1028.332,1893.5,1050.8203,2052.5,1050.8203,2052.5,1201.332,1737.5,1201.332,1737.5,1028.332" style="stroke: #000000; stroke-width: 2.0;"/><line style="stroke: #000000; stroke-width: 2.0;" x1="1737.5" x2="1893.5" y1="1050.8203" y2="1050.8203"/><text fill="#000000" font-family="sans-serif" font-size="14" font-weight="bold" lengthAdjust="spacingAndGlyphs" textLength="143" x="1741.5" y="1043.8672">Aggregate：通用子域</text><text fill="#000000" font-family="sans-serif" font-size="14" font-style="italic" lengthAdjust="spacingAndGlyphs" textLength="299" x="1749.5" y="1066.3555">«ddd.plus.showcase.wms.domain.common»</text><!--cluster Aggregate：出库复核任务--><polygon fill="#FFFFFF" filter="url(#f8ym73o)" points="281.5,1585.332,458.5,1585.332,465.5,1607.8203,3024.5,1607.8203,3024.5,1888.332,281.5,1888.332,281.5,1585.332" style="stroke: #000000; stroke-width: 2.0;"/><line style="stroke: #000000; stroke-width: 2.0;" x1="281.5" x2="465.5" y1="1607.8203" y2="1607.8203"/><text fill="#000000" font-family="sans-serif" font-size="14" font-weight="bold" lengthAdjust="spacingAndGlyphs" textLength="171" x="285.5" y="1600.8672">Aggregate：出库复核任务</text><text fill="#000000" font-family="sans-serif" font-size="14" font-style="italic" lengthAdjust="spacingAndGlyphs" textLength="267" x="1523.5" y="1623.3555">«ddd.plus.showcase.wms.domain.task»</text><!--cluster Aggregate：发货--><polygon fill="#FFFFFF" filter="url(#f8ym73o)" points="220,1912.332,341,1912.332,348,1934.8203,504,1934.8203,504,2079.332,220,2079.332,220,1912.332" style="stroke: #000000; stroke-width: 2.0;"/><line style="stroke: #000000; stroke-width: 2.0;" x1="220" x2="348" y1="1934.8203" y2="1934.8203"/><text fill="#000000" font-family="sans-serif" font-size="14" font-weight="bold" lengthAdjust="spacingAndGlyphs" textLength="115" x="224" y="1927.8672">Aggregate：发货</text><text fill="#000000" font-family="sans-serif" font-size="14" font-style="italic" lengthAdjust="spacingAndGlyphs" textLength="268" x="232" y="1950.3555">«ddd.plus.showcase.wms.domain.ship»</text><!--cluster 交互--><polygon fill="#FFFFFF" filter="url(#f8ym73o)" points="22,212.332,56,212.332,63,234.8203,701,234.8203,701,528.332,22,528.332,22,212.332" style="stroke: #000000; stroke-width: 2.0;"/><line style="stroke: #000000; stroke-width: 2.0;" x1="22" x2="63" y1="234.8203" y2="234.8203"/><text fill="#000000" font-family="sans-serif" font-size="14" font-weight="bold" lengthAdjust="spacingAndGlyphs" textLength="28" x="26" y="227.8672">交互</text><text fill="#000000" font-family="sans-serif" font-size="14" font-style="italic" lengthAdjust="spacingAndGlyphs" textLength="72" x="329.5" y="250.3555">«UseCase»</text><!--cluster 跨聚合复杂流程--><polygon fill="#FFFFFF" filter="url(#f8ym73o)" points="237.5,59.332,341.5,59.332,348.5,81.8203,485.5,81.8203,485.5,188.332,237.5,188.332,237.5,59.332" style="stroke: #000000; stroke-width: 2.0;"/><line style="stroke: #000000; stroke-width: 2.0;" x1="237.5" x2="348.5" y1="81.8203" y2="81.8203"/><text fill="#000000" font-family="sans-serif" font-size="14" font-weight="bold" lengthAdjust="spacingAndGlyphs" textLength="98" x="241.5" y="74.8672">跨聚合复杂流程</text><text fill="#000000" font-family="sans-serif" font-size="14" font-style="italic" lengthAdjust="spacingAndGlyphs" textLength="125" x="303" y="97.3555">«Orphan Services»</text><!--class Order--><rect fill="#FEFECE" filter="url(#f8ym73o)" height="178.8613" style="stroke: #A80036; stroke-width: 1.5;" width="328" x="2228.5" y="1242.332"/><ellipse cx="2346.25" cy="1261.4648" fill="#FF7700" rx="11" ry="11" style="stroke: #A80036; stroke-width: 1.0;"/><path d="M2346.9487,1262.1128 Q2347.314,1262.1875 2347.5837,1262.4573 Q2347.8535,1262.7271 2348.2437,1263.5073 L2350.4849,1267.9648 L2347.7954,1267.9648 L2346.3013,1264.8354 Q2346.2349,1264.7026 2346.127,1264.4702 Q2345.4712,1263.0674 2344.583,1263.0674 L2343.8027,1263.0674 L2343.8027,1267.9648 L2341.354,1267.9648 L2341.354,1255.5718 L2344.8901,1255.5718 Q2347.2808,1255.5718 2348.3225,1256.4185 Q2349.3643,1257.2651 2349.3643,1259.1743 Q2349.3643,1260.4526 2348.7417,1261.208 Q2348.1191,1261.9634 2346.9487,1262.1128 Z M2343.8027,1257.6304 L2343.8027,1261.0088 L2344.9565,1261.0088 Q2345.9609,1261.0088 2346.3967,1260.6145 Q2346.8325,1260.2202 2346.8325,1259.3154 Q2346.8325,1258.4106 2346.4009,1258.0205 Q2345.9692,1257.6304 2344.9565,1257.6304 Z "/><text fill="#000000" font-family="sans-serif" font-size="12" font-style="italic" lengthAdjust="spacingAndGlyphs" textLength="88" x="2364.75" y="1258.9336">«客户的出库单.»</text><text fill="#000000" font-family="sans-serif" font-size="12" lengthAdjust="spacingAndGlyphs" textLength="34" x="2391.75" y="1273.0664">Order</text><line style="stroke: #A80036; stroke-width: 1.5;" x1="2229.5" x2="2555.5" y1="1280.5977" y2="1280.5977"/><text fill="#000000" font-family="sans-serif" font-size="11" lengthAdjust="spacingAndGlyphs" textLength="160" x="2234.5" y="1312.1875">OrderStatus ProductionStatus</text><line style="stroke: #A80036; stroke-width: 1.5;" x1="2229.5" x2="2369.5" y1="1295.0752" y2="1295.0752"/><text fill="#000000" font-family="sans-serif" font-size="11" lengthAdjust="spacingAndGlyphs" textLength="46" x="2369.5" y="1298.7324">Lifecycle</text><line style="stroke: #A80036; stroke-width: 1.5;" x1="2415.5" x2="2555.5" y1="1295.0752" y2="1295.0752"/><text fill="#000000" font-family="sans-serif" font-size="11" lengthAdjust="spacingAndGlyphs" textLength="89" x="2234.5" y="1342.0977">OrderConstraint</text><line style="stroke: #A80036; stroke-width: 1.5;" x1="2229.5" x2="2361" y1="1324.9854" y2="1324.9854"/><text fill="#000000" font-family="sans-serif" font-size="11" lengthAdjust="spacingAndGlyphs" textLength="63" x="2361" y="1328.6426">Operational</text><line style="stroke: #A80036; stroke-width: 1.5;" x1="2424" x2="2555.5" y1="1324.9854" y2="1324.9854"/><text fill="#000000" font-family="sans-serif" font-size="11" lengthAdjust="spacingAndGlyphs" textLength="316" x="2234.5" y="1372.0078">recommendedPlatformNo() 该订单已经被推荐到哪一个复核台.</text><line style="stroke: #A80036; stroke-width: 1.5;" x1="2229.5" x2="2381.5" y1="1354.8955" y2="1354.8955"/><text fill="#000000" font-family="sans-serif" font-size="11" lengthAdjust="spacingAndGlyphs" textLength="22" x="2381.5" y="1358.5527">规则</text><line style="stroke: #A80036; stroke-width: 1.5;" x1="2403.5" x2="2555.5" y1="1354.8955" y2="1354.8955"/><text fill="#000000" font-family="sans-serif" font-size="11" lengthAdjust="spacingAndGlyphs" textLength="40" x="2234.5" y="1401.918">pause()</text><text fill="#000000" font-family="sans-serif" font-size="11" lengthAdjust="spacingAndGlyphs" textLength="48" x="2234.5" y="1414.873">resume()</text><line style="stroke: #A80036; stroke-width: 1.5;" x1="2229.5" x2="2381.5" y1="1384.8057" y2="1384.8057"/><text fill="#000000" font-family="sans-serif" font-size="11" lengthAdjust="spacingAndGlyphs" textLength="22" x="2381.5" y="1388.4629">行为</text><line style="stroke: #A80036; stroke-width: 1.5;" x1="2403.5" x2="2555.5" y1="1384.8057" y2="1384.8057"/><!--class Order.OrderCartons--><rect fill="#FEFECE" filter="url(#f8ym73o)" height="48" style="stroke: #A80036; stroke-width: 1.5;" width="148" x="2812" y="1459.332"/><ellipse cx="2827" cy="1475.332" fill="#9197DB" rx="11" ry="11" style="stroke: #A80036; stroke-width: 1.0;"/><path d="M2825.4033,1476.7041 L2825.4033,1480.373 L2827.0303,1480.373 Q2828.2007,1480.373 2828.6697,1479.9746 Q2829.1387,1479.5762 2829.1387,1478.5884 Q2829.1387,1477.584 2828.6489,1477.144 Q2828.1592,1476.7041 2827.0303,1476.7041 Z M2825.4033,1471.873 L2825.4033,1474.7534 L2827.0303,1474.7534 Q2827.96,1474.7534 2828.3542,1474.4214 Q2828.7485,1474.0894 2828.7485,1473.3257 Q2828.7485,1472.562 2828.3459,1472.2175 Q2827.9434,1471.873 2827.0303,1471.873 Z M2823.0376,1469.9224 L2827.0303,1469.9224 Q2829.0972,1469.9224 2830.1389,1470.7068 Q2831.1807,1471.4912 2831.1807,1473.0518 Q2831.1807,1474.2471 2830.5664,1474.9194 Q2829.9521,1475.5918 2828.7651,1475.6997 Q2830.1846,1475.8408 2830.9026,1476.6543 Q2831.6206,1477.4678 2831.6206,1478.9287 Q2831.6206,1480.7217 2830.5415,1481.5269 Q2829.4624,1482.332 2827.0303,1482.332 L2823.0376,1482.332 Z "/><text fill="#000000" font-family="sans-serif" font-size="12" lengthAdjust="spacingAndGlyphs" textLength="116" x="2841" y="1479.8672">Order.OrderCartons</text><line style="stroke: #A80036; stroke-width: 1.5;" x1="2813" x2="2959" y1="1491.332" y2="1491.332"/><line style="stroke: #A80036; stroke-width: 1.5;" x1="2813" x2="2959" y1="1499.332" y2="1499.332"/><!--class OrderContainerItems--><rect fill="#FEFECE" filter="url(#f8ym73o)" height="48" style="stroke: #A80036; stroke-width: 1.5;" width="152" x="2810" y="1376.332"/><ellipse cx="2825" cy="1392.332" fill="#9197DB" rx="11" ry="11" style="stroke: #A80036; stroke-width: 1.0;"/><path d="M2823.4033,1393.7041 L2823.4033,1397.373 L2825.0303,1397.373 Q2826.2007,1397.373 2826.6697,1396.9746 Q2827.1387,1396.5762 2827.1387,1395.5884 Q2827.1387,1394.584 2826.6489,1394.144 Q2826.1592,1393.7041 2825.0303,1393.7041 Z M2823.4033,1388.873 L2823.4033,1391.7534 L2825.0303,1391.7534 Q2825.96,1391.7534 2826.3542,1391.4214 Q2826.7485,1391.0894 2826.7485,1390.3257 Q2826.7485,1389.562 2826.3459,1389.2175 Q2825.9434,1388.873 2825.0303,1388.873 Z M2821.0376,1386.9224 L2825.0303,1386.9224 Q2827.0972,1386.9224 2828.1389,1387.7068 Q2829.1807,1388.4912 2829.1807,1390.0518 Q2829.1807,1391.2471 2828.5664,1391.9194 Q2827.9521,1392.5918 2826.7651,1392.6997 Q2828.1846,1392.8408 2828.9026,1393.6543 Q2829.6206,1394.4678 2829.6206,1395.9287 Q2829.6206,1397.7217 2828.5415,1398.5269 Q2827.4624,1399.332 2825.0303,1399.332 L2821.0376,1399.332 Z "/><text fill="#000000" font-family="sans-serif" font-size="12" lengthAdjust="spacingAndGlyphs" textLength="120" x="2839" y="1396.8672">OrderContainerItems</text><line style="stroke: #A80036; stroke-width: 1.5;" x1="2811" x2="2961" y1="1408.332" y2="1408.332"/><line style="stroke: #A80036; stroke-width: 1.5;" x1="2811" x2="2961" y1="1416.332" y2="1416.332"/><!--class OrderLine--><rect fill="#FEFECE" filter="url(#f8ym73o)" height="135.9961" style="stroke: #A80036; stroke-width: 1.5;" width="177" x="3197.5" y="1243.332"/><ellipse cx="3253.25" cy="1262.4648" fill="#ADD1B2" rx="11" ry="11" style="stroke: #A80036; stroke-width: 1.0;"/><path d="M3255.7231,1268.6079 Q3255.1421,1268.9067 3254.5029,1269.0562 Q3253.8638,1269.2056 3253.1582,1269.2056 Q3250.6514,1269.2056 3249.3315,1267.5537 Q3248.0117,1265.9019 3248.0117,1262.7808 Q3248.0117,1259.6514 3249.3315,1257.9995 Q3250.6514,1256.3477 3253.1582,1256.3477 Q3253.8638,1256.3477 3254.5112,1256.4971 Q3255.1587,1256.6465 3255.7231,1256.9453 L3255.7231,1259.668 Q3255.0923,1259.0869 3254.4988,1258.8171 Q3253.9053,1258.5474 3253.2744,1258.5474 Q3251.9297,1258.5474 3251.2449,1259.614 Q3250.5601,1260.6807 3250.5601,1262.7808 Q3250.5601,1264.8726 3251.2449,1265.9392 Q3251.9297,1267.0059 3253.2744,1267.0059 Q3253.9053,1267.0059 3254.4988,1266.7361 Q3255.0923,1266.4663 3255.7231,1265.8853 Z "/><text fill="#000000" font-family="sans-serif" font-size="12" font-style="italic" lengthAdjust="spacingAndGlyphs" textLength="52" x="3276.25" y="1259.9336">«订单行.»</text><text fill="#000000" font-family="sans-serif" font-size="12" lengthAdjust="spacingAndGlyphs" textLength="57" x="3273.75" y="1274.0664">OrderLine</text><line style="stroke: #A80036; stroke-width: 1.5;" x1="3198.5" x2="3373.5" y1="1281.5977" y2="1281.5977"/><text fill="#000000" font-family="sans-serif" font-size="11" lengthAdjust="spacingAndGlyphs" textLength="91" x="3203.5" y="1313.1875">OrderLineNo Sku</text><line style="stroke: #A80036; stroke-width: 1.5;" x1="3198.5" x2="3259.5" y1="1296.0752" y2="1296.0752"/><text fill="#000000" font-family="sans-serif" font-size="11" lengthAdjust="spacingAndGlyphs" textLength="53" x="3259.5" y="1299.7324">Structural</text><line style="stroke: #A80036; stroke-width: 1.5;" x1="3312.5" x2="3373.5" y1="1296.0752" y2="1296.0752"/><text fill="#000000" font-family="sans-serif" font-size="11" lengthAdjust="spacingAndGlyphs" textLength="165" x="3203.5" y="1343.0977">qty/要货量 shortageQty/缺货量</text><line style="stroke: #A80036; stroke-width: 1.5;" x1="3198.5" x2="3263" y1="1325.9854" y2="1325.9854"/><text fill="#000000" font-family="sans-serif" font-size="11" lengthAdjust="spacingAndGlyphs" textLength="46" x="3263" y="1329.6426">Quantity</text><line style="stroke: #A80036; stroke-width: 1.5;" x1="3309" x2="3373.5" y1="1325.9854" y2="1325.9854"/><text fill="#000000" font-family="sans-serif" font-size="11" lengthAdjust="spacingAndGlyphs" textLength="154" x="3203.5" y="1373.0078">expectedQty/要货量-缺货量()</text><line style="stroke: #A80036; stroke-width: 1.5;" x1="3198.5" x2="3275" y1="1355.8955" y2="1355.8955"/><text fill="#000000" font-family="sans-serif" font-size="11" lengthAdjust="spacingAndGlyphs" textLength="22" x="3275" y="1359.5527">规则</text><line style="stroke: #A80036; stroke-width: 1.5;" x1="3297" x2="3373.5" y1="1355.8955" y2="1355.8955"/><!--class OrderLineBag--><rect fill="#FEFECE" filter="url(#f8ym73o)" height="69.9102" style="stroke: #A80036; stroke-width: 1.5;" width="228" x="2772" y="1252.332"/><ellipse cx="2842.75" cy="1268.332" fill="#9197DB" rx="11" ry="11" style="stroke: #A80036; stroke-width: 1.0;"/><path d="M2841.1533,1269.7041 L2841.1533,1273.373 L2842.7803,1273.373 Q2843.9507,1273.373 2844.4197,1272.9746 Q2844.8887,1272.5762 2844.8887,1271.5884 Q2844.8887,1270.584 2844.3989,1270.144 Q2843.9092,1269.7041 2842.7803,1269.7041 Z M2841.1533,1264.873 L2841.1533,1267.7534 L2842.7803,1267.7534 Q2843.71,1267.7534 2844.1042,1267.4214 Q2844.4985,1267.0894 2844.4985,1266.3257 Q2844.4985,1265.562 2844.0959,1265.2175 Q2843.6934,1264.873 2842.7803,1264.873 Z M2838.7876,1262.9224 L2842.7803,1262.9224 Q2844.8472,1262.9224 2845.8889,1263.7068 Q2846.9307,1264.4912 2846.9307,1266.0518 Q2846.9307,1267.2471 2846.3164,1267.9194 Q2845.7021,1268.5918 2844.5151,1268.6997 Q2845.9346,1268.8408 2846.6526,1269.6543 Q2847.3706,1270.4678 2847.3706,1271.9287 Q2847.3706,1273.7217 2846.2915,1274.5269 Q2845.2124,1275.332 2842.7803,1275.332 L2838.7876,1275.332 Z "/><text fill="#000000" font-family="sans-serif" font-size="12" lengthAdjust="spacingAndGlyphs" textLength="78" x="2863.25" y="1272.8672">OrderLineBag</text><line style="stroke: #A80036; stroke-width: 1.5;" x1="2773" x2="2999" y1="1284.332" y2="1284.332"/><text fill="#000000" font-family="sans-serif" font-size="11" lengthAdjust="spacingAndGlyphs" textLength="216" x="2778" y="1315.9219">totalExpectedQty() 期望的总装箱货品件数.</text><line style="stroke: #A80036; stroke-width: 1.5;" x1="2773" x2="2875" y1="1298.8096" y2="1298.8096"/><text fill="#000000" font-family="sans-serif" font-size="11" lengthAdjust="spacingAndGlyphs" textLength="22" x="2875" y="1302.4668">规则</text><line style="stroke: #A80036; stroke-width: 1.5;" x1="2897" x2="2999" y1="1298.8096" y2="1298.8096"/><!--class OrderBag--><rect fill="#FEFECE" filter="url(#f8ym73o)" height="69.9102" style="stroke: #A80036; stroke-width: 1.5;" width="391" x="2197" y="1475.332"/><ellipse cx="2360.75" cy="1491.332" fill="#9197DB" rx="11" ry="11" style="stroke: #A80036; stroke-width: 1.0;"/><path d="M2359.1533,1492.7041 L2359.1533,1496.373 L2360.7803,1496.373 Q2361.9507,1496.373 2362.4197,1495.9746 Q2362.8887,1495.5762 2362.8887,1494.5884 Q2362.8887,1493.584 2362.3989,1493.144 Q2361.9092,1492.7041 2360.7803,1492.7041 Z M2359.1533,1487.873 L2359.1533,1490.7534 L2360.7803,1490.7534 Q2361.71,1490.7534 2362.1042,1490.4214 Q2362.4985,1490.0894 2362.4985,1489.3257 Q2362.4985,1488.562 2362.0959,1488.2175 Q2361.6934,1487.873 2360.7803,1487.873 Z M2356.7876,1485.9224 L2360.7803,1485.9224 Q2362.8472,1485.9224 2363.8889,1486.7068 Q2364.9307,1487.4912 2364.9307,1489.0518 Q2364.9307,1490.2471 2364.3164,1490.9194 Q2363.7021,1491.5918 2362.5151,1491.6997 Q2363.9346,1491.8408 2364.6526,1492.6543 Q2365.3706,1493.4678 2365.3706,1494.9287 Q2365.3706,1496.7217 2364.2915,1497.5269 Q2363.2124,1498.332 2360.7803,1498.332 L2356.7876,1498.332 Z "/><text fill="#000000" font-family="sans-serif" font-size="12" lengthAdjust="spacingAndGlyphs" textLength="55" x="2381.25" y="1495.8672">OrderBag</text><line style="stroke: #A80036; stroke-width: 1.5;" x1="2198" x2="2587" y1="1507.332" y2="1507.332"/><text fill="#000000" font-family="sans-serif" font-size="11" lengthAdjust="spacingAndGlyphs" textLength="379" x="2203" y="1538.9219">subBagOfCanceled() 当前出库单集合里哪些已经在单据中心里被客户取消了.</text><line style="stroke: #A80036; stroke-width: 1.5;" x1="2198" x2="2381.5" y1="1521.8096" y2="1521.8096"/><text fill="#000000" font-family="sans-serif" font-size="11" lengthAdjust="spacingAndGlyphs" textLength="22" x="2381.5" y="1525.4668">行为</text><line style="stroke: #A80036; stroke-width: 1.5;" x1="2403.5" x2="2587" y1="1521.8096" y2="1521.8096"/><!--class Pack--><rect fill="#FEFECE" filter="url(#f8ym73o)" height="135.9961" style="stroke: #A80036; stroke-width: 1.5;" width="139" x="2817" y="976.332"/><ellipse cx="2864.25" cy="995.4648" fill="#FF7700" rx="11" ry="11" style="stroke: #A80036; stroke-width: 1.0;"/><path d="M2864.9487,996.1128 Q2865.314,996.1875 2865.5837,996.4573 Q2865.8535,996.7271 2866.2437,997.5073 L2868.4849,1001.9648 L2865.7954,1001.9648 L2864.3013,998.8354 Q2864.2349,998.7026 2864.127,998.4702 Q2863.4712,997.0674 2862.583,997.0674 L2861.8027,997.0674 L2861.8027,1001.9648 L2859.354,1001.9648 L2859.354,989.5718 L2862.8901,989.5718 Q2865.2808,989.5718 2866.3225,990.4185 Q2867.3643,991.2651 2867.3643,993.1743 Q2867.3643,994.4526 2866.7417,995.208 Q2866.1191,995.9634 2864.9487,996.1128 Z M2861.8027,991.6304 L2861.8027,995.0088 L2862.9565,995.0088 Q2863.9609,995.0088 2864.3967,994.6145 Q2864.8325,994.2202 2864.8325,993.3154 Q2864.8325,992.4106 2864.4009,992.0205 Q2863.9692,991.6304 2862.9565,991.6304 Z "/><text fill="#000000" font-family="sans-serif" font-size="12" font-style="italic" lengthAdjust="spacingAndGlyphs" textLength="40" x="2882.75" y="992.9336">«包裹.»</text><text fill="#000000" font-family="sans-serif" font-size="12" lengthAdjust="spacingAndGlyphs" textLength="27" x="2889.25" y="1007.0664">Pack</text><line style="stroke: #A80036; stroke-width: 1.5;" x1="2818" x2="2955" y1="1014.5977" y2="1014.5977"/><text fill="#000000" font-family="sans-serif" font-size="11" lengthAdjust="spacingAndGlyphs" textLength="99" x="2823" y="1046.1875">orderNo waybillNo</text><line style="stroke: #A80036; stroke-width: 1.5;" x1="2818" x2="2860" y1="1029.0752" y2="1029.0752"/><text fill="#000000" font-family="sans-serif" font-size="11" lengthAdjust="spacingAndGlyphs" textLength="53" x="2860" y="1032.7324">Structural</text><line style="stroke: #A80036; stroke-width: 1.5;" x1="2913" x2="2955" y1="1029.0752" y2="1029.0752"/><text fill="#000000" font-family="sans-serif" font-size="11" lengthAdjust="spacingAndGlyphs" textLength="57" x="2823" y="1076.0977">PackStatus</text><line style="stroke: #A80036; stroke-width: 1.5;" x1="2818" x2="2863.5" y1="1058.9854" y2="1058.9854"/><text fill="#000000" font-family="sans-serif" font-size="11" lengthAdjust="spacingAndGlyphs" textLength="46" x="2863.5" y="1062.6426">Lifecycle</text><line style="stroke: #A80036; stroke-width: 1.5;" x1="2909.5" x2="2955" y1="1058.9854" y2="1058.9854"/><text fill="#000000" font-family="sans-serif" font-size="11" lengthAdjust="spacingAndGlyphs" textLength="127" x="2823" y="1106.0078">totalVolume totalWeight</text><line style="stroke: #A80036; stroke-width: 1.5;" x1="2818" x2="2870.5" y1="1088.8955" y2="1088.8955"/><text fill="#000000" font-family="sans-serif" font-size="11" lengthAdjust="spacingAndGlyphs" textLength="32" x="2870.5" y="1092.5527">Billing</text><line style="stroke: #A80036; stroke-width: 1.5;" x1="2902.5" x2="2955" y1="1088.8955" y2="1088.8955"/><!--class ContainerDiff--><rect fill="#FEFECE" filter="url(#f8ym73o)" height="178.8613" style="stroke: #A80036; stroke-width: 1.5;" width="188" x="1801" y="666.332"/><ellipse cx="1816" cy="685.4648" fill="#FF7700" rx="11" ry="11" style="stroke: #A80036; stroke-width: 1.0;"/><path d="M1816.6987,686.1128 Q1817.064,686.1875 1817.3337,686.4573 Q1817.6035,686.7271 1817.9937,687.5073 L1820.2349,691.9648 L1817.5454,691.9648 L1816.0513,688.8354 Q1815.9849,688.7026 1815.877,688.4702 Q1815.2212,687.0674 1814.333,687.0674 L1813.5527,687.0674 L1813.5527,691.9648 L1811.104,691.9648 L1811.104,679.5718 L1814.6401,679.5718 Q1817.0308,679.5718 1818.0725,680.4185 Q1819.1143,681.2651 1819.1143,683.1743 Q1819.1143,684.4526 1818.4917,685.208 Q1817.8691,685.9634 1816.6987,686.1128 Z M1813.5527,681.6304 L1813.5527,685.0088 L1814.7065,685.0088 Q1815.7109,685.0088 1816.1467,684.6145 Q1816.5825,684.2202 1816.5825,683.3154 Q1816.5825,682.4106 1816.1509,682.0205 Q1815.7192,681.6304 1814.7065,681.6304 Z "/><text fill="#000000" font-family="sans-serif" font-size="12" font-style="italic" lengthAdjust="spacingAndGlyphs" textLength="160" x="1828" y="682.9336">«复核过程中发现的容器差异.»</text><text fill="#000000" font-family="sans-serif" font-size="12" lengthAdjust="spacingAndGlyphs" textLength="75" x="1870.5" y="697.0664">ContainerDiff</text><line style="stroke: #A80036; stroke-width: 1.5;" x1="1802" x2="1988" y1="704.5977" y2="704.5977"/><text fill="#000000" font-family="sans-serif" font-size="11" lengthAdjust="spacingAndGlyphs" textLength="66" x="1807" y="736.1875">containerNo</text><line style="stroke: #A80036; stroke-width: 1.5;" x1="1802" x2="1868.5" y1="719.0752" y2="719.0752"/><text fill="#000000" font-family="sans-serif" font-size="11" lengthAdjust="spacingAndGlyphs" textLength="53" x="1868.5" y="722.7324">Structural</text><line style="stroke: #A80036; stroke-width: 1.5;" x1="1921.5" x2="1988" y1="719.0752" y2="719.0752"/><text fill="#000000" font-family="sans-serif" font-size="11" lengthAdjust="spacingAndGlyphs" textLength="37" x="1807" y="766.0977">reason</text><line style="stroke: #A80036; stroke-width: 1.5;" x1="1802" x2="1863.5" y1="748.9854" y2="748.9854"/><text fill="#000000" font-family="sans-serif" font-size="11" lengthAdjust="spacingAndGlyphs" textLength="63" x="1863.5" y="752.6426">Operational</text><line style="stroke: #A80036; stroke-width: 1.5;" x1="1926.5" x2="1988" y1="748.9854" y2="748.9854"/><text fill="#000000" font-family="sans-serif" font-size="11" lengthAdjust="spacingAndGlyphs" textLength="46" x="1807" y="796.0078">platform</text><line style="stroke: #A80036; stroke-width: 1.5;" x1="1802" x2="1872" y1="778.8955" y2="778.8955"/><text fill="#000000" font-family="sans-serif" font-size="11" lengthAdjust="spacingAndGlyphs" textLength="46" x="1872" y="782.5527">Location</text><line style="stroke: #A80036; stroke-width: 1.5;" x1="1918" x2="1988" y1="778.8955" y2="778.8955"/><text fill="#000000" font-family="sans-serif" font-size="11" lengthAdjust="spacingAndGlyphs" textLength="87" x="1807" y="825.918">registerBroken()</text><text fill="#000000" font-family="sans-serif" font-size="11" lengthAdjust="spacingAndGlyphs" textLength="73" x="1807" y="838.873">registerLost()</text><line style="stroke: #A80036; stroke-width: 1.5;" x1="1802" x2="1884" y1="808.8057" y2="808.8057"/><text fill="#000000" font-family="sans-serif" font-size="11" lengthAdjust="spacingAndGlyphs" textLength="22" x="1884" y="812.4629">行为</text><line style="stroke: #A80036; stroke-width: 1.5;" x1="1906" x2="1988" y1="808.8057" y2="808.8057"/><!--class ContainerDiffItem--><rect fill="#FEFECE" filter="url(#f8ym73o)" height="69.9102" style="stroke: #A80036; stroke-width: 1.5;" width="132" x="2820" y="761.332"/><ellipse cx="2835" cy="777.332" fill="#ADD1B2" rx="11" ry="11" style="stroke: #A80036; stroke-width: 1.0;"/><path d="M2837.4731,783.4751 Q2836.8921,783.7739 2836.2529,783.9233 Q2835.6138,784.0728 2834.9082,784.0728 Q2832.4014,784.0728 2831.0815,782.4209 Q2829.7617,780.769 2829.7617,777.6479 Q2829.7617,774.5186 2831.0815,772.8667 Q2832.4014,771.2148 2834.9082,771.2148 Q2835.6138,771.2148 2836.2612,771.3643 Q2836.9087,771.5137 2837.4731,771.8125 L2837.4731,774.5352 Q2836.8423,773.9541 2836.2488,773.6843 Q2835.6553,773.4146 2835.0244,773.4146 Q2833.6797,773.4146 2832.9949,774.4812 Q2832.3101,775.5479 2832.3101,777.6479 Q2832.3101,779.7397 2832.9949,780.8064 Q2833.6797,781.873 2835.0244,781.873 Q2835.6553,781.873 2836.2488,781.6033 Q2836.8423,781.3335 2837.4731,780.7524 Z "/><text fill="#000000" font-family="sans-serif" font-size="12" lengthAdjust="spacingAndGlyphs" textLength="100" x="2849" y="781.8672">ContainerDiffItem</text><line style="stroke: #A80036; stroke-width: 1.5;" x1="2821" x2="2951" y1="793.332" y2="793.332"/><text fill="#000000" font-family="sans-serif" font-size="11" lengthAdjust="spacingAndGlyphs" textLength="19" x="2826" y="824.9219">Sku</text><line style="stroke: #A80036; stroke-width: 1.5;" x1="2821" x2="2859.5" y1="807.8096" y2="807.8096"/><text fill="#000000" font-family="sans-serif" font-size="11" lengthAdjust="spacingAndGlyphs" textLength="53" x="2859.5" y="811.4668">Structural</text><line style="stroke: #A80036; stroke-width: 1.5;" x1="2912.5" x2="2951" y1="807.8096" y2="807.8096"/><!--class ContainerDiffItemBag--><rect fill="#FEFECE" filter="url(#f8ym73o)" height="48" style="stroke: #A80036; stroke-width: 1.5;" width="153" x="2316.5" y="738.332"/><ellipse cx="2331.5" cy="754.332" fill="#9197DB" rx="11" ry="11" style="stroke: #A80036; stroke-width: 1.0;"/><path d="M2329.9033,755.7041 L2329.9033,759.373 L2331.5303,759.373 Q2332.7007,759.373 2333.1697,758.9746 Q2333.6387,758.5762 2333.6387,757.5884 Q2333.6387,756.584 2333.1489,756.144 Q2332.6592,755.7041 2331.5303,755.7041 Z M2329.9033,750.873 L2329.9033,753.7534 L2331.5303,753.7534 Q2332.46,753.7534 2332.8542,753.4214 Q2333.2485,753.0894 2333.2485,752.3257 Q2333.2485,751.562 2332.8459,751.2175 Q2332.4434,750.873 2331.5303,750.873 Z M2327.5376,748.9224 L2331.5303,748.9224 Q2333.5972,748.9224 2334.6389,749.7068 Q2335.6807,750.4912 2335.6807,752.0518 Q2335.6807,753.2471 2335.0664,753.9194 Q2334.4521,754.5918 2333.2651,754.6997 Q2334.6846,754.8408 2335.4026,755.6543 Q2336.1206,756.4678 2336.1206,757.9287 Q2336.1206,759.7217 2335.0415,760.5269 Q2333.9624,761.332 2331.5303,761.332 L2327.5376,761.332 Z "/><text fill="#000000" font-family="sans-serif" font-size="12" lengthAdjust="spacingAndGlyphs" textLength="121" x="2345.5" y="758.8672">ContainerDiffItemBag</text><line style="stroke: #A80036; stroke-width: 1.5;" x1="2317.5" x2="2468.5" y1="770.332" y2="770.332"/><line style="stroke: #A80036; stroke-width: 1.5;" x1="2317.5" x2="2468.5" y1="778.332" y2="778.332"/><!--class Carton--><rect fill="#FEFECE" filter="url(#f8ym73o)" height="191.8164" style="stroke: #A80036; stroke-width: 1.5;" width="361" x="181.5" y="1178.332"/><ellipse cx="297.75" cy="1197.4648" fill="#FF7700" rx="11" ry="11" style="stroke: #A80036; stroke-width: 1.0;"/><path d="M298.4487,1198.1128 Q298.814,1198.1875 299.0837,1198.4573 Q299.3535,1198.7271 299.7437,1199.5073 L301.9849,1203.9648 L299.2954,1203.9648 L297.8013,1200.8354 Q297.7349,1200.7026 297.627,1200.4702 Q296.9712,1199.0674 296.083,1199.0674 L295.3027,1199.0674 L295.3027,1203.9648 L292.854,1203.9648 L292.854,1191.5718 L296.3901,1191.5718 Q298.7808,1191.5718 299.8225,1192.4185 Q300.8643,1193.2651 300.8643,1195.1743 Q300.8643,1196.4526 300.2417,1197.208 Q299.6191,1197.9634 298.4487,1198.1128 Z M295.3027,1193.6304 L295.3027,1197.0088 L296.4565,1197.0088 Q297.4609,1197.0088 297.8967,1196.6145 Q298.3325,1196.2202 298.3325,1195.3154 Q298.3325,1194.4106 297.9009,1194.0205 Q297.4692,1193.6304 296.4565,1193.6304 Z "/><text fill="#000000" font-family="sans-serif" font-size="12" font-style="italic" lengthAdjust="spacingAndGlyphs" textLength="124" x="316.25" y="1194.9336">«纸箱，它会成为包裹.»</text><text fill="#000000" font-family="sans-serif" font-size="12" lengthAdjust="spacingAndGlyphs" textLength="38" x="359.25" y="1209.0664">Carton</text><line style="stroke: #A80036; stroke-width: 1.5;" x1="182.5" x2="541.5" y1="1216.5977" y2="1216.5977"/><text fill="#000000" font-family="sans-serif" font-size="11" lengthAdjust="spacingAndGlyphs" textLength="33" x="187.5" y="1248.1875">status</text><line style="stroke: #A80036; stroke-width: 1.5;" x1="182.5" x2="339" y1="1231.0752" y2="1231.0752"/><text fill="#000000" font-family="sans-serif" font-size="11" lengthAdjust="spacingAndGlyphs" textLength="46" x="339" y="1234.7324">Lifecycle</text><line style="stroke: #A80036; stroke-width: 1.5;" x1="385" x2="541.5" y1="1231.0752" y2="1231.0752"/><text fill="#000000" font-family="sans-serif" font-size="11" lengthAdjust="spacingAndGlyphs" textLength="94" x="187.5" y="1278.0977">cartonizationRule</text><line style="stroke: #A80036; stroke-width: 1.5;" x1="182.5" x2="330.5" y1="1260.9854" y2="1260.9854"/><text fill="#000000" font-family="sans-serif" font-size="11" lengthAdjust="spacingAndGlyphs" textLength="63" x="330.5" y="1264.6426">Operational</text><line style="stroke: #A80036; stroke-width: 1.5;" x1="393.5" x2="541.5" y1="1260.9854" y2="1260.9854"/><text fill="#000000" font-family="sans-serif" font-size="11" lengthAdjust="spacingAndGlyphs" textLength="349" x="187.5" y="1308.0078">cartonizationRule() 装箱规则，利用gateway延迟加载，规则也是规约.</text><line style="stroke: #A80036; stroke-width: 1.5;" x1="182.5" x2="351" y1="1290.8955" y2="1290.8955"/><text fill="#000000" font-family="sans-serif" font-size="11" lengthAdjust="spacingAndGlyphs" textLength="22" x="351" y="1294.5527">规则</text><line style="stroke: #A80036; stroke-width: 1.5;" x1="373" x2="541.5" y1="1290.8955" y2="1290.8955"/><text fill="#000000" font-family="sans-serif" font-size="11" lengthAdjust="spacingAndGlyphs" textLength="64" x="187.5" y="1337.918">bindOrder()</text><text fill="#000000" font-family="sans-serif" font-size="11" lengthAdjust="spacingAndGlyphs" textLength="71" x="187.5" y="1350.873">fulfill() 箱满了</text><text fill="#000000" font-family="sans-serif" font-size="11" lengthAdjust="spacingAndGlyphs" textLength="174" x="187.5" y="1363.8281">transferFrom(ContainerItemBag)</text><line style="stroke: #A80036; stroke-width: 1.5;" x1="182.5" x2="351" y1="1320.8057" y2="1320.8057"/><text fill="#000000" font-family="sans-serif" font-size="11" lengthAdjust="spacingAndGlyphs" textLength="22" x="351" y="1324.4629">行为</text><line style="stroke: #A80036; stroke-width: 1.5;" x1="373" x2="541.5" y1="1320.8057" y2="1320.8057"/><!--class CartonItem--><rect fill="#FEFECE" filter="url(#f8ym73o)" height="129.7305" style="stroke: #A80036; stroke-width: 1.5;" width="95" x="1427" y="1232.332"/><ellipse cx="1442" cy="1248.332" fill="#ADD1B2" rx="11" ry="11" style="stroke: #A80036; stroke-width: 1.0;"/><path d="M1444.4731,1254.4751 Q1443.8921,1254.7739 1443.2529,1254.9233 Q1442.6138,1255.0728 1441.9082,1255.0728 Q1439.4014,1255.0728 1438.0815,1253.4209 Q1436.7617,1251.769 1436.7617,1248.6479 Q1436.7617,1245.5186 1438.0815,1243.8667 Q1439.4014,1242.2148 1441.9082,1242.2148 Q1442.6138,1242.2148 1443.2612,1242.3643 Q1443.9087,1242.5137 1444.4731,1242.8125 L1444.4731,1245.5352 Q1443.8423,1244.9541 1443.2488,1244.6843 Q1442.6553,1244.4146 1442.0244,1244.4146 Q1440.6797,1244.4146 1439.9949,1245.4812 Q1439.3101,1246.5479 1439.3101,1248.6479 Q1439.3101,1250.7397 1439.9949,1251.8064 Q1440.6797,1252.873 1442.0244,1252.873 Q1442.6553,1252.873 1443.2488,1252.6033 Q1443.8423,1252.3335 1444.4731,1251.7524 Z "/><text fill="#000000" font-family="sans-serif" font-size="12" lengthAdjust="spacingAndGlyphs" textLength="63" x="1456" y="1252.8672">CartonItem</text><line style="stroke: #A80036; stroke-width: 1.5;" x1="1428" x2="1521" y1="1264.332" y2="1264.332"/><text fill="#000000" font-family="sans-serif" font-size="11" lengthAdjust="spacingAndGlyphs" textLength="19" x="1433" y="1295.9219">sku</text><line style="stroke: #A80036; stroke-width: 1.5;" x1="1428" x2="1448" y1="1278.8096" y2="1278.8096"/><text fill="#000000" font-family="sans-serif" font-size="11" lengthAdjust="spacingAndGlyphs" textLength="53" x="1448" y="1282.4668">Structural</text><line style="stroke: #A80036; stroke-width: 1.5;" x1="1501" x2="1521" y1="1278.8096" y2="1278.8096"/><text fill="#000000" font-family="sans-serif" font-size="11" lengthAdjust="spacingAndGlyphs" textLength="67" x="1433" y="1325.832">orderLineNo</text><line style="stroke: #A80036; stroke-width: 1.5;" x1="1428" x2="1446" y1="1308.7197" y2="1308.7197"/><text fill="#000000" font-family="sans-serif" font-size="11" lengthAdjust="spacingAndGlyphs" textLength="57" x="1446" y="1312.377">Referential</text><line style="stroke: #A80036; stroke-width: 1.5;" x1="1503" x2="1521" y1="1308.7197" y2="1308.7197"/><text fill="#000000" font-family="sans-serif" font-size="11" lengthAdjust="spacingAndGlyphs" textLength="63" x="1433" y="1355.7422">checkedQty</text><line style="stroke: #A80036; stroke-width: 1.5;" x1="1428" x2="1451.5" y1="1338.6299" y2="1338.6299"/><text fill="#000000" font-family="sans-serif" font-size="11" lengthAdjust="spacingAndGlyphs" textLength="46" x="1451.5" y="1342.2871">Quantity</text><line style="stroke: #A80036; stroke-width: 1.5;" x1="1497.5" x2="1521" y1="1338.6299" y2="1338.6299"/><!--class CartonItemBag--><rect fill="#FEFECE" filter="url(#f8ym73o)" height="69.9102" style="stroke: #A80036; stroke-width: 1.5;" width="289" x="907.5" y="1300.332"/><ellipse cx="1005.75" cy="1316.332" fill="#9197DB" rx="11" ry="11" style="stroke: #A80036; stroke-width: 1.0;"/><path d="M1004.1533,1317.7041 L1004.1533,1321.373 L1005.7803,1321.373 Q1006.9507,1321.373 1007.4197,1320.9746 Q1007.8887,1320.5762 1007.8887,1319.5884 Q1007.8887,1318.584 1007.3989,1318.144 Q1006.9092,1317.7041 1005.7803,1317.7041 Z M1004.1533,1312.873 L1004.1533,1315.7534 L1005.7803,1315.7534 Q1006.71,1315.7534 1007.1042,1315.4214 Q1007.4985,1315.0894 1007.4985,1314.3257 Q1007.4985,1313.562 1007.0959,1313.2175 Q1006.6934,1312.873 1005.7803,1312.873 Z M1001.7876,1310.9224 L1005.7803,1310.9224 Q1007.8472,1310.9224 1008.8889,1311.7068 Q1009.9307,1312.4912 1009.9307,1314.0518 Q1009.9307,1315.2471 1009.3164,1315.9194 Q1008.7021,1316.5918 1007.5151,1316.6997 Q1008.9346,1316.8408 1009.6526,1317.6543 Q1010.3706,1318.4678 1010.3706,1319.9287 Q1010.3706,1321.7217 1009.2915,1322.5269 Q1008.2124,1323.332 1005.7803,1323.332 L1001.7876,1323.332 Z "/><text fill="#000000" font-family="sans-serif" font-size="12" lengthAdjust="spacingAndGlyphs" textLength="84" x="1026.25" y="1320.8672">CartonItemBag</text><line style="stroke: #A80036; stroke-width: 1.5;" x1="908.5" x2="1195.5" y1="1332.332" y2="1332.332"/><text fill="#000000" font-family="sans-serif" font-size="11" lengthAdjust="spacingAndGlyphs" textLength="277" x="913.5" y="1363.9219">contains(UniqueCode) 货品唯一码是否在本箱里已有了</text><line style="stroke: #A80036; stroke-width: 1.5;" x1="908.5" x2="1041" y1="1346.8096" y2="1346.8096"/><text fill="#000000" font-family="sans-serif" font-size="11" lengthAdjust="spacingAndGlyphs" textLength="22" x="1041" y="1350.4668">行为</text><line style="stroke: #A80036; stroke-width: 1.5;" x1="1063" x2="1195.5" y1="1346.8096" y2="1346.8096"/><!--class Consumable--><rect fill="#FEFECE" filter="url(#f8ym73o)" height="48" style="stroke: #A80036; stroke-width: 1.5;" width="103" x="1423" y="1108.332"/><ellipse cx="1438" cy="1124.332" fill="#9197DB" rx="11" ry="11" style="stroke: #A80036; stroke-width: 1.0;"/><path d="M1436.4033,1125.7041 L1436.4033,1129.373 L1438.0303,1129.373 Q1439.2007,1129.373 1439.6697,1128.9746 Q1440.1387,1128.5762 1440.1387,1127.5884 Q1440.1387,1126.584 1439.6489,1126.144 Q1439.1592,1125.7041 1438.0303,1125.7041 Z M1436.4033,1120.873 L1436.4033,1123.7534 L1438.0303,1123.7534 Q1438.96,1123.7534 1439.3542,1123.4214 Q1439.7485,1123.0894 1439.7485,1122.3257 Q1439.7485,1121.562 1439.3459,1121.2175 Q1438.9434,1120.873 1438.0303,1120.873 Z M1434.0376,1118.9224 L1438.0303,1118.9224 Q1440.0972,1118.9224 1441.1389,1119.7068 Q1442.1807,1120.4912 1442.1807,1122.0518 Q1442.1807,1123.2471 1441.5664,1123.9194 Q1440.9521,1124.5918 1439.7651,1124.6997 Q1441.1846,1124.8408 1441.9026,1125.6543 Q1442.6206,1126.4678 1442.6206,1127.9287 Q1442.6206,1129.7217 1441.5415,1130.5269 Q1440.4624,1131.332 1438.0303,1131.332 L1434.0376,1131.332 Z "/><text fill="#000000" font-family="sans-serif" font-size="12" lengthAdjust="spacingAndGlyphs" textLength="71" x="1452" y="1128.8672">Consumable</text><line style="stroke: #A80036; stroke-width: 1.5;" x1="1424" x2="1525" y1="1140.332" y2="1140.332"/><line style="stroke: #A80036; stroke-width: 1.5;" x1="1424" x2="1525" y1="1148.332" y2="1148.332"/><!--class ConsumableBag--><rect fill="#FEFECE" filter="url(#f8ym73o)" height="48" style="stroke: #A80036; stroke-width: 1.5;" width="124" x="989.5" y="1176.332"/><ellipse cx="1004.5" cy="1192.332" fill="#9197DB" rx="11" ry="11" style="stroke: #A80036; stroke-width: 1.0;"/><path d="M1002.9033,1193.7041 L1002.9033,1197.373 L1004.5303,1197.373 Q1005.7007,1197.373 1006.1697,1196.9746 Q1006.6387,1196.5762 1006.6387,1195.5884 Q1006.6387,1194.584 1006.1489,1194.144 Q1005.6592,1193.7041 1004.5303,1193.7041 Z M1002.9033,1188.873 L1002.9033,1191.7534 L1004.5303,1191.7534 Q1005.46,1191.7534 1005.8542,1191.4214 Q1006.2485,1191.0894 1006.2485,1190.3257 Q1006.2485,1189.562 1005.8459,1189.2175 Q1005.4434,1188.873 1004.5303,1188.873 Z M1000.5376,1186.9224 L1004.5303,1186.9224 Q1006.5972,1186.9224 1007.6389,1187.7068 Q1008.6807,1188.4912 1008.6807,1190.0518 Q1008.6807,1191.2471 1008.0664,1191.9194 Q1007.4521,1192.5918 1006.2651,1192.6997 Q1007.6846,1192.8408 1008.4026,1193.6543 Q1009.1206,1194.4678 1009.1206,1195.9287 Q1009.1206,1197.7217 1008.0415,1198.5269 Q1006.9624,1199.332 1004.5303,1199.332 L1000.5376,1199.332 Z "/><text fill="#000000" font-family="sans-serif" font-size="12" lengthAdjust="spacingAndGlyphs" textLength="92" x="1018.5" y="1196.8672">ConsumableBag</text><line style="stroke: #A80036; stroke-width: 1.5;" x1="990.5" x2="1112.5" y1="1208.332" y2="1208.332"/><line style="stroke: #A80036; stroke-width: 1.5;" x1="990.5" x2="1112.5" y1="1216.332" y2="1216.332"/><!--class Pallet--><rect fill="#FEFECE" filter="url(#f8ym73o)" height="48" style="stroke: #A80036; stroke-width: 1.5;" width="63" x="1020" y="1073.332"/><ellipse cx="1035" cy="1089.332" fill="#9197DB" rx="11" ry="11" style="stroke: #A80036; stroke-width: 1.0;"/><path d="M1033.4033,1090.7041 L1033.4033,1094.373 L1035.0303,1094.373 Q1036.2007,1094.373 1036.6697,1093.9746 Q1037.1387,1093.5762 1037.1387,1092.5884 Q1037.1387,1091.584 1036.6489,1091.144 Q1036.1592,1090.7041 1035.0303,1090.7041 Z M1033.4033,1085.873 L1033.4033,1088.7534 L1035.0303,1088.7534 Q1035.96,1088.7534 1036.3542,1088.4214 Q1036.7485,1088.0894 1036.7485,1087.3257 Q1036.7485,1086.562 1036.3459,1086.2175 Q1035.9434,1085.873 1035.0303,1085.873 Z M1031.0376,1083.9224 L1035.0303,1083.9224 Q1037.0972,1083.9224 1038.1389,1084.7068 Q1039.1807,1085.4912 1039.1807,1087.0518 Q1039.1807,1088.2471 1038.5664,1088.9194 Q1037.9521,1089.5918 1036.7651,1089.6997 Q1038.1846,1089.8408 1038.9026,1090.6543 Q1039.6206,1091.4678 1039.6206,1092.9287 Q1039.6206,1094.7217 1038.5415,1095.5269 Q1037.4624,1096.332 1035.0303,1096.332 L1031.0376,1096.332 Z "/><text fill="#000000" font-family="sans-serif" font-size="12" lengthAdjust="spacingAndGlyphs" textLength="31" x="1049" y="1093.8672">Pallet</text><line style="stroke: #A80036; stroke-width: 1.5;" x1="1021" x2="1082" y1="1105.332" y2="1105.332"/><line style="stroke: #A80036; stroke-width: 1.5;" x1="1021" x2="1082" y1="1113.332" y2="1113.332"/><!--class Sku--><rect fill="#FEFECE" filter="url(#f8ym73o)" height="106.0859" style="stroke: #A80036; stroke-width: 1.5;" width="117" x="1836.5" y="1079.332"/><ellipse cx="1862.75" cy="1098.4648" fill="#ADD1B2" rx="11" ry="11" style="stroke: #A80036; stroke-width: 1.0;"/><path d="M1865.2231,1104.6079 Q1864.6421,1104.9067 1864.0029,1105.0562 Q1863.3638,1105.2056 1862.6582,1105.2056 Q1860.1514,1105.2056 1858.8315,1103.5537 Q1857.5117,1101.9019 1857.5117,1098.7808 Q1857.5117,1095.6514 1858.8315,1093.9995 Q1860.1514,1092.3477 1862.6582,1092.3477 Q1863.3638,1092.3477 1864.0112,1092.4971 Q1864.6587,1092.6465 1865.2231,1092.9453 L1865.2231,1095.668 Q1864.5923,1095.0869 1863.9988,1094.8171 Q1863.4053,1094.5474 1862.7744,1094.5474 Q1861.4297,1094.5474 1860.7449,1095.614 Q1860.0601,1096.6807 1860.0601,1098.7808 Q1860.0601,1100.8726 1860.7449,1101.9392 Q1861.4297,1103.0059 1862.7744,1103.0059 Q1863.4053,1103.0059 1863.9988,1102.7361 Q1864.5923,1102.4663 1865.2231,1101.8853 Z "/><text fill="#000000" font-family="sans-serif" font-size="12" font-style="italic" lengthAdjust="spacingAndGlyphs" textLength="64" x="1877.25" y="1095.9336">«货品编号.»</text><text fill="#000000" font-family="sans-serif" font-size="12" lengthAdjust="spacingAndGlyphs" textLength="20" x="1899.25" y="1110.0664">Sku</text><line style="stroke: #A80036; stroke-width: 1.5;" x1="1837.5" x2="1952.5" y1="1117.5977" y2="1117.5977"/><text fill="#000000" font-family="sans-serif" font-size="11" lengthAdjust="spacingAndGlyphs" textLength="105" x="1842.5" y="1149.1875">OwnerNo PackCode</text><line style="stroke: #A80036; stroke-width: 1.5;" x1="1837.5" x2="1868.5" y1="1132.0752" y2="1132.0752"/><text fill="#000000" font-family="sans-serif" font-size="11" lengthAdjust="spacingAndGlyphs" textLength="53" x="1868.5" y="1135.7324">Structural</text><line style="stroke: #A80036; stroke-width: 1.5;" x1="1921.5" x2="1952.5" y1="1132.0752" y2="1132.0752"/><text fill="#000000" font-family="sans-serif" font-size="11" lengthAdjust="spacingAndGlyphs" textLength="67" x="1842.5" y="1179.0977">LotNo snList</text><line style="stroke: #A80036; stroke-width: 1.5;" x1="1837.5" x2="1865.5" y1="1161.9854" y2="1161.9854"/><text fill="#000000" font-family="sans-serif" font-size="11" lengthAdjust="spacingAndGlyphs" textLength="59" x="1865.5" y="1165.6426">Contextual</text><line style="stroke: #A80036; stroke-width: 1.5;" x1="1924.5" x2="1952.5" y1="1161.9854" y2="1161.9854"/><!--class Container--><rect fill="#FEFECE" filter="url(#f8ym73o)" height="106.0859" style="stroke: #A80036; stroke-width: 1.5;" width="139" x="1826" y="1677.332"/><ellipse cx="1862.15" cy="1696.4648" fill="#ADD1B2" rx="11" ry="11" style="stroke: #A80036; stroke-width: 1.0;"/><path d="M1864.6231,1702.6079 Q1864.0421,1702.9067 1863.4029,1703.0562 Q1862.7638,1703.2056 1862.0582,1703.2056 Q1859.5514,1703.2056 1858.2315,1701.5537 Q1856.9117,1699.9019 1856.9117,1696.7808 Q1856.9117,1693.6514 1858.2315,1691.9995 Q1859.5514,1690.3477 1862.0582,1690.3477 Q1862.7638,1690.3477 1863.4112,1690.4971 Q1864.0587,1690.6465 1864.6231,1690.9453 L1864.6231,1693.668 Q1863.9923,1693.0869 1863.3988,1692.8171 Q1862.8053,1692.5474 1862.1744,1692.5474 Q1860.8297,1692.5474 1860.1449,1693.614 Q1859.4601,1694.6807 1859.4601,1696.7808 Q1859.4601,1698.8726 1860.1449,1699.9392 Q1860.8297,1701.0059 1862.1744,1701.0059 Q1862.8053,1701.0059 1863.3988,1700.7361 Q1863.9923,1700.4663 1864.6231,1699.8853 Z "/><text fill="#000000" font-family="sans-serif" font-size="12" font-style="italic" lengthAdjust="spacingAndGlyphs" textLength="64" x="1878.85" y="1693.9336">«拣货容器.»</text><text fill="#000000" font-family="sans-serif" font-size="12" lengthAdjust="spacingAndGlyphs" textLength="55" x="1883.35" y="1708.0664">Container</text><line style="stroke: #A80036; stroke-width: 1.5;" x1="1827" x2="1964" y1="1715.5977" y2="1715.5977"/><text fill="#000000" font-family="sans-serif" font-size="11" lengthAdjust="spacingAndGlyphs" textLength="79" x="1832" y="1747.1875">ContainerType</text><line style="stroke: #A80036; stroke-width: 1.5;" x1="1827" x2="1864" y1="1730.0752" y2="1730.0752"/><text fill="#000000" font-family="sans-serif" font-size="11" lengthAdjust="spacingAndGlyphs" textLength="63" x="1864" y="1733.7324">Operational</text><line style="stroke: #A80036; stroke-width: 1.5;" x1="1927" x2="1964" y1="1730.0752" y2="1730.0752"/><text fill="#000000" font-family="sans-serif" font-size="11" lengthAdjust="spacingAndGlyphs" textLength="127" x="1832" y="1777.0977">containerNo/扫描枪可扫</text><line style="stroke: #A80036; stroke-width: 1.5;" x1="1827" x2="1883.5" y1="1759.9854" y2="1759.9854"/><text fill="#000000" font-family="sans-serif" font-size="11" lengthAdjust="spacingAndGlyphs" textLength="24" x="1883.5" y="1763.6426">DCU</text><line style="stroke: #A80036; stroke-width: 1.5;" x1="1907.5" x2="1964" y1="1759.9854" y2="1759.9854"/><!--class ContainerBag--><rect fill="#FEFECE" filter="url(#f8ym73o)" height="121.7305" style="stroke: #A80036; stroke-width: 1.5;" width="222" x="1363" y="1669.332"/><ellipse cx="1431.75" cy="1685.332" fill="#9197DB" rx="11" ry="11" style="stroke: #A80036; stroke-width: 1.0;"/><path d="M1430.1533,1686.7041 L1430.1533,1690.373 L1431.7803,1690.373 Q1432.9507,1690.373 1433.4197,1689.9746 Q1433.8887,1689.5762 1433.8887,1688.5884 Q1433.8887,1687.584 1433.3989,1687.144 Q1432.9092,1686.7041 1431.7803,1686.7041 Z M1430.1533,1681.873 L1430.1533,1684.7534 L1431.7803,1684.7534 Q1432.71,1684.7534 1433.1042,1684.4214 Q1433.4985,1684.0894 1433.4985,1683.3257 Q1433.4985,1682.562 1433.0959,1682.2175 Q1432.6934,1681.873 1431.7803,1681.873 Z M1427.7876,1679.9224 L1431.7803,1679.9224 Q1433.8472,1679.9224 1434.8889,1680.7068 Q1435.9307,1681.4912 1435.9307,1683.0518 Q1435.9307,1684.2471 1435.3164,1684.9194 Q1434.7021,1685.5918 1433.5151,1685.6997 Q1434.9346,1685.8408 1435.6526,1686.6543 Q1436.3706,1687.4678 1436.3706,1688.9287 Q1436.3706,1690.7217 1435.2915,1691.5269 Q1434.2124,1692.332 1431.7803,1692.332 L1427.7876,1692.332 Z "/><text fill="#000000" font-family="sans-serif" font-size="12" lengthAdjust="spacingAndGlyphs" textLength="76" x="1452.25" y="1689.8672">ContainerBag</text><line style="stroke: #A80036; stroke-width: 1.5;" x1="1364" x2="1584" y1="1701.332" y2="1701.332"/><text fill="#000000" font-family="sans-serif" font-size="11" lengthAdjust="spacingAndGlyphs" textLength="186" x="1369" y="1732.9219">totalSku() 该容器的总商品种类(品数).</text><text fill="#000000" font-family="sans-serif" font-size="11" lengthAdjust="spacingAndGlyphs" textLength="145" x="1369" y="1745.877">totalQty() 该容器的总要货量.</text><text fill="#000000" font-family="sans-serif" font-size="11" lengthAdjust="spacingAndGlyphs" textLength="94" x="1369" y="1758.832">totalPendingQty()</text><text fill="#000000" font-family="sans-serif" font-size="11" lengthAdjust="spacingAndGlyphs" textLength="210" x="1369" y="1771.7871">pendingItemBag() 待复核的所有容器明细.</text><text fill="#000000" font-family="sans-serif" font-size="11" lengthAdjust="spacingAndGlyphs" textLength="152" x="1369" y="1784.7422">orderNoSet() 所有的出库单号.</text><line style="stroke: #A80036; stroke-width: 1.5;" x1="1364" x2="1463" y1="1715.8096" y2="1715.8096"/><text fill="#000000" font-family="sans-serif" font-size="11" lengthAdjust="spacingAndGlyphs" textLength="22" x="1463" y="1719.4668">规则</text><line style="stroke: #A80036; stroke-width: 1.5;" x1="1485" x2="1584" y1="1715.8096" y2="1715.8096"/><!--class ContainerItem--><rect fill="#FEFECE" filter="url(#f8ym73o)" height="148.9512" style="stroke: #A80036; stroke-width: 1.5;" width="197" x="2788" y="1656.332"/><ellipse cx="2812.45" cy="1675.4648" fill="#ADD1B2" rx="11" ry="11" style="stroke: #A80036; stroke-width: 1.0;"/><path d="M2814.9231,1681.6079 Q2814.3421,1681.9067 2813.7029,1682.0562 Q2813.0638,1682.2056 2812.3582,1682.2056 Q2809.8514,1682.2056 2808.5315,1680.5537 Q2807.2117,1678.9019 2807.2117,1675.7808 Q2807.2117,1672.6514 2808.5315,1670.9995 Q2809.8514,1669.3477 2812.3582,1669.3477 Q2813.0638,1669.3477 2813.7112,1669.4971 Q2814.3587,1669.6465 2814.9231,1669.9453 L2814.9231,1672.668 Q2814.2923,1672.0869 2813.6988,1671.8171 Q2813.1053,1671.5474 2812.4744,1671.5474 Q2811.1297,1671.5474 2810.4449,1672.614 Q2809.7601,1673.6807 2809.7601,1675.7808 Q2809.7601,1677.8726 2810.4449,1678.9392 Q2811.1297,1680.0059 2812.4744,1680.0059 Q2813.1053,1680.0059 2813.6988,1679.7361 Q2814.2923,1679.4663 2814.9231,1678.8853 Z "/><text fill="#000000" font-family="sans-serif" font-size="12" font-style="italic" lengthAdjust="spacingAndGlyphs" textLength="148" x="2826.55" y="1672.9336">«拣货容器里的商品和数量.»</text><text fill="#000000" font-family="sans-serif" font-size="12" lengthAdjust="spacingAndGlyphs" textLength="80" x="2860.55" y="1687.0664">ContainerItem</text><line style="stroke: #A80036; stroke-width: 1.5;" x1="2789" x2="2984" y1="1694.5977" y2="1694.5977"/><text fill="#000000" font-family="sans-serif" font-size="11" lengthAdjust="spacingAndGlyphs" textLength="91" x="2794" y="1726.1875">OrderLineNo Sku</text><line style="stroke: #A80036; stroke-width: 1.5;" x1="2789" x2="2860" y1="1709.0752" y2="1709.0752"/><text fill="#000000" font-family="sans-serif" font-size="11" lengthAdjust="spacingAndGlyphs" textLength="53" x="2860" y="1712.7324">Structural</text><line style="stroke: #A80036; stroke-width: 1.5;" x1="2913" x2="2984" y1="1709.0752" y2="1709.0752"/><text fill="#000000" font-family="sans-serif" font-size="11" lengthAdjust="spacingAndGlyphs" textLength="185" x="2794" y="1756.0977">expectedQty givenQty pendingQty</text><line style="stroke: #A80036; stroke-width: 1.5;" x1="2789" x2="2863.5" y1="1738.9854" y2="1738.9854"/><text fill="#000000" font-family="sans-serif" font-size="11" lengthAdjust="spacingAndGlyphs" textLength="46" x="2863.5" y="1742.6426">Quantity</text><line style="stroke: #A80036; stroke-width: 1.5;" x1="2909.5" x2="2984" y1="1738.9854" y2="1738.9854"/><text fill="#000000" font-family="sans-serif" font-size="11" lengthAdjust="spacingAndGlyphs" textLength="172" x="2794" y="1786.0078">diffQty() 复核作业发现的差异数量.</text><text fill="#000000" font-family="sans-serif" font-size="11" lengthAdjust="spacingAndGlyphs" textLength="35" x="2794" y="1798.9629">done()</text><line style="stroke: #A80036; stroke-width: 1.5;" x1="2789" x2="2875.5" y1="1768.8955" y2="1768.8955"/><text fill="#000000" font-family="sans-serif" font-size="11" lengthAdjust="spacingAndGlyphs" textLength="22" x="2875.5" y="1772.5527">规则</text><line style="stroke: #A80036; stroke-width: 1.5;" x1="2897.5" x2="2984" y1="1768.8955" y2="1768.8955"/><!--class ContainerItemBag--><rect fill="#FEFECE" filter="url(#f8ym73o)" height="95.8203" style="stroke: #A80036; stroke-width: 1.5;" width="198" x="2293.5" y="1682.332"/><ellipse cx="2337.75" cy="1698.332" fill="#9197DB" rx="11" ry="11" style="stroke: #A80036; stroke-width: 1.0;"/><path d="M2336.1533,1699.7041 L2336.1533,1703.373 L2337.7803,1703.373 Q2338.9507,1703.373 2339.4197,1702.9746 Q2339.8887,1702.5762 2339.8887,1701.5884 Q2339.8887,1700.584 2339.3989,1700.144 Q2338.9092,1699.7041 2337.7803,1699.7041 Z M2336.1533,1694.873 L2336.1533,1697.7534 L2337.7803,1697.7534 Q2338.71,1697.7534 2339.1042,1697.4214 Q2339.4985,1697.0894 2339.4985,1696.3257 Q2339.4985,1695.562 2339.0959,1695.2175 Q2338.6934,1694.873 2337.7803,1694.873 Z M2333.7876,1692.9224 L2337.7803,1692.9224 Q2339.8472,1692.9224 2340.8889,1693.7068 Q2341.9307,1694.4912 2341.9307,1696.0518 Q2341.9307,1697.2471 2341.3164,1697.9194 Q2340.7021,1698.5918 2339.5151,1698.6997 Q2340.9346,1698.8408 2341.6526,1699.6543 Q2342.3706,1700.4678 2342.3706,1701.9287 Q2342.3706,1703.7217 2341.2915,1704.5269 Q2340.2124,1705.332 2337.7803,1705.332 L2333.7876,1705.332 Z "/><text fill="#000000" font-family="sans-serif" font-size="12" lengthAdjust="spacingAndGlyphs" textLength="101" x="2358.25" y="1702.8672">ContainerItemBag</text><line style="stroke: #A80036; stroke-width: 1.5;" x1="2294.5" x2="2490.5" y1="1714.332" y2="1714.332"/><text fill="#000000" font-family="sans-serif" font-size="11" lengthAdjust="spacingAndGlyphs" textLength="186" x="2299.5" y="1745.9219">totalSku() 该容器的总商品种类(品数).</text><text fill="#000000" font-family="sans-serif" font-size="11" lengthAdjust="spacingAndGlyphs" textLength="134" x="2299.5" y="1758.877">totalQty() 该容器的总货量.</text><text fill="#000000" font-family="sans-serif" font-size="11" lengthAdjust="spacingAndGlyphs" textLength="94" x="2299.5" y="1771.832">totalPendingQty()</text><line style="stroke: #A80036; stroke-width: 1.5;" x1="2294.5" x2="2381.5" y1="1728.8096" y2="1728.8096"/><text fill="#000000" font-family="sans-serif" font-size="11" lengthAdjust="spacingAndGlyphs" textLength="22" x="2381.5" y="1732.4668">规则</text><line style="stroke: #A80036; stroke-width: 1.5;" x1="2403.5" x2="2490.5" y1="1728.8096" y2="1728.8096"/><!--class Task--><rect fill="#FEFECE" filter="url(#f8ym73o)" height="135.9961" style="stroke: #A80036; stroke-width: 1.5;" width="92" x="1005.5" y="1662.332"/><ellipse cx="1020.5" cy="1681.4648" fill="#FF7700" rx="11" ry="11" style="stroke: #A80036; stroke-width: 1.0;"/><path d="M1021.1987,1682.1128 Q1021.564,1682.1875 1021.8337,1682.4573 Q1022.1035,1682.7271 1022.4937,1683.5073 L1024.7349,1687.9648 L1022.0454,1687.9648 L1020.5513,1684.8354 Q1020.4849,1684.7026 1020.377,1684.4702 Q1019.7212,1683.0674 1018.833,1683.0674 L1018.0527,1683.0674 L1018.0527,1687.9648 L1015.604,1687.9648 L1015.604,1675.5718 L1019.1401,1675.5718 Q1021.5308,1675.5718 1022.5725,1676.4185 Q1023.6143,1677.2651 1023.6143,1679.1743 Q1023.6143,1680.4526 1022.9917,1681.208 Q1022.3691,1681.9634 1021.1987,1682.1128 Z M1018.0527,1677.6304 L1018.0527,1681.0088 L1019.2065,1681.0088 Q1020.2109,1681.0088 1020.6467,1680.6145 Q1021.0825,1680.2202 1021.0825,1679.3154 Q1021.0825,1678.4106 1020.6509,1678.0205 Q1020.2192,1677.6304 1019.2065,1677.6304 Z "/><text fill="#000000" font-family="sans-serif" font-size="12" font-style="italic" lengthAdjust="spacingAndGlyphs" textLength="64" x="1032.5" y="1678.9336">«复核任务.»</text><text fill="#000000" font-family="sans-serif" font-size="12" lengthAdjust="spacingAndGlyphs" textLength="28" x="1050.5" y="1693.0664">Task</text><line style="stroke: #A80036; stroke-width: 1.5;" x1="1006.5" x2="1096.5" y1="1700.5977" y2="1700.5977"/><text fill="#000000" font-family="sans-serif" font-size="11" lengthAdjust="spacingAndGlyphs" textLength="58" x="1011.5" y="1732.1875">TaskStatus</text><line style="stroke: #A80036; stroke-width: 1.5;" x1="1006.5" x2="1028.5" y1="1715.0752" y2="1715.0752"/><text fill="#000000" font-family="sans-serif" font-size="11" lengthAdjust="spacingAndGlyphs" textLength="46" x="1028.5" y="1718.7324">Lifecycle</text><line style="stroke: #A80036; stroke-width: 1.5;" x1="1074.5" x2="1096.5" y1="1715.0752" y2="1715.0752"/><text fill="#000000" font-family="sans-serif" font-size="11" lengthAdjust="spacingAndGlyphs" textLength="45" x="1011.5" y="1762.0977">Platform</text><line style="stroke: #A80036; stroke-width: 1.5;" x1="1006.5" x2="1028.5" y1="1744.9854" y2="1744.9854"/><text fill="#000000" font-family="sans-serif" font-size="11" lengthAdjust="spacingAndGlyphs" textLength="46" x="1028.5" y="1748.6426">Location</text><line style="stroke: #A80036; stroke-width: 1.5;" x1="1074.5" x2="1096.5" y1="1744.9854" y2="1744.9854"/><text fill="#000000" font-family="sans-serif" font-size="11" lengthAdjust="spacingAndGlyphs" textLength="72" x="1011.5" y="1792.0078">claimedWith()</text><line style="stroke: #A80036; stroke-width: 1.5;" x1="1006.5" x2="1040.5" y1="1774.8955" y2="1774.8955"/><text fill="#000000" font-family="sans-serif" font-size="11" lengthAdjust="spacingAndGlyphs" textLength="22" x="1040.5" y="1778.5527">行为</text><line style="stroke: #A80036; stroke-width: 1.5;" x1="1062.5" x2="1096.5" y1="1774.8955" y2="1774.8955"/><!--class TaskOfContainer--><rect fill="#FEFECE" filter="url(#f8ym73o)" height="48" style="stroke: #A80036; stroke-width: 1.5;" width="128" x="297.5" y="1636.332"/><ellipse cx="312.5" cy="1652.332" fill="#9197DB" rx="11" ry="11" style="stroke: #A80036; stroke-width: 1.0;"/><path d="M310.9033,1653.7041 L310.9033,1657.373 L312.5303,1657.373 Q313.7007,1657.373 314.1697,1656.9746 Q314.6387,1656.5762 314.6387,1655.5884 Q314.6387,1654.584 314.1489,1654.144 Q313.6592,1653.7041 312.5303,1653.7041 Z M310.9033,1648.873 L310.9033,1651.7534 L312.5303,1651.7534 Q313.46,1651.7534 313.8542,1651.4214 Q314.2485,1651.0894 314.2485,1650.3257 Q314.2485,1649.562 313.8459,1649.2175 Q313.4434,1648.873 312.5303,1648.873 Z M308.5376,1646.9224 L312.5303,1646.9224 Q314.5972,1646.9224 315.6389,1647.7068 Q316.6807,1648.4912 316.6807,1650.0518 Q316.6807,1651.2471 316.0664,1651.9194 Q315.4521,1652.5918 314.2651,1652.6997 Q315.6846,1652.8408 316.4026,1653.6543 Q317.1206,1654.4678 317.1206,1655.9287 Q317.1206,1657.7217 316.0415,1658.5269 Q314.9624,1659.332 312.5303,1659.332 L308.5376,1659.332 Z "/><text fill="#000000" font-family="sans-serif" font-size="12" lengthAdjust="spacingAndGlyphs" textLength="96" x="326.5" y="1656.8672">TaskOfContainer</text><line style="stroke: #A80036; stroke-width: 1.5;" x1="298.5" x2="424.5" y1="1668.332" y2="1668.332"/><line style="stroke: #A80036; stroke-width: 1.5;" x1="298.5" x2="424.5" y1="1676.332" y2="1676.332"/><!--class TaskOfOrder--><rect fill="#FEFECE" filter="url(#f8ym73o)" height="48" style="stroke: #A80036; stroke-width: 1.5;" width="107" x="308" y="1719.332"/><ellipse cx="323" cy="1735.332" fill="#9197DB" rx="11" ry="11" style="stroke: #A80036; stroke-width: 1.0;"/><path d="M321.4033,1736.7041 L321.4033,1740.373 L323.0303,1740.373 Q324.2007,1740.373 324.6697,1739.9746 Q325.1387,1739.5762 325.1387,1738.5884 Q325.1387,1737.584 324.6489,1737.144 Q324.1592,1736.7041 323.0303,1736.7041 Z M321.4033,1731.873 L321.4033,1734.7534 L323.0303,1734.7534 Q323.96,1734.7534 324.3542,1734.4214 Q324.7485,1734.0894 324.7485,1733.3257 Q324.7485,1732.562 324.3459,1732.2175 Q323.9434,1731.873 323.0303,1731.873 Z M319.0376,1729.9224 L323.0303,1729.9224 Q325.0972,1729.9224 326.1389,1730.7068 Q327.1807,1731.4912 327.1807,1733.0518 Q327.1807,1734.2471 326.5664,1734.9194 Q325.9521,1735.5918 324.7651,1735.6997 Q326.1846,1735.8408 326.9026,1736.6543 Q327.6206,1737.4678 327.6206,1738.9287 Q327.6206,1740.7217 326.5415,1741.5269 Q325.4624,1742.332 323.0303,1742.332 L319.0376,1742.332 Z "/><text fill="#000000" font-family="sans-serif" font-size="12" lengthAdjust="spacingAndGlyphs" textLength="75" x="337" y="1739.8672">TaskOfOrder</text><line style="stroke: #A80036; stroke-width: 1.5;" x1="309" x2="414" y1="1751.332" y2="1751.332"/><line style="stroke: #A80036; stroke-width: 1.5;" x1="309" x2="414" y1="1759.332" y2="1759.332"/><!--class TaskOfSku--><rect fill="#FEFECE" filter="url(#f8ym73o)" height="69.9102" style="stroke: #A80036; stroke-width: 1.5;" width="93" x="315" y="1802.332"/><ellipse cx="330" cy="1818.332" fill="#9197DB" rx="11" ry="11" style="stroke: #A80036; stroke-width: 1.0;"/><path d="M328.4033,1819.7041 L328.4033,1823.373 L330.0303,1823.373 Q331.2007,1823.373 331.6697,1822.9746 Q332.1387,1822.5762 332.1387,1821.5884 Q332.1387,1820.584 331.6489,1820.144 Q331.1592,1819.7041 330.0303,1819.7041 Z M328.4033,1814.873 L328.4033,1817.7534 L330.0303,1817.7534 Q330.96,1817.7534 331.3542,1817.4214 Q331.7485,1817.0894 331.7485,1816.3257 Q331.7485,1815.562 331.3459,1815.2175 Q330.9434,1814.873 330.0303,1814.873 Z M326.0376,1812.9224 L330.0303,1812.9224 Q332.0972,1812.9224 333.1389,1813.7068 Q334.1807,1814.4912 334.1807,1816.0518 Q334.1807,1817.2471 333.5664,1817.9194 Q332.9521,1818.5918 331.7651,1818.6997 Q333.1846,1818.8408 333.9026,1819.6543 Q334.6206,1820.4678 334.6206,1821.9287 Q334.6206,1823.7217 333.5415,1824.5269 Q332.4624,1825.332 330.0303,1825.332 L326.0376,1825.332 Z "/><text fill="#000000" font-family="sans-serif" font-size="12" lengthAdjust="spacingAndGlyphs" textLength="61" x="344" y="1822.8672">TaskOfSku</text><line style="stroke: #A80036; stroke-width: 1.5;" x1="316" x2="407" y1="1834.332" y2="1834.332"/><text fill="#000000" font-family="sans-serif" font-size="11" lengthAdjust="spacingAndGlyphs" textLength="69" x="321" y="1865.9219">confirmQty()</text><line style="stroke: #A80036; stroke-width: 1.5;" x1="316" x2="350.5" y1="1848.8096" y2="1848.8096"/><text fill="#000000" font-family="sans-serif" font-size="11" lengthAdjust="spacingAndGlyphs" textLength="22" x="350.5" y="1852.4668">行为</text><line style="stroke: #A80036; stroke-width: 1.5;" x1="372.5" x2="407" y1="1848.8096" y2="1848.8096"/><!--class ShippingManifest--><rect fill="#FEFECE" filter="url(#f8ym73o)" height="99.8203" style="stroke: #A80036; stroke-width: 1.5;" width="129" x="297" y="1963.332"/><ellipse cx="312" cy="1979.332" fill="#FF7700" rx="11" ry="11" style="stroke: #A80036; stroke-width: 1.0;"/><path d="M312.6987,1979.98 Q313.064,1980.0547 313.3337,1980.3245 Q313.6035,1980.5942 313.9937,1981.3745 L316.2349,1985.832 L313.5454,1985.832 L312.0513,1982.7026 Q311.9849,1982.5698 311.877,1982.3374 Q311.2212,1980.9346 310.333,1980.9346 L309.5527,1980.9346 L309.5527,1985.832 L307.104,1985.832 L307.104,1973.439 L310.6401,1973.439 Q313.0308,1973.439 314.0725,1974.2856 Q315.1143,1975.1323 315.1143,1977.0415 Q315.1143,1978.3198 314.4917,1979.0752 Q313.8691,1979.8306 312.6987,1979.98 Z M309.5527,1975.4976 L309.5527,1978.876 L310.7065,1978.876 Q311.7109,1978.876 312.1467,1978.4817 Q312.5825,1978.0874 312.5825,1977.1826 Q312.5825,1976.2778 312.1509,1975.8877 Q311.7192,1975.4976 310.7065,1975.4976 Z "/><text fill="#000000" font-family="sans-serif" font-size="12" lengthAdjust="spacingAndGlyphs" textLength="97" x="326" y="1983.8672">ShippingManifest</text><line style="stroke: #A80036; stroke-width: 1.5;" x1="298" x2="425" y1="1995.332" y2="1995.332"/><text fill="#000000" font-family="sans-serif" font-size="11" lengthAdjust="spacingAndGlyphs" textLength="51" x="303" y="2026.9219">carrierNo</text><line style="stroke: #A80036; stroke-width: 1.5;" x1="298" x2="335" y1="2009.8096" y2="2009.8096"/><text fill="#000000" font-family="sans-serif" font-size="11" lengthAdjust="spacingAndGlyphs" textLength="53" x="335" y="2013.4668">Structural</text><line style="stroke: #A80036; stroke-width: 1.5;" x1="388" x2="425" y1="2009.8096" y2="2009.8096"/><text fill="#000000" font-family="sans-serif" font-size="11" lengthAdjust="spacingAndGlyphs" textLength="38" x="303" y="2056.832">extInfo</text><line style="stroke: #A80036; stroke-width: 1.5;" x1="298" x2="337" y1="2039.7197" y2="2039.7197"/><text fill="#000000" font-family="sans-serif" font-size="11" lengthAdjust="spacingAndGlyphs" textLength="49" x="337" y="2043.377">Reserved</text><line style="stroke: #A80036; stroke-width: 1.5;" x1="386" x2="425" y1="2039.7197" y2="2039.7197"/><!--class ManualCheckAppService--><rect fill="#FEFECE" filter="url(#f8ym73o)" height="151.6406" style="stroke: #A80036; stroke-width: 1.5;" width="647" x="38" y="263.332"/><ellipse cx="287.25" cy="279.332" fill="#ADD1B2" rx="11" ry="11" style="stroke: #A80036; stroke-width: 1.0;"/><path d="M289.7231,285.4751 Q289.1421,285.7739 288.5029,285.9233 Q287.8638,286.0728 287.1582,286.0728 Q284.6514,286.0728 283.3315,284.4209 Q282.0117,282.769 282.0117,279.6479 Q282.0117,276.5186 283.3315,274.8667 Q284.6514,273.2148 287.1582,273.2148 Q287.8638,273.2148 288.5112,273.3643 Q289.1587,273.5137 289.7231,273.8125 L289.7231,276.5352 Q289.0923,275.9541 288.4988,275.6843 Q287.9053,275.4146 287.2744,275.4146 Q285.9297,275.4146 285.2449,276.4812 Q284.5601,277.5479 284.5601,279.6479 Q284.5601,281.7397 285.2449,282.8064 Q285.9297,283.873 287.2744,283.873 Q287.9053,283.873 288.4988,283.6033 Q289.0923,283.3335 289.7231,282.7524 Z "/><text fill="#000000" font-family="sans-serif" font-size="12" lengthAdjust="spacingAndGlyphs" textLength="140" x="307.75" y="283.8672">ManualCheckAppService</text><line style="stroke: #A80036; stroke-width: 1.5;" x1="39" x2="684" y1="295.332" y2="295.332"/><line style="stroke: #A80036; stroke-width: 1.5;" x1="39" x2="684" y1="303.332" y2="303.332"/><text fill="#000000" font-family="sans-serif" font-size="11" lengthAdjust="spacingAndGlyphs" textLength="338" x="44" y="317.9668">recommendPlatform(taskNo) 拣货员应该去哪一个复核台进行复核?</text><text fill="#000000" font-family="sans-serif" font-size="11" lengthAdjust="spacingAndGlyphs" textLength="276" x="44" y="330.9219">claimTask(containerNo) 复核员扫描容器领取复核任务.</text><text fill="#000000" font-family="sans-serif" font-size="11" lengthAdjust="spacingAndGlyphs" textLength="361" x="44" y="343.877">checkBySku(orderNo,qty,skuNo,taskNo) 复核装箱一体化：按货品维度.</text><text fill="#000000" font-family="sans-serif" font-size="11" lengthAdjust="spacingAndGlyphs" textLength="225" x="44" y="356.832">checkByOrder(orderNo,qty,skuNo,taskNo)</text><text fill="#000000" font-family="sans-serif" font-size="11" lengthAdjust="spacingAndGlyphs" textLength="168" x="44" y="369.7871">pause(orderNo) 暂停一个出库单.</text><text fill="#000000" font-family="sans-serif" font-size="11" lengthAdjust="spacingAndGlyphs" textLength="209" x="44" y="382.7422">resume(orderNo) 恢复一个出库单的执行.</text><text fill="#000000" font-family="sans-serif" font-size="11" lengthAdjust="spacingAndGlyphs" textLength="190" x="44" y="395.6973">recheck(cartonNo,taskNo) 重新复核.</text><text fill="#000000" font-family="sans-serif" font-size="11" lengthAdjust="spacingAndGlyphs" textLength="635" x="44" y="408.6523">fulfillCarton(cartonNo,consumables,orderNo) 复核员把拣货容器的货品放入箱，并使用耗材以便运输安全，该过程发现箱已满.</text><!--class TaskSubmittedConsumer--><rect fill="#FEFECE" filter="url(#f8ym73o)" height="60.9551" style="stroke: #A80036; stroke-width: 1.5;" width="176" x="273.5" y="450.832"/><ellipse cx="288.5" cy="466.832" fill="#ADD1B2" rx="11" ry="11" style="stroke: #A80036; stroke-width: 1.0;"/><path d="M290.9731,472.9751 Q290.3921,473.2739 289.7529,473.4233 Q289.1138,473.5728 288.4082,473.5728 Q285.9014,473.5728 284.5815,471.9209 Q283.2617,470.269 283.2617,467.1479 Q283.2617,464.0186 284.5815,462.3667 Q285.9014,460.7148 288.4082,460.7148 Q289.1138,460.7148 289.7612,460.8643 Q290.4087,461.0137 290.9731,461.3125 L290.9731,464.0352 Q290.3423,463.4541 289.7488,463.1843 Q289.1553,462.9146 288.5244,462.9146 Q287.1797,462.9146 286.4949,463.9812 Q285.8101,465.0479 285.8101,467.1479 Q285.8101,469.2397 286.4949,470.3064 Q287.1797,471.373 288.5244,471.373 Q289.1553,471.373 289.7488,471.1033 Q290.3423,470.8335 290.9731,470.2524 Z "/><text fill="#000000" font-family="sans-serif" font-size="12" lengthAdjust="spacingAndGlyphs" textLength="144" x="302.5" y="471.3672">TaskSubmittedConsumer</text><line style="stroke: #A80036; stroke-width: 1.5;" x1="274.5" x2="448.5" y1="482.832" y2="482.832"/><line style="stroke: #A80036; stroke-width: 1.5;" x1="274.5" x2="448.5" y1="490.832" y2="490.832"/><text fill="#000000" font-family="sans-serif" font-size="11" lengthAdjust="spacingAndGlyphs" textLength="119" x="279.5" y="505.4668">消费接收复核任务(json)</text><!--class RecommendPlatformFlow--><rect fill="#FEFECE" filter="url(#f8ym73o)" height="60.9551" style="stroke: #A80036; stroke-width: 1.5;" width="216" x="253.5" y="110.832"/><ellipse cx="286.05" cy="126.832" fill="#ADD1B2" rx="11" ry="11" style="stroke: #A80036; stroke-width: 1.0;"/><path d="M288.5231,132.9751 Q287.9421,133.2739 287.3029,133.4233 Q286.6638,133.5728 285.9582,133.5728 Q283.4514,133.5728 282.1315,131.9209 Q280.8117,130.269 280.8117,127.1479 Q280.8117,124.0186 282.1315,122.3667 Q283.4514,120.7148 285.9582,120.7148 Q286.6638,120.7148 287.3112,120.8643 Q287.9587,121.0137 288.5231,121.3125 L288.5231,124.0352 Q287.8923,123.4541 287.2988,123.1843 Q286.7053,122.9146 286.0744,122.9146 Q284.7297,122.9146 284.0449,123.9812 Q283.3601,125.0479 283.3601,127.1479 Q283.3601,129.2397 284.0449,130.3064 Q284.7297,131.373 286.0744,131.373 Q286.7053,131.373 287.2988,131.1033 Q287.8923,130.8335 288.5231,130.2524 Z "/><text fill="#000000" font-family="sans-serif" font-size="12" lengthAdjust="spacingAndGlyphs" textLength="145" x="303.95" y="131.3672">RecommendPlatformFlow</text><line style="stroke: #A80036; stroke-width: 1.5;" x1="254.5" x2="468.5" y1="142.832" y2="142.832"/><line style="stroke: #A80036; stroke-width: 1.5;" x1="254.5" x2="468.5" y1="150.832" y2="150.832"/><text fill="#000000" font-family="sans-serif" font-size="11" lengthAdjust="spacingAndGlyphs" textLength="204" x="259.5" y="165.4668">execute(RecommendPlatformRequest)</text><path d="M2570.16,1315.522 C2637.39,1309.502 2712.12,1302.812 2771.9,1297.452 " fill="none" style="stroke: #A80036; stroke-width: 1.0;"/><polygon fill="#A80036" points="2556.82,1316.712,2563.1524,1320.1618,2568.7723,1315.6434,2562.44,1312.1936,2556.82,1316.712" style="stroke: #A80036; stroke-width: 1.0;"/><text fill="#000000" font-family="sans-serif" font-size="13" lengthAdjust="spacingAndGlyphs" textLength="49" x="2625" y="1303.9004">HasOne</text><text fill="#000000" font-family="sans-serif" font-size="13" lengthAdjust="spacingAndGlyphs" textLength="8" x="2564.6015" y="1328.5524">1</text><text fill="#000000" font-family="sans-serif" font-size="13" lengthAdjust="spacingAndGlyphs" textLength="8" x="2755.9652" y="1311.2177">1</text><path d="M2569.1,1387.982 C2652.62,1414.922 2734.5,1441.332 2734.5,1441.332 C2734.5,1441.332 2773.61,1452.242 2811.95,1462.952 " fill="none" style="stroke: #A80036; stroke-width: 1.0;"/><polygon fill="#FFFFFF" points="2556.51,1383.912,2560.9903,1389.5624,2567.9293,1387.5999,2563.4489,1381.9496,2556.51,1383.912" style="stroke: #A80036; stroke-width: 1.0;"/><text fill="#000000" font-family="sans-serif" font-size="13" lengthAdjust="spacingAndGlyphs" textLength="61" x="2619" y="1402.9004">Associate</text><path d="M2569.7,1356.072 C2652.23,1367.652 2746.17,1380.842 2809.88,1389.782 " fill="none" style="stroke: #A80036; stroke-width: 1.0;"/><polygon fill="#FFFFFF" points="2556.82,1354.262,2562.203,1359.0603,2568.7025,1355.9369,2563.3196,1351.1386,2556.82,1354.262" style="stroke: #A80036; stroke-width: 1.0;"/><text fill="#000000" font-family="sans-serif" font-size="13" lengthAdjust="spacingAndGlyphs" textLength="61" x="2619" y="1360.9004">Associate</text><path d="M2557.53,1235.742 C2645.8,1184.312 2749.99,1123.592 2816.97,1084.562 " fill="none" style="stroke: #A80036; stroke-width: 1.0;"/><polygon fill="#A80036" points="2546.29,1242.292,2553.4881,1242.7245,2556.6558,1236.2464,2549.4577,1235.8139,2546.29,1242.292" style="stroke: #A80036; stroke-width: 1.0;"/><text fill="#000000" font-family="sans-serif" font-size="13" lengthAdjust="spacingAndGlyphs" textLength="57" x="2621" y="1167.9004">HasMany</text><text fill="#000000" font-family="sans-serif" font-size="13" lengthAdjust="spacingAndGlyphs" textLength="8" x="2564.0352" y="1240.7984">1</text><text fill="#000000" font-family="sans-serif" font-size="13" lengthAdjust="spacingAndGlyphs" textLength="10" x="2798.8183" y="1102.3681">N</text><path d="M3013.15,1294.932 C3073.11,1298.542 3143.32,1302.772 3197.43,1306.032 " fill="none" style="stroke: #A80036; stroke-width: 1.0;"/><polygon fill="#A80036" points="3000.13,1294.142,3005.8775,1298.4971,3012.1081,1294.8668,3006.3606,1290.5117,3000.13,1294.142" style="stroke: #A80036; stroke-width: 1.0;"/><text fill="#000000" font-family="sans-serif" font-size="13" lengthAdjust="spacingAndGlyphs" textLength="57" x="3084.5" y="1295.9004">HasMany</text><text fill="#000000" font-family="sans-serif" font-size="13" lengthAdjust="spacingAndGlyphs" textLength="8" x="3008.3053" y="1308.8416">1</text><text fill="#000000" font-family="sans-serif" font-size="13" lengthAdjust="spacingAndGlyphs" textLength="10" x="3179.3888" y="1318.803">N</text><path d="M2002.14,756.832 C2096.62,758.162 2232.5,760.072 2316.5,761.262 " fill="none" style="stroke: #A80036; stroke-width: 1.0;"/><polygon fill="#A80036" points="1989.1,756.642,1995.0423,760.7273,2001.0988,756.8134,1995.1565,752.7281,1989.1,756.642" style="stroke: #A80036; stroke-width: 1.0;"/><text fill="#000000" font-family="sans-serif" font-size="13" lengthAdjust="spacingAndGlyphs" textLength="49" x="2115" y="755.9004">HasOne</text><text fill="#000000" font-family="sans-serif" font-size="13" lengthAdjust="spacingAndGlyphs" textLength="8" x="1997.1491" y="770.7306">1</text><text fill="#000000" font-family="sans-serif" font-size="13" lengthAdjust="spacingAndGlyphs" textLength="8" x="2300.5758" y="774.4786">1</text><path d="M2923.05,830.582 C2967.57,872.892 3037.5,939.332 3037.5,939.332 C3037.5,939.332 3155.7,1116.632 3228.9,1226.432 " fill="none" style="stroke: #A80036; stroke-width: 1.0;"/><polygon fill="none" points="3234.74,1222.582,3240.01,1243.102,3223.09,1230.342,3234.74,1222.582" style="stroke: #A80036; stroke-width: 1.0;"/><text fill="#000000" font-family="sans-serif" font-size="13" lengthAdjust="spacingAndGlyphs" textLength="58" x="3084" y="1007.9004">BelongTo</text><path d="M2482.53,768.432 C2579.46,775.152 2733.06,785.802 2819.78,791.812 " fill="none" style="stroke: #A80036; stroke-width: 1.0;"/><polygon fill="#A80036" points="2469.53,767.532,2475.2387,771.9377,2481.5012,768.3626,2475.7925,763.9569,2469.53,767.532" style="stroke: #A80036; stroke-width: 1.0;"/><text fill="#000000" font-family="sans-serif" font-size="13" lengthAdjust="spacingAndGlyphs" textLength="57" x="2621" y="774.9004">HasMany</text><text fill="#000000" font-family="sans-serif" font-size="13" lengthAdjust="spacingAndGlyphs" textLength="8" x="2477.3959" y="782.9125">1</text><text fill="#000000" font-family="sans-serif" font-size="13" lengthAdjust="spacingAndGlyphs" textLength="10" x="2801.9903" y="804.7282">N</text><path d="M1209.98,1321.192 C1286.92,1314.242 1374.16,1306.352 1426.59,1301.612 " fill="none" style="stroke: #A80036; stroke-width: 1.0;"/><polygon fill="#A80036" points="1196.74,1322.392,1203.0758,1325.8355,1208.6913,1321.3115,1202.3555,1317.868,1196.74,1322.392" style="stroke: #A80036; stroke-width: 1.0;"/><text fill="#000000" font-family="sans-serif" font-size="13" lengthAdjust="spacingAndGlyphs" textLength="57" x="1251" y="1309.9004">HasMany</text><text fill="#000000" font-family="sans-serif" font-size="13" lengthAdjust="spacingAndGlyphs" textLength="8" x="1204.1334" y="1334.3873">1</text><text fill="#000000" font-family="sans-serif" font-size="13" lengthAdjust="spacingAndGlyphs" textLength="10" x="1409.1495" y="1315.8777">N</text><path d="M1126.72,1188.362 C1211.8,1174.632 1348.99,1152.502 1422.9,1140.572 " fill="none" style="stroke: #A80036; stroke-width: 1.0;"/><polygon fill="#A80036" points="1113.79,1190.442,1120.3509,1193.4345,1125.6366,1188.5292,1119.0757,1185.5367,1113.79,1190.442" style="stroke: #A80036; stroke-width: 1.0;"/><text fill="#000000" font-family="sans-serif" font-size="13" lengthAdjust="spacingAndGlyphs" textLength="57" x="1251" y="1156.9004">HasMany</text><text fill="#000000" font-family="sans-serif" font-size="13" lengthAdjust="spacingAndGlyphs" textLength="8" x="1121.4554" y="1202.4098">1</text><text fill="#000000" font-family="sans-serif" font-size="13" lengthAdjust="spacingAndGlyphs" textLength="10" x="1404.9406" y="1155.3757">N</text><path d="M1526.01,1132.332 C1597.9,1132.332 1731.13,1132.332 1816.03,1132.332 " fill="none" style="stroke: #A80036; stroke-width: 1.0;"/><polygon fill="none" points="1816.24,1125.332,1836.24,1132.332,1816.24,1139.332,1816.24,1125.332" style="stroke: #A80036; stroke-width: 1.0;"/><text fill="#000000" font-family="sans-serif" font-size="13" lengthAdjust="spacingAndGlyphs" textLength="50" x="1643.5" y="1128.9004">Extends</text><path d="M506.68,1369.372 C655.12,1467.902 880.29,1617.352 988.35,1689.082 " fill="none" style="stroke: #A80036; stroke-width: 1.0;"/><polygon fill="none" points="992.49,1683.422,1005.28,1700.312,984.74,1695.092,992.49,1683.422" style="stroke: #A80036; stroke-width: 1.0;"/><text fill="#000000" font-family="sans-serif" font-size="13" lengthAdjust="spacingAndGlyphs" textLength="58" x="756" y="1505.9004">BelongTo</text><path d="M542.65,1319.852 C692.86,1358.022 883,1406.332 883,1406.332 C883,1406.332 1050.5,1433.332 1050.5,1433.332 C1050.5,1433.332 1050.5,1433.332 1896,1433.332 C1896,1433.332 2067.35,1398.062 2208.53,1369.002 " fill="none" style="stroke: #A80036; stroke-width: 1.0;"/><polygon fill="none" points="2207.22,1362.122,2228.23,1364.942,2210.05,1375.832,2207.22,1362.122" style="stroke: #A80036; stroke-width: 1.0;"/><text fill="#000000" font-family="sans-serif" font-size="13" lengthAdjust="spacingAndGlyphs" textLength="58" x="1445" y="1429.9004">BelongTo</text><path d="M542.65,1227.432 C692.86,1188.112 883,1138.332 883,1138.332 C883,1138.332 951,1121.692 1000.35,1109.612 " fill="none" style="stroke: #A80036; stroke-width: 1.0;"/><polygon fill="none" points="998.69,1102.812,1019.78,1104.852,1002.02,1116.402,998.69,1102.812" style="stroke: #A80036; stroke-width: 1.0;"/><text fill="#000000" font-family="sans-serif" font-size="13" lengthAdjust="spacingAndGlyphs" textLength="134" x="718" y="1144.9004">BelongTo/Contextual</text><path d="M556.03,1291.402 C667.47,1301.282 805.41,1313.512 907.43,1322.562 " fill="none" style="stroke: #A80036; stroke-width: 1.0;"/><polygon fill="#A80036" points="542.92,1290.242,548.5404,1294.7599,554.8724,1291.3094,549.252,1286.7916,542.92,1290.242" style="stroke: #A80036; stroke-width: 1.0;"/><text fill="#000000" font-family="sans-serif" font-size="13" lengthAdjust="spacingAndGlyphs" textLength="49" x="760.5" y="1302.9004">HasOne</text><text fill="#000000" font-family="sans-serif" font-size="13" lengthAdjust="spacingAndGlyphs" textLength="8" x="550.6769" y="1304.9173">1</text><text fill="#000000" font-family="sans-serif" font-size="13" lengthAdjust="spacingAndGlyphs" textLength="8" x="891.3051" y="1334.8531">1</text><path d="M555.73,1253.622 C701.59,1237.912 892.91,1217.302 989.33,1206.922 " fill="none" style="stroke: #A80036; stroke-width: 1.0;"/><polygon fill="#A80036" points="542.66,1255.032,549.0562,1258.3621,554.5901,1253.7387,548.1939,1250.4087,542.66,1255.032" style="stroke: #A80036; stroke-width: 1.0;"/><text fill="#000000" font-family="sans-serif" font-size="13" lengthAdjust="spacingAndGlyphs" textLength="49" x="760.5" y="1218.9004">HasOne</text><text fill="#000000" font-family="sans-serif" font-size="13" lengthAdjust="spacingAndGlyphs" textLength="8" x="550.3938" y="1266.5715">1</text><text fill="#000000" font-family="sans-serif" font-size="13" lengthAdjust="spacingAndGlyphs" textLength="8" x="973.6791" y="1221.1375">1</text><path d="M2958.61,1655.902 C3028.57,1582.162 3135.46,1469.492 3207.8,1393.242 " fill="none" style="stroke: #A80036; stroke-width: 1.0;"/><polygon fill="none" points="3202.94,1388.182,3221.78,1378.492,3213.1,1397.822,3202.94,1388.182" style="stroke: #A80036; stroke-width: 1.0;"/><text fill="#000000" font-family="sans-serif" font-size="13" lengthAdjust="spacingAndGlyphs" textLength="58" x="3084" y="1467.9004">BelongTo</text><path d="M415.06,1742.342 C538.95,1740.002 849.03,1734.142 984.94,1731.572 " fill="none" style="stroke: #A80036; stroke-width: 1.0;"/><polygon fill="none" points="985.07,1724.572,1005.2,1731.192,985.34,1738.562,985.07,1724.572" style="stroke: #A80036; stroke-width: 1.0;"/><text fill="#000000" font-family="sans-serif" font-size="13" lengthAdjust="spacingAndGlyphs" textLength="69" x="750.5" y="1729.9004">Contextual</text><path d="M2504.81,1730.332 C2589.99,1730.332 2706.32,1730.332 2787.99,1730.332 " fill="none" style="stroke: #A80036; stroke-width: 1.0;"/><polygon fill="#A80036" points="2491.69,1730.332,2497.69,1734.332,2503.69,1730.332,2497.69,1726.332,2491.69,1730.332" style="stroke: #A80036; stroke-width: 1.0;"/><text fill="#000000" font-family="sans-serif" font-size="13" lengthAdjust="spacingAndGlyphs" textLength="57" x="2621" y="1726.9004">HasMany</text><text fill="#000000" font-family="sans-serif" font-size="13" lengthAdjust="spacingAndGlyphs" textLength="8" x="2499.4558" y="1744.1832">1</text><text fill="#000000" font-family="sans-serif" font-size="13" lengthAdjust="spacingAndGlyphs" textLength="10" x="2770.065" y="1743.4501">N</text><path d="M1978.39,1730.332 C2064.71,1730.332 2201.08,1730.332 2293.31,1730.332 " fill="none" style="stroke: #A80036; stroke-width: 1.0;"/><polygon fill="#A80036" points="1965.24,1730.332,1971.24,1734.332,1977.24,1730.332,1971.24,1726.332,1965.24,1730.332" style="stroke: #A80036; stroke-width: 1.0;"/><text fill="#000000" font-family="sans-serif" font-size="13" lengthAdjust="spacingAndGlyphs" textLength="49" x="2115" y="1726.9004">HasOne</text><text fill="#000000" font-family="sans-serif" font-size="13" lengthAdjust="spacingAndGlyphs" textLength="8" x="1973.2641" y="1744.7559">1</text><text fill="#000000" font-family="sans-serif" font-size="13" lengthAdjust="spacingAndGlyphs" textLength="8" x="2277.4095" y="1743.4934">1</text><path d="M408.16,1830.482 C502.24,1816.362 709,1785.332 709,1785.332 C709,1785.332 886.16,1756.802 985.28,1740.832 " fill="none" style="stroke: #A80036; stroke-width: 1.0;"/><polygon fill="none" points="984.29,1733.902,1005.15,1737.632,986.52,1747.722,984.29,1733.902" style="stroke: #A80036; stroke-width: 1.0;"/><text fill="#000000" font-family="sans-serif" font-size="13" lengthAdjust="spacingAndGlyphs" textLength="69" x="750.5" y="1758.9004">Contextual</text><path d="M1110.69,1730.332 C1175.6,1730.332 1282.05,1730.332 1362.82,1730.332 " fill="none" style="stroke: #A80036; stroke-width: 1.0;"/><polygon fill="#A80036" points="1097.5,1730.332,1103.5,1734.332,1109.5,1730.332,1103.5,1726.332,1097.5,1730.332" style="stroke: #A80036; stroke-width: 1.0;"/><text fill="#000000" font-family="sans-serif" font-size="13" lengthAdjust="spacingAndGlyphs" textLength="49" x="1255" y="1726.9004">HasOne</text><text fill="#000000" font-family="sans-serif" font-size="13" lengthAdjust="spacingAndGlyphs" textLength="8" x="1105.5125" y="1745.8197">1</text><text fill="#000000" font-family="sans-serif" font-size="13" lengthAdjust="spacingAndGlyphs" textLength="8" x="1347.0813" y="1743.4238">1</text><path d="M425.62,1666.512 C558.1,1679.472 853,1708.332 853,1708.332 C853,1708.332 927.47,1716.632 984.95,1723.032 " fill="none" style="stroke: #A80036; stroke-width: 1.0;"/><polygon fill="none" points="986.09,1716.112,1005.19,1725.282,984.54,1730.032,986.09,1716.112" style="stroke: #A80036; stroke-width: 1.0;"/><text fill="#000000" font-family="sans-serif" font-size="13" lengthAdjust="spacingAndGlyphs" textLength="69" x="750.5" y="1691.9004">Contextual</text><path d="M1598.23,1730.332 C1672.39,1730.332 1764.06,1730.332 1825.73,1730.332 " fill="none" style="stroke: #A80036; stroke-width: 1.0;"/><polygon fill="#A80036" points="1585.08,1730.332,1591.08,1734.332,1597.08,1730.332,1591.08,1726.332,1585.08,1730.332" style="stroke: #A80036; stroke-width: 1.0;"/><text fill="#000000" font-family="sans-serif" font-size="13" lengthAdjust="spacingAndGlyphs" textLength="57" x="1640" y="1726.9004">HasMany</text><text fill="#000000" font-family="sans-serif" font-size="13" lengthAdjust="spacingAndGlyphs" textLength="8" x="1592.8074" y="1744.0446">1</text><text fill="#000000" font-family="sans-serif" font-size="13" lengthAdjust="spacingAndGlyphs" textLength="10" x="1808.0193" y="1743.6854">N</text><text fill="#888888" font-family="sans-serif" font-size="10" lengthAdjust="spacingAndGlyphs" textLength="108" x="1682" y="2139">generated by DDDplus</text></g></svg>